<?xml version="1.0" encoding="utf-8"?>
<!-- Generator: Adobe Illustrator 12.0.0, SVG Export Plug-In . SVG Version: 6.00 Build 51448)  -->
<!DOCTYPE svg PUBLIC "-//W3C//DTD SVG 1.1//EN" "http://www.w3.org/Graphics/SVG/1.1/DTD/svg11.dtd" [
	<!ENTITY ns_svg "http://www.w3.org/2000/svg">
	<!ENTITY ns_xlink "http://www.w3.org/1999/xlink">
]>
<svg  version="1.1" id="Layer_1" xmlns="&ns_svg;" xmlns:xlink="&ns_xlink;" width="481" height="385" viewBox="0 0 481 385"
	 overflow="visible" enable-background="new 0 0 481 385" xml:space="preserve">
<g>
	<g>
		<g>
			<path fill="#FFFFFF" d="M0.5,28.5c0-15.4638672,12.5356445-28,28-28h424c15.4638672,0,28,12.5361328,28,28v328
				c0,15.4648438-12.5361328,28-28,28h-424c-15.4643555,0-28-12.5351563-28-28V28.5L0.5,28.5z"/>
			<path fill="#FFFFFF" d="M240.5,192.5"/>
		</g>
		<g>
			<path fill="none" stroke="#000000" stroke-linecap="round" stroke-linejoin="round" stroke-miterlimit="3.863693" d="M0.5,28.5
				c0-15.4638672,12.5356445-28,28-28h424c15.4638672,0,28,12.5361328,28,28v328c0,15.4648438-12.5361328,28-28,28h-424
				c-15.4643555,0-28-12.5351563-28-28V28.5L0.5,28.5z"/>
			<path fill="none" stroke="#000000" stroke-linecap="round" stroke-linejoin="round" stroke-miterlimit="3.863693" d="
				M240.5,192.5"/>
		</g>
	</g>
	<g>
		<g>
			<path d="M6.5,28.5c0-12.1503906,9.8496094-22,22-22h424c12.1503906,0,22,9.8496094,22,22v328c0,12.1503906-9.8496094,22-22,22
				h-424c-12.1503906,0-22-9.8496094-22-22V28.5L6.5,28.5z"/>
			<path d="M240.5,192.5"/>
		</g>
	</g>
	<g>
		<g>
			<path fill="#FFFFFF" d="M14.5,28.5c0-7.7319336,6.2675781-14,14-14h424c7.7324219,0,14,6.2680664,14,14v328
				c0,7.7324219-6.2675781,14-14,14h-424c-7.7324219,0-14-6.2675781-14-14V28.5L14.5,28.5z"/>
			<path fill="#FFFFFF" d="M240.5,192.5"/>
		</g>
	</g>
	<g>
		<polygon fill-rule="evenodd" clip-rule="evenodd" points="299.3105469,117.1225586 283.9921875,108.8989258 
			237.1367188,118.9511719 193.8828125,86.0576172 170.456543,80.5776367 166.8530273,84.2314453 133.512207,81.4921875 124.5,28.5 
			238.0385742,28.5 239.8393555,31.2402344 241.6425781,38.5488281 358.7861328,39.4638672 362.390625,31.2402344 
			398.4326172,32.1542969 429.9726563,140.878418 423.6621094,179.2519531 432.6748047,230.4179688 447.0917969,258.7402344 
			452.5,287.9755859 452.5,323.609375 417.3554688,356.5 395.7304688,356.5 372.3007813,345.5371094 379.0820313,331.0449219 
			399.2890625,340.5 411.0371094,340.5 436.5,316.6699219 436.5,289.4433594 431.78125,263.9316406 417.3320313,235.546875 
			407.4326172,179.3442383 413.5966797,141.8569336 386.3271484,47.8525391 372.7304688,47.5078125 369.2070313,55.5458984 
			229.5249023,54.4545898 226.7080078,44.5 143.4506836,44.5 147.203125,66.5634766 160.7114258,67.6728516 165.3652344,62.9550781 
			200.8505859,71.2553711 240.9697266,101.7646484 286.3818359,92.0219727 306.8789063,103.0253906 		"/>
	</g>
</g>
<g>
	<path fill-rule="evenodd" clip-rule="evenodd" d="M157.1367188,257.953125c0,5.9013672-1.0454102,11.5263672-3.1357422,16.875
		c-2.090332,5.3496094-4.9799805,9.8066406-8.668457,13.3720703C139.9223633,293.7333984,132.421875,296.5,122.8310547,296.5
		c-6.1479492,0-11.4042969-1.1064453-15.7695313-3.3203125c-4.3652344-2.2128906-8.0844727-5.4707031-11.1582031-9.7744141
		c-2.4594727-3.4433594-4.3652344-7.3779297-5.7177734-11.8037109c-1.3525391-4.4267578-2.0288086-8.9765625-2.0288086-13.6484375
		c0-6.1484375,0.9526367-11.8359375,2.8588867-17.0615234c1.9057617-5.2255859,4.8261719-9.8056641,8.7607422-13.7402344
		c-6.6396484-7.2548828-9.9599609-15.7998047-9.9599609-25.6367188c0-4.7958984,0.7993164-9.222168,2.3979492-13.2797852
		c1.5981445-4.0576172,3.8422852-7.5307617,6.7319336-10.4204102s6.3632813-5.1645508,10.4208984-6.8242188
		C113.4248047,169.3300781,117.9125977,168.5,122.8310547,168.5c4.7954102,0,9.1601563,0.8300781,13.0947266,2.4902344
		c3.9350586,1.659668,7.347168,3.9345703,10.2363281,6.8242188c2.8896484,2.8896484,5.1337891,6.362793,6.7324219,10.4204102
		c1.5981445,4.0576172,2.3974609,8.4838867,2.3974609,13.2797852c0,5.0410156-0.8300781,9.7441406-2.4897461,14.109375
		c-1.6601563,4.3652344-4.1499023,8.2080078-7.4697266,11.5273438c3.9345703,3.6884766,6.8852539,8.2080078,8.8530273,13.5556641
		C156.152832,246.0566406,157.1367188,251.8046875,157.1367188,257.953125z M137.9550781,201.5146484
		c0-4.5498047-1.4448242-8.2998047-4.3344727-11.2509766s-6.4858398-4.4267578-10.7895508-4.4267578
		c-4.5498047,0-8.2998047,1.4755859-11.2509766,4.4267578c-2.9506836,2.9511719-4.4262695,6.7011719-4.4262695,11.2509766
		c0,5.0410156,1.4755859,9.0371094,4.4262695,11.9882813c2.9511719,2.9511719,6.7011719,4.4267578,11.2509766,4.4267578
		c4.3037109,0,7.8999023-1.4755859,10.7895508-4.4267578S137.9550781,206.5556641,137.9550781,201.5146484z M140.1679688,257.953125
		c0-6.7636719-1.5981445-12.1425781-4.7949219-16.1386719c-3.1972656-3.9960938-7.3779297-5.9941406-12.5419922-5.9941406
		c-5.1645508,0-9.3447266,1.9980469-12.5419922,5.9941406c-3.1967773,3.9960938-4.7954102,9.375-4.7954102,16.1386719
		c0,6.2705078,1.5986328,11.3730469,4.7954102,15.3076172c3.1972656,3.9345703,7.3774414,5.9023438,12.5419922,5.9023438
		c5.1640625,0,9.3447266-1.9677734,12.5419922-5.9023438C138.5698242,269.3261719,140.1679688,264.2236328,140.1679688,257.953125z"
		/>
	<path fill-rule="evenodd" clip-rule="evenodd" d="M237.5488281,188.0507813
		c-5.5332031,6.2705078-10.4511719,13.3710938-14.7548828,21.3027344
		c-4.3037109,7.9306641-8.1767578,16.8759766-11.6196289,26.8359375
		c-3.3198242,9.4667969-5.7172852,18.7197266-7.1928711,27.7578125c-1.4755859,9.0371094-2.4594727,19.1503906-2.9511719,30.3398438
		h-17.3374023v-2.5820313c0-3.0742188,0.1845703-6.640625,0.5532227-10.6972656
		c0.3691406-4.0585938,0.8916016-8.2695313,1.5678711-12.6347656s1.4448242-8.7910156,2.3056641-13.2792969
		s1.8442383-8.7607422,2.9506836-12.8183594c1.3525391-4.9179688,2.7973633-9.6210938,4.3344727-14.109375
		s3.2583008-8.8837891,5.1645508-13.1875c1.9057617-4.3037109,4.0268555-8.6376953,6.362793-13.0029297
		c2.3364258-4.3652344,5.0415039-9.0068359,8.1152344-13.9248047h-46.4780273v-17.3374023h68.9794922V188.0507813z"/>
	<path fill-rule="evenodd" clip-rule="evenodd" d="M328.84375,257.0302734c0,5.9023438-0.7998047,11.2509766-2.3984375,16.0458984
		c-1.5976563,4.7958984-3.9033203,8.9453125-6.9160156,12.4492188c-3.0126953,3.5048828-6.6708984,6.2099609-10.9746094,8.1162109
		C304.2519531,295.546875,299.4560547,296.5,294.1689453,296.5c-11.3125,0-19.8583984-3.9042969-25.6367188-11.7119141
		c-5.7792969-7.8076172-8.6689453-18.7822266-8.6689453-32.921875c0-7.5009766,0.953125-15.0322266,2.859375-22.59375
		c1.9052734-7.5615234,4.671875-14.8779297,8.2998047-21.9482422c3.6269531-7.0703125,8.0839844-13.8017578,13.3710938-20.1958008
		c5.2880859-6.394043,11.3125-12.1728516,18.0751953-17.3374023l9.9589844,14.0175781
		c-2.5820313,1.9667969-5.1943359,4.3037109-7.8378906,7.0083008c-2.6435547,2.7055664-5.1337891,5.5639648-7.4697266,8.5766602
		c-2.3369141,3.0126953-4.4267578,6.1171875-6.2705078,9.3134766c-1.8447266,3.1972656-3.3203125,6.2714844-4.4267578,9.2226563
		c1.4755859-0.2460938,2.8583984-0.3691406,4.1494141-0.3691406s2.4902344,0,3.5966797,0
		c5.2871094,0,10.0830078,0.953125,14.3857422,2.859375c4.3037109,1.9052734,7.9619141,4.6103516,10.9746094,8.1152344
		c3.0126953,3.5039063,5.3183594,7.6542969,6.9160156,12.4492188
		C328.0439453,245.7792969,328.84375,251.1289063,328.84375,257.0302734z M311.5058594,257.0302734
		c0-6.6396484-1.5976563-12.0498047-4.7949219-16.2304688s-7.3779297-6.2705078-12.5419922-6.2705078
		c-5.2871094,0-9.4990234,1.9667969-12.6337891,5.9013672c-3.1357422,3.9345703-4.703125,8.8535156-4.703125,14.7548828
		c0,7.0087891,1.5673828,12.7578125,4.703125,17.2451172c3.1347656,4.4882813,7.3466797,6.7324219,12.6337891,6.7324219
		c5.1640625,0,9.3447266-2.0595703,12.5419922-6.1787109S311.5058594,263.546875,311.5058594,257.0302734z"/>
</g>
</svg>
