<?xml version="1.0" encoding="UTF-8" standalone="no"?>
<!-- Created with Inkscape (http://www.inkscape.org/) -->
<svg
   xmlns:dc="http://purl.org/dc/elements/1.1/"
   xmlns:cc="http://web.resource.org/cc/"
   xmlns:rdf="http://www.w3.org/1999/02/22-rdf-syntax-ns#"
   xmlns:svg="http://www.w3.org/2000/svg"
   xmlns="http://www.w3.org/2000/svg"
   xmlns:sodipodi="http://sodipodi.sourceforge.net/DTD/sodipodi-0.dtd"
   xmlns:inkscape="http://www.inkscape.org/namespaces/inkscape"
   version="1.0"
   width="751"
   height="601"
   viewBox="0 0 750 599.99902"
   id="Layer_1"
   xml:space="preserve"
   sodipodi:version="0.32"
   inkscape:version="0.45"
   sodipodi:docname="I-184.svg"
   sodipodi:docbase="C:\Documents and Settings\ltljltlj\Desktop\Signs\Interstate Shields"
   inkscape:output_extension="org.inkscape.output.svg.inkscape"
   sodipodi:modified="true"><metadata
   id="metadata36"><rdf:RDF><cc:Work
       rdf:about=""><dc:format>image/svg+xml</dc:format><dc:type
         rdf:resource="http://purl.org/dc/dcmitype/StillImage" /></cc:Work></rdf:RDF></metadata><sodipodi:namedview
   inkscape:window-height="966"
   inkscape:window-width="1046"
   inkscape:pageshadow="2"
   inkscape:pageopacity="0.0"
   guidetolerance="10.0"
   gridtolerance="10.0"
   objecttolerance="10.0"
   borderopacity="1.0"
   bordercolor="#666666"
   pagecolor="#ffffff"
   id="base"
   width="751px"
   height="601px"
   inkscape:zoom="1.2828155"
   inkscape:cx="374.56672"
   inkscape:cy="299.99893"
   inkscape:window-x="-3"
   inkscape:window-y="-3"
   inkscape:current-layer="Layer_1" /><defs
   id="defs62">
	
	
	
	
</defs>
<g
   transform="matrix(0.9986685,0,0,0.9986701,0.4993342,0.3989715)"
   id="g5"
   style="fill:#ffffff;fill-opacity:1;stroke:#000000;stroke-width:0.99999899;stroke-miterlimit:4;stroke-dasharray:none;stroke-opacity:1">
		<path
   id="path7"
   style="fill:#ffffff;fill-opacity:1;stroke:#000000;stroke-width:0.99999899;stroke-miterlimit:4;stroke-dasharray:none;stroke-opacity:1"
   d="M 38.915039,0 C 92.236328,15.525391 148.625,23.849609 206.95801,23.849609 C 265.29053,23.849609 321.6792,15.525391 375,0.0004883 C 428.32031,15.525391 484.70898,23.849609 543.04199,23.849609 C 601.375,23.849609 657.76367,15.525391 711.08398,0 C 736.06445,54.121094 750,114.3877 750,177.90918 C 750,395.71777 586.16016,575.25391 375,599.99902 C 163.83887,575.25391 0,395.71777 0,177.90918 C 0,114.3877 13.935059,54.121094 38.915039,0 z " />
		
			<path
   id="path9"
   style="fill:#ffffff;fill-opacity:1;stroke:#000000;stroke-width:0.99999899;stroke-linecap:round;stroke-linejoin:round;stroke-miterlimit:4;stroke-dasharray:none;stroke-opacity:1"
   d="M 38.915039,0 C 92.236328,15.525391 148.625,23.849609 206.95801,23.849609 C 265.29053,23.849609 321.6792,15.525391 375,0.0004883 C 428.32031,15.525391 484.70898,23.849609 543.04199,23.849609 C 601.375,23.849609 657.76367,15.525391 711.08398,0 C 736.06445,54.121094 750,114.3877 750,177.90918 C 750,395.71777 586.16016,575.25391 375,599.99902 C 163.83887,575.25391 0,395.71777 0,177.90918 C 0,114.3877 13.935059,54.121094 38.915039,0 z " />
	</g><g
   transform="matrix(1.0056032,0,0,1.0101352,-2.1013652,-3.7018951)"
   id="g11"
   style="fill:#003f87;fill-opacity:1">
		<path
   id="path13"
   style="fill:#003f87;fill-opacity:1"
   d="M 15,177.90918 C 15,165.12744 15.584961,152.48242 16.729004,139.99902 L 733.27051,139.99902 C 734.41504,152.48242 735,165.12744 735,177.90918 C 735,387.42285 577.85547,560.22852 375,584.89062 C 172.14453,560.22852 15,387.42285 15,177.90918 z " />
	</g><g
   transform="matrix(1.00604,0,0,1.0270827,-2.2645005,-3.1522955)"
   id="g15"
   style="fill:#af1e2d;fill-opacity:1">
		<path
   id="path17"
   style="fill:#af1e2d;fill-opacity:1"
   d="M 47.37793,17.942871 C 98.270019,31.578125 151.76562,38.849121 206.95996,38.849121 C 265.2207,38.849121 321.58936,30.748047 375,15.611328 C 428.41113,30.748047 484.7793,38.849121 543.04004,38.849121 C 598.23438,38.849121 651.73047,31.578613 702.62109,17.942871 C 716.88281,51.567383 726.78516,87.489258 731.61719,124.99902 L 18.381836,124.99902 C 23.214844,87.489258 33.116211,51.567383 47.37793,17.942871 z " />
	</g>



<path
   style="font-size:93.28099823px;font-style:normal;font-variant:normal;font-weight:normal;font-stretch:normal;text-align:center;line-height:125%;writing-mode:lr-tb;text-anchor:middle;fill:#ffffff;fill-opacity:1;font-family:Roadgeek 2005 Series C"
   d="M 183.53777,112.74918 L 183.53777,50.332876 L 192.29397,50.332876 L 192.29397,112.74918 L 183.53777,112.74918 z M 234.32652,112.74918 L 215.04301,70.921299 L 215.04301,112.74918 L 206.09918,112.74918 L 206.09918,50.332876 L 215.04301,50.332876 L 232.18297,87.782657 L 232.18297,50.332876 L 241.1268,50.332876 L 241.1268,112.74918 L 234.32652,112.74918 z M 270.23545,58.625673 L 270.23545,112.74918 L 261.20065,112.74918 L 261.20065,58.625673 L 249.83466,58.625673 L 249.83466,50.332876 L 281.60144,50.332876 L 281.60144,58.625673 L 270.23545,58.625673 z M 290.15862,112.74918 L 290.15862,50.332876 L 319.50325,50.332876 L 319.50325,59.09191 L 299.10244,59.09191 L 299.10244,74.833157 L 312.05195,74.833157 L 312.05195,83.404561 L 299.10244,83.404561 L 299.10244,103.99298 L 321.9254,103.99298 L 321.9254,112.74918 L 290.15862,112.74918 z M 358.17549,112.74918 L 349.88269,83.404561 L 341.31412,83.404561 L 341.31412,112.74918 L 332.3703,112.74918 L 332.3703,50.332876 L 351.0028,50.332876 C 353.42494,50.332938 355.64525,50.736632 357.66375,51.543959 C 359.6822,52.351409 361.42112,53.469623 362.88052,54.898605 C 364.33984,56.327702 365.45758,58.082256 366.23374,60.16227 C 367.00981,62.24239 367.39787,64.524779 367.39791,67.009442 C 367.39787,70.735604 366.65256,73.903088 365.16196,76.511902 C 363.67129,79.120788 361.43533,80.983372 358.4541,82.099661 L 367.39791,112.74918 L 358.17549,112.74918 z M 358.64173,67.009442 C 358.6417,64.587322 357.89637,62.662194 356.40576,61.234051 C 354.9151,59.806011 352.9587,59.091964 350.53656,59.09191 L 341.31412,59.09191 L 341.31412,74.833157 L 350.53656,74.833157 C 353.14444,74.833195 355.14727,74.165584 356.54506,72.830321 C 357.9428,71.495138 358.6417,69.554847 358.64173,67.009442 L 358.64173,67.009442 z M 409.6238,95.700188 C 409.62376,98.247459 409.17363,100.62319 408.27342,102.82739 C 407.37312,105.03161 406.13124,106.94111 404.54777,108.55587 C 402.96423,110.17066 401.13196,111.45945 399.05098,112.42224 C 396.96994,113.38505 394.71835,113.86645 392.29621,113.86645 C 389.56319,113.86645 387.11023,113.33861 384.93731,112.28294 C 382.76436,111.22727 380.93257,109.79918 379.44194,107.99867 C 377.9513,106.19815 376.80229,104.11761 375.9949,101.75704 C 375.18751,99.396471 374.78382,96.943507 374.78382,94.398132 L 383.54002,94.398132 C 383.54001,95.702101 383.71058,96.990416 384.05174,98.26308 C 384.39288,99.535774 384.92071,100.68479 385.63525,101.71013 C 386.34975,102.73548 387.25049,103.5585 388.33744,104.17919 C 389.42436,104.7999 390.74394,105.11026 392.29621,105.11025 C 393.47695,105.11026 394.61079,104.86198 395.69776,104.3654 C 396.78467,103.86886 397.7162,103.18561 398.49235,102.31567 C 399.26844,101.44574 399.88914,100.4365 400.35446,99.287953 C 400.81972,98.139428 401.05236,96.943507 401.05239,95.700188 C 401.05236,93.899691 400.67995,92.301024 399.93513,90.904183 C 399.19025,89.507385 397.8863,88.094455 396.02327,86.665389 C 395.71243,86.35459 395.58828,86.18354 395.65086,86.152242 C 395.71337,86.120997 395.52716,85.950421 395.09222,85.640517 C 394.65723,85.330665 393.74087,84.725124 392.34312,83.823891 C 390.94533,82.922716 388.66293,81.386119 385.49595,79.214097 C 382.95057,77.474265 381.04108,75.439684 379.76746,73.110348 C 378.49382,70.781091 377.85701,68.219622 377.85702,65.425936 C 377.85701,63.189556 378.2607,61.093379 379.0681,59.137398 C 379.87548,57.181525 381.00886,55.458243 382.46824,53.967548 C 383.92759,52.476971 385.62007,51.312324 387.54568,50.473601 C 389.47127,49.635002 391.55134,49.215671 393.7859,49.215607 C 396.0223,49.215671 398.08768,49.619366 399.98204,50.426692 C 401.87634,51.234143 403.52192,52.352357 404.91877,53.781337 C 406.31556,55.210436 407.4333,56.918555 408.272,58.9057 C 409.11062,60.892952 409.56122,63.066363 409.6238,65.425936 L 401.05239,65.425936 C 400.92917,63.2521 400.18433,61.513183 398.81786,60.209179 C 397.45135,58.90528 395.77402,58.253304 393.7859,58.25325 C 391.73707,58.253304 389.99863,58.936552 388.57055,60.302995 C 387.14245,61.669543 386.4284,63.377188 386.42842,65.425936 C 386.4284,66.978216 386.83209,68.282167 387.63951,69.337794 C 388.44687,70.393507 389.99911,71.573317 392.29621,72.877229 C 398.32127,76.355103 402.71547,79.895009 405.47882,83.496955 C 408.24211,87.09896 409.62376,91.166701 409.6238,95.700188 L 409.6238,95.700188 z M 435.62513,58.625673 L 435.62513,112.74918 L 426.59034,112.74918 L 426.59034,58.625673 L 415.22435,58.625673 L 415.22435,50.332876 L 446.99113,50.332876 L 446.99113,58.625673 L 435.62513,58.625673 z M 481.6321,112.74918 L 477.25401,95.700188 L 463.83827,95.700188 L 459.74164,112.74918 L 450.70398,112.74918 L 466.26044,50.332876 L 475.01948,50.332876 L 490.57593,112.74918 L 481.6321,112.74918 z M 470.45374,68.965371 L 466.07565,86.943996 L 475.01948,86.943996 L 470.45374,68.965371 z M 514.77201,58.625673 L 514.77201,112.74918 L 505.73722,112.74918 L 505.73722,58.625673 L 494.37123,58.625673 L 494.37123,50.332876 L 526.13801,50.332876 L 526.13801,58.625673 L 514.77201,58.625673 z M 534.6952,112.74918 L 534.6952,50.332876 L 564.03982,50.332876 L 564.03982,59.09191 L 543.63903,59.09191 L 543.63903,74.833157 L 556.58852,74.833157 L 556.58852,83.404561 L 543.63903,83.404561 L 543.63903,103.99298 L 566.46199,103.99298 L 566.46199,112.74918 L 534.6952,112.74918 z "
   id="text7023" />

<path
   style="font-size:373.12701416px;font-style:normal;font-variant:normal;font-weight:normal;font-stretch:normal;text-align:center;line-height:125%;writing-mode:lr-tb;text-anchor:middle;fill:#ffffff;fill-opacity:1;font-family:Roadgeek 2005 Series C"
   d="M 189.14521,440.43707 L 189.14521,235.49501 L 173.49767,235.49501 L 173.49767,208.29373 C 180.69976,207.79361 186.47471,206.05373 190.82256,203.07409 C 195.17032,200.09492 198.70883,195.99351 201.43811,190.76984 L 225.29608,190.76984 L 225.29608,440.43707 L 189.14521,440.43707 z M 407.65379,367.03228 C 407.65364,378.95755 405.54228,390.32172 401.31971,401.12485 C 397.09686,411.92806 391.25935,420.93449 383.80719,428.14417 C 372.87502,439.31883 357.72024,444.90617 338.34286,444.90617 C 325.92481,444.90617 315.30549,442.67162 306.48483,438.20251 C 297.66408,433.73342 290.14925,427.15106 283.9403,418.45543 C 278.9746,411.49593 275.12527,403.54519 272.39227,394.60315 C 269.65924,385.6612 268.29273,376.47092 268.29275,367.03228 C 268.29273,354.60681 270.21835,343.11566 274.0696,332.55876 C 277.92082,322.00208 283.81898,312.74736 291.76409,304.79458 C 278.35294,290.14031 271.64741,272.87798 271.64742,253.00754 C 271.64741,243.31898 273.26219,234.3751 276.49179,226.17584 C 279.72135,217.97702 284.25489,210.95875 290.09243,205.12101 C 295.9299,199.28375 302.94628,194.68765 311.14157,191.33274 C 319.33677,187.97832 328.40385,186.30098 338.34286,186.30072 C 348.03151,186.30098 356.85031,187.97832 364.79927,191.33274 C 372.74802,194.68765 379.6412,199.28375 385.47884,205.12101 C 391.31621,210.95875 395.84975,217.97702 399.07947,226.17584 C 402.3089,234.3751 403.92371,243.31898 403.92386,253.00754 C 403.92371,263.18924 402.24825,272.69034 398.89753,281.51088 C 395.54651,290.33173 390.5164,298.09296 383.80719,304.79458 C 391.75212,312.24701 397.71283,321.37663 401.68929,332.18349 C 405.66548,342.99056 407.65364,354.60681 407.65379,367.03228 L 407.65379,367.03228 z M 368.89879,253.00754 C 368.89868,243.81177 365.97993,236.23248 360.14254,230.26968 C 354.30492,224.3073 347.03838,221.326 338.34286,221.32578 C 329.15439,221.326 321.5789,224.3073 315.61637,230.26968 C 309.65372,236.23248 306.67241,243.81177 306.67247,253.00754 C 306.67241,263.18924 309.65372,271.2613 315.61637,277.22372 C 321.5789,283.18648 329.15439,286.16777 338.34286,286.16762 C 347.03838,286.16777 354.30492,283.18648 360.14254,277.22372 C 365.97993,271.2613 368.89868,263.18924 368.89879,253.00754 L 368.89879,253.00754 z M 373.36791,367.03228 C 373.36779,353.3635 370.13821,342.494 363.67915,334.42373 C 357.21988,326.35367 348.77446,322.3186 338.34286,322.31848 C 327.91108,322.3186 319.46565,326.35367 313.00654,334.42373 C 306.54733,342.494 303.31775,353.3635 303.3178,367.03228 C 303.31775,379.7005 306.54733,390.009 313.00654,397.95781 C 319.46565,405.90672 327.91108,409.88114 338.34286,409.88111 C 348.77446,409.88114 357.21988,405.90672 363.67915,397.95781 C 370.13821,390.009 373.36779,379.7005 373.36791,367.03228 L 373.36791,367.03228 z M 576.50183,352.87443 C 576.50168,366.03543 574.51352,378.20511 570.53734,389.3835 C 566.56087,400.56199 561.09485,410.25073 554.13925,418.44974 C 547.18339,426.64881 538.98626,433.10797 529.5478,437.82724 C 520.10913,442.54653 509.79873,444.90617 498.61658,444.90617 C 487.44186,444.90617 476.69933,443.04309 466.38898,439.31694 C 456.07854,435.5908 446.32915,430.12667 437.14079,422.92454 L 460.61212,397.58824 C 466.82106,401.81098 472.53538,404.91548 477.75506,406.90171 C 482.97465,408.88801 488.68895,409.88114 494.89801,409.88111 C 501.59969,409.88114 507.80867,408.45209 513.52497,405.59396 C 519.24109,402.73589 524.14799,398.69892 528.24574,393.48302 C 532.34325,388.26723 535.57282,382.05824 537.93447,374.85606 C 540.2959,367.65402 541.47666,359.70516 541.47678,351.00946 C 541.47666,337.34069 538.37028,326.65693 532.15762,318.95812 C 525.94474,311.25955 517.62251,307.41022 507.1909,307.41009 C 496.25876,307.41022 486.32363,311.50784 477.38549,319.70297 L 443.0996,315.23387 L 449.43368,190.76984 L 566.81309,190.76984 L 566.81309,225.80626 L 482.59376,225.80626 L 479.98962,278.34385 C 486.19855,276.10755 491.22865,274.67851 495.07997,274.05668 C 498.93112,273.4352 503.21827,273.12436 507.94144,273.1242 C 518.12286,273.12436 527.43634,275.04998 535.88187,278.90106 C 544.32718,282.75245 551.5312,288.21848 557.49392,295.29914 C 563.45638,302.38011 568.11501,310.76488 571.46983,320.45351 C 574.82435,330.14237 576.50168,340.94934 576.50183,352.87443 L 576.50183,352.87443 z "
   id="text7029" />

</svg>