<?xml version="1.0" encoding="UTF-8" standalone="no"?>
<!-- Created with Inkscape (http://www.inkscape.org/) -->
<svg
   xmlns:dc="http://purl.org/dc/elements/1.1/"
   xmlns:cc="http://web.resource.org/cc/"
   xmlns:rdf="http://www.w3.org/1999/02/22-rdf-syntax-ns#"
   xmlns:svg="http://www.w3.org/2000/svg"
   xmlns="http://www.w3.org/2000/svg"
   xmlns:sodipodi="http://sodipodi.sourceforge.net/DTD/sodipodi-0.dtd"
   xmlns:inkscape="http://www.inkscape.org/namespaces/inkscape"
   version="1.0"
   width="751"
   height="601"
   viewBox="0 0 750 599.99902"
   id="Layer_1"
   xml:space="preserve"
   sodipodi:version="0.32"
   inkscape:version="0.45"
   sodipodi:docname="I-295 (DE).svg"
   sodipodi:docbase="C:\Documents and Settings\ltljltlj\Desktop"
   inkscape:output_extension="org.inkscape.output.svg.inkscape"
   sodipodi:modified="true"><metadata
   id="metadata36"><rdf:RDF><cc:Work
       rdf:about=""><dc:format>image/svg+xml</dc:format><dc:type
         rdf:resource="http://purl.org/dc/dcmitype/StillImage" /></cc:Work></rdf:RDF></metadata><sodipodi:namedview
   inkscape:window-height="996"
   inkscape:window-width="824"
   inkscape:pageshadow="2"
   inkscape:pageopacity="0.0"
   guidetolerance="10.0"
   gridtolerance="10.0"
   objecttolerance="10.0"
   borderopacity="1.0"
   bordercolor="#666666"
   pagecolor="#ffffff"
   id="base"
   width="751px"
   height="601px"
   inkscape:zoom="0.98533333"
   inkscape:cx="375"
   inkscape:cy="299.99952"
   inkscape:window-x="456"
   inkscape:window-y="-6"
   inkscape:current-layer="Layer_1" /><defs
   id="defs62">
	
	
	
	
</defs>
<g
   transform="matrix(0.9986685,0,0,0.9986701,0.4993342,0.3989715)"
   id="g5"
   style="fill:#ffffff;fill-opacity:1;stroke:#000000;stroke-width:0.99999899;stroke-miterlimit:4;stroke-dasharray:none;stroke-opacity:1">
		<path
   id="path7"
   style="fill:#ffffff;fill-opacity:1;stroke:#000000;stroke-width:0.99999899;stroke-miterlimit:4;stroke-dasharray:none;stroke-opacity:1"
   d="M 38.915039,0 C 92.236328,15.525391 148.625,23.849609 206.95801,23.849609 C 265.29053,23.849609 321.6792,15.525391 375,0.0004883 C 428.32031,15.525391 484.70898,23.849609 543.04199,23.849609 C 601.375,23.849609 657.76367,15.525391 711.08398,0 C 736.06445,54.121094 750,114.3877 750,177.90918 C 750,395.71777 586.16016,575.25391 375,599.99902 C 163.83887,575.25391 0,395.71777 0,177.90918 C 0,114.3877 13.935059,54.121094 38.915039,0 z " />
		
			<path
   id="path9"
   style="fill:#ffffff;fill-opacity:1;stroke:#000000;stroke-width:0.99999899;stroke-linecap:round;stroke-linejoin:round;stroke-miterlimit:4;stroke-dasharray:none;stroke-opacity:1"
   d="M 38.915039,0 C 92.236328,15.525391 148.625,23.849609 206.95801,23.849609 C 265.29053,23.849609 321.6792,15.525391 375,0.0004883 C 428.32031,15.525391 484.70898,23.849609 543.04199,23.849609 C 601.375,23.849609 657.76367,15.525391 711.08398,0 C 736.06445,54.121094 750,114.3877 750,177.90918 C 750,395.71777 586.16016,575.25391 375,599.99902 C 163.83887,575.25391 0,395.71777 0,177.90918 C 0,114.3877 13.935059,54.121094 38.915039,0 z " />
	</g><g
   transform="matrix(1.0056032,0,0,1.0101352,-2.1013652,-3.7018951)"
   id="g11"
   style="fill:#003f87;fill-opacity:1">
		<path
   id="path13"
   style="fill:#003f87;fill-opacity:1"
   d="M 15,177.90918 C 15,165.12744 15.584961,152.48242 16.729004,139.99902 L 733.27051,139.99902 C 734.41504,152.48242 735,165.12744 735,177.90918 C 735,387.42285 577.85547,560.22852 375,584.89062 C 172.14453,560.22852 15,387.42285 15,177.90918 z " />
	</g><g
   transform="matrix(1.00604,0,0,1.0270827,-2.2645005,-3.1522955)"
   id="g15"
   style="fill:#af1e2d;fill-opacity:1">
		<path
   id="path17"
   style="fill:#af1e2d;fill-opacity:1"
   d="M 47.37793,17.942871 C 98.270019,31.578125 151.76562,38.849121 206.95996,38.849121 C 265.2207,38.849121 321.58936,30.748047 375,15.611328 C 428.41113,30.748047 484.7793,38.849121 543.04004,38.849121 C 598.23438,38.849121 651.73047,31.578613 702.62109,17.942871 C 716.88281,51.567383 726.78516,87.489258 731.61719,124.99902 L 18.381836,124.99902 C 23.214844,87.489258 33.116211,51.567383 47.37793,17.942871 z " />
	</g>



<path
   style="font-size:93.28099823px;font-style:normal;font-variant:normal;font-weight:normal;font-stretch:normal;text-align:center;line-height:125%;writing-mode:lr-tb;text-anchor:middle;fill:#ffffff;fill-opacity:1;font-family:Roadgeek 2005 Series C"
   d="M 183.53777,112.74918 L 183.53777,50.332876 L 192.29397,50.332876 L 192.29397,112.74918 L 183.53777,112.74918 z M 234.32652,112.74918 L 215.04301,70.921299 L 215.04301,112.74918 L 206.09918,112.74918 L 206.09918,50.332876 L 215.04301,50.332876 L 232.18297,87.782657 L 232.18297,50.332876 L 241.1268,50.332876 L 241.1268,112.74918 L 234.32652,112.74918 z M 270.23545,58.625673 L 270.23545,112.74918 L 261.20065,112.74918 L 261.20065,58.625673 L 249.83466,58.625673 L 249.83466,50.332876 L 281.60144,50.332876 L 281.60144,58.625673 L 270.23545,58.625673 z M 290.15862,112.74918 L 290.15862,50.332876 L 319.50325,50.332876 L 319.50325,59.09191 L 299.10244,59.09191 L 299.10244,74.833157 L 312.05195,74.833157 L 312.05195,83.404561 L 299.10244,83.404561 L 299.10244,103.99298 L 321.9254,103.99298 L 321.9254,112.74918 L 290.15862,112.74918 z M 358.17549,112.74918 L 349.88269,83.404561 L 341.31412,83.404561 L 341.31412,112.74918 L 332.3703,112.74918 L 332.3703,50.332876 L 351.0028,50.332876 C 353.42494,50.332938 355.64525,50.736632 357.66375,51.543959 C 359.6822,52.351409 361.42112,53.469623 362.88052,54.898605 C 364.33984,56.327702 365.45758,58.082256 366.23374,60.16227 C 367.00981,62.24239 367.39787,64.524779 367.39791,67.009442 C 367.39787,70.735604 366.65256,73.903088 365.16196,76.511902 C 363.67129,79.120788 361.43533,80.983372 358.4541,82.099661 L 367.39791,112.74918 L 358.17549,112.74918 z M 358.64173,67.009442 C 358.6417,64.587322 357.89637,62.662194 356.40576,61.234051 C 354.9151,59.806011 352.9587,59.091964 350.53656,59.09191 L 341.31412,59.09191 L 341.31412,74.833157 L 350.53656,74.833157 C 353.14444,74.833195 355.14727,74.165584 356.54506,72.830321 C 357.9428,71.495138 358.6417,69.554847 358.64173,67.009442 L 358.64173,67.009442 z M 409.6238,95.700188 C 409.62376,98.247459 409.17363,100.62319 408.27342,102.82739 C 407.37312,105.03161 406.13124,106.94111 404.54777,108.55587 C 402.96423,110.17066 401.13196,111.45945 399.05098,112.42224 C 396.96994,113.38505 394.71835,113.86645 392.29621,113.86645 C 389.56319,113.86645 387.11023,113.33861 384.93731,112.28294 C 382.76436,111.22727 380.93257,109.79918 379.44194,107.99867 C 377.9513,106.19815 376.80229,104.11761 375.9949,101.75704 C 375.18751,99.396471 374.78382,96.943507 374.78382,94.398132 L 383.54002,94.398132 C 383.54001,95.702101 383.71058,96.990416 384.05174,98.26308 C 384.39288,99.535774 384.92071,100.68479 385.63525,101.71013 C 386.34975,102.73548 387.25049,103.5585 388.33744,104.17919 C 389.42436,104.7999 390.74394,105.11026 392.29621,105.11025 C 393.47695,105.11026 394.61079,104.86198 395.69776,104.3654 C 396.78467,103.86886 397.7162,103.18561 398.49235,102.31567 C 399.26844,101.44574 399.88914,100.4365 400.35446,99.287953 C 400.81972,98.139428 401.05236,96.943507 401.05239,95.700188 C 401.05236,93.899691 400.67995,92.301024 399.93513,90.904183 C 399.19025,89.507385 397.8863,88.094455 396.02327,86.665389 C 395.71243,86.35459 395.58828,86.18354 395.65086,86.152242 C 395.71337,86.120997 395.52716,85.950421 395.09222,85.640517 C 394.65723,85.330665 393.74087,84.725124 392.34312,83.823891 C 390.94533,82.922716 388.66293,81.386119 385.49595,79.214097 C 382.95057,77.474265 381.04108,75.439684 379.76746,73.110348 C 378.49382,70.781091 377.85701,68.219622 377.85702,65.425936 C 377.85701,63.189556 378.2607,61.093379 379.0681,59.137398 C 379.87548,57.181525 381.00886,55.458243 382.46824,53.967548 C 383.92759,52.476971 385.62007,51.312324 387.54568,50.473601 C 389.47127,49.635002 391.55134,49.215671 393.7859,49.215607 C 396.0223,49.215671 398.08768,49.619366 399.98204,50.426692 C 401.87634,51.234143 403.52192,52.352357 404.91877,53.781337 C 406.31556,55.210436 407.4333,56.918555 408.272,58.9057 C 409.11062,60.892952 409.56122,63.066363 409.6238,65.425936 L 401.05239,65.425936 C 400.92917,63.2521 400.18433,61.513183 398.81786,60.209179 C 397.45135,58.90528 395.77402,58.253304 393.7859,58.25325 C 391.73707,58.253304 389.99863,58.936552 388.57055,60.302995 C 387.14245,61.669543 386.4284,63.377188 386.42842,65.425936 C 386.4284,66.978216 386.83209,68.282167 387.63951,69.337794 C 388.44687,70.393507 389.99911,71.573317 392.29621,72.877229 C 398.32127,76.355103 402.71547,79.895009 405.47882,83.496955 C 408.24211,87.09896 409.62376,91.166701 409.6238,95.700188 L 409.6238,95.700188 z M 435.62513,58.625673 L 435.62513,112.74918 L 426.59034,112.74918 L 426.59034,58.625673 L 415.22435,58.625673 L 415.22435,50.332876 L 446.99113,50.332876 L 446.99113,58.625673 L 435.62513,58.625673 z M 481.6321,112.74918 L 477.25401,95.700188 L 463.83827,95.700188 L 459.74164,112.74918 L 450.70398,112.74918 L 466.26044,50.332876 L 475.01948,50.332876 L 490.57593,112.74918 L 481.6321,112.74918 z M 470.45374,68.965371 L 466.07565,86.943996 L 475.01948,86.943996 L 470.45374,68.965371 z M 514.77201,58.625673 L 514.77201,112.74918 L 505.73722,112.74918 L 505.73722,58.625673 L 494.37123,58.625673 L 494.37123,50.332876 L 526.13801,50.332876 L 526.13801,58.625673 L 514.77201,58.625673 z M 534.6952,112.74918 L 534.6952,50.332876 L 564.03982,50.332876 L 564.03982,59.09191 L 543.63903,59.09191 L 543.63903,74.833157 L 556.58852,74.833157 L 556.58852,83.404561 L 543.63903,83.404561 L 543.63903,103.99298 L 566.46199,103.99298 L 566.46199,112.74918 L 534.6952,112.74918 z "
   id="text7023" />

<path
   style="font-size:372.63015747px;font-style:normal;font-variant:normal;font-weight:normal;font-stretch:normal;text-align:center;line-height:125%;writing-mode:lr-tb;text-anchor:middle;fill:#ffffff;fill-opacity:1;font-family:Roadgeek 2005 Series C"
   d="M 193.63183,449.79977 L 193.63183,244.85774 L 177.98428,244.85774 L 177.98428,217.65646 C 185.18637,217.15634 190.96133,215.41646 195.30917,212.43682 C 199.65693,209.45766 203.19544,205.35624 205.92472,200.13257 L 229.78269,200.13257 L 229.78269,449.79977 L 193.63183,449.79977 z M 412.14039,285.10243 C 412.14024,316.15508 404.6254,345.96425 389.59586,374.53003 C 374.56605,403.09596 353.38994,428.18585 326.06747,449.79977 L 305.93943,421.84796 C 311.15523,417.87546 316.43362,413.09553 321.77462,407.50816 C 327.11549,401.92088 332.1456,395.95829 336.86496,389.62037 C 341.58416,383.28257 345.80687,376.88406 349.53311,370.42482 C 353.25917,363.96574 356.24046,357.75676 358.47701,351.79786 C 355.49751,352.29832 352.82894,352.54849 350.47128,352.5484 C 348.11345,352.54849 345.56617,352.54849 342.82945,352.5484 C 321.21545,352.54849 304.13696,345.46768 291.59394,331.30593 C 279.05086,317.14442 272.77934,297.89203 272.77935,273.54871 C 272.77934,261.87388 274.39413,251.25456 277.62373,241.6907 C 280.85329,232.12726 285.51002,223.92822 291.59394,217.09356 C 297.6778,210.25937 305.06755,204.97908 313.76321,201.25268 C 322.45876,197.52679 332.1475,195.66371 342.82945,195.66346 C 365.6866,195.66371 382.95272,203.2411 394.62787,218.39563 C 406.30274,233.55062 412.14024,255.7862 412.14039,285.10243 L 412.14039,285.10243 z M 377.85451,277.26728 C 377.85439,263.1134 374.62481,251.81177 368.16576,243.36235 C 361.70649,234.91334 353.26106,230.68873 342.82945,230.68851 C 331.65472,230.68873 323.02356,234.53997 316.93593,242.24223 C 310.84819,249.94491 307.80435,260.38039 307.8044,273.54871 C 307.80435,287.21016 310.84819,297.95268 316.93593,305.77631 C 323.02356,313.60022 331.65472,317.51211 342.82945,317.51197 C 353.26106,317.51211 361.70649,313.91105 368.16576,306.70879 C 374.62481,299.50682 377.85439,289.69299 377.85451,277.26728 L 377.85451,277.26728 z M 580.98843,362.23715 C 580.98828,375.39815 579.00011,387.56783 575.02394,398.74621 C 571.04746,409.9247 565.58144,419.61344 558.62584,427.81246 C 551.66999,436.01152 543.47284,442.47068 534.03439,447.18995 C 524.59572,451.90924 514.28533,454.26888 503.10318,454.26888 C 491.92845,454.26888 481.18593,452.4058 470.87558,448.67965 C 460.56514,444.95351 450.81576,439.48938 441.62739,432.28725 L 465.09872,406.95095 C 471.30766,411.1737 477.02197,414.27819 482.24167,416.26442 C 487.46125,418.25073 493.17556,419.24386 499.38461,419.24383 C 506.08629,419.24386 512.29527,417.81481 518.01157,414.95667 C 523.72768,412.0986 528.63459,408.06163 532.73232,402.84574 C 536.82984,397.62994 540.05942,391.42096 542.42107,384.21878 C 544.78249,377.01673 545.96326,369.06787 545.96338,360.37218 C 545.96326,346.70341 542.85687,336.01964 536.64421,328.32084 C 530.43133,320.62228 522.1091,316.77294 511.67749,316.77281 C 500.74536,316.77294 490.81023,320.87057 481.87208,329.06569 L 447.5862,324.59659 L 453.92027,200.13257 L 571.29968,200.13257 L 571.29968,235.16899 L 487.08035,235.16899 L 484.47622,287.70657 C 490.68514,285.47028 495.71525,284.04123 499.56656,283.41941 C 503.41772,282.79792 507.70487,282.48709 512.42803,282.48692 C 522.60946,282.48709 531.92293,284.41271 540.36847,288.26378 C 548.81378,292.11518 556.01779,297.5812 561.98052,304.66187 C 567.94297,311.74283 572.6016,320.12761 575.95642,329.81623 C 579.31094,339.50509 580.98828,350.31205 580.98843,362.23715 L 580.98843,362.23715 z "
   id="text7029" />

<path
   transform="scale(1.0000209,0.9999791)"
   style="font-size:55.89564133px;font-style:normal;font-variant:normal;font-weight:normal;font-stretch:normal;text-align:center;line-height:125%;writing-mode:lr-tb;text-anchor:middle;fill:#ffffff;fill-opacity:1;font-family:Roadgeek 2005 Series D"
   d="M 250.99507,187.65323 L 236.68682,162.27605 L 236.68682,187.65323 L 230.76087,187.65323 L 230.76087,150.2024 L 236.68682,150.2024 L 250.32469,174.12624 L 250.32469,150.2024 L 256.25063,150.2024 L 256.25063,187.65323 L 250.99507,187.65323 z M 265.14979,187.65323 L 265.14979,150.2024 L 287.22966,150.2024 L 287.22966,156.12835 L 271.07574,156.12835 L 271.07574,165.29531 L 281.9758,165.29531 L 281.9758,171.33214 L 271.07574,171.33214 L 271.07574,181.6164 L 288.40325,181.6164 L 288.40325,187.65323 L 265.14979,187.65323 z M 319.16223,187.65323 L 313.90837,187.65323 L 307.98242,163.61851 L 302.22534,187.65323 L 296.97148,187.65323 L 291.43787,150.2024 L 297.47469,150.2024 L 300.38138,169.93509 L 305.13203,150.2024 L 310.8891,150.2024 L 315.75234,169.93509 L 318.65902,150.2024 L 324.69584,150.2024 L 319.16223,187.65323 z M 363.17868,176.36254 C 363.17866,178.15137 362.88043,179.77244 362.28399,181.22578 C 361.68751,182.67912 360.84911,183.93658 359.76879,184.99815 C 358.68843,186.05973 357.38435,186.87937 355.85654,187.45706 C 354.32869,188.03476 352.65161,188.32361 350.82528,188.32361 C 349.11151,188.32361 347.44409,187.98842 345.82302,187.31804 C 344.20194,186.64766 342.75798,185.71601 341.49115,184.52309 C 341.08061,184.1137 340.72638,183.70402 340.42843,183.29406 C 340.13048,182.8841 339.73929,182.28793 339.25484,181.50553 L 344.67758,178.98947 C 345.57141,180.1824 346.50278,181.03018 347.47168,181.53282 C 348.44056,182.03547 349.55843,182.28679 350.82528,182.28678 C 352.8745,182.28679 354.43957,181.66275 355.52049,180.41467 C 356.60138,179.1666 357.14184,177.4247 357.14186,175.18895 L 357.14186,150.2024 L 363.17868,150.2024 L 363.17868,176.36254 L 363.17868,176.36254 z M 372.13755,187.65323 L 372.13755,150.2024 L 394.21742,150.2024 L 394.21742,156.12835 L 378.0635,156.12835 L 378.0635,165.29531 L 388.96356,165.29531 L 388.96356,171.33214 L 378.0635,171.33214 L 378.0635,181.6164 L 395.39101,181.6164 L 395.39101,187.65323 L 372.13755,187.65323 z M 420.78354,187.65323 L 414.74672,171.33214 L 407.64889,171.33214 L 407.64889,187.65323 L 401.72294,187.65323 L 401.72294,150.2024 L 414.07634,150.2024 C 415.52966,150.20244 416.77802,150.2863 417.82142,150.454 C 418.86478,150.62178 419.85215,150.92967 420.78354,151.37769 C 421.60344,151.78712 422.35825,152.31791 423.04799,152.97006 C 423.73768,153.62228 424.33385,154.36743 424.83652,155.20551 C 425.33914,156.04366 425.73033,156.93806 426.01011,157.88873 C 426.28983,158.83946 426.42971,159.78049 426.42974,160.71183 C 426.42971,161.71828 426.28983,162.69655 426.01011,163.64666 C 425.73033,164.59681 425.33914,165.49093 424.83652,166.32903 C 424.33385,167.16716 423.7192,167.9217 422.99255,168.59262 C 422.26586,169.26359 421.4738,169.78556 420.61637,170.15855 L 427.2127,187.65323 L 420.78354,187.65323 z M 420.50379,160.71183 C 420.50377,159.92946 420.29907,159.18431 419.8897,158.47638 C 419.48029,157.7685 418.90259,157.20929 418.15661,156.79873 C 417.67214,156.53834 417.22494,156.3615 416.815,156.26822 C 416.40502,156.175 415.71559,156.12838 414.74672,156.12835 L 407.64889,156.12835 L 407.64889,165.29531 L 414.74672,165.29531 C 415.6792,165.29534 416.35953,165.25809 416.78771,165.18358 C 417.21584,165.10912 417.67214,164.9411 418.15661,164.67952 C 418.90259,164.27015 419.48029,163.70212 419.8897,162.97543 C 420.29907,162.24878 420.50377,161.49425 420.50379,160.71183 L 420.50379,160.71183 z M 456.35457,176.86575 C 456.35454,178.57952 456.03755,180.16307 455.40359,181.6164 C 454.76957,183.06975 453.85668,184.33659 452.66492,185.41693 C 451.62095,186.34829 450.40045,187.06558 449.00342,187.56879 C 447.60636,188.072 446.10668,188.32361 444.50438,188.32361 C 441.26221,188.32361 438.49512,187.45735 436.2031,185.72482 C 433.91107,183.9923 432.13164,181.69147 430.8648,178.8223 L 436.511,176.75317 C 437.29339,178.54199 438.37401,179.91147 439.75287,180.86159 C 441.13172,181.81172 442.71555,182.28679 444.50438,182.28678 C 446.25565,182.28679 447.66236,181.75572 448.72453,180.69357 C 449.78665,179.63143 450.31772,178.31797 450.31774,176.75317 C 450.31772,175.52387 449.99163,174.51802 449.33947,173.73561 C 448.68726,172.95323 447.83948,172.29167 446.79612,171.75091 C 445.75272,171.21019 444.60671,170.73484 443.35808,170.32486 C 442.10942,169.91492 440.87044,169.46772 439.64114,168.98325 C 439.08163,168.76038 438.3922,168.44395 437.57286,168.03397 C 436.7535,167.62403 435.96173,167.05572 435.19754,166.32903 C 434.43333,165.60238 433.78115,164.69859 433.24098,163.61766 C 432.70081,162.53678 432.43073,161.21393 432.43073,159.64912 C 432.43073,157.82394 432.72867,156.26854 433.32457,154.9829 C 433.92046,153.69733 434.73099,152.65395 435.75619,151.85276 C 436.78136,151.05164 438.01124,150.46456 439.44583,150.09152 C 440.8804,149.71856 442.4358,149.53206 444.11204,149.53202 C 446.75829,149.53206 448.96645,150.22148 450.73652,151.6003 C 452.50655,152.97919 453.85725,154.84221 454.78864,157.18935 L 449.53478,158.75528 C 449.23681,158.15941 448.84562,157.61925 448.36119,157.13477 C 447.95064,156.72427 447.38204,156.35127 446.65539,156.01576 C 445.9287,155.68032 445.04396,155.49439 444.00117,155.45797 C 443.33021,155.42047 442.6314,155.46681 441.90474,155.59699 C 441.17806,155.72723 440.53526,155.96007 439.97633,156.29551 C 439.41739,156.63102 438.97019,157.0876 438.63472,157.66527 C 438.29924,158.243 438.16903,158.96057 438.24409,159.81799 C 438.318,160.97228 438.82093,161.85702 439.75287,162.47222 C 440.6848,163.08746 441.82143,163.61854 443.16277,164.06543 C 444.50408,164.51237 445.94804,164.96868 447.49465,165.43434 C 449.04122,165.90004 450.46641,166.5707 451.77023,167.44633 C 453.07401,168.32199 454.16401,169.49586 455.04025,170.96795 C 455.91644,172.44007 456.35454,174.406 456.35457,176.86575 L 456.35457,176.86575 z M 462.64045,187.65323 L 462.64045,150.2024 L 484.72032,150.2024 L 484.72032,156.12835 L 468.5664,156.12835 L 468.5664,165.29531 L 479.46646,165.29531 L 479.46646,171.33214 L 468.5664,171.33214 L 468.5664,181.6164 L 485.89391,181.6164 L 485.89391,187.65323 L 462.64045,187.65323 z M 508.65951,171.33214 L 508.65951,187.65323 L 502.73527,187.65323 L 502.73527,171.33214 L 489.59891,150.2024 L 496.69844,150.2024 L 505.64195,164.67952 L 514.69633,150.2024 L 521.68329,150.2024 L 508.65951,171.33214 z "
   id="text2177" />
</svg>