<?xml version="1.0" encoding="UTF-8" standalone="no"?>
<!-- Created with Inkscape (http://www.inkscape.org/) -->
<svg
   xmlns:dc="http://purl.org/dc/elements/1.1/"
   xmlns:cc="http://web.resource.org/cc/"
   xmlns:rdf="http://www.w3.org/1999/02/22-rdf-syntax-ns#"
   xmlns:svg="http://www.w3.org/2000/svg"
   xmlns="http://www.w3.org/2000/svg"
   xmlns:sodipodi="http://sodipodi.sourceforge.net/DTD/sodipodi-0.dtd"
   xmlns:inkscape="http://www.inkscape.org/namespaces/inkscape"
   version="1.0"
   width="601"
   height="601"
   viewBox="0 0 600 599.99902"
   id="Layer_1"
   xml:space="preserve"
   sodipodi:version="0.32"
   inkscape:version="0.45"
   sodipodi:docname="I-17 (AZ).svg"
   sodipodi:docbase="C:\Documents and Settings\ltljltlj\Desktop"
   inkscape:output_extension="org.inkscape.output.svg.inkscape"
   sodipodi:modified="true"><metadata
   id="metadata36"><rdf:RDF><cc:Work
       rdf:about=""><dc:format>image/svg+xml</dc:format><dc:type
         rdf:resource="http://purl.org/dc/dcmitype/StillImage" /></cc:Work></rdf:RDF></metadata><sodipodi:namedview
   inkscape:window-height="965"
   inkscape:window-width="813"
   inkscape:pageshadow="2"
   inkscape:pageopacity="0.0"
   guidetolerance="10.0"
   gridtolerance="10.0"
   objecttolerance="10.0"
   borderopacity="1.0"
   bordercolor="#666666"
   pagecolor="#ffffff"
   id="base"
   width="601px"
   height="601px"
   inkscape:zoom="1.209299"
   inkscape:cx="301.00083"
   inkscape:cy="299.99868"
   inkscape:window-x="223"
   inkscape:window-y="0"
   inkscape:current-layer="Layer_1" /><defs
   id="defs1659">
	
	
	
	
</defs>
<g
   transform="matrix(0.9983361,0,0,0.9983377,0.4991681,0.4986859)"
   style="fill:#ffffff;fill-opacity:1;stroke:#000000;stroke-width:0.99999928;stroke-miterlimit:4;stroke-dasharray:none;stroke-opacity:1"
   id="g1600">
		<path
   id="path1602"
   style="fill:#ffffff;fill-opacity:1;stroke:#000000;stroke-width:0.99999928;stroke-miterlimit:4;stroke-dasharray:none;stroke-opacity:1"
   d="M 80.75293,0 C 115.42871,10.583496 152.23779,16.276856 190.37695,16.276856 C 228.51563,16.276856 265.32422,10.583496 300,0.0004883 C 334.67578,10.583496 371.48438,16.276856 409.62305,16.276856 C 447.76172,16.276856 484.57129,10.583496 519.24707,0 C 569.8125,63.908203 600,144.67822 600,232.5 C 600,413.92383 471.16992,565.25391 300,599.99902 C 128.83008,565.25391 0,413.92383 0,232.5 C 0,144.67822 30.187988,63.907715 80.75293,0 z " />
		
			<path
   id="path1604"
   style="fill:#ffffff;fill-opacity:1;stroke:#000000;stroke-width:0.99999928;stroke-linecap:round;stroke-linejoin:round;stroke-miterlimit:4;stroke-dasharray:none;stroke-opacity:1"
   d="M 80.75293,0 C 115.42871,10.583496 152.23779,16.276856 190.37695,16.276856 C 228.51563,16.276856 265.32422,10.583496 300,0.0004883 C 334.67578,10.583496 371.48438,16.276856 409.62305,16.276856 C 447.76172,16.276856 484.57129,10.583496 519.24707,0 C 569.8125,63.908203 600,144.67822 600,232.5 C 600,413.92383 471.16992,565.25391 300,599.99902 C 128.83008,565.25391 0,413.92383 0,232.5 C 0,144.67822 30.187988,63.907715 80.75293,0 z " />
	</g><g
   style="fill:#003f87;fill-opacity:1;stroke:none;stroke-opacity:1"
   transform="matrix(1.0070935,0,0,1.0102847,-2.1280324,-3.66885)"
   id="g1606">
		<path
   id="path1608"
   style="fill:#003f87;fill-opacity:1;stroke:none;stroke-opacity:1"
   d="M 15,232.5 C 15,200.521 19.169434,169.51611 26.994629,139.99902 L 573.00586,139.99902 C 580.83008,169.51611 585,200.521 585,232.5 C 585,405.60547 462.82617,550.17188 300,584.67676 C 137.17432,550.17188 15,405.60547 15,232.5 z " />
	</g><g
   style="fill:#af1e2d;fill-opacity:1;stroke:none;stroke-opacity:1"
   transform="matrix(1.0125461,0,0,1.0271486,-3.7638021,-3.1017482)"
   id="g1610">
		<path
   id="path1612"
   style="fill:#af1e2d;fill-opacity:1;stroke:none;stroke-opacity:1"
   d="M 31.324219,124.99902 C 43.579102,85.77832 62.362793,49.44043 86.402832,17.259766 C 119.50439,26.392578 154.37061,31.272461 190.37695,31.272461 C 228.4375,31.272461 265.22461,25.820801 300,15.654785 C 334.77539,25.820801 371.5625,31.272461 409.62305,31.272461 C 445.62891,31.272461 480.49609,26.392578 513.59766,17.259766 C 537.63672,49.44043 556.4209,85.77832 568.67578,124.99902 L 31.324219,124.99902 L 31.324219,124.99902 z " />
	</g>




<path
   transform="scale(0.9999958,1.0000042)"
   style="font-size:372.50445557px;font-style:normal;font-variant:normal;font-weight:normal;font-stretch:normal;text-align:center;line-height:125%;writing-mode:lr-tb;text-anchor:middle;fill:#ffffff;fill-opacity:1;font-family:Roadgeek 2005 Series D"
   d="M 179.17721,449.74805 L 179.17721,247.4784 L 156.45271,247.4784 L 156.45271,215.8187 L 159.05596,215.8187 C 164.27002,215.81894 169.48411,214.45289 174.69824,211.72056 C 179.91228,208.98871 184.25862,205.13688 187.73726,200.16506 L 219.39696,200.16506 L 219.39696,449.74805 L 179.17721,449.74805 z M 443.44757,275.42078 C 443.44737,292.5562 441.14916,309.62893 436.55291,326.63901 C 431.9563,343.64933 425.43679,359.97746 416.99438,375.62343 C 408.55164,391.26956 398.37166,405.79587 386.45443,419.20241 C 374.53692,432.60901 361.37476,444.28008 346.96791,454.21564 L 327.97209,420.69161 C 335.42179,414.73485 342.06445,408.96184 347.90008,403.37256 C 353.73552,397.78338 359.01213,392.00847 363.72993,386.04783 C 368.4475,380.08731 372.79384,373.75538 376.76895,367.05201 C 380.74381,360.34881 384.59185,352.89714 388.31309,344.69697 C 381.11326,345.93997 375.58845,346.80961 371.73864,347.30591 C 367.88858,347.80241 363.48162,348.05061 358.51773,348.05051 C 346.84656,348.05061 335.85756,346.06502 325.55072,342.09371 C 315.24373,338.12263 306.24034,332.72286 298.54051,325.89441 C 290.84059,319.0662 284.75686,310.99497 280.2893,301.68071 C 275.82167,292.36674 273.58787,282.49559 273.5879,272.06724 C 273.58787,261.38915 275.82167,251.39296 280.2893,242.07863 C 284.75686,232.76472 290.77807,224.6935 298.35294,217.86493 C 305.92772,211.03683 314.86859,205.63517 325.17558,201.65994 C 335.48242,197.68521 346.59646,195.69772 358.51773,195.69746 C 370.43878,195.69772 381.61345,197.74773 392.04177,201.84751 C 402.4698,205.94779 411.4713,211.53513 419.0463,218.60953 C 426.62095,225.6844 432.58153,234.06445 436.92806,243.74972 C 441.2742,253.43539 443.44737,263.9924 443.44757,275.42078 L 443.44757,275.42078 z M 403.95536,272.06724 C 403.95521,267.34594 402.71421,262.74951 400.23237,258.27794 C 397.75022,253.80675 394.4611,249.95681 390.365,246.72812 C 386.26862,243.49983 381.4884,240.89279 376.02435,238.90698 C 370.56004,236.92159 364.72451,235.92879 358.51773,235.92858 C 352.31074,235.92879 346.53773,236.86096 341.19869,238.72509 C 335.85946,240.58964 331.13988,243.13606 327.03992,246.36434 C 322.93981,249.59304 319.71132,253.44108 317.35444,257.90848 C 314.99743,262.37626 313.81895,267.09585 313.81902,272.06724 C 313.81895,277.03141 314.99743,281.68658 317.35444,286.03275 C 319.71132,290.37925 322.93981,294.16666 327.03992,297.395 C 331.13988,300.62364 335.85946,303.16816 341.19869,305.02857 C 346.53773,306.88926 352.31074,307.81954 358.51773,307.81939 C 364.72451,307.81954 370.62257,306.88926 376.21192,305.02857 C 381.80102,303.16816 386.64376,300.62364 390.74014,297.395 C 394.83624,294.16666 398.06284,290.37925 400.41994,286.03275 C 402.77673,281.68658 403.95521,277.03141 403.95536,272.06724 L 403.95536,272.06724 z "
   id="text5085" />


<path
   style="font-size:93.21589661px;font-style:normal;font-variant:normal;font-weight:normal;font-stretch:normal;text-align:center;line-height:125%;writing-mode:lr-tb;text-anchor:middle;fill:#ffffff;fill-opacity:1;font-family:Roadgeek 2005 Series C"
   d="M 108.86859,112.81165 L 108.86859,50.416161 L 117.60967,50.416161 L 117.60967,112.81165 L 108.86859,112.81165 z M 159.56965,112.81165 L 140.31942,70.997717 L 140.31942,112.81165 L 131.39104,112.81165 L 131.39104,50.416161 L 140.31942,50.416161 L 157.42977,87.853449 L 157.42977,50.416161 L 166.35816,50.416161 L 166.35816,112.81165 L 159.56965,112.81165 z M 195.41654,58.706192 L 195.41654,112.81165 L 186.39735,112.81165 L 186.39735,58.706192 L 175.05098,58.706192 L 175.05098,50.416161 L 206.7629,50.416161 L 206.7629,58.706192 L 195.41654,58.706192 z M 215.30532,112.81165 L 215.30532,50.416161 L 244.59927,50.416161 L 244.59927,59.172274 L 224.2337,59.172274 L 224.2337,74.908269 L 237.16084,74.908269 L 237.16084,83.476813 L 224.2337,83.476813 L 224.2337,104.05837 L 247.01726,104.05837 L 247.01726,112.81165 L 215.30532,112.81165 z M 283.20473,112.81165 L 274.92624,83.476813 L 266.37247,83.476813 L 266.37247,112.81165 L 257.4441,112.81165 L 257.4441,50.416161 L 276.04442,50.416161 C 278.46238,50.416224 280.67885,50.819784 282.69389,51.62684 C 284.70884,52.434021 286.44475,53.551862 287.90163,54.980368 C 289.35844,56.408988 290.47425,58.162956 291.24907,60.242277 C 292.02379,62.321703 292.41119,64.60333 292.41123,67.087165 C 292.41119,70.812085 291.66716,73.978511 290.17914,76.586455 C 288.69102,79.19447 286.45894,81.056433 283.48285,82.172347 L 292.41123,112.81165 L 283.20473,112.81165 z M 283.67015,67.087165 C 283.67012,64.665853 282.92609,62.741367 281.43805,61.313699 C 279.94996,59.886136 277.99694,59.172328 275.579,59.172274 L 266.37247,59.172274 L 266.37247,74.908269 L 275.579,74.908269 C 278.18236,74.908307 280.18173,74.240918 281.57712,72.906101 C 282.97244,71.571363 283.67012,69.631721 283.67015,67.087165 L 283.67015,67.087165 z M 334.56419,95.768339 C 334.56416,98.31476 334.11481,100.6897 333.21614,102.89316 C 332.31739,105.09665 331.07766,107.00549 329.49693,108.61973 C 327.91613,110.23398 326.08704,111.52233 324.00964,112.48482 C 321.93219,113.4473 319.68449,113.92853 317.26652,113.92853 C 314.53824,113.92853 312.08951,113.40088 309.92033,112.34556 C 307.75114,111.29024 305.92252,109.86263 304.43447,108.0627 C 302.9464,106.26279 301.79937,104.18295 300.99337,101.82315 C 300.18737,99.463388 299.78437,97.011244 299.78438,94.466716 L 308.52546,94.466716 C 308.52544,95.770251 308.69573,97.058136 309.0363,98.330376 C 309.37684,99.602646 309.90376,100.75127 310.61707,101.77627 C 311.33035,102.80129 312.22952,103.62404 313.3146,104.24452 C 314.39964,104.86503 315.71694,105.17527 317.26652,105.17526 C 318.44523,105.17527 319.57711,104.92707 320.66221,104.43067 C 321.74724,103.93429 322.67716,103.25127 323.45197,102.38161 C 324.22672,101.51197 324.84634,100.50307 325.31087,99.354907 C 325.77533,98.206766 326.00757,97.011244 326.0076,95.768339 C 326.00757,93.968443 325.63579,92.37031 324.89226,90.973934 C 324.14867,89.577602 322.84697,88.165144 320.98716,86.736554 C 320.67685,86.425859 320.55292,86.254867 320.61538,86.223579 C 320.6778,86.192343 320.49191,86.021825 320.05771,85.712023 C 319.62347,85.402277 318.70868,84.796937 317.31335,83.896004 C 315.91798,82.995129 313.63953,81.459044 310.478,79.287747 C 307.93703,77.548497 306.03083,75.514594 304.75942,73.186035 C 303.48797,70.857556 302.85226,68.296942 302.85226,65.504186 C 302.85226,63.268552 303.25526,61.173074 304.06128,59.217745 C 304.86725,57.262525 305.99866,55.539819 307.45551,54.049621 C 308.91235,52.559541 310.60192,51.395283 312.52421,50.556838 C 314.44647,49.718521 316.52295,49.29933 318.75365,49.299267 C 320.98618,49.29933 323.04799,49.70289 324.93908,50.509945 C 326.83013,51.317127 328.47286,52.434967 329.86729,53.863473 C 331.26166,55.292095 332.37747,56.999643 333.21474,58.986126 C 334.0519,60.972715 334.50173,63.1454 334.56419,65.504186 L 326.0076,65.504186 C 325.88459,63.331075 325.14102,61.592738 323.77692,60.289169 C 322.41275,58.985706 320.73833,58.333948 318.75365,58.333894 C 316.70836,58.333948 314.97291,59.016967 313.54731,60.382954 C 312.12167,61.749046 311.40886,63.456122 311.40887,65.504186 C 311.40886,67.055948 311.81186,68.359465 312.61787,69.41474 C 313.42384,70.4701 314.97339,71.649518 317.26652,72.952995 C 323.28119,76.429707 327.6678,79.968432 330.42638,83.569177 C 333.1849,87.16998 334.56416,91.236364 334.56419,95.768339 L 334.56419,95.768339 z M 360.52064,58.706192 L 360.52064,112.81165 L 351.50144,112.81165 L 351.50144,58.706192 L 340.15508,58.706192 L 340.15508,50.416161 L 371.867,50.416161 L 371.867,58.706192 L 360.52064,58.706192 z M 406.44816,112.81165 L 402.07763,95.768339 L 388.68506,95.768339 L 384.59548,112.81165 L 375.57345,112.81165 L 391.10305,50.416161 L 399.84695,50.416161 L 415.37654,112.81165 L 406.44816,112.81165 z M 395.2891,69.042441 L 390.91856,87.015068 L 399.84695,87.015068 L 395.2891,69.042441 z M 439.53084,58.706192 L 439.53084,112.81165 L 430.51165,112.81165 L 430.51165,58.706192 L 419.16529,58.706192 L 419.16529,50.416161 L 450.87721,50.416161 L 450.87721,58.706192 L 439.53084,58.706192 z M 459.41964,112.81165 L 459.41964,50.416161 L 488.71358,50.416161 L 488.71358,59.172274 L 468.34802,59.172274 L 468.34802,74.908269 L 481.27515,74.908269 L 481.27515,83.476813 L 468.34802,83.476813 L 468.34802,104.05837 L 491.13157,104.05837 L 491.13157,112.81165 L 459.41964,112.81165 z "
   id="text6060" />


<path
   transform="scale(1.0000209,0.9999791)"
   style="font-size:55.87704086px;font-style:normal;font-variant:normal;font-weight:normal;font-stretch:normal;text-align:center;line-height:125%;writing-mode:lr-tb;text-anchor:middle;fill:#ffffff;fill-opacity:1;font-family:Roadgeek 2005 Series D"
   d="M 220.33643,187.69063 L 216.64801,177.1864 L 204.97058,177.1864 L 201.28217,187.69063 L 194.96769,187.69063 L 207.8763,150.25226 L 213.7423,150.25226 L 226.6509,187.69063 L 220.33643,187.69063 z M 210.89285,160.64565 L 207.03732,171.15158 L 214.525,171.15158 L 210.89285,160.64565 z M 251.36824,187.69063 L 245.33342,171.37497 L 238.23795,171.37497 L 238.23795,187.69063 L 232.31398,187.69063 L 232.31398,150.25226 L 244.66327,150.25226 C 246.11611,150.2523 247.36405,150.33614 248.4071,150.50378 C 249.45012,150.6715 250.43716,150.97929 251.36824,151.42717 C 252.18786,151.83646 252.94243,152.36707 253.63193,153.019 C 254.32139,153.671 254.91737,154.4159 255.41987,155.25371 C 255.92232,156.09157 256.31338,156.98568 256.59307,157.93604 C 256.8727,158.88645 257.01253,159.82717 257.01256,160.75819 C 257.01253,161.76431 256.8727,162.74226 256.59307,163.69205 C 256.31338,164.64188 255.92232,165.53571 255.41987,166.37352 C 254.91737,167.21138 254.30292,167.96566 253.57651,168.63637 C 252.85006,169.30711 252.05826,169.82891 251.20113,170.20177 L 257.79526,187.69063 L 251.36824,187.69063 z M 251.08858,160.75819 C 251.08856,159.97609 250.88393,159.23119 250.4747,158.52349 C 250.06542,157.81585 249.48791,157.25682 248.74218,156.84639 C 248.25788,156.58609 247.81082,156.40932 247.40102,156.31607 C 246.99117,156.22288 246.30198,156.17627 245.33342,156.17624 L 238.23795,156.17624 L 238.23795,165.34015 L 245.33342,165.34015 C 246.2656,165.34018 246.9457,165.30294 247.37373,165.22846 C 247.80173,165.15402 248.25788,164.98606 248.74218,164.72456 C 249.48791,164.31533 250.06542,163.74749 250.4747,163.02104 C 250.88393,162.29463 251.08856,161.54035 251.08858,160.75819 L 251.08858,160.75819 z M 264.07222,187.69063 L 264.07222,150.25226 L 270.10703,150.25226 L 270.10703,187.69063 L 264.07222,187.69063 z M 276.39764,187.69063 L 276.39764,182.71817 L 293.496,156.17624 L 277.85049,156.17624 L 277.85049,150.25226 L 301.87892,150.25226 L 301.87892,153.77356 L 284.55547,181.65581 L 301.87892,181.65581 L 301.87892,187.69063 L 276.39764,187.69063 z M 333.92193,169.02686 C 333.9219,172.00763 333.56806,174.85763 332.86042,177.5769 C 332.15272,180.29618 331.14692,182.49422 329.84301,184.17103 C 327.75692,186.9642 324.7398,188.36078 320.79164,188.36078 C 318.14624,188.36078 315.96696,187.82079 314.25378,186.74081 C 312.54058,185.66084 311.12524,183.96584 310.00775,181.65581 C 309.22562,180.05404 308.59241,178.1078 308.10813,175.8171 C 307.62384,173.52642 307.38169,171.26301 307.3817,169.02686 C 307.38169,165.93587 307.74491,163.06796 308.47134,160.42312 C 309.19776,157.77833 310.19419,155.56182 311.46061,153.77356 C 312.5781,152.35826 313.90988,151.30585 315.45597,150.61633 C 317.00203,149.92688 318.85505,149.58214 321.01503,149.5821 C 323.39892,149.58214 325.429,150.12242 327.10526,151.20293 C 328.78148,152.28351 330.21586,153.97823 331.40842,156.28708 C 332.19052,157.96392 332.80497,159.91982 333.25177,162.15478 C 333.69851,164.38979 333.9219,166.68049 333.92193,169.02686 L 333.92193,169.02686 z M 327.99966,169.02686 C 327.99963,166.90444 327.81348,164.93973 327.44119,163.13273 C 327.06886,161.32578 326.50983,159.78908 325.7641,158.52264 C 325.16838,157.55409 324.48885,156.84642 323.72549,156.39962 C 322.9621,155.95288 322.02166,155.69198 320.90419,155.61692 C 319.45131,155.54306 318.2406,155.87842 317.27204,156.62301 C 316.30346,157.36766 315.50257,158.57837 314.86937,160.25515 C 314.38507,161.37267 314.02186,162.72293 313.77973,164.30593 C 313.53757,165.88898 313.4165,167.46262 313.41651,169.02686 C 313.4165,171.03905 313.60266,172.97648 313.97498,174.83915 C 314.34727,176.70184 314.90574,178.22887 315.65037,179.42025 C 316.24719,180.38883 316.95514,181.11526 317.77423,181.59954 C 318.5933,182.08383 319.5991,182.32597 320.79164,182.32597 C 322.16945,182.32597 323.3148,181.95367 324.22768,181.20904 C 325.14053,180.46443 325.91357,179.25372 326.5468,177.5769 C 326.73321,177.09262 326.91965,176.50602 327.10612,175.8171 C 327.29253,175.1282 327.45083,174.40177 327.58102,173.63781 C 327.71116,172.87388 327.81348,172.10084 327.88796,171.3187 C 327.9624,170.53658 327.99963,169.77264 327.99966,169.02686 L 327.99966,169.02686 z M 362.44023,187.69063 L 348.13675,162.32189 L 348.13675,187.69063 L 342.21277,187.69063 L 342.21277,150.25226 L 348.13675,150.25226 L 361.77008,174.16814 L 361.77008,150.25226 L 367.69405,150.25226 L 367.69405,187.69063 L 362.44023,187.69063 z M 398.66277,187.69063 L 394.97435,177.1864 L 383.29692,177.1864 L 379.60851,187.69063 L 373.29403,187.69063 L 386.20264,150.25226 L 392.06864,150.25226 L 404.97724,187.69063 L 398.66277,187.69063 z M 389.21919,160.64565 L 385.36366,171.15158 L 392.85134,171.15158 L 389.21919,160.64565 z "
   id="text2177" />

</svg>