<?xml version="1.0" encoding="UTF-8" standalone="no"?>
<!-- Created with Inkscape (http://www.inkscape.org/) -->
<svg
   xmlns:dc="http://purl.org/dc/elements/1.1/"
   xmlns:cc="http://web.resource.org/cc/"
   xmlns:rdf="http://www.w3.org/1999/02/22-rdf-syntax-ns#"
   xmlns:svg="http://www.w3.org/2000/svg"
   xmlns="http://www.w3.org/2000/svg"
   xmlns:sodipodi="http://sodipodi.sourceforge.net/DTD/sodipodi-0.dtd"
   xmlns:inkscape="http://www.inkscape.org/namespaces/inkscape"
   version="1.0"
   width="751"
   height="601"
   viewBox="0 0 750 599.99902"
   id="Layer_1"
   xml:space="preserve"
   sodipodi:version="0.32"
   inkscape:version="0.45"
   sodipodi:docname="I-274.svg"
   sodipodi:docbase="C:\Documents and Settings\ltljltlj\Desktop\Signs\Interstate Shields"
   inkscape:output_extension="org.inkscape.output.svg.inkscape"
   sodipodi:modified="true"><metadata
   id="metadata36"><rdf:RDF><cc:Work
       rdf:about=""><dc:format>image/svg+xml</dc:format><dc:type
         rdf:resource="http://purl.org/dc/dcmitype/StillImage" /></cc:Work></rdf:RDF></metadata><sodipodi:namedview
   inkscape:window-height="963"
   inkscape:window-width="1043"
   inkscape:pageshadow="2"
   inkscape:pageopacity="0.0"
   guidetolerance="10.0"
   gridtolerance="10.0"
   objecttolerance="10.0"
   borderopacity="1.0"
   bordercolor="#666666"
   pagecolor="#ffffff"
   id="base"
   width="751px"
   height="601px"
   inkscape:zoom="1.2773333"
   inkscape:cx="375"
   inkscape:cy="300"
   inkscape:window-x="-2"
   inkscape:window-y="-2"
   inkscape:current-layer="Layer_1" /><defs
   id="defs62">
	
	
	
	
</defs>
<g
   transform="matrix(0.9986685,0,0,0.9986701,0.4993342,0.3989715)"
   id="g5"
   style="fill:#ffffff;fill-opacity:1;stroke:#000000;stroke-width:0.99999899;stroke-miterlimit:4;stroke-dasharray:none;stroke-opacity:1">
		<path
   id="path7"
   style="fill:#ffffff;fill-opacity:1;stroke:#000000;stroke-width:0.99999899;stroke-miterlimit:4;stroke-dasharray:none;stroke-opacity:1"
   d="M 38.915039,0 C 92.236328,15.525391 148.625,23.849609 206.95801,23.849609 C 265.29053,23.849609 321.6792,15.525391 375,0.0004883 C 428.32031,15.525391 484.70898,23.849609 543.04199,23.849609 C 601.375,23.849609 657.76367,15.525391 711.08398,0 C 736.06445,54.121094 750,114.3877 750,177.90918 C 750,395.71777 586.16016,575.25391 375,599.99902 C 163.83887,575.25391 0,395.71777 0,177.90918 C 0,114.3877 13.935059,54.121094 38.915039,0 z " />
		
			<path
   id="path9"
   style="fill:#ffffff;fill-opacity:1;stroke:#000000;stroke-width:0.99999899;stroke-linecap:round;stroke-linejoin:round;stroke-miterlimit:4;stroke-dasharray:none;stroke-opacity:1"
   d="M 38.915039,0 C 92.236328,15.525391 148.625,23.849609 206.95801,23.849609 C 265.29053,23.849609 321.6792,15.525391 375,0.0004883 C 428.32031,15.525391 484.70898,23.849609 543.04199,23.849609 C 601.375,23.849609 657.76367,15.525391 711.08398,0 C 736.06445,54.121094 750,114.3877 750,177.90918 C 750,395.71777 586.16016,575.25391 375,599.99902 C 163.83887,575.25391 0,395.71777 0,177.90918 C 0,114.3877 13.935059,54.121094 38.915039,0 z " />
	</g><g
   transform="matrix(1.0056032,0,0,1.0101352,-2.1013652,-3.7018951)"
   id="g11"
   style="fill:#003f87;fill-opacity:1">
		<path
   id="path13"
   style="fill:#003f87;fill-opacity:1"
   d="M 15,177.90918 C 15,165.12744 15.584961,152.48242 16.729004,139.99902 L 733.27051,139.99902 C 734.41504,152.48242 735,165.12744 735,177.90918 C 735,387.42285 577.85547,560.22852 375,584.89062 C 172.14453,560.22852 15,387.42285 15,177.90918 z " />
	</g><g
   transform="matrix(1.00604,0,0,1.0270827,-2.2645005,-3.1522955)"
   id="g15"
   style="fill:#af1e2d;fill-opacity:1">
		<path
   id="path17"
   style="fill:#af1e2d;fill-opacity:1"
   d="M 47.37793,17.942871 C 98.270019,31.578125 151.76562,38.849121 206.95996,38.849121 C 265.2207,38.849121 321.58936,30.748047 375,15.611328 C 428.41113,30.748047 484.7793,38.849121 543.04004,38.849121 C 598.23438,38.849121 651.73047,31.578613 702.62109,17.942871 C 716.88281,51.567383 726.78516,87.489258 731.61719,124.99902 L 18.381836,124.99902 C 23.214844,87.489258 33.116211,51.567383 47.37793,17.942871 z " />
	</g>



<path
   style="font-size:93.28099823px;font-style:normal;font-variant:normal;font-weight:normal;font-stretch:normal;text-align:center;line-height:125%;writing-mode:lr-tb;text-anchor:middle;fill:#ffffff;fill-opacity:1;font-family:Roadgeek 2005 Series C"
   d="M 183.53777,112.74918 L 183.53777,50.332876 L 192.29397,50.332876 L 192.29397,112.74918 L 183.53777,112.74918 z M 234.32652,112.74918 L 215.04301,70.921299 L 215.04301,112.74918 L 206.09918,112.74918 L 206.09918,50.332876 L 215.04301,50.332876 L 232.18297,87.782657 L 232.18297,50.332876 L 241.1268,50.332876 L 241.1268,112.74918 L 234.32652,112.74918 z M 270.23545,58.625673 L 270.23545,112.74918 L 261.20065,112.74918 L 261.20065,58.625673 L 249.83466,58.625673 L 249.83466,50.332876 L 281.60144,50.332876 L 281.60144,58.625673 L 270.23545,58.625673 z M 290.15862,112.74918 L 290.15862,50.332876 L 319.50325,50.332876 L 319.50325,59.09191 L 299.10244,59.09191 L 299.10244,74.833157 L 312.05195,74.833157 L 312.05195,83.404561 L 299.10244,83.404561 L 299.10244,103.99298 L 321.9254,103.99298 L 321.9254,112.74918 L 290.15862,112.74918 z M 358.17549,112.74918 L 349.88269,83.404561 L 341.31412,83.404561 L 341.31412,112.74918 L 332.3703,112.74918 L 332.3703,50.332876 L 351.0028,50.332876 C 353.42494,50.332938 355.64525,50.736632 357.66375,51.543959 C 359.6822,52.351409 361.42112,53.469623 362.88052,54.898605 C 364.33984,56.327702 365.45758,58.082256 366.23374,60.16227 C 367.00981,62.24239 367.39787,64.524779 367.39791,67.009442 C 367.39787,70.735604 366.65256,73.903088 365.16196,76.511902 C 363.67129,79.120788 361.43533,80.983372 358.4541,82.099661 L 367.39791,112.74918 L 358.17549,112.74918 z M 358.64173,67.009442 C 358.6417,64.587322 357.89637,62.662194 356.40576,61.234051 C 354.9151,59.806011 352.9587,59.091964 350.53656,59.09191 L 341.31412,59.09191 L 341.31412,74.833157 L 350.53656,74.833157 C 353.14444,74.833195 355.14727,74.165584 356.54506,72.830321 C 357.9428,71.495138 358.6417,69.554847 358.64173,67.009442 L 358.64173,67.009442 z M 409.6238,95.700188 C 409.62376,98.247459 409.17363,100.62319 408.27342,102.82739 C 407.37312,105.03161 406.13124,106.94111 404.54777,108.55587 C 402.96423,110.17066 401.13196,111.45945 399.05098,112.42224 C 396.96994,113.38505 394.71835,113.86645 392.29621,113.86645 C 389.56319,113.86645 387.11023,113.33861 384.93731,112.28294 C 382.76436,111.22727 380.93257,109.79918 379.44194,107.99867 C 377.9513,106.19815 376.80229,104.11761 375.9949,101.75704 C 375.18751,99.396471 374.78382,96.943507 374.78382,94.398132 L 383.54002,94.398132 C 383.54001,95.702101 383.71058,96.990416 384.05174,98.26308 C 384.39288,99.535774 384.92071,100.68479 385.63525,101.71013 C 386.34975,102.73548 387.25049,103.5585 388.33744,104.17919 C 389.42436,104.7999 390.74394,105.11026 392.29621,105.11025 C 393.47695,105.11026 394.61079,104.86198 395.69776,104.3654 C 396.78467,103.86886 397.7162,103.18561 398.49235,102.31567 C 399.26844,101.44574 399.88914,100.4365 400.35446,99.287953 C 400.81972,98.139428 401.05236,96.943507 401.05239,95.700188 C 401.05236,93.899691 400.67995,92.301024 399.93513,90.904183 C 399.19025,89.507385 397.8863,88.094455 396.02327,86.665389 C 395.71243,86.35459 395.58828,86.18354 395.65086,86.152242 C 395.71337,86.120997 395.52716,85.950421 395.09222,85.640517 C 394.65723,85.330665 393.74087,84.725124 392.34312,83.823891 C 390.94533,82.922716 388.66293,81.386119 385.49595,79.214097 C 382.95057,77.474265 381.04108,75.439684 379.76746,73.110348 C 378.49382,70.781091 377.85701,68.219622 377.85702,65.425936 C 377.85701,63.189556 378.2607,61.093379 379.0681,59.137398 C 379.87548,57.181525 381.00886,55.458243 382.46824,53.967548 C 383.92759,52.476971 385.62007,51.312324 387.54568,50.473601 C 389.47127,49.635002 391.55134,49.215671 393.7859,49.215607 C 396.0223,49.215671 398.08768,49.619366 399.98204,50.426692 C 401.87634,51.234143 403.52192,52.352357 404.91877,53.781337 C 406.31556,55.210436 407.4333,56.918555 408.272,58.9057 C 409.11062,60.892952 409.56122,63.066363 409.6238,65.425936 L 401.05239,65.425936 C 400.92917,63.2521 400.18433,61.513183 398.81786,60.209179 C 397.45135,58.90528 395.77402,58.253304 393.7859,58.25325 C 391.73707,58.253304 389.99863,58.936552 388.57055,60.302995 C 387.14245,61.669543 386.4284,63.377188 386.42842,65.425936 C 386.4284,66.978216 386.83209,68.282167 387.63951,69.337794 C 388.44687,70.393507 389.99911,71.573317 392.29621,72.877229 C 398.32127,76.355103 402.71547,79.895009 405.47882,83.496955 C 408.24211,87.09896 409.62376,91.166701 409.6238,95.700188 L 409.6238,95.700188 z M 435.62513,58.625673 L 435.62513,112.74918 L 426.59034,112.74918 L 426.59034,58.625673 L 415.22435,58.625673 L 415.22435,50.332876 L 446.99113,50.332876 L 446.99113,58.625673 L 435.62513,58.625673 z M 481.6321,112.74918 L 477.25401,95.700188 L 463.83827,95.700188 L 459.74164,112.74918 L 450.70398,112.74918 L 466.26044,50.332876 L 475.01948,50.332876 L 490.57593,112.74918 L 481.6321,112.74918 z M 470.45374,68.965371 L 466.07565,86.943996 L 475.01948,86.943996 L 470.45374,68.965371 z M 514.77201,58.625673 L 514.77201,112.74918 L 505.73722,112.74918 L 505.73722,58.625673 L 494.37123,58.625673 L 494.37123,50.332876 L 526.13801,50.332876 L 526.13801,58.625673 L 514.77201,58.625673 z M 534.6952,112.74918 L 534.6952,50.332876 L 564.03982,50.332876 L 564.03982,59.09191 L 543.63903,59.09191 L 543.63903,74.833157 L 556.58852,74.833157 L 556.58852,83.404561 L 543.63903,83.404561 L 543.63903,103.99298 L 566.46199,103.99298 L 566.46199,112.74918 L 534.6952,112.74918 z "
   id="text7023" />

<path
   style="font-size:373.12701416px;font-style:normal;font-variant:normal;font-weight:normal;font-stretch:normal;text-align:center;line-height:125%;writing-mode:lr-tb;text-anchor:middle;fill:#ffffff;fill-opacity:1;font-family:Roadgeek 2005 Series C"
   d="M 136.10753,440.43707 C 136.60028,431.99164 137.15749,424.66254 137.77917,418.44974 C 138.40081,412.23699 139.14566,406.64778 140.01372,401.68206 C 140.88175,396.71644 141.99996,391.93461 143.36839,387.33659 C 144.73678,382.73865 146.41411,377.70665 148.4004,372.24055 C 158.58947,346.16138 172.00436,325.4193 188.64509,310.01423 C 190.13853,308.77105 191.69266,307.46709 193.30753,306.10234 C 194.92224,304.73786 196.9085,303.18561 199.26633,301.44559 C 201.624,299.70585 204.48021,297.5945 207.83496,295.11151 C 211.18954,292.62883 215.34971,289.64753 220.31547,286.16762 C 228.51821,280.45157 234.04677,275.6072 236.9012,271.6345 C 239.75541,267.66213 241.18255,262.57137 241.18267,256.36221 C 241.18255,251.63932 240.25196,247.16643 238.39091,242.94353 C 236.52962,238.721 234.04677,234.99486 230.94239,231.76506 C 227.8378,228.53569 224.11166,225.98842 219.76395,224.12324 C 215.41605,222.25848 210.8806,221.326 206.15762,221.32578 C 201.19188,221.326 196.59768,222.25848 192.37504,224.12324 C 188.15225,225.98842 184.48676,228.53569 181.37853,231.76506 C 178.2702,234.99486 175.78547,238.721 173.92434,242.94353 C 172.06311,247.16643 171.13252,251.63932 171.13257,256.36221 L 136.10753,256.36221 C 136.3501,246.67365 138.27383,237.54402 141.87869,228.9733 C 145.48353,220.40299 150.39043,212.9488 156.59945,206.61072 C 162.80839,200.27309 170.13559,195.30362 178.58109,191.70232 C 187.02645,188.10152 196.21862,186.30098 206.15762,186.30072 C 215.84628,186.30098 224.85272,188.16406 233.17694,191.88995 C 241.50097,195.61634 248.83007,200.64646 255.16427,206.9803 C 261.49821,213.31459 266.46577,220.70624 270.06697,229.15524 C 273.66788,237.60467 275.46841,246.67365 275.46857,256.36221 C 275.46841,276.23264 268.3876,292.62693 254.2261,305.54512 C 252.98265,306.53838 251.67869,307.46897 250.31421,308.33688 C 248.94947,309.20507 247.64551,310.26074 246.40233,311.50392 L 237.82801,317.83801 L 228.88979,323.80819 L 219.20104,330.88142 C 215.22841,333.86094 211.31652,337.40134 207.46538,341.50266 C 203.61406,345.60417 199.88791,350.07707 196.28692,354.92134 C 192.6858,359.76581 189.51876,364.85845 186.78581,370.19933 C 184.05274,375.54033 181.81439,380.81871 180.07079,386.03451 C 178.58482,389.26415 177.53103,392.18289 176.90943,394.79078 C 176.28772,397.39875 175.48032,400.93915 174.48724,405.41202 L 275.46857,405.41202 L 275.46857,440.43707 L 136.10753,440.43707 z M 437.23201,225.80626 C 426.05721,238.47461 416.12208,252.8201 407.4266,268.84274 C 398.73087,284.8657 390.9071,302.93733 383.95526,323.05765 C 377.24582,342.18507 372.39956,360.87834 369.41646,379.13754 C 366.43318,397.39685 364.44501,417.83001 363.45196,440.43707 L 328.42691,440.43707 L 328.42691,435.21743 C 328.42687,429.00844 328.80024,421.80444 329.54702,413.60537 C 330.29373,405.40637 331.34941,396.89839 332.71406,388.08143 C 334.07863,379.26458 335.63088,370.32259 337.37081,361.25542 C 339.11063,352.18842 341.09879,343.55346 343.33529,335.35053 C 346.06446,325.4193 348.98132,315.92009 352.08587,306.85287 C 355.1903,297.78592 358.66817,288.90458 362.51947,280.20881 C 366.37063,271.51337 370.6559,262.75522 375.37526,253.93434 C 380.09444,245.11383 385.56238,235.73781 391.77903,225.80626 L 297.87096,225.80626 L 297.87096,190.76984 L 437.23201,190.76984 L 437.23201,225.80626 L 437.23201,225.80626 z M 613.89245,352.87443 C 613.89229,366.03543 611.90414,378.20511 607.92796,389.3835 C 603.95149,400.56199 598.48546,410.25073 591.52987,418.44974 C 584.57401,426.64881 576.37687,433.10797 566.93841,437.82724 C 557.49974,442.54653 547.18935,444.90617 536.0072,444.90617 C 524.83247,444.90617 514.08995,443.04309 503.7796,439.31694 C 493.46917,435.5908 483.71978,430.12667 474.53141,422.92454 L 498.00275,397.58824 C 504.21168,401.81098 509.926,404.91548 515.14568,406.90171 C 520.36527,408.88801 526.07958,409.88114 532.28863,409.88111 C 538.99032,409.88114 545.1993,408.45209 550.9156,405.59396 C 556.6317,402.73589 561.53863,398.69892 565.63635,393.48302 C 569.73386,388.26723 572.96345,382.05824 575.3251,374.85606 C 577.68651,367.65402 578.86729,359.70516 578.86741,351.00946 C 578.86729,337.34069 575.7609,326.65693 569.54823,318.95812 C 563.33536,311.25955 555.01312,307.41022 544.58151,307.41009 C 533.64938,307.41022 523.71425,311.50784 514.7761,319.70297 L 480.49021,315.23387 L 486.82429,190.76984 L 604.2037,190.76984 L 604.2037,225.80626 L 519.98438,225.80626 L 517.38024,278.34385 C 523.58916,276.10755 528.61928,274.67851 532.47058,274.05668 C 536.32174,273.4352 540.6089,273.12436 545.33205,273.1242 C 555.51349,273.12436 564.82695,275.04998 573.27249,278.90106 C 581.7178,282.75245 588.92181,288.21848 594.88455,295.29914 C 600.847,302.38011 605.50562,310.76488 608.86045,320.45351 C 612.21496,330.14237 613.89229,340.94934 613.89245,352.87443 L 613.89245,352.87443 z "
   id="text7029" />

</svg>