<?xml version="1.0" encoding="UTF-8" standalone="no"?>
<!-- Created with Inkscape (http://www.inkscape.org/) -->
<svg
   xmlns:dc="http://purl.org/dc/elements/1.1/"
   xmlns:cc="http://web.resource.org/cc/"
   xmlns:rdf="http://www.w3.org/1999/02/22-rdf-syntax-ns#"
   xmlns:svg="http://www.w3.org/2000/svg"
   xmlns="http://www.w3.org/2000/svg"
   xmlns:sodipodi="http://sodipodi.sourceforge.net/DTD/sodipodi-0.dtd"
   xmlns:inkscape="http://www.inkscape.org/namespaces/inkscape"
   version="1.0"
   width="751"
   height="601"
   viewBox="0 0 750 599.99902"
   id="Layer_1"
   xml:space="preserve"
   sodipodi:version="0.32"
   inkscape:version="0.45"
   sodipodi:docname="I-293.svg"
   sodipodi:docbase="C:\Documents and Settings\ltljltlj\Desktop\Signs\Interstate Shields"
   inkscape:output_extension="org.inkscape.output.svg.inkscape"
   sodipodi:modified="true"><metadata
   id="metadata36"><rdf:RDF><cc:Work
       rdf:about=""><dc:format>image/svg+xml</dc:format><dc:type
         rdf:resource="http://purl.org/dc/dcmitype/StillImage" /></cc:Work></rdf:RDF></metadata><sodipodi:namedview
   inkscape:window-height="961"
   inkscape:window-width="1046"
   inkscape:pageshadow="2"
   inkscape:pageopacity="0.0"
   guidetolerance="10.0"
   gridtolerance="10.0"
   objecttolerance="10.0"
   borderopacity="1.0"
   bordercolor="#666666"
   pagecolor="#ffffff"
   id="base"
   width="751px"
   height="601px"
   inkscape:zoom="1.275"
   inkscape:cx="374.99999"
   inkscape:cy="299.99999"
   inkscape:window-x="-7"
   inkscape:window-y="0"
   inkscape:current-layer="Layer_1" /><defs
   id="defs62">
	
	
	
	
</defs>
<g
   transform="matrix(0.9986685,0,0,0.9986701,0.4993342,0.3989715)"
   id="g5"
   style="fill:#ffffff;fill-opacity:1;stroke:#000000;stroke-width:0.99999899;stroke-miterlimit:4;stroke-dasharray:none;stroke-opacity:1">
		<path
   id="path7"
   style="fill:#ffffff;fill-opacity:1;stroke:#000000;stroke-width:0.99999899;stroke-miterlimit:4;stroke-dasharray:none;stroke-opacity:1"
   d="M 38.915039,0 C 92.236328,15.525391 148.625,23.849609 206.95801,23.849609 C 265.29053,23.849609 321.6792,15.525391 375,0.0004883 C 428.32031,15.525391 484.70898,23.849609 543.04199,23.849609 C 601.375,23.849609 657.76367,15.525391 711.08398,0 C 736.06445,54.121094 750,114.3877 750,177.90918 C 750,395.71777 586.16016,575.25391 375,599.99902 C 163.83887,575.25391 0,395.71777 0,177.90918 C 0,114.3877 13.935059,54.121094 38.915039,0 z " />
		
			<path
   id="path9"
   style="fill:#ffffff;fill-opacity:1;stroke:#000000;stroke-width:0.99999899;stroke-linecap:round;stroke-linejoin:round;stroke-miterlimit:4;stroke-dasharray:none;stroke-opacity:1"
   d="M 38.915039,0 C 92.236328,15.525391 148.625,23.849609 206.95801,23.849609 C 265.29053,23.849609 321.6792,15.525391 375,0.0004883 C 428.32031,15.525391 484.70898,23.849609 543.04199,23.849609 C 601.375,23.849609 657.76367,15.525391 711.08398,0 C 736.06445,54.121094 750,114.3877 750,177.90918 C 750,395.71777 586.16016,575.25391 375,599.99902 C 163.83887,575.25391 0,395.71777 0,177.90918 C 0,114.3877 13.935059,54.121094 38.915039,0 z " />
	</g><g
   transform="matrix(1.0056032,0,0,1.0101352,-2.1013652,-3.7018951)"
   id="g11"
   style="fill:#003f87;fill-opacity:1">
		<path
   id="path13"
   style="fill:#003f87;fill-opacity:1"
   d="M 15,177.90918 C 15,165.12744 15.584961,152.48242 16.729004,139.99902 L 733.27051,139.99902 C 734.41504,152.48242 735,165.12744 735,177.90918 C 735,387.42285 577.85547,560.22852 375,584.89062 C 172.14453,560.22852 15,387.42285 15,177.90918 z " />
	</g><g
   transform="matrix(1.00604,0,0,1.0270827,-2.2645005,-3.1522955)"
   id="g15"
   style="fill:#af1e2d;fill-opacity:1">
		<path
   id="path17"
   style="fill:#af1e2d;fill-opacity:1"
   d="M 47.37793,17.942871 C 98.270019,31.578125 151.76562,38.849121 206.95996,38.849121 C 265.2207,38.849121 321.58936,30.748047 375,15.611328 C 428.41113,30.748047 484.7793,38.849121 543.04004,38.849121 C 598.23438,38.849121 651.73047,31.578613 702.62109,17.942871 C 716.88281,51.567383 726.78516,87.489258 731.61719,124.99902 L 18.381836,124.99902 C 23.214844,87.489258 33.116211,51.567383 47.37793,17.942871 z " />
	</g>



<path
   style="font-size:93.28099823px;font-style:normal;font-variant:normal;font-weight:normal;font-stretch:normal;text-align:center;line-height:125%;writing-mode:lr-tb;text-anchor:middle;fill:#ffffff;fill-opacity:1;font-family:Roadgeek 2005 Series C"
   d="M 183.53777,112.74918 L 183.53777,50.332876 L 192.29397,50.332876 L 192.29397,112.74918 L 183.53777,112.74918 z M 234.32652,112.74918 L 215.04301,70.921299 L 215.04301,112.74918 L 206.09918,112.74918 L 206.09918,50.332876 L 215.04301,50.332876 L 232.18297,87.782657 L 232.18297,50.332876 L 241.1268,50.332876 L 241.1268,112.74918 L 234.32652,112.74918 z M 270.23545,58.625673 L 270.23545,112.74918 L 261.20065,112.74918 L 261.20065,58.625673 L 249.83466,58.625673 L 249.83466,50.332876 L 281.60144,50.332876 L 281.60144,58.625673 L 270.23545,58.625673 z M 290.15862,112.74918 L 290.15862,50.332876 L 319.50325,50.332876 L 319.50325,59.09191 L 299.10244,59.09191 L 299.10244,74.833157 L 312.05195,74.833157 L 312.05195,83.404561 L 299.10244,83.404561 L 299.10244,103.99298 L 321.9254,103.99298 L 321.9254,112.74918 L 290.15862,112.74918 z M 358.17549,112.74918 L 349.88269,83.404561 L 341.31412,83.404561 L 341.31412,112.74918 L 332.3703,112.74918 L 332.3703,50.332876 L 351.0028,50.332876 C 353.42494,50.332938 355.64525,50.736632 357.66375,51.543959 C 359.6822,52.351409 361.42112,53.469623 362.88052,54.898605 C 364.33984,56.327702 365.45758,58.082256 366.23374,60.16227 C 367.00981,62.24239 367.39787,64.524779 367.39791,67.009442 C 367.39787,70.735604 366.65256,73.903088 365.16196,76.511902 C 363.67129,79.120788 361.43533,80.983372 358.4541,82.099661 L 367.39791,112.74918 L 358.17549,112.74918 z M 358.64173,67.009442 C 358.6417,64.587322 357.89637,62.662194 356.40576,61.234051 C 354.9151,59.806011 352.9587,59.091964 350.53656,59.09191 L 341.31412,59.09191 L 341.31412,74.833157 L 350.53656,74.833157 C 353.14444,74.833195 355.14727,74.165584 356.54506,72.830321 C 357.9428,71.495138 358.6417,69.554847 358.64173,67.009442 L 358.64173,67.009442 z M 409.6238,95.700188 C 409.62376,98.247459 409.17363,100.62319 408.27342,102.82739 C 407.37312,105.03161 406.13124,106.94111 404.54777,108.55587 C 402.96423,110.17066 401.13196,111.45945 399.05098,112.42224 C 396.96994,113.38505 394.71835,113.86645 392.29621,113.86645 C 389.56319,113.86645 387.11023,113.33861 384.93731,112.28294 C 382.76436,111.22727 380.93257,109.79918 379.44194,107.99867 C 377.9513,106.19815 376.80229,104.11761 375.9949,101.75704 C 375.18751,99.396471 374.78382,96.943507 374.78382,94.398132 L 383.54002,94.398132 C 383.54001,95.702101 383.71058,96.990416 384.05174,98.26308 C 384.39288,99.535774 384.92071,100.68479 385.63525,101.71013 C 386.34975,102.73548 387.25049,103.5585 388.33744,104.17919 C 389.42436,104.7999 390.74394,105.11026 392.29621,105.11025 C 393.47695,105.11026 394.61079,104.86198 395.69776,104.3654 C 396.78467,103.86886 397.7162,103.18561 398.49235,102.31567 C 399.26844,101.44574 399.88914,100.4365 400.35446,99.287953 C 400.81972,98.139428 401.05236,96.943507 401.05239,95.700188 C 401.05236,93.899691 400.67995,92.301024 399.93513,90.904183 C 399.19025,89.507385 397.8863,88.094455 396.02327,86.665389 C 395.71243,86.35459 395.58828,86.18354 395.65086,86.152242 C 395.71337,86.120997 395.52716,85.950421 395.09222,85.640517 C 394.65723,85.330665 393.74087,84.725124 392.34312,83.823891 C 390.94533,82.922716 388.66293,81.386119 385.49595,79.214097 C 382.95057,77.474265 381.04108,75.439684 379.76746,73.110348 C 378.49382,70.781091 377.85701,68.219622 377.85702,65.425936 C 377.85701,63.189556 378.2607,61.093379 379.0681,59.137398 C 379.87548,57.181525 381.00886,55.458243 382.46824,53.967548 C 383.92759,52.476971 385.62007,51.312324 387.54568,50.473601 C 389.47127,49.635002 391.55134,49.215671 393.7859,49.215607 C 396.0223,49.215671 398.08768,49.619366 399.98204,50.426692 C 401.87634,51.234143 403.52192,52.352357 404.91877,53.781337 C 406.31556,55.210436 407.4333,56.918555 408.272,58.9057 C 409.11062,60.892952 409.56122,63.066363 409.6238,65.425936 L 401.05239,65.425936 C 400.92917,63.2521 400.18433,61.513183 398.81786,60.209179 C 397.45135,58.90528 395.77402,58.253304 393.7859,58.25325 C 391.73707,58.253304 389.99863,58.936552 388.57055,60.302995 C 387.14245,61.669543 386.4284,63.377188 386.42842,65.425936 C 386.4284,66.978216 386.83209,68.282167 387.63951,69.337794 C 388.44687,70.393507 389.99911,71.573317 392.29621,72.877229 C 398.32127,76.355103 402.71547,79.895009 405.47882,83.496955 C 408.24211,87.09896 409.62376,91.166701 409.6238,95.700188 L 409.6238,95.700188 z M 435.62513,58.625673 L 435.62513,112.74918 L 426.59034,112.74918 L 426.59034,58.625673 L 415.22435,58.625673 L 415.22435,50.332876 L 446.99113,50.332876 L 446.99113,58.625673 L 435.62513,58.625673 z M 481.6321,112.74918 L 477.25401,95.700188 L 463.83827,95.700188 L 459.74164,112.74918 L 450.70398,112.74918 L 466.26044,50.332876 L 475.01948,50.332876 L 490.57593,112.74918 L 481.6321,112.74918 z M 470.45374,68.965371 L 466.07565,86.943996 L 475.01948,86.943996 L 470.45374,68.965371 z M 514.77201,58.625673 L 514.77201,112.74918 L 505.73722,112.74918 L 505.73722,58.625673 L 494.37123,58.625673 L 494.37123,50.332876 L 526.13801,50.332876 L 526.13801,58.625673 L 514.77201,58.625673 z M 534.6952,112.74918 L 534.6952,50.332876 L 564.03982,50.332876 L 564.03982,59.09191 L 543.63903,59.09191 L 543.63903,74.833157 L 556.58852,74.833157 L 556.58852,83.404561 L 543.63903,83.404561 L 543.63903,103.99298 L 566.46199,103.99298 L 566.46199,112.74918 L 534.6952,112.74918 z "
   id="text7023" />

<path
   style="font-size:373.12701416px;font-style:normal;font-variant:normal;font-weight:normal;font-stretch:normal;text-align:center;line-height:125%;writing-mode:lr-tb;text-anchor:middle;fill:#ffffff;fill-opacity:1;font-family:Roadgeek 2005 Series C"
   d="M 132.55975,440.43707 C 133.0525,431.99164 133.60973,424.66254 134.23141,418.44974 C 134.85304,412.23699 135.5979,406.64778 136.46596,401.68206 C 137.33398,396.71644 138.4522,391.93461 139.82062,387.33659 C 141.18901,382.73865 142.86634,377.70665 144.85264,372.24055 C 155.0417,346.16138 168.45659,325.4193 185.09733,310.01423 C 186.59075,308.77105 188.14489,307.46709 189.75976,306.10234 C 191.37448,304.73786 193.36074,303.18561 195.71856,301.44559 C 198.07623,299.70585 200.93244,297.5945 204.2872,295.11151 C 207.64177,292.62883 211.80194,289.64753 216.76771,286.16762 C 224.97044,280.45157 230.49901,275.6072 233.35344,271.6345 C 236.20764,267.66213 237.6348,262.57137 237.63492,256.36221 C 237.6348,251.63932 236.70421,247.16643 234.84314,242.94353 C 232.98184,238.721 230.49901,234.99486 227.39463,231.76506 C 224.29003,228.53569 220.56388,225.98842 216.21618,224.12324 C 211.86828,222.25848 207.33285,221.326 202.60986,221.32578 C 197.6441,221.326 193.04991,222.25848 188.82727,224.12324 C 184.60449,225.98842 180.93899,228.53569 177.83077,231.76506 C 174.72242,234.99486 172.2377,238.721 170.37657,242.94353 C 168.51535,247.16643 167.58476,251.63932 167.58481,256.36221 L 132.55975,256.36221 C 132.80233,246.67365 134.72606,237.54402 138.33092,228.9733 C 141.93575,220.40299 146.84266,212.9488 153.05168,206.61072 C 159.26062,200.27309 166.58783,195.30362 175.03331,191.70232 C 183.47868,188.10152 192.67086,186.30098 202.60986,186.30072 C 212.29851,186.30098 221.30494,188.16406 229.62918,191.88995 C 237.9532,195.61634 245.28229,200.64646 251.6165,206.9803 C 257.95044,213.31459 262.918,220.70624 266.5192,229.15524 C 270.12011,237.60467 271.92064,246.67365 271.9208,256.36221 C 271.92064,276.23264 264.83983,292.62693 250.67833,305.54512 C 249.43488,306.53838 248.13092,307.46897 246.76644,308.33688 C 245.40169,309.20507 244.09773,310.26074 242.85455,311.50392 L 234.28023,317.83801 L 225.34203,323.80819 L 215.65327,330.88142 C 211.68064,333.86094 207.76875,337.40134 203.91761,341.50266 C 200.06628,345.60417 196.34014,350.07707 192.73916,354.92134 C 189.13802,359.76581 185.97099,364.85845 183.23804,370.19933 C 180.50497,375.54033 178.26663,380.81871 176.52301,386.03451 C 175.03705,389.26415 173.98326,392.18289 173.36166,394.79078 C 172.73995,397.39875 171.93256,400.93915 170.93947,405.41202 L 271.9208,405.41202 L 271.9208,440.43707 L 132.55975,440.43707 z M 440.76885,275.7397 C 440.76869,306.79236 433.25386,336.60153 418.22431,365.16731 C 403.19451,393.73324 382.0184,418.82314 354.69591,440.43707 L 334.56788,412.48526 C 339.78369,408.51274 345.06207,403.73282 350.40308,398.14544 C 355.74394,392.55816 360.77406,386.59558 365.49341,380.25765 C 370.21262,373.91985 374.43532,367.52135 378.16156,361.06211 C 381.88762,354.60303 384.86891,348.39404 387.10546,342.43514 C 384.12596,342.9356 381.45739,343.18578 379.09973,343.18568 C 376.7419,343.18578 374.19462,343.18578 371.45791,343.18568 C 349.8439,343.18578 332.76541,336.10496 320.2224,321.94321 C 307.67931,307.7817 301.40778,288.52932 301.4078,264.18599 C 301.40778,252.51116 303.02258,241.89183 306.25217,232.32796 C 309.48174,222.76452 314.13847,214.56549 320.2224,207.73083 C 326.30626,200.89663 333.696,195.61634 342.39166,191.88995 C 351.08722,188.16406 360.77595,186.30098 371.45791,186.30072 C 394.31506,186.30098 411.58117,193.87836 423.25632,209.0329 C 434.93119,224.18789 440.76869,246.42347 440.76885,275.7397 L 440.76885,275.7397 z M 406.48296,267.90455 C 406.48285,253.75067 403.25326,242.44905 396.79421,233.99962 C 390.33494,225.55061 381.88952,221.326 371.45791,221.32578 C 360.28318,221.326 351.65201,225.17724 345.56438,232.87951 C 339.47665,240.58218 336.43281,251.01767 336.43286,264.18599 C 336.43281,277.84744 339.47665,288.58997 345.56438,296.41359 C 351.65201,304.23749 360.28318,308.14938 371.45791,308.14926 C 381.88952,308.14938 390.33494,304.54833 396.79421,297.34607 C 403.25326,290.1441 406.48285,280.33028 406.48296,267.90455 L 406.48296,267.90455 z M 602.53228,380.07571 L 602.53228,440.43707 L 566.76807,440.43707 L 566.76807,380.07571 L 463.17124,380.07571 L 463.17124,354.72803 L 566.76807,190.76984 L 602.53228,190.76984 L 602.53228,346.52898 L 617.44068,346.52898 L 617.44068,380.07571 L 602.53228,380.07571 z M 566.76807,253.00754 L 507.14588,346.52898 L 566.76807,346.52898 L 566.76807,253.00754 z "
   id="text7029" />

</svg>