<?xml version="1.0" encoding="UTF-8" standalone="no"?>
<!-- Created with Inkscape (http://www.inkscape.org/) -->
<svg
   xmlns:dc="http://purl.org/dc/elements/1.1/"
   xmlns:cc="http://web.resource.org/cc/"
   xmlns:rdf="http://www.w3.org/1999/02/22-rdf-syntax-ns#"
   xmlns:svg="http://www.w3.org/2000/svg"
   xmlns="http://www.w3.org/2000/svg"
   xmlns:sodipodi="http://sodipodi.sourceforge.net/DTD/sodipodi-0.dtd"
   xmlns:inkscape="http://www.inkscape.org/namespaces/inkscape"
   version="1.0"
   width="601"
   height="601"
   viewBox="0 0 600 599.99902"
   id="Layer_1"
   xml:space="preserve"
   sodipodi:version="0.32"
   inkscape:version="0.45"
   sodipodi:docname="I-29.svg"
   sodipodi:docbase="C:\Documents and Settings\ltljltlj\Desktop\Signs\Interstate Shields"
   inkscape:output_extension="org.inkscape.output.svg.inkscape"
   sodipodi:modified="true"><metadata
   id="metadata36"><rdf:RDF><cc:Work
       rdf:about=""><dc:format>image/svg+xml</dc:format><dc:type
         rdf:resource="http://purl.org/dc/dcmitype/StillImage" /></cc:Work></rdf:RDF></metadata><sodipodi:namedview
   inkscape:window-height="968"
   inkscape:window-width="1280"
   inkscape:pageshadow="2"
   inkscape:pageopacity="0.0"
   guidetolerance="10.0"
   gridtolerance="10.0"
   objecttolerance="10.0"
   borderopacity="1.0"
   bordercolor="#666666"
   pagecolor="#ffffff"
   id="base"
   width="601px"
   height="601px"
   inkscape:zoom="1.2845255"
   inkscape:cx="300.49997"
   inkscape:cy="299.49944"
   inkscape:window-x="-4"
   inkscape:window-y="-4"
   inkscape:current-layer="Layer_1" /><defs
   id="defs1659">
	
	
	
	
</defs>
<g
   transform="matrix(0.9983361,0,0,0.9983377,0.4991681,0.4986859)"
   style="fill:#ffffff;fill-opacity:1;stroke:#000000;stroke-width:0.99999928;stroke-miterlimit:4;stroke-dasharray:none;stroke-opacity:1"
   id="g1600">
		<path
   id="path1602"
   style="fill:#ffffff;fill-opacity:1;stroke:#000000;stroke-width:0.99999928;stroke-miterlimit:4;stroke-dasharray:none;stroke-opacity:1"
   d="M 80.75293,0 C 115.42871,10.583496 152.23779,16.276856 190.37695,16.276856 C 228.51563,16.276856 265.32422,10.583496 300,0.0004883 C 334.67578,10.583496 371.48438,16.276856 409.62305,16.276856 C 447.76172,16.276856 484.57129,10.583496 519.24707,0 C 569.8125,63.908203 600,144.67822 600,232.5 C 600,413.92383 471.16992,565.25391 300,599.99902 C 128.83008,565.25391 0,413.92383 0,232.5 C 0,144.67822 30.187988,63.907715 80.75293,0 z " />
		
			<path
   id="path1604"
   style="fill:#ffffff;fill-opacity:1;stroke:#000000;stroke-width:0.99999928;stroke-linecap:round;stroke-linejoin:round;stroke-miterlimit:4;stroke-dasharray:none;stroke-opacity:1"
   d="M 80.75293,0 C 115.42871,10.583496 152.23779,16.276856 190.37695,16.276856 C 228.51563,16.276856 265.32422,10.583496 300,0.0004883 C 334.67578,10.583496 371.48438,16.276856 409.62305,16.276856 C 447.76172,16.276856 484.57129,10.583496 519.24707,0 C 569.8125,63.908203 600,144.67822 600,232.5 C 600,413.92383 471.16992,565.25391 300,599.99902 C 128.83008,565.25391 0,413.92383 0,232.5 C 0,144.67822 30.187988,63.907715 80.75293,0 z " />
	</g><g
   style="fill:#003f87;fill-opacity:1;stroke:none;stroke-opacity:1"
   transform="matrix(1.0070935,0,0,1.0102847,-2.1280324,-3.66885)"
   id="g1606">
		<path
   id="path1608"
   style="fill:#003f87;fill-opacity:1;stroke:none;stroke-opacity:1"
   d="M 15,232.5 C 15,200.521 19.169434,169.51611 26.994629,139.99902 L 573.00586,139.99902 C 580.83008,169.51611 585,200.521 585,232.5 C 585,405.60547 462.82617,550.17188 300,584.67676 C 137.17432,550.17188 15,405.60547 15,232.5 z " />
	</g><g
   style="fill:#af1e2d;fill-opacity:1;stroke:none;stroke-opacity:1"
   transform="matrix(1.0125461,0,0,1.0271486,-3.7638021,-3.1017482)"
   id="g1610">
		<path
   id="path1612"
   style="fill:#af1e2d;fill-opacity:1;stroke:none;stroke-opacity:1"
   d="M 31.324219,124.99902 C 43.579102,85.77832 62.362793,49.44043 86.402832,17.259766 C 119.50439,26.392578 154.37061,31.272461 190.37695,31.272461 C 228.4375,31.272461 265.22461,25.820801 300,15.654785 C 334.77539,25.820801 371.5625,31.272461 409.62305,31.272461 C 445.62891,31.272461 480.49609,26.392578 513.59766,17.259766 C 537.63672,49.44043 556.4209,85.77832 568.67578,124.99902 L 31.324219,124.99902 L 31.324219,124.99902 z " />
	</g>




<path
   style="font-size:373.12530518px;font-style:normal;font-variant:normal;font-weight:normal;font-stretch:normal;text-align:center;line-height:125%;writing-mode:lr-tb;text-anchor:middle;fill:#ffffff;fill-opacity:1;font-family:Roadgeek 2005 Series D"
   d="M 271.10307,358.0636 C 271.10288,370.72762 268.99225,382.39872 264.77116,393.07699 C 260.54971,403.75536 254.65167,412.88193 247.07705,420.45678 C 239.50208,428.03166 230.43809,433.99226 219.88506,438.33861 C 209.33174,442.68497 197.72325,444.85814 185.05954,444.85814 C 174.87382,444.85814 165.37406,443.24389 156.56025,440.01538 C 147.74629,436.78689 139.67509,432.31738 132.34665,426.60686 C 125.01811,420.89636 118.74684,413.94295 113.5328,405.7466 C 108.31869,397.55034 104.46879,388.36312 101.98303,378.18494 L 140.72479,367.01021 C 143.71069,379.17401 149.17674,388.48438 157.12296,394.94134 C 165.06903,401.3984 175.00266,404.6269 186.92387,404.62686 C 193.62324,404.6269 199.70505,403.50905 205.16933,401.27331 C 210.63337,399.03765 215.2904,395.99671 219.14047,392.1505 C 222.99025,388.30438 226.03305,383.71173 228.26888,378.3725 C 230.50441,373.03341 231.62227,367.13532 231.62242,360.67824 C 231.62227,354.22132 230.37936,348.13566 227.89374,342.42126 C 225.40781,336.70705 221.93304,332.23566 217.4694,329.00704 C 215.97627,328.01435 214.67086,327.20722 213.55315,326.58567 C 212.43518,325.96433 211.06914,325.53046 209.45502,325.28404 C 207.84067,325.03784 205.73002,324.78963 203.12313,324.53942 C 200.51596,324.28944 196.85172,324.04314 192.13036,323.8005 L 187.66278,323.8005 L 187.66278,283.56922 L 187.66278,284.68329 L 188.77685,284.68329 L 189.52712,284.68329 L 197.34823,284.68329 C 205.29805,284.68344 211.38365,282.57279 215.60505,278.35131 C 219.82619,274.13016 221.93682,268.04453 221.93696,260.09433 C 221.93682,250.409 218.52268,242.40027 211.6945,236.0681 C 204.86607,229.73635 196.35911,226.57038 186.1736,226.57016 C 169.53851,226.57038 156.99594,234.76668 148.54589,251.15909 L 111.66847,237.36974 C 118.12539,221.47752 127.87334,208.99928 140.91236,199.93498 C 153.95125,190.87115 168.66696,186.33912 185.05954,186.33886 C 195.48756,186.33912 205.35868,188.32662 214.67289,192.30138 C 223.98683,196.27663 232.12055,201.74083 239.07406,208.694 C 246.02726,215.64765 251.48951,223.77953 255.46086,233.0897 C 259.43186,242.40027 261.41746,252.27335 261.41764,262.70898 C 261.41746,270.15896 260.42466,276.86416 258.43925,282.82462 C 256.45348,288.78537 252.72861,295.73688 247.26462,303.67919 C 251.9859,307.90061 255.83583,311.93625 258.81438,315.78608 C 261.7926,319.63616 264.21395,323.67179 266.07846,327.89299 C 267.94261,332.11441 269.24614,336.64643 269.98902,341.48909 C 270.73153,346.33193 271.10288,351.85677 271.10307,358.0636 L 271.10307,358.0636 z M 498.01745,315.96797 C 498.01725,335.8393 495.65842,354.83898 490.94095,372.96703 C 486.22309,391.09522 479.51793,405.74853 470.82548,416.92701 C 456.9186,435.54777 436.80504,444.85814 410.48473,444.85814 C 392.84926,444.85814 378.32112,441.25829 366.90026,434.05857 C 355.47926,426.85886 346.04392,415.5591 338.59422,400.15924 C 333.38012,389.48097 329.15885,376.50633 325.9304,361.23528 C 322.70188,345.96437 321.08765,330.87529 321.08767,315.96797 C 321.08765,295.36175 323.50901,276.24272 328.35176,258.61082 C 333.19444,240.97927 339.83707,226.20281 348.27966,214.28136 C 355.72936,204.84618 364.60767,197.83025 374.91461,193.23354 C 385.22142,188.63735 397.57451,186.33912 411.97393,186.33886 C 427.8661,186.33912 441.39956,189.94089 452.57434,197.14414 C 463.7488,204.34788 473.31108,215.64575 481.2612,231.03777 C 486.47507,242.21649 490.5713,255.25555 493.54988,270.155 C 496.52806,285.05479 498.01725,300.32576 498.01745,315.96797 L 498.01745,315.96797 z M 458.53679,315.96797 C 458.53663,301.81876 457.29564,288.72096 454.8138,276.67454 C 452.33166,264.62844 448.6049,254.38401 443.63349,245.9412 C 439.66217,239.4844 435.13207,234.76668 430.04318,231.78806 C 424.95403,228.80986 418.68465,227.07056 411.23501,226.57016 C 401.54947,226.07777 393.47827,228.31346 387.02141,233.27727 C 380.56437,238.24149 375.22526,246.31275 371.00407,257.49107 C 367.77551,264.94106 365.35416,273.9426 363.73999,284.4957 C 362.12569,295.04913 361.31857,305.53987 361.31863,315.96797 C 361.31857,329.38229 362.55956,342.29821 365.04161,354.71574 C 367.52352,367.13343 371.24651,377.31346 376.21057,385.25582 C 380.18923,391.71289 384.9088,396.55563 390.36927,399.7841 C 395.82953,403.01263 402.53469,404.6269 410.48473,404.62686 C 419.66986,404.6269 427.30529,402.14489 433.39104,397.18084 C 439.47649,392.21686 444.62993,384.14561 448.85136,372.96703 C 450.09409,369.7386 451.33697,365.82801 452.58002,361.23528 C 453.82275,356.64269 454.87807,351.79994 455.74598,346.70699 C 456.61357,341.61424 457.29564,336.46076 457.79219,331.24653 C 458.28843,326.03254 458.53663,320.93968 458.53679,315.96797 L 458.53679,315.96797 z "
   id="text5085" />
<path
   style="font-size:93.21589661px;font-style:normal;font-variant:normal;font-weight:normal;font-stretch:normal;text-align:center;line-height:125%;writing-mode:lr-tb;text-anchor:middle;fill:#ffffff;fill-opacity:1;font-family:Roadgeek 2005 Series C"
   d="M 108.86859,112.81165 L 108.86859,50.416161 L 117.60967,50.416161 L 117.60967,112.81165 L 108.86859,112.81165 z M 159.56965,112.81165 L 140.31942,70.997717 L 140.31942,112.81165 L 131.39104,112.81165 L 131.39104,50.416161 L 140.31942,50.416161 L 157.42977,87.853449 L 157.42977,50.416161 L 166.35816,50.416161 L 166.35816,112.81165 L 159.56965,112.81165 z M 195.41654,58.706192 L 195.41654,112.81165 L 186.39735,112.81165 L 186.39735,58.706192 L 175.05098,58.706192 L 175.05098,50.416161 L 206.7629,50.416161 L 206.7629,58.706192 L 195.41654,58.706192 z M 215.30532,112.81165 L 215.30532,50.416161 L 244.59927,50.416161 L 244.59927,59.172274 L 224.2337,59.172274 L 224.2337,74.908269 L 237.16084,74.908269 L 237.16084,83.476813 L 224.2337,83.476813 L 224.2337,104.05837 L 247.01726,104.05837 L 247.01726,112.81165 L 215.30532,112.81165 z M 283.20473,112.81165 L 274.92624,83.476813 L 266.37247,83.476813 L 266.37247,112.81165 L 257.4441,112.81165 L 257.4441,50.416161 L 276.04442,50.416161 C 278.46238,50.416224 280.67885,50.819784 282.69389,51.62684 C 284.70884,52.434021 286.44475,53.551862 287.90163,54.980368 C 289.35844,56.408988 290.47425,58.162956 291.24907,60.242277 C 292.02379,62.321703 292.41119,64.60333 292.41123,67.087165 C 292.41119,70.812085 291.66716,73.978511 290.17914,76.586455 C 288.69102,79.19447 286.45894,81.056433 283.48285,82.172347 L 292.41123,112.81165 L 283.20473,112.81165 z M 283.67015,67.087165 C 283.67012,64.665853 282.92609,62.741367 281.43805,61.313699 C 279.94996,59.886136 277.99694,59.172328 275.579,59.172274 L 266.37247,59.172274 L 266.37247,74.908269 L 275.579,74.908269 C 278.18236,74.908307 280.18173,74.240918 281.57712,72.906101 C 282.97244,71.571363 283.67012,69.631721 283.67015,67.087165 L 283.67015,67.087165 z M 334.56419,95.768339 C 334.56416,98.31476 334.11481,100.6897 333.21614,102.89316 C 332.31739,105.09665 331.07766,107.00549 329.49693,108.61973 C 327.91613,110.23398 326.08704,111.52233 324.00964,112.48482 C 321.93219,113.4473 319.68449,113.92853 317.26652,113.92853 C 314.53824,113.92853 312.08951,113.40088 309.92033,112.34556 C 307.75114,111.29024 305.92252,109.86263 304.43447,108.0627 C 302.9464,106.26279 301.79937,104.18295 300.99337,101.82315 C 300.18737,99.463388 299.78437,97.011244 299.78438,94.466716 L 308.52546,94.466716 C 308.52544,95.770251 308.69573,97.058136 309.0363,98.330376 C 309.37684,99.602646 309.90376,100.75127 310.61707,101.77627 C 311.33035,102.80129 312.22952,103.62404 313.3146,104.24452 C 314.39964,104.86503 315.71694,105.17527 317.26652,105.17526 C 318.44523,105.17527 319.57711,104.92707 320.66221,104.43067 C 321.74724,103.93429 322.67716,103.25127 323.45197,102.38161 C 324.22672,101.51197 324.84634,100.50307 325.31087,99.354907 C 325.77533,98.206766 326.00757,97.011244 326.0076,95.768339 C 326.00757,93.968443 325.63579,92.37031 324.89226,90.973934 C 324.14867,89.577602 322.84697,88.165144 320.98716,86.736554 C 320.67685,86.425859 320.55292,86.254867 320.61538,86.223579 C 320.6778,86.192343 320.49191,86.021825 320.05771,85.712023 C 319.62347,85.402277 318.70868,84.796937 317.31335,83.896004 C 315.91798,82.995129 313.63953,81.459044 310.478,79.287747 C 307.93703,77.548497 306.03083,75.514594 304.75942,73.186035 C 303.48797,70.857556 302.85226,68.296942 302.85226,65.504186 C 302.85226,63.268552 303.25526,61.173074 304.06128,59.217745 C 304.86725,57.262525 305.99866,55.539819 307.45551,54.049621 C 308.91235,52.559541 310.60192,51.395283 312.52421,50.556838 C 314.44647,49.718521 316.52295,49.29933 318.75365,49.299267 C 320.98618,49.29933 323.04799,49.70289 324.93908,50.509945 C 326.83013,51.317127 328.47286,52.434967 329.86729,53.863473 C 331.26166,55.292095 332.37747,56.999643 333.21474,58.986126 C 334.0519,60.972715 334.50173,63.1454 334.56419,65.504186 L 326.0076,65.504186 C 325.88459,63.331075 325.14102,61.592738 323.77692,60.289169 C 322.41275,58.985706 320.73833,58.333948 318.75365,58.333894 C 316.70836,58.333948 314.97291,59.016967 313.54731,60.382954 C 312.12167,61.749046 311.40886,63.456122 311.40887,65.504186 C 311.40886,67.055948 311.81186,68.359465 312.61787,69.41474 C 313.42384,70.4701 314.97339,71.649518 317.26652,72.952995 C 323.28119,76.429707 327.6678,79.968432 330.42638,83.569177 C 333.1849,87.16998 334.56416,91.236364 334.56419,95.768339 L 334.56419,95.768339 z M 360.52064,58.706192 L 360.52064,112.81165 L 351.50144,112.81165 L 351.50144,58.706192 L 340.15508,58.706192 L 340.15508,50.416161 L 371.867,50.416161 L 371.867,58.706192 L 360.52064,58.706192 z M 406.44816,112.81165 L 402.07763,95.768339 L 388.68506,95.768339 L 384.59548,112.81165 L 375.57345,112.81165 L 391.10305,50.416161 L 399.84695,50.416161 L 415.37654,112.81165 L 406.44816,112.81165 z M 395.2891,69.042441 L 390.91856,87.015068 L 399.84695,87.015068 L 395.2891,69.042441 z M 439.53084,58.706192 L 439.53084,112.81165 L 430.51165,112.81165 L 430.51165,58.706192 L 419.16529,58.706192 L 419.16529,50.416161 L 450.87721,50.416161 L 450.87721,58.706192 L 439.53084,58.706192 z M 459.41964,112.81165 L 459.41964,50.416161 L 488.71358,50.416161 L 488.71358,59.172274 L 468.34802,59.172274 L 468.34802,74.908269 L 481.27515,74.908269 L 481.27515,83.476813 L 468.34802,83.476813 L 468.34802,104.05837 L 491.13157,104.05837 L 491.13157,112.81165 L 459.41964,112.81165 z "
   id="text6060" />
</svg>