<?xml version="1.0" encoding="UTF-8" standalone="no"?>
<!-- Created with Inkscape (http://www.inkscape.org/) -->
<svg
   xmlns:dc="http://purl.org/dc/elements/1.1/"
   xmlns:cc="http://web.resource.org/cc/"
   xmlns:rdf="http://www.w3.org/1999/02/22-rdf-syntax-ns#"
   xmlns:svg="http://www.w3.org/2000/svg"
   xmlns="http://www.w3.org/2000/svg"
   xmlns:sodipodi="http://sodipodi.sourceforge.net/DTD/sodipodi-0.dtd"
   xmlns:inkscape="http://www.inkscape.org/namespaces/inkscape"
   version="1.0"
   width="751"
   height="601"
   viewBox="0 0 750 599.99902"
   id="Layer_1"
   xml:space="preserve"
   sodipodi:version="0.32"
   inkscape:version="0.45"
   sodipodi:docname="I-330.svg"
   sodipodi:docbase="C:\Documents and Settings\ltljltlj\Desktop\Signs\Interstate Shields"
   inkscape:output_extension="org.inkscape.output.svg.inkscape"
   sodipodi:modified="true"><metadata
   id="metadata36"><rdf:RDF><cc:Work
       rdf:about=""><dc:format>image/svg+xml</dc:format><dc:type
         rdf:resource="http://purl.org/dc/dcmitype/StillImage" /></cc:Work></rdf:RDF></metadata><sodipodi:namedview
   inkscape:window-height="965"
   inkscape:window-width="1047"
   inkscape:pageshadow="2"
   inkscape:pageopacity="0.0"
   guidetolerance="10.0"
   gridtolerance="10.0"
   objecttolerance="10.0"
   borderopacity="1.0"
   bordercolor="#666666"
   pagecolor="#ffffff"
   id="base"
   width="751px"
   height="601px"
   inkscape:zoom="1.2816667"
   inkscape:cx="374.99999"
   inkscape:cy="299.99999"
   inkscape:window-x="-6"
   inkscape:window-y="-3"
   inkscape:current-layer="Layer_1" /><defs
   id="defs62">
	
	
	
	
</defs>
<g
   transform="matrix(0.9986685,0,0,0.9986701,0.4993342,0.3989715)"
   id="g5"
   style="fill:#ffffff;fill-opacity:1;stroke:#000000;stroke-width:0.99999899;stroke-miterlimit:4;stroke-dasharray:none;stroke-opacity:1">
		<path
   id="path7"
   style="fill:#ffffff;fill-opacity:1;stroke:#000000;stroke-width:0.99999899;stroke-miterlimit:4;stroke-dasharray:none;stroke-opacity:1"
   d="M 38.915039,0 C 92.236328,15.525391 148.625,23.849609 206.95801,23.849609 C 265.29053,23.849609 321.6792,15.525391 375,0.0004883 C 428.32031,15.525391 484.70898,23.849609 543.04199,23.849609 C 601.375,23.849609 657.76367,15.525391 711.08398,0 C 736.06445,54.121094 750,114.3877 750,177.90918 C 750,395.71777 586.16016,575.25391 375,599.99902 C 163.83887,575.25391 0,395.71777 0,177.90918 C 0,114.3877 13.935059,54.121094 38.915039,0 z " />
		
			<path
   id="path9"
   style="fill:#ffffff;fill-opacity:1;stroke:#000000;stroke-width:0.99999899;stroke-linecap:round;stroke-linejoin:round;stroke-miterlimit:4;stroke-dasharray:none;stroke-opacity:1"
   d="M 38.915039,0 C 92.236328,15.525391 148.625,23.849609 206.95801,23.849609 C 265.29053,23.849609 321.6792,15.525391 375,0.0004883 C 428.32031,15.525391 484.70898,23.849609 543.04199,23.849609 C 601.375,23.849609 657.76367,15.525391 711.08398,0 C 736.06445,54.121094 750,114.3877 750,177.90918 C 750,395.71777 586.16016,575.25391 375,599.99902 C 163.83887,575.25391 0,395.71777 0,177.90918 C 0,114.3877 13.935059,54.121094 38.915039,0 z " />
	</g><g
   transform="matrix(1.0056032,0,0,1.0101352,-2.1013652,-3.7018951)"
   id="g11"
   style="fill:#003f87;fill-opacity:1">
		<path
   id="path13"
   style="fill:#003f87;fill-opacity:1"
   d="M 15,177.90918 C 15,165.12744 15.584961,152.48242 16.729004,139.99902 L 733.27051,139.99902 C 734.41504,152.48242 735,165.12744 735,177.90918 C 735,387.42285 577.85547,560.22852 375,584.89062 C 172.14453,560.22852 15,387.42285 15,177.90918 z " />
	</g><g
   transform="matrix(1.00604,0,0,1.0270827,-2.2645005,-3.1522955)"
   id="g15"
   style="fill:#af1e2d;fill-opacity:1">
		<path
   id="path17"
   style="fill:#af1e2d;fill-opacity:1"
   d="M 47.37793,17.942871 C 98.270019,31.578125 151.76562,38.849121 206.95996,38.849121 C 265.2207,38.849121 321.58936,30.748047 375,15.611328 C 428.41113,30.748047 484.7793,38.849121 543.04004,38.849121 C 598.23438,38.849121 651.73047,31.578613 702.62109,17.942871 C 716.88281,51.567383 726.78516,87.489258 731.61719,124.99902 L 18.381836,124.99902 C 23.214844,87.489258 33.116211,51.567383 47.37793,17.942871 z " />
	</g>



<path
   style="font-size:93.28099823px;font-style:normal;font-variant:normal;font-weight:normal;font-stretch:normal;text-align:center;line-height:125%;writing-mode:lr-tb;text-anchor:middle;fill:#ffffff;fill-opacity:1;font-family:Roadgeek 2005 Series C"
   d="M 183.53777,112.74918 L 183.53777,50.332876 L 192.29397,50.332876 L 192.29397,112.74918 L 183.53777,112.74918 z M 234.32652,112.74918 L 215.04301,70.921299 L 215.04301,112.74918 L 206.09918,112.74918 L 206.09918,50.332876 L 215.04301,50.332876 L 232.18297,87.782657 L 232.18297,50.332876 L 241.1268,50.332876 L 241.1268,112.74918 L 234.32652,112.74918 z M 270.23545,58.625673 L 270.23545,112.74918 L 261.20065,112.74918 L 261.20065,58.625673 L 249.83466,58.625673 L 249.83466,50.332876 L 281.60144,50.332876 L 281.60144,58.625673 L 270.23545,58.625673 z M 290.15862,112.74918 L 290.15862,50.332876 L 319.50325,50.332876 L 319.50325,59.09191 L 299.10244,59.09191 L 299.10244,74.833157 L 312.05195,74.833157 L 312.05195,83.404561 L 299.10244,83.404561 L 299.10244,103.99298 L 321.9254,103.99298 L 321.9254,112.74918 L 290.15862,112.74918 z M 358.17549,112.74918 L 349.88269,83.404561 L 341.31412,83.404561 L 341.31412,112.74918 L 332.3703,112.74918 L 332.3703,50.332876 L 351.0028,50.332876 C 353.42494,50.332938 355.64525,50.736632 357.66375,51.543959 C 359.6822,52.351409 361.42112,53.469623 362.88052,54.898605 C 364.33984,56.327702 365.45758,58.082256 366.23374,60.16227 C 367.00981,62.24239 367.39787,64.524779 367.39791,67.009442 C 367.39787,70.735604 366.65256,73.903088 365.16196,76.511902 C 363.67129,79.120788 361.43533,80.983372 358.4541,82.099661 L 367.39791,112.74918 L 358.17549,112.74918 z M 358.64173,67.009442 C 358.6417,64.587322 357.89637,62.662194 356.40576,61.234051 C 354.9151,59.806011 352.9587,59.091964 350.53656,59.09191 L 341.31412,59.09191 L 341.31412,74.833157 L 350.53656,74.833157 C 353.14444,74.833195 355.14727,74.165584 356.54506,72.830321 C 357.9428,71.495138 358.6417,69.554847 358.64173,67.009442 L 358.64173,67.009442 z M 409.6238,95.700188 C 409.62376,98.247459 409.17363,100.62319 408.27342,102.82739 C 407.37312,105.03161 406.13124,106.94111 404.54777,108.55587 C 402.96423,110.17066 401.13196,111.45945 399.05098,112.42224 C 396.96994,113.38505 394.71835,113.86645 392.29621,113.86645 C 389.56319,113.86645 387.11023,113.33861 384.93731,112.28294 C 382.76436,111.22727 380.93257,109.79918 379.44194,107.99867 C 377.9513,106.19815 376.80229,104.11761 375.9949,101.75704 C 375.18751,99.396471 374.78382,96.943507 374.78382,94.398132 L 383.54002,94.398132 C 383.54001,95.702101 383.71058,96.990416 384.05174,98.26308 C 384.39288,99.535774 384.92071,100.68479 385.63525,101.71013 C 386.34975,102.73548 387.25049,103.5585 388.33744,104.17919 C 389.42436,104.7999 390.74394,105.11026 392.29621,105.11025 C 393.47695,105.11026 394.61079,104.86198 395.69776,104.3654 C 396.78467,103.86886 397.7162,103.18561 398.49235,102.31567 C 399.26844,101.44574 399.88914,100.4365 400.35446,99.287953 C 400.81972,98.139428 401.05236,96.943507 401.05239,95.700188 C 401.05236,93.899691 400.67995,92.301024 399.93513,90.904183 C 399.19025,89.507385 397.8863,88.094455 396.02327,86.665389 C 395.71243,86.35459 395.58828,86.18354 395.65086,86.152242 C 395.71337,86.120997 395.52716,85.950421 395.09222,85.640517 C 394.65723,85.330665 393.74087,84.725124 392.34312,83.823891 C 390.94533,82.922716 388.66293,81.386119 385.49595,79.214097 C 382.95057,77.474265 381.04108,75.439684 379.76746,73.110348 C 378.49382,70.781091 377.85701,68.219622 377.85702,65.425936 C 377.85701,63.189556 378.2607,61.093379 379.0681,59.137398 C 379.87548,57.181525 381.00886,55.458243 382.46824,53.967548 C 383.92759,52.476971 385.62007,51.312324 387.54568,50.473601 C 389.47127,49.635002 391.55134,49.215671 393.7859,49.215607 C 396.0223,49.215671 398.08768,49.619366 399.98204,50.426692 C 401.87634,51.234143 403.52192,52.352357 404.91877,53.781337 C 406.31556,55.210436 407.4333,56.918555 408.272,58.9057 C 409.11062,60.892952 409.56122,63.066363 409.6238,65.425936 L 401.05239,65.425936 C 400.92917,63.2521 400.18433,61.513183 398.81786,60.209179 C 397.45135,58.90528 395.77402,58.253304 393.7859,58.25325 C 391.73707,58.253304 389.99863,58.936552 388.57055,60.302995 C 387.14245,61.669543 386.4284,63.377188 386.42842,65.425936 C 386.4284,66.978216 386.83209,68.282167 387.63951,69.337794 C 388.44687,70.393507 389.99911,71.573317 392.29621,72.877229 C 398.32127,76.355103 402.71547,79.895009 405.47882,83.496955 C 408.24211,87.09896 409.62376,91.166701 409.6238,95.700188 L 409.6238,95.700188 z M 435.62513,58.625673 L 435.62513,112.74918 L 426.59034,112.74918 L 426.59034,58.625673 L 415.22435,58.625673 L 415.22435,50.332876 L 446.99113,50.332876 L 446.99113,58.625673 L 435.62513,58.625673 z M 481.6321,112.74918 L 477.25401,95.700188 L 463.83827,95.700188 L 459.74164,112.74918 L 450.70398,112.74918 L 466.26044,50.332876 L 475.01948,50.332876 L 490.57593,112.74918 L 481.6321,112.74918 z M 470.45374,68.965371 L 466.07565,86.943996 L 475.01948,86.943996 L 470.45374,68.965371 z M 514.77201,58.625673 L 514.77201,112.74918 L 505.73722,112.74918 L 505.73722,58.625673 L 494.37123,58.625673 L 494.37123,50.332876 L 526.13801,50.332876 L 526.13801,58.625673 L 514.77201,58.625673 z M 534.6952,112.74918 L 534.6952,50.332876 L 564.03982,50.332876 L 564.03982,59.09191 L 543.63903,59.09191 L 543.63903,74.833157 L 556.58852,74.833157 L 556.58852,83.404561 L 543.63903,83.404561 L 543.63903,103.99298 L 566.46199,103.99298 L 566.46199,112.74918 L 534.6952,112.74918 z "
   id="text7023" />

<path
   style="font-size:373.12701416px;font-style:normal;font-variant:normal;font-weight:normal;font-stretch:normal;text-align:center;line-height:125%;writing-mode:lr-tb;text-anchor:middle;fill:#ffffff;fill-opacity:1;font-family:Roadgeek 2005 Series C"
   d="M 275.83258,372.99109 C 275.83242,383.17267 274.09255,392.67378 270.61295,401.49444 C 267.13303,410.31516 262.35121,417.95509 256.26745,424.41424 C 250.18342,430.87342 242.85622,435.90352 234.28581,439.50458 C 225.71519,443.10564 216.46048,444.90617 206.52164,444.90617 C 196.34004,444.90617 187.08722,443.16819 178.76315,439.69221 C 170.43897,436.21624 163.23495,431.37188 157.1511,425.15909 C 151.06718,418.94633 146.22281,411.55469 142.61797,402.98413 C 139.01311,394.41365 136.9643,385.03764 136.47154,374.85606 L 171.49659,374.85606 C 172.48967,385.03764 176.15327,393.42052 182.4874,400.00473 C 188.82141,406.58903 196.83281,409.88114 206.52164,409.88111 C 216.71065,409.88114 225.09544,406.34074 231.676,399.25988 C 238.25635,392.17911 241.54658,383.42285 241.5467,372.99109 C 241.54658,366.28181 240.67852,360.0084 238.94256,354.17081 C 237.20636,348.33339 234.84672,343.24074 231.86363,338.89283 C 228.88033,334.54513 225.46312,331.12981 221.61197,328.64687 C 217.76064,326.16415 213.59859,324.92273 209.12577,324.92261 L 191.61325,324.92261 L 191.61325,290.63672 L 206.52164,290.63672 C 210.99444,290.63687 214.41166,289.89203 216.77329,288.40218 C 219.13473,286.91263 221.8052,284.42789 224.78471,280.94798 C 231.98671,273.00306 235.58778,263.68959 235.58789,253.00754 C 235.58778,243.31898 232.9173,235.61651 227.57648,229.90009 C 222.23543,224.18411 215.21717,221.326 206.52164,221.32578 C 198.57649,221.326 192.30497,223.62499 187.70704,228.22276 C 183.109,232.82096 180.31345,239.34266 179.32037,247.78789 L 144.29531,243.31878 C 145.28843,235.11616 147.52297,227.47623 150.99897,220.39898 C 154.47491,213.32217 158.9459,207.29894 164.41197,202.32924 C 169.87796,197.36002 176.21391,193.44623 183.41989,190.58789 C 190.62574,187.73003 198.3263,186.30098 206.52164,186.30072 C 215.46734,186.30098 223.78958,187.91577 231.48836,191.14511 C 239.18693,194.37493 245.83184,198.90848 251.42308,204.74574 C 257.01407,210.58348 261.42441,217.41601 264.65413,225.24336 C 267.88357,233.07114 269.49836,241.45401 269.49851,250.39203 C 269.49836,260.8315 267.82102,270.52213 264.4665,279.46396 C 261.11168,288.40612 255.21163,297.72148 246.76634,307.41009 C 256.45495,316.10583 263.7215,326.04285 268.56603,337.22118 C 273.41024,348.39972 275.83242,360.32302 275.83258,372.99109 L 275.83258,372.99109 z M 444.68063,372.99109 C 444.68048,383.17267 442.9406,392.67378 439.46099,401.49444 C 435.98108,410.31516 431.19926,417.95509 425.11549,424.41424 C 419.03147,430.87342 411.70427,435.90352 403.13387,439.50458 C 394.56324,443.10564 385.30853,444.90617 375.36969,444.90617 C 365.18809,444.90617 355.93527,443.16819 347.6112,439.69221 C 339.28702,436.21624 332.083,431.37188 325.99916,425.15909 C 319.91523,418.94633 315.07086,411.55469 311.46603,402.98413 C 307.86116,394.41365 305.81235,385.03764 305.31959,374.85606 L 340.34464,374.85606 C 341.33772,385.03764 345.00132,393.42052 351.33545,400.00473 C 357.66946,406.58903 365.68086,409.88114 375.36969,409.88111 C 385.5587,409.88114 393.94349,406.34074 400.52405,399.25988 C 407.1044,392.17911 410.39463,383.42285 410.39475,372.99109 C 410.39463,366.28181 409.52658,360.0084 407.79061,354.17081 C 406.05441,348.33339 403.69476,343.24074 400.71168,338.89283 C 397.72838,334.54513 394.31116,331.12981 390.46002,328.64687 C 386.60869,326.16415 382.44663,324.92273 377.97382,324.92261 L 360.46131,324.92261 L 360.46131,290.63672 L 375.36969,290.63672 C 379.8425,290.63687 383.25972,289.89203 385.62134,288.40218 C 387.98278,286.91263 390.65325,284.42789 393.63276,280.94798 C 400.83476,273.00306 404.43583,263.68959 404.43594,253.00754 C 404.43583,243.31898 401.76535,235.61651 396.42453,229.90009 C 391.08348,224.18411 384.06522,221.326 375.36969,221.32578 C 367.42454,221.326 361.15302,223.62499 356.55509,228.22276 C 351.95705,232.82096 349.16149,239.34266 348.16842,247.78789 L 313.14337,243.31878 C 314.13648,235.11616 316.37102,227.47623 319.84703,220.39898 C 323.32296,213.32217 327.79396,207.29894 333.26002,202.32924 C 338.72601,197.36002 345.06197,193.44623 352.26794,190.58789 C 359.47379,187.73003 367.17435,186.30098 375.36969,186.30072 C 384.31539,186.30098 392.63763,187.91577 400.33642,191.14511 C 408.03498,194.37493 414.67989,198.90848 420.27113,204.74574 C 425.86212,210.58348 430.27246,217.41601 433.50218,225.24336 C 436.73162,233.07114 438.34641,241.45401 438.34656,250.39203 C 438.34641,260.8315 436.66907,270.52213 433.31455,279.46396 C 429.95974,288.40612 424.05968,297.72148 415.61439,307.41009 C 425.30299,316.10583 432.56955,326.04285 437.41408,337.22118 C 442.25829,348.39972 444.68048,360.32302 444.68063,372.99109 L 444.68063,372.99109 z M 613.52868,352.87443 C 613.52853,366.03543 611.54036,378.20511 607.56419,389.3835 C 603.58771,400.56199 598.1217,410.25073 591.1661,418.44974 C 584.21025,426.64881 576.01309,433.10797 566.57465,437.82724 C 557.13597,442.54653 546.82558,444.90617 535.64343,444.90617 C 524.4687,444.90617 513.72618,443.04309 503.41582,439.31694 C 493.10538,435.5908 483.35601,430.12667 474.16764,422.92454 L 497.63897,397.58824 C 503.84791,401.81098 509.56222,404.91548 514.78191,406.90171 C 520.0015,408.88801 525.7158,409.88114 531.92486,409.88111 C 538.62655,409.88114 544.83552,408.45209 550.55183,405.59396 C 556.26793,402.73589 561.17485,398.69892 565.27257,393.48302 C 569.37009,388.26723 572.59968,382.05824 574.96133,374.85606 C 577.32275,367.65402 578.50351,359.70516 578.50363,351.00946 C 578.50351,337.34069 575.39713,326.65693 569.18446,318.95812 C 562.97158,311.25955 554.64935,307.41022 544.21775,307.41009 C 533.2856,307.41022 523.35048,311.50784 514.41232,319.70297 L 480.12644,315.23387 L 486.46052,190.76984 L 603.83993,190.76984 L 603.83993,225.80626 L 519.6206,225.80626 L 517.01647,278.34385 C 523.22538,276.10755 528.2555,274.67851 532.1068,274.05668 C 535.95797,273.4352 540.24513,273.12436 544.96827,273.1242 C 555.14971,273.12436 564.46318,275.04998 572.90873,278.90106 C 581.35403,282.75245 588.55804,288.21848 594.52077,295.29914 C 600.48323,302.38011 605.14185,310.76488 608.49667,320.45351 C 611.8512,330.14237 613.52853,340.94934 613.52868,352.87443 L 613.52868,352.87443 z "
   id="text7029" />

</svg>