<?xml version="1.0" encoding="UTF-8" standalone="no"?>
<!-- Generator: Adobe Illustrator 12.0.0, SVG Export Plug-In . SVG Version: 6.00 Build 51448)  -->
<svg
   xmlns:dc="http://purl.org/dc/elements/1.1/"
   xmlns:cc="http://creativecommons.org/ns#"
   xmlns:rdf="http://www.w3.org/1999/02/22-rdf-syntax-ns#"
   xmlns:svg="http://www.w3.org/2000/svg"
   xmlns="http://www.w3.org/2000/svg"
   xmlns:sodipodi="http://sodipodi.sourceforge.net/DTD/sodipodi-0.dtd"
   xmlns:inkscape="http://www.inkscape.org/namespaces/inkscape"
   version="1.1"
   id="Layer_1"
   width="480.1181641"
   height="401"
   viewBox="0 0 480.118 401"
   overflow="visible"
   enable-background="new 0 0 480.1181641 401"
   xml:space="preserve"
   sodipodi:version="0.32"
   inkscape:version="0.46"
   sodipodi:docname="I-380_(CA).svg"
   inkscape:output_extension="org.inkscape.output.svg.inkscape"><metadata
   id="metadata114"><rdf:RDF><cc:Work
       rdf:about=""><dc:format>image/svg+xml</dc:format><dc:type
         rdf:resource="http://purl.org/dc/dcmitype/StillImage" /></cc:Work></rdf:RDF></metadata><defs
   id="defs112"><inkscape:perspective
     sodipodi:type="inkscape:persp3d"
     inkscape:vp_x="0 : 200.5 : 1"
     inkscape:vp_y="0 : 1000 : 0"
     inkscape:vp_z="480.11816 : 200.5 : 1"
     inkscape:persp3d-origin="240.05908 : 133.66667 : 1"
     id="perspective116" /></defs><sodipodi:namedview
   inkscape:window-height="744"
   inkscape:window-width="1280"
   inkscape:pageshadow="2"
   inkscape:pageopacity="0.0"
   guidetolerance="10.0"
   gridtolerance="10.0"
   objecttolerance="10.0"
   borderopacity="1.0"
   bordercolor="#666666"
   pagecolor="#ffffff"
   id="base"
   showgrid="false"
   inkscape:zoom="1.1330544"
   inkscape:cx="240.05908"
   inkscape:cy="200.5"
   inkscape:window-x="-4"
   inkscape:window-y="-4"
   inkscape:current-layer="g11" />
<g
   id="g3">
	<g
   id="g5">
		<path
   fill-rule="evenodd"
   clip-rule="evenodd"
   fill="#FFFFFF"
   d="M444.0585938,0.5    c-31.6064453,12.3686523-66.0097656,19.1582031-102,19.1582031c-35.9892578,0-70.3925781-6.7895508-101.9995117-19.1582031    c-31.6064453,12.3686523-66.0102539,19.1582031-102,19.1582031S67.6655273,12.8686523,36.059082,0.5    C13.4384766,39.8037109,0.5,85.3867188,0.5,133.9912109C0.5,272.3984375,105.4160156,386.2978516,240.059082,400.5    c134.6430664-14.2021484,239.559082-128.1015625,239.559082-266.5087891    C479.6181641,85.3867188,466.6796875,39.8037109,444.0585938,0.5z"
   id="path7" />
		
			<path
   fill-rule="evenodd"
   clip-rule="evenodd"
   fill="none"
   stroke="#000000"
   stroke-linecap="round"
   stroke-linejoin="round"
   stroke-miterlimit="3.863693"
   d="    M444.0585938,0.5c-31.6064453,12.3686523-66.0097656,19.1582031-102,19.1582031    c-35.9892578,0-70.3925781-6.7895508-101.9995117-19.1582031c-31.6064453,12.3686523-66.0102539,19.1582031-102,19.1582031    S67.6655273,12.8686523,36.059082,0.5C13.4384766,39.8037109,0.5,85.3867188,0.5,133.9912109    C0.5,272.3984375,105.4160156,386.2978516,240.059082,400.5    c134.6430664-14.2021484,239.559082-128.1015625,239.559082-266.5087891    C479.6181641,85.3867188,466.6796875,39.8037109,444.0585938,0.5z"
   id="path9"
   style="fill-rule:nonzero;fill:#ffffff;fill-opacity:1;stroke-linecap:butt;stroke-linejoin:miter;stroke-width:1;stroke-miterlimit:4;stroke-dasharray:none" />
	</g>
	<g
   id="g11">
		<path
   fill="#003882"
   d="M13.7524414,108.5h452.612793c0.828125,8.3837891,1.2529297,16.8876953,1.2529297,25.4912109    c0,131.7705078-99.5634766,240.2998047-227.559082,254.4384766C112.0629883,374.2910156,12.5,265.7617188,12.5,133.9912109    C12.5,125.3876953,12.9238281,116.8837891,13.7524414,108.5z"
   id="path13"
   style="fill:#003f87;fill-opacity:1" />
	</g>
	<g
   id="g15">
		<path
   fill="#B01C2E"
   d="M464.8945313,96.5H15.2241211c4.2407227-28.9111328,13.3129883-56.2416992,26.3676758-81.1552734    c30.2124023,10.5712891,62.6806641,16.3134766,96.4672852,16.3134766c35.8583984,0,70.2319336-6.46875,102-18.3125    c31.7680664,11.84375,66.1420898,18.3125,101.9995117,18.3125c33.7871094,0,66.2548828-5.7421875,96.4677734-16.3134766    C451.5810547,40.2583008,460.6533203,67.5888672,464.8945313,96.5z"
   id="path17"
   style="fill:#af1e2d;fill-opacity:1" />
	</g>
	<g
   id="g19"
   style="fill:#ffffff;fill-opacity:1">
		<g
   id="g21"
   style="fill:#ffffff;fill-opacity:1">
			<path
   fill-rule="evenodd"
   clip-rule="evenodd"
   fill="#FFFFFF"
   d="M155.5761719,139.3818359     C154.1923828,142.7939453,151.8642578,144.5,148.590332,144.5c-1.7290039,0-3.1586914-0.3339844-4.2880859-1.0029297     c-1.1298828-0.6679688-2.0634766-1.7172852-2.8012695-3.1464844c-0.5302734-1.0375977-0.9453125-2.2480469-1.2451172-3.6313477     c-0.2993164-1.3833008-0.4492188-2.8012695-0.4492188-4.253418c0-1.8447266,0.2304688-3.6083984,0.6914063-5.2910156     c0.4609375-1.6835938,1.0952148-3.043457,1.9023438-4.0810547c0.6914063-0.8525391,1.5273438-1.4980469,2.5068359-1.9365234     c0.9799805-0.4379883,2.1269531-0.6572266,3.440918-0.6572266c1.7524414,0,3.1987305,0.3808594,4.340332,1.1416016     c1.1411133,0.7607422,2.1035156,1.9589844,2.8876953,3.5966797l-3.4238281,1.4521484     c-0.3227539-0.484375-0.6166992-0.8876953-0.8818359-1.2104492s-0.5419922-0.5766602-0.8300781-0.7607422     s-0.5996094-0.3110352-0.9335938-0.3803711c-0.3344727-0.0693359-0.7207031-0.1040039-1.1586914-0.1040039     c-0.9448242,0-1.7348633,0.2192383-2.3686523,0.6572266c-0.6342773,0.4379883-1.1469727,1.1757813-1.5390625,2.2133789     c-0.2998047,0.6914063-0.5244141,1.5097656-0.6743164,2.4550781s-0.2246094,1.9140625-0.2246094,2.9052734     c0,1.2675781,0.1264648,2.484375,0.3803711,3.6479492c0.253418,1.1645508,0.6108398,2.1157227,1.0722656,2.8530273     c0.4145508,0.5996094,0.8989258,1.0488281,1.4521484,1.3491211c0.5532227,0.2993164,1.2333984,0.449707,2.0400391,0.449707     c0.7841797,0,1.4643555-0.2133789,2.0410156-0.6401367c0.5761719-0.4262695,1.0947266-1.1123047,1.5556641-2.0576172     L155.5761719,139.3818359z"
   id="path23"
   style="fill:#ffffff;fill-opacity:1" />
		</g>
		<g
   id="g25"
   style="fill:#ffffff;fill-opacity:1">
			<path
   fill-rule="evenodd"
   clip-rule="evenodd"
   fill="#FFFFFF"
   d="M177.0068359,144.0849609l-2.2822266-6.5009766h-7.2275391     l-2.2822266,6.5009766h-3.9082031l7.9887695-23.1699219h3.6308594l7.9887695,23.1699219H177.0068359z M171.1625977,127.3476563     l-2.3862305,6.5009766h4.6342773L171.1625977,127.3476563z"
   id="path27"
   style="fill:#ffffff;fill-opacity:1" />
		</g>
		<g
   id="g29"
   style="fill:#ffffff;fill-opacity:1">
			<polygon
   fill-rule="evenodd"
   clip-rule="evenodd"
   fill="#FFFFFF"
   points="187.197,144.085 187.197,120.915 190.863,120.915 190.863,140.662 201.583,140.662 201.583,144.085"
   id="polygon31"
   style="fill:#ffffff;fill-opacity:1" />
		</g>
		<g
   id="g33"
   style="fill:#ffffff;fill-opacity:1">
			
				<rect
   x="207.7836914"
   y="120.9150391"
   fill-rule="evenodd"
   clip-rule="evenodd"
   fill="#FFFFFF"
   width="3.7348633"
   height="23.1699219"
   id="rect35"
   style="fill:#ffffff;fill-opacity:1" />
		</g>
		<g
   id="g37"
   style="fill:#ffffff;fill-opacity:1">
			<polygon
   fill-rule="evenodd"
   clip-rule="evenodd"
   fill="#FFFFFF"
   points="223.479,124.581 223.479,130.252 230.222,130.252 230.222,133.987 223.479,133.987 223.479,144.085 219.812,144.085 219.812,120.915 234.199,120.915 234.199,124.581"
   id="polygon39"
   style="fill:#ffffff;fill-opacity:1" />
		</g>
		<g
   id="g41"
   style="fill:#ffffff;fill-opacity:1">
			<path
   fill-rule="evenodd"
   clip-rule="evenodd"
   fill="#FFFFFF"
   d="M256.3417969,132.5351563     c0,1.84375-0.21875,3.6074219-0.6572266,5.2910156c-0.4384766,1.6826172-1.0605469,3.0429688-1.8681641,4.0800781     c-1.2910156,1.7294922-3.1582031,2.59375-5.6015625,2.59375c-1.6367188,0-2.9863281-0.3339844-4.046875-1.0029297     c-1.0605469-0.6679688-1.9355469-1.7172852-2.6269531-3.1464844c-0.484375-0.9916992-0.8769531-2.1962891-1.1762695-3.6142578     c-0.2998047-1.4179688-0.449707-2.8183594-0.449707-4.2011719c0-1.9140625,0.2246094-3.6894531,0.6748047-5.3261719     c0.4492188-1.6367188,1.0654297-3.0087891,1.8496094-4.1152344c0.6914063-0.8759766,1.515625-1.5273438,2.4726563-1.9536133     C245.8691406,120.7133789,247.015625,120.5,248.3535156,120.5c1.4746094,0,2.7314453,0.3344727,3.7695313,1.0029297     c1.0371094,0.6689453,1.9248047,1.7177734,2.6621094,3.1474609c0.484375,1.0371094,0.8652344,2.2475586,1.1416016,3.6308594     S256.3417969,131.0820313,256.3417969,132.5351563z M252.6757813,132.5351563     c0-1.3144531-0.1152344-2.5302734-0.3457031-3.6484375s-0.5761719-2.0693359-1.0371094-2.8535156     c-0.3691406-0.5991211-0.7900391-1.0371094-1.2626953-1.3139648s-1.0546875-0.4379883-1.7470703-0.484375     c-0.8984375-0.0458984-1.6474609,0.1616211-2.2470703,0.6225586s-1.0947266,1.2104492-1.4873047,2.2480469     c-0.2998047,0.6914063-0.5244141,1.5273438-0.6738281,2.5068359c-0.1503906,0.9804688-0.2246094,1.9541016-0.2246094,2.9228516     c0,1.2446289,0.1152344,2.4433594,0.3457031,3.5961914s0.5761719,2.0981445,1.0371094,2.8354492     c0.3691406,0.5996094,0.8066406,1.0488281,1.3144531,1.3491211c0.5068359,0.2993164,1.1289063,0.449707,1.8671875,0.449707     c0.8525391,0,1.5615234-0.2304688,2.1269531-0.6918945c0.5644531-0.4614258,1.0429688-1.2104492,1.4345703-2.2475586     c0.1162109-0.2998047,0.2314453-0.6630859,0.3466797-1.0898438c0.1152344-0.4262695,0.2128906-0.8759766,0.2929688-1.3486328     c0.0810547-0.4726563,0.1445313-0.9511719,0.1904297-1.4350586S252.6757813,132.9960938,252.6757813,132.5351563z"
   id="path43"
   style="fill:#ffffff;fill-opacity:1" />
		</g>
		<g
   id="g45"
   style="fill:#ffffff;fill-opacity:1">
			<path
   fill-rule="evenodd"
   clip-rule="evenodd"
   fill="#FFFFFF"
   d="M276.0419922,144.0849609l-3.7353516-10.0976563h-4.3916016     v10.0976563h-3.6660156v-23.1699219h7.6425781c0.8994141,0,1.671875,0.0517578,2.3173828,0.1557617     s1.2558594,0.2939453,1.8330078,0.5708008c0.5068359,0.2529297,0.9736328,0.5820313,1.4003906,0.9853516     s0.7958984,0.8642578,1.1064453,1.3833008c0.3115234,0.5185547,0.5537109,1.0717773,0.7265625,1.659668     s0.2597656,1.1704102,0.2597656,1.7470703c0,0.6220703-0.0869141,1.2275391-0.2597656,1.8154297     s-0.4150391,1.1411133-0.7265625,1.659668c-0.3105469,0.519043-0.6914063,0.9858398-1.140625,1.4008789     c-0.4501953,0.4150391-0.9394531,0.7373047-1.4707031,0.9677734l4.0810547,10.8242188H276.0419922z M275.8691406,127.4169922     c0-0.484375-0.1269531-0.9453125-0.3808594-1.3837891c-0.2539063-0.4375-0.6113281-0.7836914-1.0722656-1.0371094     c-0.2988281-0.1616211-0.5761719-0.2714844-0.8300781-0.3286133c-0.2529297-0.0576172-0.6796875-0.0864258-1.2792969-0.0864258     h-4.3916016v5.6713867h4.3916016c0.5761719,0,0.9980469-0.0229492,1.2626953-0.0688477     c0.2646484-0.0463867,0.5478516-0.1503906,0.8466797-0.3115234c0.4609375-0.2539063,0.8183594-0.6054688,1.0722656-1.0546875     C275.7421875,128.3676758,275.8691406,127.9008789,275.8691406,127.4169922z"
   id="path47"
   style="fill:#ffffff;fill-opacity:1" />
		</g>
		<g
   id="g49"
   style="fill:#ffffff;fill-opacity:1">
			<polygon
   fill-rule="evenodd"
   clip-rule="evenodd"
   fill="#FFFFFF"
   points="299.207,144.085 290.354,128.385 290.354,144.085 286.688,144.085 286.688,120.915 290.354,120.915 298.791,135.716 298.791,120.915 302.457,120.915 302.457,144.085"
   id="polygon51"
   style="fill:#ffffff;fill-opacity:1" />
		</g>
		<g
   id="g53"
   style="fill:#ffffff;fill-opacity:1">
			
				<rect
   x="310.7148438"
   y="120.9150391"
   fill-rule="evenodd"
   clip-rule="evenodd"
   fill="#FFFFFF"
   width="3.734375"
   height="23.1699219"
   id="rect55"
   style="fill:#ffffff;fill-opacity:1" />
		</g>
		<g
   id="g57"
   style="fill:#ffffff;fill-opacity:1">
			<path
   fill-rule="evenodd"
   clip-rule="evenodd"
   fill="#FFFFFF"
   d="M336.4042969,144.0849609l-2.2832031-6.5009766h-7.2275391     l-2.2822266,6.5009766h-3.9082031l7.9882813-23.1699219h3.6318359l7.9882813,23.1699219H336.4042969z M330.5595703,127.3476563     l-2.3857422,6.5009766h4.6328125L330.5595703,127.3476563z"
   id="path59"
   style="fill:#ffffff;fill-opacity:1" />
		</g>
	</g>
	<g
   id="g61"
   style="fill:#ffffff;fill-opacity:1">
		<g
   id="g63"
   style="fill:#ffffff;fill-opacity:1">
			
				<rect
   x="99.125"
   y="43.1918945"
   fill-rule="evenodd"
   clip-rule="evenodd"
   fill="#FFFFFF"
   width="6.2246094"
   height="38.6166992"
   id="rect65"
   style="fill:#ffffff;fill-opacity:1" />
		</g>
		<g
   id="g67"
   style="fill:#ffffff;fill-opacity:1">
			<polygon
   fill-rule="evenodd"
   clip-rule="evenodd"
   fill="#FFFFFF"
   points="135.428,81.8086 120.673,55.6416 120.673,81.8086 114.563,81.8086 114.563,43.1919 120.673,43.1919 134.736,67.8604 134.736,43.1919 140.846,43.1919 140.846,81.8086"
   id="polygon69"
   style="fill:#ffffff;fill-opacity:1" />
		</g>
		<g
   id="g71"
   style="fill:#ffffff;fill-opacity:1">
			<polygon
   fill-rule="evenodd"
   clip-rule="evenodd"
   fill="#FFFFFF"
   points="161.525,48.6099 161.525,81.8086 155.416,81.8086 155.416,48.6099 146.597,48.6099 146.597,43.1919 170.459,43.1919 170.459,48.6099"
   id="polygon73"
   style="fill:#ffffff;fill-opacity:1" />
		</g>
		<g
   id="g75"
   style="fill:#ffffff;fill-opacity:1">
			<polygon
   fill-rule="evenodd"
   clip-rule="evenodd"
   fill="#FFFFFF"
   points="176.169,81.8086 176.169,43.1919 198.936,43.1919 198.936,49.3013 182.278,49.3013 182.278,58.7539 193.518,58.7539 193.518,64.9785 182.278,64.9785 182.278,75.584 200.146,75.584 200.146,81.8086"
   id="polygon77"
   style="fill:#ffffff;fill-opacity:1" />
		</g>
		<g
   id="g79"
   style="fill:#ffffff;fill-opacity:1">
			<path
   fill-rule="evenodd"
   clip-rule="evenodd"
   fill="#FFFFFF"
   d="M226.2587891,81.8085938l-6.2246094-16.8300781h-7.3198242     v16.8300781h-6.109375V43.1918945h12.737793c1.4985352,0,2.7856445,0.0864258,3.8613281,0.2592773     c1.0761719,0.1728516,2.0942383,0.4902344,3.0546875,0.9511719c0.8457031,0.4228516,1.6235352,0.9702148,2.3344727,1.6425781     s1.3256836,1.440918,1.8442383,2.3056641c0.519043,0.8642578,0.9223633,1.7866211,1.2104492,2.7666016     c0.2885742,0.9794922,0.4321289,1.949707,0.4321289,2.9101563c0,1.0375977-0.1435547,2.0463867-0.4321289,3.0263672     c-0.2880859,0.9794922-0.6914063,1.9018555-1.2104492,2.7666016c-0.5185547,0.8642578-1.1523438,1.6425781-1.9018555,2.3339844     s-1.565918,1.2294922-2.449707,1.6142578l6.8012695,18.0400391H226.2587891z M225.9707031,54.0273438     c0-0.8066406-0.2109375-1.5751953-0.6337891-2.3051758s-1.0185547-1.3061523-1.7871094-1.7290039     c-0.4990234-0.2695313-0.9604492-0.4516602-1.3828125-0.5478516c-0.4228516-0.0957031-1.1337891-0.144043-2.1328125-0.144043     h-7.3198242v9.4526367h7.3198242c0.9609375,0,1.6621094-0.0385742,2.1040039-0.1152344     c0.4418945-0.0771484,0.9125977-0.25,1.4116211-0.5185547c0.7685547-0.4228516,1.3642578-1.0087891,1.7871094-1.7583008     S225.9707031,54.8344727,225.9707031,54.0273438z"
   id="path81"
   style="fill:#ffffff;fill-opacity:1" />
		</g>
		<g
   id="g83"
   style="fill:#ffffff;fill-opacity:1">
			<path
   fill-rule="evenodd"
   clip-rule="evenodd"
   fill="#FFFFFF"
   d="M262.9658203,70.6845703     c0,1.7675781-0.3271484,3.4003906-0.9794922,4.8994141c-0.6533203,1.4980469-1.5947266,2.8046875-2.8242188,3.9189453     c-1.0761719,0.9609375-2.3339844,1.7001953-3.7753906,2.2192383S252.3984375,82.5,250.7470703,82.5     c-3.3427734,0-6.1962891-0.8930664-8.5595703-2.6796875c-2.362793-1.7871094-4.1977539-4.159668-5.5039063-7.1181641     l5.8212891-2.1328125c0.8066406,1.8447266,1.9208984,3.2568359,3.3427734,4.2363281     c1.421875,0.9799805,3.0546875,1.4697266,4.8994141,1.4697266c1.8056641,0,3.2568359-0.5478516,4.3515625-1.6425781     c1.0947266-1.0952148,1.6425781-2.4492188,1.6425781-4.0634766c0-1.2680664-0.3369141-2.3056641-1.0087891-3.1123047     s-1.546875-1.4892578-2.6230469-2.0458984c-1.0751953-0.5576172-2.2568359-1.0473633-3.5439453-1.4697266     c-1.2871094-0.4228516-2.5654297-0.8837891-3.8330078-1.3837891c-0.5761719-0.2304688-1.2871094-0.5566406-2.1328125-0.9794922     s-1.6621094-1.0087891-2.4492188-1.7578125c-0.7880859-0.7495117-1.4599609-1.6816406-2.0175781-2.7958984     c-0.5571289-1.1142578-0.8354492-2.4780273-0.8354492-4.0917969c0-1.8828125,0.3071289-3.4873047,0.9223633-4.8125     c0.6142578-1.3261719,1.4501953-2.4018555,2.5068359-3.2280273s2.3242188-1.4311523,3.8046875-1.8154297     C247.0097656,42.6923828,248.6142578,42.5,250.34375,42.5c2.7275391,0,5.0039063,0.7109375,6.8300781,2.1328125     c1.8242188,1.421875,3.2177734,3.3427734,4.1777344,5.7636719l-5.4179688,1.6137695     c-0.3066406-0.6147461-0.7109375-1.171875-1.2099609-1.6713867c-0.4228516-0.4228516-1.0087891-0.8066406-1.7578125-1.1523438     c-0.7490234-0.3461914-1.6611328-0.5380859-2.7373047-0.5766602c-0.6914063-0.0385742-1.4121094,0.0092773-2.1621094,0.144043     c-0.7490234,0.1347656-1.4121094,0.3745117-1.9882813,0.7207031c-0.5761719,0.3457031-1.0371094,0.8164063-1.3828125,1.4121094     c-0.3457031,0.5952148-0.4804688,1.3349609-0.4042969,2.21875c0.0771484,1.1914063,0.5957031,2.1035156,1.5566406,2.737793     c0.9609375,0.6337891,2.1328125,1.1811523,3.515625,1.6425781c1.3837891,0.4614258,2.8730469,0.9321289,4.4667969,1.4121094     c1.5947266,0.4799805,3.0644531,1.171875,4.4101563,2.074707c1.34375,0.9033203,2.46875,2.1132813,3.3710938,3.6313477     C262.5146484,66.1220703,262.9658203,68.1484375,262.9658203,70.6845703z"
   id="path85"
   style="fill:#ffffff;fill-opacity:1" />
		</g>
		<g
   id="g87"
   style="fill:#ffffff;fill-opacity:1">
			<polygon
   fill-rule="evenodd"
   clip-rule="evenodd"
   fill="#FFFFFF"
   points="281.061,48.6099 281.061,81.8086 274.951,81.8086 274.951,48.6099 266.133,48.6099 266.133,43.1919 289.994,43.1919 289.994,48.6099"
   id="polygon89"
   style="fill:#ffffff;fill-opacity:1" />
		</g>
		<g
   id="g91"
   style="fill:#ffffff;fill-opacity:1">
			<path
   fill-rule="evenodd"
   clip-rule="evenodd"
   fill="#FFFFFF"
   d="M318.4707031,81.8085938l-3.8037109-10.8359375h-12.0458984     l-3.8046875,10.8359375h-6.5117188l13.3134766-38.6166992h6.0517578l13.3144531,38.6166992H318.4707031z M308.7304688,53.9121094     l-3.9765625,10.8359375h7.7226563L308.7304688,53.9121094z"
   id="path93"
   style="fill:#ffffff;fill-opacity:1" />
		</g>
		<g
   id="g95"
   style="fill:#ffffff;fill-opacity:1">
			<polygon
   fill-rule="evenodd"
   clip-rule="evenodd"
   fill="#FFFFFF"
   points="342.372,48.6099 342.372,81.8086 336.263,81.8086 336.263,48.6099 327.444,48.6099 327.444,43.1919 351.306,43.1919 351.306,48.6099"
   id="polygon97"
   style="fill:#ffffff;fill-opacity:1" />
		</g>
		<g
   id="g99"
   style="fill:#ffffff;fill-opacity:1">
			<polygon
   fill-rule="evenodd"
   clip-rule="evenodd"
   fill="#FFFFFF"
   points="357.016,81.8086 357.016,43.1919 379.783,43.1919 379.783,49.3013 363.125,49.3013 363.125,58.7539 374.365,58.7539 374.365,64.9785 363.125,64.9785 363.125,75.584 380.993,75.584 380.993,81.8086"
   id="polygon101"
   style="fill:#ffffff;fill-opacity:1" />
		</g>
	</g>
</g>
<g
   id="g103"
   style="fill:#ffffff;fill-opacity:1">
	<path
   fill-rule="evenodd"
   clip-rule="evenodd"
   fill="#FFFFFF"
   d="M171.609375,265.5253906   c0,6.2714844-1.0454102,12.0507813-3.1357422,17.3378906s-5.0107422,9.8056641-8.7607422,13.5566406   c-3.7504883,3.75-8.2382813,6.7011719-13.4638672,8.8525391C141.0229492,307.4238281,135.2749023,308.5,129.0039063,308.5   c-5.0415039,0-9.7446289-0.7988281-14.109375-2.3974609c-4.3652344-1.5986328-8.3613281-3.8115234-11.9887695-6.6396484   s-6.7319336-6.2714844-9.3139648-10.3291016s-4.4882813-8.6064453-5.7177734-13.6484375l19.1816406-5.5322266   c1.4755859,6.0244141,4.1806641,10.6347656,8.1152344,13.8320313s8.8530273,4.7958984,14.7548828,4.7958984   c3.3203125,0,6.3325195-0.5537109,9.0380859-1.6601563c2.7050781-1.1064453,5.0102539-2.6132813,6.9160156-4.5185547   c1.9057617-1.90625,3.4121094-4.1806641,4.5185547-6.8242188c1.1069336-2.6435547,1.6601563-5.5644531,1.6601563-8.7617188   c0-3.1962891-0.6147461-6.2089844-1.8442383-9.0371094c-1.2299805-2.828125-2.9511719-5.0410156-5.1645508-6.6396484   c-0.7373047-0.4912109-1.3833008-0.8916016-1.9365234-1.1982422c-0.5532227-0.3076172-1.2294922-0.5234375-2.0288086-0.6464844   c-0.7993164-0.1220703-1.8442383-0.2451172-3.1352539-0.3681641s-3.1044922-0.2460938-5.440918-0.3691406h-2.2133789v-19.9189453   v0.5527344h0.5532227h0.3691406h3.8730469c3.9345703,0,6.9472656-1.0449219,9.0375977-3.1347656   c2.0898438-2.0908203,3.1352539-5.1035156,3.1352539-9.0380859c0-4.7949219-1.6904297-8.7607422-5.0717773-11.8955078   c-3.3818359-3.1357422-7.5927734-4.7036133-12.6342773-4.7036133c-8.237793,0-14.4477539,4.0571289-18.6279297,12.1723633   l-18.2597656-6.8242188c3.1967773-7.8691406,8.0229492-14.0478516,14.4785156-18.5356445S120.8886719,180.5,129.0039063,180.5   c5.1640625,0,10.0517578,0.9833984,14.6625977,2.9511719c4.6113281,1.9672852,8.6381836,4.6723633,12.0805664,8.1152344   c3.4433594,3.4428711,6.1484375,7.4697266,8.1157227,12.0800781c1.9672852,4.6113281,2.9506836,9.4990234,2.9506836,14.6630859   c0,3.6894531-0.4916992,7.0087891-1.4755859,9.9599609c-0.9833984,2.9511719-2.828125,6.3935547-5.5327148,10.328125   c2.3359375,2.0908203,4.2416992,4.0888672,5.7172852,5.9941406c1.4755859,1.90625,2.6748047,3.9042969,3.5966797,5.9951172   c0.9223633,2.0898438,1.5678711,4.3339844,1.9365234,6.7314453   C171.4248047,259.7167969,171.609375,262.4521484,171.609375,265.5253906z"
   id="path105"
   style="fill:#ffffff;fill-opacity:1" />
	<path
   fill-rule="evenodd"
   clip-rule="evenodd"
   fill="#FFFFFF"
   d="M280.5234375,266.8164063   c0,5.65625-1.1367188,11.0058594-3.4121094,16.046875c-2.2744141,5.0410156-5.3476563,9.4677734-9.2207031,13.2792969   c-3.8740234,3.8115234-8.3310547,6.8242188-13.3730469,9.0371094C249.4765625,307.3935547,244.1279297,308.5,238.472168,308.5   c-5.65625,0-11.0048828-1.1064453-16.0463867-3.3203125c-5.0410156-2.2128906-9.4985352-5.2255859-13.371582-9.0371094   s-6.9472656-8.2382813-9.222168-13.2792969c-2.2744141-5.0410156-3.4121094-10.390625-3.4121094-16.046875   c0-5.9013672,1.2299805-11.21875,3.6889648-15.953125c2.4594727-4.734375,5.9633789-8.9453125,10.5131836-12.6337891   c-6.0249023-6.3935547-9.0375977-13.8945313-9.0375977-22.5019531c0-4.7949219,0.9838867-9.3134766,2.9511719-13.5556641   s4.6416016-7.9926758,8.0229492-11.2509766c3.3813477-3.2587891,7.2851563-5.8100586,11.7119141-7.6542969   C228.6967773,181.4223633,233.4306641,180.5,238.472168,180.5c4.918457,0,9.6518555,0.9223633,14.2016602,2.7666016   c4.5488281,1.8442383,8.5146484,4.3955078,11.8964844,7.6542969c3.3808594,3.2583008,6.0859375,7.0087891,8.1152344,11.2509766   c2.0283203,4.2421875,3.0429688,8.7607422,3.0429688,13.5556641c0,4.3037109-0.8300781,8.3310547-2.4902344,12.0810547   s-4.0263672,7.2236328-7.1005859,10.4208984c4.7958984,3.6884766,8.3916016,7.9609375,10.7900391,12.8183594   C279.3251953,255.9042969,280.5234375,261.1611328,280.5234375,266.8164063z M255.8095703,215.1748047   c0-4.0576172-1.6904297-7.53125-5.0722656-10.4208984s-7.4697266-4.3344727-12.2651367-4.3344727   s-8.8837891,1.4448242-12.2651367,4.3344727s-5.0722656,6.3632813-5.0722656,10.4208984   c0,3.6884766,1.690918,6.8544922,5.0722656,9.4980469s7.4697266,3.9658203,12.2651367,3.9658203   s8.8833008-1.3222656,12.2651367-3.9658203S255.8095703,218.8632813,255.8095703,215.1748047z M260.9736328,267.1855469   c0-2.5820313-0.6152344-5.0097656-1.8447266-7.2851563c-1.2294922-2.2744141-2.8583984-4.2421875-4.8876953-5.9023438   c-2.0283203-1.6591797-4.3955078-2.9814453-7.1005859-3.9648438s-5.5947266-1.4755859-8.668457-1.4755859   c-3.0742188,0-5.9331055,0.4921875-8.5766602,1.4755859s-4.9794922,2.3056641-7.0083008,3.9648438   c-2.0288086,1.6601563-3.6274414,3.6279297-4.7954102,5.9023438c-1.1679688,2.2753906-1.7524414,4.703125-1.7524414,7.2851563   c0,2.9511719,0.5844727,5.7177734,1.7524414,8.2998047c1.1679688,2.5830078,2.7666016,4.8574219,4.7954102,6.8242188   c2.0288086,1.9677734,4.3647461,3.5048828,7.0083008,4.6113281s5.5024414,1.6601563,8.5766602,1.6601563   c3.0737305,0,5.9946289-0.5537109,8.7602539-1.6601563c2.7675781-1.1064453,5.1650391-2.6435547,7.1933594-4.6113281   c2.0292969-1.9667969,3.6269531-4.2412109,4.7949219-6.8242188   C260.3896484,272.9033203,260.9736328,270.1367188,260.9736328,267.1855469z"
   id="path107"
   style="fill:#ffffff;fill-opacity:1" />
	<path
   fill-rule="evenodd"
   clip-rule="evenodd"
   fill="#FFFFFF"
   d="M392.2441406,244.6845703   c0,9.8369141-1.1679688,19.2431641-3.5048828,28.21875c-2.3359375,8.9765625-5.6552734,16.2304688-9.9599609,21.7636719   C371.8945313,303.8886719,361.9345703,308.5,348.9003906,308.5c-8.7294922,0-15.9228516-1.7832031-21.5791016-5.3486328   c-5.6552734-3.5654297-10.328125-9.1601563-14.0166016-16.7841797c-2.5820313-5.2871094-4.6728516-11.7109375-6.2714844-19.2734375   c-1.5976563-7.5625-2.3974609-15.03125-2.3974609-22.4091797c0-10.2060547,1.1982422-19.6728516,3.5966797-28.4033203   c2.3974609-8.7304688,5.6865234-16.0463867,9.8671875-21.9482422c3.6894531-4.6723633,8.0839844-8.1459961,13.1875-10.4208984   C336.3896484,181.6376953,342.5068359,180.5,349.6386719,180.5c7.8691406,0,14.5703125,1.7832031,20.1035156,5.3486328   c5.5332031,3.565918,10.2675781,9.1606445,14.2021484,16.7841797c2.5820313,5.5332031,4.6103516,11.9882813,6.0859375,19.3662109   C391.5058594,229.3759766,392.2441406,236.9384766,392.2441406,244.6845703z M372.6933594,244.6845703   c0-7.0087891-0.6152344-13.4951172-1.84375-19.4580078c-1.2304688-5.9638672-3.0742188-11.0361328-5.5332031-15.2167969   c-1.9677734-3.1962891-4.2119141-5.5332031-6.7324219-7.0078125c-2.5214844-1.4765625-5.625-2.3369141-9.3144531-2.5825195   c-4.7949219-0.2460938-8.7910156,0.8608398-11.9882813,3.3198242s-5.8408203,6.4550781-7.9306641,11.9882813   c-1.5986328,3.6884766-2.7978516,8.1464844-3.5966797,13.3720703s-1.1992188,10.4208984-1.1992188,15.5849609   c0,6.6396484,0.6152344,13.0341797,1.8447266,19.1816406s3.0742188,11.1894531,5.5332031,15.1240234   c1.9677734,3.1972656,4.3037109,5.5947266,7.0087891,7.1923828c2.7050781,1.5986328,6.0253906,2.3984375,9.9589844,2.3984375   c4.5498047,0,8.3310547-1.2294922,11.34375-3.6894531c3.0117188-2.4589844,5.5634766-6.4550781,7.6542969-11.9882813   c0.6142578-1.5986328,1.2285156-3.5351563,1.84375-5.8095703c0.6152344-2.2753906,1.1376953-4.671875,1.5683594-7.1933594   c0.4296875-2.5205078,0.7675781-5.0722656,1.0136719-7.6542969S372.6933594,247.1435547,372.6933594,244.6845703z"
   id="path109"
   style="fill:#ffffff;fill-opacity:1" />
</g>
</svg>