<?xml version="1.0" encoding="UTF-8" standalone="no"?>
<!-- Created with Inkscape (http://www.inkscape.org/) -->
<svg
   xmlns:dc="http://purl.org/dc/elements/1.1/"
   xmlns:cc="http://web.resource.org/cc/"
   xmlns:rdf="http://www.w3.org/1999/02/22-rdf-syntax-ns#"
   xmlns:svg="http://www.w3.org/2000/svg"
   xmlns="http://www.w3.org/2000/svg"
   xmlns:sodipodi="http://sodipodi.sourceforge.net/DTD/sodipodi-0.dtd"
   xmlns:inkscape="http://www.inkscape.org/namespaces/inkscape"
   version="1.0"
   width="751"
   height="601"
   viewBox="0 0 750 599.99902"
   id="Layer_1"
   xml:space="preserve"
   sodipodi:version="0.32"
   inkscape:version="0.45"
   sodipodi:docname="Interstate 3-Digit State Template.svg"
   sodipodi:docbase="C:\Documents and Settings\ltljltlj\Desktop\Signs\Interstate Route Shields"
   inkscape:output_extension="org.inkscape.output.svg.inkscape"
   sodipodi:modified="true"><metadata
   id="metadata36"><rdf:RDF><cc:Work
       rdf:about=""><dc:format>image/svg+xml</dc:format><dc:type
         rdf:resource="http://purl.org/dc/dcmitype/StillImage" /></cc:Work></rdf:RDF></metadata><sodipodi:namedview
   inkscape:window-height="964"
   inkscape:window-width="830"
   inkscape:pageshadow="2"
   inkscape:pageopacity="0.0"
   guidetolerance="10.0"
   gridtolerance="10.0"
   objecttolerance="10.0"
   borderopacity="1.0"
   bordercolor="#666666"
   pagecolor="#ffffff"
   id="base"
   width="751px"
   height="601px"
   inkscape:zoom="0.99333333"
   inkscape:cx="375"
   inkscape:cy="299.99952"
   inkscape:window-x="224"
   inkscape:window-y="-1"
   inkscape:current-layer="Layer_1" /><defs
   id="defs62">
	
	
	
	
</defs>
<g
   transform="matrix(0.9986685,0,0,0.9986701,0.4993342,0.3989715)"
   id="g5"
   style="fill:#ffffff;fill-opacity:1;stroke:#000000;stroke-width:0.99999899;stroke-miterlimit:4;stroke-dasharray:none;stroke-opacity:1">
		<path
   id="path7"
   style="fill:#ffffff;fill-opacity:1;stroke:#000000;stroke-width:0.99999899;stroke-miterlimit:4;stroke-dasharray:none;stroke-opacity:1"
   d="M 38.915039,0 C 92.236328,15.525391 148.625,23.849609 206.95801,23.849609 C 265.29053,23.849609 321.6792,15.525391 375,0.0004883 C 428.32031,15.525391 484.70898,23.849609 543.04199,23.849609 C 601.375,23.849609 657.76367,15.525391 711.08398,0 C 736.06445,54.121094 750,114.3877 750,177.90918 C 750,395.71777 586.16016,575.25391 375,599.99902 C 163.83887,575.25391 0,395.71777 0,177.90918 C 0,114.3877 13.935059,54.121094 38.915039,0 z " />
		
			<path
   id="path9"
   style="fill:#ffffff;fill-opacity:1;stroke:#000000;stroke-width:0.99999899;stroke-linecap:round;stroke-linejoin:round;stroke-miterlimit:4;stroke-dasharray:none;stroke-opacity:1"
   d="M 38.915039,0 C 92.236328,15.525391 148.625,23.849609 206.95801,23.849609 C 265.29053,23.849609 321.6792,15.525391 375,0.0004883 C 428.32031,15.525391 484.70898,23.849609 543.04199,23.849609 C 601.375,23.849609 657.76367,15.525391 711.08398,0 C 736.06445,54.121094 750,114.3877 750,177.90918 C 750,395.71777 586.16016,575.25391 375,599.99902 C 163.83887,575.25391 0,395.71777 0,177.90918 C 0,114.3877 13.935059,54.121094 38.915039,0 z " />
	</g><g
   transform="matrix(1.0056032,0,0,1.0101352,-2.1013652,-3.7018951)"
   id="g11"
   style="fill:#003f87;fill-opacity:1">
		<path
   id="path13"
   style="fill:#003f87;fill-opacity:1"
   d="M 15,177.90918 C 15,165.12744 15.584961,152.48242 16.729004,139.99902 L 733.27051,139.99902 C 734.41504,152.48242 735,165.12744 735,177.90918 C 735,387.42285 577.85547,560.22852 375,584.89062 C 172.14453,560.22852 15,387.42285 15,177.90918 z " />
	</g><g
   transform="matrix(1.00604,0,0,1.0270827,-2.2645005,-3.1522955)"
   id="g15"
   style="fill:#af1e2d;fill-opacity:1">
		<path
   id="path17"
   style="fill:#af1e2d;fill-opacity:1"
   d="M 47.37793,17.942871 C 98.270019,31.578125 151.76562,38.849121 206.95996,38.849121 C 265.2207,38.849121 321.58936,30.748047 375,15.611328 C 428.41113,30.748047 484.7793,38.849121 543.04004,38.849121 C 598.23438,38.849121 651.73047,31.578613 702.62109,17.942871 C 716.88281,51.567383 726.78516,87.489258 731.61719,124.99902 L 18.381836,124.99902 C 23.214844,87.489258 33.116211,51.567383 47.37793,17.942871 z " />
	</g>



<path
   style="font-size:93.28099823px;font-style:normal;font-variant:normal;font-weight:normal;font-stretch:normal;text-align:center;line-height:125%;writing-mode:lr-tb;text-anchor:middle;fill:#ffffff;fill-opacity:1;font-family:Roadgeek 2005 Series C"
   d="M 183.53777,112.74918 L 183.53777,50.332876 L 192.29397,50.332876 L 192.29397,112.74918 L 183.53777,112.74918 z M 234.32652,112.74918 L 215.04301,70.921299 L 215.04301,112.74918 L 206.09918,112.74918 L 206.09918,50.332876 L 215.04301,50.332876 L 232.18297,87.782657 L 232.18297,50.332876 L 241.1268,50.332876 L 241.1268,112.74918 L 234.32652,112.74918 z M 270.23545,58.625673 L 270.23545,112.74918 L 261.20065,112.74918 L 261.20065,58.625673 L 249.83466,58.625673 L 249.83466,50.332876 L 281.60144,50.332876 L 281.60144,58.625673 L 270.23545,58.625673 z M 290.15862,112.74918 L 290.15862,50.332876 L 319.50325,50.332876 L 319.50325,59.09191 L 299.10244,59.09191 L 299.10244,74.833157 L 312.05195,74.833157 L 312.05195,83.404561 L 299.10244,83.404561 L 299.10244,103.99298 L 321.9254,103.99298 L 321.9254,112.74918 L 290.15862,112.74918 z M 358.17549,112.74918 L 349.88269,83.404561 L 341.31412,83.404561 L 341.31412,112.74918 L 332.3703,112.74918 L 332.3703,50.332876 L 351.0028,50.332876 C 353.42494,50.332938 355.64525,50.736632 357.66375,51.543959 C 359.6822,52.351409 361.42112,53.469623 362.88052,54.898605 C 364.33984,56.327702 365.45758,58.082256 366.23374,60.16227 C 367.00981,62.24239 367.39787,64.524779 367.39791,67.009442 C 367.39787,70.735604 366.65256,73.903088 365.16196,76.511902 C 363.67129,79.120788 361.43533,80.983372 358.4541,82.099661 L 367.39791,112.74918 L 358.17549,112.74918 z M 358.64173,67.009442 C 358.6417,64.587322 357.89637,62.662194 356.40576,61.234051 C 354.9151,59.806011 352.9587,59.091964 350.53656,59.09191 L 341.31412,59.09191 L 341.31412,74.833157 L 350.53656,74.833157 C 353.14444,74.833195 355.14727,74.165584 356.54506,72.830321 C 357.9428,71.495138 358.6417,69.554847 358.64173,67.009442 L 358.64173,67.009442 z M 409.6238,95.700188 C 409.62376,98.247459 409.17363,100.62319 408.27342,102.82739 C 407.37312,105.03161 406.13124,106.94111 404.54777,108.55587 C 402.96423,110.17066 401.13196,111.45945 399.05098,112.42224 C 396.96994,113.38505 394.71835,113.86645 392.29621,113.86645 C 389.56319,113.86645 387.11023,113.33861 384.93731,112.28294 C 382.76436,111.22727 380.93257,109.79918 379.44194,107.99867 C 377.9513,106.19815 376.80229,104.11761 375.9949,101.75704 C 375.18751,99.396471 374.78382,96.943507 374.78382,94.398132 L 383.54002,94.398132 C 383.54001,95.702101 383.71058,96.990416 384.05174,98.26308 C 384.39288,99.535774 384.92071,100.68479 385.63525,101.71013 C 386.34975,102.73548 387.25049,103.5585 388.33744,104.17919 C 389.42436,104.7999 390.74394,105.11026 392.29621,105.11025 C 393.47695,105.11026 394.61079,104.86198 395.69776,104.3654 C 396.78467,103.86886 397.7162,103.18561 398.49235,102.31567 C 399.26844,101.44574 399.88914,100.4365 400.35446,99.287953 C 400.81972,98.139428 401.05236,96.943507 401.05239,95.700188 C 401.05236,93.899691 400.67995,92.301024 399.93513,90.904183 C 399.19025,89.507385 397.8863,88.094455 396.02327,86.665389 C 395.71243,86.35459 395.58828,86.18354 395.65086,86.152242 C 395.71337,86.120997 395.52716,85.950421 395.09222,85.640517 C 394.65723,85.330665 393.74087,84.725124 392.34312,83.823891 C 390.94533,82.922716 388.66293,81.386119 385.49595,79.214097 C 382.95057,77.474265 381.04108,75.439684 379.76746,73.110348 C 378.49382,70.781091 377.85701,68.219622 377.85702,65.425936 C 377.85701,63.189556 378.2607,61.093379 379.0681,59.137398 C 379.87548,57.181525 381.00886,55.458243 382.46824,53.967548 C 383.92759,52.476971 385.62007,51.312324 387.54568,50.473601 C 389.47127,49.635002 391.55134,49.215671 393.7859,49.215607 C 396.0223,49.215671 398.08768,49.619366 399.98204,50.426692 C 401.87634,51.234143 403.52192,52.352357 404.91877,53.781337 C 406.31556,55.210436 407.4333,56.918555 408.272,58.9057 C 409.11062,60.892952 409.56122,63.066363 409.6238,65.425936 L 401.05239,65.425936 C 400.92917,63.2521 400.18433,61.513183 398.81786,60.209179 C 397.45135,58.90528 395.77402,58.253304 393.7859,58.25325 C 391.73707,58.253304 389.99863,58.936552 388.57055,60.302995 C 387.14245,61.669543 386.4284,63.377188 386.42842,65.425936 C 386.4284,66.978216 386.83209,68.282167 387.63951,69.337794 C 388.44687,70.393507 389.99911,71.573317 392.29621,72.877229 C 398.32127,76.355103 402.71547,79.895009 405.47882,83.496955 C 408.24211,87.09896 409.62376,91.166701 409.6238,95.700188 L 409.6238,95.700188 z M 435.62513,58.625673 L 435.62513,112.74918 L 426.59034,112.74918 L 426.59034,58.625673 L 415.22435,58.625673 L 415.22435,50.332876 L 446.99113,50.332876 L 446.99113,58.625673 L 435.62513,58.625673 z M 481.6321,112.74918 L 477.25401,95.700188 L 463.83827,95.700188 L 459.74164,112.74918 L 450.70398,112.74918 L 466.26044,50.332876 L 475.01948,50.332876 L 490.57593,112.74918 L 481.6321,112.74918 z M 470.45374,68.965371 L 466.07565,86.943996 L 475.01948,86.943996 L 470.45374,68.965371 z M 514.77201,58.625673 L 514.77201,112.74918 L 505.73722,112.74918 L 505.73722,58.625673 L 494.37123,58.625673 L 494.37123,50.332876 L 526.13801,50.332876 L 526.13801,58.625673 L 514.77201,58.625673 z M 534.6952,112.74918 L 534.6952,50.332876 L 564.03982,50.332876 L 564.03982,59.09191 L 543.63903,59.09191 L 543.63903,74.833157 L 556.58852,74.833157 L 556.58852,83.404561 L 543.63903,83.404561 L 543.63903,103.99298 L 566.46199,103.99298 L 566.46199,112.74918 L 534.6952,112.74918 z "
   id="text7023" />

<path
   style="font-size:372.63015747px;font-style:normal;font-variant:normal;font-weight:normal;font-stretch:normal;text-align:center;line-height:125%;writing-mode:lr-tb;text-anchor:middle;fill:#ffffff;fill-opacity:1;font-family:Roadgeek 2005 Series C"
   d="M 276.40695,382.35381 C 276.40679,392.53539 274.66691,402.03649 271.1873,410.85715 C 267.7074,419.67788 262.92557,427.31781 256.84182,433.77695 C 250.75779,440.23613 243.43059,445.26623 234.86019,448.86729 C 226.28956,452.46835 217.03484,454.26888 207.09601,454.26888 C 196.91441,454.26888 187.66159,452.53089 179.33752,449.05492 C 171.01333,445.57896 163.80933,440.73459 157.72547,434.5218 C 151.64154,428.30905 146.79717,420.9174 143.19235,412.34685 C 139.58748,403.77637 137.53867,394.40036 137.04591,384.21878 L 172.07096,384.21878 C 173.06404,394.40036 176.72764,402.78324 183.06177,409.36745 C 189.39578,415.95173 197.40719,419.24386 207.09601,419.24383 C 217.28502,419.24386 225.6698,415.70345 232.25036,408.6226 C 238.83071,401.54182 242.12094,392.78557 242.12106,382.35381 C 242.12094,375.64454 241.2529,369.37112 239.51693,363.53353 C 237.78072,357.69611 235.42108,352.60346 232.438,348.25555 C 229.4547,343.90785 226.03748,340.49254 222.18635,338.00959 C 218.33501,335.52687 214.17295,334.28545 209.70014,334.28534 L 192.18762,334.28534 L 192.18762,299.99945 L 207.09601,299.99945 C 211.56882,299.9996 214.98603,299.25475 217.34766,297.7649 C 219.7091,296.27535 222.37957,293.79062 225.35907,290.3107 C 232.56108,282.36579 236.16214,273.05232 236.16225,262.37026 C 236.16214,252.68171 233.49167,244.97924 228.15084,239.26283 C 222.8098,233.54683 215.79153,230.68873 207.09601,230.68851 C 199.15086,230.68873 192.87933,232.98772 188.28142,237.58549 C 183.68337,242.18368 180.88781,248.70539 179.89474,257.15062 L 144.86968,252.68151 C 145.8628,244.47888 148.09735,236.83896 151.57334,229.76171 C 155.04928,222.68491 159.52028,216.66167 164.98635,211.69197 C 170.45233,206.72275 176.78829,202.80897 183.99426,199.95062 C 191.2001,197.09276 198.90068,195.66371 207.09601,195.66346 C 216.04171,195.66371 224.36394,197.2785 232.06273,200.50783 C 239.7613,203.73766 246.4062,208.2712 251.99744,214.10847 C 257.58843,219.94621 261.99877,226.77874 265.2285,234.60609 C 268.45793,242.43386 270.07272,250.81674 270.07287,259.75475 C 270.07272,270.19422 268.39539,279.88485 265.04086,288.82668 C 261.68605,297.76884 255.786,307.0842 247.3407,316.77281 C 257.02932,325.46855 264.29587,335.40557 269.14039,346.5839 C 273.98461,357.76245 276.40679,369.68574 276.40695,382.35381 L 276.40695,382.35381 z M 445.25499,376.395 C 445.25483,388.32026 443.14347,399.68443 438.92091,410.48757 C 434.69805,421.29078 428.86055,430.29721 421.40838,437.50689 C 410.4762,448.68155 395.32144,454.26888 375.94405,454.26888 C 363.526,454.26888 352.90667,452.03432 344.08603,447.56522 C 335.26529,443.09612 327.75045,436.51377 321.5415,427.81814 C 316.5758,420.85865 312.72646,412.90789 309.99347,403.96586 C 307.26044,395.02391 305.89393,385.83363 305.89394,376.395 C 305.89393,363.96953 307.81955,352.47837 311.6708,341.92148 C 315.52202,331.3648 321.42017,322.11009 329.36528,314.1573 C 315.95415,299.50303 309.2486,282.2407 309.24862,262.37026 C 309.2486,252.68171 310.86339,243.73782 314.09299,235.53857 C 317.32255,227.33975 321.85609,220.32148 327.69363,214.48374 C 333.53109,208.64647 340.54747,204.05039 348.74277,200.69547 C 356.93796,197.34105 366.00505,195.66371 375.94405,195.66346 C 385.6327,195.66371 394.4515,197.34105 402.40047,200.69547 C 410.34922,204.05039 417.2424,208.64647 423.08003,214.48374 C 428.9174,220.32148 433.45095,227.33975 436.68067,235.53857 C 439.9101,243.73782 441.52489,252.68171 441.52504,262.37026 C 441.52489,272.55196 439.84945,282.05307 436.49872,290.8736 C 433.1477,299.69446 428.11759,307.45568 421.40838,314.1573 C 429.35332,321.60973 435.31402,330.73936 439.29049,341.54621 C 443.26667,352.35328 445.25483,363.96953 445.25499,376.395 L 445.25499,376.395 z M 406.49999,262.37026 C 406.49988,253.17449 403.58113,245.59521 397.74373,239.63241 C 391.90612,233.67003 384.63957,230.68873 375.94405,230.68851 C 366.75558,230.68873 359.18009,233.67003 353.21756,239.63241 C 347.25491,245.59521 344.27361,253.17449 344.27367,262.37026 C 344.27361,272.55196 347.25491,280.62402 353.21756,286.58645 C 359.18009,292.5492 366.75558,295.5305 375.94405,295.53034 C 384.63957,295.5305 391.90612,292.5492 397.74373,286.58645 C 403.58113,280.62402 406.49988,272.55196 406.49999,262.37026 L 406.49999,262.37026 z M 410.9691,376.395 C 410.96898,362.72622 407.7394,351.85671 401.28035,343.78645 C 394.82108,335.7164 386.37566,331.68132 375.94405,331.6812 C 365.51227,331.68132 357.06684,335.7164 350.60774,343.78645 C 344.14853,351.85671 340.91895,362.72622 340.919,376.395 C 340.91895,389.06321 344.14853,399.37171 350.60774,407.32053 C 357.06684,415.26943 365.51227,419.24386 375.94405,419.24383 C 386.37566,419.24386 394.82108,415.26943 401.28035,407.32053 C 407.7394,399.37171 410.96898,389.06321 410.9691,376.395 L 410.9691,376.395 z M 614.10302,362.23715 C 614.10287,375.39815 612.11471,387.56783 608.13853,398.74621 C 604.16206,409.9247 598.69603,419.61344 591.74044,427.81246 C 584.78458,436.01152 576.58744,442.47068 567.14898,447.18995 C 557.71032,451.90924 547.39992,454.26888 536.21777,454.26888 C 525.04305,454.26888 514.30052,452.4058 503.99017,448.67965 C 493.67974,444.95351 483.93035,439.48938 474.74198,432.28725 L 498.21332,406.95095 C 504.42226,411.1737 510.13657,414.27819 515.35626,416.26442 C 520.57584,418.25073 526.29015,419.24386 532.4992,419.24383 C 539.20089,419.24386 545.40987,417.81481 551.12616,414.95667 C 556.84227,412.0986 561.74919,408.06163 565.84692,402.84574 C 569.94443,397.62994 573.17401,391.42096 575.53566,384.21878 C 577.89708,377.01673 579.07785,369.06787 579.07797,360.37218 C 579.07785,346.70341 575.97147,336.01964 569.75881,328.32084 C 563.54593,320.62228 555.22369,316.77294 544.79208,316.77281 C 533.85995,316.77294 523.92482,320.87057 514.98668,329.06569 L 480.70079,324.59659 L 487.03487,200.13257 L 604.41427,200.13257 L 604.41427,235.16899 L 520.19495,235.16899 L 517.59081,287.70657 C 523.79973,285.47028 528.82984,284.04123 532.68115,283.41941 C 536.53231,282.79792 540.81947,282.48709 545.54262,282.48692 C 555.72405,282.48709 565.03752,284.41271 573.48306,288.26378 C 581.92837,292.11518 589.13238,297.5812 595.09511,304.66187 C 601.05757,311.74283 605.7162,320.12761 609.07101,329.81623 C 612.42553,339.50509 614.10287,350.31205 614.10302,362.23715 L 614.10302,362.23715 z "
   id="text7029" />

<path
   transform="scale(1.0000209,0.9999791)"
   style="font-size:55.89564133px;font-style:normal;font-variant:normal;font-weight:normal;font-stretch:normal;text-align:center;line-height:125%;writing-mode:lr-tb;text-anchor:middle;fill:#ffffff;fill-opacity:1;font-family:Roadgeek 2005 Series D"
   d="M 194.99878,176.86575 C 194.99875,178.57952 194.68176,180.16307 194.0478,181.6164 C 193.41378,183.06975 192.5009,184.33659 191.30914,185.41693 C 190.26517,186.34829 189.04467,187.06558 187.64764,187.56879 C 186.25057,188.072 184.75089,188.32361 183.14859,188.32361 C 179.90642,188.32361 177.13934,187.45735 174.84732,185.72482 C 172.55529,183.9923 170.77586,181.69147 169.50902,178.8223 L 175.15522,176.75317 C 175.9376,178.54199 177.01822,179.91147 178.39709,180.86159 C 179.77593,181.81172 181.35976,182.28679 183.14859,182.28678 C 184.89986,182.28679 186.30658,181.75572 187.36874,180.69357 C 188.43086,179.63143 188.96194,178.31797 188.96196,176.75317 C 188.96194,175.52387 188.63584,174.51802 187.98368,173.73561 C 187.33148,172.95323 186.4837,172.29167 185.44033,171.75091 C 184.39694,171.21019 183.25092,170.73484 182.00229,170.32486 C 180.75364,169.91492 179.51466,169.46772 178.28536,168.98325 C 177.72585,168.76038 177.03642,168.44395 176.21708,168.03397 C 175.39772,167.62403 174.60594,167.05572 173.84175,166.32903 C 173.07755,165.60238 172.42536,164.69859 171.8852,163.61766 C 171.34502,162.53678 171.07494,161.21393 171.07494,159.64912 C 171.07494,157.82394 171.37289,156.26854 171.96878,154.9829 C 172.56467,153.69733 173.37521,152.65395 174.4004,151.85276 C 175.42558,151.05164 176.65546,150.46456 178.09004,150.09152 C 179.52461,149.71856 181.08001,149.53206 182.75626,149.53202 C 185.4025,149.53206 187.61066,150.22148 189.38073,151.6003 C 191.15076,152.97919 192.50147,154.84221 193.43286,157.18935 L 188.179,158.75528 C 187.88103,158.15941 187.48983,157.61925 187.00541,157.13477 C 186.59486,156.72427 186.02626,156.35127 185.29961,156.01576 C 184.57292,155.68032 183.68818,155.49439 182.64538,155.45797 C 181.97442,155.42047 181.27561,155.46681 180.54895,155.59699 C 179.82227,155.72723 179.17947,155.96007 178.62055,156.29551 C 178.0616,156.63102 177.6144,157.0876 177.27894,157.66527 C 176.94345,158.243 176.81324,158.96057 176.88831,159.81799 C 176.96222,160.97228 177.46514,161.85702 178.39709,162.47222 C 179.32901,163.08746 180.46564,163.61854 181.80698,164.06543 C 183.14829,164.51237 184.59225,164.96868 186.13886,165.43434 C 187.68543,165.90004 189.11062,166.5707 190.41445,167.44633 C 191.71822,168.32199 192.80823,169.49586 193.68446,170.96795 C 194.56065,172.44007 194.99875,174.406 194.99878,176.86575 L 194.99878,176.86575 z M 227.05246,168.98325 C 227.05243,171.96501 226.69848,174.81596 225.9906,177.53613 C 225.28267,180.25632 224.27653,182.45509 222.97219,184.13246 C 220.88541,186.92656 217.86728,188.32361 213.91781,188.32361 C 211.27153,188.32361 209.09152,187.78344 207.37777,186.7031 C 205.664,185.62276 204.24819,183.9272 203.13033,181.6164 C 202.34793,180.0141 201.71451,178.06721 201.23007,175.77575 C 200.74562,173.4843 200.50339,171.22014 200.5034,168.98325 C 200.50339,165.89123 200.86673,163.02236 201.5934,160.37664 C 202.32007,157.73097 203.31682,155.51372 204.58367,153.72487 C 205.70153,152.3091 207.03376,151.25633 208.58036,150.56659 C 210.12694,149.87691 211.98057,149.53206 214.14127,149.53202 C 216.52595,149.53206 218.55671,150.07251 220.23353,151.15338 C 221.91031,152.23433 223.34517,153.9296 224.53811,156.23922 C 225.32048,157.91662 225.93514,159.87317 226.38208,162.10888 C 226.82897,164.34464 227.05243,166.63609 227.05246,168.98325 L 227.05246,168.98325 z M 221.12822,168.98325 C 221.1282,166.86012 220.94198,164.89476 220.56957,163.08716 C 220.19712,161.2796 219.6379,159.74239 218.89192,158.47553 C 218.296,157.50666 217.61624,156.79876 216.85263,156.35181 C 216.08899,155.90492 215.14824,155.64393 214.03039,155.56884 C 212.57703,155.49496 211.36592,155.83043 210.39704,156.57527 C 209.42813,157.32016 208.62697,158.53128 207.99356,160.20862 C 207.50911,161.32651 207.14577,162.67722 206.90356,164.26075 C 206.66133,165.84432 206.54021,167.41849 206.54022,168.98325 C 206.54021,170.99611 206.72643,172.93418 207.09887,174.79747 C 207.47129,176.66078 208.02994,178.18832 208.77482,179.3801 C 209.37184,180.349 210.08003,181.07567 210.89939,181.56011 C 211.71873,182.04457 212.72487,182.28679 213.91781,182.28678 C 215.29607,182.28679 216.4418,181.91436 217.35499,181.16948 C 218.26814,180.42463 219.04144,179.21351 219.67488,177.53613 C 219.86136,177.05169 220.04786,176.4649 220.23438,175.77575 C 220.42086,175.08662 220.57921,174.35995 220.70945,173.59573 C 220.83963,172.83155 220.94198,172.05826 221.01649,171.27585 C 221.09095,170.49347 221.1282,169.72927 221.12822,168.98325 L 221.12822,168.98325 z M 260.83582,174.23882 C 260.83579,175.69217 260.67744,177.07074 260.36076,178.37453 C 260.04402,179.67834 259.62468,180.88917 259.10273,182.00703 C 258.61826,182.93954 257.98484,183.78761 257.20247,184.55123 C 256.42005,185.31486 255.54441,185.97615 254.57554,186.53508 C 253.60662,187.09401 252.57234,187.53183 251.47269,187.84854 C 250.373,188.16525 249.24603,188.32361 248.09179,188.32361 C 246.93638,188.32361 245.80885,188.16525 244.70919,187.84854 C 243.60951,187.53183 242.57523,187.09401 241.60634,186.53508 C 240.63744,185.97615 239.75242,185.31486 238.95127,184.55123 C 238.1501,183.78761 237.5073,182.93954 237.02286,182.00703 C 236.50202,180.88917 236.09234,179.67834 235.79383,178.37453 C 235.49531,177.07074 235.34606,175.69217 235.34606,174.23882 L 235.34606,150.2024 L 241.27201,150.2024 L 241.27201,174.23882 C 241.272,176.69746 241.89603,178.65344 243.14412,180.10677 C 244.39219,181.56012 246.04141,182.28679 248.09179,182.28678 C 250.14101,182.28679 251.78966,181.56012 253.03776,180.10677 C 254.28581,178.65344 254.90985,176.69746 254.90988,174.23882 L 254.90988,150.2024 L 260.83582,150.2024 L 260.83582,174.23882 L 260.83582,174.23882 z M 280.91479,155.45797 L 280.91479,187.65323 L 274.99055,187.65323 L 274.99055,155.45797 L 266.43767,155.45797 L 266.43767,150.2024 L 289.57855,150.2024 L 289.57855,155.45797 L 280.91479,155.45797 z M 314.62651,187.65323 L 314.62651,171.33214 L 300.98864,171.33214 L 300.98864,187.65323 L 295.06269,187.65323 L 295.06269,150.2024 L 300.98864,150.2024 L 300.98864,165.29531 L 314.62651,165.29531 L 314.62651,150.2024 L 320.55246,150.2024 L 320.55246,187.65323 L 314.62651,187.65323 z M 366.49476,180.05219 C 364.259,185.56647 360.49544,188.32361 355.20407,188.32361 C 352.40882,188.32361 350.09832,187.78344 348.27256,186.7031 C 346.44677,185.62276 344.93743,183.9272 343.74451,181.6164 C 342.88819,179.93904 342.21781,177.98249 341.73337,175.74675 C 341.24892,173.51103 341.0067,171.21957 341.0067,168.87238 C 341.0067,165.8918 341.37913,163.04112 342.124,160.32035 C 342.86886,157.59963 343.89348,155.40114 345.19785,153.72487 C 346.31571,152.34549 347.6667,151.30182 349.25083,150.59388 C 350.83494,149.88601 352.68857,149.53206 354.81174,149.53202 C 357.64448,149.53206 359.98313,150.147 361.82769,151.37684 C 363.6722,152.60676 365.22789,154.54426 366.49476,157.18935 L 360.96115,159.53824 C 360.43915,158.75588 359.9638,158.10369 359.5351,157.58169 C 359.10635,157.05974 358.65915,156.64978 358.19349,156.35181 C 357.72778,156.05389 357.22486,155.84891 356.68471,155.73687 C 356.14452,155.62488 355.5202,155.56888 354.81174,155.56884 C 353.28446,155.56888 352.00853,155.92283 350.98392,156.6307 C 349.95929,157.33864 349.13028,158.53128 348.49687,160.20862 C 348.01241,161.32651 347.64908,162.64936 347.40686,164.17716 C 347.16463,165.70501 347.04352,167.27008 347.04353,168.87238 C 347.04352,170.92163 347.2485,172.88727 347.65847,174.76932 C 348.06842,176.6514 348.64583,178.18832 349.39071,179.3801 C 350.06164,180.349 350.84432,181.07567 351.73874,181.56011 C 352.63313,182.04457 353.73195,182.28679 355.0352,182.28678 C 356.30316,182.28679 357.40283,181.94222 358.33421,181.25307 C 359.26556,180.56393 360.10367,179.45516 360.84856,177.92676 L 366.49476,180.05219 L 366.49476,180.05219 z M 396.72835,187.65323 L 393.0387,177.1455 L 381.35739,177.1455 L 377.66774,187.65323 L 371.35117,187.65323 L 384.26407,150.2024 L 390.13202,150.2024 L 403.04492,187.65323 L 396.72835,187.65323 z M 387.28163,160.59925 L 383.42482,171.10868 L 390.91498,171.10868 L 387.28163,160.59925 z M 427.77048,187.65323 L 421.73366,171.33214 L 414.63583,171.33214 L 414.63583,187.65323 L 408.70988,187.65323 L 408.70988,150.2024 L 421.06328,150.2024 C 422.5166,150.20244 423.76496,150.2863 424.80836,150.454 C 425.85172,150.62178 426.83909,150.92967 427.77048,151.37769 C 428.59038,151.78712 429.3452,152.31791 430.03493,152.97006 C 430.72462,153.62228 431.32079,154.36743 431.82346,155.20551 C 432.32608,156.04366 432.71727,156.93806 432.99705,157.88873 C 433.27678,158.83946 433.41665,159.78049 433.41668,160.71183 C 433.41665,161.71828 433.27678,162.69655 432.99705,163.64666 C 432.71727,164.59681 432.32608,165.49093 431.82346,166.32903 C 431.32079,167.16716 430.70614,167.9217 429.97949,168.59262 C 429.2528,169.26359 428.46074,169.78556 427.60332,170.15855 L 434.19964,187.65323 L 427.77048,187.65323 z M 427.49073,160.71183 C 427.49071,159.92946 427.28601,159.18431 426.87664,158.47638 C 426.46723,157.7685 425.88953,157.20929 425.14355,156.79873 C 424.65908,156.53834 424.21188,156.3615 423.80194,156.26822 C 423.39196,156.175 422.70253,156.12838 421.73366,156.12835 L 414.63583,156.12835 L 414.63583,165.29531 L 421.73366,165.29531 C 422.66614,165.29534 423.34647,165.25809 423.77465,165.18358 C 424.20278,165.10912 424.65908,164.9411 425.14355,164.67952 C 425.88953,164.27015 426.46723,163.70212 426.87664,162.97543 C 427.28601,162.24878 427.49071,161.49425 427.49073,160.71183 L 427.49073,160.71183 z M 466.2465,168.98325 C 466.24647,171.96501 465.89252,174.81596 465.18464,177.53613 C 464.47671,180.25632 463.47057,182.45509 462.16623,184.13246 C 460.07944,186.92656 457.06132,188.32361 453.11184,188.32361 C 450.46557,188.32361 448.28556,187.78344 446.57181,186.7031 C 444.85804,185.62276 443.44223,183.9272 442.32437,181.6164 C 441.54197,180.0141 440.90855,178.06721 440.42411,175.77575 C 439.93966,173.4843 439.69743,171.22014 439.69744,168.98325 C 439.69743,165.89123 440.06077,163.02236 440.78744,160.37664 C 441.51411,157.73097 442.51086,155.51372 443.77771,153.72487 C 444.89557,152.3091 446.2278,151.25633 447.7744,150.56659 C 449.32098,149.87691 451.17461,149.53206 453.3353,149.53202 C 455.71999,149.53206 457.75075,150.07251 459.42757,151.15338 C 461.10434,152.23433 462.5392,153.9296 463.73215,156.23922 C 464.51452,157.91662 465.12917,159.87317 465.57612,162.10888 C 466.02301,164.34464 466.24647,166.63609 466.2465,168.98325 L 466.2465,168.98325 z M 460.32226,168.98325 C 460.32224,166.86012 460.13602,164.89476 459.76361,163.08716 C 459.39115,161.2796 458.83194,159.74239 458.08596,158.47553 C 457.49004,157.50666 456.81028,156.79876 456.04667,156.35181 C 455.28302,155.90492 454.34228,155.64393 453.22443,155.56884 C 451.77107,155.49496 450.55995,155.83043 449.59107,156.57527 C 448.62217,157.32016 447.82101,158.53128 447.1876,160.20862 C 446.70315,161.32651 446.33981,162.67722 446.0976,164.26075 C 445.85536,165.84432 445.73425,167.41849 445.73426,168.98325 C 445.73425,170.99611 445.92047,172.93418 446.29291,174.79747 C 446.66533,176.66078 447.22398,178.18832 447.96886,179.3801 C 448.56588,180.349 449.27407,181.07567 450.09343,181.56011 C 450.91277,182.04457 451.91891,182.28679 453.11184,182.28678 C 454.49011,182.28679 455.63584,181.91436 456.54903,181.16948 C 457.46218,180.42463 458.23548,179.21351 458.86892,177.53613 C 459.0554,177.05169 459.2419,176.4649 459.42842,175.77575 C 459.6149,175.08662 459.77325,174.35995 459.90349,173.59573 C 460.03367,172.83155 460.13602,172.05826 460.21053,171.27585 C 460.28499,170.49347 460.32224,169.72927 460.32226,168.98325 L 460.32226,168.98325 z M 474.54009,187.65323 L 474.54009,150.2024 L 480.46604,150.2024 L 480.46604,182.11961 L 497.79355,182.11961 L 497.79355,187.65323 L 474.54009,187.65323 z M 503.36129,187.65323 L 503.36129,150.2024 L 509.39812,150.2024 L 509.39812,187.65323 L 503.36129,187.65323 z M 538.55194,187.65323 L 524.24369,162.27605 L 524.24369,187.65323 L 518.31774,187.65323 L 518.31774,150.2024 L 524.24369,150.2024 L 537.88156,174.12624 L 537.88156,150.2024 L 543.80751,150.2024 L 543.80751,187.65323 L 538.55194,187.65323 z M 574.78653,187.65323 L 571.09688,177.1455 L 559.41557,177.1455 L 555.72592,187.65323 L 549.40935,187.65323 L 562.32225,150.2024 L 568.1902,150.2024 L 581.10311,187.65323 L 574.78653,187.65323 z M 565.33981,160.59925 L 561.483,171.10868 L 568.97316,171.10868 L 565.33981,160.59925 z "
   id="text2177" />
</svg>