<?xml version="1.0" encoding="UTF-8" standalone="no"?>
<!-- Created with Inkscape (http://www.inkscape.org/) -->
<svg
   xmlns:dc="http://purl.org/dc/elements/1.1/"
   xmlns:cc="http://web.resource.org/cc/"
   xmlns:rdf="http://www.w3.org/1999/02/22-rdf-syntax-ns#"
   xmlns:svg="http://www.w3.org/2000/svg"
   xmlns="http://www.w3.org/2000/svg"
   xmlns:sodipodi="http://sodipodi.sourceforge.net/DTD/sodipodi-0.dtd"
   xmlns:inkscape="http://www.inkscape.org/namespaces/inkscape"
   version="1.0"
   width="601"
   height="601"
   viewBox="0 0 600 599.99902"
   id="Layer_1"
   xml:space="preserve"
   sodipodi:version="0.32"
   inkscape:version="0.45"
   sodipodi:docname="I-38.svg"
   sodipodi:docbase="C:\Documents and Settings\ltljltlj\Desktop\Signs\Interstate Shields"
   inkscape:output_extension="org.inkscape.output.svg.inkscape"
   sodipodi:modified="true"><metadata
   id="metadata36"><rdf:RDF><cc:Work
       rdf:about=""><dc:format>image/svg+xml</dc:format><dc:type
         rdf:resource="http://purl.org/dc/dcmitype/StillImage" /></cc:Work></rdf:RDF></metadata><sodipodi:namedview
   inkscape:window-height="968"
   inkscape:window-width="1280"
   inkscape:pageshadow="2"
   inkscape:pageopacity="0.0"
   guidetolerance="10.0"
   gridtolerance="10.0"
   objecttolerance="10.0"
   borderopacity="1.0"
   bordercolor="#666666"
   pagecolor="#ffffff"
   id="base"
   width="601px"
   height="601px"
   inkscape:zoom="1.2845255"
   inkscape:cx="300.49997"
   inkscape:cy="299.49944"
   inkscape:window-x="-4"
   inkscape:window-y="-4"
   inkscape:current-layer="Layer_1" /><defs
   id="defs1659">
	
	
	
	
</defs>
<g
   transform="matrix(0.9983361,0,0,0.9983377,0.4991681,0.4986859)"
   style="fill:#ffffff;fill-opacity:1;stroke:#000000;stroke-width:0.99999928;stroke-miterlimit:4;stroke-dasharray:none;stroke-opacity:1"
   id="g1600">
		<path
   id="path1602"
   style="fill:#ffffff;fill-opacity:1;stroke:#000000;stroke-width:0.99999928;stroke-miterlimit:4;stroke-dasharray:none;stroke-opacity:1"
   d="M 80.75293,0 C 115.42871,10.583496 152.23779,16.276856 190.37695,16.276856 C 228.51563,16.276856 265.32422,10.583496 300,0.0004883 C 334.67578,10.583496 371.48438,16.276856 409.62305,16.276856 C 447.76172,16.276856 484.57129,10.583496 519.24707,0 C 569.8125,63.908203 600,144.67822 600,232.5 C 600,413.92383 471.16992,565.25391 300,599.99902 C 128.83008,565.25391 0,413.92383 0,232.5 C 0,144.67822 30.187988,63.907715 80.75293,0 z " />
		
			<path
   id="path1604"
   style="fill:#ffffff;fill-opacity:1;stroke:#000000;stroke-width:0.99999928;stroke-linecap:round;stroke-linejoin:round;stroke-miterlimit:4;stroke-dasharray:none;stroke-opacity:1"
   d="M 80.75293,0 C 115.42871,10.583496 152.23779,16.276856 190.37695,16.276856 C 228.51563,16.276856 265.32422,10.583496 300,0.0004883 C 334.67578,10.583496 371.48438,16.276856 409.62305,16.276856 C 447.76172,16.276856 484.57129,10.583496 519.24707,0 C 569.8125,63.908203 600,144.67822 600,232.5 C 600,413.92383 471.16992,565.25391 300,599.99902 C 128.83008,565.25391 0,413.92383 0,232.5 C 0,144.67822 30.187988,63.907715 80.75293,0 z " />
	</g><g
   style="fill:#003f87;fill-opacity:1;stroke:none;stroke-opacity:1"
   transform="matrix(1.0070935,0,0,1.0102847,-2.1280324,-3.66885)"
   id="g1606">
		<path
   id="path1608"
   style="fill:#003f87;fill-opacity:1;stroke:none;stroke-opacity:1"
   d="M 15,232.5 C 15,200.521 19.169434,169.51611 26.994629,139.99902 L 573.00586,139.99902 C 580.83008,169.51611 585,200.521 585,232.5 C 585,405.60547 462.82617,550.17188 300,584.67676 C 137.17432,550.17188 15,405.60547 15,232.5 z " />
	</g><g
   style="fill:#af1e2d;fill-opacity:1;stroke:none;stroke-opacity:1"
   transform="matrix(1.0125461,0,0,1.0271486,-3.7638021,-3.1017482)"
   id="g1610">
		<path
   id="path1612"
   style="fill:#af1e2d;fill-opacity:1;stroke:none;stroke-opacity:1"
   d="M 31.324219,124.99902 C 43.579102,85.77832 62.362793,49.44043 86.402832,17.259766 C 119.50439,26.392578 154.37061,31.272461 190.37695,31.272461 C 228.4375,31.272461 265.22461,25.820801 300,15.654785 C 334.77539,25.820801 371.5625,31.272461 409.62305,31.272461 C 445.62891,31.272461 480.49609,26.392578 513.59766,17.259766 C 537.63672,49.44043 556.4209,85.77832 568.67578,124.99902 L 31.324219,124.99902 L 31.324219,124.99902 z " />
	</g>




<path
   style="font-size:373.12530518px;font-style:normal;font-variant:normal;font-weight:normal;font-stretch:normal;text-align:center;line-height:125%;writing-mode:lr-tb;text-anchor:middle;fill:#ffffff;fill-opacity:1;font-family:Roadgeek 2005 Series D"
   d="M 274.63817,358.0636 C 274.63799,370.72762 272.52735,382.39872 268.30627,393.07699 C 264.08481,403.75536 258.18678,412.88193 250.61215,420.45678 C 243.0372,428.03166 233.97322,433.99226 223.42016,438.33861 C 212.86685,442.68497 201.25835,444.85814 188.59465,444.85814 C 178.40893,444.85814 168.90918,443.24389 160.09536,440.01538 C 151.28138,436.78689 143.21019,432.31738 135.88176,426.60686 C 128.55321,420.89636 122.28194,413.94295 117.06791,405.7466 C 111.85381,397.55034 108.00389,388.36312 105.51814,378.18494 L 144.25988,367.01021 C 147.24579,379.17401 152.71185,388.48438 160.65808,394.94134 C 168.60414,401.3984 178.53777,404.6269 190.45898,404.62686 C 197.15835,404.6269 203.24016,403.50905 208.70444,401.27331 C 214.16847,399.03765 218.82551,395.99671 222.67556,392.1505 C 226.52536,388.30438 229.56815,383.71173 231.80399,378.3725 C 234.03953,373.03341 235.15736,367.13532 235.15751,360.67824 C 235.15736,354.22132 233.91447,348.13566 231.42884,342.42126 C 228.94293,336.70705 225.46814,332.23566 221.00449,329.00704 C 219.51138,328.01435 218.20597,327.20722 217.08825,326.58567 C 215.97028,325.96433 214.60424,325.53046 212.99014,325.28404 C 211.37577,325.03784 209.26513,324.78963 206.65822,324.53942 C 204.05107,324.28944 200.38682,324.04314 195.66548,323.8005 L 191.1979,323.8005 L 191.1979,283.56922 L 191.1979,284.68329 L 192.31194,284.68329 L 193.06223,284.68329 L 200.88333,284.68329 C 208.83314,284.68344 214.91875,282.57279 219.14016,278.35131 C 223.36129,274.13016 225.47194,268.04453 225.47208,260.09433 C 225.47194,250.409 222.05778,242.40027 215.22961,236.0681 C 208.40116,229.73635 199.89421,226.57038 189.7087,226.57016 C 173.0736,226.57038 160.53106,234.76668 152.08099,251.15909 L 115.20357,237.36974 C 121.66049,221.47752 131.40846,208.99928 144.44745,199.93498 C 157.48635,190.87115 172.20207,186.33912 188.59465,186.33886 C 199.02268,186.33912 208.89377,188.32662 218.20799,192.30138 C 227.52194,196.27663 235.65565,201.74083 242.60916,208.694 C 249.56235,215.64765 255.02462,223.77953 258.99597,233.0897 C 262.96697,242.40027 264.95256,252.27335 264.95274,262.70898 C 264.95256,270.15896 263.95977,276.86416 261.97436,282.82462 C 259.98859,288.78537 256.26371,295.73688 250.79973,303.67919 C 255.52102,307.90061 259.37093,311.93625 262.3495,315.78608 C 265.3277,319.63616 267.74906,323.67179 269.61358,327.89299 C 271.47772,332.11441 272.78123,336.64643 273.52412,341.48909 C 274.26663,346.33193 274.63799,351.85677 274.63817,358.0636 L 274.63817,358.0636 z M 494.48174,266.06253 C 494.48154,283.19803 492.18335,300.27082 487.58711,317.28097 C 482.99051,334.29136 476.47105,350.61956 468.02867,366.2656 C 459.58596,381.91179 449.40603,396.43817 437.48884,409.84476 C 425.57138,423.25143 412.40929,434.92255 398.0025,444.85814 L 379.00675,411.33396 C 386.45643,405.37718 393.09906,399.60415 398.93465,394.01485 C 404.77007,388.42564 410.04666,382.65071 414.76445,376.69004 C 419.482,370.7295 423.82831,364.39755 427.80341,357.69415 C 431.77824,350.99091 435.62627,343.53921 439.34749,335.33902 C 432.14769,336.58201 426.62292,337.45166 422.77311,337.94796 C 418.92308,338.44446 414.51613,338.69266 409.55226,338.69256 C 397.88114,338.69266 386.89219,336.70705 376.5854,332.73575 C 366.27844,328.76464 357.27509,323.36485 349.5753,316.53637 C 341.8754,309.70813 335.7917,301.63687 331.32415,292.32257 C 326.85655,283.00857 324.62276,273.13737 324.62279,262.70898 C 324.62276,252.03084 326.85655,242.0346 331.32415,232.72024 C 335.7917,223.40628 341.81288,215.33502 349.38773,208.50644 C 356.96247,201.67831 365.9033,196.27663 376.21026,192.30138 C 386.51705,188.32662 397.63105,186.33912 409.55226,186.33886 C 421.47327,186.33912 432.64788,188.38914 443.07616,192.48895 C 453.50414,196.58925 462.50562,202.1766 470.08058,209.25104 C 477.6552,216.32593 483.61575,224.70603 487.96226,234.39133 C 492.30839,244.07703 494.48154,254.63411 494.48174,266.06253 L 494.48174,266.06253 z M 454.98971,262.70898 C 454.98956,257.98765 453.74855,253.39121 451.26672,248.91962 C 448.78458,244.44841 445.49548,240.59845 441.3994,237.36974 C 437.30303,234.14144 432.52283,231.53438 427.05881,229.54856 C 421.59452,227.56318 415.75901,226.57038 409.55226,226.57016 C 403.34528,226.57038 397.57231,227.50254 392.23329,229.36667 C 386.89408,231.23123 382.17451,233.77766 378.07459,237.00596 C 373.9745,240.23467 370.74602,244.08273 368.38914,248.55015 C 366.03213,253.01795 364.85367,257.73756 364.85374,262.70898 C 364.85367,267.67317 366.03213,272.32834 368.38914,276.67454 C 370.74602,281.02105 373.9745,284.80849 378.07459,288.03684 C 382.17451,291.26549 386.89408,293.81002 392.23329,295.67043 C 397.57231,297.53114 403.34528,298.46142 409.55226,298.46128 C 415.75901,298.46142 421.65705,297.53114 427.24638,295.67043 C 432.83545,293.81002 437.67817,291.26549 441.77453,288.03684 C 445.87062,284.80849 449.0972,281.02105 451.45429,276.67454 C 453.81107,272.32834 454.98956,267.67317 454.98971,262.70898 L 454.98971,262.70898 z "
   id="text5085" />
<path
   style="font-size:93.21589661px;font-style:normal;font-variant:normal;font-weight:normal;font-stretch:normal;text-align:center;line-height:125%;writing-mode:lr-tb;text-anchor:middle;fill:#ffffff;fill-opacity:1;font-family:Roadgeek 2005 Series C"
   d="M 108.86859,112.81165 L 108.86859,50.416161 L 117.60967,50.416161 L 117.60967,112.81165 L 108.86859,112.81165 z M 159.56965,112.81165 L 140.31942,70.997717 L 140.31942,112.81165 L 131.39104,112.81165 L 131.39104,50.416161 L 140.31942,50.416161 L 157.42977,87.853449 L 157.42977,50.416161 L 166.35816,50.416161 L 166.35816,112.81165 L 159.56965,112.81165 z M 195.41654,58.706192 L 195.41654,112.81165 L 186.39735,112.81165 L 186.39735,58.706192 L 175.05098,58.706192 L 175.05098,50.416161 L 206.7629,50.416161 L 206.7629,58.706192 L 195.41654,58.706192 z M 215.30532,112.81165 L 215.30532,50.416161 L 244.59927,50.416161 L 244.59927,59.172274 L 224.2337,59.172274 L 224.2337,74.908269 L 237.16084,74.908269 L 237.16084,83.476813 L 224.2337,83.476813 L 224.2337,104.05837 L 247.01726,104.05837 L 247.01726,112.81165 L 215.30532,112.81165 z M 283.20473,112.81165 L 274.92624,83.476813 L 266.37247,83.476813 L 266.37247,112.81165 L 257.4441,112.81165 L 257.4441,50.416161 L 276.04442,50.416161 C 278.46238,50.416224 280.67885,50.819784 282.69389,51.62684 C 284.70884,52.434021 286.44475,53.551862 287.90163,54.980368 C 289.35844,56.408988 290.47425,58.162956 291.24907,60.242277 C 292.02379,62.321703 292.41119,64.60333 292.41123,67.087165 C 292.41119,70.812085 291.66716,73.978511 290.17914,76.586455 C 288.69102,79.19447 286.45894,81.056433 283.48285,82.172347 L 292.41123,112.81165 L 283.20473,112.81165 z M 283.67015,67.087165 C 283.67012,64.665853 282.92609,62.741367 281.43805,61.313699 C 279.94996,59.886136 277.99694,59.172328 275.579,59.172274 L 266.37247,59.172274 L 266.37247,74.908269 L 275.579,74.908269 C 278.18236,74.908307 280.18173,74.240918 281.57712,72.906101 C 282.97244,71.571363 283.67012,69.631721 283.67015,67.087165 L 283.67015,67.087165 z M 334.56419,95.768339 C 334.56416,98.31476 334.11481,100.6897 333.21614,102.89316 C 332.31739,105.09665 331.07766,107.00549 329.49693,108.61973 C 327.91613,110.23398 326.08704,111.52233 324.00964,112.48482 C 321.93219,113.4473 319.68449,113.92853 317.26652,113.92853 C 314.53824,113.92853 312.08951,113.40088 309.92033,112.34556 C 307.75114,111.29024 305.92252,109.86263 304.43447,108.0627 C 302.9464,106.26279 301.79937,104.18295 300.99337,101.82315 C 300.18737,99.463388 299.78437,97.011244 299.78438,94.466716 L 308.52546,94.466716 C 308.52544,95.770251 308.69573,97.058136 309.0363,98.330376 C 309.37684,99.602646 309.90376,100.75127 310.61707,101.77627 C 311.33035,102.80129 312.22952,103.62404 313.3146,104.24452 C 314.39964,104.86503 315.71694,105.17527 317.26652,105.17526 C 318.44523,105.17527 319.57711,104.92707 320.66221,104.43067 C 321.74724,103.93429 322.67716,103.25127 323.45197,102.38161 C 324.22672,101.51197 324.84634,100.50307 325.31087,99.354907 C 325.77533,98.206766 326.00757,97.011244 326.0076,95.768339 C 326.00757,93.968443 325.63579,92.37031 324.89226,90.973934 C 324.14867,89.577602 322.84697,88.165144 320.98716,86.736554 C 320.67685,86.425859 320.55292,86.254867 320.61538,86.223579 C 320.6778,86.192343 320.49191,86.021825 320.05771,85.712023 C 319.62347,85.402277 318.70868,84.796937 317.31335,83.896004 C 315.91798,82.995129 313.63953,81.459044 310.478,79.287747 C 307.93703,77.548497 306.03083,75.514594 304.75942,73.186035 C 303.48797,70.857556 302.85226,68.296942 302.85226,65.504186 C 302.85226,63.268552 303.25526,61.173074 304.06128,59.217745 C 304.86725,57.262525 305.99866,55.539819 307.45551,54.049621 C 308.91235,52.559541 310.60192,51.395283 312.52421,50.556838 C 314.44647,49.718521 316.52295,49.29933 318.75365,49.299267 C 320.98618,49.29933 323.04799,49.70289 324.93908,50.509945 C 326.83013,51.317127 328.47286,52.434967 329.86729,53.863473 C 331.26166,55.292095 332.37747,56.999643 333.21474,58.986126 C 334.0519,60.972715 334.50173,63.1454 334.56419,65.504186 L 326.0076,65.504186 C 325.88459,63.331075 325.14102,61.592738 323.77692,60.289169 C 322.41275,58.985706 320.73833,58.333948 318.75365,58.333894 C 316.70836,58.333948 314.97291,59.016967 313.54731,60.382954 C 312.12167,61.749046 311.40886,63.456122 311.40887,65.504186 C 311.40886,67.055948 311.81186,68.359465 312.61787,69.41474 C 313.42384,70.4701 314.97339,71.649518 317.26652,72.952995 C 323.28119,76.429707 327.6678,79.968432 330.42638,83.569177 C 333.1849,87.16998 334.56416,91.236364 334.56419,95.768339 L 334.56419,95.768339 z M 360.52064,58.706192 L 360.52064,112.81165 L 351.50144,112.81165 L 351.50144,58.706192 L 340.15508,58.706192 L 340.15508,50.416161 L 371.867,50.416161 L 371.867,58.706192 L 360.52064,58.706192 z M 406.44816,112.81165 L 402.07763,95.768339 L 388.68506,95.768339 L 384.59548,112.81165 L 375.57345,112.81165 L 391.10305,50.416161 L 399.84695,50.416161 L 415.37654,112.81165 L 406.44816,112.81165 z M 395.2891,69.042441 L 390.91856,87.015068 L 399.84695,87.015068 L 395.2891,69.042441 z M 439.53084,58.706192 L 439.53084,112.81165 L 430.51165,112.81165 L 430.51165,58.706192 L 419.16529,58.706192 L 419.16529,50.416161 L 450.87721,50.416161 L 450.87721,58.706192 L 439.53084,58.706192 z M 459.41964,112.81165 L 459.41964,50.416161 L 488.71358,50.416161 L 488.71358,59.172274 L 468.34802,59.172274 L 468.34802,74.908269 L 481.27515,74.908269 L 481.27515,83.476813 L 468.34802,83.476813 L 468.34802,104.05837 L 491.13157,104.05837 L 491.13157,112.81165 L 459.41964,112.81165 z "
   id="text6060" />
</svg>