<?xml version="1.0" encoding="UTF-8" standalone="no"?>
<!-- Created with Inkscape (http://www.inkscape.org/) -->
<svg
   xmlns:dc="http://purl.org/dc/elements/1.1/"
   xmlns:cc="http://web.resource.org/cc/"
   xmlns:rdf="http://www.w3.org/1999/02/22-rdf-syntax-ns#"
   xmlns:svg="http://www.w3.org/2000/svg"
   xmlns="http://www.w3.org/2000/svg"
   xmlns:sodipodi="http://sodipodi.sourceforge.net/DTD/sodipodi-0.dtd"
   xmlns:inkscape="http://www.inkscape.org/namespaces/inkscape"
   version="1.0"
   width="751"
   height="601"
   viewBox="0 0 750 599.99902"
   id="Layer_1"
   xml:space="preserve"
   sodipodi:version="0.32"
   inkscape:version="0.45"
   sodipodi:docname="I-387.svg"
   sodipodi:docbase="C:\Documents and Settings\ltljltlj\Desktop\Signs\Interstate Shields"
   inkscape:output_extension="org.inkscape.output.svg.inkscape"
   sodipodi:modified="true"><metadata
   id="metadata36"><rdf:RDF><cc:Work
       rdf:about=""><dc:format>image/svg+xml</dc:format><dc:type
         rdf:resource="http://purl.org/dc/dcmitype/StillImage" /></cc:Work></rdf:RDF></metadata><sodipodi:namedview
   inkscape:window-height="964"
   inkscape:window-width="1045"
   inkscape:pageshadow="2"
   inkscape:pageopacity="0.0"
   guidetolerance="10.0"
   gridtolerance="10.0"
   objecttolerance="10.0"
   borderopacity="1.0"
   bordercolor="#666666"
   pagecolor="#ffffff"
   id="base"
   width="751px"
   height="601px"
   inkscape:zoom="1.28"
   inkscape:cx="375"
   inkscape:cy="300"
   inkscape:window-x="-3"
   inkscape:window-y="-3"
   inkscape:current-layer="Layer_1" /><defs
   id="defs62">
	
	
	
	
</defs>
<g
   transform="matrix(0.9986685,0,0,0.9986701,0.4993342,0.3989715)"
   id="g5"
   style="fill:#ffffff;fill-opacity:1;stroke:#000000;stroke-width:0.99999899;stroke-miterlimit:4;stroke-dasharray:none;stroke-opacity:1">
		<path
   id="path7"
   style="fill:#ffffff;fill-opacity:1;stroke:#000000;stroke-width:0.99999899;stroke-miterlimit:4;stroke-dasharray:none;stroke-opacity:1"
   d="M 38.915039,0 C 92.236328,15.525391 148.625,23.849609 206.95801,23.849609 C 265.29053,23.849609 321.6792,15.525391 375,0.0004883 C 428.32031,15.525391 484.70898,23.849609 543.04199,23.849609 C 601.375,23.849609 657.76367,15.525391 711.08398,0 C 736.06445,54.121094 750,114.3877 750,177.90918 C 750,395.71777 586.16016,575.25391 375,599.99902 C 163.83887,575.25391 0,395.71777 0,177.90918 C 0,114.3877 13.935059,54.121094 38.915039,0 z " />
		
			<path
   id="path9"
   style="fill:#ffffff;fill-opacity:1;stroke:#000000;stroke-width:0.99999899;stroke-linecap:round;stroke-linejoin:round;stroke-miterlimit:4;stroke-dasharray:none;stroke-opacity:1"
   d="M 38.915039,0 C 92.236328,15.525391 148.625,23.849609 206.95801,23.849609 C 265.29053,23.849609 321.6792,15.525391 375,0.0004883 C 428.32031,15.525391 484.70898,23.849609 543.04199,23.849609 C 601.375,23.849609 657.76367,15.525391 711.08398,0 C 736.06445,54.121094 750,114.3877 750,177.90918 C 750,395.71777 586.16016,575.25391 375,599.99902 C 163.83887,575.25391 0,395.71777 0,177.90918 C 0,114.3877 13.935059,54.121094 38.915039,0 z " />
	</g><g
   transform="matrix(1.0056032,0,0,1.0101352,-2.1013652,-3.7018951)"
   id="g11"
   style="fill:#003f87;fill-opacity:1">
		<path
   id="path13"
   style="fill:#003f87;fill-opacity:1"
   d="M 15,177.90918 C 15,165.12744 15.584961,152.48242 16.729004,139.99902 L 733.27051,139.99902 C 734.41504,152.48242 735,165.12744 735,177.90918 C 735,387.42285 577.85547,560.22852 375,584.89062 C 172.14453,560.22852 15,387.42285 15,177.90918 z " />
	</g><g
   transform="matrix(1.00604,0,0,1.0270827,-2.2645005,-3.1522955)"
   id="g15"
   style="fill:#af1e2d;fill-opacity:1">
		<path
   id="path17"
   style="fill:#af1e2d;fill-opacity:1"
   d="M 47.37793,17.942871 C 98.270019,31.578125 151.76562,38.849121 206.95996,38.849121 C 265.2207,38.849121 321.58936,30.748047 375,15.611328 C 428.41113,30.748047 484.7793,38.849121 543.04004,38.849121 C 598.23438,38.849121 651.73047,31.578613 702.62109,17.942871 C 716.88281,51.567383 726.78516,87.489258 731.61719,124.99902 L 18.381836,124.99902 C 23.214844,87.489258 33.116211,51.567383 47.37793,17.942871 z " />
	</g>



<path
   style="font-size:93.28099823px;font-style:normal;font-variant:normal;font-weight:normal;font-stretch:normal;text-align:center;line-height:125%;writing-mode:lr-tb;text-anchor:middle;fill:#ffffff;fill-opacity:1;font-family:Roadgeek 2005 Series C"
   d="M 183.53777,112.74918 L 183.53777,50.332876 L 192.29397,50.332876 L 192.29397,112.74918 L 183.53777,112.74918 z M 234.32652,112.74918 L 215.04301,70.921299 L 215.04301,112.74918 L 206.09918,112.74918 L 206.09918,50.332876 L 215.04301,50.332876 L 232.18297,87.782657 L 232.18297,50.332876 L 241.1268,50.332876 L 241.1268,112.74918 L 234.32652,112.74918 z M 270.23545,58.625673 L 270.23545,112.74918 L 261.20065,112.74918 L 261.20065,58.625673 L 249.83466,58.625673 L 249.83466,50.332876 L 281.60144,50.332876 L 281.60144,58.625673 L 270.23545,58.625673 z M 290.15862,112.74918 L 290.15862,50.332876 L 319.50325,50.332876 L 319.50325,59.09191 L 299.10244,59.09191 L 299.10244,74.833157 L 312.05195,74.833157 L 312.05195,83.404561 L 299.10244,83.404561 L 299.10244,103.99298 L 321.9254,103.99298 L 321.9254,112.74918 L 290.15862,112.74918 z M 358.17549,112.74918 L 349.88269,83.404561 L 341.31412,83.404561 L 341.31412,112.74918 L 332.3703,112.74918 L 332.3703,50.332876 L 351.0028,50.332876 C 353.42494,50.332938 355.64525,50.736632 357.66375,51.543959 C 359.6822,52.351409 361.42112,53.469623 362.88052,54.898605 C 364.33984,56.327702 365.45758,58.082256 366.23374,60.16227 C 367.00981,62.24239 367.39787,64.524779 367.39791,67.009442 C 367.39787,70.735604 366.65256,73.903088 365.16196,76.511902 C 363.67129,79.120788 361.43533,80.983372 358.4541,82.099661 L 367.39791,112.74918 L 358.17549,112.74918 z M 358.64173,67.009442 C 358.6417,64.587322 357.89637,62.662194 356.40576,61.234051 C 354.9151,59.806011 352.9587,59.091964 350.53656,59.09191 L 341.31412,59.09191 L 341.31412,74.833157 L 350.53656,74.833157 C 353.14444,74.833195 355.14727,74.165584 356.54506,72.830321 C 357.9428,71.495138 358.6417,69.554847 358.64173,67.009442 L 358.64173,67.009442 z M 409.6238,95.700188 C 409.62376,98.247459 409.17363,100.62319 408.27342,102.82739 C 407.37312,105.03161 406.13124,106.94111 404.54777,108.55587 C 402.96423,110.17066 401.13196,111.45945 399.05098,112.42224 C 396.96994,113.38505 394.71835,113.86645 392.29621,113.86645 C 389.56319,113.86645 387.11023,113.33861 384.93731,112.28294 C 382.76436,111.22727 380.93257,109.79918 379.44194,107.99867 C 377.9513,106.19815 376.80229,104.11761 375.9949,101.75704 C 375.18751,99.396471 374.78382,96.943507 374.78382,94.398132 L 383.54002,94.398132 C 383.54001,95.702101 383.71058,96.990416 384.05174,98.26308 C 384.39288,99.535774 384.92071,100.68479 385.63525,101.71013 C 386.34975,102.73548 387.25049,103.5585 388.33744,104.17919 C 389.42436,104.7999 390.74394,105.11026 392.29621,105.11025 C 393.47695,105.11026 394.61079,104.86198 395.69776,104.3654 C 396.78467,103.86886 397.7162,103.18561 398.49235,102.31567 C 399.26844,101.44574 399.88914,100.4365 400.35446,99.287953 C 400.81972,98.139428 401.05236,96.943507 401.05239,95.700188 C 401.05236,93.899691 400.67995,92.301024 399.93513,90.904183 C 399.19025,89.507385 397.8863,88.094455 396.02327,86.665389 C 395.71243,86.35459 395.58828,86.18354 395.65086,86.152242 C 395.71337,86.120997 395.52716,85.950421 395.09222,85.640517 C 394.65723,85.330665 393.74087,84.725124 392.34312,83.823891 C 390.94533,82.922716 388.66293,81.386119 385.49595,79.214097 C 382.95057,77.474265 381.04108,75.439684 379.76746,73.110348 C 378.49382,70.781091 377.85701,68.219622 377.85702,65.425936 C 377.85701,63.189556 378.2607,61.093379 379.0681,59.137398 C 379.87548,57.181525 381.00886,55.458243 382.46824,53.967548 C 383.92759,52.476971 385.62007,51.312324 387.54568,50.473601 C 389.47127,49.635002 391.55134,49.215671 393.7859,49.215607 C 396.0223,49.215671 398.08768,49.619366 399.98204,50.426692 C 401.87634,51.234143 403.52192,52.352357 404.91877,53.781337 C 406.31556,55.210436 407.4333,56.918555 408.272,58.9057 C 409.11062,60.892952 409.56122,63.066363 409.6238,65.425936 L 401.05239,65.425936 C 400.92917,63.2521 400.18433,61.513183 398.81786,60.209179 C 397.45135,58.90528 395.77402,58.253304 393.7859,58.25325 C 391.73707,58.253304 389.99863,58.936552 388.57055,60.302995 C 387.14245,61.669543 386.4284,63.377188 386.42842,65.425936 C 386.4284,66.978216 386.83209,68.282167 387.63951,69.337794 C 388.44687,70.393507 389.99911,71.573317 392.29621,72.877229 C 398.32127,76.355103 402.71547,79.895009 405.47882,83.496955 C 408.24211,87.09896 409.62376,91.166701 409.6238,95.700188 L 409.6238,95.700188 z M 435.62513,58.625673 L 435.62513,112.74918 L 426.59034,112.74918 L 426.59034,58.625673 L 415.22435,58.625673 L 415.22435,50.332876 L 446.99113,50.332876 L 446.99113,58.625673 L 435.62513,58.625673 z M 481.6321,112.74918 L 477.25401,95.700188 L 463.83827,95.700188 L 459.74164,112.74918 L 450.70398,112.74918 L 466.26044,50.332876 L 475.01948,50.332876 L 490.57593,112.74918 L 481.6321,112.74918 z M 470.45374,68.965371 L 466.07565,86.943996 L 475.01948,86.943996 L 470.45374,68.965371 z M 514.77201,58.625673 L 514.77201,112.74918 L 505.73722,112.74918 L 505.73722,58.625673 L 494.37123,58.625673 L 494.37123,50.332876 L 526.13801,50.332876 L 526.13801,58.625673 L 514.77201,58.625673 z M 534.6952,112.74918 L 534.6952,50.332876 L 564.03982,50.332876 L 564.03982,59.09191 L 543.63903,59.09191 L 543.63903,74.833157 L 556.58852,74.833157 L 556.58852,83.404561 L 543.63903,83.404561 L 543.63903,103.99298 L 566.46199,103.99298 L 566.46199,112.74918 L 534.6952,112.74918 z "
   id="text7023" />

<path
   style="font-size:373.12701416px;font-style:normal;font-variant:normal;font-weight:normal;font-stretch:normal;text-align:center;line-height:125%;writing-mode:lr-tb;text-anchor:middle;fill:#ffffff;fill-opacity:1;font-family:Roadgeek 2005 Series C"
   d="M 268.37853,372.99109 C 268.37838,383.17267 266.63849,392.67378 263.15888,401.49444 C 259.67897,410.31516 254.89714,417.95509 248.81339,424.41424 C 242.72936,430.87342 235.40216,435.90352 226.83176,439.50458 C 218.26112,443.10564 209.00641,444.90617 199.06757,444.90617 C 188.88598,444.90617 179.63316,443.16819 171.30909,439.69221 C 162.98491,436.21624 155.7809,431.37188 149.69704,425.15909 C 143.61311,418.94633 138.76874,411.55469 135.16392,402.98413 C 131.55904,394.41365 129.51024,385.03764 129.01748,374.85606 L 164.04252,374.85606 C 165.03561,385.03764 168.69922,393.42052 175.03334,400.00473 C 181.36736,406.58903 189.37876,409.88114 199.06757,409.88111 C 209.25659,409.88114 217.64137,406.34074 224.22194,399.25988 C 230.80228,392.17911 234.09251,383.42285 234.09263,372.99109 C 234.09251,366.28181 233.22447,360.0084 231.4885,354.17081 C 229.75229,348.33339 227.39265,343.24074 224.40957,338.89283 C 221.42626,334.54513 218.00905,331.12981 214.15792,328.64687 C 210.30658,326.16415 206.14452,324.92273 201.67172,324.92261 L 184.15919,324.92261 L 184.15919,290.63672 L 199.06757,290.63672 C 203.54039,290.63687 206.9576,289.89203 209.31923,288.40218 C 211.68066,286.91263 214.35114,284.42789 217.33065,280.94798 C 224.53266,273.00306 228.13371,263.68959 228.13382,253.00754 C 228.13371,243.31898 225.46325,235.61651 220.12241,229.90009 C 214.78138,224.18411 207.7631,221.326 199.06757,221.32578 C 191.12243,221.326 184.8509,223.62499 180.25299,228.22276 C 175.65494,232.82096 172.85938,239.34266 171.86631,247.78789 L 136.84126,243.31878 C 137.83436,235.11616 140.06891,227.47623 143.5449,220.39898 C 147.02085,213.32217 151.49185,207.29894 156.95792,202.32924 C 162.42389,197.36002 168.75987,193.44623 175.96583,190.58789 C 183.17167,187.73003 190.87225,186.30098 199.06757,186.30072 C 208.01328,186.30098 216.33551,187.91577 224.03431,191.14511 C 231.73287,194.37493 238.37777,198.90848 243.96901,204.74574 C 249.56,210.58348 253.97035,217.41601 257.20007,225.24336 C 260.42951,233.07114 262.0443,241.45401 262.04445,250.39203 C 262.0443,260.8315 260.36697,270.52213 257.01244,279.46396 C 253.65763,288.40612 247.75758,297.72148 239.31228,307.41009 C 249.00089,316.10583 256.26744,326.04285 261.11196,337.22118 C 265.95618,348.39972 268.37838,360.32302 268.37853,372.99109 L 268.37853,372.99109 z M 437.22658,275.7397 C 437.22643,306.79236 429.71158,336.60153 414.68205,365.16731 C 399.65223,393.73324 378.47611,418.82314 351.15365,440.43707 L 331.02561,412.48526 C 336.24141,408.51274 341.5198,403.73282 346.86079,398.14544 C 352.20167,392.55816 357.23178,386.59558 361.95114,380.25765 C 366.67033,373.91985 370.89306,367.52135 374.61929,361.06211 C 378.34534,354.60303 381.32665,348.39404 383.56318,342.43514 C 380.58368,342.9356 377.91511,343.18578 375.55746,343.18568 C 373.19962,343.18578 370.65235,343.18578 367.91563,343.18568 C 346.30162,343.18578 329.22314,336.10496 316.68012,321.94321 C 304.13704,307.7817 297.8655,288.52932 297.86552,264.18599 C 297.8655,252.51116 299.4803,241.89183 302.7099,232.32796 C 305.93946,222.76452 310.59619,214.56549 316.68012,207.73083 C 322.76397,200.89663 330.15372,195.61634 338.84938,191.88995 C 347.54494,188.16406 357.23367,186.30098 367.91563,186.30072 C 390.77278,186.30098 408.0389,193.87836 419.71404,209.0329 C 431.38891,224.18789 437.22643,246.42347 437.22658,275.7397 L 437.22658,275.7397 z M 402.94068,267.90455 C 402.94056,253.75067 399.71098,242.44905 393.25194,233.99962 C 386.79267,225.55061 378.34723,221.326 367.91563,221.32578 C 356.74089,221.326 348.10974,225.17724 342.02211,232.87951 C 335.93437,240.58218 332.89052,251.01767 332.89057,264.18599 C 332.89052,277.84744 335.93437,288.58997 342.02211,296.41359 C 348.10974,304.23749 356.74089,308.14938 367.91563,308.14926 C 378.34723,308.14938 386.79267,304.54833 393.25194,297.34607 C 399.71098,290.1441 402.94056,280.33028 402.94068,267.90455 L 402.94068,267.90455 z M 620.98301,315.23387 C 620.98284,334.3613 619.92717,350.63239 617.81598,364.04719 C 615.70445,377.46216 612.03706,390.13219 606.81379,402.05733 C 600.60465,416.96197 592.84342,427.82957 583.53009,434.66021 C 574.21649,441.49085 562.47894,444.90617 548.3174,444.90617 C 533.41272,444.90617 521.30179,441.49085 511.98459,434.66021 C 502.66727,427.82957 494.90415,416.96197 488.69521,402.05733 C 483.47932,389.88201 479.81572,377.14943 477.70439,363.85956 C 475.59301,350.56984 474.53734,334.3613 474.53736,315.23387 C 474.53734,296.35687 475.59301,280.14833 477.70439,266.60817 C 479.81572,253.06838 483.47932,240.33579 488.69521,228.4104 C 495.15434,213.50602 503.04253,202.7616 512.35986,196.1771 C 521.67706,189.59311 533.6629,186.30098 548.3174,186.30072 C 562.72154,186.30098 574.51974,189.59311 583.71204,196.1771 C 592.90407,202.7616 600.60465,213.75619 606.81379,229.16093 C 609.30026,235.37012 611.47606,241.57911 613.34118,247.78789 C 615.20599,253.99707 616.69758,260.51688 617.81598,267.34733 C 618.93404,274.17815 619.74143,281.50725 620.23817,289.33466 C 620.73457,297.16238 620.98284,305.79544 620.98301,315.23387 L 620.98301,315.23387 z M 586.69713,315.23387 C 586.69699,308.27448 586.51126,301.9385 586.13991,296.22596 C 585.7683,290.51368 585.27173,285.23528 584.65021,280.39077 C 584.02842,275.54655 583.22103,270.88981 582.22801,266.42054 C 581.23476,261.95161 580.11653,257.48062 578.87335,253.00754 C 575.64365,241.8255 571.60666,233.74965 566.76242,228.77998 C 561.91793,223.81074 555.76959,221.326 548.3174,221.32578 C 532.91236,221.326 522.35558,231.63639 516.64702,252.257 C 513.65997,261.69575 511.60926,271.19685 510.49489,280.76034 C 509.3804,290.32415 508.82319,302.0617 508.82324,315.97304 C 508.82319,322.6825 509.00892,328.83272 509.38046,334.42373 C 509.75188,340.01494 510.24845,345.23269 510.87016,350.07698 C 511.49176,354.92143 512.29915,359.70326 513.29235,364.42246 C 514.28541,369.14182 515.40364,373.98428 516.64702,378.9499 C 522.35558,399.57075 532.91236,409.88114 548.3174,409.88111 C 555.76959,409.88114 561.91793,407.39642 566.76242,402.42692 C 571.60666,397.4575 575.64365,389.63183 578.87335,378.9499 C 580.35913,373.98428 581.60054,369.20436 582.5976,364.61009 C 583.5944,360.01598 584.40179,355.23415 585.0198,350.26461 C 585.63752,345.29524 586.07154,340.01494 586.32186,334.42373 C 586.57191,328.83272 586.69699,322.4361 586.69713,315.23387 L 586.69713,315.23387 z "
   id="text7029" />

</svg>