<?xml version="1.0" encoding="UTF-8" standalone="no"?>
<!-- Created with Inkscape (http://www.inkscape.org/) -->
<svg
   xmlns:dc="http://purl.org/dc/elements/1.1/"
   xmlns:cc="http://web.resource.org/cc/"
   xmlns:rdf="http://www.w3.org/1999/02/22-rdf-syntax-ns#"
   xmlns:svg="http://www.w3.org/2000/svg"
   xmlns="http://www.w3.org/2000/svg"
   xmlns:sodipodi="http://sodipodi.sourceforge.net/DTD/sodipodi-0.dtd"
   xmlns:inkscape="http://www.inkscape.org/namespaces/inkscape"
   version="1.0"
   width="601"
   height="601"
   viewBox="0 0 600 599.99902"
   id="Layer_1"
   xml:space="preserve"
   sodipodi:version="0.32"
   inkscape:version="0.45"
   sodipodi:docname="I-74.svg"
   sodipodi:docbase="C:\Documents and Settings\ltljltlj\Desktop\Signs\Interstate Shields"
   inkscape:output_extension="org.inkscape.output.svg.inkscape"
   sodipodi:modified="true"><metadata
   id="metadata36"><rdf:RDF><cc:Work
       rdf:about=""><dc:format>image/svg+xml</dc:format><dc:type
         rdf:resource="http://purl.org/dc/dcmitype/StillImage" /></cc:Work></rdf:RDF></metadata><sodipodi:namedview
   inkscape:window-height="968"
   inkscape:window-width="1280"
   inkscape:pageshadow="2"
   inkscape:pageopacity="0.0"
   guidetolerance="10.0"
   gridtolerance="10.0"
   objecttolerance="10.0"
   borderopacity="1.0"
   bordercolor="#666666"
   pagecolor="#ffffff"
   id="base"
   width="601px"
   height="601px"
   inkscape:zoom="1.2845255"
   inkscape:cx="300.49997"
   inkscape:cy="299.49944"
   inkscape:window-x="-4"
   inkscape:window-y="-4"
   inkscape:current-layer="Layer_1" /><defs
   id="defs1659">
	
	
	
	
</defs>
<g
   transform="matrix(0.9983361,0,0,0.9983377,0.4991681,0.4986859)"
   style="fill:#ffffff;fill-opacity:1;stroke:#000000;stroke-width:0.99999928;stroke-miterlimit:4;stroke-dasharray:none;stroke-opacity:1"
   id="g1600">
		<path
   id="path1602"
   style="fill:#ffffff;fill-opacity:1;stroke:#000000;stroke-width:0.99999928;stroke-miterlimit:4;stroke-dasharray:none;stroke-opacity:1"
   d="M 80.75293,0 C 115.42871,10.583496 152.23779,16.276856 190.37695,16.276856 C 228.51563,16.276856 265.32422,10.583496 300,0.0004883 C 334.67578,10.583496 371.48438,16.276856 409.62305,16.276856 C 447.76172,16.276856 484.57129,10.583496 519.24707,0 C 569.8125,63.908203 600,144.67822 600,232.5 C 600,413.92383 471.16992,565.25391 300,599.99902 C 128.83008,565.25391 0,413.92383 0,232.5 C 0,144.67822 30.187988,63.907715 80.75293,0 z " />
		
			<path
   id="path1604"
   style="fill:#ffffff;fill-opacity:1;stroke:#000000;stroke-width:0.99999928;stroke-linecap:round;stroke-linejoin:round;stroke-miterlimit:4;stroke-dasharray:none;stroke-opacity:1"
   d="M 80.75293,0 C 115.42871,10.583496 152.23779,16.276856 190.37695,16.276856 C 228.51563,16.276856 265.32422,10.583496 300,0.0004883 C 334.67578,10.583496 371.48438,16.276856 409.62305,16.276856 C 447.76172,16.276856 484.57129,10.583496 519.24707,0 C 569.8125,63.908203 600,144.67822 600,232.5 C 600,413.92383 471.16992,565.25391 300,599.99902 C 128.83008,565.25391 0,413.92383 0,232.5 C 0,144.67822 30.187988,63.907715 80.75293,0 z " />
	</g><g
   style="fill:#003f87;fill-opacity:1;stroke:none;stroke-opacity:1"
   transform="matrix(1.0070935,0,0,1.0102847,-2.1280324,-3.66885)"
   id="g1606">
		<path
   id="path1608"
   style="fill:#003f87;fill-opacity:1;stroke:none;stroke-opacity:1"
   d="M 15,232.5 C 15,200.521 19.169434,169.51611 26.994629,139.99902 L 573.00586,139.99902 C 580.83008,169.51611 585,200.521 585,232.5 C 585,405.60547 462.82617,550.17188 300,584.67676 C 137.17432,550.17188 15,405.60547 15,232.5 z " />
	</g><g
   style="fill:#af1e2d;fill-opacity:1;stroke:none;stroke-opacity:1"
   transform="matrix(1.0125461,0,0,1.0271486,-3.7638021,-3.1017482)"
   id="g1610">
		<path
   id="path1612"
   style="fill:#af1e2d;fill-opacity:1;stroke:none;stroke-opacity:1"
   d="M 31.324219,124.99902 C 43.579102,85.77832 62.362793,49.44043 86.402832,17.259766 C 119.50439,26.392578 154.37061,31.272461 190.37695,31.272461 C 228.4375,31.272461 265.22461,25.820801 300,15.654785 C 334.77539,25.820801 371.5625,31.272461 409.62305,31.272461 C 445.62891,31.272461 480.49609,26.392578 513.59766,17.259766 C 537.63672,49.44043 556.4209,85.77832 568.67578,124.99902 L 31.324219,124.99902 L 31.324219,124.99902 z " />
	</g>




<path
   style="font-size:373.12530518px;font-style:normal;font-variant:normal;font-weight:normal;font-stretch:normal;text-align:center;line-height:125%;writing-mode:lr-tb;text-anchor:middle;fill:#ffffff;fill-opacity:1;font-family:Roadgeek 2005 Series D"
   d="M 279.73119,230.29886 C 277.49533,233.02739 275.44532,235.50939 273.58116,237.74489 C 271.71665,239.9808 269.97737,242.21649 268.36331,244.452 C 266.74888,246.6879 265.07402,249.04674 263.3387,251.52857 C 261.60303,254.01076 259.7387,256.86601 257.74569,260.09433 C 246.57471,278.47274 237.07874,297.84376 229.25777,318.20747 C 221.43654,338.5714 215.41157,358.81019 211.18284,378.92386 C 210.44002,384.13803 209.69731,389.16646 208.95473,394.00917 C 208.21191,398.85197 207.65299,403.69473 207.27797,408.53745 C 206.90271,413.38024 206.59199,418.34803 206.3458,423.44087 C 206.09938,428.53374 205.97624,434.18362 205.97635,440.39054 L 165.74539,440.39054 C 165.99542,425.98353 166.86506,412.07671 168.35433,398.67005 C 169.84344,385.26346 172.0147,372.10313 174.86813,359.18903 C 177.72138,346.27509 181.38373,333.42361 185.85518,320.63453 C 190.32645,307.84568 195.66558,294.86914 201.87253,281.70486 C 206.0937,272.26961 210.68822,263.0805 215.6561,254.13752 C 220.62374,245.19489 225.34331,237.24868 229.8148,230.29886 L 110.61115,230.29886 L 110.61115,190.80649 L 279.73119,190.80649 L 279.73119,230.29886 L 279.73119,230.29886 z M 465.53929,378.18494 L 465.53929,440.39054 L 426.43377,440.39054 L 426.43377,378.18494 L 302.76252,378.18494 L 302.76252,354.71005 L 426.43377,190.80649 L 465.53929,190.80649 L 465.53929,342.42126 L 489.38912,342.42126 L 489.38912,378.18494 L 465.53929,378.18494 z M 426.43377,248.54446 L 355.28217,342.42126 L 426.43377,342.42126 L 426.43377,248.54446 z "
   id="text5085" />
<path
   transform="scale(0.9993029,1.0006976)"
   style="font-size:93.06079865px;font-style:normal;font-variant:normal;font-weight:normal;font-stretch:normal;text-align:center;line-height:125%;writing-mode:lr-tb;text-anchor:middle;fill:#ffffff;fill-opacity:1;font-family:Roadgeek 2005 Series C"
   d="M 108.94452,112.73301 L 108.94452,50.381025 L 117.69169,50.381025 L 117.69169,112.73301 L 108.94452,112.73301 z M 159.68095,112.73301 L 140.41729,70.948234 L 140.41729,112.73301 L 131.48269,112.73301 L 131.48269,50.381025 L 140.41729,50.381025 L 157.5396,87.792215 L 157.5396,50.381025 L 166.4742,50.381025 L 166.4742,112.73301 L 159.68095,112.73301 z M 195.55287,58.665276 L 195.55287,112.73301 L 186.52738,112.73301 L 186.52738,58.665276 L 175.1731,58.665276 L 175.1731,50.381025 L 206.90715,50.381025 L 206.90715,58.665276 L 195.55287,58.665276 z M 215.45551,112.73301 L 215.45551,50.381025 L 244.76989,50.381025 L 244.76989,59.131034 L 224.39012,59.131034 L 224.39012,74.85606 L 237.32627,74.85606 L 237.32627,83.418631 L 224.39012,83.418631 L 224.39012,103.98584 L 247.18956,103.98584 L 247.18956,112.73301 L 215.45551,112.73301 z M 283.40228,112.73301 L 275.11803,83.418631 L 266.5583,83.418631 L 266.5583,112.73301 L 257.62369,112.73301 L 257.62369,50.381025 L 276.23699,50.381025 C 278.65663,50.381087 280.87466,50.784365 282.89108,51.59086 C 284.90744,52.397478 286.64457,53.51454 288.10247,54.942049 C 289.56029,56.369674 290.67688,58.122419 291.45224,60.200291 C 292.22751,62.278267 292.61517,64.558304 292.61521,67.040407 C 292.61517,70.76273 291.87062,73.926949 290.38156,76.533074 C 288.89242,79.139272 286.65877,80.999937 283.6806,82.115075 L 292.61521,112.73301 L 283.40228,112.73301 z M 283.86804,67.040407 C 283.86801,64.620784 283.12346,62.697639 281.63439,61.270967 C 280.14526,59.844398 278.19087,59.131088 275.77123,59.131034 L 266.5583,59.131034 L 266.5583,74.85606 L 275.77123,74.85606 C 278.37642,74.856098 280.37719,74.189174 281.77355,72.855287 C 283.16984,71.52148 283.86801,69.583188 283.86804,67.040407 L 283.86804,67.040407 z M 334.79758,95.701588 C 334.79754,98.246234 334.34787,100.61952 333.44858,102.82144 C 332.54922,105.02339 331.30861,106.93092 329.72677,108.54402 C 328.14487,110.15714 326.3145,111.4446 324.23565,112.40641 C 322.15675,113.36822 319.90748,113.84912 317.48784,113.84913 C 314.75764,113.84912 312.30721,113.32183 310.13652,112.26725 C 307.96581,111.21267 306.13591,109.78605 304.64682,107.98739 C 303.15771,106.18873 302.00988,104.11033 301.20333,101.75219 C 300.39677,99.394062 299.99349,96.943626 299.9935,94.400873 L 308.74067,94.400873 C 308.74065,95.703499 308.91105,96.990486 309.25187,98.261839 C 309.59265,99.533221 310.11994,100.68105 310.83374,101.70533 C 311.54751,102.72963 312.44731,103.5518 313.53315,104.17186 C 314.61895,104.79193 315.93718,105.10196 317.48784,105.10196 C 318.66736,105.10196 319.80004,104.85394 320.88588,104.35788 C 321.97168,103.86184 322.90225,103.17929 323.6776,102.31025 C 324.45288,101.44122 325.07295,100.43302 325.53779,99.285656 C 326.00257,98.138314 326.23498,96.943626 326.23501,95.701588 C 326.23498,93.902947 325.86294,92.305927 325.11889,90.910525 C 324.37478,89.515166 323.07218,88.103692 321.21106,86.676099 C 320.90053,86.36562 320.77652,86.194748 320.83903,86.163481 C 320.90148,86.132268 320.71546,85.961869 320.28097,85.652283 C 319.84642,85.342751 318.931,84.737834 317.5347,83.837529 C 316.13835,82.937282 313.85831,81.402269 310.69458,79.232485 C 308.15183,77.494446 306.24431,75.461962 304.972,73.135026 C 303.69968,70.808169 303.06352,68.249341 303.06353,65.458533 C 303.06352,63.224456 303.4668,61.130439 304.27336,59.176474 C 305.07991,57.222617 306.21212,55.501111 307.66999,54.011952 C 309.12784,52.522911 310.81858,51.359463 312.74221,50.521604 C 314.66581,49.68387 316.74374,49.264972 318.97599,49.264909 C 321.21009,49.264972 323.27334,49.66825 325.16575,50.474744 C 327.0581,51.281363 328.70198,52.398425 330.09739,53.825933 C 331.49274,55.253559 332.60933,56.959918 333.44716,58.945015 C 334.28492,60.93022 334.73506,63.10139 334.79758,65.458533 L 326.23501,65.458533 C 326.11191,63.286936 325.36783,61.549811 324.00277,60.247151 C 322.63766,58.944596 320.96207,58.293292 318.97599,58.293237 C 316.92928,58.293292 315.19263,58.975835 313.76603,60.34087 C 312.33939,61.70601 311.62608,63.411896 311.6261,65.458533 C 311.62608,67.009213 312.02936,68.31182 312.83593,69.366359 C 313.64247,70.420984 315.19311,71.599579 317.48784,72.902147 C 323.5067,76.376438 327.89637,79.912695 330.65687,83.51093 C 333.4173,87.109223 334.79754,91.172772 334.79758,95.701588 L 334.79758,95.701588 z M 360.77214,58.665276 L 360.77214,112.73301 L 351.74665,112.73301 L 351.74665,58.665276 L 340.39237,58.665276 L 340.39237,50.381025 L 372.12642,50.381025 L 372.12642,58.665276 L 360.77214,58.665276 z M 406.73169,112.73301 L 402.3581,95.701588 L 388.95619,95.701588 L 384.86376,112.73301 L 375.83544,112.73301 L 391.37586,50.381025 L 400.12587,50.381025 L 415.6663,112.73301 L 406.73169,112.73301 z M 395.56485,68.99432 L 391.19126,86.954418 L 400.12587,86.954418 L 395.56485,68.99432 z M 439.83746,58.665276 L 439.83746,112.73301 L 430.81197,112.73301 L 430.81197,58.665276 L 419.45769,58.665276 L 419.45769,50.381025 L 451.19174,50.381025 L 451.19174,58.665276 L 439.83746,58.665276 z M 459.74012,112.73301 L 459.74012,50.381025 L 489.0545,50.381025 L 489.0545,59.131034 L 468.67473,59.131034 L 468.67473,74.85606 L 481.61088,74.85606 L 481.61088,83.418631 L 468.67473,83.418631 L 468.67473,103.98584 L 491.47417,103.98584 L 491.47417,112.73301 L 459.74012,112.73301 z "
   id="text6060" />
</svg>