<?xml version="1.0" encoding="UTF-8" standalone="no"?>
<!-- Created with Inkscape (http://www.inkscape.org/) -->
<svg
   xmlns:dc="http://purl.org/dc/elements/1.1/"
   xmlns:cc="http://web.resource.org/cc/"
   xmlns:rdf="http://www.w3.org/1999/02/22-rdf-syntax-ns#"
   xmlns:svg="http://www.w3.org/2000/svg"
   xmlns="http://www.w3.org/2000/svg"
   xmlns:sodipodi="http://sodipodi.sourceforge.net/DTD/sodipodi-0.dtd"
   xmlns:inkscape="http://www.inkscape.org/namespaces/inkscape"
   version="1.0"
   width="601"
   height="601"
   viewBox="0 0 600 599.99902"
   id="Layer_1"
   xml:space="preserve"
   sodipodi:version="0.32"
   inkscape:version="0.45"
   sodipodi:docname="I-81.svg"
   sodipodi:docbase="C:\Documents and Settings\ltljltlj\Desktop\Signs\Interstate Shields"
   inkscape:output_extension="org.inkscape.output.svg.inkscape"
   sodipodi:modified="true"><metadata
   id="metadata36"><rdf:RDF><cc:Work
       rdf:about=""><dc:format>image/svg+xml</dc:format><dc:type
         rdf:resource="http://purl.org/dc/dcmitype/StillImage" /></cc:Work></rdf:RDF></metadata><sodipodi:namedview
   inkscape:window-height="968"
   inkscape:window-width="1280"
   inkscape:pageshadow="2"
   inkscape:pageopacity="0.0"
   guidetolerance="10.0"
   gridtolerance="10.0"
   objecttolerance="10.0"
   borderopacity="1.0"
   bordercolor="#666666"
   pagecolor="#ffffff"
   id="base"
   width="601px"
   height="601px"
   inkscape:zoom="1.2845255"
   inkscape:cx="300.49997"
   inkscape:cy="299.49944"
   inkscape:window-x="-4"
   inkscape:window-y="-4"
   inkscape:current-layer="Layer_1" /><defs
   id="defs1659">
	
	
	
	
</defs>
<g
   transform="matrix(0.9983361,0,0,0.9983377,0.4991681,0.4986859)"
   style="fill:#ffffff;fill-opacity:1;stroke:#000000;stroke-width:0.99999928;stroke-miterlimit:4;stroke-dasharray:none;stroke-opacity:1"
   id="g1600">
		<path
   id="path1602"
   style="fill:#ffffff;fill-opacity:1;stroke:#000000;stroke-width:0.99999928;stroke-miterlimit:4;stroke-dasharray:none;stroke-opacity:1"
   d="M 80.75293,0 C 115.42871,10.583496 152.23779,16.276856 190.37695,16.276856 C 228.51563,16.276856 265.32422,10.583496 300,0.0004883 C 334.67578,10.583496 371.48438,16.276856 409.62305,16.276856 C 447.76172,16.276856 484.57129,10.583496 519.24707,0 C 569.8125,63.908203 600,144.67822 600,232.5 C 600,413.92383 471.16992,565.25391 300,599.99902 C 128.83008,565.25391 0,413.92383 0,232.5 C 0,144.67822 30.187988,63.907715 80.75293,0 z " />
		
			<path
   id="path1604"
   style="fill:#ffffff;fill-opacity:1;stroke:#000000;stroke-width:0.99999928;stroke-linecap:round;stroke-linejoin:round;stroke-miterlimit:4;stroke-dasharray:none;stroke-opacity:1"
   d="M 80.75293,0 C 115.42871,10.583496 152.23779,16.276856 190.37695,16.276856 C 228.51563,16.276856 265.32422,10.583496 300,0.0004883 C 334.67578,10.583496 371.48438,16.276856 409.62305,16.276856 C 447.76172,16.276856 484.57129,10.583496 519.24707,0 C 569.8125,63.908203 600,144.67822 600,232.5 C 600,413.92383 471.16992,565.25391 300,599.99902 C 128.83008,565.25391 0,413.92383 0,232.5 C 0,144.67822 30.187988,63.907715 80.75293,0 z " />
	</g><g
   style="fill:#003f87;fill-opacity:1;stroke:none;stroke-opacity:1"
   transform="matrix(1.0070935,0,0,1.0102847,-2.1280324,-3.66885)"
   id="g1606">
		<path
   id="path1608"
   style="fill:#003f87;fill-opacity:1;stroke:none;stroke-opacity:1"
   d="M 15,232.5 C 15,200.521 19.169434,169.51611 26.994629,139.99902 L 573.00586,139.99902 C 580.83008,169.51611 585,200.521 585,232.5 C 585,405.60547 462.82617,550.17188 300,584.67676 C 137.17432,550.17188 15,405.60547 15,232.5 z " />
	</g><g
   style="fill:#af1e2d;fill-opacity:1;stroke:none;stroke-opacity:1"
   transform="matrix(1.0125461,0,0,1.0271486,-3.7638021,-3.1017482)"
   id="g1610">
		<path
   id="path1612"
   style="fill:#af1e2d;fill-opacity:1;stroke:none;stroke-opacity:1"
   d="M 31.324219,124.99902 C 43.579102,85.77832 62.362793,49.44043 86.402832,17.259766 C 119.50439,26.392578 154.37061,31.272461 190.37695,31.272461 C 228.4375,31.272461 265.22461,25.820801 300,15.654785 C 334.77539,25.820801 371.5625,31.272461 409.62305,31.272461 C 445.62891,31.272461 480.49609,26.392578 513.59766,17.259766 C 537.63672,49.44043 556.4209,85.77832 568.67578,124.99902 L 31.324219,124.99902 L 31.324219,124.99902 z " />
	</g>




<path
   style="font-size:373.12530518px;font-style:normal;font-variant:normal;font-weight:normal;font-stretch:normal;text-align:center;line-height:125%;writing-mode:lr-tb;text-anchor:middle;fill:#ffffff;fill-opacity:1;font-family:Roadgeek 2005 Series D"
   d="M 275.43401,360.67824 C 275.43382,372.09934 273.1356,382.90081 268.53938,393.08268 C 263.94278,403.26462 257.73402,412.20555 249.91309,419.90543 C 242.09183,427.60536 233.09037,433.68911 222.90868,438.15672 C 212.72672,442.62434 201.92532,444.85814 190.50452,444.85814 C 179.07591,444.85814 168.27075,442.62434 158.089,438.15672 C 147.90709,433.68911 138.90563,427.60536 131.08458,419.90543 C 123.26343,412.20555 117.05657,403.26462 112.46398,393.08268 C 107.87132,382.90081 105.57502,372.09934 105.57504,360.67824 C 105.57502,348.75711 108.057,338.01627 113.02101,328.4557 C 117.98495,318.89534 125.06335,310.3902 134.25622,302.94026 C 122.08496,290.02639 115.99936,274.87667 115.99939,257.49107 C 115.99936,247.80574 117.98685,238.67915 121.96185,230.11129 C 125.93678,221.54383 131.33842,213.96898 138.16678,207.38669 C 144.99501,200.80486 152.87865,195.65139 161.81766,191.92623 C 170.75653,188.20157 180.31879,186.33912 190.50452,186.33886 C 200.43993,186.33912 210.00032,188.20157 219.1857,191.92623 C 228.3708,195.65139 236.37947,200.80486 243.21173,207.38669 C 250.04365,213.96898 255.50782,221.54383 259.60421,230.11129 C 263.70026,238.67915 265.74837,247.80574 265.74856,257.49107 C 265.74837,266.18396 264.07161,274.31773 260.71827,281.89244 C 257.36457,289.46747 252.58437,296.4834 246.37768,302.94026 C 256.06295,310.3902 263.32702,319.0185 268.16992,328.82515 C 273.01245,338.63203 275.43382,349.24972 275.43401,360.67824 L 275.43401,360.67824 z M 225.51762,256.37701 C 225.51747,248.1771 222.10332,241.15927 215.27515,235.32351 C 208.44671,229.48815 200.18984,226.57038 190.50452,226.57016 C 180.81897,226.57038 172.56211,229.48815 165.73389,235.32351 C 158.90551,241.15927 155.49136,248.1771 155.49143,256.37701 C 155.49136,263.827 158.90551,270.22148 165.73389,275.56048 C 172.56211,280.89979 180.81897,283.56938 190.50452,283.56922 C 200.18984,283.56938 208.44671,280.89979 215.27515,275.56048 C 222.10332,270.22148 225.51747,263.827 225.51762,256.37701 L 225.51762,256.37701 z M 235.94196,361.41717 C 235.9418,356.20313 234.70082,351.29975 232.21898,346.70699 C 229.73684,342.11443 226.44774,338.14131 222.35165,334.78767 C 218.25529,331.43421 213.4751,328.76464 208.01106,326.77891 C 202.54678,324.79342 196.71128,323.80062 190.50452,323.8005 C 184.29756,323.80062 178.52456,324.79342 173.18554,326.77891 C 167.84635,328.76464 163.12678,331.43421 159.02684,334.78767 C 154.92675,338.14131 151.69828,342.11443 149.34141,346.70699 C 146.98441,351.29975 145.80593,356.20313 145.80599,361.41717 C 145.80593,367.38163 146.98441,372.97089 149.34141,378.18494 C 151.69828,383.39911 154.92675,387.99176 159.02684,391.96294 C 163.12678,395.93418 167.84635,399.03765 173.18554,401.27331 C 178.52456,403.50905 184.29756,404.6269 190.50452,404.62686 C 196.71128,404.6269 202.60929,403.50905 208.19864,401.27331 C 213.78771,399.03765 218.63043,395.93418 222.7268,391.96294 C 226.82288,387.99176 230.04946,383.39911 232.40656,378.18494 C 234.76334,372.97089 235.9418,367.38163 235.94196,361.41717 L 235.94196,361.41717 z M 324.566,440.39054 C 325.05859,425.741 326.91914,412.33059 330.14764,400.15924 C 333.37609,387.98798 338.46889,375.94551 345.42608,364.0318 C 350.6401,354.58889 357.09515,345.83174 364.79127,337.76039 C 372.48727,329.68923 380.6816,322.4251 389.37433,315.96797 C 391.60993,314.73277 393.5974,313.43115 395.33678,312.06307 C 397.07596,310.69524 398.81337,309.38982 400.54896,308.14679 L 413.96306,301.07591 L 426.25176,293.99365 L 438.17666,287.28655 C 443.1405,284.05819 447.1742,280.02258 450.27778,275.17965 C 453.38106,270.33706 454.93278,265.30862 454.93293,260.09433 C 454.93278,255.3806 453.69178,250.97361 451.20995,246.87338 C 448.72781,242.77352 445.4387,239.23429 441.34262,236.25567 C 437.24625,233.27748 432.46606,230.91861 427.00203,229.1791 C 421.53775,227.44002 415.70224,226.57038 409.49549,226.57016 C 396.83156,226.57038 386.58722,229.55067 378.76241,235.51107 C 370.93744,241.47188 366.03219,250.1627 364.04668,261.58354 L 324.566,253.02344 C 328.78725,232.15962 338.47079,215.82953 353.61664,204.03314 C 368.76239,192.23721 387.38864,186.33912 409.49549,186.33886 C 421.41649,186.33912 432.52857,188.32662 442.83182,192.30138 C 453.13475,196.27663 462.0737,201.61578 469.64867,208.31886 C 477.22329,215.0224 483.24635,222.9061 487.71791,231.96995 C 492.18909,241.03422 494.42477,250.6591 494.42496,260.84464 C 494.42477,270.53032 492.25161,280.02826 487.90548,289.33848 C 483.55897,298.64899 477.2896,306.90782 469.09731,314.11499 C 467.11156,315.60053 465.31165,316.96468 463.69757,318.20747 C 462.08318,319.45048 460.40451,320.44329 458.66159,321.18587 L 446.37291,329.00704 L 432.9588,336.08929 L 420.67012,343.17155 C 414.70565,346.64266 409.42717,350.30316 404.83466,354.15302 C 400.24193,358.00305 396.02065,362.16374 392.17082,366.63506 C 388.32082,371.10654 384.7191,376.07435 381.36565,381.53848 C 378.01204,387.00276 374.84609,393.20967 371.86778,400.15924 L 494.42496,400.15924 L 494.42496,440.39054 L 324.566,440.39054 z "
   id="text5085" />
<path
   style="font-size:93.21589661px;font-style:normal;font-variant:normal;font-weight:normal;font-stretch:normal;text-align:center;line-height:125%;writing-mode:lr-tb;text-anchor:middle;fill:#ffffff;fill-opacity:1;font-family:Roadgeek 2005 Series C"
   d="M 108.86859,112.81165 L 108.86859,50.416161 L 117.60967,50.416161 L 117.60967,112.81165 L 108.86859,112.81165 z M 159.56965,112.81165 L 140.31942,70.997717 L 140.31942,112.81165 L 131.39104,112.81165 L 131.39104,50.416161 L 140.31942,50.416161 L 157.42977,87.853449 L 157.42977,50.416161 L 166.35816,50.416161 L 166.35816,112.81165 L 159.56965,112.81165 z M 195.41654,58.706192 L 195.41654,112.81165 L 186.39735,112.81165 L 186.39735,58.706192 L 175.05098,58.706192 L 175.05098,50.416161 L 206.7629,50.416161 L 206.7629,58.706192 L 195.41654,58.706192 z M 215.30532,112.81165 L 215.30532,50.416161 L 244.59927,50.416161 L 244.59927,59.172274 L 224.2337,59.172274 L 224.2337,74.908269 L 237.16084,74.908269 L 237.16084,83.476813 L 224.2337,83.476813 L 224.2337,104.05837 L 247.01726,104.05837 L 247.01726,112.81165 L 215.30532,112.81165 z M 283.20473,112.81165 L 274.92624,83.476813 L 266.37247,83.476813 L 266.37247,112.81165 L 257.4441,112.81165 L 257.4441,50.416161 L 276.04442,50.416161 C 278.46238,50.416224 280.67885,50.819784 282.69389,51.62684 C 284.70884,52.434021 286.44475,53.551862 287.90163,54.980368 C 289.35844,56.408988 290.47425,58.162956 291.24907,60.242277 C 292.02379,62.321703 292.41119,64.60333 292.41123,67.087165 C 292.41119,70.812085 291.66716,73.978511 290.17914,76.586455 C 288.69102,79.19447 286.45894,81.056433 283.48285,82.172347 L 292.41123,112.81165 L 283.20473,112.81165 z M 283.67015,67.087165 C 283.67012,64.665853 282.92609,62.741367 281.43805,61.313699 C 279.94996,59.886136 277.99694,59.172328 275.579,59.172274 L 266.37247,59.172274 L 266.37247,74.908269 L 275.579,74.908269 C 278.18236,74.908307 280.18173,74.240918 281.57712,72.906101 C 282.97244,71.571363 283.67012,69.631721 283.67015,67.087165 L 283.67015,67.087165 z M 334.56419,95.768339 C 334.56416,98.31476 334.11481,100.6897 333.21614,102.89316 C 332.31739,105.09665 331.07766,107.00549 329.49693,108.61973 C 327.91613,110.23398 326.08704,111.52233 324.00964,112.48482 C 321.93219,113.4473 319.68449,113.92853 317.26652,113.92853 C 314.53824,113.92853 312.08951,113.40088 309.92033,112.34556 C 307.75114,111.29024 305.92252,109.86263 304.43447,108.0627 C 302.9464,106.26279 301.79937,104.18295 300.99337,101.82315 C 300.18737,99.463388 299.78437,97.011244 299.78438,94.466716 L 308.52546,94.466716 C 308.52544,95.770251 308.69573,97.058136 309.0363,98.330376 C 309.37684,99.602646 309.90376,100.75127 310.61707,101.77627 C 311.33035,102.80129 312.22952,103.62404 313.3146,104.24452 C 314.39964,104.86503 315.71694,105.17527 317.26652,105.17526 C 318.44523,105.17527 319.57711,104.92707 320.66221,104.43067 C 321.74724,103.93429 322.67716,103.25127 323.45197,102.38161 C 324.22672,101.51197 324.84634,100.50307 325.31087,99.354907 C 325.77533,98.206766 326.00757,97.011244 326.0076,95.768339 C 326.00757,93.968443 325.63579,92.37031 324.89226,90.973934 C 324.14867,89.577602 322.84697,88.165144 320.98716,86.736554 C 320.67685,86.425859 320.55292,86.254867 320.61538,86.223579 C 320.6778,86.192343 320.49191,86.021825 320.05771,85.712023 C 319.62347,85.402277 318.70868,84.796937 317.31335,83.896004 C 315.91798,82.995129 313.63953,81.459044 310.478,79.287747 C 307.93703,77.548497 306.03083,75.514594 304.75942,73.186035 C 303.48797,70.857556 302.85226,68.296942 302.85226,65.504186 C 302.85226,63.268552 303.25526,61.173074 304.06128,59.217745 C 304.86725,57.262525 305.99866,55.539819 307.45551,54.049621 C 308.91235,52.559541 310.60192,51.395283 312.52421,50.556838 C 314.44647,49.718521 316.52295,49.29933 318.75365,49.299267 C 320.98618,49.29933 323.04799,49.70289 324.93908,50.509945 C 326.83013,51.317127 328.47286,52.434967 329.86729,53.863473 C 331.26166,55.292095 332.37747,56.999643 333.21474,58.986126 C 334.0519,60.972715 334.50173,63.1454 334.56419,65.504186 L 326.0076,65.504186 C 325.88459,63.331075 325.14102,61.592738 323.77692,60.289169 C 322.41275,58.985706 320.73833,58.333948 318.75365,58.333894 C 316.70836,58.333948 314.97291,59.016967 313.54731,60.382954 C 312.12167,61.749046 311.40886,63.456122 311.40887,65.504186 C 311.40886,67.055948 311.81186,68.359465 312.61787,69.41474 C 313.42384,70.4701 314.97339,71.649518 317.26652,72.952995 C 323.28119,76.429707 327.6678,79.968432 330.42638,83.569177 C 333.1849,87.16998 334.56416,91.236364 334.56419,95.768339 L 334.56419,95.768339 z M 360.52064,58.706192 L 360.52064,112.81165 L 351.50144,112.81165 L 351.50144,58.706192 L 340.15508,58.706192 L 340.15508,50.416161 L 371.867,50.416161 L 371.867,58.706192 L 360.52064,58.706192 z M 406.44816,112.81165 L 402.07763,95.768339 L 388.68506,95.768339 L 384.59548,112.81165 L 375.57345,112.81165 L 391.10305,50.416161 L 399.84695,50.416161 L 415.37654,112.81165 L 406.44816,112.81165 z M 395.2891,69.042441 L 390.91856,87.015068 L 399.84695,87.015068 L 395.2891,69.042441 z M 439.53084,58.706192 L 439.53084,112.81165 L 430.51165,112.81165 L 430.51165,58.706192 L 419.16529,58.706192 L 419.16529,50.416161 L 450.87721,50.416161 L 450.87721,58.706192 L 439.53084,58.706192 z M 459.41964,112.81165 L 459.41964,50.416161 L 488.71358,50.416161 L 488.71358,59.172274 L 468.34802,59.172274 L 468.34802,74.908269 L 481.27515,74.908269 L 481.27515,83.476813 L 468.34802,83.476813 L 468.34802,104.05837 L 491.13157,104.05837 L 491.13157,112.81165 L 459.41964,112.81165 z "
   id="text6060" />
</svg>