<?xml version="1.0" encoding="UTF-8" standalone="no"?>
<!-- Created with Inkscape (http://www.inkscape.org/) -->
<svg
   xmlns:dc="http://purl.org/dc/elements/1.1/"
   xmlns:cc="http://web.resource.org/cc/"
   xmlns:rdf="http://www.w3.org/1999/02/22-rdf-syntax-ns#"
   xmlns:svg="http://www.w3.org/2000/svg"
   xmlns="http://www.w3.org/2000/svg"
   xmlns:sodipodi="http://sodipodi.sourceforge.net/DTD/sodipodi-0.dtd"
   xmlns:inkscape="http://www.inkscape.org/namespaces/inkscape"
   version="1.0"
   width="601"
   height="601"
   viewBox="0 0 600 599.99902"
   id="Layer_1"
   xml:space="preserve"
   sodipodi:version="0.32"
   inkscape:version="0.45"
   sodipodi:docname="I-82.svg"
   sodipodi:docbase="C:\Documents and Settings\ltljltlj\Desktop\Signs\Interstate Shields"
   inkscape:output_extension="org.inkscape.output.svg.inkscape"
   sodipodi:modified="true"><metadata
   id="metadata36"><rdf:RDF><cc:Work
       rdf:about=""><dc:format>image/svg+xml</dc:format><dc:type
         rdf:resource="http://purl.org/dc/dcmitype/StillImage" /></cc:Work></rdf:RDF></metadata><sodipodi:namedview
   inkscape:window-height="968"
   inkscape:window-width="1280"
   inkscape:pageshadow="2"
   inkscape:pageopacity="0.0"
   guidetolerance="10.0"
   gridtolerance="10.0"
   objecttolerance="10.0"
   borderopacity="1.0"
   bordercolor="#666666"
   pagecolor="#ffffff"
   id="base"
   width="601px"
   height="601px"
   inkscape:zoom="1.2845255"
   inkscape:cx="300.49997"
   inkscape:cy="299.49944"
   inkscape:window-x="-4"
   inkscape:window-y="-4"
   inkscape:current-layer="Layer_1" /><defs
   id="defs1659">
	
	
	
	
</defs>
<g
   transform="matrix(0.9983361,0,0,0.9983377,0.4991681,0.4986859)"
   style="fill:#ffffff;fill-opacity:1;stroke:#000000;stroke-width:0.99999928;stroke-miterlimit:4;stroke-dasharray:none;stroke-opacity:1"
   id="g1600">
		<path
   id="path1602"
   style="fill:#ffffff;fill-opacity:1;stroke:#000000;stroke-width:0.99999928;stroke-miterlimit:4;stroke-dasharray:none;stroke-opacity:1"
   d="M 80.75293,0 C 115.42871,10.583496 152.23779,16.276856 190.37695,16.276856 C 228.51563,16.276856 265.32422,10.583496 300,0.0004883 C 334.67578,10.583496 371.48438,16.276856 409.62305,16.276856 C 447.76172,16.276856 484.57129,10.583496 519.24707,0 C 569.8125,63.908203 600,144.67822 600,232.5 C 600,413.92383 471.16992,565.25391 300,599.99902 C 128.83008,565.25391 0,413.92383 0,232.5 C 0,144.67822 30.187988,63.907715 80.75293,0 z " />
		
			<path
   id="path1604"
   style="fill:#ffffff;fill-opacity:1;stroke:#000000;stroke-width:0.99999928;stroke-linecap:round;stroke-linejoin:round;stroke-miterlimit:4;stroke-dasharray:none;stroke-opacity:1"
   d="M 80.75293,0 C 115.42871,10.583496 152.23779,16.276856 190.37695,16.276856 C 228.51563,16.276856 265.32422,10.583496 300,0.0004883 C 334.67578,10.583496 371.48438,16.276856 409.62305,16.276856 C 447.76172,16.276856 484.57129,10.583496 519.24707,0 C 569.8125,63.908203 600,144.67822 600,232.5 C 600,413.92383 471.16992,565.25391 300,599.99902 C 128.83008,565.25391 0,413.92383 0,232.5 C 0,144.67822 30.187988,63.907715 80.75293,0 z " />
	</g><g
   style="fill:#003f87;fill-opacity:1;stroke:none;stroke-opacity:1"
   transform="matrix(1.0070935,0,0,1.0102847,-2.1280324,-3.66885)"
   id="g1606">
		<path
   id="path1608"
   style="fill:#003f87;fill-opacity:1;stroke:none;stroke-opacity:1"
   d="M 15,232.5 C 15,200.521 19.169434,169.51611 26.994629,139.99902 L 573.00586,139.99902 C 580.83008,169.51611 585,200.521 585,232.5 C 585,405.60547 462.82617,550.17188 300,584.67676 C 137.17432,550.17188 15,405.60547 15,232.5 z " />
	</g><g
   style="fill:#af1e2d;fill-opacity:1;stroke:none;stroke-opacity:1"
   transform="matrix(1.0125461,0,0,1.0271486,-3.7638021,-3.1017482)"
   id="g1610">
		<path
   id="path1612"
   style="fill:#af1e2d;fill-opacity:1;stroke:none;stroke-opacity:1"
   d="M 31.324219,124.99902 C 43.579102,85.77832 62.362793,49.44043 86.402832,17.259766 C 119.50439,26.392578 154.37061,31.272461 190.37695,31.272461 C 228.4375,31.272461 265.22461,25.820801 300,15.654785 C 334.77539,25.820801 371.5625,31.272461 409.62305,31.272461 C 445.62891,31.272461 480.49609,26.392578 513.59766,17.259766 C 537.63672,49.44043 556.4209,85.77832 568.67578,124.99902 L 31.324219,124.99902 L 31.324219,124.99902 z " />
	</g>




<path
   style="font-size:373.12530518px;font-style:normal;font-variant:normal;font-weight:normal;font-stretch:normal;text-align:center;line-height:125%;writing-mode:lr-tb;text-anchor:middle;fill:#ffffff;fill-opacity:1;font-family:Roadgeek 2005 Series D"
   d="M 278.04315,360.67824 C 278.04296,372.09934 275.74475,382.90081 271.14853,393.08268 C 266.55192,403.26462 260.34317,412.20555 252.52225,419.90543 C 244.70097,427.60536 235.69952,433.68911 225.51783,438.15672 C 215.33586,442.62434 204.53449,444.85814 193.11367,444.85814 C 181.68507,444.85814 170.87989,442.62434 160.69815,438.15672 C 150.51624,433.68911 141.51478,427.60536 133.69373,419.90543 C 125.87258,412.20555 119.66573,403.26462 115.07313,393.08268 C 110.48048,382.90081 108.18417,372.09934 108.18419,360.67824 C 108.18417,348.75711 110.66616,338.01627 115.63016,328.4557 C 120.59409,318.89534 127.67249,310.3902 136.86537,302.94026 C 124.69412,290.02639 118.60851,274.87667 118.60854,257.49107 C 118.60851,247.80574 120.59599,238.67915 124.57101,230.11129 C 128.54592,221.54383 133.94756,213.96898 140.77592,207.38669 C 147.60416,200.80486 155.48779,195.65139 164.4268,191.92623 C 173.36566,188.20157 182.92794,186.33912 193.11367,186.33886 C 203.04909,186.33912 212.60947,188.20157 221.79485,191.92623 C 230.97995,195.65139 238.98863,200.80486 245.82087,207.38669 C 252.65281,213.96898 258.11696,221.54383 262.21337,230.11129 C 266.30941,238.67915 268.35752,247.80574 268.35771,257.49107 C 268.35752,266.18396 266.68076,274.31773 263.32742,281.89244 C 259.97372,289.46747 255.19353,296.4834 248.98683,302.94026 C 258.67209,310.3902 265.93616,319.0185 270.77907,328.82515 C 275.62159,338.63203 278.04296,349.24972 278.04315,360.67824 L 278.04315,360.67824 z M 228.12676,256.37701 C 228.12661,248.1771 224.71247,241.15927 217.88429,235.32351 C 211.05585,229.48815 202.799,226.57038 193.11367,226.57016 C 183.42813,226.57038 175.17126,229.48815 168.34304,235.32351 C 161.51466,241.15927 158.10051,248.1771 158.10058,256.37701 C 158.10051,263.827 161.51466,270.22148 168.34304,275.56048 C 175.17126,280.89979 183.42813,283.56938 193.11367,283.56922 C 202.799,283.56938 211.05585,280.89979 217.88429,275.56048 C 224.71247,270.22148 228.12661,263.827 228.12676,256.37701 L 228.12676,256.37701 z M 238.55111,361.41717 C 238.55095,356.20313 237.30996,351.29975 234.82813,346.70699 C 232.34599,342.11443 229.05689,338.14131 224.96081,334.78767 C 220.86443,331.43421 216.08424,328.76464 210.62022,326.77891 C 205.15594,324.79342 199.32042,323.80062 193.11367,323.8005 C 186.90671,323.80062 181.13371,324.79342 175.79469,326.77891 C 170.45549,328.76464 165.73592,331.43421 161.63599,334.78767 C 157.5359,338.14131 154.30742,342.11443 151.95054,346.70699 C 149.59355,351.29975 148.41508,356.20313 148.41514,361.41717 C 148.41508,367.38163 149.59355,372.97089 151.95054,378.18494 C 154.30742,383.39911 157.5359,387.99176 161.63599,391.96294 C 165.73592,395.93418 170.45549,399.03765 175.79469,401.27331 C 181.13371,403.50905 186.90671,404.6269 193.11367,404.62686 C 199.32042,404.6269 205.21846,403.50905 210.80779,401.27331 C 216.39685,399.03765 221.23958,395.93418 225.33594,391.96294 C 229.43203,387.99176 232.65861,383.39911 235.0157,378.18494 C 237.37248,372.97089 238.55095,367.38163 238.55111,361.41717 L 238.55111,361.41717 z M 491.81626,358.0636 C 491.81607,370.72762 489.70543,382.39872 485.48434,393.07699 C 481.26289,403.75536 475.36485,412.88193 467.79022,420.45678 C 460.21527,428.03166 451.15128,433.99226 440.59825,438.33861 C 430.04493,442.68497 418.43643,444.85814 405.77273,444.85814 C 395.58701,444.85814 386.08725,443.24389 377.27343,440.01538 C 368.45947,436.78689 360.38828,432.31738 353.05983,426.60686 C 345.7313,420.89636 339.46001,413.94295 334.24599,405.7466 C 329.03188,397.55034 325.18196,388.36312 322.6962,378.18494 L 361.43797,367.01021 C 364.42387,379.17401 369.88993,388.48438 377.83614,394.94134 C 385.78221,401.3984 395.71584,404.6269 407.63707,404.62686 C 414.33642,404.6269 420.41824,403.50905 425.88251,401.27331 C 431.34655,399.03765 436.00359,395.99671 439.85365,392.1505 C 443.70342,388.30438 446.74623,383.71173 448.98206,378.3725 C 451.21759,373.03341 452.33544,367.13532 452.33559,360.67824 C 452.33544,354.22132 451.09255,348.13566 448.60692,342.42126 C 446.12099,336.70705 442.64622,332.23566 438.18256,329.00704 C 436.68944,328.01435 435.38404,327.20722 434.26633,326.58567 C 433.14835,325.96433 431.78231,325.53046 430.1682,325.28404 C 428.55385,325.03784 426.44322,324.78963 423.83629,324.53942 C 421.22914,324.28944 417.56489,324.04314 412.84355,323.8005 L 408.37596,323.8005 L 408.37596,283.56922 L 408.37596,284.68329 L 409.49002,284.68329 L 410.2403,284.68329 L 418.06141,284.68329 C 426.01123,284.68344 432.09683,282.57279 436.31824,278.35131 C 440.53938,274.13016 442.65001,268.04453 442.65015,260.09433 C 442.65001,250.409 439.23585,242.40027 432.40768,236.0681 C 425.57925,229.73635 417.07229,226.57038 406.88678,226.57016 C 390.25169,226.57038 377.70913,234.76668 369.25908,251.15909 L 332.38165,237.36974 C 338.83858,221.47752 348.58652,208.99928 361.62555,199.93498 C 374.66444,190.87115 389.38014,186.33912 405.77273,186.33886 C 416.20075,186.33912 426.07187,188.32662 435.38607,192.30138 C 444.70001,196.27663 452.83372,201.74083 459.78724,208.694 C 466.74043,215.64765 472.20269,223.77953 476.17404,233.0897 C 480.14505,242.40027 482.13063,252.27335 482.13081,262.70898 C 482.13063,270.15896 481.13784,276.86416 479.15243,282.82462 C 477.16667,288.78537 473.44179,295.73688 467.97779,303.67919 C 472.69909,307.90061 476.54902,311.93625 479.52757,315.78608 C 482.50577,319.63616 484.92713,323.67179 486.79165,327.89299 C 488.6558,332.11441 489.95931,336.64643 490.7022,341.48909 C 491.44472,346.33193 491.81607,351.85677 491.81626,358.0636 L 491.81626,358.0636 z "
   id="text5085" />
<path
   style="font-size:93.21589661px;font-style:normal;font-variant:normal;font-weight:normal;font-stretch:normal;text-align:center;line-height:125%;writing-mode:lr-tb;text-anchor:middle;fill:#ffffff;fill-opacity:1;font-family:Roadgeek 2005 Series C"
   d="M 108.86859,112.81165 L 108.86859,50.416161 L 117.60967,50.416161 L 117.60967,112.81165 L 108.86859,112.81165 z M 159.56965,112.81165 L 140.31942,70.997717 L 140.31942,112.81165 L 131.39104,112.81165 L 131.39104,50.416161 L 140.31942,50.416161 L 157.42977,87.853449 L 157.42977,50.416161 L 166.35816,50.416161 L 166.35816,112.81165 L 159.56965,112.81165 z M 195.41654,58.706192 L 195.41654,112.81165 L 186.39735,112.81165 L 186.39735,58.706192 L 175.05098,58.706192 L 175.05098,50.416161 L 206.7629,50.416161 L 206.7629,58.706192 L 195.41654,58.706192 z M 215.30532,112.81165 L 215.30532,50.416161 L 244.59927,50.416161 L 244.59927,59.172274 L 224.2337,59.172274 L 224.2337,74.908269 L 237.16084,74.908269 L 237.16084,83.476813 L 224.2337,83.476813 L 224.2337,104.05837 L 247.01726,104.05837 L 247.01726,112.81165 L 215.30532,112.81165 z M 283.20473,112.81165 L 274.92624,83.476813 L 266.37247,83.476813 L 266.37247,112.81165 L 257.4441,112.81165 L 257.4441,50.416161 L 276.04442,50.416161 C 278.46238,50.416224 280.67885,50.819784 282.69389,51.62684 C 284.70884,52.434021 286.44475,53.551862 287.90163,54.980368 C 289.35844,56.408988 290.47425,58.162956 291.24907,60.242277 C 292.02379,62.321703 292.41119,64.60333 292.41123,67.087165 C 292.41119,70.812085 291.66716,73.978511 290.17914,76.586455 C 288.69102,79.19447 286.45894,81.056433 283.48285,82.172347 L 292.41123,112.81165 L 283.20473,112.81165 z M 283.67015,67.087165 C 283.67012,64.665853 282.92609,62.741367 281.43805,61.313699 C 279.94996,59.886136 277.99694,59.172328 275.579,59.172274 L 266.37247,59.172274 L 266.37247,74.908269 L 275.579,74.908269 C 278.18236,74.908307 280.18173,74.240918 281.57712,72.906101 C 282.97244,71.571363 283.67012,69.631721 283.67015,67.087165 L 283.67015,67.087165 z M 334.56419,95.768339 C 334.56416,98.31476 334.11481,100.6897 333.21614,102.89316 C 332.31739,105.09665 331.07766,107.00549 329.49693,108.61973 C 327.91613,110.23398 326.08704,111.52233 324.00964,112.48482 C 321.93219,113.4473 319.68449,113.92853 317.26652,113.92853 C 314.53824,113.92853 312.08951,113.40088 309.92033,112.34556 C 307.75114,111.29024 305.92252,109.86263 304.43447,108.0627 C 302.9464,106.26279 301.79937,104.18295 300.99337,101.82315 C 300.18737,99.463388 299.78437,97.011244 299.78438,94.466716 L 308.52546,94.466716 C 308.52544,95.770251 308.69573,97.058136 309.0363,98.330376 C 309.37684,99.602646 309.90376,100.75127 310.61707,101.77627 C 311.33035,102.80129 312.22952,103.62404 313.3146,104.24452 C 314.39964,104.86503 315.71694,105.17527 317.26652,105.17526 C 318.44523,105.17527 319.57711,104.92707 320.66221,104.43067 C 321.74724,103.93429 322.67716,103.25127 323.45197,102.38161 C 324.22672,101.51197 324.84634,100.50307 325.31087,99.354907 C 325.77533,98.206766 326.00757,97.011244 326.0076,95.768339 C 326.00757,93.968443 325.63579,92.37031 324.89226,90.973934 C 324.14867,89.577602 322.84697,88.165144 320.98716,86.736554 C 320.67685,86.425859 320.55292,86.254867 320.61538,86.223579 C 320.6778,86.192343 320.49191,86.021825 320.05771,85.712023 C 319.62347,85.402277 318.70868,84.796937 317.31335,83.896004 C 315.91798,82.995129 313.63953,81.459044 310.478,79.287747 C 307.93703,77.548497 306.03083,75.514594 304.75942,73.186035 C 303.48797,70.857556 302.85226,68.296942 302.85226,65.504186 C 302.85226,63.268552 303.25526,61.173074 304.06128,59.217745 C 304.86725,57.262525 305.99866,55.539819 307.45551,54.049621 C 308.91235,52.559541 310.60192,51.395283 312.52421,50.556838 C 314.44647,49.718521 316.52295,49.29933 318.75365,49.299267 C 320.98618,49.29933 323.04799,49.70289 324.93908,50.509945 C 326.83013,51.317127 328.47286,52.434967 329.86729,53.863473 C 331.26166,55.292095 332.37747,56.999643 333.21474,58.986126 C 334.0519,60.972715 334.50173,63.1454 334.56419,65.504186 L 326.0076,65.504186 C 325.88459,63.331075 325.14102,61.592738 323.77692,60.289169 C 322.41275,58.985706 320.73833,58.333948 318.75365,58.333894 C 316.70836,58.333948 314.97291,59.016967 313.54731,60.382954 C 312.12167,61.749046 311.40886,63.456122 311.40887,65.504186 C 311.40886,67.055948 311.81186,68.359465 312.61787,69.41474 C 313.42384,70.4701 314.97339,71.649518 317.26652,72.952995 C 323.28119,76.429707 327.6678,79.968432 330.42638,83.569177 C 333.1849,87.16998 334.56416,91.236364 334.56419,95.768339 L 334.56419,95.768339 z M 360.52064,58.706192 L 360.52064,112.81165 L 351.50144,112.81165 L 351.50144,58.706192 L 340.15508,58.706192 L 340.15508,50.416161 L 371.867,50.416161 L 371.867,58.706192 L 360.52064,58.706192 z M 406.44816,112.81165 L 402.07763,95.768339 L 388.68506,95.768339 L 384.59548,112.81165 L 375.57345,112.81165 L 391.10305,50.416161 L 399.84695,50.416161 L 415.37654,112.81165 L 406.44816,112.81165 z M 395.2891,69.042441 L 390.91856,87.015068 L 399.84695,87.015068 L 395.2891,69.042441 z M 439.53084,58.706192 L 439.53084,112.81165 L 430.51165,112.81165 L 430.51165,58.706192 L 419.16529,58.706192 L 419.16529,50.416161 L 450.87721,50.416161 L 450.87721,58.706192 L 439.53084,58.706192 z M 459.41964,112.81165 L 459.41964,50.416161 L 488.71358,50.416161 L 488.71358,59.172274 L 468.34802,59.172274 L 468.34802,74.908269 L 481.27515,74.908269 L 481.27515,83.476813 L 468.34802,83.476813 L 468.34802,104.05837 L 491.13157,104.05837 L 491.13157,112.81165 L 459.41964,112.81165 z "
   id="text6060" />
</svg>