<?xml version="1.0" encoding="UTF-8" standalone="no"?>
<!-- Created with Inkscape (http://www.inkscape.org/) -->
<svg
   xmlns:dc="http://purl.org/dc/elements/1.1/"
   xmlns:cc="http://web.resource.org/cc/"
   xmlns:rdf="http://www.w3.org/1999/02/22-rdf-syntax-ns#"
   xmlns:svg="http://www.w3.org/2000/svg"
   xmlns="http://www.w3.org/2000/svg"
   xmlns:sodipodi="http://sodipodi.sourceforge.net/DTD/sodipodi-0.dtd"
   xmlns:inkscape="http://www.inkscape.org/namespaces/inkscape"
   version="1.0"
   width="601"
   height="601"
   viewBox="0 0 600 599.99902"
   id="Layer_1"
   xml:space="preserve"
   sodipodi:version="0.32"
   inkscape:version="0.45"
   sodipodi:docname="I-83.svg"
   sodipodi:docbase="C:\Documents and Settings\ltljltlj\Desktop\Signs\Interstate Shields"
   inkscape:output_extension="org.inkscape.output.svg.inkscape"
   sodipodi:modified="true"><metadata
   id="metadata36"><rdf:RDF><cc:Work
       rdf:about=""><dc:format>image/svg+xml</dc:format><dc:type
         rdf:resource="http://purl.org/dc/dcmitype/StillImage" /></cc:Work></rdf:RDF></metadata><sodipodi:namedview
   inkscape:window-height="968"
   inkscape:window-width="1280"
   inkscape:pageshadow="2"
   inkscape:pageopacity="0.0"
   guidetolerance="10.0"
   gridtolerance="10.0"
   objecttolerance="10.0"
   borderopacity="1.0"
   bordercolor="#666666"
   pagecolor="#ffffff"
   id="base"
   width="601px"
   height="601px"
   inkscape:zoom="1.2845255"
   inkscape:cx="300.49997"
   inkscape:cy="299.49944"
   inkscape:window-x="-4"
   inkscape:window-y="-4"
   inkscape:current-layer="Layer_1" /><defs
   id="defs1659">
	
	
	
	
</defs>
<g
   transform="matrix(0.9983361,0,0,0.9983377,0.4991681,0.4986859)"
   style="fill:#ffffff;fill-opacity:1;stroke:#000000;stroke-width:0.99999928;stroke-miterlimit:4;stroke-dasharray:none;stroke-opacity:1"
   id="g1600">
		<path
   id="path1602"
   style="fill:#ffffff;fill-opacity:1;stroke:#000000;stroke-width:0.99999928;stroke-miterlimit:4;stroke-dasharray:none;stroke-opacity:1"
   d="M 80.75293,0 C 115.42871,10.583496 152.23779,16.276856 190.37695,16.276856 C 228.51563,16.276856 265.32422,10.583496 300,0.0004883 C 334.67578,10.583496 371.48438,16.276856 409.62305,16.276856 C 447.76172,16.276856 484.57129,10.583496 519.24707,0 C 569.8125,63.908203 600,144.67822 600,232.5 C 600,413.92383 471.16992,565.25391 300,599.99902 C 128.83008,565.25391 0,413.92383 0,232.5 C 0,144.67822 30.187988,63.907715 80.75293,0 z " />
		
			<path
   id="path1604"
   style="fill:#ffffff;fill-opacity:1;stroke:#000000;stroke-width:0.99999928;stroke-linecap:round;stroke-linejoin:round;stroke-miterlimit:4;stroke-dasharray:none;stroke-opacity:1"
   d="M 80.75293,0 C 115.42871,10.583496 152.23779,16.276856 190.37695,16.276856 C 228.51563,16.276856 265.32422,10.583496 300,0.0004883 C 334.67578,10.583496 371.48438,16.276856 409.62305,16.276856 C 447.76172,16.276856 484.57129,10.583496 519.24707,0 C 569.8125,63.908203 600,144.67822 600,232.5 C 600,413.92383 471.16992,565.25391 300,599.99902 C 128.83008,565.25391 0,413.92383 0,232.5 C 0,144.67822 30.187988,63.907715 80.75293,0 z " />
	</g><g
   style="fill:#003f87;fill-opacity:1;stroke:none;stroke-opacity:1"
   transform="matrix(1.0070935,0,0,1.0102847,-2.1280324,-3.66885)"
   id="g1606">
		<path
   id="path1608"
   style="fill:#003f87;fill-opacity:1;stroke:none;stroke-opacity:1"
   d="M 15,232.5 C 15,200.521 19.169434,169.51611 26.994629,139.99902 L 573.00586,139.99902 C 580.83008,169.51611 585,200.521 585,232.5 C 585,405.60547 462.82617,550.17188 300,584.67676 C 137.17432,550.17188 15,405.60547 15,232.5 z " />
	</g><g
   style="fill:#af1e2d;fill-opacity:1;stroke:none;stroke-opacity:1"
   transform="matrix(1.0125461,0,0,1.0271486,-3.7638021,-3.1017482)"
   id="g1610">
		<path
   id="path1612"
   style="fill:#af1e2d;fill-opacity:1;stroke:none;stroke-opacity:1"
   d="M 31.324219,124.99902 C 43.579102,85.77832 62.362793,49.44043 86.402832,17.259766 C 119.50439,26.392578 154.37061,31.272461 190.37695,31.272461 C 228.4375,31.272461 265.22461,25.820801 300,15.654785 C 334.77539,25.820801 371.5625,31.272461 409.62305,31.272461 C 445.62891,31.272461 480.49609,26.392578 513.59766,17.259766 C 537.63672,49.44043 556.4209,85.77832 568.67578,124.99902 L 31.324219,124.99902 L 31.324219,124.99902 z " />
	</g>




<path
   style="font-size:373.12530518px;font-style:normal;font-variant:normal;font-weight:normal;font-stretch:normal;text-align:center;line-height:125%;writing-mode:lr-tb;text-anchor:middle;fill:#ffffff;fill-opacity:1;font-family:Roadgeek 2005 Series D"
   d="M 276.73584,360.67824 C 276.73565,372.09934 274.43743,382.90081 269.84121,393.08268 C 265.2446,403.26462 259.03585,412.20555 251.21492,419.90543 C 243.39366,427.60536 234.3922,433.68911 224.21051,438.15672 C 214.02855,442.62434 203.22716,444.85814 191.80635,444.85814 C 180.37774,444.85814 169.57258,442.62434 159.39082,438.15672 C 149.20892,433.68911 140.20746,427.60536 132.38641,419.90543 C 124.56526,412.20555 118.3584,403.26462 113.76581,393.08268 C 109.17316,382.90081 106.87685,372.09934 106.87687,360.67824 C 106.87685,348.75711 109.35884,338.01627 114.32284,328.4557 C 119.28678,318.89534 126.36517,310.3902 135.55805,302.94026 C 123.38679,290.02639 117.30119,274.87667 117.30123,257.49107 C 117.30119,247.80574 119.28868,238.67915 123.26368,230.11129 C 127.23861,221.54383 132.64025,213.96898 139.46861,207.38669 C 146.29685,200.80486 154.18047,195.65139 163.11948,191.92623 C 172.05835,188.20157 181.62063,186.33912 191.80635,186.33886 C 201.74176,186.33912 211.30215,188.20157 220.48753,191.92623 C 229.67263,195.65139 237.6813,200.80486 244.51355,207.38669 C 251.34548,213.96898 256.80964,221.54383 260.90605,230.11129 C 265.00209,238.67915 267.0502,247.80574 267.05039,257.49107 C 267.0502,266.18396 265.37344,274.31773 262.0201,281.89244 C 258.6664,289.46747 253.88621,296.4834 247.67951,302.94026 C 257.36478,310.3902 264.62885,319.0185 269.47175,328.82515 C 274.31428,338.63203 276.73565,349.24972 276.73584,360.67824 L 276.73584,360.67824 z M 226.81945,256.37701 C 226.8193,248.1771 223.40514,241.15927 216.57697,235.32351 C 209.74853,229.48815 201.49167,226.57038 191.80635,226.57016 C 182.12081,226.57038 173.86394,229.48815 167.03573,235.32351 C 160.20734,241.15927 156.79319,248.1771 156.79326,256.37701 C 156.79319,263.827 160.20734,270.22148 167.03573,275.56048 C 173.86394,280.89979 182.12081,283.56938 191.80635,283.56922 C 201.49167,283.56938 209.74853,280.89979 216.57697,275.56048 C 223.40514,270.22148 226.8193,263.827 226.81945,256.37701 L 226.81945,256.37701 z M 237.24379,361.41717 C 237.24363,356.20313 236.00265,351.29975 233.52081,346.70699 C 231.03867,342.11443 227.74957,338.14131 223.65348,334.78767 C 219.55712,331.43421 214.77693,328.76464 209.31289,326.77891 C 203.84862,324.79342 198.01311,323.80062 191.80635,323.8005 C 185.59938,323.80062 179.82639,324.79342 174.48738,326.77891 C 169.14818,328.76464 164.42861,331.43421 160.32868,334.78767 C 156.22858,338.14131 153.00011,342.11443 150.64324,346.70699 C 148.28623,351.29975 147.10776,356.20313 147.10782,361.41717 C 147.10776,367.38163 148.28623,372.97089 150.64324,378.18494 C 153.00011,383.39911 156.22858,387.99176 160.32868,391.96294 C 164.42861,395.93418 169.14818,399.03765 174.48738,401.27331 C 179.82639,403.50905 185.59938,404.6269 191.80635,404.62686 C 198.01311,404.6269 203.91113,403.50905 209.50046,401.27331 C 215.08954,399.03765 219.93226,395.93418 224.02862,391.96294 C 228.12471,387.99176 231.35129,383.39911 233.70839,378.18494 C 236.06517,372.97089 237.24363,367.38163 237.24379,361.41717 L 237.24379,361.41717 z M 469.27373,378.18494 L 469.27373,440.39054 L 430.16819,440.39054 L 430.16819,378.18494 L 306.49696,378.18494 L 306.49696,354.71005 L 430.16819,190.80649 L 469.27373,190.80649 L 469.27373,342.42126 L 493.12356,342.42126 L 493.12356,378.18494 L 469.27373,378.18494 z M 430.16819,248.54446 L 359.0166,342.42126 L 430.16819,342.42126 L 430.16819,248.54446 z "
   id="text5085" />
<path
   style="font-size:93.21589661px;font-style:normal;font-variant:normal;font-weight:normal;font-stretch:normal;text-align:center;line-height:125%;writing-mode:lr-tb;text-anchor:middle;fill:#ffffff;fill-opacity:1;font-family:Roadgeek 2005 Series C"
   d="M 108.86859,112.81165 L 108.86859,50.416161 L 117.60967,50.416161 L 117.60967,112.81165 L 108.86859,112.81165 z M 159.56965,112.81165 L 140.31942,70.997717 L 140.31942,112.81165 L 131.39104,112.81165 L 131.39104,50.416161 L 140.31942,50.416161 L 157.42977,87.853449 L 157.42977,50.416161 L 166.35816,50.416161 L 166.35816,112.81165 L 159.56965,112.81165 z M 195.41654,58.706192 L 195.41654,112.81165 L 186.39735,112.81165 L 186.39735,58.706192 L 175.05098,58.706192 L 175.05098,50.416161 L 206.7629,50.416161 L 206.7629,58.706192 L 195.41654,58.706192 z M 215.30532,112.81165 L 215.30532,50.416161 L 244.59927,50.416161 L 244.59927,59.172274 L 224.2337,59.172274 L 224.2337,74.908269 L 237.16084,74.908269 L 237.16084,83.476813 L 224.2337,83.476813 L 224.2337,104.05837 L 247.01726,104.05837 L 247.01726,112.81165 L 215.30532,112.81165 z M 283.20473,112.81165 L 274.92624,83.476813 L 266.37247,83.476813 L 266.37247,112.81165 L 257.4441,112.81165 L 257.4441,50.416161 L 276.04442,50.416161 C 278.46238,50.416224 280.67885,50.819784 282.69389,51.62684 C 284.70884,52.434021 286.44475,53.551862 287.90163,54.980368 C 289.35844,56.408988 290.47425,58.162956 291.24907,60.242277 C 292.02379,62.321703 292.41119,64.60333 292.41123,67.087165 C 292.41119,70.812085 291.66716,73.978511 290.17914,76.586455 C 288.69102,79.19447 286.45894,81.056433 283.48285,82.172347 L 292.41123,112.81165 L 283.20473,112.81165 z M 283.67015,67.087165 C 283.67012,64.665853 282.92609,62.741367 281.43805,61.313699 C 279.94996,59.886136 277.99694,59.172328 275.579,59.172274 L 266.37247,59.172274 L 266.37247,74.908269 L 275.579,74.908269 C 278.18236,74.908307 280.18173,74.240918 281.57712,72.906101 C 282.97244,71.571363 283.67012,69.631721 283.67015,67.087165 L 283.67015,67.087165 z M 334.56419,95.768339 C 334.56416,98.31476 334.11481,100.6897 333.21614,102.89316 C 332.31739,105.09665 331.07766,107.00549 329.49693,108.61973 C 327.91613,110.23398 326.08704,111.52233 324.00964,112.48482 C 321.93219,113.4473 319.68449,113.92853 317.26652,113.92853 C 314.53824,113.92853 312.08951,113.40088 309.92033,112.34556 C 307.75114,111.29024 305.92252,109.86263 304.43447,108.0627 C 302.9464,106.26279 301.79937,104.18295 300.99337,101.82315 C 300.18737,99.463388 299.78437,97.011244 299.78438,94.466716 L 308.52546,94.466716 C 308.52544,95.770251 308.69573,97.058136 309.0363,98.330376 C 309.37684,99.602646 309.90376,100.75127 310.61707,101.77627 C 311.33035,102.80129 312.22952,103.62404 313.3146,104.24452 C 314.39964,104.86503 315.71694,105.17527 317.26652,105.17526 C 318.44523,105.17527 319.57711,104.92707 320.66221,104.43067 C 321.74724,103.93429 322.67716,103.25127 323.45197,102.38161 C 324.22672,101.51197 324.84634,100.50307 325.31087,99.354907 C 325.77533,98.206766 326.00757,97.011244 326.0076,95.768339 C 326.00757,93.968443 325.63579,92.37031 324.89226,90.973934 C 324.14867,89.577602 322.84697,88.165144 320.98716,86.736554 C 320.67685,86.425859 320.55292,86.254867 320.61538,86.223579 C 320.6778,86.192343 320.49191,86.021825 320.05771,85.712023 C 319.62347,85.402277 318.70868,84.796937 317.31335,83.896004 C 315.91798,82.995129 313.63953,81.459044 310.478,79.287747 C 307.93703,77.548497 306.03083,75.514594 304.75942,73.186035 C 303.48797,70.857556 302.85226,68.296942 302.85226,65.504186 C 302.85226,63.268552 303.25526,61.173074 304.06128,59.217745 C 304.86725,57.262525 305.99866,55.539819 307.45551,54.049621 C 308.91235,52.559541 310.60192,51.395283 312.52421,50.556838 C 314.44647,49.718521 316.52295,49.29933 318.75365,49.299267 C 320.98618,49.29933 323.04799,49.70289 324.93908,50.509945 C 326.83013,51.317127 328.47286,52.434967 329.86729,53.863473 C 331.26166,55.292095 332.37747,56.999643 333.21474,58.986126 C 334.0519,60.972715 334.50173,63.1454 334.56419,65.504186 L 326.0076,65.504186 C 325.88459,63.331075 325.14102,61.592738 323.77692,60.289169 C 322.41275,58.985706 320.73833,58.333948 318.75365,58.333894 C 316.70836,58.333948 314.97291,59.016967 313.54731,60.382954 C 312.12167,61.749046 311.40886,63.456122 311.40887,65.504186 C 311.40886,67.055948 311.81186,68.359465 312.61787,69.41474 C 313.42384,70.4701 314.97339,71.649518 317.26652,72.952995 C 323.28119,76.429707 327.6678,79.968432 330.42638,83.569177 C 333.1849,87.16998 334.56416,91.236364 334.56419,95.768339 L 334.56419,95.768339 z M 360.52064,58.706192 L 360.52064,112.81165 L 351.50144,112.81165 L 351.50144,58.706192 L 340.15508,58.706192 L 340.15508,50.416161 L 371.867,50.416161 L 371.867,58.706192 L 360.52064,58.706192 z M 406.44816,112.81165 L 402.07763,95.768339 L 388.68506,95.768339 L 384.59548,112.81165 L 375.57345,112.81165 L 391.10305,50.416161 L 399.84695,50.416161 L 415.37654,112.81165 L 406.44816,112.81165 z M 395.2891,69.042441 L 390.91856,87.015068 L 399.84695,87.015068 L 395.2891,69.042441 z M 439.53084,58.706192 L 439.53084,112.81165 L 430.51165,112.81165 L 430.51165,58.706192 L 419.16529,58.706192 L 419.16529,50.416161 L 450.87721,50.416161 L 450.87721,58.706192 L 439.53084,58.706192 z M 459.41964,112.81165 L 459.41964,50.416161 L 488.71358,50.416161 L 488.71358,59.172274 L 468.34802,59.172274 L 468.34802,74.908269 L 481.27515,74.908269 L 481.27515,83.476813 L 468.34802,83.476813 L 468.34802,104.05837 L 491.13157,104.05837 L 491.13157,112.81165 L 459.41964,112.81165 z "
   id="text6060" />
</svg>