<?xml version="1.0" encoding="UTF-8" standalone="no"?>
<!-- Created with Inkscape (http://www.inkscape.org/) -->
<svg
   xmlns:dc="http://purl.org/dc/elements/1.1/"
   xmlns:cc="http://web.resource.org/cc/"
   xmlns:rdf="http://www.w3.org/1999/02/22-rdf-syntax-ns#"
   xmlns:svg="http://www.w3.org/2000/svg"
   xmlns="http://www.w3.org/2000/svg"
   xmlns:sodipodi="http://inkscape.sourceforge.net/DTD/sodipodi-0.dtd"
   xmlns:inkscape="http://www.inkscape.org/namespaces/inkscape"
   width="750"
   height="600"
   id="svg2"
   sodipodi:version="0.32"
   inkscape:version="0.43"
   version="1.0"
   sodipodi:docbase="C:\Documents and Settings\ltljltlj\Desktop\State Route Shields\Arizona"
   sodipodi:docname="Arizona 89A.svg">
  <defs
     id="defs4" />
  <sodipodi:namedview
     id="base"
     pagecolor="#ffffff"
     bordercolor="#666666"
     borderopacity="1.0"
     inkscape:pageopacity="0.0"
     inkscape:pageshadow="2"
     inkscape:zoom="1.092"
     inkscape:cx="375"
     inkscape:cy="300"
     inkscape:document-units="px"
     inkscape:current-layer="layer1"
     inkscape:window-width="910"
     inkscape:window-height="965"
     inkscape:window-x="364"
     inkscape:window-y="-2" />
  <metadata
     id="metadata7">
    <rdf:RDF>
      <cc:Work
         rdf:about="">
        <dc:format>image/svg+xml</dc:format>
        <dc:type
           rdf:resource="http://purl.org/dc/dcmitype/StillImage" />
      </cc:Work>
    </rdf:RDF>
  </metadata>
  <g
     inkscape:label="Layer 1"
     inkscape:groupmode="layer"
     id="layer1">
    <path
       d="M 0,50 C 0,22.38574 22.38525,1.1368684e-013 50,1.1368684e-013 L 700,1.1368684e-013 C 727.61426,1.1368684e-013 750,22.38574 750,50 L 750,550 C 750,577.61523 727.61426,600 700,600 L 50,600 C 22.38525,600 0,577.61523 0,550 L 0,50 L 0,50 z "
       id="path7" />
    <path
       id="path9"
       d="" />
    <path
       style="fill:none;stroke:#000000;stroke-opacity:1"
       d="M 449.40989,580.54924 C 449.36222,580.43863 432.93698,577.73885 412.90944,574.54975 C 392.8818,571.36063 374.79844,568.47255 372.72413,568.1318 C 370.64982,567.79106 290.53287,554.99078 194.68651,539.68675 C 98.840098,524.38274 20.15697,511.80084 19.8351,511.72701 L 19.249868,511.59275 L 19.249868,308.96378 L 19.249868,106.33482 L 78.552396,106.33482 L 137.85492,106.33482 L 137.85492,62.792587 L 137.85492,19.25034 L 434.30256,19.25034 L 730.75013,19.25034 L 730.75013,300.00034 L 730.75013,580.75034 L 590.12339,580.75034 C 512.77867,580.75034 449.45767,580.65985 449.40989,580.54924 z M 108.52878,106.65978 C 92.184827,106.62282 65.440171,106.62282 49.096209,106.65978 C 32.752248,106.69675 46.124576,106.72699 78.812499,106.72699 C 111.50041,106.72699 124.87274,106.69675 108.52878,106.65978 z "
       id="path1436" />
    <path
       style="fill:#ffffff;fill-opacity:1;stroke:none;stroke-opacity:1"
       d="M 449.51441,581.04854 C 449.46667,580.93773 433.01834,578.23315 412.96267,575.03836 C 392.90689,571.84357 374.79811,568.95034 372.72089,568.60898 C 370.64367,568.26764 290.41413,555.44456 194.4331,540.11328 C 98.452065,524.78201 19.658296,512.17771 19.336014,512.10374 L 18.75,511.96925 L 18.75,308.97938 L 18.75,105.98953 L 78.135856,105.98953 L 137.52171,105.98953 L 137.52171,62.369729 L 137.52171,18.75 L 434.38584,18.75 L 731.25,18.75 L 731.25,299.99997 L 731.25,581.25 L 590.42566,581.25 C 512.97226,581.25 449.56225,581.15935 449.51441,581.04854 z M 108.15437,106.31506 C 91.787423,106.27804 65.005146,106.27804 48.638199,106.31506 C 32.271352,106.3521 45.662391,106.38239 78.396284,106.38239 C 111.13018,106.38239 124.52122,106.3521 108.15437,106.31506 z "
       id="path2311" />
    <path
       transform="scale(1.032797,0.968244)"
       style="font-size:93.01125336px;font-style:normal;font-variant:normal;font-weight:normal;font-stretch:normal;text-align:center;line-height:125%;writing-mode:lr-tb;text-anchor:middle;font-family:Roadgeek 2005 Series E"
       d="M 266.4504,115.07355 L 260.31166,100.37777 L 233.15238,100.37777 L 227.10664,115.07355 L 214.82916,115.07355 L 241.05833,52.756008 L 252.40571,52.756008 L 278.44886,115.07355 L 266.4504,115.07355 M 246.73202,68.288887 L 237.98896,89.30943 L 255.47508,89.30943 L 246.73202,68.288887 M 327.02689,115.07355 L 316.98167,90.611588 L 300.33266,90.611588 L 300.33266,115.07355 L 289.17131,115.07355 L 289.17131,52.756008 L 317.81878,52.756008 C 320.11301,52.75607 322.06625,52.942092 323.67849,53.314075 C 325.29064,53.686182 326.90283,54.368263 328.51507,55.360323 C 331.49138,56.972576 333.84766,59.235847 335.58393,62.150144 C 337.32008,65.064547 338.18818,68.288934 338.18824,71.823315 C 338.18818,75.357782 337.28908,78.582169 335.49091,81.496485 C 333.75465,84.348861 331.27435,86.643136 328.05001,88.379318 L 339.4904,115.07355 L 327.02689,115.07355 M 327.02689,71.823315 C 327.02684,69.405068 326.22075,67.482837 324.6086,66.056617 C 322.99636,64.630495 320.7951,63.917409 318.0048,63.917358 L 300.33266,63.917358 L 300.33266,79.450237 L 318.0048,79.450237 C 320.7951,79.450273 322.99636,78.768191 324.6086,77.40399 C 326.22075,75.977856 327.02684,74.117633 327.02689,71.823315 M 352.02657,115.07355 L 352.02657,52.756008 L 363.18792,52.756008 L 363.18792,115.07355 L 352.02657,115.07355 M 375.73717,115.07355 L 375.73717,102.42402 L 411.17446,63.731336 L 377.6904,63.731336 L 377.6904,52.756008 L 424.7541,52.756008 L 424.7541,65.405538 L 389.50283,103.9122 L 424.7541,103.9122 L 424.7541,115.07355 L 375.73717,115.07355 M 487.54541,83.542732 C 487.54536,88.441352 486.92528,92.905887 485.68519,96.936353 C 484.50699,100.90485 482.80179,104.31526 480.56957,107.16759 C 478.33725,110.01994 475.60892,112.25221 472.38458,113.8644 C 469.22216,115.41459 465.65673,116.18968 461.68829,116.18968 C 457.0997,116.18968 453.13123,115.25957 449.78284,113.39934 C 446.49643,111.47712 443.7681,108.99682 441.59785,105.95844 C 439.42758,102.85808 437.81539,99.385665 436.76127,95.541184 C 435.76914,91.634735 435.27308,87.728266 435.27309,83.821766 C 435.27308,78.861202 435.86215,74.396667 437.0403,70.428146 C 438.28044,66.459714 440.04766,63.080309 442.34194,60.289919 C 444.63621,57.499639 447.39554,55.360382 450.61995,53.872143 C 453.90632,52.384025 457.59576,51.639936 461.68829,51.639873 C 465.53271,51.639936 469.03613,52.415029 472.19856,53.965154 C 475.36089,55.515401 478.08922,57.685661 480.38355,60.475942 C 482.67777,63.266331 484.44498,66.645737 485.68519,70.614168 C 486.92528,74.520681 487.54536,78.830199 487.54541,83.542732 M 476.38406,83.821766 C 476.38402,77.249009 475.11286,72.102391 472.5706,68.381898 C 470.02825,64.661498 466.40082,62.801275 461.68829,62.801223 C 456.97569,62.801275 453.28624,64.661498 450.61995,68.381898 C 447.9536,72.102391 446.62044,77.249009 446.62046,83.821766 C 446.62044,90.518601 447.9536,95.727226 450.61995,99.447657 C 453.28624,103.16812 456.97569,105.02834 461.68829,105.02833 C 464.66461,105.02834 467.0829,104.37726 468.94316,103.0751 C 470.86535,101.77295 472.35353,100.09875 473.4077,98.052488 C 474.52379,96.006259 475.29889,93.742988 475.73298,91.262667 C 476.16699,88.720385 476.38402,86.240088 476.38406,83.821766 M 542.54415,115.07355 L 512.87356,72.19536 L 512.87356,115.07355 L 501.89823,115.07355 L 501.89823,52.756008 L 512.87356,52.756008 L 541.42801,93.866982 L 541.42801,52.756008 L 552.21732,52.756008 L 552.21732,115.07355 L 542.54415,115.07355 M 614.33429,115.07355 L 608.19554,100.37777 L 581.03626,100.37777 L 574.99053,115.07355 L 562.71304,115.07355 L 588.94221,52.756008 L 600.28959,52.756008 L 626.33274,115.07355 L 614.33429,115.07355 M 594.6159,68.288887 L 585.87284,89.30943 L 603.35896,89.30943 L 594.6159,68.288887"
       id="text3205" />
    <path
       transform="scale(1.000258,0.999742)"
       style="font-size:432.38830566px;font-style:normal;font-variant:normal;font-weight:normal;font-stretch:normal;text-align:center;line-height:125%;writing-mode:lr-tb;text-anchor:middle;font-family:Roadgeek 2005 Series C"
       d="M 256.78016,384.7534 C 256.77998,398.5899 254.32978,411.84979 249.42956,424.53313 C 244.52899,436.92829 237.75491,447.3056 229.10731,455.66508 C 216.42378,468.63674 198.84,475.12255 176.35593,475.12256 C 161.94291,475.12255 149.54779,472.52823 139.17054,467.33957 C 129.08143,462.15092 120.43367,454.51206 113.22724,444.42299 C 107.46203,436.35177 102.99403,427.1275 99.823204,416.75014 C 96.652338,406.37288 95.066915,395.70731 95.066933,384.7534 C 95.066915,370.34056 97.228855,357.08066 101.55276,344.97368 C 106.16487,332.57868 113.08308,321.76899 122.3074,312.54456 C 106.74139,295.53746 98.958406,275.50349 98.958427,252.44258 C 98.958406,241.20071 100.83209,230.82341 104.57948,221.31062 C 108.32681,211.79834 113.51546,203.7271 120.14545,197.09688 C 127.06362,190.17894 135.27899,184.84616 144.79159,181.09851 C 154.30405,177.06318 164.82549,175.04537 176.35593,175.04507 C 187.59792,175.04537 197.8311,177.06318 207.0555,181.09851 C 216.27965,184.84616 224.20676,190.17894 230.83686,197.09688 C 237.75491,203.7271 243.0877,211.79834 246.83523,221.31062 C 250.58242,230.82341 252.4561,241.20071 252.45628,252.44258 C 252.4561,264.2614 250.43829,275.35936 246.40284,285.73648 C 242.65531,295.82572 236.89014,304.76173 229.10731,312.54456 C 238.33143,321.19247 245.24964,331.85804 249.86195,344.54129 C 254.47391,356.93653 256.77998,370.34056 256.78016,384.7534 M 211.81178,252.44258 C 211.81164,241.77723 208.35254,232.98534 201.43446,226.06689 C 194.80438,219.14893 186.44489,215.68983 176.35593,215.68958 C 165.69027,215.68983 156.89838,219.14893 149.98025,226.06689 C 143.06197,232.98534 139.60287,241.77723 139.60293,252.44258 C 139.60287,264.2614 143.06197,273.6298 149.98025,280.54782 C 156.89838,287.46622 165.69027,290.92532 176.35593,290.92514 C 186.44489,290.92532 194.80438,287.46622 201.43446,280.54782 C 208.35254,273.6298 211.81164,264.2614 211.81178,252.44258 M 217.00043,384.7534 C 217.0003,368.89927 213.25293,356.36002 205.75834,347.13562 C 198.26349,337.62321 188.4627,332.86694 176.35593,332.86681 C 164.24898,332.86694 154.44818,337.62321 146.95353,347.13562 C 139.45874,356.36002 135.71138,368.89927 135.71143,384.7534 C 135.71138,399.45468 139.45874,411.41741 146.95353,420.64163 C 154.44818,429.86596 164.24898,434.47809 176.35593,434.47806 C 188.4627,434.47809 198.26349,429.86596 205.75834,420.64163 C 213.25293,411.41741 217.0003,399.45468 217.00043,384.7534 M 452.70611,278.81827 C 452.70593,314.85078 443.91404,349.44181 426.33042,382.59146 C 409.03475,415.74129 384.53277,444.8554 352.82441,469.9339 L 329.47544,437.50478 C 335.52882,432.89267 341.58225,427.41576 347.63575,421.07402 C 353.97736,414.44412 359.88667,407.52592 365.36367,400.31938 C 370.84049,392.82473 375.74089,385.33001 380.06487,377.83519 C 384.38865,370.34056 387.84775,363.13409 390.44219,356.21577 C 386.98297,356.79241 383.81213,357.08066 380.92965,357.08055 C 378.33521,357.08066 375.45263,357.08066 372.28188,357.08055 C 347.20329,357.08066 327.31345,348.86529 312.6123,332.43442 C 298.19933,316.00382 290.99286,293.66378 290.99288,265.41423 C 290.99286,251.86628 292.86655,239.61529 296.61393,228.66122 C 300.36127,217.41938 305.69405,207.90685 312.6123,200.1236 C 319.81872,192.05263 328.46648,185.85507 338.5556,181.5309 C 348.64458,177.20731 359.88667,175.04537 372.28188,175.04507 C 398.80157,175.04537 418.83555,183.83726 432.38386,201.42076 C 445.93185,219.0048 452.70593,244.80395 452.70611,278.81827 M 412.92638,269.73811 C 412.92624,253.30757 409.17888,240.19181 401.68429,230.39078 C 394.18944,220.59023 384.38865,215.68983 372.28188,215.68958 C 359.31015,215.68983 349.2211,220.15784 342.0147,229.09361 C 335.09643,238.02987 331.63732,250.13673 331.63738,265.41423 C 331.63732,281.26866 335.09643,293.80791 342.0147,303.03201 C 349.2211,311.9682 359.31015,316.4362 372.28188,316.43605 C 384.38865,316.4362 394.18944,312.25645 401.68429,303.89679 C 409.17888,295.53746 412.92624,284.15124 412.92638,269.73811 M 622.25637,469.9339 L 601.93412,390.80684 L 539.6702,390.80684 L 520.64512,469.9339 L 478.70345,469.9339 L 550.9123,180.23373 L 591.5568,180.23373 L 663.76565,469.9339 L 622.25637,469.9339 M 570.36977,266.7114 L 550.04752,350.16234 L 591.5568,350.16234 L 570.36977,266.7114"
       id="text1331" />
  </g>
</svg>
