<?xml version="1.0" encoding="utf-8"?>
<!-- Generator: Adobe Illustrator 12.0.0, SVG Export Plug-In . SVG Version: 6.00 Build 51448)  -->
<!DOCTYPE svg PUBLIC "-//W3C//DTD SVG 1.1//EN" "http://www.w3.org/Graphics/SVG/1.1/DTD/svg11.dtd" [
	<!ENTITY ns_svg "http://www.w3.org/2000/svg">
	<!ENTITY ns_xlink "http://www.w3.org/1999/xlink">
]>
<svg  version="1.1" id="Layer_1" xmlns="&ns_svg;" xmlns:xlink="&ns_xlink;" width="385" height="401.0009766"
	 viewBox="0 0 385 401.0009766" overflow="visible" enable-background="new 0 0 385 401.0009766" xml:space="preserve">
<g>
	<g>
		<path fill-rule="evenodd" clip-rule="evenodd" fill="#FFFFFF" d="M0.5,262.0195313
			C0.5,139.2568359,81.230957,35.3525391,192.5,0.5c111.2685547,34.8525391,192,138.7568359,192,261.5195313v63.6416016
			c0,29.9941406-21.3037109,55.0146484-49.6015625,60.7607422l-0.1894531,0.0380859l-0.1865234,0.0371094l-0.1875,0.0371094
			C288.4111328,395.7021484,241.0175781,400.5009766,192.5,400.5009766c-48.5185547,0-95.9111328-4.7988281-141.8349609-13.9667969
			l-0.1875-0.0371094l-0.1865234-0.0371094l-0.1899414-0.0380859C21.8037109,380.6757813,0.5,355.6552734,0.5,325.6611328
			C0.5,291.4199219,0.5,384.7822266,0.5,262.0195313z"/>
		
			<path fill-rule="evenodd" clip-rule="evenodd" fill="none" stroke="#000000" stroke-linecap="round" stroke-linejoin="round" stroke-miterlimit="3.863693" d="
			M0.5,262.0195313C0.5,139.2568359,81.230957,35.3525391,192.5,0.5c111.2685547,34.8525391,192,138.7568359,192,261.5195313
			v63.6416016c0,29.9941406-21.3037109,55.0146484-49.6015625,60.7607422l-0.1894531,0.0380859l-0.1865234,0.0371094
			l-0.1875,0.0371094C288.4111328,395.7021484,241.0175781,400.5009766,192.5,400.5009766
			c-48.5185547,0-95.9111328-4.7988281-141.8349609-13.9667969l-0.1875-0.0371094l-0.1865234-0.0371094l-0.1899414-0.0380859
			C21.8037109,380.6757813,0.5,355.6552734,0.5,325.6611328C0.5,291.4199219,0.5,384.7822266,0.5,262.0195313z"/>
	</g>
	<g>
		<path fill-rule="evenodd" clip-rule="evenodd" fill="#006B54" d="M192.5,13.1035156
			c104.5498047,34.4199219,180,132.8701172,180,248.9160156v63.6416016c0,24.1738281-17.1660156,44.3662109-39.9824219,48.9990234
			c-45.1630859,9.015625-92.3027344,13.8408203-140.0175781,13.8408203S98.1708984,383.78125,53.0087891,374.765625
			C30.1914063,370.1318359,12.5,349.8349609,12.5,325.6611328v-63.6416016C12.5,145.9736328,87.9501953,47.5234375,192.5,13.1035156
			z"/>
	</g>
	<g>
		<g>
			<g>
				<path fill-rule="evenodd" clip-rule="evenodd" fill="#FFFFFF" d="M80.8442383,145.7197266
					c-0.1098633,1.2041016-0.4057617,2.3603516-0.887207,3.4663086s-1.0898438,2.1225586-1.8261719,3.050293
					c-0.7358398,0.9272461-1.6020508,1.7578125-2.5986328,2.4921875c-0.9960938,0.7338867-2.0644531,1.3310547-3.2045898,1.7919922
					c-1.8813477,0.7597656-3.7133789,1.0859375-5.4975586,0.9775391c-1.7841797-0.1074219-3.4658203-0.597168-5.0439453-1.4677734
					c-1.5791016-0.8710938-3.0175781-2.1132813-4.315918-3.7265625c-1.2983398-1.6142578-2.3969727-3.5322266-3.2949219-5.7558594
					c-0.909668-2.2514648-1.4550781-4.4013672-1.6362305-6.4501953c-0.1816406-2.0488281-0.0039063-3.9272461,0.5327148-5.6357422
					c0.5361328-1.7089844,1.4116211-3.2143555,2.6254883-4.5175781c1.2143555-1.3027344,2.7617188-2.3339844,4.6430664-3.09375
					c2.3085938-0.9326172,4.675293-1.2509766,7.0991211-0.9541016c2.4243164,0.2973633,4.6010742,1.2333984,6.5302734,2.8076172
					l-3.5473633,4.2675781c-0.640625-0.4370117-1.1538086-0.7441406-1.5400391-0.9189453
					c-0.3862305-0.1757813-0.8305664-0.3115234-1.3330078-0.4072266c-0.7543945-0.2250977-1.605957-0.3037109-2.5566406-0.234375
					c-0.949707,0.0688477-1.8100586,0.2587891-2.5795898,0.5693359c-1.3110352,0.5302734-2.2900391,1.265625-2.9375,2.2060547
					c-0.6474609,0.9418945-1.0576172,1.9775391-1.230957,3.1083984s-0.1459961,2.3056641,0.0805664,3.5234375
					s0.5649414,2.3828125,1.0136719,3.4941406c1.2666016,3.1352539,2.8613281,5.3173828,4.7836914,6.5463867
					c1.9223633,1.2294922,3.9663086,1.4067383,6.1323242,0.53125c0.6552734-0.2651367,1.2211914-0.5678711,1.6962891-0.9091797
					c0.4760742-0.3413086,0.9082031-0.7485352,1.2978516-1.2202148c0.3891602-0.4726563,0.7451172-1.0473633,1.0683594-1.7246094
					c0.3232422-0.6777344,0.6601563-1.4853516,1.0107422-2.4228516L80.8442383,145.7197266z"/>
			</g>
			<g>
				<path fill-rule="evenodd" clip-rule="evenodd" fill="#FFFFFF" d="M111.6547852,142.4169922l-5.0405273-6.0771484
					l-12.8754883,3.9365234l-0.7358398,7.8427734l-5.8208008,1.7797852l3.4023438-33.3452148l5.3793945-1.6445313
					l21.3793945,25.7685547L111.6547852,142.4169922z M95.5253906,123.0957031l-1.0976563,11.2324219l8.2895508-2.534668
					L95.5253906,123.0957031z"/>
			</g>
			<g>
				<polygon fill-rule="evenodd" clip-rule="evenodd" fill="#FFFFFF" points="122.6401367,140.0185547 116.7451172,109.6928711 
					122.1772461,108.637207 127.1655273,134.3007813 144.4101563,130.9492188 145.3164063,135.6113281 				"/>
			</g>
			<g>
				
					<rect x="135.9859314" y="116.7362137" transform="matrix(0.1218732 0.9925457 -0.9925457 0.1218732 251.5893555 -45.3653107)" fill-rule="evenodd" clip-rule="evenodd" fill="#FFFFFF" width="30.8938675" height="5.5334282"/>
			</g>
			<g>
				<polygon fill-rule="evenodd" clip-rule="evenodd" fill="#FFFFFF" points="167.8574219,107.9609375 168.2949219,114.2167969 
					177.9082031,113.5444336 178.3007813,119.1557617 168.6870117,119.828125 169.6264648,133.2597656 164.0146484,133.6518555 
					161.859375,102.8339844 184.9042969,101.2226563 185.2900391,106.7421875 				"/>
			</g>
			<g>
				<path fill-rule="evenodd" clip-rule="evenodd" fill="#FFFFFF" d="M217.8164063,117.5214844
					c-0.0849609,2.4267578-0.4619141,4.6210938-1.1298828,6.5810547c-0.6679688,1.9609375-1.5800781,3.628418-2.7353516,5.0029297
					s-2.5371094,2.4257813-4.1474609,3.1542969c-1.609375,0.7280273-3.3974609,1.0576172-5.3632813,0.9892578
					c-2.2734375-0.0795898-4.2158203-0.6162109-5.8261719-1.6108398s-2.9267578-2.2709961-3.9492188-3.8291016
					s-1.7529297-3.3061523-2.1933594-5.2436523c-0.4394531-1.9379883-0.6259766-3.8745117-0.5585938-5.8100586
					c0.0859375-2.4575195,0.4628906-4.6586914,1.1308594-6.6040039c0.6669922-1.9453125,1.59375-3.5893555,2.7783203-4.9321289
					c1.1855469-1.3427734,2.5976563-2.3549805,4.2363281-3.0356445c1.6376953-0.6806641,3.4707031-0.9863281,5.4990234-0.9150391
					c1.9042969,0.0664063,3.6269531,0.5107422,5.1669922,1.3339844c1.5390625,0.8222656,2.8535156,1.9448242,3.9423828,3.3671875
					c1.0878906,1.421875,1.9052734,3.1191406,2.4521484,5.0913086
					C217.6650391,113.0332031,217.8974609,115.1865234,217.8164063,117.5214844z M212.28125,117.4667969
					c0.1132813-3.2568359-0.4267578-5.828125-1.6220703-7.7158203c-1.1953125-1.8867188-2.9599609-2.8710938-5.2949219-2.953125
					c-2.3349609-0.0810547-4.1943359,0.7763672-5.5800781,2.5737305s-2.1357422,4.3237305-2.2490234,7.5805664
					c-0.1152344,3.3173828,0.4550781,5.9208984,1.7109375,7.8105469c1.2568359,1.8896484,3.0527344,2.875,5.3876953,2.9560547
					c1.4746094,0.0517578,2.6914063-0.2285156,3.6513672-0.8408203c0.9589844-0.612793,1.7255859-1.4165039,2.2988281-2.4111328
					c0.5722656-0.9951172,0.9882813-2.1113281,1.2470703-3.3476563
					C212.0898438,119.8818359,212.2392578,118.6650391,212.28125,117.4667969z"/>
			</g>
			<g>
				<path fill-rule="evenodd" clip-rule="evenodd" fill="#FFFFFF" d="M243.0107422,136.4501953l-3.2431641-12.7021484
					l-8.1738281-1.1484375l-1.6875,12.0087891l-5.4794922-0.7705078l4.2998047-30.5922852l14.0634766,1.9760742
					c1.1259766,0.1586914,2.0722656,0.3847656,2.8378906,0.6787109s1.5107422,0.7402344,2.2333984,1.3378906
					c1.3496094,0.9970703,2.3505859,2.2705078,3.0019531,3.8212891c0.6503906,1.5507813,0.8544922,3.1933594,0.6113281,4.9282227
					c-0.2441406,1.7348633-0.8994141,3.2495117-1.9667969,4.543457c-1.0654297,1.2929688-2.4501953,2.2548828-4.1533203,2.8847656
					l3.7744141,13.8935547L243.0107422,136.4501953z M245.9941406,115.2177734
					c0.1679688-1.1875-0.0957031-2.1865234-0.7890625-2.9980469c-0.6933594-0.8110352-1.7246094-1.3129883-3.09375-1.5058594
					l-8.6757813-1.21875l-1.0722656,7.625l8.6757813,1.2197266c1.3701172,0.1923828,2.4990234,0.0019531,3.3867188-0.5722656
					C245.3134766,117.1938477,245.8359375,116.34375,245.9941406,115.2177734z"/>
			</g>
			<g>
				<polygon fill-rule="evenodd" clip-rule="evenodd" fill="#FFFFFF" points="274.8271484,143.2734375 265.6972656,119.0898438 
					260.5546875,139.7148438 255.2753906,138.3984375 262.75,108.4228516 268.0292969,109.7392578 276.8339844,132.9389648 
					281.7636719,113.1640625 286.9541016,114.4580078 279.4794922,144.4335938 				"/>
			</g>
			<g>
				
					<rect x="279.0964661" y="130.1170044" transform="matrix(-0.3090303 0.9510522 -0.9510522 -0.3090303 511.9446411 -106.177475)" fill-rule="evenodd" clip-rule="evenodd" fill="#FFFFFF" width="30.8930035" height="5.532599"/>
			</g>
			<g>
				<path fill-rule="evenodd" clip-rule="evenodd" fill="#FFFFFF" d="M321.2080078,159.2294922l-0.0927734-7.8950195
					l-12.4833984-5.043457l-5.5078125,5.6318359l-5.6435547-2.2797852l23.6289063-23.7729492l5.2158203,2.1074219
					l0.3974609,33.4799805L321.2080078,159.2294922z M320.8330078,134.0634766l-7.9228516,8.0380859l8.0371094,3.2470703
					L320.8330078,134.0634766z"/>
			</g>
		</g>
	</g>
</g>
<g>
	<path fill-rule="evenodd" clip-rule="evenodd" fill="#FFFFFF" d="M176.7626953,282.7832031
		c0,7.8378906-1.3066406,15.0625-3.9199219,21.6708984c-2.6123047,6.609375-6.2626953,12.2578125-10.9506836,16.9453125
		c-4.6879883,4.6884766-10.2978516,8.3769531-16.8300781,11.0664063C138.5302734,335.15625,131.3447266,336.5,123.5058594,336.5
		c-6.3017578,0-12.1806641-0.9980469-17.6367188-2.9960938s-10.4516602-4.765625-14.9858398-8.3007813
		c-4.5336914-3.5341797-8.4145508-7.8378906-11.6425781-12.9101563c-3.2275391-5.0722656-5.6098633-10.7587891-7.1469727-17.0605469
		l23.9770508-6.9160156c1.8442383,7.53125,5.2260742,13.2949219,10.144043,17.2910156
		c4.918457,3.9960938,11.0664063,5.9941406,18.4438477,5.9941406c4.1499023,0,7.9155273-0.6914063,11.296875-2.0751953
		s6.2631836-3.265625,8.6455078-5.6484375c2.3823242-2.3818359,4.2651367-5.2255859,5.6484375-8.5302734
		s2.074707-6.9550781,2.074707-10.9511719s-0.7680664-7.7617188-2.3051758-11.296875
		c-1.5366211-3.5351563-3.6889648-6.3007813-6.4555664-8.2988281c-0.921875-0.6152344-1.7290039-1.1152344-2.4208984-1.4990234
		c-0.6914063-0.3837891-1.5371094-0.6533203-2.5356445-0.8066406c-0.9995117-0.1542969-2.3056641-0.3076172-3.9194336-0.4619141
		c-1.6137695-0.1533203-3.8808594-0.3066406-6.8012695-0.4609375h-2.7661133v-24.8984375v0.6914063h0.6914063h0.4609375h4.8417969
		c4.9179688,0,8.6835938-1.3066406,11.296875-3.9199219c2.6123047-2.6123047,3.9189453-6.3779297,3.9189453-11.296875
		c0-5.9941406-2.1132813-10.9501953-6.3398438-14.8701172c-4.2265625-3.9189453-9.4912109-5.8789063-15.7929688-5.8789063
		c-10.2973633,0-18.0595703,5.0722656-23.2851563,15.2158203l-22.8242188-8.5292969
		c3.9960938-9.8369141,10.0292969-17.5605469,18.0981445-23.1704102s17.1757813-8.4150391,27.3198242-8.4150391
		c6.4555664,0,12.5649414,1.2294922,18.3286133,3.6889648c5.7636719,2.4589844,10.7973633,5.840332,15.1010742,10.144043
		c4.3037109,4.3032227,7.6845703,9.3374023,10.1435547,15.1010742c2.4594727,5.7636719,3.6894531,11.8730469,3.6894531,18.328125
		c0,4.6113281-0.6152344,8.7607422-1.8447266,12.4501953c-1.2294922,3.6875-3.5351563,7.9921875-6.9165039,12.9101563
		c2.9204102,2.6132813,5.3027344,5.1103516,7.1469727,7.4921875c1.8447266,2.3828125,3.3427734,4.8808594,4.4956055,7.4931641
		c1.152832,2.6132813,1.9594727,5.4179688,2.4208984,8.4150391S176.7626953,278.9404297,176.7626953,282.7832031z"/>
	<path fill-rule="evenodd" clip-rule="evenodd" fill="#FFFFFF" d="M312.90625,289.2382813
		c0,6.609375-1.3457031,12.7949219-4.0351563,18.5585938s-6.3779297,10.7597656-11.0664063,14.9863281
		c-4.6875,4.2265625-10.2587891,7.5693359-16.7148438,10.0283203C274.6347656,335.2714844,267.71875,336.5,260.3408203,336.5
		c-7.3769531,0-14.2939453-1.2675781-20.7490234-3.8037109s-12.0273438-6.0322266-16.7148438-10.4892578
		c-4.6875-4.4580078-8.3759766-9.6835938-11.0664063-15.6777344c-2.6894531-5.9941406-4.0341797-12.4492188-4.0341797-19.3662109
		c0-10.7587891,1.421875-21.4404297,4.2646484-32.0458984c2.84375-10.6054688,6.8789063-20.7490234,12.1044922-30.4316406
		c5.2255859-9.6835938,11.4882813-18.6367188,18.7890625-26.859375s15.4082031-15.3310547,24.3232422-21.3256836L279.7070313,197.25
		c-4.7646484,3.6884766-8.953125,7.2617188-12.5644531,10.7207031c-3.6123047,3.4580078-6.9160156,7.03125-9.9140625,10.7197266
		c-2.9970703,3.6884766-5.7246094,7.5703125-8.1835938,11.6435547c-2.4599609,4.0722656-4.8417969,8.5683594-7.1474609,13.4863281
		c4.4570313-0.7685547,7.8769531-1.2294922,10.2587891-1.3828125c2.3828125-0.1542969,5.1113281-0.2304688,8.1845703-0.2304688
		c7.0703125,0,13.7949219,1.2294922,20.1728516,3.6884766c6.3789063,2.4589844,11.9882813,5.8017578,16.8300781,10.0283203
		s8.6455078,9.2216797,11.4121094,14.9863281C311.5224609,276.6738281,312.90625,282.7832031,312.90625,289.2382813z
		 M288.46875,288.7773438c0-2.9199219-0.7304688-5.7636719-2.1914063-8.5302734
		c-1.4599609-2.7666016-3.4580078-5.1494141-5.9941406-7.1474609c-2.5351563-1.9980469-5.5332031-3.6113281-8.9912109-4.8408203
		s-7.1083984-1.8447266-10.9511719-1.8447266c-3.8417969,0-7.4150391,0.6152344-10.7197266,1.8447266
		s-6.2246094,2.8427734-8.7617188,4.8408203c-2.5351563,1.9980469-4.5332031,4.3808594-5.9941406,7.1474609
		c-1.4599609,2.7666016-2.1894531,5.6103516-2.1894531,8.5302734c0,3.0742188,0.7294922,5.9941406,2.1894531,8.7607422
		c1.4609375,2.7666016,3.4589844,5.1875,5.9941406,7.2626953c2.5371094,2.0742188,5.4570313,3.7265625,8.7617188,4.9560547
		s6.8779297,1.8447266,10.7197266,1.8447266c3.8427734,0,7.4541016-0.6152344,10.8369141-1.8447266
		c3.3808594-1.2294922,6.3398438-2.8818359,8.875-4.9560547c2.5361328-2.0751953,4.5722656-4.4960938,6.109375-7.2626953
		S288.46875,291.8515625,288.46875,288.7773438z"/>
</g>
</svg>
