<?xml version="1.0" encoding="utf-8"?>
<!-- Generator: Adobe Illustrator 12.0.0, SVG Export Plug-In . SVG Version: 6.00 Build 51448)  -->
<!DOCTYPE svg PUBLIC "-//W3C//DTD SVG 1.1//EN" "http://www.w3.org/Graphics/SVG/1.1/DTD/svg11.dtd" [
	<!ENTITY ns_svg "http://www.w3.org/2000/svg">
	<!ENTITY ns_xlink "http://www.w3.org/1999/xlink">
]>
<svg  version="1.1" id="Layer_1" xmlns="&ns_svg;" xmlns:xlink="&ns_xlink;" width="449" height="401" viewBox="0 0 449 401"
	 overflow="visible" enable-background="new 0 0 449 401" xml:space="preserve">
<g>
	<g>
		<path fill-rule="evenodd" clip-rule="evenodd" fill="#FFFFFF" d="M0.5,256.2792969
			C0.5,125.3139648,98.078125,17.1420898,224.5,0.5c126.421875,16.6420898,224,124.8139648,224,255.7792969v66.1816406
			c0,29.9960938-21.3007813,55.0175781-49.6025391,60.7607422l-0.1738281,0.0351563l-0.1728516,0.0341797L398.375,383.3261719
			l-0.1835938,0.0371094l-0.1835938,0.0351563l-0.1816406,0.0351563l-0.1845703,0.0351563
			C341.5732422,394.6425781,283.7070313,400.5,224.5,400.5s-117.0732422-5.8574219-173.1416016-17.03125l-0.184082-0.0351563
			l-0.1821289-0.0351563l-0.1831055-0.0351563l-0.1845703-0.0371094l-0.175293-0.0351563l-0.1728516-0.0341797l-0.1738281-0.0351563
			C21.8007813,377.4785156,0.5,352.4570313,0.5,322.4609375C0.5,288.21875,0.5,387.2460938,0.5,256.2792969z"/>
		
			<path fill-rule="evenodd" clip-rule="evenodd" fill="none" stroke="#000000" stroke-linecap="round" stroke-linejoin="round" stroke-miterlimit="3.863693" d="
			M0.5,256.2792969C0.5,125.3139648,98.078125,17.1420898,224.5,0.5c126.421875,16.6420898,224,124.8139648,224,255.7792969
			v66.1816406c0,29.9960938-21.3007813,55.0175781-49.6025391,60.7607422l-0.1738281,0.0351563l-0.1728516,0.0341797
			L398.375,383.3261719l-0.1835938,0.0371094l-0.1835938,0.0351563l-0.1816406,0.0351563l-0.1845703,0.0351563
			C341.5732422,394.6425781,283.7070313,400.5,224.5,400.5s-117.0732422-5.8574219-173.1416016-17.03125l-0.184082-0.0351563
			l-0.1821289-0.0351563l-0.1831055-0.0351563l-0.1845703-0.0371094l-0.175293-0.0351563l-0.1728516-0.0341797l-0.1738281-0.0351563
			C21.8007813,377.4785156,0.5,352.4570313,0.5,322.4609375C0.5,288.21875,0.5,387.2460938,0.5,256.2792969z"/>
	</g>
	<g>
		<path fill-rule="evenodd" clip-rule="evenodd" fill="#006B54" d="M224.5,12.6083984
			c119.7685547,16.550293,212,119.3476563,212,243.6708984v66.1816406c0,24.1767578-17.1708984,44.3691406-39.9892578,49
			C341.2021484,382.484375,282.9042969,388.5,224.5,388.5c-58.4052734,0-115.5307617-5.7851563-170.8398438-16.8076172
			C30.8505859,367.0546875,12.5,346.6328125,12.5,322.4609375v-66.1816406
			C12.5,131.9560547,104.7314453,29.1586914,224.5,12.6083984z"/>
	</g>
	<g>
		<g>
			<g>
				<path fill-rule="evenodd" clip-rule="evenodd" fill="#FFFFFF" d="M112.5419922,142.7744141
					c-0.1728516,1.1977539-0.5283203,2.3359375-1.0673828,3.4155273c-0.5385742,1.0795898-1.1992188,2.0629883-1.9833984,2.9506836
					c-0.7832031,0.887207-1.6918945,1.6713867-2.7250977,2.3525391c-1.0336914,0.6806641-2.1313477,1.2216797-3.2944336,1.6220703
					c-1.9179688,0.6601563-3.765625,0.8896484-5.5415039,0.6884766s-3.4291992-0.777832-4.9604492-1.7299805
					c-1.5302734-0.9521484-2.9023438-2.2680664-4.1142578-3.9477539c-1.2124023-1.6791992-2.2089844-3.652832-2.9892578-5.9199219
					c-0.7910156-2.2958984-1.2226563-4.4716797-1.296875-6.5273438c-0.0732422-2.0551758,0.2021484-3.921875,0.8271484-5.6000977
					s1.578125-3.1357422,2.8588867-4.3735352c1.2807617-1.2373047,2.8803711-2.1865234,4.7983398-2.847168
					c2.3544922-0.8105469,4.734375-1.0039063,7.1396484-0.5805664c2.4052734,0.4238281,4.5297852,1.472168,6.3740234,3.1455078
					l-3.765625,4.0761719c-0.6171875-0.4702148-1.1132813-0.8032227-1.4902344-0.9990234
					c-0.3759766-0.1953125-0.8125-0.3540039-1.3095703-0.4755859c-0.7412109-0.2646484-1.5883789-0.3876953-2.5410156-0.3686523
					c-0.9521484,0.019043-1.8208008,0.1640625-2.6054688,0.434082c-1.3369141,0.4604492-2.3535156,1.1435547-3.0493164,2.0498047
					c-0.6958008,0.9057617-1.159668,1.9189453-1.3920898,3.0390625c-0.2319336,1.1206055-0.2666016,2.2949219-0.1035156,3.5229492
					c0.1625977,1.2280273,0.4389648,2.4086914,0.8291016,3.5424805c1.1010742,3.1972656,2.5791016,5.4599609,4.4345703,6.7880859
					s3.887207,1.6113281,6.0961914,0.8510742c0.668457-0.2299805,1.2490234-0.503418,1.7416992-0.8193359
					s0.9458008-0.6992188,1.359375-1.1508789c0.4135742-0.4511719,0.7998047-1.0063477,1.1577148-1.6660156
					c0.3579102-0.6601563,0.7363281-1.4487305,1.1362305-2.3662109L112.5419922,142.7744141z"/>
			</g>
			<g>
				<path fill-rule="evenodd" clip-rule="evenodd" fill="#FFFFFF" d="M143.4667969,141.0424805l-4.7148438-6.3325195
					L125.6875,137.9672852l-1.1455078,7.793457l-5.9052734,1.4726563l5.1425781-33.1210938l5.4580078-1.3613281
					l20.0009766,26.8525391L143.4667969,141.0424805z M128.3710938,120.9033203l-1.6845703,11.159668l8.4111328-2.097168
					L128.3710938,120.9033203z"/>
			</g>
			<g>
				<polygon fill-rule="evenodd" clip-rule="evenodd" fill="#FFFFFF" points="154.5019531,138.9711914 149.6689453,108.4584961 
					155.1337891,107.5927734 159.2241211,133.4150391 176.5751953,130.6669922 177.3183594,135.3574219 				"/>
			</g>
			<g>
				
					<rect x="167.9563599" y="116.373909" transform="matrix(0.1218888 0.9925438 -0.9925438 0.1218888 279.3007813 -77.4171143)" fill-rule="evenodd" clip-rule="evenodd" fill="#FFFFFF" width="30.8939266" height="5.5334282"/>
			</g>
			<g>
				<polygon fill-rule="evenodd" clip-rule="evenodd" fill="#FFFFFF" points="200.7358398,107.8081055 200.9550781,114.0751953 
					210.5859375,113.7387695 210.7822266,119.3608398 201.1513672,119.6972656 201.6210938,133.152832 195.9990234,133.3491211 
					194.9208984,102.4746094 218.0078125,101.668457 218.2006836,107.1982422 				"/>
			</g>
			<g>
				<path fill-rule="evenodd" clip-rule="evenodd" fill="#FFFFFF" d="M249.8154297,117.484375
					c-0.0849609,2.4272461-0.4609375,4.6210938-1.1298828,6.581543c-0.6679688,1.9604492-1.5791016,3.6279297-2.734375,5.0024414
					c-1.15625,1.375-2.5380859,2.4262695-4.1474609,3.1542969s-3.3974609,1.0576172-5.3632813,0.9892578
					c-2.2734375-0.0795898-4.2158203-0.6162109-5.8261719-1.6108398c-1.6113281-0.9941406-2.9277344-2.2705078-3.9501953-3.8286133
					c-1.0214844-1.5585938-1.7529297-3.3066406-2.1923828-5.2441406c-0.4399414-1.9379883-0.6259766-3.8745117-0.5585938-5.8095703
					c0.0859375-2.4580078,0.4628906-4.6591797,1.1298828-6.6044922c0.6679688-1.9453125,1.5947266-3.5893555,2.7792969-4.9321289
					c1.1855469-1.3427734,2.5966797-2.3544922,4.2353516-3.0356445c1.6386719-0.6806641,3.4716797-0.9858398,5.4990234-0.9150391
					c1.9052734,0.0664063,3.6269531,0.5112305,5.1679688,1.3339844c1.5390625,0.8222656,2.8535156,1.9448242,3.9414063,3.3671875
					c1.0888672,1.421875,1.90625,3.1191406,2.4521484,5.0913086
					C249.6650391,112.9960938,249.8974609,115.1499023,249.8154297,117.484375z M244.28125,117.4296875
					c0.1132813-3.2563477-0.4277344-5.828125-1.6220703-7.715332c-1.1953125-1.887207-2.9599609-2.871582-5.2958984-2.953125
					c-2.3339844-0.081543-4.1943359,0.7763672-5.5800781,2.5732422c-1.3847656,1.7973633-2.1347656,4.3237305-2.2480469,7.5805664
					c-0.1162109,3.3178711,0.4541016,5.9213867,1.7109375,7.8105469c1.2568359,1.8896484,3.0527344,2.875,5.3867188,2.956543
					c1.4755859,0.0512695,2.6923828-0.2290039,3.6513672-0.8413086c0.9599609-0.612793,1.7255859-1.4165039,2.2988281-2.4111328
					c0.5732422-0.9951172,0.9892578-2.1113281,1.2470703-3.3476563
					C244.0888672,119.8452148,244.2392578,118.6279297,244.28125,117.4296875z"/>
			</g>
			<g>
				<path fill-rule="evenodd" clip-rule="evenodd" fill="#FFFFFF" d="M275.046875,136.0161133l-3.4648438-12.6430664
					l-8.1914063-1.0058594l-1.4785156,12.0361328l-5.4921875-0.6738281l3.765625-30.6635742l14.0957031,1.730957
					c1.1289063,0.1386719,2.0791016,0.3481445,2.8496094,0.628418c0.7714844,0.2807617,1.5234375,0.7133789,2.2558594,1.2993164
					c1.3671875,0.9726563,2.390625,2.2290039,3.0683594,3.7675781c0.6787109,1.5390625,0.9111328,3.1782227,0.6972656,4.9169922
					c-0.2138672,1.7392578-0.8417969,3.2651367-1.8857422,4.5771484c-1.0439453,1.3115234-2.4111328,2.2973633-4.1025391,2.9570313
					l4.015625,13.8261719L275.046875,136.0161133z M277.6601563,114.7353516
					c0.1464844-1.1899414-0.1337891-2.1845703-0.8417969-2.9838867c-0.7070313-0.7993164-1.7460938-1.2832031-3.1191406-1.4516602
					l-8.6962891-1.0673828L264.0644531,116.875l8.6953125,1.0678711c1.3730469,0.168457,2.4990234-0.0415039,3.3769531-0.6308594
					C277.0136719,116.7231445,277.5214844,115.8637695,277.6601563,114.7353516z"/>
			</g>
			<g>
				<polygon fill-rule="evenodd" clip-rule="evenodd" fill="#FFFFFF" points="307.1210938,141.5161133 296.7382813,117.84375 
					292.6816406,138.7094727 287.3408203,137.6713867 293.2353516,107.3457031 298.5761719,108.3837891 308.5839844,131.0908203 
					312.4726563,111.0849609 317.7226563,112.1054688 311.828125,142.4311523 				"/>
			</g>
			<g>
				
					<rect x="310.7524414" y="127.6432571" transform="matrix(-0.2588272 0.9659237 -0.9659237 -0.2588272 536.5939941 -150.9206238)" fill-rule="evenodd" clip-rule="evenodd" fill="#FFFFFF" width="30.8935604" height="5.5323286"/>
			</g>
			<g>
				<path fill-rule="evenodd" clip-rule="evenodd" fill="#FFFFFF" d="M354.2402344,155.2314453l-0.6435547-7.8691406
					l-12.8046875-4.1606445l-5.1015625,6.0024414l-5.7890625-1.8808594l21.9130859-25.3632813l5.3505859,1.7387695
					l2.7314453,33.3706055L354.2402344,155.2314453z M352.1103516,130.152832l-7.3427734,8.5712891l8.2441406,2.6787109
					L352.1103516,130.152832z"/>
			</g>
		</g>
	</g>
</g>
<g>
	<path fill-rule="evenodd" clip-rule="evenodd" fill="#FFFFFF" d="M36.6660156,333.7333984
		c0.3071289-9.0683594,1.4599609-17.3681641,3.4580078-24.8994141s5.1484375-14.9853516,9.4521484-22.3632813
		c3.2275391-5.8398438,7.2241211-11.2578125,11.9887695-16.2529297s9.8364258-9.4912109,15.2163086-13.4873047
		c1.3828125-0.7685547,2.6123047-1.5751953,3.6884766-2.4208984c1.0761719-0.8447266,2.1518555-1.6513672,3.2275391-2.4208984
		l8.2998047-4.3798828l7.6083984-4.3798828l7.3769531-4.1503906c3.0742188-1.9980469,5.5722656-4.4960938,7.4931641-7.4931641
		s2.8818359-6.109375,2.8818359-9.3369141c0-2.9199219-0.7685547-5.6484375-2.3051758-8.1845703
		c-1.5371094-2.5361328-3.5737305-4.7255859-6.1098633-6.5703125s-5.4951172-3.3046875-8.8759766-4.3808594
		c-3.3813477-1.0751953-6.9931641-1.6137695-10.8359375-1.6137695c-7.8383789,0-14.1782227,1.8452148-19.0200195,5.5327148
		C65.3691406,210.6210938,62.3330078,216,61.1035156,223.0703125l-24.4375-5.3027344
		c2.6123047-12.9101563,8.6064453-23.015625,17.9824219-30.3164063C64.0239258,180.1503906,75.5517578,176.5,89.2304688,176.5
		c7.3779297,0,14.2558594,1.2294922,20.6337891,3.6884766c6.3789063,2.4594727,11.9121094,5.7636719,16.5996094,9.9140625
		c4.6879883,4.1494141,8.4150391,9.0297852,11.1816406,14.6396484c2.7666016,5.609375,4.1499023,11.5654297,4.1499023,17.8671875
		c0,5.9941406-1.3452148,11.8730469-4.034668,17.6367188s-6.5703125,10.875-11.6425781,15.3320313
		c-1.2294922,0.921875-2.34375,1.7675781-3.3427734,2.5351563c-0.9990234,0.7695313-2.0366211,1.3837891-3.1123047,1.8447266
		l-7.6083984,4.8417969l-8.2998047,4.3798828l-7.6079102,4.3808594c-3.6889648,2.1523438-6.9545898,4.4189453-9.7983398,6.8007813
		c-2.8432617,2.3828125-5.4560547,4.9570313-7.8388672,7.7236328c-2.3818359,2.7666016-4.6103516,5.8408203-6.6855469,9.2216797
		c-2.0751953,3.3818359-4.034668,7.2246094-5.8789063,11.5273438h75.8500977v24.8994141H36.6660156z"/>
	<path fill-rule="evenodd" clip-rule="evenodd" fill="#FFFFFF" d="M277.0644531,225.8378906
		c0,10.6044922-1.421875,21.171875-4.2646484,31.6992188c-2.84375,10.5292969-6.8779297,20.6347656-12.1035156,30.3173828
		s-11.5283203,18.6748047-18.9052734,26.9736328c-7.3769531,8.3007813-15.5234375,15.5234375-24.4375,21.671875
		l-11.7587891-20.7490234c4.6113281-3.6884766,8.7226563-7.2626953,12.3344727-10.7207031s6.878418-7.0322266,9.7983398-10.7207031
		s5.6103516-7.6083984,8.0693359-11.7578125s4.8417969-8.7607422,7.1464844-13.8330078
		c-4.4570313,0.7685547-7.8769531,1.3066406-10.2587891,1.6142578c-2.3828125,0.3076172-5.1103516,0.4609375-8.1845703,0.4609375
		c-7.2236328,0-14.0249023-1.2294922-20.4033203-3.6884766c-6.3789063-2.4589844-11.9501953-5.8027344-16.7148438-10.0292969
		s-8.5302734-9.2216797-11.296875-14.9853516s-4.1499023-11.8730469-4.1499023-18.3291016
		c0-6.6083984,1.3833008-12.7949219,4.1499023-18.5585938s6.4936523-10.7587891,11.1816406-14.9853516
		c4.6875-4.2270508,10.2207031-7.5698242,16.5996094-10.0292969C210.2441406,177.7294922,217.1220703,176.5,224.5,176.5
		c7.3769531,0,14.2939453,1.2680664,20.7490234,3.8037109c6.4560547,2.5361328,12.0273438,5.9946289,16.7148438,10.375
		s8.3759766,9.5678711,11.0664063,15.5615234C275.7197266,212.234375,277.0644531,218.7675781,277.0644531,225.8378906z
		 M252.6269531,223.7617188c0-2.9199219-0.7685547-5.7636719-2.3056641-8.5292969
		c-1.5371094-2.7675781-3.5732422-5.1494141-6.109375-7.1474609s-5.4951172-3.6123047-8.8759766-4.8408203
		c-3.3818359-1.2304688-6.9931641-1.8452148-10.8359375-1.8452148s-7.4160156,0.5766602-10.7207031,1.7299805
		c-3.3041992,1.1523438-6.2246094,2.7275391-8.7607422,4.7255859s-4.5341797,4.3798828-5.9941406,7.1474609
		c-1.4599609,2.765625-2.1904297,5.6865234-2.1904297,8.7597656c0,3.0742188,0.7304688,5.9560547,2.1904297,8.6464844
		c1.4599609,2.6894531,3.4580078,5.0332031,5.9941406,7.03125s5.456543,3.5732422,8.7607422,4.7265625
		c3.3046875,1.1523438,6.8779297,1.7285156,10.7207031,1.7285156s7.4921875-0.5761719,10.9511719-1.7285156
		c3.4580078-1.1533203,6.4550781-2.7285156,8.9912109-4.7265625s4.5341797-4.3417969,5.9941406-7.03125
		C251.8964844,229.7177734,252.6269531,226.8359375,252.6269531,223.7617188z"/>
	<path fill-rule="evenodd" clip-rule="evenodd" fill="#FFFFFF" d="M412.3339844,225.8378906
		c0,10.6044922-1.421875,21.171875-4.2646484,31.6992188c-2.84375,10.5292969-6.8779297,20.6347656-12.1044922,30.3173828
		c-5.2255859,9.6826172-11.5263672,18.6748047-18.9042969,26.9736328
		c-7.3779297,8.3007813-15.5234375,15.5234375-24.4384766,21.671875l-11.7578125-20.7490234
		c4.6113281-3.6884766,8.7226563-7.2626953,12.3349609-10.7207031c3.6113281-3.4580078,6.8769531-7.0322266,9.7978516-10.7207031
		c2.9199219-3.6884766,5.6103516-7.6083984,8.0693359-11.7578125s4.8417969-8.7607422,7.1464844-13.8330078
		c-4.4570313,0.7685547-7.8769531,1.3066406-10.2597656,1.6142578c-2.3818359,0.3076172-5.109375,0.4609375-8.1835938,0.4609375
		c-7.2246094,0-14.0253906-1.2294922-20.4042969-3.6884766c-6.3779297-2.4589844-11.9492188-5.8027344-16.7138672-10.0292969
		s-8.5302734-9.2216797-11.296875-14.9853516s-4.1503906-11.8730469-4.1503906-18.3291016
		c0-6.6083984,1.3837891-12.7949219,4.1503906-18.5585938s6.4931641-10.7587891,11.1816406-14.9853516
		c4.6875-4.2270508,10.2207031-7.5698242,16.5986328-10.0292969C345.5136719,177.7294922,352.3916016,176.5,359.7695313,176.5
		c7.3769531,0,14.2939453,1.2680664,20.7490234,3.8037109c6.4560547,2.5361328,12.0263672,5.9946289,16.7148438,10.375
		c4.6875,4.3803711,8.3759766,9.5678711,11.0664063,15.5615234
		C410.9892578,212.234375,412.3339844,218.7675781,412.3339844,225.8378906z M387.8964844,223.7617188
		c0-2.9199219-0.7685547-5.7636719-2.3056641-8.5292969c-1.5371094-2.7675781-3.5732422-5.1494141-6.109375-7.1474609
		s-5.4951172-3.6123047-8.8759766-4.8408203c-3.3818359-1.2304688-6.9941406-1.8452148-10.8359375-1.8452148
		c-3.8427734,0-7.4160156,0.5766602-10.7207031,1.7299805c-3.3046875,1.1523438-6.2246094,2.7275391-8.7607422,4.7255859
		s-4.5341797,4.3798828-5.9941406,7.1474609c-1.4599609,2.765625-2.1904297,5.6865234-2.1904297,8.7597656
		c0,3.0742188,0.7304688,5.9560547,2.1904297,8.6464844c1.4599609,2.6894531,3.4580078,5.0332031,5.9941406,7.03125
		s5.4560547,3.5732422,8.7607422,4.7265625c3.3046875,1.1523438,6.8779297,1.7285156,10.7207031,1.7285156
		c3.8417969,0,7.4921875-0.5761719,10.9511719-1.7285156c3.4580078-1.1533203,6.4550781-2.7285156,8.9912109-4.7265625
		s4.5341797-4.3417969,5.9941406-7.03125C387.1660156,229.7177734,387.8964844,226.8359375,387.8964844,223.7617188z"/>
</g>
</svg>
