<?xml version="1.0" encoding="utf-8"?>
<!-- Generator: Adobe Illustrator 12.0.0, SVG Export Plug-In . SVG Version: 6.00 Build 51448)  -->
<!DOCTYPE svg PUBLIC "-//W3C//DTD SVG 1.1//EN" "http://www.w3.org/Graphics/SVG/1.1/DTD/svg11.dtd" [
	<!ENTITY ns_svg "http://www.w3.org/2000/svg">
	<!ENTITY ns_xlink "http://www.w3.org/1999/xlink">
]>
<svg  version="1.1" id="Layer_1" xmlns="&ns_svg;" xmlns:xlink="&ns_xlink;" width="385" height="401.0009766"
	 viewBox="0 0 385 401.0009766" overflow="visible" enable-background="new 0 0 385 401.0009766" xml:space="preserve">
<g>
	<g>
		<path fill-rule="evenodd" clip-rule="evenodd" fill="#FFFFFF" d="M0.5,262.0195313
			C0.5,139.2568359,81.230957,35.3525391,192.5,0.5c111.2685547,34.8525391,192,138.7568359,192,261.5195313v63.6416016
			c0,29.9941406-21.3037109,55.0146484-49.6015625,60.7607422l-0.1894531,0.0380859l-0.1865234,0.0371094l-0.1875,0.0371094
			C288.4111328,395.7021484,241.0175781,400.5009766,192.5,400.5009766c-48.5185547,0-95.9111328-4.7988281-141.8349609-13.9667969
			l-0.1875-0.0371094l-0.1865234-0.0371094l-0.1899414-0.0380859C21.8037109,380.6757813,0.5,355.6552734,0.5,325.6611328
			C0.5,291.4199219,0.5,384.7822266,0.5,262.0195313z"/>
		
			<path fill-rule="evenodd" clip-rule="evenodd" fill="none" stroke="#000000" stroke-linecap="round" stroke-linejoin="round" stroke-miterlimit="3.863693" d="
			M0.5,262.0195313C0.5,139.2568359,81.230957,35.3525391,192.5,0.5c111.2685547,34.8525391,192,138.7568359,192,261.5195313
			v63.6416016c0,29.9941406-21.3037109,55.0146484-49.6015625,60.7607422l-0.1894531,0.0380859l-0.1865234,0.0371094
			l-0.1875,0.0371094C288.4111328,395.7021484,241.0175781,400.5009766,192.5,400.5009766
			c-48.5185547,0-95.9111328-4.7988281-141.8349609-13.9667969l-0.1875-0.0371094l-0.1865234-0.0371094l-0.1899414-0.0380859
			C21.8037109,380.6757813,0.5,355.6552734,0.5,325.6611328C0.5,291.4199219,0.5,384.7822266,0.5,262.0195313z"/>
	</g>
	<g>
		<path fill-rule="evenodd" clip-rule="evenodd" fill="#006B54" d="M192.5,13.1035156
			c104.5498047,34.4199219,180,132.8701172,180,248.9160156v63.6416016c0,24.1728516-17.1660156,44.3662109-39.9824219,48.9990234
			c-45.1630859,9.015625-92.3027344,13.8408203-140.0175781,13.8408203S98.1708984,383.78125,53.0087891,374.765625
			C30.1914063,370.1318359,12.5,349.8339844,12.5,325.6611328v-63.6416016C12.5,145.9736328,87.9501953,47.5234375,192.5,13.1035156
			z"/>
	</g>
	<g>
		<g>
			<g>
				<path fill-rule="evenodd" clip-rule="evenodd" fill="#FFFFFF" d="M80.8442383,145.7192383
					c-0.1098633,1.2050781-0.4057617,2.3603516-0.887207,3.4667969c-0.4814453,1.105957-1.0898438,2.1225586-1.8261719,3.050293
					c-0.7358398,0.9272461-1.6020508,1.7578125-2.5986328,2.4921875c-0.9960938,0.7338867-2.0644531,1.3310547-3.2045898,1.7919922
					c-1.8808594,0.7597656-3.7133789,1.0859375-5.4975586,0.9775391c-1.7841797-0.1074219-3.4658203-0.597168-5.0439453-1.4677734
					c-1.5786133-0.8710938-3.0170898-2.1132813-4.3154297-3.7265625c-1.2988281-1.6142578-2.3974609-3.5327148-3.2954102-5.7558594
					c-0.909668-2.2514648-1.4550781-4.4013672-1.6362305-6.4501953s-0.0039063-3.9272461,0.5327148-5.6357422
					c0.5366211-1.7089844,1.4116211-3.2143555,2.6259766-4.5175781c1.2138672-1.3027344,2.7617188-2.3339844,4.6425781-3.09375
					c2.3085938-0.9331055,4.675293-1.2509766,7.0991211-0.9541016c2.4243164,0.2973633,4.6010742,1.2329102,6.5302734,2.8076172
					l-3.5473633,4.2675781c-0.640625-0.4370117-1.1538086-0.7436523-1.5400391-0.9189453
					c-0.3857422-0.1757813-0.8300781-0.3115234-1.3325195-0.4067383c-0.7543945-0.2255859-1.6069336-0.3041992-2.5571289-0.2348633
					c-0.949707,0.0688477-1.8100586,0.2587891-2.5795898,0.5693359c-1.3110352,0.5297852-2.2900391,1.265625-2.9375,2.206543
					c-0.6474609,0.9414063-1.0576172,1.9770508-1.230957,3.1079102c-0.1728516,1.1308594-0.1459961,2.3056641,0.0805664,3.5234375
					c0.2270508,1.2177734,0.5649414,2.3828125,1.0141602,3.4941406c1.2666016,3.1352539,2.8608398,5.3173828,4.7832031,6.5463867
					c1.9223633,1.2294922,3.9663086,1.40625,6.1323242,0.53125c0.6557617-0.2651367,1.2211914-0.5678711,1.6967773-0.9091797
					c0.4750977-0.3413086,0.9077148-0.7480469,1.2973633-1.2202148c0.3891602-0.4726563,0.7451172-1.0473633,1.0683594-1.7250977
					c0.3232422-0.6772461,0.6601563-1.4848633,1.0107422-2.4223633L80.8442383,145.7192383z"/>
			</g>
			<g>
				<path fill-rule="evenodd" clip-rule="evenodd" fill="#FFFFFF" d="M111.6547852,142.4169922l-5.0405273-6.0771484
					l-12.8754883,3.9365234l-0.7358398,7.8427734l-5.8208008,1.7797852l3.4023438-33.3452148l5.3793945-1.6445313
					l21.3789063,25.7685547L111.6547852,142.4169922z M95.5253906,123.0952148l-1.0976563,11.2329102l8.2895508-2.534668
					L95.5253906,123.0952148z"/>
			</g>
			<g>
				<polygon fill-rule="evenodd" clip-rule="evenodd" fill="#FFFFFF" points="122.6401367,140.0185547 116.7456055,109.6928711 
					122.1767578,108.637207 127.1655273,134.3007813 144.4106445,130.9492188 145.3164063,135.6108398 				"/>
			</g>
			<g>
				
					<rect x="135.9862061" y="116.7362137" transform="matrix(0.1218596 0.9925473 -0.9925473 0.1218596 251.5913849 -45.364151)" fill-rule="evenodd" clip-rule="evenodd" fill="#FFFFFF" width="30.8933239" height="5.5329432"/>
			</g>
			<g>
				<polygon fill-rule="evenodd" clip-rule="evenodd" fill="#FFFFFF" points="167.8574219,107.9609375 168.2949219,114.2167969 
					177.9082031,113.5444336 178.3007813,119.1557617 168.6875,119.828125 169.6264648,133.2592773 164.0146484,133.6518555 
					161.859375,102.8339844 184.9042969,101.222168 185.2900391,106.7421875 				"/>
			</g>
			<g>
				<path fill-rule="evenodd" clip-rule="evenodd" fill="#FFFFFF" d="M217.8164063,117.5214844
					c-0.0849609,2.4267578-0.4619141,4.6206055-1.1298828,6.5810547c-0.6679688,1.9609375-1.5800781,3.628418-2.7353516,5.0029297
					s-2.5371094,2.4257813-4.1474609,3.1542969c-1.609375,0.7280273-3.3974609,1.0576172-5.3632813,0.9892578
					c-2.2734375-0.0795898-4.2148438-0.6166992-5.8261719-1.6108398c-1.6103516-0.9946289-2.9267578-2.2709961-3.9492188-3.8291016
					s-1.7529297-3.3061523-2.1933594-5.2436523c-0.4394531-1.9379883-0.6259766-3.8745117-0.5581055-5.8100586
					c0.0854492-2.4575195,0.4624023-4.6591797,1.1303711-6.6040039c0.6679688-1.9453125,1.59375-3.5893555,2.7783203-4.9321289
					c1.1855469-1.3427734,2.5976563-2.3549805,4.2363281-3.0356445c1.6376953-0.6811523,3.4707031-0.9863281,5.4990234-0.9155273
					c1.9042969,0.0668945,3.6269531,0.5112305,5.1669922,1.3339844s2.8535156,1.9453125,3.9423828,3.3676758
					c1.0878906,1.421875,1.9052734,3.1191406,2.4521484,5.0913086
					C217.6650391,113.0332031,217.8974609,115.1865234,217.8164063,117.5214844z M212.28125,117.4667969
					c0.1142578-3.2568359-0.4267578-5.828125-1.6220703-7.7158203c-1.1953125-1.887207-2.9599609-2.871582-5.2949219-2.953125
					s-4.1943359,0.7763672-5.5800781,2.5737305c-1.3857422,1.796875-2.1347656,4.3237305-2.2490234,7.5800781
					c-0.1152344,3.3178711,0.4550781,5.9213867,1.7109375,7.8110352c1.2568359,1.8891602,3.0527344,2.875,5.3876953,2.9560547
					c1.4746094,0.0517578,2.6914063-0.2285156,3.6513672-0.8413086c0.9589844-0.6123047,1.7255859-1.4160156,2.2988281-2.4111328
					c0.5722656-0.9946289,0.9882813-2.1108398,1.2470703-3.3476563S212.2402344,118.6650391,212.28125,117.4667969z"/>
			</g>
			<g>
				<path fill-rule="evenodd" clip-rule="evenodd" fill="#FFFFFF" d="M243.0107422,136.4501953l-3.2431641-12.7021484
					l-8.1738281-1.1484375l-1.6875,12.0087891l-5.4794922-0.7705078l4.2998047-30.5922852l14.0634766,1.9760742
					c1.1259766,0.1586914,2.0722656,0.3847656,2.8378906,0.6787109s1.5107422,0.7397461,2.2333984,1.3378906
					c1.3496094,0.9970703,2.3505859,2.2705078,3.0019531,3.8212891c0.6503906,1.550293,0.8544922,3.1933594,0.6113281,4.9282227
					c-0.2441406,1.7348633-0.8994141,3.2495117-1.9658203,4.5429688c-1.0673828,1.293457-2.4511719,2.2553711-4.1542969,2.8852539
					l3.7744141,13.8935547L243.0107422,136.4501953z M245.9941406,115.2177734
					c0.1679688-1.1875-0.0957031-2.1865234-0.7890625-2.9980469c-0.6923828-0.8110352-1.7246094-1.3129883-3.09375-1.5058594
					l-8.6757813-1.21875l-1.0722656,7.625l8.6757813,1.2192383c1.3701172,0.1928711,2.4990234,0.0019531,3.3867188-0.5717773
					S245.8359375,116.34375,245.9941406,115.2177734z"/>
			</g>
			<g>
				<polygon fill-rule="evenodd" clip-rule="evenodd" fill="#FFFFFF" points="274.8271484,143.2734375 265.6972656,119.0898438 
					260.5546875,139.7148438 255.2753906,138.3984375 262.75,108.4228516 268.0292969,109.7392578 276.8339844,132.9389648 
					281.7636719,113.1640625 286.9541016,114.4580078 279.4804688,144.4335938 				"/>
			</g>
			<g>
				
					<rect x="279.0962219" y="130.1167603" transform="matrix(-0.3090257 0.9510537 -0.9510537 -0.3090257 511.9432373 -106.1788483)" fill-rule="evenodd" clip-rule="evenodd" fill="#FFFFFF" width="30.8934689" height="5.532599"/>
			</g>
			<g>
				<path fill-rule="evenodd" clip-rule="evenodd" fill="#FFFFFF" d="M321.2080078,159.2294922l-0.0927734-7.8950195
					l-12.4833984-5.043457l-5.5078125,5.6318359l-5.6435547-2.2797852l23.6289063-23.7729492l5.2158203,2.1074219
					l0.3974609,33.4799805L321.2080078,159.2294922z M320.8330078,134.0634766l-7.9228516,8.0380859l8.0380859,3.2470703
					L320.8330078,134.0634766z"/>
			</g>
		</g>
	</g>
</g>
<g>
	<path fill-rule="evenodd" clip-rule="evenodd" fill="#FFFFFF" d="M177,203.7050781
		c-1.3833008,1.6904297-2.6513672,3.2275391-3.8037109,4.6113281c-1.152832,1.3828125-2.2290039,2.765625-3.2280273,4.1494141
		s-2.0366211,2.84375-3.1123047,4.3798828c-1.0756836,1.5371094-2.2285156,3.3046875-3.4580078,5.3027344
		c-6.9165039,11.3740234-12.7954102,23.3623047-17.637207,35.9658203
		c-4.8413086,12.6035156-8.5683594,25.1298828-11.1816406,37.5791016c-0.4609375,3.2285156-0.921875,6.3398438-1.3828125,9.3378906
		c-0.4614258,2.9960938-0.8071289,5.9941406-1.0375977,8.9902344c-0.230957,2.9980469-0.4228516,6.0722656-0.5766602,9.2226563
		c-0.1533203,3.1503906-0.2304688,6.6474609-0.2304688,10.4902344h-24.8989258
		c0.1538086-8.9150391,0.6914063-17.5214844,1.6137695-25.8222656c0.921875-8.2988281,2.2670898-16.4453125,4.034668-24.4375
		s4.034668-15.9462891,6.8012695-23.8613281c2.7666016-7.9160156,6.0708008-15.9472656,9.9130859-24.0927734
		c2.6132813-5.8408203,5.456543-11.5273438,8.5302734-17.0605469c3.0742188-5.5332031,5.9941406-10.4511719,8.7607422-14.7548828
		H72.331543v-24.4379883H177V203.7050781z"/>
	<path fill-rule="evenodd" clip-rule="evenodd" fill="#FFFFFF" d="M312.6679688,256.7304688
		c0,12.296875-1.4589844,24.0546875-4.3798828,35.2744141c-2.9199219,11.2197266-7.0703125,20.2880859-12.4501953,27.2041016
		C287.2314453,330.7363281,274.7822266,336.5,258.4902344,336.5c-10.9130859,0-19.9042969-2.2285156-26.9746094-6.6855469
		s-12.9101563-11.4511719-17.5214844-20.9794922c-3.2275391-6.609375-5.8408203-14.6396484-7.8388672-24.0927734
		c-1.9980469-9.4521484-2.9970703-18.7890625-2.9970703-28.0117188c0-12.7558594,1.4990234-24.5917969,4.4960938-35.5039063
		s7.1083984-20.0576172,12.3339844-27.4350586c4.6113281-5.840332,10.1054688-10.1826172,16.484375-13.0258789
		s14.0253906-4.2651367,22.9394531-4.2651367c9.8369141,0,18.2128906,2.2285156,25.1298828,6.6860352
		c6.9160156,4.4570313,12.8330078,11.4501953,17.7519531,20.9794922c3.2275391,6.9160156,5.7636719,14.9863281,7.6083984,24.2080078
		C311.7460938,237.5957031,312.6679688,247.0478516,312.6679688,256.7304688z M288.2304688,256.7304688
		c0-8.7597656-0.7685547-16.8671875-2.3056641-24.3222656c-1.5371094-7.4541016-3.8427734-13.7949219-6.9160156-19.0195313
		c-2.4599609-3.9960938-5.2646484-6.9169922-8.4150391-8.7617188c-3.1503906-1.84375-7.03125-2.9199219-11.6425781-3.2275391
		c-5.9941406-0.3071289-10.9902344,1.0761719-14.9863281,4.1494141c-3.9960938,3.0742188-7.2998047,8.0703125-9.9130859,14.9863281
		c-1.9980469,4.6113281-3.4970703,10.1826172-4.4951172,16.7148438c-1,6.5322266-1.4990234,13.0253906-1.4990234,19.4804688
		c0,8.3007813,0.7685547,16.2929688,2.3056641,23.9775391s3.8417969,13.9863281,6.9160156,18.9052734
		c2.4589844,3.9960938,5.3798828,6.9921875,8.7607422,8.9912109c3.3818359,1.9980469,7.53125,2.9970703,12.4501953,2.9970703
		c5.6865234,0,10.4121094-1.5371094,14.1777344-4.6113281s6.9550781-8.0683594,9.5683594-14.9853516
		c0.7685547-1.9980469,1.5371094-4.4189453,2.3056641-7.2626953c0.7685547-2.8427734,1.4208984-5.8398438,1.9599609-8.9912109
		c0.5371094-3.1503906,0.9599609-6.3398438,1.2675781-9.5673828
		C288.0761719,262.9560547,288.2304688,259.8046875,288.2304688,256.7304688z"/>
</g>
</svg>
