<?xml version="1.0" encoding="utf-8"?>
<!-- Generator: Adobe Illustrator 12.0.0, SVG Export Plug-In . SVG Version: 6.00 Build 51448)  -->
<!DOCTYPE svg PUBLIC "-//W3C//DTD SVG 1.1//EN" "http://www.w3.org/Graphics/SVG/1.1/DTD/svg11.dtd" [
	<!ENTITY ns_svg "http://www.w3.org/2000/svg">
	<!ENTITY ns_xlink "http://www.w3.org/1999/xlink">
]>
<svg  version="1.1" id="Layer_1" xmlns="&ns_svg;" xmlns:xlink="&ns_xlink;" width="385" height="401.0009766"
	 viewBox="0 0 385 401.0009766" overflow="visible" enable-background="new 0 0 385 401.0009766" xml:space="preserve">
<g>
	<g>
		<path fill-rule="evenodd" clip-rule="evenodd" fill="#FFFFFF" d="M0.5,262.0195313
			C0.5,139.2568359,81.230957,35.3525391,192.5,0.5c111.2685547,34.8525391,192,138.7568359,192,261.5195313v63.6416016
			c0,29.9941406-21.3037109,55.0136719-49.6015625,60.7607422l-0.1894531,0.0380859l-0.1875,0.0371094l-0.1875,0.0371094
			C288.4111328,395.7021484,241.0175781,400.5009766,192.5,400.5009766c-48.5185547,0-95.9116211-4.7988281-141.8349609-13.9667969
			l-0.1875-0.0371094l-0.1865234-0.0371094l-0.1899414-0.0380859C21.8037109,380.6748047,0.5,355.6552734,0.5,325.6611328
			C0.5,291.4199219,0.5,384.7822266,0.5,262.0195313z"/>
		
			<path fill-rule="evenodd" clip-rule="evenodd" fill="none" stroke="#000000" stroke-linecap="round" stroke-linejoin="round" stroke-miterlimit="3.863693" d="
			M0.5,262.0195313C0.5,139.2568359,81.230957,35.3525391,192.5,0.5c111.2685547,34.8525391,192,138.7568359,192,261.5195313
			v63.6416016c0,29.9941406-21.3037109,55.0136719-49.6015625,60.7607422l-0.1894531,0.0380859l-0.1875,0.0371094l-0.1875,0.0371094
			C288.4111328,395.7021484,241.0175781,400.5009766,192.5,400.5009766c-48.5185547,0-95.9116211-4.7988281-141.8349609-13.9667969
			l-0.1875-0.0371094l-0.1865234-0.0371094l-0.1899414-0.0380859C21.8037109,380.6748047,0.5,355.6552734,0.5,325.6611328
			C0.5,291.4199219,0.5,384.7822266,0.5,262.0195313z"/>
	</g>
	<g>
		<path fill-rule="evenodd" clip-rule="evenodd" fill="#006B54" d="M192.5,13.1035156
			c104.5498047,34.4199219,180,132.8701172,180,248.9160156v63.6416016c0,24.1738281-17.1660156,44.3662109-39.9824219,48.9990234
			c-45.1630859,9.015625-92.3027344,13.8408203-140.0175781,13.8408203S98.1708984,383.78125,53.0083008,374.765625
			C30.1914063,370.1318359,12.5,349.8349609,12.5,325.6611328v-63.6416016C12.5,145.9736328,87.9501953,47.5234375,192.5,13.1035156
			z"/>
	</g>
	<g>
		<g>
			<g>
				<path fill-rule="evenodd" clip-rule="evenodd" fill="#FFFFFF" d="M80.84375,145.7192383
					c-0.109375,1.2045898-0.4052734,2.3608398-0.8867188,3.4667969s-1.0898438,2.1225586-1.8261719,3.050293
					c-0.7358398,0.9272461-1.6020508,1.7578125-2.5986328,2.4921875c-0.9960938,0.7338867-2.0644531,1.3310547-3.2045898,1.7919922
					c-1.8813477,0.7597656-3.7133789,1.0859375-5.4975586,0.9775391c-1.7841797-0.1074219-3.4658203-0.597168-5.0439453-1.4677734
					c-1.5791016-0.8710938-3.0175781-2.1132813-4.315918-3.7265625c-1.2983398-1.6142578-2.3969727-3.5322266-3.2949219-5.7558594
					c-0.909668-2.2514648-1.4550781-4.4013672-1.6362305-6.4501953c-0.1816406-2.0488281-0.0039063-3.9272461,0.5327148-5.6357422
					c0.5361328-1.7089844,1.4116211-3.2143555,2.6254883-4.5175781c1.2143555-1.3027344,2.7617188-2.3339844,4.6430664-3.09375
					c2.3085938-0.9326172,4.675293-1.2509766,7.0991211-0.9541016c2.4243164,0.2973633,4.6005859,1.2333984,6.5302734,2.8076172
					l-3.5473633,4.2675781c-0.6411133-0.4370117-1.1538086-0.7441406-1.5400391-0.9189453
					c-0.3862305-0.1757813-0.8305664-0.3115234-1.3330078-0.4067383c-0.7543945-0.2255859-1.605957-0.3041992-2.5566406-0.2348633
					c-0.9501953,0.0688477-1.8100586,0.2587891-2.5795898,0.5693359c-1.3110352,0.5297852-2.2900391,1.265625-2.9375,2.2060547
					c-0.6474609,0.9418945-1.0581055,1.9775391-1.230957,3.1083984c-0.1733398,1.1308594-0.1459961,2.3056641,0.0805664,3.5234375
					s0.5649414,2.3828125,1.0136719,3.4941406c1.2666016,3.1352539,2.8613281,5.3173828,4.7836914,6.5463867
					c1.9223633,1.2294922,3.9663086,1.4067383,6.1323242,0.53125c0.6552734-0.2651367,1.2211914-0.5678711,1.6962891-0.9091797
					c0.4760742-0.3413086,0.9082031-0.7485352,1.2978516-1.2202148c0.3891602-0.4726563,0.7451172-1.0473633,1.0683594-1.7250977
					c0.3232422-0.6772461,0.6601563-1.4848633,1.0107422-2.4223633L80.84375,145.7192383z"/>
			</g>
			<g>
				<path fill-rule="evenodd" clip-rule="evenodd" fill="#FFFFFF" d="M111.6547852,142.4169922l-5.0405273-6.0771484
					l-12.8754883,3.9365234l-0.7358398,7.8427734l-5.8208008,1.7797852l3.4023438-33.3452148l5.3793945-1.6445313
					l21.3793945,25.7685547L111.6547852,142.4169922z M95.5253906,123.0957031l-1.0976563,11.2324219l8.2895508-2.534668
					L95.5253906,123.0957031z"/>
			</g>
			<g>
				<polygon fill-rule="evenodd" clip-rule="evenodd" fill="#FFFFFF" points="122.6401367,140.0185547 116.7456055,109.6928711 
					122.1772461,108.637207 127.1655273,134.3007813 144.4101563,130.9492188 145.3164063,135.6108398 				"/>
			</g>
			<g>
				
					<rect x="135.9859314" y="116.7362137" transform="matrix(0.1218732 0.9925457 -0.9925457 0.1218732 251.5893555 -45.3653107)" fill-rule="evenodd" clip-rule="evenodd" fill="#FFFFFF" width="30.8938675" height="5.5334282"/>
			</g>
			<g>
				<polygon fill-rule="evenodd" clip-rule="evenodd" fill="#FFFFFF" points="167.8574219,107.9609375 168.2944336,114.2167969 
					177.9082031,113.5444336 178.300293,119.15625 168.6870117,119.828125 169.6264648,133.2597656 164.0146484,133.6518555 
					161.859375,102.8339844 184.9038086,101.2226563 185.2900391,106.7421875 				"/>
			</g>
			<g>
				<path fill-rule="evenodd" clip-rule="evenodd" fill="#FFFFFF" d="M217.8164063,117.5214844
					c-0.0859375,2.4267578-0.4619141,4.6210938-1.1298828,6.5810547c-0.6689453,1.9609375-1.5800781,3.628418-2.7353516,5.0029297
					c-1.1542969,1.3745117-2.5371094,2.4257813-4.1464844,3.1542969c-1.6103516,0.7275391-3.3984375,1.0576172-5.3642578,0.9892578
					c-2.2734375-0.0795898-4.2158203-0.6162109-5.8261719-1.6108398s-2.9267578-2.2709961-3.9501953-3.8291016
					c-1.0214844-1.5581055-1.7519531-3.3061523-2.1923828-5.2436523c-0.4394531-1.9379883-0.6259766-3.8745117-0.5581055-5.8100586
					c0.0854492-2.4575195,0.4624023-4.6586914,1.1293945-6.6040039c0.6679688-1.9453125,1.5947266-3.5893555,2.7792969-4.9321289
					c1.1855469-1.3427734,2.5976563-2.3549805,4.2363281-3.0356445c1.6386719-0.6811523,3.4707031-0.9863281,5.4980469-0.9150391
					c1.9052734,0.0664063,3.6269531,0.5107422,5.1679688,1.3334961c1.5390625,0.8227539,2.8535156,1.9453125,3.9414063,3.3676758
					c1.0888672,1.421875,1.90625,3.1191406,2.453125,5.0913086
					C217.6650391,113.0332031,217.8974609,115.1865234,217.8164063,117.5214844z M212.28125,117.4667969
					c0.1132813-3.2568359-0.4267578-5.828125-1.6220703-7.7158203c-1.1953125-1.8867188-2.9599609-2.8710938-5.2949219-2.953125
					c-2.3349609-0.0810547-4.1943359,0.7763672-5.5800781,2.5737305c-1.3857422,1.796875-2.1357422,4.3237305-2.2490234,7.5800781
					c-0.1152344,3.3178711,0.4550781,5.9213867,1.7109375,7.8110352c1.2578125,1.8891602,3.0527344,2.875,5.3876953,2.9560547
					c1.4746094,0.0517578,2.6914063-0.2285156,3.6513672-0.8413086c0.9589844-0.6123047,1.7255859-1.4160156,2.2988281-2.4106445
					c0.5722656-0.9951172,0.9882813-2.1113281,1.2470703-3.3476563
					C212.0898438,119.8818359,212.2402344,118.6650391,212.28125,117.4667969z"/>
			</g>
			<g>
				<path fill-rule="evenodd" clip-rule="evenodd" fill="#FFFFFF" d="M243.0107422,136.4501953l-3.2431641-12.7021484
					l-8.1738281-1.1484375l-1.6875,12.0087891l-5.4794922-0.7705078l4.2998047-30.5927734l14.0625,1.9765625
					c1.1269531,0.1586914,2.0732422,0.3847656,2.8398438,0.6787109c0.7646484,0.2939453,1.5097656,0.7402344,2.2324219,1.3378906
					c1.3496094,0.9970703,2.3496094,2.2705078,3.0019531,3.8212891c0.6503906,1.550293,0.8544922,3.1933594,0.6113281,4.9282227
					c-0.2441406,1.7348633-0.8994141,3.2495117-1.9667969,4.5429688c-1.0654297,1.293457-2.4511719,2.2553711-4.1533203,2.8852539
					l3.7744141,13.8935547L243.0107422,136.4501953z M245.9941406,115.2177734
					c0.1679688-1.1875-0.0957031-2.1865234-0.7890625-2.9980469c-0.6933594-0.8110352-1.7246094-1.3129883-3.09375-1.5058594
					l-8.6757813-1.21875l-1.0722656,7.625l8.6757813,1.2192383c1.3701172,0.1928711,2.4990234,0.0024414,3.3867188-0.5717773
					C245.3134766,117.1938477,245.8359375,116.34375,245.9941406,115.2177734z"/>
			</g>
			<g>
				<polygon fill-rule="evenodd" clip-rule="evenodd" fill="#FFFFFF" points="274.8271484,143.2734375 265.6972656,119.0898438 
					260.5546875,139.7148438 255.2753906,138.3984375 262.75,108.4228516 268.0292969,109.7392578 276.8339844,132.9389648 
					281.7636719,113.1640625 286.953125,114.4580078 279.4804688,144.4335938 				"/>
			</g>
			<g>
				
					<rect x="279.0964661" y="130.1168365" transform="matrix(-0.3090303 0.9510522 -0.9510522 -0.3090303 511.944397 -106.1777954)" fill-rule="evenodd" clip-rule="evenodd" fill="#FFFFFF" width="30.8930035" height="5.5324478"/>
			</g>
			<g>
				<path fill-rule="evenodd" clip-rule="evenodd" fill="#FFFFFF" d="M321.2080078,159.2294922l-0.0927734-7.8950195
					l-12.4824219-5.043457l-5.5087891,5.6318359l-5.6435547-2.2797852l23.6289063-23.7729492l5.2158203,2.1074219
					l0.3974609,33.4799805L321.2080078,159.2294922z M320.8330078,134.0634766l-7.9228516,8.0380859l8.0371094,3.2470703
					L320.8330078,134.0634766z"/>
			</g>
		</g>
	</g>
</g>
<g>
	<path fill-rule="evenodd" clip-rule="evenodd" fill="#FFFFFF" d="M177.4301758,276.7890625
		c0,8.6064453-1.6523438,16.5224609-4.9570313,23.7460938c-3.3041992,7.2236328-7.9536133,13.5253906-13.9477539,18.9042969
		c-5.9941406,5.3798828-13.1030273,9.5683594-21.3256836,12.5654297C128.9765625,335.0019531,119.9472656,336.5,110.1103516,336.5
		c-6.7631836,0-13.4101563-0.7675781-19.9423828-2.3046875s-12.4882813-3.6894531-17.8676758-6.4550781l11.9887695-21.671875
		c3.2275391,1.6904297,7.4541016,3.0351563,12.6801758,4.0341797c5.2255859,0.9990234,10.6816406,1.4990234,16.3691406,1.4990234
		c5.5327148,0,10.7197266-0.8837891,15.5615234-2.6513672c4.8413086-1.7675781,9.0678711-4.1884766,12.6801758-7.2626953
		c3.6118164-3.0742188,6.4165039-6.7236328,8.4150391-10.9511719c1.9980469-4.2265625,2.9970703-8.875,2.9970703-13.9472656
		c0-3.8427734-0.7299805-7.3779297-2.1904297-10.6054688c-1.4599609-3.2275391-3.4580078-6.0712891-5.9941406-8.5302734
		c-2.5361328-2.4599609-5.456543-4.3798828-8.7607422-5.7636719c-3.3046875-1.3837891-6.8779297-2.0751953-10.7207031-2.0751953
		c-2.7666016,0-5.1870117,0.2304688-7.262207,0.6914063c-2.074707,0.4609375-4.034668,1.3066406-5.8789063,2.5361328
		s-3.6889648,2.8818359-5.5332031,4.9570313s-3.9189453,4.7265625-6.2246094,7.9541016l-24.4379883-6.9160156l3.9189453-79.7705078
		h88.7612305v24.4384766h-65.0141602l-1.6142578,25.3603516c5.6870117-1.6904297,10.144043-2.84375,13.371582-3.4580078
		c3.2280273-0.6152344,6.7626953-0.921875,10.6054688-0.921875c7.0698242,0,13.7172852,1.3828125,19.9423828,4.1494141
		c6.2246094,2.7666016,11.6811523,6.5322266,16.3686523,11.296875c4.6879883,4.7646484,8.3764648,10.2978516,11.0664063,16.5986328
		C176.0849609,263.0332031,177.4301758,269.71875,177.4301758,276.7890625z"/>
	<path fill-rule="evenodd" clip-rule="evenodd" fill="#FFFFFF" d="M312.6992188,284.3964844
		c0,7.0703125-1.421875,13.7558594-4.265625,20.0576172c-2.8417969,6.3017578-6.6855469,11.8349609-11.5263672,16.5996094
		c-4.8417969,4.7646484-10.4130859,8.5302734-16.7148438,11.296875S267.2050781,336.5,260.1347656,336.5
		s-13.7558594-1.3828125-20.0576172-4.1494141s-11.8740234-6.5322266-16.7148438-11.296875
		s-8.6845703-10.2978516-11.5273438-16.5996094s-4.2646484-12.9873047-4.2646484-20.0576172
		c0-7.3769531,1.5371094-14.0244141,4.6103516-19.9423828c3.0742188-5.9169922,7.4541016-11.1806641,13.1416016-15.7919922
		c-7.53125-7.9921875-11.296875-17.3681641-11.296875-28.1269531c0-5.9941406,1.2294922-11.6425781,3.6894531-16.9453125
		c2.4580078-5.3027344,5.8007813-9.9902344,10.0273438-14.0634766s9.1074219-7.262207,14.640625-9.5673828
		c5.5332031-2.3056641,11.4501953-3.4584961,17.7519531-3.4584961c6.1484375,0,12.0654297,1.152832,17.7519531,3.4584961
		c5.6875,2.3051758,10.6435547,5.4941406,14.8710938,9.5673828c4.2265625,4.0732422,7.6074219,8.7607422,10.1435547,14.0634766
		s3.8037109,10.9511719,3.8037109,16.9453125c0,5.3789063-1.0371094,10.4130859-3.1123047,15.1005859
		c-2.0751953,4.6884766-5.0341797,9.0302734-8.8759766,13.0263672c5.9941406,4.6113281,10.4902344,9.9511719,13.4863281,16.0234375
		C311.2011719,270.7558594,312.6992188,277.3261719,312.6992188,284.3964844z M281.8066406,219.84375
		c0-5.0722656-2.1132813-9.4140625-6.3408203-13.0263672c-4.2265625-3.6123047-9.3369141-5.4179688-15.3310547-5.4179688
		s-11.1054688,1.8056641-15.3320313,5.4179688s-6.3398438,7.9541016-6.3398438,13.0263672
		c0,4.6103516,2.1132813,8.5683594,6.3398438,11.8730469s9.3378906,4.9570313,15.3320313,4.9570313
		s11.1044922-1.6523438,15.3310547-4.9570313C279.6933594,228.4121094,281.8066406,224.4541016,281.8066406,219.84375z
		 M288.2617188,284.8574219c0-3.2275391-0.7685547-6.2626953-2.3056641-9.1064453
		c-1.5361328-2.8427734-3.5732422-5.3017578-6.1103516-7.3769531c-2.5351563-2.0751953-5.4941406-3.7275391-8.875-4.9570313
		c-3.3818359-1.2294922-6.9941406-1.8447266-10.8359375-1.8447266c-3.8427734,0-7.4160156,0.6152344-10.7207031,1.8447266
		s-6.2246094,2.8818359-8.7607422,4.9570313s-4.5341797,4.5341797-5.9941406,7.3769531
		c-1.4599609,2.84375-2.1904297,5.8789063-2.1904297,9.1064453c0,3.6894531,0.7304688,7.1474609,2.1904297,10.375
		s3.4580078,6.0712891,5.9941406,8.5302734s5.4560547,4.3798828,8.7607422,5.7636719s6.8779297,2.0751953,10.7207031,2.0751953
		c3.8417969,0,7.4921875-0.6914063,10.9511719-2.0751953c3.4580078-1.3837891,6.4550781-3.3046875,8.9912109-5.7636719
		s4.5341797-5.3027344,5.9941406-8.5302734S288.2617188,288.546875,288.2617188,284.8574219z"/>
</g>
</svg>
