<?xml version="1.0" encoding="UTF-8" standalone="no"?>
<!-- Created with Inkscape (http://www.inkscape.org/) -->

<svg
   xmlns:i="http://ns.adobe.com/AdobeIllustrator/10.0/"
   xmlns:dc="http://purl.org/dc/elements/1.1/"
   xmlns:cc="http://creativecommons.org/ns#"
   xmlns:rdf="http://www.w3.org/1999/02/22-rdf-syntax-ns#"
   xmlns:svg="http://www.w3.org/2000/svg"
   xmlns="http://www.w3.org/2000/svg"
   xmlns:sodipodi="http://sodipodi.sourceforge.net/DTD/sodipodi-0.dtd"
   xmlns:inkscape="http://www.inkscape.org/namespaces/inkscape"
   width="280"
   height="225"
   id="svg2"
   sodipodi:version="0.32"
   inkscape:version="0.48.4 r9939"
   sodipodi:docname="K-template3c.svg"
   inkscape:export-filename="/home/scott/roadgeek/ks/k5.png"
   inkscape:export-xdpi="90.000000"
   inkscape:export-ydpi="90.000000"
   inkscape:output_extension="org.inkscape.output.svg.inkscape"
   version="1.0"
   sodipodi:modified="true">
  <defs
     id="defs4" />
  <sodipodi:namedview
     id="base"
     pagecolor="#ffffff"
     bordercolor="#666666"
     borderopacity="1.0"
     inkscape:pageopacity="0.0"
     inkscape:pageshadow="2"
     inkscape:zoom="0.7"
     inkscape:cx="158.30032"
     inkscape:cy="179.82426"
     inkscape:document-units="px"
     inkscape:current-layer="layer1"
     inkscape:window-width="1016"
     inkscape:window-height="693"
     inkscape:window-x="0"
     inkscape:window-y="0"
     width="280px"
     height="225px"
     showgrid="false"
     inkscape:window-maximized="0" />
  <metadata
     id="metadata7">
    <rdf:RDF>
      <cc:Work
         rdf:about="">
        <dc:format>image/svg+xml</dc:format>
        <dc:type
           rdf:resource="http://purl.org/dc/dcmitype/StillImage" />
        <dc:title></dc:title>
      </cc:Work>
    </rdf:RDF>
  </metadata>
  <g
     inkscape:label="Layer 1"
     inkscape:groupmode="layer"
     id="layer1">
    <rect
       style="opacity:1;fill:#000000;fill-opacity:1;stroke:none;stroke-width:3.31135416;stroke-miterlimit:4;stroke-dasharray:none;stroke-opacity:1"
       id="rect2856"
       width="275.47153"
       height="221.41711"
       x="2.9070404"
       y="2.2690818"
       ry="16.162441"
       rx="16.162441" />
    <path
       id="path3348"
       d="M 250.36426,71.556048 L 250.13333,71.360814 L 250.54186,70.828012 L 250.93231,70.277582 L 251.3056,69.691448 L 251.64319,69.105298 L 251.94507,68.483458 L 252.24649,67.862078 L 252.49504,67.240698 L 252.7436,66.583608 L 252.9569,65.926518 L 253.13451,65.269428 L 253.29449,64.594718 L 253.41876,63.920008 L 253.52542,63.245298 L 253.59637,62.552518 L 253.64923,61.860188 L 253.66686,61.184998 L 253.64923,60.546018 L 253.61399,59.907008 L 253.54304,59.267548 L 253.45448,58.628538 L 253.32973,57.989528 L 253.18784,57.368148 L 253.02785,56.728698 L 252.83216,56.107318 L 252.61931,55.503538 L 252.38838,54.899788 L 252.13983,54.313648 L 251.85604,53.727518 L 251.55416,53.159458 L 251.23466,52.609018 L 250.89707,52.076218 L 250.54186,51.561028 L 250.38188,51.383428 L 250.23952,51.188188 L 250.11524,50.975348 L 250.00859,50.762498 L 249.92003,50.531568 L 249.86716,50.300648 L 249.81382,50.069718 L 249.81382,49.821158 L 249.81382,49.572608 L 249.84908,49.341678 L 249.92003,49.110748 L 249.99098,48.897438 L 250.09716,48.684598 L 250.2219,48.489358 L 250.34617,48.311758 L 250.50616,48.134168 L 250.68376,47.974188 L 250.86183,47.849898 L 251.05705,47.725628 L 251.27037,47.619438 L 251.48321,47.548488 L 251.71414,47.477528 L 251.94507,47.441838 L 252.19362,47.441838 L 252.40647,47.441838 L 252.61978,47.477528 L 252.815,47.513238 L 253.01069,47.584188 L 253.20592,47.655138 L 253.38353,47.761798 L 253.56113,47.868448 L 253.73872,47.992718 L 253.88109,48.134618 L 254.02346,48.276518 L 254.16535,48.436508 L 254.27201,48.614118 L 254.3782,48.809328 L 254.46676,48.986938 L 254.53771,49.200238 L 254.60866,49.395468 L 254.48392,48.898358 L 254.35965,48.383638 L 254.19967,47.886528 L 254.02206,47.389428 L 253.82638,46.892328 L 253.61353,46.395208 L 253.38259,45.915728 L 253.15166,45.436258 L 252.8855,44.974388 L 252.61931,44.512528 L 252.31744,44.050668 L 252.01601,43.624518 L 251.69652,43.198348 L 251.37702,42.772198 L 251.03944,42.381758 L 250.68376,41.990828 L 249.9024,41.280878 L 249.10294,40.641418 L 248.26827,40.020038 L 247.41595,39.451978 L 246.54601,38.936788 L 245.65799,38.457308 L 244.75235,38.031158 L 243.8291,37.640238 L 242.88822,37.302648 L 241.92925,37.018388 L 240.97028,36.769848 L 239.99416,36.556998 L 239.01757,36.397008 L 238.04098,36.290818 L 237.04631,36.219868 L 236.05163,36.184168 L 235.05696,36.202258 L 234.06229,36.273208 L 233.0857,36.379848 L 232.09103,36.539838 L 231.1149,36.752698 L 230.13831,36.983618 L 229.17934,37.285498 L 228.22085,37.623088 L 227.2795,37.995908 L 226.35624,38.422058 L 225.4506,38.901548 L 224.56304,39.416738 L 223.67502,39.984788 L 222.82272,40.588548 L 221.98802,41.245638 L 221.18858,41.937958 L 221.31285,41.387528 L 221.40143,40.854728 L 221.49046,40.304298 L 221.54332,39.771478 L 221.57902,39.221048 L 221.57902,38.670618 L 221.57902,38.137818 L 221.54332,37.604998 L 221.49046,37.072188 L 221.41951,36.539838 L 221.31285,36.007028 L 221.20666,35.491838 L 221.0643,34.977108 L 220.9224,34.480008 L 220.74479,33.965278 L 220.54911,33.468178 L 220.33626,32.988688 L 220.10533,32.509208 L 219.85678,32.047348 L 219.59061,31.585488 L 219.30635,31.141238 L 219.00493,30.696998 L 218.68544,30.270848 L 218.34785,29.844698 L 217.99217,29.454238 L 217.61934,29.063338 L 217.22842,28.690498 L 216.81989,28.317678 L 216.39375,27.980088 L 215.96758,27.642498 L 215.50572,27.322998 L 215.04433,27.039208 L 214.70674,26.790648 L 214.38724,26.524008 L 214.06774,26.257848 L 213.74824,25.973578 L 213.44682,25.689318 L 213.16256,25.387448 L 212.87877,25.085568 L 212.61213,24.783688 L 212.34595,24.464188 L 212.0974,24.144688 L 211.84885,23.807098 L 211.61838,23.469508 L 211.38745,23.114298 L 211.17414,22.759098 L 210.97892,22.403888 L 210.78323,22.048688 L 210.588,21.675848 L 210.42802,21.303028 L 210.26804,20.930188 L 210.10805,20.539738 L 209.98378,20.148838 L 209.84142,19.758378 L 209.73522,19.367928 L 209.62904,18.959398 L 209.54001,18.550858 L 209.45143,18.142328 L 209.38095,17.733798 L 209.32762,17.325258 L 209.29192,16.917178 L 209.25667,16.491038 L 209.23905,16.082958 L 209.23905,15.656818 L 209.23905,15.583998 L 209.23905,15.513058 L 208.9905,15.779218 L 208.74194,16.045858 L 208.47578,16.312038 L 208.20914,16.560588 L 207.92535,16.809138 L 207.64155,17.040068 L 207.35728,17.270998 L 207.05541,17.501928 L 206.75399,17.714778 L 206.45211,17.910008 L 206.15069,18.123308 L 205.83119,18.300918 L 205.51169,18.478528 L 205.1741,18.656128 L 204.85461,18.833728 L 204.51703,18.975638 L 204.17943,19.135618 L 203.82376,19.259878 L 203.48618,19.401778 L 203.13096,19.508438 L 202.77577,19.632718 L 202.42055,19.738908 L 202.06489,19.827468 L 201.70967,19.898428 L 201.33685,19.986988 L 200.98117,20.040318 L 200.60834,20.093648 L 200.23505,20.146968 L 199.86223,20.182688 L 199.48893,20.200768 L 199.11611,20.218398 L 198.74282,20.235998 L 198.35237,20.218398 L 197.96145,20.182688 L 197.57054,20.146968 L 197.19771,20.129368 L 196.59349,20.022708 L 196.00735,19.951758 L 195.40358,19.916048 L 194.79983,19.897958 L 194.21369,19.897958 L 193.60946,19.933668 L 193.02333,19.986988 L 192.4372,20.075568 L 191.86867,20.182218 L 191.30062,20.306498 L 190.7321,20.466478 L 190.1812,20.644088 L 189.64886,20.856928 L 189.11604,21.069768 L 188.5837,21.318328 L 188.06898,21.584968 L 187.57186,21.886848 L 187.07477,22.188718 L 186.59529,22.526308 L 186.13342,22.881508 L 185.68964,23.254348 L 185.26349,23.644788 L 184.83732,24.053328 L 184.44642,24.479488 L 184.07313,24.923728 L 183.7003,25.385578 L 183.36272,25.865068 L 183.02513,26.362178 L 182.72324,26.877358 L 182.43945,27.409708 L 182.19089,27.960608 L 181.94235,28.528658 L 181.92472,27.836328 L 181.8714,27.161628 L 181.80045,26.486458 L 181.69425,25.829378 L 181.5519,25.172278 L 181.39192,24.515188 L 181.21431,23.876188 L 181.001,23.254808 L 180.75244,22.633428 L 180.50389,22.029658 L 180.22009,21.425908 L 179.9006,20.857398 L 179.5811,20.271258 L 179.22589,19.720828 L 178.85307,19.188018 L 178.46215,18.655198 L 178.03599,18.140468 L 177.60984,17.643368 L 177.14797,17.181498 L 176.68611,16.719648 L 176.18901,16.275408 L 175.69191,15.849248 L 175.15956,15.458798 L 174.62721,15.067888 L 174.07631,14.712678 L 173.5078,14.375088 L 172.92166,14.073218 L 172.31789,13.771328 L 171.71367,13.505158 L 171.09229,13.274228 L 170.45283,13.061388 L 169.79574,12.866148 L 169.58289,12.848078 L 169.35196,12.794748 L 169.15674,12.723798 L 168.94342,12.635218 L 168.7482,12.528568 L 168.5706,12.404298 L 168.41062,12.262398 L 168.25064,12.102408 L 168.10828,11.942428 L 167.98353,11.764818 L 167.87735,11.569608 L 167.77115,11.356758 L 167.70021,11.161538 L 167.64687,10.930598 L 167.61163,10.717748 L 167.61163,10.487748 L 167.61163,10.239198 L 167.64687,10.008258 L 167.71782,9.7773284 L 167.78877,9.5464084 L 167.89496,9.3511784 L 168.0197,9.1559484 L 168.14398,8.9607384 L 168.30396,8.8007484 L 168.48156,8.6407684 L 168.65963,8.4988684 L 168.85486,8.3922084 L 169.06816,8.2860184 L 169.28101,8.1969984 L 169.51195,8.1436584 L 169.74287,8.1079484 L 169.99143,8.0903384 L 170.20427,8.1079484 L 170.41758,8.1260384 L 170.61281,8.1793684 L 170.82612,8.2503184 L 171.02135,8.3212684 L 171.21656,8.4098384 L 171.39463,8.5164884 L 171.57224,8.6231384 L 171.14608,8.3036484 L 170.71947,7.9841384 L 170.27568,7.6998884 L 169.8319,7.4160884 L 169.37005,7.1494484 L 168.89057,6.8832784 L 168.41154,6.6523384 L 167.93206,6.4394984 L 167.43495,6.2266484 L 166.93785,6.0490384 L 166.42313,5.8714584 L 165.92602,5.7290884 L 165.41083,5.6048184 L 164.89611,5.4981584 L 164.38137,5.4095784 L 163.86665,5.3386284 L 162.81865,5.2853084 L 161.78874,5.2853084 L 160.75836,5.3210084 L 159.74606,5.4276584 L 158.73376,5.5695584 L 157.75719,5.7471684 L 156.78059,5.9957284 L 155.82209,6.2799784 L 154.86312,6.5994884 L 153.93986,6.9723084 L 153.03422,7.3808484 L 152.16429,7.8426984 L 151.2939,8.3221984 L 150.4592,8.8549984 L 149.64214,9.4235084 L 148.86077,10.027288 L 148.09749,10.666738 L 147.36945,11.359078 L 146.67712,12.051868 L 146.00195,12.797528 L 145.38057,13.578888 L 144.77681,14.378338 L 144.20829,15.213018 L 143.67549,16.065338 L 143.19646,16.953358 L 142.73461,17.876618 L 142.32606,18.817498 L 141.95323,19.776468 L 141.63373,20.771138 L 141.34948,21.765818 L 141.11855,22.795728 L 140.94095,23.860888 L 140.79905,23.310458 L 140.65669,22.777648 L 140.47908,22.262918 L 140.30147,21.748198 L 140.08818,21.232998 L 139.85724,20.753518 L 139.60869,20.274038 L 139.34204,19.794558 L 139.07588,19.350308 L 138.774,18.906078 L 138.4545,18.462288 L 138.11691,18.053758 L 137.77932,17.645218 L 137.42412,17.254768 L 137.05129,16.881948 L 136.66084,16.509118 L 136.2523,16.171528 L 135.82614,15.833948 L 135.4,15.532058 L 134.97383,15.230178 L 134.51197,14.945938 L 134.05011,14.697378 L 133.57063,14.448828 L 133.09114,14.217898 L 132.59404,14.005048 L 132.09693,13.827448 L 131.58174,13.649838 L 131.06701,13.507938 L 130.53421,13.383668 L 130.0014,13.277008 L 129.45097,13.188438 L 128.90053,13.117488 L 128.492,13.046538 L 128.08346,12.957978 L 127.67493,12.869398 L 127.28448,12.744668 L 126.87595,12.620388 L 126.48503,12.495638 L 126.09458,12.336128 L 125.72175,12.176148 L 125.3313,11.998538 L 124.95847,11.820938 L 124.58565,11.625708 L 124.23044,11.412408 L 123.87522,11.199558 L 123.52003,10.968628 L 123.18244,10.737698 L 122.84485,10.489138 L 122.50726,10.222968 L 122.18777,9.9568084 L 121.88588,9.6725384 L 121.56638,9.3882784 L 121.28212,9.1040184 L 120.98025,8.7845284 L 120.7136,8.4826284 L 120.42935,8.1631484 L 120.18079,7.8255584 L 119.93224,7.4879584 L 119.68369,7.1503684 L 119.45276,6.7951784 L 119.23991,6.4399584 L 119.02707,6.0671384 L 118.83185,5.6942984 L 118.65424,5.3214784 L 118.52996,5.7300184 L 118.3876,6.1209284 L 118.24571,6.5113884 L 118.10334,6.9018284 L 117.92574,7.2927484 L 117.74813,7.6831984 L 117.57054,8.0560184 L 117.35768,8.4112284 L 117.14483,8.7840484 L 116.93199,9.1392684 L 116.70106,9.4768584 L 116.4525,9.8320484 L 116.20396,10.151548 L 115.93778,10.489138 L 115.67161,10.808648 L 115.38735,11.110518 L 115.10309,11.412408 L 114.80121,11.714278 L 114.49933,11.998078 L 114.17983,12.264718 L 113.86033,12.530888 L 113.52275,12.779438 L 113.18516,13.027988 L 112.84757,13.276548 L 112.49237,13.489388 L 112.13716,13.702698 L 111.76433,13.915558 L 111.3915,14.110768 L 111.01868,14.288378 L 110.62823,14.447908 L 110.23777,14.607878 L 109.84687,14.750238 L 109.26072,14.927838 L 108.67459,15.123068 L 108.12416,15.353998 L 107.57326,15.584928 L 107.04091,15.851108 L 106.52572,16.152988 L 106.02861,16.454858 L 105.53151,16.774368 L 105.06965,17.129568 L 104.60779,17.502408 L 104.18163,17.875228 L 103.75547,18.283758 L 103.36503,18.709918 L 102.97458,19.136078 L 102.61936,19.597938 L 102.26416,20.059798 L 101.94466,20.539288 L 101.64278,21.036378 L 101.35898,21.533488 L 101.09235,22.048208 L 100.86142,22.581038 L 100.63049,23.131468 L 100.43525,23.681888 L 100.27527,24.250398 L 100.11575,24.818458 L 99.991482,25.386978 L 99.902452,25.973108 L 99.831502,26.576888 L 99.778172,27.163018 L 99.760552,27.766768 L 99.760552,28.388148 L 99.796262,28.991918 L 99.529632,28.477188 L 99.245832,27.980088 L 98.961572,27.482978 L 98.642062,27.003488 L 98.304482,26.541638 L 97.966902,26.097398 L 97.611682,25.653148 L 97.221232,25.226998 L 96.830322,24.800838 L 96.439872,24.409928 L 96.013722,24.019478 L 95.587562,23.646648 L 95.143782,23.291448 L 94.681922,22.953858 L 94.220062,22.634348 L 93.740572,22.314848 L 93.261092,22.030598 L 92.763982,21.746798 L 92.249262,21.498258 L 91.734072,21.249698 L 91.219342,21.018768 L 90.686542,20.823528 L 90.153732,20.628318 L 89.603292,20.468338 L 89.052862,20.308348 L 88.502432,20.184068 L 87.933902,20.059798 L 87.365392,19.971228 L 86.796882,19.900278 L 86.228822,19.846958 L 85.642682,19.811248 L 85.056552,19.811248 L 84.701332,19.811248 L 84.328512,19.828868 L 83.937602,19.846958 L 83.564762,19.882648 L 83.191942,19.918358 L 82.819112,19.971688 L 82.446282,20.007408 L 82.108702,20.060718 L 81.895852,20.131668 L 81.664912,20.184998 L 81.452072,20.220698 L 81.221142,20.238328 L 80.972592,20.220698 L 80.741662,20.184998 L 80.510732,20.114048 L 80.297892,20.043108 L 80.085042,19.936458 L 79.889812,19.829798 L 79.712202,19.687898 L 79.534612,19.527908 L 79.392712,19.368398 L 79.250342,19.173168 L 79.126082,18.977938 L 79.019872,18.765098 L 78.948922,18.552258 L 78.895602,18.321328 L 78.859892,18.090398 L 78.842282,17.841848 L 78.859892,17.610908 L 78.895602,17.379978 L 78.948922,17.167128 L 79.019872,16.954278 L 79.126082,16.759068 L 79.250342,16.581458 L 79.374622,16.421928 L 79.534612,16.261948 L 79.712202,16.137688 L 79.889812,16.013408 L 80.085042,15.889128 L 80.297892,15.800548 L 80.510732,15.729598 L 80.741662,15.658658 L 80.972592,15.605338 L 81.203512,15.569618 L 81.363042,15.552008 L 81.540652,15.552008 L 81.700632,15.533918 L 81.860152,15.533918 L 80.812612,15.569618 L 79.765072,15.622948 L 78.717532,15.676278 L 77.669532,15.729598 L 76.622002,15.818178 L 75.592082,15.906748 L 74.544542,16.013408 L 73.514632,16.155298 L 72.484722,16.350528 L 71.490042,16.599088 L 70.531082,16.918578 L 69.625432,17.309028 L 68.737422,17.753268 L 67.902722,18.250378 L 67.103742,18.800808 L 66.339992,19.404558 L 65.629562,20.061658 L 64.936762,20.772078 L 64.297772,21.517728 L 63.711632,22.299098 L 63.143122,23.133768 L 62.628392,23.986088 L 62.148902,24.874108 L 61.722742,25.797368 L 61.331832,26.756328 L 60.976632,27.732918 L 60.674752,28.727598 L 60.408112,29.739898 L 60.195272,30.769808 L 60.017662,31.817348 L 59.893392,32.864888 L 59.804812,33.930508 L 59.769102,35.013738 L 59.769102,36.079368 L 59.822442,37.162618 L 59.911002,38.227768 L 60.053372,39.293398 L 60.248592,40.358548 L 60.479532,41.406078 L 60.763782,42.435998 L 60.337632,42.080798 L 59.893852,41.761298 L 59.431992,41.459418 L 58.970122,41.175148 L 58.490642,40.908518 L 58.011162,40.659968 L 57.514052,40.447118 L 57.016952,40.233798 L 56.519842,40.056218 L 56.005122,39.896228 L 55.490392,39.754318 L 54.975212,39.630048 L 54.442392,39.523388 L 53.927662,39.434828 L 53.394852,39.381498 L 52.862052,39.345788 L 52.347322,39.310078 L 51.814502,39.310078 L 51.281702,39.345788 L 50.748882,39.381498 L 50.216082,39.434828 L 49.683732,39.523388 L 49.168542,39.630048 L 48.635722,39.754318 L 48.121002,39.896228 L 47.605812,40.056218 L 47.108702,40.251428 L 46.611602,40.464278 L 46.114492,40.695198 L 45.617392,40.943758 L 45.137912,41.210398 L 44.676052,41.494658 L 44.285132,41.689878 L 43.912302,41.885108 L 43.521852,42.062708 L 43.113322,42.222698 L 42.704782,42.382678 L 42.296252,42.506938 L 41.870092,42.631228 L 41.443942,42.755498 L 41.017782,42.861698 L 40.591622,42.950738 L 40.147852,43.021688 L 39.721692,43.075008 L 39.277922,43.128338 L 38.851752,43.164038 L 38.407982,43.181668 L 37.981822,43.181668 L 37.591382,43.181668 L 37.182852,43.164038 L 36.792402,43.145948 L 36.383862,43.092628 L 35.992942,43.039288 L 35.584872,42.985968 L 35.193952,42.915028 L 34.803502,42.826448 L 34.412602,42.737418 L 34.022142,42.631228 L 33.649322,42.506938 L 33.258872,42.382678 L 32.886042,42.240318 L 32.513212,42.080798 L 32.140382,41.920808 L 31.785172,41.760828 L 32.016112,42.382208 L 32.211332,43.039288 L 32.406562,43.696388 L 32.566542,44.388708 L 32.690812,45.081508 L 32.779382,45.773828 L 32.815102,46.129048 L 32.832712,46.466638 L 32.850792,46.821838 L 32.850792,47.159428 L 32.850792,47.638918 L 32.815102,48.136008 L 32.779382,48.615498 L 32.708442,49.112598 L 32.619862,49.592088 L 32.531302,50.089188 L 32.407012,50.568668 L 32.282752,51.048158 L 32.140852,51.510018 L 31.980872,51.989508 L 31.803262,52.451358 L 31.608032,52.895138 L 31.412812,53.339378 L 31.199972,53.765528 L 30.969042,54.191698 L 30.720482,54.600228 L 30.382902,55.097338 L 30.045312,55.612528 L 29.743422,56.127248 L 29.476792,56.660058 L 29.210622,57.192398 L 28.997772,57.743298 L 28.784932,58.293728 L 28.607322,58.862248 L 28.465432,59.412678 L 28.323532,59.998818 L 28.234502,60.566868 L 28.145922,61.135388 L 28.092602,61.721528 L 28.074972,62.290048 L 28.056892,62.876188 L 28.074972,63.462338 L 28.128302,64.030838 L 28.199252,64.598898 L 28.288282,65.185028 L 28.394482,65.753548 L 28.536842,66.321598 L 28.696352,66.872498 L 28.891582,67.422928 L 29.104432,67.973358 L 29.335362,68.506188 L 29.601532,69.038988 L 29.885792,69.553718 L 30.187672,70.068443 L 30.525252,70.565548 L 30.880462,71.045027 L 31.253292,71.524516 L 31.661822,71.986368 L 31.478192,71.986368 L 31.318212,71.986368 L 31.140612,71.986368 L 30.998242,71.986368 L 30.323552,71.986368 L 29.684072,72.039701 L 29.026982,72.110652 L 28.387522,72.19922 L 27.748522,72.305415 L 27.127142,72.447768 L 26.487672,72.625375 L 25.883912,72.8206 L 25.280152,73.033442 L 24.676392,73.264382 L 24.090252,73.531019 L 23.521742,73.814812 L 22.971312,74.116693 L 22.420412,74.436192 L 21.869982,74.791406 L 21.355252,75.146599 L 20.840062,75.53752 L 20.360582,75.927969 L 19.881102,76.354125 L 19.419232,76.798359 L 18.974992,77.26023 L 18.548842,77.722092 L 18.140292,78.219198 L 17.749852,78.733921 L 17.377022,79.249106 L 17.021822,79.781928 L 16.702322,80.332357 L 16.400442,80.900404 L 16.116172,81.48654 L 15.850002,82.072685 L 15.619072,82.676447 L 15.406222,83.297828 L 15.352902,83.51067 L 15.299572,83.723521 L 15.228622,83.918736 L 15.121972,84.113971 L 15.015772,84.291568 L 14.891502,84.469166 L 14.749142,84.629156 L 14.589622,84.771057 L 14.429632,84.895331 L 14.252032,85.019605 L 14.056812,85.126262 L 13.861582,85.21483 L 13.666352,85.28578 L 13.453512,85.321486 L 13.240662,85.357183 L 13.009732,85.37481 L 12.761182,85.357183 L 12.530252,85.321486 L 12.299322,85.268153 L 12.086472,85.179595 L 11.873632,85.091017 L 11.678402,84.966743 L 11.500812,84.824852 L 11.323202,84.664862 L 11.180842,84.504882 L 11.038942,84.309657 L 10.914662,84.114423 L 10.808012,83.919208 L 10.737062,83.688277 L 10.683722,83.475435 L 10.648022,83.226877 L 10.630402,82.978319 L 10.630402,82.765477 L 10.666112,82.534546 L 10.719442,82.303606 L 10.790382,82.090764 L 10.878962,81.877912 L 10.985612,81.682697 L 11.109892,81.487472 L 11.234162,81.292248 L 10.896572,81.682697 L 10.558992,82.091235 L 10.239492,82.51739 L 9.9376124,82.961635 L 9.6538124,83.405869 L 9.3871824,83.86773 L 9.1210124,84.329602 L 8.8900724,84.80908 L 8.6591424,85.306177 L 8.4458324,85.785675 L 8.2682324,86.300398 L 8.0906224,86.797495 L 7.9306424,87.312228 L 7.7887524,87.827413 L 7.6820924,88.342136 L 7.5754424,88.85686 L 7.4692424,89.886778 L 7.4159124,90.916696 L 7.3978324,91.946614 L 7.4511524,92.976532 L 7.5401924,93.988823 L 7.6820924,94.983035 L 7.8773124,95.95962 L 8.1258724,96.936204 L 8.4101324,97.895181 L 8.7296224,98.836512 L 9.1024624,99.759774 L 9.5286124,100.66542 L 9.9904824,101.55343 L 10.505192,102.42337 L 11.055632,103.25806 L 11.641772,104.07513 L 12.263152,104.87412 L 12.938322,105.6374 L 13.648742,106.36543 L 14.394392,107.07585 L 15.175762,107.75056 L 15.992362,108.38956 L 16.844682,108.99332 L 17.732702,109.56137 L 18.656422,110.11227 L 19.615392,110.60937 L 20.610062,111.05315 L 21.622352,111.4793 L 22.687982,111.85259 L 23.771222,112.19018 L 24.872082,112.47397 L 26.026272,112.72253 L 25.582502,112.84681 L 25.138252,112.98917 L 24.712102,113.16677 L 24.285942,113.34438 L 23.859792,113.55722 L 23.433632,113.78815 L 23.025092,114.01909 L 22.616562,114.28526 L 22.208032,114.56905 L 21.817582,114.87093 L 21.426662,115.17281 L 21.053832,115.5104 L 20.681002,115.84799 L 20.325802,116.20318 L 19.970592,116.57603 L 19.633002,116.96694 L 19.313512,117.37547 L 19.011622,117.784 L 18.709742,118.21016 L 18.425482,118.65393 L 18.159312,119.09818 L 17.910762,119.55958 L 17.662202,120.03905 L 17.448902,120.51854 L 17.236052,121.01565 L 17.058452,121.51275 L 16.880852,122.02748 L 16.738482,122.5422 L 16.614212,123.07455 L 16.489942,123.60735 L 16.401362,124.15779 L 16.348042,124.69061 L 16.259472,125.11676 L 16.170892,125.5253 L 16.064242,125.91621 L 15.958052,126.32429 L 15.833772,126.71519 L 15.691412,127.10611 L 15.531432,127.49655 L 15.371452,127.88747 L 15.193842,128.26076 L 15.016242,128.63359 L 14.803392,129.00688 L 14.608172,129.36209 L 14.377232,129.7173 L 14.146302,130.0725 L 13.915382,130.41009 L 13.666822,130.74768 L 13.400652,131.06718 L 13.134022,131.38668 L 12.850222,131.70618 L 12.565962,132.00806 L 12.264082,132.29186 L 11.962202,132.57565 L 11.642702,132.85991 L 11.323202,133.12608 L 11.003692,133.39226 L 10.648492,133.6408 L 10.310902,133.87174 L 9.9556924,134.10267 L 9.6004924,134.3336 L 9.2276524,134.52883 L 8.8548324,134.72405 L 8.4643824,134.91974 L 8.8729124,135.04402 L 9.2814524,135.18638 L 9.6718924,135.32874 L 10.062342,135.48825 L 10.435172,135.66633 L 10.808012,135.84393 L 11.180842,136.03915 L 11.553662,136.23438 L 11.908872,136.44769 L 12.264082,136.67863 L 12.601672,136.90909 L 12.939252,137.15763 L 13.276832,137.40619 L 13.596342,137.67283 L 13.915842,137.93899 L 14.217722,138.2228 L 14.519592,138.52468 L 14.803862,138.80847 L 15.088112,139.12797 L 15.354292,139.44747 L 15.620462,139.76698 L 15.869012,140.08648 L 16.117572,140.42406 L 16.348502,140.77927 L 16.561342,141.13447 L 16.774192,141.48968 L 16.987032,141.86297 L 17.164642,142.2358 L 17.359862,142.6091 L 17.519852,143.00002 L 17.679832,143.39047 L 17.821732,143.78137 L 17.981712,144.36751 L 18.176942,144.95365 L 18.389782,145.50455 L 18.620712,146.05498 L 18.886882,146.58778 L 19.171142,147.12013 L 19.473022,147.61725 L 19.792522,148.09673 L 20.147742,148.57574 L 20.502932,149.0376 L 20.893852,149.48138 L 21.284302,149.88992 L 21.692842,150.29845 L 22.136612,150.68936 L 22.580862,151.0622 L 23.042722,151.39978 L 23.522212,151.73736 L 24.019302,152.03924 L 24.516412,152.32304 L 25.031132,152.58968 L 25.563952,152.83823 L 26.096762,153.05107 L 26.647192,153.24677 L 27.198092,153.42437 L 27.766142,153.58436 L 28.352282,153.70863 L 28.938422,153.81482 L 29.524562,153.88577 L 30.110702,153.9391 L 30.714452,153.97434 L 31.318212,153.97434 L 31.939592,153.9391 L 32.170522,154.1167 L 31.762452,154.6676 L 31.371542,155.21803 L 31.016332,155.80416 L 30.661132,156.3903 L 30.359242,156.99452 L 30.057362,157.63353 L 29.791202,158.25538 L 29.560262,158.91247 L 29.347412,159.56908 L 29.169822,160.22618 L 29.009832,160.90087 L 28.867932,161.57558 L 28.779362,162.25076 L 28.690322,162.94309 L 28.655082,163.6178 L 28.637002,164.31013 L 28.655082,164.94959 L 28.690322,165.58905 L 28.761272,166.22806 L 28.849852,166.86754 L 28.974112,167.507 L 29.098402,168.12838 L 29.276002,168.76784 L 29.453612,169.38922 L 29.666452,169.99345 L 29.915002,170.5972 L 30.163552,171.18334 L 30.447812,171.76948 L 30.749692,172.33799 L 31.069192,172.88842 L 31.406782,173.42124 L 31.761992,173.93597 L 31.921502,174.11357 L 32.063872,174.30879 L 32.188142,174.5221 L 32.294342,174.73495 L 32.383372,174.96587 L 32.436702,175.19681 L 32.472402,175.42775 L 32.490032,175.6763 L 32.472402,175.92485 L 32.436702,176.15531 L 32.383372,176.38624 L 32.312422,176.59955 L 32.205772,176.81241 L 32.081492,177.00809 L 31.939592,177.1857 L 31.797232,177.3633 L 31.619622,177.52328 L 31.442022,177.64755 L 31.246802,177.77231 L 31.033962,177.87849 L 30.821112,177.94944 L 30.590182,178.02039 L 30.359242,178.05563 L 30.110702,178.05563 L 29.897852,178.05563 L 29.684542,178.02039 L 29.489312,177.98468 L 29.294082,177.9142 L 29.098872,177.84325 L 28.921262,177.73659 L 28.743652,177.63041 L 28.566052,177.50612 L 28.424152,177.38139 L 28.282252,177.22141 L 28.139892,177.06143 L 28.033702,176.90144 L 27.927052,176.72383 L 27.838012,176.52119 L 27.749452,176.32597 L 27.696122,176.13028 L 27.820402,176.62738 L 27.944672,177.14211 L 28.104192,177.6392 L 28.281792,178.13631 L 28.477022,178.63343 L 28.672242,179.13052 L 28.903172,179.61 L 29.151722,180.07187 L 29.417902,180.53327 L 29.684072,180.99512 L 29.985952,181.43892 L 30.287832,181.88269 L 30.607342,182.30885 L 30.926832,182.71738 L 31.264422,183.10828 L 31.619622,183.49921 L 32.400982,184.20915 L 33.199972,184.86624 L 34.034662,185.47 L 34.886982,186.03852 L 35.756902,186.55324 L 36.644932,187.03272 L 37.550562,187.45888 L 38.473832,187.8498 L 39.415172,188.18739 L 40.356522,188.48927 L 41.333112,188.73782 L 42.292082,188.93304 L 43.268672,189.09303 L 44.263342,189.2173 L 45.258012,189.28824 L 46.234592,189.30587 L 47.229282,189.28824 L 48.223482,189.2173 L 49.218152,189.11111 L 50.194752,188.95113 L 51.189422,188.7559 L 52.148392,188.50735 L 53.124972,188.22309 L 54.065862,187.88549 L 55.007192,187.49506 L 55.930462,187.0689 L 56.854192,186.60703 L 57.742202,186.07469 L 58.612142,185.5238 L 59.464442,184.90242 L 60.299142,184.26294 L 61.098122,183.55253 L 60.991472,184.10343 L 60.885282,184.63578 L 60.814332,185.18666 L 60.761002,185.73756 L 60.725292,186.26991 L 60.707202,186.82081 L 60.725292,187.35316 L 60.761002,187.88549 L 60.814332,188.41832 L 60.885282,188.95067 L 60.973842,189.48347 L 61.098122,189.9982 L 61.222402,190.51293 L 61.382382,191.01003 L 61.559982,191.52476 L 61.755212,192.02185 L 61.968062,192.50135 L 62.198992,192.98083 L 62.447542,193.44222 L 62.714182,193.90409 L 62.998432,194.34786 L 63.300312,194.79165 L 63.619822,195.2178 L 63.957412,195.62633 L 64.312602,196.03487 L 64.685442,196.42578 L 65.076352,196.79861 L 65.484882,197.1719 L 65.893412,197.50949 L 66.337212,197.84707 L 66.799082,198.14896 L 67.260942,198.45037 L 67.598522,198.69893 L 67.918022,198.96509 L 68.237532,199.23173 L 68.557032,199.51552 L 68.841292,199.79932 L 69.143172,200.08358 L 69.427422,200.385 L 69.693602,200.70451 L 69.960242,201.024 L 70.208792,201.34349 L 70.457352,201.68108 L 70.688282,202.01867 L 70.919202,202.37387 L 71.132052,202.71146 L 71.327282,203.08476 L 71.522502,203.43997 L 71.700112,203.81326 L 71.877712,204.18609 L 72.037692,204.55938 L 72.179592,204.94983 L 72.321492,205.34074 L 72.445752,205.73166 L 72.570042,206.12211 L 72.676692,206.53065 L 72.765262,206.93918 L 72.853842,207.34771 L 72.907152,207.75624 L 72.978102,208.16478 L 73.013812,208.57331 L 73.049522,208.99947 L 73.067132,209.408 L 73.067132,209.83417 L 73.067132,209.88702 L 73.067132,209.95797 L 73.315692,209.67418 L 73.564252,209.408 L 73.830882,209.15945 L 74.097062,208.9109 L 74.381312,208.66235 L 74.647952,208.43142 L 74.949832,208.20049 L 75.234092,207.98764 L 75.535982,207.77433 L 75.855472,207.56148 L 76.157362,207.36579 L 76.476862,207.17057 L 76.796352,206.99297 L 77.115852,206.81536 L 77.453442,206.65538 L 77.791022,206.49539 L 78.128612,206.35304 L 78.466202,206.21068 L 78.821412,206.0864 L 79.176612,205.96166 L 79.514202,205.85546 L 79.869412,205.74928 L 80.242242,205.66071 L 80.597452,205.57213 L 80.970272,205.50119 L 81.325492,205.44787 L 81.698312,205.37692 L 82.071132,205.34167 L 82.443962,205.30597 L 82.816802,205.28834 L 83.189622,205.27072 L 83.562452,205.25309 L 83.935272,205.27072 L 84.343812,205.30597 L 84.734732,205.34167 L 85.089942,205.35929 L 85.693692,205.44787 L 86.297462,205.51881 L 86.901212,205.57213 L 87.504982,205.58976 L 88.091112,205.58976 L 88.694872,205.55405 L 89.281012,205.50119 L 89.849522,205.41262 L 90.435662,205.30597 L 91.004182,205.16406 L 91.554612,205.0217 L 92.105052,204.84409 L 92.655942,204.63079 L 93.188752,204.41795 L 93.721102,204.16939 L 94.236292,203.88514 L 94.733402,203.60133 L 95.230492,203.29946 L 95.692362,202.96188 L 96.154222,202.60666 L 96.616092,202.23384 L 97.042232,201.84292 L 97.450782,201.43439 L 97.859322,201.00823 L 98.232142,200.56445 L 98.604962,200.1026 L 98.942552,199.62311 L 99.262062,199.12601 L 99.581562,198.61128 L 99.847722,198.07893 L 100.11436,197.52803 L 100.36292,196.95952 L 100.38054,197.65231 L 100.43387,198.32702 L 100.50482,199.00173 L 100.61147,199.65881 L 100.75337,200.31589 L 100.91335,200.97253 L 101.09095,201.59437 L 101.3038,202.23384 L 101.53473,202.85522 L 101.80091,203.45897 L 102.08517,204.06321 L 102.38705,204.63125 L 102.72463,205.19978 L 103.07984,205.76829 L 103.45267,206.30064 L 103.84312,206.83344 L 104.26927,207.34817 L 104.69543,207.84527 L 105.13967,208.30667 L 105.61915,208.76854 L 106.11626,209.21232 L 106.61336,209.63847 L 107.14618,210.02938 L 107.67898,210.42029 L 108.22941,210.77551 L 108.79794,211.11308 L 109.38407,211.41498 L 109.98783,211.71639 L 110.59159,211.98302 L 111.21297,212.21349 L 111.85244,212.44442 L 112.49144,212.62203 L 112.72237,212.65774 L 112.93522,212.71059 L 113.14806,212.78154 L 113.36091,212.87012 L 113.53851,212.97677 L 113.73373,213.10105 L 113.89372,213.24341 L 114.0537,213.3853 L 114.1956,213.56337 L 114.31987,213.74098 L 114.42653,213.9362 L 114.5151,214.13143 L 114.60366,214.34474 L 114.657,214.57567 L 114.69271,214.78851 L 114.69271,215.01944 L 114.69271,215.26799 L 114.63938,215.49892 L 114.58605,215.72986 L 114.5151,215.9427 L 114.40845,216.15601 L 114.28417,216.35124 L 114.14228,216.54646 L 113.99991,216.70644 L 113.82231,216.86643 L 113.6447,217.00879 L 113.44948,217.11499 L 113.23664,217.22118 L 113.02379,217.29212 L 112.79285,217.36307 L 112.56192,217.39878 L 112.31337,217.4164 L 112.10052,217.39878 L 111.88722,217.36307 L 111.67437,217.32784 L 111.47914,217.25689 L 111.28392,217.18594 L 111.08869,217.09736 L 110.9111,216.99117 L 110.73349,216.86643 L 111.15964,217.18594 L 111.5858,217.50543 L 112.03004,217.80732 L 112.47428,218.07348 L 112.93615,218.35727 L 113.41563,218.60583 L 113.89512,218.83676 L 114.3746,219.04961 L 114.87169,219.26292 L 115.3688,219.44053 L 115.86591,219.61812 L 116.3811,219.76049 L 116.89582,219.88477 L 117.41102,219.99142 L 117.92574,220.07998 L 118.44046,220.15094 L 119.47038,220.20381 L 120.51838,220.22189 L 121.5483,220.16856 L 122.56059,220.07998 L 123.55526,219.92 L 124.54994,219.74241 L 125.52653,219.49385 L 126.4855,219.20959 L 127.42684,218.89055 L 128.3501,218.51725 L 129.25574,218.10873 L 130.14376,217.66495 L 131.01369,217.16784 L 131.84837,216.63504 L 132.66499,216.06698 L 133.44635,215.46275 L 134.19201,214.82376 L 134.93766,214.14905 L 135.63046,213.43862 L 136.28754,212.69298 L 136.92655,211.9297 L 137.5303,211.11263 L 138.09836,210.27794 L 138.63116,209.42562 L 139.11065,208.5376 L 139.57251,207.61435 L 139.98105,206.67346 L 140.33626,205.7145 L 140.67384,204.71983 L 140.94048,203.72516 L 141.17141,202.69524 L 141.36664,201.62961 L 141.49091,202.18051 L 141.65089,202.71286 L 141.81088,203.22804 L 142.0061,203.74276 L 142.21942,204.23988 L 142.43226,204.73699 L 142.68081,205.216 L 142.94745,205.67787 L 143.23125,206.13926 L 143.53313,206.5835 L 143.83454,207.00965 L 144.17213,207.43582 L 144.5278,207.84435 L 144.88301,208.23526 L 145.25584,208.6081 L 145.64674,208.9633 L 146.05528,209.31897 L 146.46381,209.63801 L 146.9076,209.95752 L 147.33421,210.24176 L 147.79561,210.52555 L 148.25747,210.79174 L 148.73649,211.0403 L 149.21597,211.25359 L 149.71309,211.46644 L 150.22781,211.64451 L 150.743,211.82212 L 151.25772,211.96402 L 151.79007,212.08876 L 152.32287,212.19494 L 152.87332,212.28351 L 153.4242,212.35446 L 153.83274,212.42541 L 154.2589,212.51398 L 154.64982,212.62017 L 155.05835,212.74491 L 155.44879,212.86919 L 155.85733,213.01155 L 156.24824,213.15391 L 156.62154,213.31389 L 157.01199,213.4915 L 157.38528,213.6691 L 157.74048,213.88195 L 158.11332,214.07763 L 158.46898,214.29048 L 158.80657,214.5214 L 159.14416,214.75235 L 159.48174,215.00089 L 159.81932,215.26707 L 160.13883,215.53324 L 160.44025,215.79942 L 160.74212,216.08367 L 161.044,216.38509 L 161.3278,216.68696 L 161.61206,216.98885 L 161.87823,217.30834 L 162.12678,217.62738 L 162.37534,217.96498 L 162.62389,218.30257 L 162.85482,218.65823 L 163.06766,219.01345 L 163.28098,219.38627 L 163.4762,219.74194 L 163.65381,220.13239 L 163.77854,219.72432 L 163.90283,219.31579 L 164.04518,218.92487 L 164.20517,218.53396 L 164.38277,218.14351 L 164.56037,217.75259 L 164.73797,217.3793 L 164.95129,217.0241 L 165.14651,216.65126 L 165.37744,216.29559 L 165.60838,215.958 L 165.85693,215.62043 L 166.10548,215.28284 L 166.37165,214.96333 L 166.63783,214.6443 L 166.92208,214.34241 L 167.20588,214.04053 L 167.50776,213.73912 L 167.80918,213.45487 L 168.12868,213.18869 L 168.44817,212.92252 L 168.78576,212.67396 L 169.12336,212.42541 L 169.46094,212.19448 L 169.8166,211.98163 L 170.17182,211.76831 L 170.54464,211.55501 L 170.91793,211.35979 L 171.29076,211.18219 L 171.68168,211.0222 L 172.07259,210.86222 L 172.48112,210.71986 L 173.06726,210.54226 L 173.63579,210.34703 L 174.18622,210.13372 L 174.73711,209.88517 L 175.26945,209.619 L 175.78417,209.33519 L 176.28129,209.03332 L 176.77839,208.69574 L 177.24025,208.35815 L 177.70212,207.98532 L 178.12827,207.59441 L 178.55443,207.20349 L 178.94535,206.77734 L 179.3358,206.35118 L 179.69146,205.88932 L 180.04668,205.42792 L 180.36617,204.94844 L 180.66759,204.45133 L 180.95185,203.95422 L 181.21802,203.4395 L 181.44895,202.90715 L 181.66179,202.37435 L 181.85748,201.82392 L 182.03508,201.25539 L 182.17745,200.68688 L 182.30172,200.11836 L 182.40792,199.53223 L 182.47887,198.92846 L 182.53219,198.34232 L 182.54982,197.73857 L 182.54982,197.13434 L 182.51457,196.51295 L 182.78075,197.0453 L 183.04691,197.54241 L 183.34879,198.03952 L 183.66829,198.519 L 183.98733,198.98086 L 184.34301,199.44226 L 184.69821,199.86842 L 185.07104,200.29457 L 185.46195,200.72073 L 185.87049,201.11165 L 186.29665,201.50255 L 186.72281,201.87538 L 187.16705,202.23106 L 187.61082,202.56865 L 188.09031,202.88767 L 188.55171,203.18956 L 189.0488,203.47382 L 189.54591,203.75761 L 190.04302,204.00617 L 190.55821,204.25472 L 191.09056,204.46757 L 191.6229,204.68087 L 192.15571,204.85847 L 192.70614,205.03608 L 193.25704,205.17844 L 193.80794,205.32079 L 194.37645,205.42699 L 194.94451,205.51557 L 195.51303,205.58651 L 196.08154,205.63983 L 196.66768,205.67509 L 197.25382,205.67509 L 197.60948,205.67509 L 197.98232,205.65746 L 198.37323,205.63983 L 198.74607,205.60414 L 199.11935,205.56888 L 199.49218,205.51557 L 199.86548,205.48032 L 200.20306,205.42699 L 200.41591,205.37367 L 200.64684,205.32079 L 200.86015,205.28509 L 201.09108,205.26747 L 201.32154,205.28509 L 201.57009,205.32079 L 201.80103,205.37367 L 202.01433,205.46224 L 202.22718,205.56888 L 202.42287,205.67509 L 202.60048,205.81744 L 202.77808,205.97743 L 202.92045,206.13694 L 203.06234,206.33263 L 203.18708,206.52786 L 203.27564,206.72354 L 203.36422,206.95401 L 203.41754,207.18494 L 203.45279,207.41588 L 203.47041,207.66443 L 203.45279,207.89536 L 203.41754,208.12582 L 203.36422,208.35676 L 203.29327,208.57007 L 203.20469,208.76529 L 203.08043,208.96052 L 202.95568,209.13812 L 202.7957,209.2981 L 202.63571,209.44047 L 202.45812,209.5652 L 202.26289,209.68949 L 202.0672,209.77804 L 201.85435,209.849 L 201.62343,209.90233 L 201.39249,209.93757 L 201.14394,209.95519 L 201.00158,209.95519 L 200.85968,209.95519 L 200.6997,209.95519 L 200.45115,209.95519 L 200.9835,209.93757 L 201.5163,209.93757 L 202.04865,209.95519 L 202.59955,209.97328 L 203.68279,210.00852 L 204.78366,210.04376 L 205.316,210.04376 L 205.84882,210.04376 L 206.36354,210.02613 L 206.87826,209.9909 L 207.37537,209.93757 L 207.87248,209.86662 L 208.33434,209.77804 L 208.79574,209.65378 L 209.79041,209.31619 L 210.74937,208.9429 L 211.67264,208.49912 L 212.56066,208.01963 L 213.41297,207.5049 L 214.24766,206.91877 L 215.02948,206.31502 L 215.77515,205.65793 L 216.50271,204.96513 L 217.17789,204.23756 L 217.81689,203.4919 L 218.42065,202.69246 L 218.98917,201.87538 L 219.50435,201.02307 L 219.98338,200.13506 L 220.42762,199.24749 L 220.83615,198.32424 L 221.19136,197.36527 L 221.51085,196.40677 L 221.79465,195.43018 L 222.02559,194.4355 L 222.20319,193.42322 L 222.34555,192.41092 L 222.45173,191.38054 L 222.50507,190.35062 L 222.50507,189.30262 L 222.46936,188.25509 L 222.38079,187.20709 L 222.23889,186.15955 L 222.06083,185.12917 L 221.81227,184.08163 L 221.52848,183.05125 L 221.97225,183.40693 L 222.4165,183.72596 L 222.8779,184.02784 L 223.33976,184.3121 L 223.81925,184.57827 L 224.29826,184.82682 L 224.79537,185.03967 L 225.29247,185.25299 L 225.78957,185.43059 L 226.30477,185.59057 L 226.81949,185.73293 L 227.33422,185.85721 L 227.84895,185.9634 L 228.38175,186.05197 L 228.89648,186.1053 L 229.42882,186.141 L 229.96164,186.17624 L 230.49399,186.17624 L 231.02634,186.141 L 231.55914,186.1053 L 232.09149,186.05197 L 232.60668,185.9634 L 233.13903,185.85721 L 233.65376,185.73293 L 234.16848,185.59057 L 234.68367,185.43059 L 235.19839,185.23536 L 235.6955,185.02205 L 236.19261,184.79112 L 236.68971,184.54257 L 237.1692,184.27639 L 237.63059,183.9926 L 238.00388,183.79691 L 238.39433,183.60168 L 238.78525,183.42409 L 239.19379,183.26409 L 239.60232,183.10412 L 240.01085,182.97985 L 240.43701,182.83748 L 240.86316,182.73129 L 241.28932,182.62463 L 241.71548,182.53605 L 242.14163,182.46511 L 242.58587,182.41225 L 243.01203,182.35892 L 243.4558,182.32368 L 243.88242,182.30559 L 244.3262,182.28797 L 244.71711,182.30559 L 245.12519,182.32368 L 245.5161,182.34131 L 245.92463,182.39462 L 246.31555,182.4475 L 246.706,182.50082 L 247.11454,182.57177 L 247.50544,182.66034 L 247.89636,182.74891 L 248.26919,182.8551 L 248.66009,182.97985 L 249.03339,183.10412 L 249.42384,183.24648 L 249.79713,183.40646 L 250.15234,183.56644 L 250.52564,183.72596 L 250.29471,183.10458 L 250.08139,182.4475 L 249.90379,181.79041 L 249.74381,181.09808 L 249.61953,180.40575 L 249.53096,179.71296 L 249.49526,179.35774 L 249.47763,179.02015 L 249.46001,178.66495 L 249.44239,178.32736 L 249.46001,177.84788 L 249.49526,177.35079 L 249.53096,176.8713 L 249.60144,176.37419 L 249.67239,175.89516 L 249.77905,175.39807 L 249.88524,174.91859 L 250.02761,174.4391 L 250.1695,173.95961 L 250.32948,173.49822 L 250.50709,173.03635 L 250.70277,172.59258 L 250.898,172.14881 L 251.11131,171.70456 L 251.34178,171.29603 L 251.57271,170.8875 L 251.92793,170.39039 L 252.2655,169.87567 L 252.56738,169.36093 L 252.83355,168.82858 L 253.08211,168.29578 L 253.31304,167.74534 L 253.52635,167.19445 L 253.70395,166.62593 L 253.84632,166.0574 L 253.97059,165.48937 L 254.07678,164.92084 L 254.16535,164.35232 L 254.21867,163.76619 L 254.2363,163.19768 L 254.25392,162.61153 L 254.2363,162.0254 L 254.18344,161.45688 L 254.11249,160.88836 L 254.02391,160.30222 L 253.91726,159.73417 L 253.77537,159.18328 L 253.59776,158.61476 L 253.41969,158.06432 L 253.20684,157.51343 L 252.97591,156.98108 L 252.70975,156.44827 L 252.42548,155.93354 L 252.12406,155.41882 L 251.78648,154.92171 L 251.43081,154.44222 L 251.05799,153.98037 L 250.64945,153.51897 L 250.80943,153.51897 L 250.98704,153.51897 L 251.16463,153.51897 L 251.307,153.51897 L 251.96408,153.50135 L 252.62117,153.46564 L 253.27826,153.39469 L 253.91726,153.30612 L 254.55673,153.18185 L 255.17857,153.03948 L 255.79995,152.87949 L 256.4218,152.68428 L 257.02556,152.47097 L 257.61169,152.24051 L 258.19784,151.97387 L 258.78397,151.69008 L 259.33487,151.38819 L 259.8853,151.06915 L 260.41811,150.71348 L 260.95046,150.35827 L 261.44756,149.96737 L 261.94466,149.55883 L 262.42416,149.15075 L 262.88601,148.70651 L 263.32979,148.24511 L 263.75595,147.76563 L 264.16448,147.28614 L 264.5554,146.77142 L 264.92823,146.25669 L 265.26581,145.7058 L 265.60339,145.15537 L 265.90527,144.58685 L 266.18907,144.01833 L 266.4557,143.41458 L 266.68617,142.81034 L 266.89949,142.18896 L 266.93473,141.97567 L 267.00568,141.76282 L 267.07663,141.56758 L 267.18282,141.37189 L 267.28947,141.1943 L 267.41375,141.01669 L 267.55611,140.85671 L 267.71609,140.71435 L 267.87607,140.59007 L 268.05368,140.46534 L 268.23128,140.35914 L 268.4265,140.27056 L 268.63981,140.19962 L 268.85266,140.1463 L 269.06597,140.12867 L 269.2969,140.11106 L 269.52783,140.12867 L 269.77638,140.16438 L 270.00686,140.21724 L 270.22016,140.30581 L 270.433,140.39439 L 270.6287,140.51912 L 270.8063,140.66149 L 270.9839,140.82147 L 271.12627,140.98099 L 271.26863,141.15905 L 271.3929,141.35429 L 271.48148,141.56758 L 271.57004,141.79806 L 271.62337,142.01136 L 271.65862,142.25991 L 271.6767,142.49085 L 271.65862,142.72131 L 271.64099,142.95224 L 271.58767,143.18318 L 271.51718,143.39602 L 271.42815,143.60933 L 271.32195,143.80456 L 271.19768,144.00025 L 271.05532,144.19547 L 271.41053,143.80456 L 271.74812,143.39602 L 272.06761,142.98795 L 272.3695,142.5437 L 272.65329,142.09993 L 272.91946,141.63808 L 273.18609,141.17668 L 273.41656,140.69719 L 273.64749,140.20009 L 273.84318,139.70298 L 274.03841,139.20588 L 274.21601,138.70878 L 274.376,138.19405 L 274.51835,137.67932 L 274.62455,137.1646 L 274.73074,136.6494 L 274.8374,135.60187 L 274.89025,134.57195 L 274.90788,133.54157 L 274.85502,132.52928 L 274.76645,131.51698 L 274.62409,130.5047 L 274.42885,129.5281 L 274.19792,128.55152 L 273.91368,127.59301 L 273.57608,126.65213 L 273.20325,125.72841 L 272.77709,124.82323 L 272.31523,123.93521 L 271.80052,123.06482 L 271.26817,122.23013 L 270.66394,121.41351 L 270.04256,120.61407 L 269.36785,119.85079 L 268.65744,119.12276 L 267.91178,118.4128 L 267.13042,117.73763 L 266.31335,117.09863 L 265.46103,116.49487 L 264.57301,115.90874 L 263.64976,115.37592 L 262.69079,114.87882 L 261.69612,114.41742 L 260.66619,114.00888 L 259.6182,113.6356 L 258.53495,113.29801 L 257.41648,112.99612 L 256.2799,112.76519 L 256.72368,112.64092 L 257.14984,112.48093 L 257.59407,112.32095 L 258.02023,112.14335 L 258.44639,111.93049 L 258.85492,111.69957 L 259.28108,111.46864 L 259.68962,111.20246 L 260.08052,110.91821 L 260.48906,110.63395 L 260.8619,110.31444 L 261.2528,109.97686 L 261.60801,109.63928 L 261.96321,109.28406 L 262.31889,108.91124 L 262.65647,108.52079 L 262.97598,108.11225 L 263.29502,107.70372 L 263.57926,107.27756 L 263.86306,106.83333 L 264.14732,106.38954 L 264.39588,105.92769 L 264.62681,105.4482 L 264.85728,104.96872 L 265.05296,104.47162 L 265.24819,103.97451 L 265.40818,103.45932 L 265.56816,102.92697 L 265.69242,102.39416 L 265.81717,101.86134 L 265.90574,101.31091 L 265.95906,100.76048 L 266.04764,100.35195 L 266.13621,99.94341 L 266.2424,99.534872 L 266.34859,99.126344 L 266.49096,98.735895 L 266.63331,98.345436 L 266.7752,97.954535 L 266.95328,97.564076 L 267.11326,97.191253 L 267.30848,96.818421 L 267.50371,96.463217 L 267.71701,96.090385 L 267.92986,95.73518 L 268.1608,95.397593 L 268.40935,95.060015 L 268.65789,94.722427 L 268.92408,94.402919 L 269.19071,94.08342 L 269.45688,93.763921 L 269.7583,93.46204 L 270.04256,93.177776 L 270.36205,92.893984 L 270.66347,92.60972 L 271.00106,92.343083 L 271.32057,92.094535 L 271.65815,91.845987 L 272.01381,91.597438 L 272.36903,91.384125 L 272.72424,91.153194 L 273.09753,90.95796 L 273.47036,90.762745 L 273.84365,90.56752 L 273.45273,90.443237 L 273.0442,90.300884 L 272.65329,90.158982 L 272.26284,89.998993 L 271.88955,89.821395 L 271.49863,89.643797 L 271.14342,89.448563 L 270.7706,89.253348 L 270.41492,89.040496 L 270.05972,88.809556 L 269.72212,88.578635 L 269.38454,88.330077 L 269.04696,88.081529 L 268.72745,87.815354 L 268.40796,87.548717 L 268.10654,87.264924 L 267.80467,86.963043 L 267.5204,86.661171 L 267.2366,86.35928 L 266.95281,86.039781 L 266.70426,85.720283 L 266.43762,85.382705 L 266.20716,85.045108 L 265.97622,84.707521 L 265.74529,84.352316 L 265.53198,83.997111 L 265.33676,83.624279 L 265.14154,83.251447 L 264.96393,82.878625 L 264.78586,82.488166 L 264.64396,82.097726 L 264.48398,81.706806 L 264.324,81.103053 L 264.12877,80.534535 L 263.91548,79.966016 L 263.68453,79.433666 L 263.41836,78.900854 L 263.13457,78.368051 L 262.83269,77.870936 L 262.51319,77.373839 L 262.15797,76.911978 L 261.80231,76.450117 L 261.41186,76.005872 L 261.02094,75.579717 L 260.59479,75.189268 L 260.16863,74.798359 L 259.72439,74.425527 L 259.26299,74.087939 L 258.7835,73.750352 L 258.28641,73.448471 L 257.7893,73.164217 L 257.27458,72.898041 L 256.74176,72.649493 L 256.20941,72.436641 L 255.65851,72.223328 L 255.09047,72.063819 L 254.52195,71.903839 L 253.95343,71.779555 L 253.36729,71.672899 L 252.78115,71.601948 L 252.17693,71.548625 L 251.57317,71.512918 L 250.96941,71.512918 L 250.36426,71.556048 z "
       clip-rule="evenodd"
       i:knockout="Off"
       style="fill:#f7d117;fill-opacity:1;fill-rule:evenodd;stroke:none" />
    <g
       style="font-size:162.09658813px;font-style:normal;font-variant:normal;font-weight:normal;font-stretch:normal;text-align:center;line-height:125%;writing-mode:lr-tb;text-anchor:middle;fill:#000000;fill-opacity:1;stroke:none;font-family:Roadgeek 2005 Series C;-inkscape-font-specification:Roadgeek 2005 Series C"
       id="text4180">
      <path
         d="m 62.563306,165.11505 0,-89.153122 -6.808057,0 0,-11.833051 c 3.133854,-0.216028 5.619333,-0.972478 7.456443,-2.269352 1.94514,-1.296669 3.512072,-3.079729 4.700801,-5.349188 l 10.374182,0 0,108.604713 -15.723369,0"
         style="line-height:125%;font-family:Roadgeek 2005 Series C;-inkscape-font-specification:Roadgeek 2005 Series C"
         id="path3167" />
      <path
         d="m 157.61523,127.02235 c -7e-5,5.72745 -0.86459,11.0226 -2.59355,15.88547 -1.72909,4.86291 -4.10651,9.07742 -7.13225,12.64353 -3.02586,3.56613 -6.59198,6.3758 -10.69837,8.42903 -4.10649,2.05322 -8.59116,3.07983 -13.45402,3.07983 -4.86293,0 -9.56372,-0.81048 -14.1024,-2.43145 -4.43066,-1.62096 -8.64517,-3.99838 -12.643538,-7.13225 l 10.212088,-11.02257 c 2.70159,1.83712 5.18707,3.18792 7.45644,4.05242 2.26933,0.86453 4.7548,1.29678 7.45644,1.29677 2.91771,1e-5 5.61931,-0.59434 8.10483,-1.78306 2.48544,-1.29676 4.59269,-3.07982 6.32177,-5.34919 1.83705,-2.26933 3.24188,-4.97094 4.21451,-8.10483 1.08059,-3.13383 1.62091,-6.59189 1.62097,-10.37418 -6e-5,-5.9435 -1.35086,-10.59026 -4.05242,-13.94031 -2.70165,-3.34994 -6.32181,-5.02493 -10.86047,-5.02499 -4.75487,6e-5 -9.07744,1.78312 -12.96773,5.34919 l -14.912883,-1.94516 2.755643,-54.140263 51.06042,0 0,15.23708 -36.63382,0 -1.13468,22.855618 c 2.70158,-0.972508 4.86287,-1.566861 6.48386,-1.783062 1.729,-0.324121 3.62012,-0.486217 5.67338,-0.48629 4.4306,7.3e-5 8.48301,0.864587 12.15725,2.593546 3.67413,1.621034 6.808,3.998448 9.4016,7.132251 2.59348,3.02586 4.59267,6.64602 5.99757,10.86047 1.51284,4.21456 2.26929,8.91536 2.26936,14.1024"
         style="line-height:125%;font-family:Roadgeek 2005 Series C;-inkscape-font-specification:Roadgeek 2005 Series C"
         id="path3169" />
      <path
         d="m 234.46928,132.37154 c -7e-5,5.18712 -0.70249,9.88792 -2.10726,14.1024 -1.4049,4.21453 -3.45812,7.88872 -6.15967,11.02257 -2.5936,3.02581 -5.7815,5.40322 -9.5637,7.13225 -3.7823,1.62097 -7.99681,2.43145 -12.64353,2.43145 -9.94196,0 -17.45242,-3.40403 -22.53143,-10.21208 -5.07904,-6.91611 -7.61855,-16.58786 -7.61854,-29.01529 -1e-5,-6.59189 0.81048,-13.18381 2.43145,-19.77579 1.72902,-6.69993 4.16047,-13.129751 7.29435,-19.289492 3.24191,-6.267652 7.18625,-12.211187 11.83305,-17.830624 4.64673,-5.619249 9.94188,-10.69827 15.88547,-15.23708 l 8.75321,12.319341 c -2.2694,1.729126 -4.59279,3.782347 -6.97015,6.15967 -2.2694,2.377506 -4.43069,4.917016 -6.48387,7.61854 -2.05326,2.593626 -3.89035,5.295233 -5.51128,8.104829 -1.621,2.809747 -2.91777,5.511354 -3.89032,8.10483 1.29674,-0.216062 2.48545,-0.324126 3.56613,-0.324193 1.18867,6.7e-5 2.26931,6.7e-5 3.24193,0 4.64672,6.7e-5 8.86123,0.864581 12.64353,2.593549 3.7822,1.62103 6.9701,3.99844 9.5637,7.13225 2.70155,3.02585 4.75477,6.64601 6.15967,10.86047 1.40477,4.21455 2.10719,8.91535 2.10726,14.1024 m -15.23708,0 c -6e-5,-5.83544 -1.40489,-10.59027 -4.21451,-14.2645 -2.80973,-3.67414 -6.48391,-5.51123 -11.02257,-5.51128 -4.64681,5e-5 -8.37502,1.72908 -11.18467,5.18709 -2.70163,3.4581 -4.05243,7.78067 -4.05241,12.96772 -2e-5,6.1597 1.35078,11.23872 4.05241,15.23708 2.80965,3.89034 6.53786,5.83549 11.18467,5.83548 4.53866,1e-5 8.21284,-1.78305 11.02257,-5.34919 2.80962,-3.67416 4.21445,-8.37496 4.21451,-14.1024"
         style="line-height:125%;font-family:Roadgeek 2005 Series C;-inkscape-font-specification:Roadgeek 2005 Series C"
         id="path3171" />
    </g>
  </g>
</svg>
