<?xml version="1.0" encoding="UTF-8" standalone="no"?>
<!-- Generator: Adobe Illustrator 14.0.0, SVG Export Plug-In . SVG Version: 6.00 Build 43363)  -->

<svg
   xmlns:dc="http://purl.org/dc/elements/1.1/"
   xmlns:cc="http://creativecommons.org/ns#"
   xmlns:rdf="http://www.w3.org/1999/02/22-rdf-syntax-ns#"
   xmlns:svg="http://www.w3.org/2000/svg"
   xmlns="http://www.w3.org/2000/svg"
   xmlns:xlink="http://www.w3.org/1999/xlink"
   xmlns:sodipodi="http://sodipodi.sourceforge.net/DTD/sodipodi-0.dtd"
   xmlns:inkscape="http://www.inkscape.org/namespaces/inkscape"
   version="1.1"
   x="0px"
   y="0px"
   width="750px"
   height="600px"
   viewBox="0 0 750 600"
   enable-background="new 0 0 750 600"
   xml:space="preserve"
   id="svg2"
   inkscape:version="0.48+devel r10099"
   sodipodi:docname="Natcher Parkway fair use.svg"><metadata
   id="metadata100"><rdf:RDF><cc:Work
       rdf:about=""><dc:format>image/svg+xml</dc:format><dc:type
         rdf:resource="http://purl.org/dc/dcmitype/StillImage" /><dc:title></dc:title></cc:Work></rdf:RDF></metadata><defs
   id="defs98" /><sodipodi:namedview
   pagecolor="#ffffff"
   bordercolor="#666666"
   borderopacity="1"
   objecttolerance="10"
   gridtolerance="10"
   guidetolerance="10"
   inkscape:pageopacity="0"
   inkscape:pageshadow="2"
   inkscape:window-width="640"
   inkscape:window-height="480"
   id="namedview96"
   showgrid="false"
   inkscape:zoom="0.43666667"
   inkscape:cx="375"
   inkscape:cy="300"
   inkscape:window-x="0"
   inkscape:window-y="0"
   inkscape:window-maximized="0"
   inkscape:current-layer="svg2" />
<g
   id="Base_area">
	<path
   id="Outline"
   fill="#FFFFFF"
   stroke="#000000"
   stroke-width="0.5"
   d="M750,562.5c0,20.711-16.79,37.5-37.5,37.5h-675   C16.789,600,0,583.211,0,562.5v-525C0,16.789,16.789,0,37.5,0h675C733.21,0,750,16.789,750,37.5V562.5z" />
	<g
   id="Lower_tab_1_">
		<defs
   id="defs7">
			<rect
   id="SVGID_1_"
   y="425"
   width="750"
   height="175" />
		</defs>
		<clipPath
   id="SVGID_2_">
			<use
   xlink:href="#SVGID_1_"
   overflow="visible"
   id="use11" />
		</clipPath>
		<path
   clip-path="url(#SVGID_2_)"
   fill="#1A4773"
   stroke="#000000"
   stroke-width="0.5"
   d="M750,562.5    c0,20.71-16.789,37.5-37.5,37.5h-675C16.79,600,0,583.21,0,562.5V435c0-20.711,16.79-37.5,37.5-37.5h675    c20.711,0,37.5,16.789,37.5,37.5V562.5z"
   id="path13" />
	</g>
	<g
   id="g4"
   transform="translate(0,-656.89004)">
		<path
   id="path6"
   connector-curvature="0"
   fill="#FFFFFF"
   d="M213.648,1224.444h-3.445l-3.446,11.96l0,0l-0.203,0.607    l-0.405,0.406l-0.811,0.607l-0.608,0.203l-1.824,0.608l-1.824,0.202l0,0h-1.217l-1.216-0.202l-0.811-0.406l-0.405-0.405l0,0    l-0.406-0.811l0.203-0.811l3.243-11.96h-4.054l-3.243,11.758l0,0l-0.203,1.216v1.013l0.405,1.014l0.405,1.014l0,0l1.014,1.014    l1.622,0.607l1.621,0.609h2.027l0,0h1.622l1.824-0.203l1.621-0.608l1.622-0.607l1.419-0.812l1.216-1.216l0.812-1.217l0.607-1.419    l3.446-12.162H213.648z" />
		<path
   id="path8"
   connector-curvature="0"
   fill="#FFFFFF"
   d="M236.351,1224.647h-3.647l0,0l-3.244,11.555l0,0    l-7.297-11.555h-3.852l-4.864,17.838h4.257l0,0l3.243-11.757l0,0l7.094,11.757h3.852l4.865-17.838H236.351z" />
		<path
   id="path10"
   connector-curvature="0"
   fill="#FFFFFF"
   d="M241.824,1224.647h-0.405l-4.865,17.838h13.581l0,0    l2.433-0.608l1.216-0.405l1.014-0.608l1.014-0.607l0.608-1.014l0.811-1.014l0.405-1.419l0,0l0.203-1.419l0,0v-0.812l-0.405-0.81    l-0.406-0.608l-0.607-0.608l0,0l0.811-0.608l0.608-0.811l0.608-0.811l0.202-0.812l0,0l0.202-1.216l0,0l-0.202-1.217l-0.608-1.013    l0,0l-0.607-0.608l-0.608-0.405l-0.811-0.405h-0.811H241.824z M257.635,1236.809L257.635,1236.809L257.635,1236.809z     M251.757,1235.188L251.757,1235.188l1.014,0.202l0.607,0.405l0,0l0.203,0.608l0,0v0.202l0,0l-0.405,0.812l-0.608,0.607    l-0.811,0.608l-0.811,0.203l0,0h-9.325l0,0l1.014-3.648l0,0H251.757z M253.176,1228.295L253.176,1228.295l1.014,0.202l0.405,0.406    l0,0l0.202,0.405l0,0v0.202l0,0l-0.405,0.608l-0.608,0.608l-0.607,0.405h-0.812l0,0h-8.514l0,0l0.812-2.838l0,0H253.176z" />
		<path
   id="path12"
   connector-curvature="0"
   fill="#FFFFFF"
   d="M264.324,1224.647h-0.405l-4.865,17.838h4.257l0,0    l1.824-7.095l0,0h6.081l0,0l2.23,7.095h4.661l0,0l-2.229-7.5l0,0l1.622-0.608l1.621-1.216l1.014-1.419l0.405-0.812l0.406-0.811    l0,0l0.202-1.622l0,0l-0.202-1.419l-0.608-1.216l0,0l-0.608-0.405l-0.811-0.405l-0.812-0.405h-1.013H264.324z M275.676,1228.295    L275.676,1228.295l0.607,0.202l0.406,0.406l0,0l0.202,0.405v0.405l0,0v0.203l0,0l0,0l-0.405,0.607l-0.608,0.608l-0.811,0.405    l-0.811,0.203l0,0h-8.108l0,0l1.014-3.446l0,0H275.676z M277.703,1230.12L277.703,1230.12L277.703,1230.12z" />
		<path
   id="path14"
   connector-curvature="0"
   fill="#FFFFFF"
   d="M289.257,1224.647h-3.446l-5.067,17.838h4.054l5.067-17.838    H289.257z" />
		<path
   id="path16"
   connector-curvature="0"
   fill="#FFFFFF"
   d="M294.121,1224.647h-0.202l-5.068,17.838H300l0,0    l1.824-0.406l1.622-0.607l1.621-0.811l1.419-1.014l1.419-1.217l1.014-1.419l0.811-1.419l0.608-1.621l0,0l0,0l0.405-2.027    l-0.203-2.026l-0.405-1.622l-0.811-1.621l0,0l-0.811-0.812l-1.217-0.607l-1.216-0.405l-1.419-0.203H294.121z M303.648,1228.295    L303.648,1228.295l0.608,0.202l0.607,0.204l0.608,0.202l0.405,0.405l0,0l0.203,0.608l0.202,0.607l0.203,1.419l0,0l-0.203,1.622    l0,0l0,0l-0.202,0.811l-0.405,1.014l-0.608,0.812l-0.608,0.81l-0.811,0.608l-1.014,0.608l-0.811,0.405h-1.014l0,0h-6.689l0,0    l3.041-10.338l0,0H303.648z M307.095,1233.769L307.095,1233.769L307.095,1233.769z" />
		<path
   id="path18"
   connector-curvature="0"
   fill="#FFFFFF"
   d="M318.851,1224.647h-3.647l-5.068,17.838h17.229l1.014-3.648    l0,0h-12.973l0,0l3.852-14.189H318.851z" />
		<path
   id="path20"
   connector-curvature="0"
   fill="#FFFFFF"
   d="M351.081,1224.647h-16.419l-4.865,17.838h17.433    l1.014-3.852l0,0h-13.176l0,0l1.014-3.648l0,0h7.5l1.014-3.648l0,0h-7.5l0,0l0.811-3.041l0,0h12.567l1.217-3.648H351.081z" />
		<path
   id="path22"
   connector-curvature="0"
   fill="#FFFFFF"
   d="M356.148,1224.647h-0.405l-4.865,17.838h11.148l0,0    l1.824-0.406l1.622-0.607l1.622-0.811l1.419-1.014l1.216-1.217l1.217-1.419l0.811-1.419l0.607-1.621l0,0l0,0l0.203-2.027v-2.026    l-0.405-1.622l-0.812-1.621l0,0l-1.013-0.812l-1.014-0.607l-1.217-0.405l-1.418-0.203H356.148z M365.676,1228.295    L365.676,1228.295l0.607,0.202l0.608,0.204l0.405,0.202l0.406,0.405l0,0l0.404,0.608l0.203,0.607l0.203,1.419l0,0l-0.203,1.622    l0,0l0,0l-0.203,0.811l-0.607,1.014l-0.405,0.812l-0.812,0.81l-0.811,0.608l-0.811,0.608l-1.014,0.405h-1.014l0,0h-6.486l0,0    l2.838-10.338l0,0H365.676z M369.121,1233.769L369.121,1233.769L369.121,1233.769z" />
		<path
   id="path24"
   connector-curvature="0"
   fill="#FFFFFF"
   d="M392.635,1229.309L392.635,1229.309l-0.202,0.811v0.811    l0.202,0.812l0.405,0.608l0,0l0.608,0.811l0.812,0.608l1.013,0.405l1.015,0.202l0,0l9.12,1.419l0,0h0.202l0.204,0.202l0,0    l0.202,0.406v0.607l0,0l-0.406,0.406l-0.404,0.607l-0.811,0.203l-0.812,0.405l-1.823,0.405l-1.623,0.203l0,0l-1.418-0.203    l-1.014-0.202l-2.23-0.608l-2.026-1.014l-1.419-1.013l-0.202-0.204l-3.446,2.636l0.406,0.405l0,0l0.81,0.608l0.811,0.608    l1.217,0.811l1.622,0.608l1.823,0.608l2.027,0.405l2.433,0.202l0,0l2.23-0.202l2.027-0.405l1.822-0.812l1.623-0.811l1.216-1.014    l0.812-1.014l0.81-1.014l0.203-1.014l0,0l0,0l0.202-0.811l-0.202-0.811l-0.203-0.608l-0.202-0.607l0,0l-0.607-0.608l-0.609-0.405    l-1.216-0.608l-1.419-0.405l-1.216-0.203l0,0l-6.284-0.811l0,0l-1.216-0.203l-0.405-0.202l-0.405-0.405l0,0v-0.203v-0.203l0,0    l0.202-0.405l0.405-0.202l1.217-0.608l1.419-0.405l1.622-0.202l0,0h1.215l1.014,0.202l2.026,0.607l1.623,0.812l1.014,0.608h0.202    l3.648-2.433l-0.405-0.406l0,0l-1.622-1.216l-2.027-0.811l-2.026-0.608l-2.229-0.202l0,0h-1.825l-1.825,0.202l-1.823,0.406    l-1.622,0.405l-1.419,0.811l-1.418,0.811l-0.812,1.216L392.635,1229.309z" />
		<path
   id="path26"
   connector-curvature="0"
   fill="#FFFFFF"
   d="M416.555,1224.647h-0.204l-5.067,17.838h4.257l0,0    l1.824-6.893l0,0h9.934l0,0l0.607-0.202l1.015-0.202l0.81-0.405l1.014-0.812l0.812-0.608l0.811-1.013l0.607-1.014l0.406-1.014l0,0    l0,0l0.202-1.419l0,0l-0.202-1.419l-0.608-1.419l0,0l-0.608-0.608l-0.811-0.405l-0.812-0.405h-0.811H416.555z M428.311,1228.295    L428.311,1228.295l0.405,0.202l0.406,0.406l0,0l0.203,0.405v0.405l0,0v0.405l0,0l0,0l-0.203,0.608l-0.608,0.405l-0.608,0.608    H427.5l0,0h-9.122l0,0l1.014-3.446l0,0H428.311z M430.135,1230.323L430.135,1230.323L430.135,1230.323L430.135,1230.323    L430.135,1230.323L430.135,1230.323z" />
		<path
   id="path28"
   connector-curvature="0"
   fill="#FFFFFF"
   d="M441.893,1224.647h-3.446l-5.067,17.838h4.054l5.067-17.838    H441.893z" />
		<path
   id="path30"
   connector-curvature="0"
   fill="#FFFFFF"
   d="M448.175,1224.647h-0.202l-5.067,17.838h4.257l0,0    l2.027-7.095l0,0h6.081l0,0l2.229,7.095h4.662l0,0l-2.433-7.5l0,0l1.825-0.608l1.418-1.216l1.217-1.419l0.405-0.812l0.203-0.811    l0,0l0.202-1.622l0,0l-0.202-1.419l-0.405-1.216l0,0l-0.608-0.405l-0.812-0.405l-0.811-0.405h-1.014H448.175z M459.729,1228.295    L459.729,1228.295l0.608,0.202l0.405,0.406l0,0l0.203,0.405v0.405l0,0v0.203l0,0l0,0l-0.406,0.607l-0.607,0.608l-0.811,0.405    l-0.811,0.203l0,0h-8.109l0,0l0.812-3.446l0,0H459.729z M461.757,1230.12L461.757,1230.12L461.757,1230.12L461.757,1230.12z" />
		<path
   id="path32"
   connector-curvature="0"
   fill="#FFFFFF"
   d="M473.92,1224.647h-3.447l-5.067,17.838h4.055l5.067-17.838    H473.92z" />
		<path
   id="path34"
   connector-curvature="0"
   fill="#FFFFFF"
   d="M496.622,1224.647H476.96l-1.015,3.648l0,0h8.109l0,0    L480,1242.485h4.055l0,0l4.053-14.189l0,0h8.109l1.013-3.648H496.622z" />
		<path
   id="path36"
   connector-curvature="0"
   fill="#FFFFFF"
   d="M560.675,1233.566h-2.229l0.407-0.811h5.27l-0.405,0.811    h-2.027l-2.229,5.878h-0.811L560.675,1233.566z" />
		<path
   id="path38"
   connector-curvature="0"
   fill="#FFFFFF"
   d="M564.729,1232.755h1.216l0.407,5.067l0,0l4.053-5.067h1.217    l-2.229,6.688h-1.015l2.027-5.473l0,0l-4.256,5.473h-0.609l-0.405-5.473l0,0l-1.824,5.473h-1.013L564.729,1232.755z" />
		<path
   id="path40"
   connector-curvature="0"
   fill="#FFFFFF"
   d="M586.217,1119.038l1.013-0.202l0,0l3.445-0.812l3.447-0.607    l0,0l-3.042-2.027l-3.242-1.824l-3.445-1.419l-3.649-1.014l-2.026-0.405l-1.824-0.203h-2.23h-2.027h-2.229l-2.23,0.405    l-4.662,0.812l0,0l3.042-1.622l2.838-1.418l3.04-1.014l3.242-0.609l3.042-0.202h2.838l3.04,0.202l2.838,0.406l2.838,0.811    l2.432,0.811l2.433,1.014l2.433,1.217l2.027,1.216l1.622,1.419l1.621,1.419l1.217,1.419l0,0l4.053,0.202l3.853,0.406l0,0    l-1.622-1.622l-2.027-2.026l-2.433-2.027l-2.433-1.622l0,0l2.635,0.405l2.637,0.405l5.067,1.42l4.661,1.824l4.46,2.027    l4.055,2.229l3.445,2.23l3.244,2.229l2.433,2.229l0,0l0.405,0.203l0.202,0.607v0.406v0.405l-0.202,0.405l-0.405,0.405    l-1.015,0.405l0,0l-3.242,1.621l-3.041,1.419l0,0l3.851,1.217l4.258,1.622l4.053,1.621l4.055,1.825l3.853,2.229l3.647,2.23    l3.243,2.433l2.837,2.432l0,0l2.433,2.636l1.825,2.229l1.419,2.433l1.014,2.026l0.81,2.23l0.204,1.824v2.026l-0.406,1.825    l-1.013,2.433l0,0l2.027-0.812l1.824-1.014l1.418-1.216l0.608-0.811l0.609-1.014l0,0l0.202-0.608v-0.607l-0.202-1.622    l-0.203-1.622v-1.014l0,0l0.203-1.216l0.607-1.013l0,0l-3.649-2.433l-4.256-3.244l-4.46-3.648l-3.649-3.243l0,0l-1.418-1.419    l-1.42-1.419l-1.013-1.621l-1.013-1.419l-0.609-1.419l-0.607-1.419l-0.203-1.216v-1.217l0,0l-1.622-1.419l-2.027-1.622    l-2.229-1.621l-2.229-1.419l-4.46-2.635l-3.649-1.622l0,0l1.825,0.203h1.622l1.824-0.203l1.621-0.405l1.622-0.405l1.622-0.812    l1.418-1.216l1.42-1.217l0,0l-1.622,0.405h-1.825l-1.62,0.204l-2.027-0.204l-1.825-0.202l-2.027-0.405l-3.851-1.216l-3.852-1.622    l-3.648-2.027l-1.622-1.216l-1.622-1.217l-1.418-1.216l-1.42-1.419l0,0l-1.62-1.621l-2.027-2.027l-2.027-1.824l-2.636-1.622    l-2.837-1.824l-3.243-1.419l-3.852-1.216l-4.258-1.014l0,0l2.635,1.216l2.636,1.419l2.433,1.825l2.229,1.824l2.027,2.229    l1.825,2.433l1.418,2.635l0.609,1.217l0.404,1.418l0,0l-2.027-2.432l-1.419-1.419l-2.026-1.825l-2.229-1.824l-2.838-1.823    l-3.446-1.825l-3.851-1.419l0,0l-2.027-0.608l-2.027-0.405l-4.055-0.607h-3.648l-3.649,0.405l-3.445,0.607l-3.242,0.812    l-3.041,1.014l-2.839,1.216l0,0l2.433-0.405l2.635-0.405h2.84l2.837,0.202l3.04,0.203l2.636,0.608l2.635,0.811l2.433,0.811l0,0    l1.217,0.811l0.203,0.608l0.202,0.405l0,0l-0.202,0.405h-0.407l-1.418,0.203l-3.04-0.203l0,0l-2.635-0.202l-2.636,0.202    l-2.637,0.203l-2.431,0.405l-4.257,0.811l-3.243,0.812l0,0l-2.637,0.607l-2.229,0.406l-2.432,0.202l-2.23,0.203l-2.027-0.203    l-2.027-0.202l-2.027-0.406l-1.823-0.405l-1.622-0.811l-1.622-0.608l-1.62-1.014l-1.42-1.014l-1.216-1.014l-1.015-1.419    l-1.013-1.216l-1.015-1.419l0,0l0.609,2.23l0.811,2.027l1.013,2.026l1.218,2.027l1.62,1.621l1.622,1.621l1.825,1.42l2.027,1.419    l2.229,1.014l2.229,1.013l2.229,0.812l2.23,0.811l2.229,0.405l2.433,0.405h2.229h2.027l0,0l5.676-0.203h2.229l2.23,0.203    l2.229,0.202l2.23,0.812l2.228,0.811L586.217,1119.038z" />
		<path
   id="path42"
   connector-curvature="0"
   fill="#1A4773"
   d="M669.122,1154.106L669.122,1154.106h-0.812l-0.811,0.405    l-0.405,0.406v0.811l0,0l0.203,0.811l0.607,0.812l0.607,0.607l1.015,0.203l0,0l-0.202-1.014l-0.203-1.217V1154.106z" />
		<path
   id="path44"
   connector-curvature="0"
   fill="#6C2710"
   d="M496.217,1107.283L496.217,1107.283l-1.015-1.622    l-1.215-1.824l-1.622-1.622l-2.027-1.419l-2.433-1.419l-2.635-1.419l-3.041-1.014l-3.242-0.607l-3.447-0.406l-3.647-0.202    l-4.055,0.405l-4.054,1.014l-2.229,0.608l-2.229,0.811l-2.23,0.811l-2.229,1.216l-2.433,1.217l-2.23,1.419l-2.432,1.622    l-2.433,1.621l0,0l3.446-1.419l3.243-1.014l3.445-1.216l3.243-0.812l3.244-0.81l3.445-0.406l3.243-0.405l3.041-0.202h3.243    l3.242,0.404l3.042,0.405l3.04,0.812l3.041,0.811l3.04,1.419l2.837,1.419L496.217,1107.283z" />
		<path
   id="path46"
   connector-curvature="0"
   fill="#FFFFFF"
   d="M612.771,1132.417L612.771,1132.417l-1.216,1.419    l-0.812,1.621l-0.608,1.621l-0.202,1.825l0.202,1.824l0.405,1.824l1.015,1.824l1.216,1.621l0,0l1.419,1.217l1.621,1.216    l1.622,1.014l1.824,0.812l2.027,0.811l2.026,0.608l2.027,0.404l2.229,0.406l2.23,0.203h2.027l4.459-0.203l2.026-0.202l2.027-0.406    l1.824-0.607l1.825-0.608l0,0l-2.433,1.622l-2.635,1.419l-4.865,2.229l0,0h1.823h2.839l3.445,0.406l3.851,0.811l4.46,1.014    l2.229,0.811l2.23,0.812l2.433,1.013l2.229,1.216l2.23,1.419l2.229,1.42l-0.812,2.229l0,0l-0.811-1.216l-1.013-1.013l-1.42-1.014    l-1.42-1.014l-1.418-0.812l-1.622-0.81l-1.62-0.609l-1.622-0.404l0,0l-1.42-0.203l-1.418-0.202l-0.811,0.202l-0.609,0.405    l-0.202,0.607l0.405,0.608l0.609,1.014l1.215,1.014l0,0l1.622,1.217l1.823,1.216l2.433,1.217l2.839,1.013l0,0l-2.839,0.608    l-3.851,0.607l0,0l-1.42-1.823l-1.62-1.622l-1.825-1.622l-2.027-1.621l-2.229-1.419l-2.433-1.216l-2.433-1.217l-2.635-1.014    l-2.635-0.607l-2.838-0.608l-2.838-0.405l-3.04-0.203h-3.04l-3.244,0.203l-3.04,0.607l-3.243,0.812l0,0l-5.067,1.823l-4.46,1.825    l-3.853,2.026l-3.445,2.23l-3.04,2.837l-3.244,3.041l-3.04,3.649l-3.243,4.054l0,0l2.23-4.459l2.229-4.258l2.838-4.256    l1.418-1.825l1.622-2.026l1.825-1.825l1.824-1.621l2.025-1.824l2.027-1.419l2.433-1.419l2.433-1.419l2.635-1.216l2.838-1.014l0,0    l-1.62-0.608l-1.218-0.811l-1.215-0.812l-1.217-1.216l-1.014-1.013l-0.812-1.419l-0.607-1.217l-0.405-1.419l-0.203-1.622    l-0.202-1.419l0.202-1.418l0.203-1.419l0.607-1.419l0.812-1.217l1.013-1.216l1.419-1.216l0,0l2.838,0.404l2.027,0.405    L612.771,1132.417z" />
		<path
   id="path48"
   connector-curvature="0"
   fill="#8DBBE7"
   d="M608.92,1126.538L608.92,1126.538l-5.88-0.202l-5.675,0.202    l-5.271,0.608l-5.675,1.014l0,0l-10.947,2.837l-7.298,1.622l-8.715,1.824l0,0l-5.271,0.812l-6.487,0.405l-3.242,0.202h-3.243    l-3.042-0.202l-2.432-0.608l0,0h3.649l3.851-0.202l3.649-0.406l3.647-0.607l7.095-1.217l3.243-0.811l2.839-0.812l0,0l5.473-1.823    l5.676-1.824l6.08-2.027l6.082-1.621l0,0l3.243-0.812l3.04-0.607l3.042-0.406l3.04-0.202l5.473-0.203l5.27,0.203l4.663,0.608    l3.852,0.81l3.04,1.014l1.216,0.608l0.812,0.608l0,0l-2.229,0.202l-2.23,0.405l-2.027,0.812l-1.824,1.216l0,0l-2.027-0.607    l-2.025-0.608L608.92,1126.538z" />
		<path
   id="path50"
   connector-curvature="0"
   fill="#6C2710"
   d="M581.149,1120.457L581.149,1120.457l-1.42-0.811    l-1.419-0.608l-1.823-0.405l-1.622-0.203l-3.445-0.202h-3.245l0,0l-3.647,0.202l-3.447,0.203l-3.04-0.203l-1.418-0.405    L555,1117.62l0,0l-2.635-0.811l-2.433-0.812l-4.258-1.823l-2.025-0.608l-2.027-0.608l-2.229-0.405l-2.23-0.202l0,0h-2.229    l-2.23,0.405l-2.432,0.607l-2.23,1.014l-2.027,1.216l-1.823,1.622l-0.812,0.811l-0.607,0.812l-0.608,1.014l-0.405,1.013l0,0    l1.823-1.013l1.825-0.608l2.027-0.608l2.027-0.203l0,0l1.215,0.203l1.015,0.203l1.013,0.202l0.811,0.405l0.609,0.608l0.607,0.608    l0.405,0.608l0.203,0.607l0,0v0.608l-0.203,0.607l-0.405,0.812l-0.81,0.811l-1.015,0.811l-1.825,0.405l-2.228,0.406h-2.84l0,0    l-3.242-0.406l-2.838-0.405l-2.838-0.607l-2.838-0.812l-2.635-0.811l-2.635-1.217l-2.838-1.621l-2.839-1.621l0,0l-3.445-2.433l0,0    l-3.243-2.027l-3.447-1.824l-3.445-1.419l-3.445-1.216l-3.446-1.014l-3.648-0.812l-3.446-0.607l-3.243-0.406h-3.445h-3.243    l-3.244,0.204l-3.04,0.405l-3.04,0.607l-2.839,0.811l-2.635,0.812l-2.433,1.013l0,0l-5.879,2.433l-5.877,2.433l-3.041,0.811    l-3.041,0.812l-2.838,0.811l-3.041,0.405l-3.04,0.405h-3.041l-3.041-0.202l-3.242-0.406l-3.04-0.607l-3.244-1.014l-3.243-1.419    l-3.243-1.621l0,0l1.217,1.621l1.621,1.419l1.622,1.419l2.026,1.216l2.23,1.217l2.432,1.014l2.636,1.014l2.635,0.607l3.041,0.608    l3.04,0.202l3.041,0.203h3.243l3.243-0.405l3.445-0.406l3.446-0.81l3.446-0.812l0,0l8.107-2.635l4.258-1.217l4.256-0.811    l4.459-0.608l4.865-0.404h5.067l5.473,0.607l0,0l3.245,0.608l3.242,1.013l3.04,1.217l3.245,1.622l3.04,1.823l3.04,1.825    l6.284,4.257l6.283,4.459l6.08,4.055l3.042,1.823l3.04,1.622l3.04,1.419l3.243,1.014l0,0l4.055,1.013l4.055,0.812l3.851,0.405    l4.055,0.202l0,0l5.473-0.405l0,0l2.433-0.404l2.837-0.405l6.487-1.42l3.243-1.013l3.04-1.014l2.838-1.014l2.229-1.014l0,0    l-3.445,0.811l-3.649,0.608l-3.851,0.405l-3.649,0.405l-7.093,0.203h-6.285h-0.811l0,0l-4.257-0.405l-3.851-0.812l-3.447-1.014    l-3.445-1.014l0,0l-2.837-1.215l-2.636-1.217l-2.432-1.622l-2.433-1.621l-2.027-1.621l-2.027-1.825l-3.648-3.446l0,0l2.433,1.014    l2.635,0.812l2.636,0.811l2.837,0.608l2.636,0.608l2.837,0.202l5.473,0.405h5.473l5.475-0.405l5.067-0.811l4.863-1.014l0,0    l-2.025-0.608l-2.027-1.014l-2.027-1.216l-1.622-1.621l-1.418-1.623l-1.015-1.621l-1.013-1.621l-0.405-1.419l0,0l0.811,1.013    l1.015,1.014l1.215,0.812l1.42,1.014l1.418,0.81l1.622,0.609l1.622,0.81l1.823,0.608l2.027,0.405l1.825,0.406l2.229,0.202h2.025    h2.23l2.229-0.202l2.23-0.406l2.229-0.607l1.42-0.406l0,0L581.149,1120.457z" />
		<path
   id="path52"
   connector-curvature="0"
   fill="#FFFFFF"
   d="M176.351,1119.038L176.351,1119.038l-3.243,0.203    l-4.257,0.608l-4.459,0.607l-3.648,0.812h-0.203l-0.202,1.419l0.405,0.202l0,0l1.014,0.405l0.811,0.608l0.811,0.811l0.608,1.014    l0.405,1.014l0.405,1.216l0.203,1.217v1.216l0,0l0,0l0,0l-0.203,2.027l-0.607,1.824l-1.014,2.027l-1.217,2.026l-1.621,2.027    l-1.824,2.027l-2.23,2.229l-2.229,2.23l-5.271,4.257l-5.878,4.459l-6.284,4.46l-6.486,4.459l0,0l-9.121,6.486l0,0l4.662-13.986    l2.026-5.878l2.027-4.864l1.824-4.055l2.027-3.649l1.824-2.837l2.229-2.433l0,0l4.662-4.865h-38.716l0,0l-1.217,0.203    l-1.216,0.405l-1.216,0.405l-1.014,0.608l-1.217,0.811l-0.811,0.811l-0.811,1.014l-0.608,0.811l-0.405,0.608l0,0h21.892l0,0    l-1.419,1.014l-1.216,1.014l-1.217,1.419l-1.216,1.419l-1.014,1.824l-1.014,1.824l-1.014,2.026l-1.013,2.433l0,0l-3.041,8.919    l-5.271,16.014l-5.473,17.635l-4.257,13.582l0,0l-1.621,5.067l-1.419,4.055l-1.419,3.242l-1.419,2.636l-1.217,2.027l-1.419,1.621    l-1.419,1.216l-1.621,1.014l-0.203,0.203l1.014,2.027h0.203l0,0l4.459,0.202l4.46-0.202l4.257-0.203l2.026-0.405l1.824-0.405    l2.027-0.608l1.622-0.608l1.621-1.014l1.419-1.014l1.419-1.014l1.014-1.419l1.014-1.621l0.811-1.824l0,0l2.027-6.081l2.229-7.297    l4.46-15l0,0l0.404-1.014l0.812-1.014l2.229-2.433l2.838-2.838l4.054-3.243l0,0l2.636,8.514l3.04,9.729l3.243,9.325l1.622,4.054    l1.419,3.446l0,0l2.229,4.864l2.229,4.662l2.636,4.46l1.419,2.026l1.621,2.027l1.622,1.621l1.824,1.622l2.026,1.419l2.027,1.217    l2.433,1.013l2.433,0.811l2.635,0.405l3.041,0.203h0.202l0,0h6.486l4.055-0.203l3.648-0.202h0.405v-3.445h-0.405l0,0l-1.216-0.204    l-1.217-0.202l-1.216-0.607l-1.216-0.608l-1.42-1.014l-1.419-1.217l-1.418-1.419l-1.622-1.823l-1.621-1.825l-1.42-2.229    l-1.621-2.432l-1.622-2.636l-1.621-3.041l-1.622-3.242l-1.419-3.446l-1.621-3.852l0,0l0,0l-2.838-7.702l-3.243-10.339    l-3.446-11.148l-3.04-10.945l0,0l6.688-4.662l6.689-4.865l6.689-4.865l6.081-5.067l2.635-2.433l2.433-2.433l2.229-2.433    l2.027-2.432l1.419-2.433l1.216-2.23l0.608-2.229l0.202-2.23l0,0l-0.202-1.824l-0.608-1.824l0,0l-0.202-0.812l-0.608-0.81    l-0.811-0.608l-0.812-0.608l-0.811-0.405l-1.216-0.405l-1.014-0.203H176.351z" />
		<path
   id="path54"
   connector-curvature="0"
   fill="#FFFFFF"
   d="M322.297,1133.633l-17.229,4.257v0.202l0,0l-1.419,4.46    l-3.445,8.919l0,0h-9.73l-5.067,7.095l0,0h11.959l0,0l-3.243,8.717l-1.621,4.459l0,0l-2.636,7.297l-2.635,7.905l-1.014,3.852    l-0.811,3.852l-0.608,3.648l-0.202,3.243l0,0l0.202,2.838l0,0l0.203,1.014l0.405,1.216l0.608,1.014l0.607,1.014l0.812,1.014    l1.014,1.014l2.026,1.824l2.635,1.419l3.041,1.216l3.446,1.014l3.648,0.608l0,0l2.838-1.824l-0.608-0.406l0,0l-1.014-1.014    l-0.811-1.215l-0.608-1.217l-0.405-1.419l0,0l-0.202-1.622l-0.203-1.621l0,0l0.405-4.054l0.203-2.433l0.608-2.839l0.607-3.242    l1.014-3.446l1.216-4.054l1.42-4.258l0,0l8.311-23.513l0,0h7.297l0,0h0.811l0.812-0.203l1.621-0.607l1.622-1.014l1.216-1.217    l2.027-2.229l0.811-1.217l0.405-0.607l0,0h-13.986l0,0l2.838-8.108l1.621-4.865l0,0l0.203-1.013l0.203-1.216l0,0l-0.203-1.622    l-0.405-0.405l-0.202-0.405l-0.203-0.203H322.297z" />
		<path
   id="path56"
   connector-curvature="0"
   fill="#FFFFFF"
   d="M569.189,1151.269L569.189,1151.269L569.189,1151.269    l-2.635,5.675l-2.433,5.676l0,0l-0.405,1.014l-0.204,0.203l0,0l-3.647,6.892l-4.055,6.689l-4.054,6.284l-4.257,5.877l-2.229,2.433    l-2.027,2.433l-2.026,2.027l-1.824,1.621l-1.825,1.419l-1.824,1.014l-1.621,0.812l-1.42,0.202l0,0l-1.215-0.202l-1.015-0.608    l-0.607-0.811l-0.405-1.014l0,0l0.202-1.419l0.203-1.824l1.419-4.459l2.229-5.474l2.433-6.284l0,0l3.042-7.297l2.635-7.095    l1.013-3.243l0.811-2.838l0.407-2.635l0.202-2.027l0,0l-0.202-1.217l-0.407-1.014l-0.607-0.81l-0.811-0.812l-1.015-0.405    l-1.215-0.405l-1.42-0.203l-1.621-0.202l0,0l-2.027,0.405l-3.04,0.608l-6.487,1.621l-4.257,1.014v0.405l-0.202,1.216h0.406l0,0    h1.013l0.608,0.406l0.607,0.202l0.609,0.608l0,0l0.405,1.014l0.202,1.216l-0.202,1.621l-0.405,2.027l0,0l-0.812,3.041    l-1.418,3.648l-3.446,8.311l0,0l-3.243,7.703l-1.622,4.054l-1.418,3.648l-1.217,3.649l-0.811,3.445l-0.405,3.041l-0.202,2.636l0,0    l0.405,2.229l0.607,1.825l1.015,1.621l1.418,1.217l1.824,1.014l2.027,0.81l2.433,0.406h2.838l0,0h1.824l1.823-0.202l1.825-0.406    l1.824-0.607l1.823-0.609l1.825-1.013l2.027-1.014l1.824-1.014l3.851-2.837l3.853-3.446l3.851-4.054l3.852-4.663l0,0l-3.242,9.324    l-1.622,4.257l-1.825,3.852l-1.823,3.852l-2.027,3.446l-2.229,3.242l-2.433,2.839l0,0l-1.622,1.621l-1.621,1.419l-1.622,1.216    l-1.622,1.217l-1.823,1.014l-2.027,0.811l-1.824,0.811l-2.23,0.608l-2.027,0.608l-2.229,0.404l-2.433,0.204l-2.229,0.202h-2.637    l-2.635-0.202l-5.473-0.608H502.5l-1.216,4.256l0.405,0.203l0,0l3.851,1.014l2.635,0.405l3.042,0.405l3.243,0.203l3.647,0.202    l3.853-0.202l3.851-0.203l4.055-0.405l4.257-0.811l4.053-1.217l3.853-1.419l3.851-2.027l2.027-1.013l1.824-1.419l1.623-1.217    l1.62-1.621l1.622-1.621l1.622-1.622l0,0l1.418-2.027l1.42-2.229l2.838-5.067l2.837-5.676l2.636-6.081l2.635-6.283l2.229-6.082    l3.851-10.541l0,0l0.204-0.81l0,0l5.271-13.986l5.878-15.204l0,0l0.202-0.607l0,0v-0.405l-0.202-0.203l-0.607-0.405l-0.608-0.405    l0,0l-1.824-0.608l-2.23-0.405l-2.635-0.202h-2.635l-2.636,0.202l-2.229,0.608l-1.825,0.608l-0.607,0.405L569.189,1151.269z" />
		<path
   id="path58"
   connector-curvature="0"
   fill="#FFFFFF"
   d="M348.851,1149.242L348.851,1149.242l-2.229,0.405    l-3.243,0.608l-7.095,1.823l-3.648,0.812l-0.202,0.405v1.216h0.405l0,0h0.811l0.811,0.406l0.608,0.202l0.405,0.608l0,0    l0.405,1.014l0.203,1.216v1.621l-0.405,2.027l0,0l-1.014,3.041l-1.216,3.648l-3.243,8.108l0,0l-3.244,7.702l-2.838,7.905    l-1.216,3.649l-0.811,3.445l-0.608,3.041v2.636l0,0l0.405,2.026l0.608,1.824l0.811,1.622l1.419,1.419l1.621,1.014l1.825,0.607    l2.027,0.608h2.432l0,0h2.027l2.027-0.202l2.026-0.609l2.027-0.607l2.229-0.608l2.027-1.014l2.026-1.216l2.027-1.217l2.229-1.419    l2.027-1.621l2.027-1.824l2.026-1.824l4.055-4.459l4.054-5.068l0,0l-0.811,4.257l-0.203,3.648l0,0l0.203,1.824v1.622l0,0    l0.405,1.217l0.405,1.215l0.405,1.217l0.608,1.014l0.811,1.014l0.811,1.014l1.014,0.811l1.014,0.811l2.636,1.419l3.039,1.216    l3.65,1.014l4.054,0.812h0.202l2.23-2.027l-0.609-0.405l0,0l-1.013-1.216l-0.811-1.014l-0.608-1.217l-0.405-1.621l0,0    l-0.203-1.825v-1.823l0.405-4.258l0.608-4.256l0.812-4.257l1.013-3.852l1.014-3.446l1.216-3.851l0,0l5.271-14.595l5.473-14.189    l0,0l0,0l0.203-0.406l-0.203-0.607l-0.405-0.608l-0.811-0.405l0,0l-1.824-0.607l-2.23-0.406h-2.432h-2.636l-2.635,0.203    l-2.027,0.405l-1.824,0.811l-0.608,0.406l-0.405,0.405l0,0l-3.242,7.095l-2.23,5.27l0,0l-3.851,7.5l-4.055,6.892l-4.257,6.487    l-4.054,5.473l-2.23,2.433l-2.026,2.229l-1.824,1.824l-1.824,1.621l-1.825,1.217l-1.621,1.014l-1.622,0.608l-1.418,0.202l0,0    l-1.014-0.202l-0.812-0.406l-0.202-0.607l-0.203-1.217l0,0v-1.216l0.405-1.824l1.419-4.662l2.027-5.474l2.433-6.283l0,0l2.838-7.5    l2.635-7.095l1.014-3.243l0.811-2.838l0.406-2.635v-2.027l0,0l-0.203-1.217l-0.203-1.014l-0.607-0.81l-0.812-0.812l-1.014-0.405    l-1.216-0.405l-1.419-0.203L348.851,1149.242z" />
		<path
   id="path60"
   connector-curvature="0"
   fill="#FFFFFF"
   d="M477.973,1123.904L477.973,1123.904l-2.433,0.202    l-3.04,0.608l-6.893,1.824l-4.053,1.014v0.203l-0.203,1.216l0.405,0.203l0,0h0.811l0.812,0.202l0.608,0.406l0.405,0.607l0,0    l0.405,0.607l0.202,0.812l0.202,1.824l0,0v1.824l-0.404,1.825l0,0l-3.852,11.756l-5.879,17.027l-6.486,17.636l-2.838,7.5    l-2.432,6.081l0,0l-2.433,2.026l-2.636,1.621l-2.433,1.42l-2.636,1.216l-2.432,0.811l-2.636,0.608l-2.433,0.405l-2.433,0.202l0,0    h-1.823l-1.622-0.404l-1.622-0.405l-1.62-0.812l-1.218-1.014l-1.215-1.419l-0.406-1.014l-0.202-1.014l-0.406-1.014v-1.215l0,0    v-3.649l0.406-3.851l0.811-3.853l0.811-3.647l1.216-3.446l1.014-3.244l2.027-4.864l0,0l1.622-3.445l1.621-3.041l1.825-2.433    l1.824-2.23l2.026-1.621l2.027-1.216l2.027-0.812l1.014-0.202h1.014l0,0H435l0.811,0.202l0.405,0.406l0.406,0.607l0,0l0.405,0.608    l0.202,0.811l0.203,1.014l-0.203,1.216l-0.202,1.622l-0.405,1.824l-0.812,2.23l-1.013,2.635l-0.203,0.607l2.838,0.608l0,0l0,0    l2.433-1.418l2.229-1.419l2.635-1.825l2.433-2.027l1.217-1.216l1.014-1.217l0.81-1.215l0.609-1.217l0.404-1.419v-1.217l0,0    l-0.404-1.621L450,1152.89l-1.013-1.419l-1.622-1.014l-1.825-0.811l-2.229-0.608l-2.637-0.405l-2.635-0.203l0,0l-4.459,0.203    l-4.256,0.811l-4.055,1.014l-4.055,1.621l-3.852,1.825l-3.648,2.229l-3.446,2.636l-3.04,3.04l0,0l-1.622,1.824l-1.62,1.824    l-1.42,2.23l-1.419,2.026l-2.433,4.662l-2.229,4.865l-1.623,4.864l-1.216,4.865l-0.406,2.433l-0.202,2.433l-0.203,2.229    l0.203,2.229l0,0l0.202,1.824l0.204,1.824l0.608,1.825l0.81,1.419l0.811,1.621l1.015,1.216l1.216,1.217l1.419,1.216l1.622,1.014    l1.621,0.812l1.824,0.607l2.027,0.607l2.229,0.608l2.229,0.203l2.432,0.202l2.637,0.203l0,0l4.863-0.405l4.461-0.607l4.459-1.014    l4.055-1.419l4.054-1.825l4.055-2.026l3.647-2.433l3.649-2.838l3.648-2.838l3.446-3.243l3.445-3.243l3.243-3.446l6.689-7.5    l6.487-7.702l0.405-0.405l0,0l5.271-5.474l2.635-2.433l2.635-2.229l2.23-2.027l2.229-1.418l1.823-1.014l1.015-0.203h0.81l0,0    h0.608l0.812,0.203l0.607,0.608l0.405,0.405l0,0l0.203,0.607l0.202,0.608v0.607l-0.202,0.608l0,0l-0.811,1.419l-1.42,1.419    l-1.62,1.419l-2.027,1.621l-4.258,3.041l-4.459,2.636l0,0l-3.243,2.027l-2.635,1.823l-1.825,1.419l-0.607,0.608l-0.405,0.608l0,0    l-0.405,1.418v1.623v1.823v1.825l0.811,3.852l1.217,4.054l1.418,4.054l1.825,3.648l2.027,3.446l1.823,2.635l0,0l1.622,1.622    l2.027,1.216l2.229,1.014l2.635,0.812l3.041,0.607l3.242,0.202h3.853l4.053-0.202h0.204l1.418-2.026l-1.215-0.608l0,0    l-1.015-0.812l-1.013-0.607l-1.218-1.014l-1.215-1.622l0,0l-1.218-1.824l-1.62-3.243l-1.825-3.851l-1.622-4.258l-1.62-4.256    l-1.015-4.055l-0.202-1.824l-0.203-1.621v-1.419l0.405-1.217l0,0l0.607-0.811l1.015-0.812l3.445-2.026l0,0l5.271-3.648l2.839-2.23    l2.635-2.229l2.229-2.433l1.015-1.419l0.811-1.419l0.607-1.419l0.407-1.621l0.202-1.622v-1.621l0,0l-0.202-1.824l-0.609-1.42    l-0.811-1.419l-1.216-1.216l-1.419-0.811l-1.623-0.608l-2.025-0.405l-2.229-0.202l0,0h-2.027l-1.825,0.202l-2.027,0.405    l-2.027,0.608l-1.823,0.608l-2.027,0.811l-1.824,1.014l-2.027,1.217l-1.823,1.216l-2.027,1.419l-4.055,3.648l-4.053,4.257    l-4.258,5.067l0,0l-0.202,0.202l0,0l4.053-11.148l4.257-12.161l3.447-10.744l1.013-3.648l0.405-2.23l0,0v-0.202l0,0l-0.202-1.419    l-0.405-1.014l-0.607-1.014l-0.812-0.811l-1.013-0.608l-1.217-0.405l-1.418-0.202H477.973z" />
		<path
   id="path62"
   connector-curvature="0"
   fill="#FFFFFF"
   d="M202.095,1155.728L202.095,1155.728l0.811,0.202    l0.608,0.406l0.202,0.607l0.203,1.014l0,0v0.608l0,0v1.622l-0.203,1.418l-0.608,1.419l-0.607,1.622l-0.608,1.419l-1.014,1.419    l-1.014,1.419l-1.216,1.419l-1.419,1.216l-1.419,1.419l-3.446,2.433l-3.648,2.027l-4.054,1.824l0,0l1.216-3.649l1.622-4.054    l1.824-3.851l2.026-3.649l1.217-1.824l1.014-1.419l1.419-1.419l1.216-1.216l1.419-1.014l1.419-0.811l1.419-0.406L202.095,1155.728    z M175.743,1161.606L175.743,1161.606l-1.622,2.027l-1.621,2.027l-1.622,2.027l-1.419,2.229l-2.433,4.459l-2.026,4.865    l-1.622,4.864l-0.607,2.433l-0.608,2.433l-0.203,2.433l-0.405,2.229v2.433v2.432l0,0l0.203,1.825l0.405,2.027l0.405,1.621    l0.811,1.621l0.608,1.622l1.014,1.216l1.216,1.217l1.217,1.216l1.418,1.014l1.42,0.812l1.824,0.81l1.824,0.608l1.824,0.405    l2.229,0.406l2.229,0.202h2.433l0,0l5.271-0.202l4.865-0.608l4.662-0.812l4.459-1.419l4.257-1.621l4.055-2.027l3.851-2.229    l3.852-2.636l3.648-2.838l3.446-3.243l3.648-3.648l3.648-3.852l3.446-4.055l3.648-4.256l7.5-9.73l0,0l4.662-4.865l1.824-2.026    l1.825-1.419l1.621-1.216l1.419-0.812l1.216-0.404l1.217-0.204l0,0l1.014,0.204l0.811,0.404l0,0l0.203,0.405l0.202,0.608v1.217    l0,0l-0.608,2.026l-1.014,2.433l-2.635,5.879l0,0l-3.243,7.5l-1.419,4.054l-1.419,4.055l-1.217,4.054l-0.811,3.852l-0.202,1.823    l-0.203,1.825v1.621l0.203,1.825l0,0l0.202,1.013l0.406,1.014l0.404,1.014l0.608,1.014l0.812,0.811l0.811,0.811l2.229,1.621    l2.433,1.217l3.243,1.216l3.648,1.014l4.055,0.812h0.202l2.027-1.622l-1.216-1.217l0,0l-0.812-0.81l-0.811-1.014l-0.608-1.419    l-0.405-1.825l0,0v-1.419l0.203-1.823l0.405-3.446l0.811-3.852l1.217-4.054l1.418-4.054l1.419-4.055l3.446-8.108l0,0l2.433-6.081    l2.027-5.473l0.811-2.433l0.607-2.229l0.203-2.027l0.203-1.621l0,0l-0.406-2.027l-0.607-1.824l-1.014-1.419l-1.217-1.216    l-1.621-1.014l-1.824-0.608l-2.027-0.405l-2.433-0.203l0,0h-2.026l-2.027,0.405l-2.027,0.406l-2.026,0.607l-1.824,0.608    l-1.825,1.013l-1.824,1.014l-1.824,1.217l-3.648,2.635l-3.648,3.446l-3.648,3.852l-3.649,4.256l0,0l1.419-3.647l1.014-3.446    l0.811-3.243l0.203-1.419l0.203-1.217l0,0v-0.607l0,0l-0.406-1.42l-0.405-1.013l-0.608-1.014l-0.811-0.811l-0.811-0.608    l-1.216-0.405l-1.419-0.203l-1.622-0.202l0,0l-2.229,0.405l-3.04,0.608l-6.689,1.621l-3.649,1.014v0.202l-0.202,1.217h0.405l0,0    l0.811,0.202l0.812,0.203l0.607,0.405l0.406,0.405l0,0l0.404,0.608l0.203,0.811l0.203,1.825l0,0l-0.203,1.823l-0.405,1.825l0,0    l-1.216,4.054l-1.419,4.662l-2.027,5.068l-2.027,5.473l-2.229,5.27l-2.229,5.067l-2.23,4.663l-2.229,3.851l0,0l-2.433,1.622    l-2.229,1.216l-2.433,1.014l-2.432,0.812l-2.23,0.607l-2.433,0.608l-2.432,0.202h-2.636l0,0h-1.621l-1.824-0.202l-1.622-0.608    l-1.419-0.811l-1.419-1.014l-1.014-1.419l-0.405-1.014l-0.405-1.014l-0.203-1.216l-0.202-1.217l0,0v-0.81l0,0l0.202-2.839    l0.608-3.04l1.419-6.081v-0.203l0,0l4.46-1.014l3.852-1.216l3.851-1.216l3.446-1.419l3.243-1.419l2.838-1.419l2.635-1.622    l2.433-1.621l2.027-1.824l1.824-1.825l1.621-1.823l1.217-1.825l1.014-2.026l0.608-2.23l0.404-2.229l0.203-2.229l0,0v-0.811l0,0    l-0.405-1.825l-0.608-1.621l-1.014-1.419l-1.419-1.216l-1.621-1.014l-2.027-0.608l-2.229-0.608h-2.636l0,0l-4.459,0.203    l-4.257,0.608l-4.054,1.013l-4.055,1.42l-3.851,1.823l-3.649,2.23l-3.243,2.433L175.743,1161.606z" />
	</g>
</g>
<g
   id="Layer_3">
	<g
   id="g46">
		<path
   fill="#1A4775"
   d="M141.38,98.757h-12.663l-14.28-57.926l-13.875,57.926H87.898L74.562,8.5h14.549l7.005,47.553L107.567,8.5    h13.875l11.72,47.553L140.167,8.5h14.549L141.38,98.757z"
   id="path49" />
		<path
   fill="#1A4775"
   d="M168.052,98.757V8.5h14.549v90.257H168.052z"
   id="path51" />
		<path
   fill="#1A4775"
   d="M204.153,98.757V8.5h14.28v76.921h41.761v13.336H204.153z"
   id="path53" />
		<path
   fill="#1A4775"
   d="M273.53,98.757V8.5h14.28v76.921h41.76v13.336H273.53z"
   id="path55" />
		<path
   fill="#1A4775"
   d="M342.907,98.757V8.5h14.549v90.257H342.907z"
   id="path57" />
		<path
   fill="#1A4775"
   d="M432.22,98.757l-8.893-25.326h-28.153l-8.891,25.326H371.06L402.179,8.5h14.144l31.119,90.257H432.22z     M409.452,33.556l-9.294,25.326h18.051L409.452,33.556z"
   id="path59" />
		<path
   fill="#1A4775"
   d="M517.089,98.757V46.488l-20.882,52.269l-20.88-52.269v52.269h-14.279V8.5h14.279l20.88,50.652L517.089,8.5    h14.279v90.257H517.089z"
   id="path61" />
		<path
   fill="#1A4775"
   d="M629.84,98.757V59.421h-32.87v39.335h-14.28V8.5h14.28v36.372h32.87V8.5h14.279v90.257H629.84z"
   id="path63" />
		<path
   fill="#1A4775"
   d="M674.562,91.483c0,2.245-0.763,4.176-2.289,5.792c-1.528,1.616-3.414,2.425-5.659,2.425    s-4.175-0.809-5.792-2.425s-2.425-3.547-2.425-5.792c0-2.245,0.808-4.13,2.425-5.658c1.617-1.526,3.547-2.29,5.792-2.29    s4.131,0.764,5.659,2.29C673.8,87.353,674.562,89.238,674.562,91.483z"
   id="path65" />
		<path
   fill="#1A4775"
   d="M166.436,260.412l-34.486-61.159v61.159h-14.28v-90.257h14.28l32.87,57.657v-57.657h14.279v90.257H166.436    z"
   id="path67" />
		<path
   fill="#1A4775"
   d="M253.863,260.412l-8.891-25.326h-28.155l-8.891,25.326h-15.223l31.119-90.257h14.145l31.118,90.257    H253.863z M231.096,195.211l-9.295,25.326h18.052L231.096,195.211z"
   id="path69" />
		<path
   fill="#1A4775"
   d="M309.633,182.818v77.594h-14.279v-77.594h-20.611v-12.664h55.771v12.664H309.633z"
   id="path71" />
		<path
   fill="#1A4775"
   d="M376.18,262.028c-6.735,0-12.305-1.303-16.704-3.907c-4.401-2.604-8.039-6.689-10.912-12.258    c-2.066-4.042-3.683-8.756-4.85-14.145c-1.167-5.389-1.751-10.912-1.751-16.57c0-7.184,0.896-14.054,2.694-20.611    c1.795-6.555,4.264-11.854,7.409-15.896c2.694-3.321,5.948-5.836,9.766-7.544c3.817-1.705,8.285-2.559,13.404-2.559    c6.824,0,12.461,1.482,16.906,4.445c4.446,2.964,8.195,7.635,11.249,14.011l-13.337,5.657c-1.258-1.886-2.402-3.456-3.434-4.715    c-1.033-1.256-2.112-2.244-3.234-2.963c-1.124-0.718-2.336-1.212-3.637-1.481c-1.304-0.27-2.808-0.405-4.513-0.405    c-3.683,0-6.759,0.855-9.228,2.56c-2.471,1.707-4.469,4.58-5.995,8.622c-1.168,2.694-2.043,5.883-2.626,9.564    c-0.585,3.684-0.875,7.456-0.875,11.315c0,4.941,0.493,9.678,1.482,14.213c0.987,4.536,2.378,8.24,4.176,11.113    c1.617,2.337,3.503,4.088,5.658,5.254c2.156,1.168,4.804,1.751,7.948,1.751c3.053,0,5.702-0.83,7.948-2.492    c2.244-1.66,4.265-4.332,6.062-8.016l13.605,5.119C398.004,255.383,388.932,262.028,376.18,262.028z"
   id="path73" />
		<path
   fill="#1A4775"
   d="M470.208,260.412v-39.336H437.34v39.336h-14.28v-90.257h14.28v36.372h32.868v-36.372h14.28v90.257H470.208    z"
   id="path75" />
		<path
   fill="#1A4775"
   d="M506.041,260.412v-90.257h53.212v14.28h-38.932v22.092h26.269v14.549h-26.269v24.788h41.76v14.549H506.041    z"
   id="path77" />
		<path
   fill="#1A4775"
   d="M623.241,260.412l-14.55-39.336h-17.107v39.336h-14.279v-90.257h29.771c3.503,0,6.511,0.202,9.026,0.606    c2.513,0.405,4.894,1.145,7.14,2.223c1.974,0.99,3.792,2.27,5.455,3.84c1.661,1.572,3.1,3.368,4.312,5.389    c1.211,2.02,2.155,4.176,2.828,6.466c0.674,2.29,1.011,4.559,1.011,6.803c0,2.425-0.337,4.782-1.011,7.072    c-0.673,2.29-1.617,4.445-2.828,6.466c-1.212,2.021-2.695,3.84-4.446,5.456c-1.75,1.617-3.66,2.875-5.725,3.772l15.896,42.165    H623.241z M622.567,195.48c0-1.886-0.494-3.682-1.481-5.389c-0.99-1.705-2.381-3.052-4.177-4.042    c-1.168-0.627-2.245-1.054-3.232-1.28c-0.99-0.223-2.651-0.336-4.985-0.336h-17.107v22.092h17.107    c2.245,0,3.884-0.088,4.917-0.269c1.032-0.179,2.133-0.583,3.301-1.213c1.796-0.986,3.187-2.357,4.177-4.108    C622.073,199.185,622.567,197.366,622.567,195.48z"
   id="path79" />
		<path
   fill="#1A4775"
   d="M164.213,357.134c0,2.427-0.36,4.783-1.078,7.073c-0.72,2.29-1.707,4.445-2.963,6.467    c-1.259,2.021-2.718,3.795-4.378,5.32c-1.663,1.528-3.481,2.742-5.456,3.638c-2.066,0.988-4.468,1.751-7.207,2.29    c-2.74,0.539-5.859,0.808-9.362,0.808h-16.704v39.337h-14.28V331.81h30.984c3.681,0,6.803,0.201,9.362,0.605    c2.56,0.404,4.962,1.146,7.207,2.223c1.975,0.989,3.793,2.27,5.456,3.84c1.661,1.571,3.12,3.367,4.378,5.389    c1.256,2.021,2.244,4.176,2.963,6.465C163.853,352.622,164.213,354.892,164.213,357.134z M149.664,357.134    c0-1.884-0.518-3.681-1.549-5.388c-1.034-1.705-2.313-3.053-3.839-4.041c-1.259-0.719-2.448-1.166-3.57-1.348    c-1.124-0.178-2.808-0.27-5.052-0.27h-18.589v22.094h18.589c2.244,0,3.928-0.089,5.052-0.271c1.123-0.178,2.312-0.582,3.57-1.212    c1.526-0.807,2.806-2.132,3.839-3.974C149.146,360.886,149.664,359.021,149.664,357.134z"
   id="path81" />
		<path
   fill="#1A4775"
   d="M230.759,422.066l-8.89-25.326h-28.156l-8.891,25.326h-15.222l31.118-90.257h14.145l31.119,90.257H230.759    z M207.993,356.866l-9.295,25.325h18.052L207.993,356.866z"
   id="path83" />
		<path
   fill="#1A4775"
   d="M305.523,422.066l-14.548-39.337h-17.109v39.337h-14.279V331.81h29.771c3.502,0,6.51,0.201,9.025,0.605    c2.513,0.404,4.895,1.146,7.14,2.223c1.975,0.989,3.793,2.27,5.456,3.84c1.661,1.571,3.099,3.367,4.311,5.389    c1.212,2.021,2.156,4.176,2.829,6.465c0.674,2.291,1.011,4.561,1.011,6.803c0,2.427-0.337,4.783-1.011,7.073    c-0.673,2.29-1.616,4.445-2.829,6.467c-1.212,2.021-2.693,3.84-4.445,5.456c-1.75,1.616-3.661,2.874-5.725,3.771l15.896,42.166    H305.523z M304.85,357.134c0-1.884-0.495-3.681-1.482-5.388c-0.989-1.705-2.381-3.053-4.176-4.041    c-1.168-0.628-2.246-1.055-3.233-1.279c-0.989-0.223-2.65-0.338-4.984-0.338h-17.109v22.094h17.109    c2.243,0,3.883-0.089,4.917-0.271c1.031-0.178,2.132-0.582,3.3-1.212c1.795-0.987,3.187-2.357,4.176-4.109    C304.355,360.84,304.85,359.021,304.85,357.134z"
   id="path85" />
		<path
   fill="#1A4775"
   d="M382.848,422.066l-22.902-42.704l-9.43,11.72v30.984h-14.28V331.81h14.28v35.832l28.424-35.832h18.456    l-27.886,35.159l29.772,55.098H382.848z"
   id="path87" />
		<path
   fill="#1A4775"
   d="M473.641,422.066h-12.663l-14.28-57.927l-13.874,57.927H420.16l-13.336-90.257h14.548l7.005,47.553    l11.451-47.553h13.875l11.721,47.553l7.005-47.553h14.549L473.641,422.066z"
   id="path89" />
		<path
   fill="#1A4775"
   d="M553.525,422.066l-8.891-25.326h-28.156l-8.891,25.326h-15.222l31.118-90.257h14.146l31.117,90.257    H553.525z M530.76,356.866l-9.296,25.325h18.051L530.76,356.866z"
   id="path91" />
		<path
   fill="#1A4775"
   d="M621.958,382.729v39.337h-14.28v-39.337l-31.656-50.92h17.108l21.553,34.89l21.824-34.89h16.839    L621.958,382.729z"
   id="path93" />
	</g>
</g>
<g
   id="Upper_area">
</g>
</svg>