<?xml version="1.0" encoding="utf-8"?>
<!-- Generator: Adobe Illustrator 12.0.0, SVG Export Plug-In . SVG Version: 6.00 Build 51448)  -->
<!DOCTYPE svg PUBLIC "-//W3C//DTD SVG 1.1//EN" "http://www.w3.org/Graphics/SVG/1.1/DTD/svg11.dtd" [
	<!ENTITY ns_svg "http://www.w3.org/2000/svg">
	<!ENTITY ns_xlink "http://www.w3.org/1999/xlink">
]>
<svg  version="1.1" id="Layer_1" xmlns="&ns_svg;" xmlns:xlink="&ns_xlink;" width="601" height="601" viewBox="0 0 601 601"
	 overflow="visible" enable-background="new 0 0 601 601" xml:space="preserve">
<g>
	<g>
		<g>
			<path fill="#FFFFFF" d="M0.5,50.5c0-27.6142578,22.3852539-50,50-50h500c27.6142578,0,50,22.3857422,50,50v500
				c0,27.6152344-22.3857422,50-50,50h-500c-27.6147461,0-50-22.3847656-50-50V50.5L0.5,50.5z"/>
			<path fill="#FFFFFF" d="M300.5,300.5"/>
		</g>
		<g>
			<path fill="none" stroke="#000000" stroke-linecap="round" stroke-linejoin="round" stroke-miterlimit="3.863693" d="M0.5,50.5
				c0-27.6142578,22.3852539-50,50-50h500c27.6142578,0,50,22.3857422,50,50v500c0,27.6152344-22.3857422,50-50,50h-500
				c-27.6147461,0-50-22.3847656-50-50V50.5L0.5,50.5z"/>
			<path fill="none" stroke="#000000" stroke-linecap="round" stroke-linejoin="round" stroke-miterlimit="3.863693" d="
				M300.5,300.5"/>
		</g>
	</g>
	<g>
		<g>
			<path d="M10.5,50.5c0-22.0913086,17.9082031-40,40-40h500c22.0917969,0,40,17.9086914,40,40v500
				c0,22.0917969-17.9082031,40-40,40h-500c-22.0917969,0-40-17.9082031-40-40V50.5L10.5,50.5z"/>
			<path d="M300.5,300.5"/>
		</g>
	</g>
	<g>
		<g>
			<path fill="#FFFFFF" d="M25.5,50.5c0-13.8071289,11.1923828-25,25-25h500c13.8066406,0,25,11.1928711,25,25v500
				c0,13.8076172-11.1933594,25-25,25h-500c-13.8076172,0-25-11.1923828-25-25V50.5L25.5,50.5z"/>
			<path fill="#FFFFFF" d="M300.5,300.5"/>
		</g>
	</g>
</g>
<g>
	<path fill-rule="evenodd" clip-rule="evenodd" d="M75.1259766,445.3125
		c0.5761719-17.0019531,2.7373047-32.5644531,6.4838867-46.6855469s9.6542969-28.0976563,17.7236328-41.9316406
		c6.0517578-10.9511719,13.5449219-21.109375,22.4780273-30.4746094
		c8.934082-9.3662109,18.4438477-17.7949219,28.5307617-25.2880859c2.5932617-1.440918,4.8989258-2.9541016,6.9160156-4.5390625
		s4.034668-3.0981445,6.0517578-4.5390625l15.5620117-8.2133789l14.2651367-8.2133789l13.8330078-7.78125
		c5.7636719-3.7456055,10.4467773-8.4287109,14.0488281-14.0488281c3.6025391-5.6191406,5.4033203-11.4545898,5.4033203-17.5068359
		c0-5.4755859-1.4404297-10.5908203-4.3227539-15.3461914c-2.8818359-4.7543945-6.7001953-8.8613281-11.4550781-12.3193359
		s-10.3022461-6.1958008-16.6420898-8.2133789c-6.3408203-2.0170898-13.112793-3.0258789-20.3173828-3.0258789
		c-14.6977539,0-26.5854492,3.4580078-35.6630859,10.3745117c-9.0776367,6.9160156-14.7695313,17.0029297-17.074707,30.2592773
		l-45.8212891-9.9423828c4.8994141-24.2070313,16.1381836-43.1552734,33.7172852-56.8442383
		C126.4223633,157.3447266,148.0366211,150.5,173.6850586,150.5c13.8325195,0,26.7290039,2.3056641,38.6884766,6.9165039
		c11.9599609,4.6108398,22.3344727,10.8071289,31.1240234,18.5878906c8.7895508,7.78125,15.777832,16.9311523,20.965332,27.449707
		s7.78125,21.6860352,7.78125,33.5014648c0,11.2392578-2.5219727,22.262207-7.5649414,33.0688477
		c-5.0429688,10.8071289-12.3198242,20.3891602-21.8300781,28.746582c-2.3056641,1.7290039-4.3950195,3.3129883-6.2680664,4.7543945
		s-3.8183594,2.59375-5.8354492,3.4589844l-14.265625,9.0771484l-15.5615234,8.2138672l-14.2651367,8.2128906
		c-6.9165039,4.0351563-13.0405273,8.2851563-18.3720703,12.7519531
		c-5.3310547,4.4667969-10.2304688,9.2949219-14.6972656,14.4824219
		c-4.4667969,5.1865234-8.6455078,10.9501953-12.5361328,17.2900391
		c-3.8901367,6.3398438-7.5649414,13.5449219-11.0224609,21.6142578h142.21875V445.3125H75.1259766z"/>
	<path fill-rule="evenodd" clip-rule="evenodd" d="M525.8740234,338.5410156
		c0,16.1376953-3.0986328,30.9794922-9.2939453,44.5234375c-6.1953125,13.5449219-14.9140625,25.3613281-26.1523438,35.4472656
		c-11.2402344,10.0859375-24.5683594,17.9394531-39.9863281,23.5585938C435.0244141,447.6904297,418.09375,450.5,399.6494141,450.5
		c-12.6806641,0-25.1435547-1.4414063-37.3916016-4.3222656c-12.2480469-2.8828125-23.4160156-6.9169922-33.5019531-12.1035156
		l22.4785156-40.6347656c6.0517578,3.1699219,13.9765625,5.6914063,23.7753906,7.5644531
		c9.7978516,1.8730469,20.0283203,2.8105469,30.6914063,2.8105469c10.375,0,20.1005859-1.6572266,29.1787109-4.9716797
		c9.0771484-3.3134766,17.0029297-7.8525391,23.7744141-13.6162109
		c6.7734375-5.7636719,12.0322266-12.6083984,15.7792969-20.5332031c3.7460938-7.9257813,5.6191406-16.6425781,5.6191406-26.1523438
		c0-7.2050781-1.3691406-13.8339844-4.1064453-19.8847656c-2.7373047-6.0527344-6.4833984-11.3837891-11.2392578-15.9941406
		c-4.7558594-4.6113281-10.2304688-8.2138672-16.4267578-10.8076172s-12.8955078-3.890625-20.1005859-3.890625
		c-5.1875,0-9.7265625,0.4326172-13.6171875,1.296875c-3.890625,0.8647461-7.5644531,2.449707-11.0234375,4.7553711
		c-3.4570313,2.3056641-6.9160156,5.4033203-10.3740234,9.2944336c-3.4580078,3.890625-7.3486328,8.8613281-11.6708984,14.9130859
		l-45.8222656-12.9677734L343.0214844,155.6875h166.4257813v45.8212891H387.5449219l-3.0253906,47.550293
		c10.6630859-3.1699219,19.0195313-5.3310547,25.0722656-6.484375c6.0517578-1.1523438,12.6796875-1.7285156,19.8847656-1.7285156
		c13.2558594,0,25.7207031,2.5932617,37.3916016,7.7807617s21.9023438,12.2480469,30.6923828,21.1816406
		c8.7890625,8.9335938,15.7050781,19.3081055,20.7480469,31.1240234
		C523.3525391,312.7480469,525.8740234,325.2841797,525.8740234,338.5410156z"/>
</g>
</svg>
