<?xml version="1.0" encoding="utf-8"?>
<!-- Generator: Adobe Illustrator 12.0.0, SVG Export Plug-In . SVG Version: 6.00 Build 51448)  -->
<!DOCTYPE svg PUBLIC "-//W3C//DTD SVG 1.1//EN" "http://www.w3.org/Graphics/SVG/1.1/DTD/svg11.dtd" [
	<!ENTITY ns_svg "http://www.w3.org/2000/svg">
	<!ENTITY ns_xlink "http://www.w3.org/1999/xlink">
]>
<svg  version="1.1" id="Layer_1" xmlns="&ns_svg;" xmlns:xlink="&ns_xlink;" width="751" height="601" viewBox="0 0 751 601"
	 overflow="visible" enable-background="new 0 0 751 601" xml:space="preserve">
<g>
	<g>
		<g>
			<path fill="#FFFFFF" d="M0.5,50.5c0-27.6142578,22.3852539-50,50-50h650c27.6142578,0,50,22.3857422,50,50v500
				c0,27.6152344-22.3857422,50-50,50h-650c-27.6147461,0-50-22.3847656-50-50V50.5L0.5,50.5z"/>
			<path fill="#FFFFFF" d="M375.5,300.5"/>
		</g>
		<g>
			<path fill="none" stroke="#000000" stroke-linecap="round" stroke-linejoin="round" stroke-miterlimit="3.863693" d="M0.5,50.5
				c0-27.6142578,22.3852539-50,50-50h650c27.6142578,0,50,22.3857422,50,50v500c0,27.6152344-22.3857422,50-50,50h-650
				c-27.6147461,0-50-22.3847656-50-50V50.5L0.5,50.5z"/>
			<path fill="none" stroke="#000000" stroke-linecap="round" stroke-linejoin="round" stroke-miterlimit="3.863693" d="
				M375.5,300.5"/>
		</g>
	</g>
	<g>
		<g>
			<path d="M10.5,50.5c0-22.0913086,17.9082031-40,40-40h650c22.0917969,0,40,17.9086914,40,40v500
				c0,22.0917969-17.9082031,40-40,40h-650c-22.0917969,0-40-17.9082031-40-40V50.5L10.5,50.5z"/>
			<path d="M375.5,300.5"/>
		</g>
	</g>
	<g>
		<g>
			<path fill="#FFFFFF" d="M25.5,50.5c0-13.8071289,11.1923828-25,25-25h650c13.8066406,0,25,11.1928711,25,25v500
				c0,13.8076172-11.1933594,25-25,25h-650c-13.8076172,0-25-11.1923828-25-25V50.5L25.5,50.5z"/>
			<path fill="#FFFFFF" d="M375.5,300.5"/>
		</g>
	</g>
</g>
<g>
	<path fill-rule="evenodd" clip-rule="evenodd" d="M108.6777344,445.3125V210.5864258H82.3085938v-36.7436523h3.0263672
		c6.0517578,0,12.1035156-1.5844727,18.1552734-4.7548828c6.0517578-3.1699219,11.0952148-7.637207,15.1298828-13.4003906
		h36.7436523v289.625H108.6777344z"/>
	<path fill-rule="evenodd" clip-rule="evenodd" d="M217.9428711,445.3125
		c0.5761719-17.0019531,2.737793-32.5644531,6.484375-46.6855469c3.7460938-14.1210938,9.6538086-28.0976563,17.7226563-41.9316406
		c6.0522461-10.9511719,13.5454102-21.109375,22.4785156-30.4746094
		c8.9335938-9.3662109,18.4438477-17.7949219,28.5307617-25.2880859c2.5932617-1.440918,4.8989258-2.9541016,6.9160156-4.5390625
		c2.0175781-1.5849609,4.034668-3.0981445,6.0517578-4.5390625l15.5620117-8.2133789l14.2651367-8.2133789l13.8330078-7.78125
		c5.7636719-3.7456055,10.4467773-8.4287109,14.0488281-14.0488281c3.6025391-5.6191406,5.4038086-11.4545898,5.4038086-17.5068359
		c0-5.4755859-1.4414063-10.5908203-4.3232422-15.3461914c-2.8813477-4.7543945-6.7001953-8.8613281-11.4550781-12.3193359
		s-10.3022461-6.1958008-16.6425781-8.2133789c-6.340332-2.0170898-13.1123047-3.0258789-20.3168945-3.0258789
		c-14.6977539,0-26.5854492,3.4580078-35.6630859,10.3745117c-9.0776367,6.9160156-14.7695313,17.0029297-17.074707,30.2592773
		l-45.8212891-9.9423828c4.8994141-24.2070313,16.1381836-43.1552734,33.7172852-56.8442383
		C269.2397461,157.3447266,290.8535156,150.5,316.5019531,150.5c13.8325195,0,26.7294922,2.3056641,38.6884766,6.9165039
		c11.9594727,4.6108398,22.3349609,10.8071289,31.1240234,18.5878906c8.7890625,7.78125,15.7773438,16.9311523,20.9648438,27.449707
		s7.7822266,21.6860352,7.7822266,33.5014648c0,11.2392578-2.5224609,22.262207-7.5654297,33.0688477
		c-5.0429688,10.8071289-12.3203125,20.3891602-21.8300781,28.746582c-2.3056641,1.7290039-4.3945313,3.3129883-6.2675781,4.7543945
		s-3.8183594,2.59375-5.8364258,3.4589844l-14.2646484,9.0771484l-15.5620117,8.2138672l-14.2651367,8.2128906
		c-6.9165039,4.0351563-13.0405273,8.2851563-18.3720703,12.7519531
		c-5.3310547,4.4667969-10.2304688,9.2949219-14.6967773,14.4824219
		c-4.4672852,5.1865234-8.6459961,10.9501953-12.5361328,17.2900391
		c-3.8911133,6.3398438-7.5654297,13.5449219-11.0229492,21.6142578h142.2192383V445.3125H217.9428711z"/>
	<path fill-rule="evenodd" clip-rule="evenodd" d="M668.6914063,352.8056641
		c0,13.2558594-2.6660156,25.7919922-7.9970703,37.6083984c-5.3320313,11.8154297-12.5361328,22.1894531-21.6142578,31.1230469
		S619.5556641,437.53125,607.7402344,442.71875c-11.8164063,5.1875-24.3515625,7.78125-37.6074219,7.78125
		c-13.2578125,0-25.7929688-2.59375-37.609375-7.78125c-11.8154297-5.1875-22.2617188-12.2480469-31.3398438-21.1816406
		s-16.2822266-19.3076172-21.6132813-31.1230469c-5.3320313-11.8164063-7.9980469-24.3525391-7.9980469-37.6083984
		c0-13.8330078,2.8828125-26.296875,8.6464844-37.3916016c5.7636719-11.0957031,13.9765625-20.9658203,24.6386719-29.6113281
		c-14.1210938-14.9858398-21.1806641-32.5649414-21.1806641-52.737793c0-11.2392578,2.3056641-21.8300781,6.9160156-31.7724609
		c4.6113281-9.9418945,10.8798828-18.7319336,18.8037109-26.3686523
		c7.9257813-7.6367188,17.0761719-13.6166992,27.4501953-17.9394531S558.3164063,150.5,570.1328125,150.5
		c11.5263672,0,22.6210938,2.1616211,33.2841797,6.484375s19.9570313,10.3027344,27.8818359,17.9394531
		c7.9257813,7.6367188,14.265625,16.4267578,19.0205078,26.3686523c4.7548828,9.9423828,7.1318359,20.5332031,7.1318359,31.7724609
		c0,10.0864258-1.9453125,19.5244141-5.8349609,28.3139648c-3.890625,8.7900391-9.4384766,16.9311523-16.6435547,24.4238281
		c11.2402344,8.6455078,19.6699219,18.6601563,25.2890625,30.0429688
		C665.8808594,327.2294922,668.6914063,339.5488281,668.6914063,352.8056641z M610.765625,231.7675781
		c0-9.5097656-3.9628906-17.6508789-11.8867188-24.4228516c-7.9257813-6.7724609-17.5078125-10.1586914-28.7460938-10.1586914
		c-11.2402344,0-20.8222656,3.3862305-28.7480469,10.1586914c-7.9238281,6.7719727-11.8867188,14.9130859-11.8867188,24.4228516
		c0,8.6459961,3.9628906,16.0668945,11.8867188,22.2626953c7.9257813,6.1962891,17.5078125,9.2939453,28.7480469,9.2939453
		c11.2382813,0,20.8203125-3.0976563,28.7460938-9.2939453C606.8027344,247.8344727,610.765625,240.4135742,610.765625,231.7675781z
		 M622.8691406,353.6699219c0-6.0517578-1.4404297-11.7431641-4.3222656-17.0742188
		c-2.8818359-5.3320313-6.7001953-9.9433594-11.4550781-13.8330078c-4.7558594-3.890625-10.3027344-6.9892578-16.6425781-9.2939453
		c-6.3398438-2.3056641-13.1132813-3.4589844-20.3164063-3.4589844c-7.2050781,0-13.90625,1.1533203-20.1015625,3.4589844
		c-6.1962891,2.3046875-11.671875,5.4033203-16.4267578,9.2939453c-4.7548828,3.8896484-8.5009766,8.5009766-11.2392578,13.8330078
		c-2.7382813,5.3310547-4.1064453,11.0224609-4.1064453,17.0742188c0,6.9160156,1.3681641,13.4003906,4.1064453,19.453125
		c2.7382813,6.0507813,6.484375,11.3828125,11.2392578,15.9941406s10.2304688,8.2128906,16.4267578,10.8066406
		c6.1953125,2.59375,12.8964844,3.890625,20.1015625,3.890625c7.203125,0,14.0488281-1.296875,20.5322266-3.890625
		s12.1035156-6.1953125,16.8583984-10.8066406c4.7558594-4.6113281,8.5019531-9.9433594,11.2392578-15.9941406
		C621.5,367.0703125,622.8691406,360.5859375,622.8691406,353.6699219z"/>
</g>
</svg>
