<?xml version="1.0" encoding="utf-8"?>
<!-- Generator: Adobe Illustrator 12.0.0, SVG Export Plug-In . SVG Version: 6.00 Build 51448)  -->
<!DOCTYPE svg PUBLIC "-//W3C//DTD SVG 1.1//EN" "http://www.w3.org/Graphics/SVG/1.1/DTD/svg11.dtd" [
	<!ENTITY ns_svg "http://www.w3.org/2000/svg">
	<!ENTITY ns_xlink "http://www.w3.org/1999/xlink">
]>
<svg  version="1.1" id="Layer_1" xmlns="&ns_svg;" xmlns:xlink="&ns_xlink;" width="601" height="601" viewBox="0 0 601 601"
	 overflow="visible" enable-background="new 0 0 601 601" xml:space="preserve">
<g>
	<g>
		<g>
			<path fill="#FFFFFF" d="M0.5,50.5c0-27.6142578,22.3852539-50,50-50h500c27.6142578,0,50,22.3857422,50,50v500
				c0,27.6152344-22.3857422,50-50,50h-500c-27.6147461,0-50-22.3847656-50-50V50.5L0.5,50.5z"/>
			<path fill="#FFFFFF" d="M300.5,300.5"/>
		</g>
		<g>
			<path fill="none" stroke="#000000" stroke-linecap="round" stroke-linejoin="round" stroke-miterlimit="3.863693" d="M0.5,50.5
				c0-27.6142578,22.3852539-50,50-50h500c27.6142578,0,50,22.3857422,50,50v500c0,27.6152344-22.3857422,50-50,50h-500
				c-27.6147461,0-50-22.3847656-50-50V50.5L0.5,50.5z"/>
			<path fill="none" stroke="#000000" stroke-linecap="round" stroke-linejoin="round" stroke-miterlimit="3.863693" d="
				M300.5,300.5"/>
		</g>
	</g>
	<g>
		<g>
			<path d="M10.5,50.5c0-22.0913086,17.9082031-40,40-40h500c22.0917969,0,40,17.9086914,40,40v500
				c0,22.0917969-17.9082031,40-40,40h-500c-22.0917969,0-40-17.9082031-40-40V50.5L10.5,50.5z"/>
			<path d="M300.5,300.5"/>
		</g>
	</g>
	<g>
		<g>
			<path fill="#FFFFFF" d="M25.5,50.5c0-13.8071289,11.1923828-25,25-25h500c13.8066406,0,25,11.1928711,25,25v500
				c0,13.8076172-11.1933594,25-25,25h-500c-13.8076172,0-25-11.1923828-25-25V50.5L25.5,50.5z"/>
			<path fill="#FFFFFF" d="M300.5,300.5"/>
		</g>
	</g>
</g>
<g>
	<path fill-rule="evenodd" clip-rule="evenodd" d="M76.6386719,445.3125
		c0.5761719-17.0019531,2.737793-32.5644531,6.484375-46.6855469c3.7460938-14.1210938,9.6542969-28.0976563,17.7231445-41.9316406
		c6.0522461-10.9511719,13.5449219-21.109375,22.4785156-30.4746094
		c8.9335938-9.3662109,18.4438477-17.7949219,28.5307617-25.2880859c2.5932617-1.440918,4.8984375-2.9541016,6.9160156-4.5390625
		c2.0170898-1.5849609,4.034668-3.0981445,6.0517578-4.5390625l15.5615234-8.2133789l14.265625-8.2133789l13.8330078-7.78125
		c5.7636719-3.7456055,10.4462891-8.4287109,14.0488281-14.0488281c3.6025391-5.6191406,5.4033203-11.4545898,5.4033203-17.5068359
		c0-5.4755859-1.440918-10.5908203-4.3227539-15.3461914c-2.8818359-4.7543945-6.7001953-8.8613281-11.4555664-12.3193359
		c-4.7548828-3.4580078-10.3017578-6.1958008-16.6425781-8.2133789c-6.3398438-2.0170898-13.1123047-3.0258789-20.3168945-3.0258789
		c-14.6972656,0-26.5849609,3.4580078-35.6625977,10.3745117c-9.078125,6.9160156-14.7695313,17.0029297-17.0751953,30.2592773
		l-45.8212891-9.9423828c4.8994141-24.2070313,16.1386719-43.1552734,33.7177734-56.8442383
		C127.9355469,157.3447266,149.5493164,150.5,175.1977539,150.5c13.8330078,0,26.7294922,2.3056641,38.6889648,6.9165039
		s22.3344727,10.8071289,31.1240234,18.5878906c8.7890625,7.78125,15.777832,16.9311523,20.965332,27.449707
		c5.1870117,10.5185547,7.7807617,21.6860352,7.7807617,33.5014648c0,11.2392578-2.5214844,22.262207-7.5644531,33.0688477
		c-5.043457,10.8071289-12.3203125,20.3891602-21.8300781,28.746582c-2.3056641,1.7290039-4.3950195,3.3129883-6.2685547,4.7543945
		c-1.8725586,1.4414063-3.8183594,2.59375-5.8354492,3.4589844l-14.2651367,9.0771484l-15.5615234,8.2138672l-14.265625,8.2128906
		c-6.9160156,4.0351563-13.0400391,8.2851563-18.371582,12.7519531s-10.230957,9.2949219-14.6977539,14.4824219
		c-4.4667969,5.1865234-8.6455078,10.9501953-12.5351563,17.2900391
		c-3.8911133,6.3398438-7.5654297,13.5449219-11.0234375,21.6142578h142.21875V445.3125H76.6386719z"/>
	<path fill-rule="evenodd" clip-rule="evenodd" d="M496.6953125,373.1230469V445.3125h-45.3886719v-72.1894531h-143.515625
		v-27.234375L451.3066406,155.6875h45.3886719v175.9365234h27.6660156v41.4990234H496.6953125z M451.3066406,222.6904297
		l-82.5654297,108.9335938h82.5654297V222.6904297z"/>
</g>
</svg>
