<?xml version="1.0" encoding="utf-8"?>
<!-- Generator: Adobe Illustrator 12.0.0, SVG Export Plug-In . SVG Version: 6.00 Build 51448)  -->
<!DOCTYPE svg PUBLIC "-//W3C//DTD SVG 1.1//EN" "http://www.w3.org/Graphics/SVG/1.1/DTD/svg11.dtd" [
	<!ENTITY ns_svg "http://www.w3.org/2000/svg">
	<!ENTITY ns_xlink "http://www.w3.org/1999/xlink">
]>
<svg  version="1.1" id="Layer_1" xmlns="&ns_svg;" xmlns:xlink="&ns_xlink;" width="751" height="601" viewBox="0 0 751 601"
	 overflow="visible" enable-background="new 0 0 751 601" xml:space="preserve">
<g>
	<g>
		<g>
			<path fill="#FFFFFF" d="M0.5,50.5c0-27.6142578,22.3852539-50,50-50h650c27.6142578,0,50,22.3857422,50,50v500
				c0,27.6152344-22.3857422,50-50,50h-650c-27.6147461,0-50-22.3847656-50-50V50.5L0.5,50.5z"/>
			<path fill="#FFFFFF" d="M375.5,300.5"/>
		</g>
		<g>
			<path fill="none" stroke="#000000" stroke-linecap="round" stroke-linejoin="round" stroke-miterlimit="3.863693" d="M0.5,50.5
				c0-27.6142578,22.3852539-50,50-50h650c27.6142578,0,50,22.3857422,50,50v500c0,27.6152344-22.3857422,50-50,50h-650
				c-27.6147461,0-50-22.3847656-50-50V50.5L0.5,50.5z"/>
			<path fill="none" stroke="#000000" stroke-linecap="round" stroke-linejoin="round" stroke-miterlimit="3.863693" d="
				M375.5,300.5"/>
		</g>
	</g>
	<g>
		<g>
			<path d="M10.5,50.5c0-22.0917969,17.9082031-40,40-40h650c22.0917969,0,40,17.9082031,40,40v500
				c0,22.0917969-17.9082031,40-40,40h-650c-22.0917969,0-40-17.9082031-40-40V50.5L10.5,50.5z"/>
			<path d="M375.5,300.5"/>
		</g>
	</g>
	<g>
		<g>
			<path fill="#FFFFFF" d="M25.5,50.5c0-13.8071289,11.1923828-25,25-25h650c13.8066406,0,25,11.1928711,25,25v500
				c0,13.8076172-11.1933594,25-25,25h-650c-13.8076172,0-25-11.1923828-25-25V50.5L25.5,50.5z"/>
			<path fill="#FFFFFF" d="M375.5,300.5"/>
		</g>
	</g>
</g>
<g>
	<path fill-rule="evenodd" clip-rule="evenodd" d="M110.8842773,445.3125V210.5864258H84.5151367v-36.7436523h3.0258789
		c6.0517578,0,12.1040039-1.5849609,18.1557617-4.7548828s11.0952148-7.637207,15.1293945-13.4003906h36.7441406v289.625
		H110.8842773z"/>
	<path fill-rule="evenodd" clip-rule="evenodd" d="M411.2148438,349.7792969
		c0,14.6972656-2.4492188,28.2421875-7.3476563,40.6347656c-4.8994141,12.3916016-11.7441406,22.9824219-20.5332031,31.7714844
		c-8.7900391,8.7900391-19.3085938,15.7060547-31.5566406,20.75C339.5292969,447.9785156,326.0571289,450.5,311.359375,450.5
		c-11.8154297,0-22.8383789-1.8730469-33.0688477-5.6191406c-10.230957-3.7470703-19.5966797-8.9335938-28.0981445-15.5625
		c-8.5014648-6.6279297-15.7783203-14.6972656-21.8300781-24.2070313S217.84375,384.9375,214.9619141,373.1230469
		l44.9570313-12.96875c3.4580078,14.1210938,9.7978516,24.9277344,19.0195313,32.4199219
		c9.222168,7.4941406,20.7495117,11.2402344,34.5825195,11.2402344c7.7807617,0,14.8413086-1.296875,21.1811523-3.890625
		c6.340332-2.59375,11.7441406-6.1240234,16.2109375-10.5908203c4.4667969-4.4677734,7.9970703-9.7978516,10.5908203-15.9941406
		c2.5932617-6.1962891,3.8901367-13.0400391,3.8901367-20.5332031s-1.440918-14.5537109-4.3227539-21.1816406
		s-6.9160156-11.8154297-12.1035156-15.5625c-1.7294922-1.1513672-3.2421875-2.0888672-4.5390625-2.8095703
		s-2.8818359-1.2246094-4.7548828-1.5126953c-1.8735352-0.2880859-4.3227539-0.5761719-7.3486328-0.8642578
		c-3.0263672-0.2890625-7.2768555-0.5761719-12.7524414-0.8652344h-5.1870117v-46.6855469v1.296875h1.296875h0.8642578h9.0776367
		c9.222168,0,16.2827148-2.4492188,21.1816406-7.3486328c4.8989258-4.8989258,7.3491211-11.9594727,7.3491211-21.1816406
		c0-11.2392578-3.9628906-20.5332031-11.8876953-27.8818359c-7.925293-7.3486328-17.7954102-11.0229492-29.6113281-11.0229492
		c-19.3081055,0-33.8613281,9.5097656-43.659668,28.5302734l-42.7954102-15.9941406
		c7.4926758-18.4438477,18.8037109-32.925293,33.9335938-43.4438477S292.3393555,150.5,311.359375,150.5
		c12.1040039,0,23.5595703,2.3056641,34.3662109,6.9165039s20.2451172,10.9511719,28.3139648,19.0200195
		c8.0698242,8.0693359,14.409668,17.5073242,19.0200195,28.3144531c4.6113281,10.8066406,6.9169922,22.2617188,6.9169922,34.3657227
		c0,8.6455078-1.1523438,16.4267578-3.4589844,23.3432617c-2.3046875,6.9165039-6.6279297,14.9853516-12.9677734,24.2075195
		c5.4755859,4.8989258,9.9423828,9.5820313,13.4003906,14.0493164c3.4580078,4.4658203,6.2685547,9.1484375,8.4296875,14.0488281
		c2.1611328,4.8984375,3.6748047,10.1582031,4.5390625,15.7773438
		C410.7832031,336.1630859,411.2148438,342.5742188,411.2148438,349.7792969z"/>
	<path fill-rule="evenodd" clip-rule="evenodd" d="M469.3662109,445.3125
		c0.5771484-17.0019531,2.7382813-32.5644531,6.484375-46.6855469c3.7470703-14.1210938,9.6542969-28.0976563,17.7236328-41.9316406
		c6.0517578-10.9511719,13.5449219-21.109375,22.4785156-30.4746094
		c8.9335938-9.3662109,18.4433594-17.7949219,28.5302734-25.2880859c2.5927734-1.440918,4.8984375-2.9541016,6.9160156-4.5390625
		s4.0341797-3.0981445,6.0517578-4.5390625l15.5625-8.2133789l14.2646484-8.2133789l13.8330078-7.7807617
		c5.7636719-3.7460938,10.4462891-8.4291992,14.0488281-14.0493164c3.6025391-5.6191406,5.4033203-11.4545898,5.4033203-17.5068359
		c0-5.4755859-1.4404297-10.5908203-4.3222656-15.3461914c-2.8818359-4.7543945-6.7001953-8.8613281-11.4560547-12.3193359
		c-4.7548828-3.4584961-10.3017578-6.1962891-16.6425781-8.2133789c-6.3398438-2.0170898-13.1123047-3.0258789-20.3164063-3.0258789
		c-14.6972656,0-26.5849609,3.4580078-35.6630859,10.3745117c-9.0771484,6.9160156-14.7695313,17.0029297-17.0751953,30.2592773
		l-45.8212891-9.9423828c4.8994141-24.2070313,16.1386719-43.1552734,33.7177734-56.8442383
		C520.6630859,157.3447266,542.2773438,150.5,567.9257813,150.5c13.8330078,0,26.7285156,2.3056641,38.6884766,6.9165039
		s22.3349609,10.8071289,31.1240234,18.5878906c8.7890625,7.78125,15.7783203,16.9311523,20.9648438,27.449707
		c5.1875,10.5185547,7.78125,21.6860352,7.78125,33.5014648c0,11.2392578-2.5214844,22.262207-7.5644531,33.0688477
		c-5.0429688,10.8071289-12.3203125,20.3891602-21.8300781,28.746582c-2.3056641,1.7290039-4.3945313,3.3139648-6.2675781,4.7543945
		c-1.8730469,1.4414063-3.8183594,2.59375-5.8359375,3.4589844l-14.265625,9.0771484l-15.5615234,8.2138672l-14.265625,8.2128906
		c-6.9160156,4.0351563-13.0400391,8.2851563-18.3710938,12.7519531
		c-5.3320313,4.4667969-10.2314453,9.2949219-14.6982422,14.4824219
		c-4.4667969,5.1865234-8.6445313,10.9501953-12.5351563,17.2900391s-7.5654297,13.5449219-11.0234375,21.6142578h142.21875
		V445.3125H469.3662109z"/>
</g>
</svg>
