<?xml version="1.0" encoding="utf-8"?>
<!-- Generator: Adobe Illustrator 12.0.0, SVG Export Plug-In . SVG Version: 6.00 Build 51448)  -->
<!DOCTYPE svg PUBLIC "-//W3C//DTD SVG 1.1//EN" "http://www.w3.org/Graphics/SVG/1.1/DTD/svg11.dtd" [
	<!ENTITY ns_svg "http://www.w3.org/2000/svg">
	<!ENTITY ns_xlink "http://www.w3.org/1999/xlink">
]>
<svg  version="1.1" id="Layer_1" xmlns="&ns_svg;" xmlns:xlink="&ns_xlink;" width="751" height="601" viewBox="0 0 751 601"
	 overflow="visible" enable-background="new 0 0 751 601" xml:space="preserve">
<g>
	<g>
		<g>
			<path fill="#FFFFFF" d="M0.5,50.5c0-27.6142578,22.3852539-50,50-50h650c27.6142578,0,50,22.3857422,50,50v500
				c0,27.6152344-22.3857422,50-50,50h-650c-27.6147461,0-50-22.3847656-50-50V50.5L0.5,50.5z"/>
			<path fill="#FFFFFF" d="M375.5,300.5"/>
		</g>
		<g>
			<path fill="none" stroke="#000000" stroke-linecap="round" stroke-linejoin="round" stroke-miterlimit="3.863693" d="M0.5,50.5
				c0-27.6142578,22.3852539-50,50-50h650c27.6142578,0,50,22.3857422,50,50v500c0,27.6152344-22.3857422,50-50,50h-650
				c-27.6147461,0-50-22.3847656-50-50V50.5L0.5,50.5z"/>
			<path fill="none" stroke="#000000" stroke-linecap="round" stroke-linejoin="round" stroke-miterlimit="3.863693" d="
				M375.5,300.5"/>
		</g>
	</g>
	<g>
		<g>
			<path d="M10.5,50.5c0-22.0917969,17.9082031-40,40-40h650c22.0917969,0,40,17.9082031,40,40v500
				c0,22.0917969-17.9082031,40-40,40h-650c-22.0917969,0-40-17.9082031-40-40V50.5L10.5,50.5z"/>
			<path d="M375.5,300.5"/>
		</g>
	</g>
	<g>
		<g>
			<path fill="#FFFFFF" d="M25.5,50.5c0-13.8071289,11.1923828-25,25-25h650c13.8066406,0,25,11.1928711,25,25v500
				c0,13.8076172-11.1933594,25-25,25h-650c-13.8076172,0-25-11.1923828-25-25V50.5L25.5,50.5z"/>
			<path fill="#FFFFFF" d="M375.5,300.5"/>
		</g>
	</g>
</g>
<g>
	<path fill-rule="evenodd" clip-rule="evenodd" d="M107.0253906,445.3125V210.5864258H80.65625v-36.7436523h3.0263672
		c6.0517578,0,12.1035156-1.5849609,18.1552734-4.7548828c6.0522461-3.1699219,11.0952148-7.637207,15.1298828-13.4003906
		h36.7436523v289.625H107.0253906z"/>
	<path fill-rule="evenodd" clip-rule="evenodd" d="M382.7167969,373.1230469V445.3125H337.328125v-72.1894531H193.8120117
		v-27.234375L337.328125,155.6875h45.3886719v175.9365234h27.6660156v41.4990234H382.7167969z M337.328125,222.6904297
		l-82.5649414,108.9335938h82.5649414V222.6904297z"/>
	<path fill-rule="evenodd" clip-rule="evenodd" d="M670.34375,361.8828125c0,12.3925781-2.5214844,23.9921875-7.5654297,34.7988281
		c-5.0429688,10.8066406-11.9599609,20.1728516-20.7490234,28.0976563
		c-8.7900391,7.9257813-19.2363281,14.1933594-31.3398438,18.8046875S585.6171875,450.5,571.7841797,450.5
		s-26.8017578-2.3769531-38.9052734-7.1328125c-12.1035156-4.7548828-22.5498047-11.3105469-31.3398438-19.6679688
		c-8.7890625-8.3574219-15.7060547-18.15625-20.7490234-29.3945313c-5.0439453-11.2402344-7.5654297-23.34375-7.5654297-36.3125
		c0-20.171875,2.6660156-40.2011719,7.9980469-60.0854492c5.3310547-19.8852539,12.8964844-38.9052734,22.6943359-57.0610352
		c9.7978516-18.1552734,21.5419922-34.9418945,35.2304688-50.3598633S568.0371094,161.7392578,584.7519531,150.5
		l23.34375,38.9047852c-8.9335938,6.9165039-16.7871094,13.6166992-23.5595703,20.1010742
		s-12.9677734,13.1845703-18.5878906,20.1010742c-5.6191406,6.9165039-10.7353516,14.1928711-15.3457031,21.8295898
		c-4.6103516,7.637207-9.0771484,16.0664063-13.4003906,25.2885742c8.3574219-1.440918,14.7695313-2.3056641,19.2363281-2.59375
		c4.4667969-0.2885742,9.5820313-0.4321289,15.3457031-0.4321289c13.2568359,0,25.8642578,2.3051758,37.8242188,6.9160156
		s22.4785156,10.8793945,31.5556641,18.8041992c9.078125,7.925293,16.2109375,17.2915039,21.3984375,28.0981445
		S670.34375,349.7792969,670.34375,361.8828125z M624.5214844,361.0195313c0-5.4765625-1.3691406-10.8076172-4.1064453-15.9951172
		c-2.7373047-5.1865234-6.4833984-9.6533203-11.2392578-13.4003906c-4.7548828-3.7470703-10.375-6.7724609-16.8583984-9.0771484
		c-6.484375-2.3066406-13.3291016-3.4589844-20.5332031-3.4589844s-13.9052734,1.1523438-20.1005859,3.4589844
		c-6.1962891,2.3046875-11.671875,5.3300781-16.4267578,9.0771484s-8.5009766,8.2138672-11.2392578,13.4003906
		c-2.7382813,5.1875-4.1064453,10.5185547-4.1064453,15.9951172c0,5.7636719,1.3681641,11.2382813,4.1064453,16.4257813
		s6.484375,9.7265625,11.2392578,13.6171875s10.2304688,6.9882813,16.4267578,9.2929688
		c6.1953125,2.3066406,12.8964844,3.4589844,20.1005859,3.4589844s13.9775391-1.1523438,20.3173828-3.4589844
		c6.3398438-2.3046875,11.8867188-5.4023438,16.6425781-9.2929688c4.7548828-3.890625,8.5732422-8.4296875,11.4550781-13.6171875
		S624.5224609,366.7832031,624.5214844,361.0195313z"/>
</g>
</svg>
