<?xml version="1.0" encoding="utf-8"?>
<!-- Generator: Adobe Illustrator 12.0.0, SVG Export Plug-In . SVG Version: 6.00 Build 51448)  -->
<!DOCTYPE svg PUBLIC "-//W3C//DTD SVG 1.1//EN" "http://www.w3.org/Graphics/SVG/1.1/DTD/svg11.dtd" [
	<!ENTITY ns_svg "http://www.w3.org/2000/svg">
	<!ENTITY ns_xlink "http://www.w3.org/1999/xlink">
]>
<svg  version="1.1" id="Layer_1" xmlns="&ns_svg;" xmlns:xlink="&ns_xlink;" width="601" height="601" viewBox="0 0 601 601"
	 overflow="visible" enable-background="new 0 0 601 601" xml:space="preserve">
<g>
	<g>
		<g>
			<path fill="#FFFFFF" d="M0.5,50.5c0-27.6142578,22.3852539-50,50-50h500c27.6142578,0,50,22.3857422,50,50v500
				c0,27.6152344-22.3857422,50-50,50h-500c-27.6147461,0-50-22.3847656-50-50V50.5L0.5,50.5z"/>
			<path fill="#FFFFFF" d="M300.5,300.5"/>
		</g>
		<g>
			<path fill="none" stroke="#000000" stroke-linecap="round" stroke-linejoin="round" stroke-miterlimit="3.863693" d="M0.5,50.5
				c0-27.6142578,22.3852539-50,50-50h500c27.6142578,0,50,22.3857422,50,50v500c0,27.6152344-22.3857422,50-50,50h-500
				c-27.6147461,0-50-22.3847656-50-50V50.5L0.5,50.5z"/>
			<path fill="none" stroke="#000000" stroke-linecap="round" stroke-linejoin="round" stroke-miterlimit="3.863693" d="
				M300.5,300.5"/>
		</g>
	</g>
	<g>
		<g>
			<path d="M10.5,50.5c0-22.0917969,17.9082031-40,40-40h500c22.0917969,0,40,17.9082031,40,40v500
				c0,22.0917969-17.9082031,40-40,40h-500c-22.0917969,0-40-17.9082031-40-40V50.5L10.5,50.5z"/>
			<path d="M300.5,300.5"/>
		</g>
	</g>
	<g>
		<g>
			<path fill="#FFFFFF" d="M25.5,50.5c0-13.8066406,11.1923828-25,25-25h500c13.8066406,0,25,11.1933594,25,25v500
				c0,13.8076172-11.1933594,25-25,25h-500c-13.8076172,0-25-11.1923828-25-25V50.5L25.5,50.5z"/>
			<path fill="#FFFFFF" d="M300.5,300.5"/>
		</g>
	</g>
</g>
<g>
	<path fill-rule="evenodd" clip-rule="evenodd" d="M257.9790039,361.8837891
		c0,12.3916016-2.5219727,23.9912109-7.5649414,34.7978516c-5.043457,10.8066406-11.9599609,20.1728516-20.7495117,28.0986328
		c-8.7895508,7.9248047-19.2363281,14.1923828-31.3398438,18.8037109C186.2211914,448.1943359,173.2524414,450.5,159.4194336,450.5
		c-13.8320313,0-26.8007813-2.3769531-38.9047852-7.1318359c-12.1035156-4.7558594-22.550293-11.3115234-31.3398438-19.6689453
		S73.46875,405.5439453,68.425293,394.3046875c-5.0429688-11.2392578-7.5649414-23.34375-7.5649414-36.3115234
		c0-20.1728516,2.6660156-40.2021484,7.9975586-60.0869141c5.3310547-19.8847656,12.8959961-38.9042969,22.6943359-57.0605469
		c9.7983398-18.1552734,21.5419922-34.9423828,35.2304688-50.3603516
		c13.6889648-15.4169922,28.890625-28.7460938,45.6054688-39.9853516l23.3427734,38.9052734
		c-8.9335938,6.9160156-16.7866211,13.6162109-23.5585938,20.1005859
		c-6.7729492,6.484375-12.96875,13.1845703-18.5883789,20.1005859
		c-5.6196289,6.9169922-10.7348633,14.1933594-15.3457031,21.8300781
		c-4.6113281,7.6367188-9.078125,16.0664063-13.4008789,25.2880859c8.3579102-1.4404297,14.7695313-2.3046875,19.2368164-2.59375
		c4.4663086-0.2880859,9.581543-0.4316406,15.3452148-0.4316406c13.2568359,0,25.8647461,2.3056641,37.824707,6.9160156
		c11.9594727,4.6113281,22.4780273,10.8789063,31.5561523,18.8046875
		c9.078125,7.9248047,16.2099609,17.2910156,21.3974609,28.0976563S257.9790039,349.7802734,257.9790039,361.8837891z
		 M212.1577148,361.0185547c0-5.4746094-1.3691406-10.8066406-4.1069336-15.9941406
		c-2.737793-5.1865234-6.4838867-9.6542969-11.2392578-13.4003906c-4.7548828-3.7460938-10.3745117-6.7724609-16.8583984-9.078125
		c-6.484375-2.3046875-13.3286133-3.4580078-20.5336914-3.4580078c-7.2045898,0-13.9047852,1.1533203-20.1000977,3.4580078
		c-6.1962891,2.3056641-11.671875,5.3320313-16.4272461,9.078125c-4.7548828,3.7460938-8.5009766,8.2138672-11.2392578,13.4003906
		c-2.7373047,5.1875-4.1064453,10.5195313-4.1064453,15.9941406c0,5.7636719,1.3691406,11.2392578,4.1064453,16.4267578
		c2.7382813,5.1875,6.484375,9.7265625,11.2392578,13.6162109c4.7553711,3.8916016,10.230957,6.9892578,16.4272461,9.2949219
		c6.1953125,2.3046875,12.8955078,3.4580078,20.1000977,3.4580078c7.2050781,0,13.9770508-1.1533203,20.3173828-3.4580078
		c6.3398438-2.3056641,11.8876953-5.4033203,16.6425781-9.2949219c4.7548828-3.8896484,8.5737305-8.4287109,11.4550781-13.6162109
		C210.7163086,372.2578125,212.1577148,366.7822266,212.1577148,361.0185547z"/>
	<path fill-rule="evenodd" clip-rule="evenodd" d="M491.2929688,445.3125l-28.53125-81.2675781h-90.3457031L343.8857422,445.3125
		h-48.8476563l99.8564453-289.625h45.3886719l99.8554688,289.625H491.2929688z M418.2373047,236.0908203l-29.8271484,81.2685547
		h57.9248047L418.2373047,236.0908203z"/>
</g>
</svg>
