<?xml version="1.0" encoding="utf-8"?>
<!-- Generator: Adobe Illustrator 12.0.0, SVG Export Plug-In . SVG Version: 6.00 Build 51448)  -->
<!DOCTYPE svg PUBLIC "-//W3C//DTD SVG 1.1//EN" "http://www.w3.org/Graphics/SVG/1.1/DTD/svg11.dtd" [
	<!ENTITY ns_svg "http://www.w3.org/2000/svg">
	<!ENTITY ns_xlink "http://www.w3.org/1999/xlink">
]>
<svg  version="1.1" id="Layer_1" xmlns="&ns_svg;" xmlns:xlink="&ns_xlink;" width="601" height="601" viewBox="0 0 601 601"
	 overflow="visible" enable-background="new 0 0 601 601" xml:space="preserve">
<g>
	<g>
		<g>
			<path fill="#FFFFFF" d="M0.5,50.5c0-27.6142578,22.3852539-50,50-50h500c27.6142578,0,50,22.3857422,50,50v500
				c0,27.6152344-22.3857422,50-50,50h-500c-27.6147461,0-50-22.3847656-50-50V50.5L0.5,50.5z"/>
			<path fill="#FFFFFF" d="M300.5,300.5"/>
		</g>
		<g>
			<path fill="none" stroke="#000000" stroke-linecap="round" stroke-linejoin="round" stroke-miterlimit="3.863693" d="M0.5,50.5
				c0-27.6142578,22.3852539-50,50-50h500c27.6142578,0,50,22.3857422,50,50v500c0,27.6152344-22.3857422,50-50,50h-500
				c-27.6147461,0-50-22.3847656-50-50V50.5L0.5,50.5z"/>
			<path fill="none" stroke="#000000" stroke-linecap="round" stroke-linejoin="round" stroke-miterlimit="3.863693" d="
				M300.5,300.5"/>
		</g>
	</g>
	<g>
		<g>
			<path d="M10.5,50.5c0-22.0913086,17.9082031-40,40-40h500c22.0917969,0,40,17.9086914,40,40v500
				c0,22.0917969-17.9082031,40-40,40h-500c-22.0917969,0-40-17.9082031-40-40V50.5L10.5,50.5z"/>
			<path d="M300.5,300.5"/>
		</g>
	</g>
	<g>
		<g>
			<path fill="#FFFFFF" d="M25.5,50.5c0-13.8071289,11.1923828-25,25-25h500c13.8066406,0,25,11.1928711,25,25v500
				c0,13.8076172-11.1933594,25-25,25h-500c-13.8076172,0-25-11.1923828-25-25V50.5L25.5,50.5z"/>
			<path fill="#FFFFFF" d="M300.5,300.5"/>
		</g>
	</g>
</g>
<path fill-rule="evenodd" clip-rule="evenodd" d="M399.0585938,243.0073242c0,19.8842773-2.6660156,39.6972656-7.9960938,59.4379883
	c-5.3320313,19.7402344-12.8964844,38.6884766-22.6953125,56.8447266
	c-9.7988281,18.1552734-21.6132813,35.0146484-35.4472656,50.5751953
	c-13.8320313,15.5625-29.1054688,29.1074219-45.8208008,40.6347656l-22.0458984-38.9042969
	c8.6455078-6.9169922,16.3544922-13.6171875,23.1264648-20.1015625c6.7724609-6.484375,12.8964844-13.1835938,18.3720703-20.1005859
	s10.5185547-14.2646484,15.1298828-22.0458984s9.078125-16.4267578,13.4003906-25.9365234
	c-8.3574219,1.4404297-14.7695313,2.4492188-19.2363281,3.0263672c-4.4667969,0.5751953-9.5820313,0.8632813-15.3457031,0.8632813
	c-13.5449219,0-26.296875-2.3046875-38.2568359-6.9160156c-11.9594727-4.6113281-22.40625-10.8789063-31.3398438-18.8037109
	c-8.9335938-7.925293-15.9941406-17.2910156-21.1816406-28.0981445s-7.7807617-22.262207-7.7807617-34.3662109
	c0-12.3916016,2.5932617-23.9912109,7.7807617-34.7978516c5.1875-10.8071289,12.1757813-20.1728516,20.965332-28.0981445
	s19.1645508-14.1928711,31.1240234-18.8041992C273.7705078,152.8056641,286.6669922,150.5,300.5,150.5
	c13.8320313,0,26.8007813,2.3779297,38.9042969,7.1328125s22.5507813,11.2392578,31.3408203,19.4516602
	c8.7890625,8.2138672,15.7060547,17.9404297,20.7490234,29.1791992
	C396.5371094,217.5029297,399.0585938,229.7509766,399.0585938,243.0073242z M353.2382813,239.1166992
	c0-5.4750977-1.4414063-10.8066406-4.3222656-15.9941406c-2.8828125-5.1870117-6.7011719-9.6542969-11.4570313-13.4003906
	c-4.7539063-3.746582-10.3027344-6.7724609-16.6416016-9.0776367c-6.3398438-2.3056641-13.1123047-3.4584961-20.3173828-3.4584961
	c-7.2045898,0-13.9052734,1.0805664-20.1010742,3.2416992c-6.1958008,2.1616211-11.6713867,5.1157227-16.4267578,8.8623047
	c-4.7548828,3.7456055-8.5009766,8.2128906-11.2387695,13.4003906s-4.1069336,10.6621094-4.1069336,16.4262695
	c0,5.7636719,1.3691406,11.1674805,4.1069336,16.2104492c2.737793,5.043457,6.4838867,9.4384766,11.2387695,13.1845703
	c4.7553711,3.746582,10.230957,6.7001953,16.4267578,8.8618164c6.1958008,2.1611328,12.8964844,3.2421875,20.1010742,3.2421875
	c7.2050781,0,14.0488281-1.0810547,20.5332031-3.2421875c6.484375-2.1616211,12.1035156-5.1152344,16.8583984-8.8618164
	c4.7558594-3.7460938,8.5009766-8.1411133,11.2392578-13.1845703
	C351.8691406,250.2841797,353.2373047,244.8803711,353.2382813,239.1166992z"/>
</svg>
