<?xml version="1.0" encoding="utf-8"?>
<!-- Generator: Adobe Illustrator 12.0.0, SVG Export Plug-In . SVG Version: 6.00 Build 51448)  -->
<!DOCTYPE svg PUBLIC "-//W3C//DTD SVG 1.1//EN" "http://www.w3.org/Graphics/SVG/1.1/DTD/svg11.dtd" [
	<!ENTITY ns_svg "http://www.w3.org/2000/svg">
	<!ENTITY ns_xlink "http://www.w3.org/1999/xlink">
]>
<svg  version="1.1" id="Layer_1" xmlns="&ns_svg;" xmlns:xlink="&ns_xlink;" width="751" height="601" viewBox="0 0 751 601"
	 overflow="visible" enable-background="new 0 0 751 601" xml:space="preserve">
<g>
	<g>
		<g>
			<path fill="#FFFFFF" d="M0.5,50.5c0-27.6142578,22.3852539-50,50-50h650c27.6142578,0,50,22.3857422,50,50v500
				c0,27.6152344-22.3857422,50-50,50h-650c-27.6147461,0-50-22.3847656-50-50V50.5L0.5,50.5z"/>
			<path fill="#FFFFFF" d="M375.5,300.5"/>
		</g>
		<g>
			<path fill="none" stroke="#000000" stroke-linecap="round" stroke-linejoin="round" stroke-miterlimit="3.863693" d="M0.5,50.5
				c0-27.6142578,22.3852539-50,50-50h650c27.6142578,0,50,22.3857422,50,50v500c0,27.6152344-22.3857422,50-50,50h-650
				c-27.6147461,0-50-22.3847656-50-50V50.5L0.5,50.5z"/>
			<path fill="none" stroke="#000000" stroke-linecap="round" stroke-linejoin="round" stroke-miterlimit="3.863693" d="
				M375.5,300.5"/>
		</g>
	</g>
	<g>
		<g>
			<path d="M10.5,50.5c0-22.0913086,17.9082031-40,40-40h650c22.0917969,0,40,17.9086914,40,40v500
				c0,22.0917969-17.9082031,40-40,40h-650c-22.0917969,0-40-17.9082031-40-40V50.5L10.5,50.5z"/>
			<path d="M375.5,300.5"/>
		</g>
	</g>
	<g>
		<g>
			<path fill="#FFFFFF" d="M25.5,50.5c0-13.8071289,11.1923828-25,25-25h650c13.8066406,0,25,11.1928711,25,25v500
				c0,13.8076172-11.1933594,25-25,25h-650c-13.8076172,0-25-11.1923828-25-25V50.5L25.5,50.5z"/>
			<path fill="#FFFFFF" d="M375.5,300.5"/>
		</g>
	</g>
</g>
<g>
	<path fill-rule="evenodd" clip-rule="evenodd" d="M108.6777344,445.3125V210.5864258H82.3085938v-36.7436523h3.0263672
		c6.0517578,0,12.1035156-1.5844727,18.1552734-4.7548828c6.0522461-3.1699219,11.0952148-7.637207,15.1298828-13.4003906
		h36.7436523v289.625H108.6777344z"/>
	<path fill-rule="evenodd" clip-rule="evenodd" d="M217.9428711,445.3125
		c0.5761719-17.0019531,2.737793-32.5644531,6.484375-46.6855469c3.7460938-14.1210938,9.6538086-28.0976563,17.7231445-41.9316406
		c6.0517578-10.9511719,13.5449219-21.109375,22.4780273-30.4746094
		c8.934082-9.3662109,18.4438477-17.7949219,28.5307617-25.2880859c2.5932617-1.440918,4.8989258-2.9541016,6.9160156-4.5390625
		c2.0175781-1.5849609,4.034668-3.0981445,6.0517578-4.5390625l15.5620117-8.2133789l14.2651367-8.2133789l13.8330078-7.78125
		c5.7636719-3.7456055,10.4467773-8.4287109,14.0488281-14.0488281c3.6025391-5.6191406,5.4038086-11.4545898,5.4038086-17.5068359
		c0-5.4755859-1.440918-10.5908203-4.3227539-15.3461914c-2.8818359-4.7543945-6.7006836-8.8613281-11.4555664-12.3193359
		s-10.3022461-6.1958008-16.6425781-8.2133789c-6.3398438-2.0170898-13.1123047-3.0258789-20.3168945-3.0258789
		c-14.6977539,0-26.5849609,3.4580078-35.6630859,10.3745117c-9.0776367,6.9160156-14.7695313,17.0029297-17.074707,30.2592773
		l-45.8212891-9.9423828c4.8994141-24.2070313,16.1381836-43.1552734,33.7172852-56.8442383
		C269.2397461,157.3447266,290.8535156,150.5,316.5019531,150.5c13.8325195,0,26.7294922,2.3056641,38.6884766,6.9165039
		c11.9599609,4.6108398,22.3349609,10.8071289,31.1240234,18.5878906c8.7890625,7.78125,15.7783203,16.9311523,20.9648438,27.449707
		c5.1875,10.5185547,7.78125,21.6860352,7.78125,33.5014648c0,11.2392578-2.5214844,22.262207-7.5644531,33.0688477
		c-5.0429688,10.8071289-12.3203125,20.3891602-21.8300781,28.746582c-2.3056641,1.7290039-4.3945313,3.3129883-6.2675781,4.7543945
		s-3.8183594,2.59375-5.8359375,3.4589844l-14.2651367,9.0771484l-15.5620117,8.2138672l-14.2651367,8.2128906
		c-6.9165039,4.0351563-13.0405273,8.2851563-18.3720703,12.7519531
		c-5.3310547,4.4667969-10.2304688,9.2949219-14.6967773,14.4824219
		c-4.4672852,5.1865234-8.6459961,10.9501953-12.5361328,17.2900391
		c-3.890625,6.3398438-7.5649414,13.5449219-11.0229492,21.6142578h142.2182617V445.3125H217.9428711z"/>
	<path fill-rule="evenodd" clip-rule="evenodd" d="M668.6914063,338.5410156
		c0,16.1376953-3.0986328,30.9794922-9.2949219,44.5234375c-6.1953125,13.5449219-14.9130859,25.3613281-26.1523438,35.4472656
		s-24.5673828,17.9394531-39.9853516,23.5585938C577.8408203,447.6904297,560.9101563,450.5,542.4667969,450.5
		c-12.6806641,0-25.1445313-1.4414063-37.3925781-4.3222656c-12.2480469-2.8828125-23.4150391-6.9169922-33.5019531-12.1035156
		l22.4785156-40.6347656c6.0527344,3.1699219,13.9775391,5.6914063,23.7753906,7.5644531
		c9.7988281,1.8730469,20.0292969,2.8105469,30.6914063,2.8105469c10.375,0,20.1015625-1.6572266,29.1796875-4.9716797
		c9.0771484-3.3134766,17.0019531-7.8525391,23.7753906-13.6162109c6.7714844-5.7636719,12.03125-12.6083984,15.7773438-20.5332031
		c3.7460938-7.9257813,5.6191406-16.6425781,5.6191406-26.1523438c0-7.2050781-1.3681641-13.8339844-4.1054688-19.8847656
		c-2.7382813-6.0527344-6.484375-11.3837891-11.2402344-15.9941406
		c-4.7548828-4.6113281-10.2304688-8.2138672-16.4257813-10.8076172c-6.1962891-2.59375-12.8964844-3.890625-20.1015625-3.890625
		c-5.1875,0-9.7265625,0.4326172-13.6162109,1.296875c-3.890625,0.8647461-7.5644531,2.449707-11.0234375,4.7553711
		c-3.4580078,2.3056641-6.9160156,5.4033203-10.3740234,9.2944336c-3.4589844,3.890625-7.3496094,8.8613281-11.671875,14.9130859
		l-45.8212891-12.9677734L485.8378906,155.6875h166.4267578v45.8212891H530.3623047l-3.0263672,47.550293
		c10.6640625-3.1699219,19.0205078-5.3310547,25.0722656-6.484375c6.0527344-1.1523438,12.6806641-1.7285156,19.8847656-1.7285156
		c13.2568359,0,25.7207031,2.5932617,37.3925781,7.7807617c11.6708984,5.1875,21.9023438,12.2480469,30.6914063,21.1816406
		s15.7060547,19.3081055,20.7490234,31.1240234C666.1699219,312.7480469,668.6914063,325.2841797,668.6914063,338.5410156z"/>
</g>
</svg>
