<?xml version="1.0" encoding="UTF-8" standalone="no"?>
<!-- Created with Inkscape (http://www.inkscape.org/) -->
<svg
   xmlns:svg="http://www.w3.org/2000/svg"
   xmlns="http://www.w3.org/2000/svg"
   version="1.0"
   width="500"
   height="500"
   id="svg1489">
  <defs
     id="defs1492" />
  <rect
     width="500"
     height="500"
     rx="29.017742"
     ry="29.017742"
     x="0"
     y="0"
     style="color:#000000;fill:#000000;fill-opacity:1;fill-rule:nonzero;stroke:none;stroke-width:5.17299986;stroke-linecap:round;stroke-linejoin:miter;marker:none;marker-start:none;marker-mid:none;marker-end:none;stroke-miterlimit:4;stroke-dasharray:none;stroke-dashoffset:0;stroke-opacity:1;visibility:visible;display:inline;overflow:visible"
     id="blank" />
  <path
     d="M 250.00001,495 L 5,250.00001 L 249.99999,5 L 495,249.99999 L 250.00001,495 z "
     style="color:#000000;fill:#ffffff;fill-opacity:1;fill-rule:nonzero;stroke:none;stroke-width:5.17299986;stroke-linecap:round;stroke-linejoin:miter;marker:none;marker-start:none;marker-mid:none;marker-end:none;stroke-miterlimit:4;stroke-dasharray:none;stroke-dashoffset:0;stroke-opacity:1;visibility:visible;display:inline;overflow:visible"
     id="diamond" />
  <path
     d="M 197.17794,136.94239 C 197.6474,137.02651 204.32206,136.94239 204.32206,136.94239 L 204.32206,95.875 L 197.17794,95.875 L 197.17794,78.000001 L 223.13861,78.000001 C 223.13861,78.000001 249.75097,105 249.75097,105 L 276.95938,78.000001 L 302.82206,78.000001 C 302.82206,78.000001 302.82206,95.875 302.82206,95.875 C 302.82206,95.875 295.93302,95.875 295.93302,95.875 C 295.93302,95.875 295.93302,136.94239 295.93302,136.94239 C 295.93302,136.94239 302.82206,136.94239 302.82206,136.94239 L 302.82206,154 L 270.30018,154 C 270.30018,154 270.30018,136.94239 270.30018,136.94239 L 276.95938,136.94239 C 276.95938,136.94239 276.95938,107.66076 276.95938,107.66076 L 249.75097,133.40127 C 249.75097,133.40127 223.13861,107.01389 223.13861,107.01389 C 223.13861,107.01389 223.13861,136.94239 223.13861,136.94239 C 223.13861,136.94239 230.40622,136.94239 230.40622,136.94239 C 230.40622,136.94239 230.35634,154 229.93887,154 L 197.17794,154 C 197.17794,154 197.17794,136.94239 197.17794,136.94239 z "
     style="fill:#000000"
     id="M" />
  <g
     id="g1459">
    <path
       d="M 231.89313,307.35999 C 231.893,314.24003 230.453,320.72003 227.57313,326.79999 C 224.85301,332.72001 221.01301,337.92001 216.05313,342.39999 C 211.25302,346.72 205.49303,350.16 198.77313,352.71999 C 192.05304,355.27999 184.85305,356.55999 177.17313,356.55999 C 169.49307,356.55999 162.29307,355.27999 155.57313,352.71999 C 148.85309,350 143.01309,346.32 138.05313,341.67999 C 133.2531,337.04001 129.41311,331.60001 126.53313,325.35999 C 123.81311,319.12003 122.45311,312.40003 122.45313,305.19999 C 122.45311,294.00005 123.89311,282.88006 126.77313,271.83999 C 129.81311,260.80009 134.0531,250.2401 139.49313,240.15999 C 144.93309,230.08012 151.41308,220.80013 158.93313,212.31999 C 166.61307,203.68014 175.09306,196.24015 184.37313,189.99999 L 197.33313,211.59999 C 192.37304,215.44013 187.97305,219.20013 184.13313,222.87999 C 180.45305,226.40012 177.01306,230.08012 173.81313,233.91999 C 170.77306,237.76011 167.97307,241.8401 165.41313,246.15999 C 162.85307,250.3201 160.37307,254.96009 157.97313,260.07999 C 162.61307,259.28009 166.13307,258.80009 168.53313,258.63999 C 171.09306,258.48009 173.97306,258.40009 177.17313,258.39999 C 184.53305,258.40009 191.49304,259.68009 198.05313,262.23999 C 204.77303,264.80008 210.61302,268.32008 215.57313,272.79999 C 220.69301,277.12007 224.69301,282.32006 227.57313,288.39999 C 230.453,294.32005 231.893,300.64005 231.89313,307.35999 M 206.45313,306.87999 C 206.45303,303.84004 205.65303,300.88005 204.05313,297.99999 C 202.61303,295.12005 200.53303,292.64005 197.81313,290.55999 C 195.25304,288.48006 192.13304,286.80006 188.45313,285.51999 C 184.93305,284.24006 181.17305,283.60006 177.17313,283.59999 C 173.17306,283.60006 169.41307,284.24006 165.89313,285.51999 C 162.53307,286.80006 159.49308,288.48006 156.77313,290.55999 C 154.21308,292.64005 152.13308,295.12005 150.53313,297.99999 C 149.09309,300.88005 148.37309,303.84004 148.37313,306.87999 C 148.37309,310.08004 149.09309,313.12003 150.53313,315.99999 C 152.13308,318.88003 154.21308,321.44002 156.77313,323.67999 C 159.49308,325.76002 162.53307,327.44002 165.89313,328.71999 C 169.41307,330.00002 173.17306,330.64002 177.17313,330.63999 C 181.17305,330.64002 184.93305,330.00002 188.45313,328.71999 C 191.97304,327.44002 195.01304,325.76002 197.57313,323.67999 C 200.29303,321.44002 202.45303,318.88003 204.05313,315.99999 C 205.65303,313.12003 206.45303,310.08004 206.45313,306.87999 M 377.54688,273.51999 C 377.54675,286.32006 376.02675,298.56005 372.98688,310.23999 C 369.94676,321.92002 365.62676,331.36001 360.02688,338.55999 C 351.06678,350.56 338.10679,356.55999 321.14688,356.55999 C 309.78682,356.55999 300.42683,354.23999 293.06688,349.59999 C 285.70684,344.96 279.62685,337.68001 274.82688,327.75999 C 271.46685,320.88003 268.74686,312.56003 266.66688,302.79999 C 264.58686,292.88005 263.54686,283.12006 263.54688,273.51999 C 263.54686,260.24009 265.06686,247.9201 268.10688,236.55999 C 271.30686,225.20012 275.62685,215.68013 281.06688,207.99999 C 285.86684,201.92014 291.54683,197.44015 298.10688,194.55999 C 304.82682,191.52015 312.82681,190.00016 322.10688,189.99999 C 332.34679,190.00016 341.06679,192.32015 348.26688,196.95999 C 355.46677,201.60014 361.62676,208.88014 366.74688,218.79999 C 370.10676,226.00012 372.74675,234.40011 374.66688,243.99999 C 376.58675,253.60009 377.54675,263.44008 377.54688,273.51999 M 352.10688,273.51999 C 352.10677,264.40008 351.30678,256.00009 349.70688,248.31999 C 348.10678,240.48011 345.70678,233.84011 342.50688,228.39999 C 339.94679,224.24012 336.98679,221.20013 333.62688,219.27999 C 330.4268,217.36013 326.4268,216.24013 321.62688,215.91999 C 315.38681,215.60013 310.18682,217.04013 306.02688,220.23999 C 301.86682,223.44012 298.42683,228.64012 295.70688,235.83999 C 293.62683,240.64011 292.02683,246.4801 290.90688,253.35999 C 289.94684,260.08009 289.46684,266.80008 289.46688,273.51999 C 289.46684,282.16006 290.26684,290.48006 291.86688,298.47999 C 293.46683,306.48004 295.86683,313.04003 299.06688,318.15999 C 301.62682,322.32002 304.66682,325.44002 308.18688,327.51999 C 311.70681,329.60002 316.02681,330.64002 321.14688,330.63999 C 327.0668,330.64002 331.94679,329.04002 335.78688,325.83999 C 339.78679,322.64002 343.14678,317.44003 345.86688,310.23999 C 346.66678,308.16004 347.46678,305.68004 348.26688,302.79999 C 349.06678,299.76005 349.70678,296.64005 350.18688,293.43999 C 350.82678,290.08006 351.30678,286.72006 351.62688,283.35999 C 351.94677,280.00007 352.10677,276.72007 352.10688,273.51999"
       style="font-size:240px;font-style:normal;font-variant:normal;font-weight:normal;font-stretch:normal;text-align:center;line-height:100%;writing-mode:lr-tb;text-anchor:middle;fill-opacity:1;fill-rule:evenodd;stroke:none;font-family:Roadgeek 2005 Series D"
       id="number" />
  </g>
</svg>
