<?xml version="1.0" encoding="UTF-8" standalone="no"?>
<!-- Created with Inkscape (http://www.inkscape.org/) -->
<svg
   xmlns:svg="http://www.w3.org/2000/svg"
   xmlns="http://www.w3.org/2000/svg"
   version="1.0"
   width="500"
   height="500"
   id="svg1489">
  <defs
     id="defs1492" />
  <rect
     width="500"
     height="500"
     rx="29.017742"
     ry="29.017742"
     x="0"
     y="0"
     style="color:#000000;fill:#000000;fill-opacity:1;fill-rule:nonzero;stroke:none;stroke-width:5.17299986;stroke-linecap:round;stroke-linejoin:miter;marker:none;marker-start:none;marker-mid:none;marker-end:none;stroke-miterlimit:4;stroke-dasharray:none;stroke-dashoffset:0;stroke-opacity:1;visibility:visible;display:inline;overflow:visible"
     id="blank" />
  <path
     d="M 250.00001,495 L 5,250.00001 L 249.99999,5 L 495,249.99999 L 250.00001,495 z "
     style="color:#000000;fill:#ffffff;fill-opacity:1;fill-rule:nonzero;stroke:none;stroke-width:5.17299986;stroke-linecap:round;stroke-linejoin:miter;marker:none;marker-start:none;marker-mid:none;marker-end:none;stroke-miterlimit:4;stroke-dasharray:none;stroke-dashoffset:0;stroke-opacity:1;visibility:visible;display:inline;overflow:visible"
     id="diamond" />
  <path
     d="M 197.17794,136.94239 C 197.6474,137.02651 204.32206,136.94239 204.32206,136.94239 L 204.32206,95.875 L 197.17794,95.875 L 197.17794,78.000001 L 223.13861,78.000001 C 223.13861,78.000001 249.75097,105 249.75097,105 L 276.95938,78.000001 L 302.82206,78.000001 C 302.82206,78.000001 302.82206,95.875 302.82206,95.875 C 302.82206,95.875 295.93302,95.875 295.93302,95.875 C 295.93302,95.875 295.93302,136.94239 295.93302,136.94239 C 295.93302,136.94239 302.82206,136.94239 302.82206,136.94239 L 302.82206,154 L 270.30018,154 C 270.30018,154 270.30018,136.94239 270.30018,136.94239 L 276.95938,136.94239 C 276.95938,136.94239 276.95938,107.66076 276.95938,107.66076 L 249.75097,133.40127 C 249.75097,133.40127 223.13861,107.01389 223.13861,107.01389 C 223.13861,107.01389 223.13861,136.94239 223.13861,136.94239 C 223.13861,136.94239 230.40622,136.94239 230.40622,136.94239 C 230.40622,136.94239 230.35634,154 229.93887,154 L 197.17794,154 C 197.17794,154 197.17794,136.94239 197.17794,136.94239 z "
     style="fill:#000000"
     id="M" />
  <g
     id="g1459">
    <path
       d="M 172.48375,353.67999 L 172.48375,223.35999 L 157.84375,223.35999 L 157.84375,202.95999 L 159.52375,202.95999 C 162.88373,202.96014 166.24373,202.08014 169.60375,200.31999 C 172.96372,198.56015 175.76372,196.08015 178.00375,192.87999 L 198.40375,192.87999 L 198.40375,353.67999 L 172.48375,353.67999 M 342.7525,294.39999 C 342.75238,303.36004 340.99238,311.60003 337.4725,319.11999 C 334.11239,326.64002 329.31239,333.20001 323.0725,338.79999 C 316.8324,344.4 309.39241,348.8 300.7525,351.99999 C 292.27243,355.03999 282.91244,356.55999 272.6725,356.55999 C 265.63246,356.55999 258.67246,355.75999 251.7925,354.15999 C 245.07248,352.55999 238.91248,350.32 233.3125,347.43999 L 245.7925,324.87999 C 249.15247,326.64002 253.55247,328.08002 258.9925,329.19999 C 264.43246,330.16002 270.11245,330.64002 276.0325,330.63999 C 281.79244,330.64002 287.15243,329.76002 292.1125,327.99999 C 297.23242,326.08002 301.63242,323.52002 305.3125,320.31999 C 309.15241,317.12003 312.11241,313.36003 314.1925,309.03999 C 316.2724,304.56004 317.3124,299.68005 317.3125,294.39999 C 317.3124,290.40006 316.5124,286.72006 314.9125,283.35999 C 313.47241,280.00007 311.39241,277.04007 308.6725,274.47999 C 306.11242,271.92007 303.07242,269.92008 299.5525,268.47999 C 296.19242,267.04008 292.51243,266.32008 288.5125,266.31999 C 285.63244,266.32008 283.07244,266.56008 280.8325,267.03999 C 278.75244,267.52008 276.75244,268.40008 274.8325,269.67999 C 272.91245,270.96008 270.99245,272.72007 269.0725,274.95999 C 267.15245,277.04007 264.99246,279.76007 262.5925,283.11999 L 237.1525,275.91999 L 241.2325,192.87999 L 333.6325,192.87999 L 333.6325,218.31999 L 265.9525,218.31999 L 264.2725,244.71999 C 270.19245,242.9601 274.83245,241.7601 278.1925,241.11999 C 281.55244,240.48011 285.23244,240.16011 289.2325,240.15999 C 296.59242,240.16011 303.47242,241.6001 309.8725,244.47999 C 316.4324,247.3601 322.1124,251.2801 326.9125,256.23999 C 331.87239,261.20009 335.71239,266.96008 338.4325,273.51999 C 341.31238,280.08007 342.75238,287.04006 342.7525,294.39999"
       style="font-size:240px;font-style:normal;font-variant:normal;font-weight:normal;font-stretch:normal;text-align:center;line-height:100%;writing-mode:lr-tb;text-anchor:middle;fill-opacity:1;fill-rule:evenodd;stroke:none;font-family:Roadgeek 2005 Series D"
       id="number" />
  </g>
</svg>
