<?xml version="1.0" encoding="UTF-8" standalone="no"?>
<!-- Created with Inkscape (http://www.inkscape.org/) -->

<svg
   xmlns:dc="http://purl.org/dc/elements/1.1/"
   xmlns:cc="http://creativecommons.org/ns#"
   xmlns:rdf="http://www.w3.org/1999/02/22-rdf-syntax-ns#"
   xmlns:svg="http://www.w3.org/2000/svg"
   xmlns="http://www.w3.org/2000/svg"
   xmlns:sodipodi="http://sodipodi.sourceforge.net/DTD/sodipodi-0.dtd"
   xmlns:inkscape="http://www.inkscape.org/namespaces/inkscape"
   version="1.1"
   width="750"
   height="600"
   id="svg3487"
   inkscape:version="0.48.5 r10040"
   sodipodi:docname="MN-200 wide.svg">
  <sodipodi:namedview
     pagecolor="#ffffff"
     bordercolor="#666666"
     borderopacity="1"
     objecttolerance="10"
     gridtolerance="10"
     guidetolerance="10"
     inkscape:pageopacity="0"
     inkscape:pageshadow="2"
     inkscape:window-width="990"
     inkscape:window-height="662"
     id="namedview22"
     showgrid="false"
     inkscape:zoom="0.75188021"
     inkscape:cx="375"
     inkscape:cy="300"
     inkscape:window-x="640"
     inkscape:window-y="188"
     inkscape:window-maximized="0"
     inkscape:current-layer="svg3487" />
  <defs
     id="defs3489">
    <clipPath
       id="clipPath422">
      <path
         d="m 445.75,360.169 93.6,0 0,-72 -93.6,0"
         id="path424" />
    </clipPath>
  </defs>
  <metadata
     id="metadata3492">
    <rdf:RDF>
      <cc:Work
         rdf:about="">
        <dc:format>image/svg+xml</dc:format>
        <dc:type
           rdf:resource="http://purl.org/dc/dcmitype/StillImage" />
        <dc:title></dc:title>
      </cc:Work>
    </rdf:RDF>
  </metadata>
  <rect
     width="750"
     height="600"
     rx="37.5"
     ry="37.5"
     x="0"
     y="0"
     id="rect3525"
     style="fill:#fecb00;fill-opacity:1;stroke:none" />
  <path
     d="m 12.500001,20.275125 0.596595,2.392347 0,1.196174 0.598246,2.392347 0,1.196164 0,2.990434 -0.598246,2.392347 0.598246,4.784684 -0.598246,0.598087 0.598246,2.990434 1.194015,4.784684 0.598246,1.196174 0.596594,4.186608 0.598246,1.79426 0,6.578945 0,3.588511 0.596595,1.79426 0,1.79426 0,4.186608 0.59742,1.79425 0.598246,2.392347 1.194006,2.990434 0.598255,2.392348 0.596585,0.598076 0,2.990434 -0.596585,2.392347 0,1.196174 -1.195666,1.79426 0,0.598077 -0.596595,0.598087 -1.792261,1.196174 0,0.598086 0,0.598087 0,0.598087 1.194015,1.79426 0.598246,1.196174 1.194006,0.598087 1.19484,0.598087 0,0.598086 0.597421,0.598082 0,1.794263 0,36.48325 79.456869,0 0,-1.19617 0,-4.78469 -0.59658,-0.59808 -0.598259,-0.59809 -1.194,-2.39235 -0.59826,-0.59809 -0.59658,0 -1.7931,-1.19617 -1.194841,-0.59808 -2.389681,-1.79426 -0.596585,-1.19617 -0.598256,-1.19617 -0.596585,-0.59809 -0.598246,-1.19617 -1.194015,0 -0.598246,-0.59809 -1.792261,-1.19617 -0.596595,-0.59809 -1.195666,-1.19616 -0.59742,0 -0.596595,-0.59809 -0.598246,0 -0.59742,0 -0.596595,0 -0.598246,-0.59809 -1.194841,-0.59808 -1.792261,-1.79427 -0.596594,-0.59808 0,-0.59809 0,-0.59809 0,-8.3732 0,-1.79426 0.596594,-0.598094 0,-0.598079 0.598246,-0.598082 0,-1.196173 0,-0.598087 0,-0.598087 -1.19484,-1.196173 -1.195667,-0.598087 0,-0.598087 -0.596584,-0.598087 0,-0.598087 0.596584,-0.598086 1.195667,-2.990424 0,-0.598087 1.19484,-1.196174 4.779363,-2.990434 0,-0.598086 0.596595,-0.598087 0,-11.363629 1.195666,-1.196174 7.765629,-7.775118 4.780202,-5.382781 2.38884,-2.990434 0.598259,-0.598077 1.19483,-1.196174 2.38886,-1.79426 4.78018,-2.990434 0.59742,0 5.97421,-2.392347 0.59658,0 5.97421,-4.784685 -1.19401,0 -1.79226,0 -0.59826,0 -0.59658,0 -0.59742,0 -0.59826,0 -0.59742,-0.598086 -1.19483,-1.196174 -8.9613,0 -0.5966,0 -1.79226,-1.79426 -0.59824,-0.598087 -0.59742,0 -0.5966,0.598087 -0.59825,0 -0.59658,0.598086 -1.194839,1.794261 -0.59742,0 -0.59826,0.598087 -2.986265,0.598086 -0.598256,0 -0.59742,0 -0.596585,-0.598086 -1.792261,-0.598087 0,-0.598087 -0.598256,-0.598087 0,-0.598087 -2.987092,-0.598086 -0.596595,-0.598087 -0.59742,-1.196164 -0.598246,-0.598087 -0.596595,0 0,-0.598086 -0.59742,0 -0.598246,0 -0.59742,0.598086 -0.596595,0 0,0.598087 0,1.794251 -0.598246,0 -0.59742,0 0,-0.598087 -1.194841,-1.794251 0,-1.196173 -0.596595,-0.598087 -2.390507,0 0,-0.598087 0,-1.196173 0,-0.598087 -5.974203,-2.392347 -0.596585,0 -0.598256,0 -1.19484,0 -0.597421,0.598086 -0.596584,0 -1.194841,1.196174 -0.59742,0.598087 0,0.598087 -1.194841,0 -1.793087,0.598086 -1.19484,0 -0.597421,-0.598086 0,-0.598087 -0.596595,-0.598087 0,-0.598087 -0.598245,-0.598087 -0.597421,0 -4.181942,-0.598086 -0.596595,0 0,-0.598087 -0.59742,0 -0.598246,0 -0.597421,0 -0.596594,0 -0.598246,0 -0.597421,0 -1.19484,-0.598077 -0.597421,-0.598087 0,-0.598087 -2.389681,-10.765552 c 0,-0.598087 0,-1.196173 -0.597418,-1.79426 0,0 -0.596585,0 -1.194831,0 l -1.194015,-0.598087 -1.792261,0 0,7.775118 z"
     id="path428"
     style="fill:#003478;fill-opacity:1;fill-rule:evenodd;stroke:none" />
  <path
     d="m 12.500001,150.00001 724.999999,0 c 0.0784,0.056 0,282.25725 0,412.5 0,13.85 -11.15,25 -25,25 l -675,0 c -13.85,0 -25,-11.15 -25,-25 0.118773,0.0489 10e-7,-412.5 10e-7,-412.5 z"
     id="rect3000"
     style="fill:#003478;fill-opacity:1;stroke:none" />
  <g
     style="font-size:373.13433838px;font-style:normal;font-variant:normal;font-weight:normal;font-stretch:normal;text-align:center;line-height:125%;letter-spacing:0px;word-spacing:0px;writing-mode:lr-tb;text-anchor:middle;fill:#ffffff;fill-opacity:1;stroke:none;font-family:Roadgeek 2005 Series D;-inkscape-font-specification:Roadgeek 2005 Series D"
     id="text3794">
    <path
       d="m 118.03286,492.5 c 0.49749,-14.6766 2.36316,-28.10943 5.59702,-40.29851 3.2338,-12.189 8.33329,-24.25367 15.29851,-36.19403 5.22383,-9.45265 11.69148,-18.15911 19.40298,-26.1194 7.71137,-8.20885 15.92032,-15.54715 24.62687,-22.01493 2.23871,-1.24365 4.22876,-2.48743 5.97015,-3.73134 1.74119,-1.49241 3.48249,-2.86057 5.22388,-4.10448 l 13.43283,-7.08955 12.31344,-7.08955 11.9403,-6.71642 c 4.97498,-3.23368 8.95507,-7.21377 11.9403,-11.9403 3.23367,-4.97496 4.85059,-10.07445 4.85074,-15.29851 -1.5e-4,-4.72618 -1.24393,-9.07941 -3.73134,-13.0597 -2.48771,-4.22866 -5.84592,-7.83562 -10.07463,-10.8209 -3.98024,-2.98486 -8.7066,-5.34805 -14.1791,-7.08955 -5.47276,-1.74108 -11.31853,-2.61173 -17.53732,-2.61194 -12.68666,2.1e-4 -23.01004,2.98529 -30.97015,8.95522 -7.71151,5.97035 -12.56225,14.67681 -14.55224,26.11941 l -39.55224,-8.58209 c 4.22883,-20.89532 13.93031,-37.18883 29.10448,-48.8806 15.17406,-11.94005 33.83076,-17.91019 55.97015,-17.91045 11.94018,2.6e-4 23.00982,1.9903 33.20896,5.97015 10.44761,3.98034 19.40282,9.3286 26.86567,16.04478 7.71127,6.71664 13.80579,14.67683 18.28358,23.88059 4.47742,8.95543 6.71623,18.53253 6.71642,28.73135 -1.9e-4,9.70166 -2.239,19.27877 -6.71642,28.73134 -4.22904,9.20413 -10.44794,17.41307 -18.65671,24.62687 -1.99022,1.49266 -3.85589,2.86082 -5.59702,4.10448 -1.4927,1.2439 -3.10961,2.23892 -4.85074,2.98507 l -12.31344,7.83582 -13.43283,7.08956 -12.31344,7.08955 c -5.97026,3.48268 -11.31852,7.21402 -16.04477,11.19403 -4.47772,3.73142 -8.70657,7.8359 -12.68657,12.31343 -3.73143,4.47768 -7.33839,9.4528 -10.8209,14.92537 -3.23391,5.47269 -6.34336,11.69159 -9.32836,18.65672 l 122.7612,0 0,40.29851 -170.14926,0"
       style=""
       id="path3907" />
    <path
       d="m 360.15624,492.5 0,-202.61195 -22.76119,0 0,-31.71641 2.61194,0 c 5.22384,2.3e-4 10.44772,-1.36793 15.67164,-4.10448 5.22383,-2.73608 9.57706,-6.5918 13.0597,-11.56717 l 31.71642,0 0,250.00001 -40.29851,0"
       style=""
       id="path3909" />
    <path
       d="m 631.96711,367.87313 c -2e-4,19.9006 -2.36339,38.93044 -7.08955,57.08955 -4.72656,18.15926 -11.44297,32.83586 -20.14926,44.02986 -13.93051,18.65672 -34.07974,27.98507 -60.44776,27.98507 -17.66179,0 -32.21401,-3.60696 -43.65672,-10.82089 -11.44284,-7.21392 -20.89557,-18.53232 -28.35821,-33.95523 -5.22392,-10.69647 -9.45277,-23.63178 -12.68657,-38.80597 -3.23385,-15.42279 -4.85077,-30.59691 -4.85074,-45.52239 -3e-5,-20.64662 2.36315,-39.80083 7.08955,-57.46269 4.97509,-17.66149 11.6915,-32.46247 20.14925,-44.40298 7.46263,-9.4525 16.29347,-16.41767 26.49254,-20.89553 10.44768,-4.72611 22.88547,-7.08929 37.31344,-7.08955 15.92026,2.6e-4 29.47746,3.60722 40.67164,10.8209 11.19386,7.21416 20.77097,18.53256 28.73134,33.95522 5.22369,11.19423 9.32817,24.25392 12.31344,39.17911 2.98487,14.92553 4.47741,30.22402 4.47761,45.89552 m -39.55224,0 c -1.6e-4,-14.17897 -1.24394,-27.23865 -3.73134,-39.1791 -2.48772,-12.18888 -6.21906,-22.51226 -11.19403,-30.97015 -3.98025,-6.46747 -8.58223,-11.19383 -13.80598,-14.17911 -4.97525,-2.98486 -11.19415,-4.72615 -18.65671,-5.22388 -9.7016,-0.4973 -17.78617,1.74151 -24.25373,6.71642 -6.46775,4.97532 -11.816,13.05989 -16.04478,24.25373 -3.2339,7.46286 -5.72146,16.54246 -7.46269,27.23881 -1.4926,10.4479 -2.23887,20.89565 -2.2388,31.34328 -7e-5,13.43295 1.24371,26.36826 3.73134,38.80597 2.48749,12.43789 6.21883,22.63688 11.19403,30.59702 3.98002,6.46771 8.70638,11.31845 14.1791,14.55224 5.47254,3.23387 12.18895,4.85078 20.14926,4.85074 9.20386,4e-5 16.79091,-2.48752 22.76119,-7.46268 6.21877,-4.97508 11.44264,-13.05965 15.67165,-24.25374 1.24362,-3.23376 2.4874,-7.08947 3.73134,-11.56716 1.24362,-4.72628 2.23865,-9.57703 2.98507,-14.55224 0.99487,-5.22378 1.74114,-10.44766 2.23881,-15.67164 0.49735,-5.22377 0.74611,-10.32326 0.74627,-15.29851"
       style=""
       id="path3911" />
  </g>
  <g
     transform="translate(6.4257813e-7,-0.66808414)"
     id="text3831"
     style="font-size:111.94029999px;font-style:normal;font-variant:normal;font-weight:normal;font-stretch:normal;text-align:start;line-height:125%;letter-spacing:0px;word-spacing:0px;writing-mode:lr-tb;text-anchor:start;fill:#003478;fill-opacity:1;stroke:none;font-family:Roadgeek 2005 Series D;-inkscape-font-specification:Roadgeek 2005 Series D">
    <path
       d="m 226.56716,113.16809 0,-43.432836 -17.35075,43.432836 -17.35074,-43.432836 0,43.432836 -11.86568,0 0,-75 11.86568,0 17.35074,42.089553 17.35075,-42.089553 11.86567,0 0,75 -11.86567,0"
       id="path3836"
       style="letter-spacing:-1.59758282;fill:#003478" />
    <path
       d="m 254.70547,113.16809 0,-75 12.08955,0 0,75 -12.08955,0"
       id="path3838"
       style="letter-spacing:-1.59758282;fill:#003478" />
    <path
       d="m 323.58305,113.16809 -28.65672,-50.820895 0,50.820895 -11.86567,0 0,-75 11.86567,0 27.31344,47.910448 0,-47.910448 11.86567,0 0,75 -10.52239,0"
       id="path3840"
       style="letter-spacing:-1.59758282;fill:#003478" />
    <path
       d="m 390.85499,113.16809 -28.65671,-50.820895 0,50.820895 -11.86568,0 0,-75 11.86568,0 27.31343,47.910448 0,-47.910448 11.86567,0 0,75 -10.52239,0"
       id="path3842"
       style="letter-spacing:-1.59758282;fill:#003478" />
    <path
       d="m 417.60453,113.16809 0,-75 44.21642,0 0,11.865672 -32.35075,0 0,18.358209 21.82836,0 0,12.089552 -21.82836,0 0,20.597017 34.7015,0 0,12.08955 -46.56717,0"
       id="path3844"
       style="letter-spacing:-1.59758282;fill:#003478" />
    <path
       d="m 521.0402,91.563613 c -6e-5,3.432854 -0.63438,6.604493 -1.90299,9.514927 -1.26871,2.91046 -3.09706,5.44777 -5.48507,7.61194 -2.0896,1.86567 -4.55228,3.3209 -7.38806,4.36567 -2.76123,0.97015 -5.7463,1.45522 -8.95523,1.45522 -6.49256,0 -12.05225,-1.71641 -16.6791,-5.14925 -4.55225,-3.50745 -8.09702,-8.13432 -10.63433,-13.880597 l 11.30597,-4.141791 c 1.56715,3.582108 3.73133,6.343299 6.49254,8.283583 2.76117,1.865685 5.93281,2.798515 9.51492,2.798505 3.50743,1e-5 6.30594,-1.04476 8.39553,-3.134326 2.16413,-2.164163 3.24622,-4.813415 3.24627,-7.947762 -5e-5,-2.462662 -0.67169,-4.477585 -2.01493,-6.044776 -1.2687,-1.567135 -2.9478,-2.873103 -5.03731,-3.91791 -2.08959,-1.11937 -4.40302,-2.089519 -6.9403,-2.910448 -2.46271,-0.82086 -4.9254,-1.716382 -7.38806,-2.686567 -1.11942,-0.447724 -2.50002,-1.082051 -4.14179,-1.902985 -1.64181,-0.820856 -3.24629,-1.940258 -4.81344,-3.358209 -1.49254,-1.492494 -2.79851,-3.32085 -3.91791,-5.485075 -1.04478,-2.164129 -1.56717,-4.81338 -1.56716,-7.947761 -10e-6,-3.656657 0.59701,-6.753669 1.79104,-9.291045 1.19402,-2.611873 2.7985,-4.701423 4.81344,-6.268657 2.08953,-1.641718 4.55222,-2.835747 7.38806,-3.58209 2.91042,-0.746192 6.04475,-1.119326 9.40298,-1.119403 5.29847,7.7e-5 9.70146,1.380672 13.20896,4.141791 3.58204,2.761264 6.30592,6.492603 8.17164,11.19403 l -10.52239,3.134329 c -0.59705,-1.193971 -1.38064,-2.27606 -2.35074,-3.246269 -0.82094,-0.820834 -1.97765,-1.567101 -3.47015,-2.238806 -1.41795,-0.671578 -3.17168,-1.044712 -5.2612,-1.119403 -1.34331,-0.07456 -2.76122,0.03738 -4.25373,0.335821 -1.41793,0.223944 -2.68659,0.671705 -3.80597,1.343284 -1.11942,0.671703 -2.01494,1.604538 -2.68657,2.798507 -0.67166,1.119462 -0.93285,2.537371 -0.78358,4.253731 0.14924,2.313487 1.1567,4.10453 3.02239,5.373135 1.86565,1.194079 4.14176,2.238854 6.82836,3.134328 2.68653,0.895569 5.55967,1.828404 8.6194,2.798508 3.13429,0.895566 6.00742,2.238848 8.6194,4.029851 2.6119,1.716456 4.77607,4.0672 6.49254,7.052238 1.79099,2.910479 2.68651,6.828385 2.68657,11.753732"
       id="path3846"
       style="letter-spacing:-1.59758282;fill:#003478" />
    <path
       d="m 583.63862,75.780031 c -6e-5,5.97018 -0.70901,11.67913 -2.12686,17.126866 -1.41797,5.447776 -3.4329,9.850753 -6.04478,13.208953 -4.17915,5.59702 -10.22392,8.39552 -18.13433,8.39552 -5.29854,0 -9.6642,-1.08209 -13.09701,-3.24626 -3.43286,-2.16418 -6.26868,-5.5597 -8.50747,-10.18657 -1.56717,-3.208942 -2.83583,-7.089535 -3.80597,-11.641793 -0.97015,-4.626837 -1.45523,-9.179071 -1.45522,-13.656716 -1e-5,-6.193987 0.70895,-11.94025 2.12686,-17.238807 1.49253,-5.298447 3.50745,-9.738741 6.04478,-13.320895 2.23879,-2.83575 4.88804,-4.925301 7.94776,-6.268657 3.1343,-1.417835 6.86564,-2.126789 11.19403,-2.126866 4.77608,7.7e-5 8.84324,1.082165 12.20149,3.246269 3.35816,2.16425 6.23129,5.559769 8.61941,10.186567 1.5671,3.358269 2.79845,7.276175 3.69403,11.753732 0.89546,4.477658 1.34322,9.067206 1.34328,13.768657 m -11.86567,0 c -5e-5,-4.25369 -0.37318,-8.171597 -1.1194,-11.753732 -0.74632,-3.656664 -1.86572,-6.753675 -3.35821,-9.291045 -1.19408,-1.940238 -2.57467,-3.358147 -4.14179,-4.253731 -1.49258,-0.895459 -3.35825,-1.417847 -5.59702,-1.567164 -2.91048,-0.14919 -5.33585,0.522451 -7.27612,2.014925 -1.94032,1.492598 -3.5448,3.917969 -4.81343,7.27612 -0.97017,2.238858 -1.71644,4.962736 -2.23881,8.171641 -0.44778,3.134372 -0.67166,6.268698 -0.67164,9.402986 -2e-5,4.029884 0.37312,7.910477 1.1194,11.641791 0.74625,3.731365 1.86565,6.791064 3.35821,9.179104 1.19401,1.940314 2.61192,3.395536 4.25373,4.365674 1.64177,0.97016 3.65669,1.45523 6.04478,1.45522 2.76116,1e-5 5.03727,-0.74626 6.82836,-2.2388 1.86563,-1.492527 3.43279,-3.917898 4.70149,-7.276123 0.37309,-0.970129 0.74622,-2.126844 1.1194,-3.47015 0.37309,-1.417885 0.6716,-2.873108 0.89553,-4.365671 0.29846,-1.567135 0.52234,-3.134298 0.67164,-4.701493 0.1492,-1.56713 0.22383,-3.096979 0.22388,-4.589552"
       id="path3848"
       style="letter-spacing:-1.59758282;fill:#003478" />
    <path
       d="m 621.03823,48.690478 0,64.477612 -11.86567,0 0,-64.477612 -17.12687,0 0,-10.522388 46.34329,0 0,10.522388 -17.35075,0"
       id="path3850"
       style="letter-spacing:-1.59758282;fill:#003478" />
    <path
       d="m 691.99195,113.16809 -7.38805,-21.044776 -23.39553,0 -7.38806,21.044776 -12.64925,0 25.85821,-75 11.75373,0 25.85821,75 -12.64926,0 m -18.91791,-54.179104 -7.72388,21.044776 15,0 -7.27612,-21.044776"
       id="path3852"
       style="letter-spacing:-1.59758282;fill:#003478" />
  </g>
</svg>
