<?xml version="1.0" encoding="UTF-8" standalone="no"?>
<!-- Created with Inkscape (http://www.inkscape.org/) -->
<svg
   xmlns:svg="http://www.w3.org/2000/svg"
   xmlns="http://www.w3.org/2000/svg"
   version="1.0"
   width="2160"
   height="2160"
   id="svg2">
  <defs
     id="defs4" />
  <g
     id="layer1">
    <rect
       width="2160"
       height="2160"
       ry="85.947075"
       x="0"
       y="0"
       style="fill:black;fill-opacity:1;stroke:none;stroke-width:2;stroke-miterlimit:4;stroke-dasharray:none;stroke-dashoffset:0;stroke-opacity:1"
       id="rect1872" />
    <path
       d="M 87.054103,89.256663 L 1582.1451,89.256663 C 1582.1451,89.256663 1640.1636,160.41595 1644.6265,198.36757 C 1649.0894,236.31919 1622.3117,283.7587 1653.5524,312.22241 C 1684.7931,340.68612 1796.367,483.00469 1796.367,530.4442 C 1796.367,577.88372 1818.6818,644.29904 1832.0707,663.27485 C 1845.4596,682.25065 1903.4781,739.17809 1925.7928,791.36155 C 1948.1076,843.54503 1965.9594,1199.3414 1965.9594,1199.3414 C 1965.9594,1199.3414 2140.0147,1607.3213 2108.7741,1683.2245 C 2077.5334,1759.1278 2041.8297,1749.6399 2019.5148,1811.3112 C 1997.2001,1872.9826 1925.7928,1906.1902 1921.3298,1934.654 C 1916.8669,1963.1176 1881.1632,2067.4847 1881.1632,2067.4847 L 1519.6637,2067.4847 C 1519.6637,2067.4847 1608.9228,1929.9101 1617.8487,1896.7024 C 1626.7746,1863.4946 1595.5339,1816.0551 1595.5339,1816.0551 L 305.73902,1816.0551 C 278.93173,1816.0521 278.80389,1811.6075 278.96128,1787.5915 L 278.96128,1033.3031 C 278.96128,1033.3031 247.72058,705.97041 229.86875,582.62767 C 212.01692,459.28493 153.99847,407.10144 140.6096,345.43008 C 127.22072,283.7587 72.932786,149.91098 64.739309,127.20829 C 58.434413,109.73853 73.735066,94.057073 87.054103,89.256663 z "
       style="fill:white;fill-rule:evenodd;stroke:black;stroke-width:1.13876617px;stroke-linecap:butt;stroke-linejoin:miter;stroke-opacity:1"
       id="path2821" />
  </g>
  <path
     d="M 968.4433,574.7915 C 918.96149,630.88676 874.96892,694.40827 836.46545,765.35623 C 797.96094,836.30571 763.31742,916.32654 732.53479,1005.4189 C 702.82554,1090.1148 681.36637,1172.8883 668.1572,1253.7397 C 654.94732,1334.5917 646.14377,1425.0693 641.74652,1525.173 L 486.65619,1525.173 L 486.65619,1502.0605 C 486.65602,1474.5673 488.30931,1442.668 491.61606,1406.3627 C 494.92246,1370.0576 499.59699,1332.3845 505.63965,1293.3431 C 511.68193,1254.3023 518.55525,1214.7073 526.25961,1174.558 C 533.96356,1134.4095 542.76711,1096.1741 552.67029,1059.8516 C 564.755,1015.8763 577.67079,973.81397 591.41769,933.66449 C 605.16405,893.5162 620.56397,854.18976 637.61749,815.68506 C 654.67038,777.18178 673.64543,738.40084 694.54269,699.34213 C 715.43921,660.28508 739.65107,618.76824 767.17834,574.7915 L 351.35498,574.7915 L 351.35498,419.65082 L 968.4433,419.65082 L 968.4433,574.7915 L 968.4433,574.7915 z M 1133.6044,1525.173 C 1135.7864,1487.7768 1138.2537,1455.3236 1141.0065,1427.8135 C 1143.7591,1400.3036 1147.0573,1375.5546 1150.901,1353.5665 C 1154.7446,1331.5788 1159.6961,1310.405 1165.7555,1290.045 C 1171.8146,1269.6854 1179.2418,1247.4038 1188.0371,1223.2 C 1233.1541,1107.7219 1292.555,1015.8763 1366.2399,947.6629 C 1372.8528,942.15811 1379.7345,936.38419 1386.8851,930.34113 C 1394.035,924.29925 1402.8302,917.42593 1413.2706,909.72116 C 1423.7103,902.01762 1436.3575,892.66857 1451.2123,881.67398 C 1466.0663,870.68068 1484.4875,857.47955 1506.4758,842.07056 C 1542.7974,816.75999 1567.2778,795.3092 1579.9171,777.71814 C 1592.5555,760.12857 1598.8749,737.58679 1598.8754,710.09271 C 1598.8749,689.17985 1594.7543,669.37396 1586.5135,650.67499 C 1578.2717,631.97776 1567.2778,615.47845 1553.5316,601.177 C 1539.7845,586.8774 1523.2852,575.59812 1504.0337,567.33911 C 1484.7812,559.08202 1464.6984,554.953 1443.7851,554.95203 C 1421.7968,554.953 1401.4538,559.08202 1382.756,567.33911 C 1364.0576,575.59812 1347.8269,586.8774 1334.0637,601.177 C 1320.3,615.47845 1309.2977,631.97776 1301.0567,650.67499 C 1292.8152,669.37396 1288.6945,689.17985 1288.6948,710.09271 L 1133.6044,710.09271 C 1134.6786,667.19196 1143.1968,626.76613 1159.1591,588.81509 C 1175.1212,550.86593 1196.8489,517.85892 1224.3423,489.79395 C 1251.8354,461.73104 1284.2802,439.72637 1321.6766,423.77985 C 1359.0726,407.83553 1399.7754,399.86282 1443.7851,399.86169 C 1486.6863,399.86282 1526.5666,408.11248 1563.4262,424.61069 C 1600.2848,441.1111 1632.7379,463.38433 1660.7857,491.43045 C 1688.8322,519.47864 1710.8285,552.20871 1726.7746,589.62076 C 1742.7194,627.03468 1750.6921,667.19196 1750.6927,710.09271 C 1750.6921,798.07867 1719.3383,870.67229 1656.6315,927.87378 C 1651.1255,932.27196 1645.3516,936.39259 1639.3097,940.23569 C 1633.2666,944.07996 1627.4927,948.75448 1621.9879,954.25928 L 1584.021,982.30646 L 1544.4427,1008.7423 L 1501.5411,1040.0625 C 1483.9504,1053.2557 1466.6286,1068.9326 1449.5758,1087.0931 C 1432.5222,1105.2546 1416.0229,1125.0605 1400.0778,1146.5109 C 1384.1321,1167.962 1370.1085,1190.5122 1358.007,1214.1615 C 1345.905,1237.8114 1335.9937,1261.184 1328.273,1284.2794 C 1321.6932,1298.5802 1317.027,1311.5044 1314.2746,1323.052 C 1311.5217,1334.6 1307.9465,1350.2769 1303.5492,1370.0826 L 1750.6927,1370.0826 L 1750.6927,1525.173 L 1133.6044,1525.173 z "
     style="font-size:290px;font-style:normal;font-weight:normal;text-align:center;text-anchor:middle;fill:black;fill-opacity:1;stroke:none;stroke-width:1px;stroke-linecap:butt;stroke-linejoin:miter;stroke-opacity:1;font-family:Roadgeek 2005 Series C"
     id="text2150" />
</svg>
