<?xml version="1.0" encoding="UTF-8" standalone="no"?>
<!-- Created with Inkscape (http://www.inkscape.org/) -->

<svg
   xmlns:dc="http://purl.org/dc/elements/1.1/"
   xmlns:cc="http://creativecommons.org/ns#"
   xmlns:rdf="http://www.w3.org/1999/02/22-rdf-syntax-ns#"
   xmlns:svg="http://www.w3.org/2000/svg"
   xmlns="http://www.w3.org/2000/svg"
   xmlns:inkscape="http://www.inkscape.org/namespaces/inkscape"
   version="1.1"
   width="240"
   height="192"
   viewBox="0 0 240 192"
   id="Layer_1"
   xml:space="preserve"
   style="overflow:visible"><defs
   id="defs16" /><metadata
   id="metadata3008"><rdf:RDF><cc:Work
       rdf:about=""><dc:format>image/svg+xml</dc:format><dc:type
         rdf:resource="http://purl.org/dc/dcmitype/StillImage" /><dc:title /></cc:Work></rdf:RDF></metadata>
<g
   id="g2985">
	<path
   d="M 0,12 C 0,5.3726 5.3721,0 12,0 h 216 c 6.627,0 12,5.3726 12,12 v 168 c 0,6.627 -5.373,12 -12,12 H 12 C 5.3721,192 0,186.627 0,180 V 12 z"
   inkscape:connector-curvature="0"
   id="path2987" />
	<path
   d="M 120,96"
   inkscape:connector-curvature="0"
   id="path2989" />
</g>
<g
   id="g2991"
   style="fill:#ffffff">
	<ellipse
   cx="120"
   cy="96"
   rx="116"
   ry="92"
   id="ellipse2993" />
	<path
   d="M 120,96"
   inkscape:connector-curvature="0"
   id="path2995" />
</g>
<g
   id="routenum"
   style="font-size:143px;font-style:normal;font-weight:normal;text-align:center;text-anchor:middle;fill:#000000;font-family:Roadgeek 2005 Series C"><path
     d="m 77.266,113.95 c -6.2e-5,4.576 -0.61973,8.723 -1.859,12.441 -1.2394,3.718 -3.0507,6.9594 -5.434,9.724 -2.2881,2.6693 -5.1004,4.7667 -8.437,6.292 -3.3367,1.43 -7.0547,2.145 -11.154,2.145 -8.7707,0 -15.396,-3.003 -19.877,-9.009 -4.4807,-6.1013 -6.721,-14.634 -6.721,-25.597 -8e-6,-5.8153 0.71499,-11.631 2.145,-17.446 1.5253,-5.9106 3.6703,-11.583 6.435,-17.017 2.86,-5.5293 6.3396,-10.773 10.439,-15.73 4.0993,-4.9572 8.7706,-9.4379 14.014,-13.442 l 7.722,10.868 c -2.002,1.5254 -4.0517,3.3367 -6.149,5.434 -2.002,2.0974 -3.9087,4.3377 -5.72,6.721 -1.8114,2.2881 -3.432,4.6714 -4.862,7.15 -1.43,2.4787 -2.574,4.8621 -3.432,7.15 1.144,-0.19061 2.1926,-0.28594 3.146,-0.286 1.0486,5.9e-5 2.002,5.9e-5 2.86,0 4.0993,5.9e-5 7.8173,0.76272 11.154,2.288 3.3366,1.4301 6.1489,3.5274 8.437,6.292 2.3833,2.6694 4.1946,5.863 5.434,9.581 1.2393,3.718 1.8589,7.865 1.859,12.441 m -13.442,0 c -4.8e-5,-5.148 -1.2394,-9.3426 -3.718,-12.584 -2.4787,-3.2413 -5.72,-4.8619 -9.724,-4.862 -4.0994,4.6e-5 -7.3884,1.5254 -9.867,4.576 -2.3834,3.0507 -3.575,6.864 -3.575,11.44 -2.1e-5,5.434 1.1916,9.9147 3.575,13.442 2.4786,3.432 5.7676,5.148 9.867,5.148 4.004,2e-5 7.2453,-1.573 9.724,-4.719 2.4786,-3.2413 3.718,-7.3883 3.718,-12.441"
     inkscape:connector-curvature="0"
     id="path2992" /><path
     d="m 150.92,94.789 c -7e-5,7.3407 -0.42907,13.585 -1.287,18.733 -0.76273,5.148 -2.1451,10.01 -4.147,14.586 -2.3834,5.72 -5.3864,9.9147 -9.009,12.584 -3.5274,2.574 -8.008,3.861 -13.442,3.861 -5.72,0 -10.391,-1.287 -14.014,-3.861 -3.5274,-2.6693 -6.4827,-6.864 -8.866,-12.584 -2.002,-4.6713 -3.432,-9.5333 -4.29,-14.586 -0.76268,-5.148 -1.144,-11.392 -1.144,-18.733 -9e-6,-7.2453 0.38132,-13.442 1.144,-18.59 0.85799,-5.2433 2.288,-10.153 4.29,-14.729 2.4786,-5.7199 5.4816,-9.8192 9.009,-12.298 3.6226,-2.5739 8.2463,-3.8609 13.871,-3.861 5.5293,9.7e-5 10.058,1.2871 13.585,3.861 3.5273,2.4788 6.4826,6.6734 8.866,12.584 0.95327,2.3834 1.7636,4.7667 2.431,7.15 0.7626,2.3834 1.3346,4.9097 1.716,7.579 0.4766,2.5741 0.81027,5.3864 1.001,8.437 0.1906,2.9554 0.28593,6.2444 0.286,9.867 m -13.156,0 c -5e-5,-2.6693 -0.0954,-5.1003 -0.286,-7.293 -0.0954,-2.1926 -0.28605,-4.1946 -0.572,-6.006 -0.19072,-1.9066 -0.47672,-3.7179 -0.858,-5.434 -0.38138,-1.7159 -0.81038,-3.4319 -1.287,-5.148 -1.2394,-4.2899 -2.8124,-7.3883 -4.719,-9.295 -1.8114,-1.9066 -4.147,-2.8599 -7.007,-2.86 -5.9107,8.4e-5 -9.9624,3.9564 -12.155,11.869 -1.144,3.6227 -1.9544,7.2931 -2.431,11.011 -0.38136,3.6227 -0.57202,8.1034 -0.572,13.442 -2e-5,2.574 0.0476,4.9574 0.143,7.15 0.19064,2.0974 0.38131,4.0994 0.572,6.006 0.28598,1.8114 0.61964,3.6227 1.001,5.434 0.38131,1.8114 0.81031,3.6704 1.287,5.577 2.1926,7.9127 6.2443,11.869 12.155,11.869 2.86,2e-5 5.1956,-0.95332 7.007,-2.86 1.9066,-1.9066 3.4796,-4.9096 4.719,-9.009 0.57195,-1.9066 1.0486,-3.718 1.43,-5.434 0.38128,-1.8113 0.66728,-3.6703 0.858,-5.577 0.28595,-1.9066 0.47661,-3.9086 0.572,-6.006 0.0953,-2.1926 0.14295,-4.6713 0.143,-7.436"
     inkscape:connector-curvature="0"
     id="path2994" /><path
     d="m 216.22,60.469 c -4.29,4.8621 -8.1034,10.391 -11.44,16.588 -3.3367,6.1014 -6.3397,13.013 -9.009,20.735 -2.574,7.3407 -4.433,14.538 -5.577,21.593 -1.144,6.9594 -1.9067,14.777 -2.288,23.452 h -13.442 v -2.002 c -1e-5,-2.3833 0.14299,-5.148 0.429,-8.294 0.28599,-3.146 0.66732,-6.3873 1.144,-9.724 0.57199,-3.432 1.1916,-6.864 1.859,-10.296 0.66732,-3.5273 1.43,-6.864 2.288,-10.01 1.0486,-3.8133 2.145,-7.4359 3.289,-10.868 1.2393,-3.5273 2.574,-6.9593 4.004,-10.296 1.5253,-3.3366 3.1936,-6.6733 5.005,-10.01 1.8113,-3.4319 3.9086,-7.0546 6.292,-10.868 H 162.738 V 47.027 h 53.482 v 13.442"
     inkscape:connector-curvature="0"
     id="path2996" /></g>
</svg>