<?xml version="1.0" encoding="UTF-8" standalone="no"?>
<!-- Created with Inkscape (http://www.inkscape.org/) -->
<svg
   xmlns:svg="http://www.w3.org/2000/svg"
   xmlns="http://www.w3.org/2000/svg"
   version="1.0"
   width="600"
   height="600"
   id="svg1873">
  <defs
     id="defs1875" />
  <g
     id="layer1">
    <path
       d="M 37.50003,-0.00048 L 562.50045,-0.00048 C 583.27547,-0.00048 600.00048,16.724533 600.00048,37.49955 L 600.00048,562.49997 C 600.00048,583.27499 583.27547,600 562.50045,600 L 37.50003,600 C 16.725013,600 0,583.27499 0,562.49997 L 0,37.49955 C 0,16.724533 16.725013,-0.00048 37.50003,-0.00048 z "
       style="fill:black;fill-opacity:1;fill-rule:nonzero;stroke:none;stroke-width:10;stroke-linecap:square;stroke-linejoin:bevel;stroke-miterlimit:4;stroke-dashoffset:0;stroke-opacity:1"
       id="rect1899" />
    <path
       d="M 326.51728,24.227931 L 575.77298,273.48364 C 590.46316,288.17382 590.46316,311.82659 575.77298,326.51677 L 326.51727,575.77248 C 311.8271,590.46266 288.17432,590.46266 273.48414,575.77248 L 24.228435,326.51677 C 9.5382579,311.8266 9.5382579,288.17382 24.228435,273.48364 L 273.48415,24.227931 C 288.17432,9.5377543 311.8271,9.5377543 326.51728,24.227931 z "
       style="fill:white;fill-opacity:1;fill-rule:nonzero;stroke:none;stroke-width:10;stroke-linecap:square;stroke-linejoin:bevel;stroke-miterlimit:4;stroke-dashoffset:0;stroke-opacity:1"
       id="rect2789" />
    <path
       d="M 160.94411,394.21396 L 160.94411,239.54085 L 149.13465,239.54085 L 149.13465,219.01161 C 154.57018,218.63415 158.92864,217.32104 162.21003,215.07226 C 165.49135,212.82383 168.16193,209.72843 170.22175,205.78603 L 188.22776,205.78603 L 188.22776,394.21396 L 160.94411,394.21396 z M 325.8561,343.31138 C 325.85598,350.99559 324.54287,358.16623 321.91675,364.82332 C 319.29041,371.48047 315.68148,377.24645 311.08997,382.12127 C 306.49826,386.99612 300.9683,390.79242 294.50008,393.5102 C 288.03168,396.22797 281.047,397.58686 273.546,397.58687 C 265.86178,397.58686 258.87853,396.27518 252.59621,393.65181 C 246.31382,391.02844 240.87683,387.37231 236.28525,382.68342 C 231.69361,377.99455 228.03748,372.41596 225.31686,365.94762 C 222.59621,359.47934 221.04994,352.40311 220.67804,344.71891 L 247.11202,344.71891 C 247.86152,352.40311 250.6265,358.72981 255.40697,363.69902 C 260.18735,368.66829 266.23369,371.15291 273.546,371.15289 C 281.23581,371.15291 287.56394,368.48091 292.5304,363.13687 C 297.4967,357.79289 299.97989,351.1844 299.97998,343.31138 C 299.97989,338.24779 299.32476,333.51314 298.0146,329.10741 C 296.70425,324.70182 294.92339,320.85831 292.67201,317.57688 C 290.42047,314.2956 287.84144,311.718 284.93493,309.84408 C 282.02826,307.97033 278.88708,307.03341 275.51138,307.03332 L 262.29439,307.03332 L 262.29439,281.1572 L 273.546,281.1572 C 276.9217,281.15732 279.50073,280.59517 281.28309,279.47075 C 283.06531,278.34656 285.08075,276.4713 287.32943,273.84495 C 292.76491,267.84879 295.48268,260.81977 295.48277,252.75784 C 295.48268,245.44573 293.46724,239.63255 289.43643,235.31828 C 285.40545,231.00433 280.10865,228.84727 273.546,228.84711 C 267.54966,228.84727 262.81644,230.58236 259.34632,234.05237 C 255.8761,237.5227 253.76624,242.44474 253.01675,248.81849 L 226.58278,245.44559 C 227.33229,239.25493 229.01874,233.48895 231.64214,228.14764 C 234.26548,222.80666 237.63982,218.26082 241.76515,214.51011 C 245.89041,210.75975 250.67227,207.80596 256.11073,205.64871 C 261.5491,203.49185 267.36085,202.41332 273.546,202.41313 C 280.29746,202.41332 286.57839,203.63203 292.38879,206.06926 C 298.19903,208.50686 303.21404,211.9284 307.43385,216.33388 C 311.65345,220.73972 314.98201,225.89634 317.41954,231.80376 C 319.85685,237.71151 321.07556,244.03821 321.07567,250.78388 C 321.07556,258.66271 319.80964,265.97639 317.27793,272.72494 C 314.746,279.47373 310.29314,286.50418 303.91933,293.81633 C 311.23148,300.37915 316.71567,307.87878 320.37191,316.31525 C 324.02792,324.75188 325.85598,333.75058 325.8561,343.31138 L 325.8561,343.31138 z M 464.54007,299.72107 C 464.53994,314.15685 463.7432,326.4369 462.14985,336.56128 C 460.55625,346.68577 457.78841,356.24805 453.84632,365.24815 C 449.16019,376.49692 443.30266,384.69888 436.27374,389.85407 C 429.24461,395.00927 420.38609,397.58686 409.69815,397.58687 C 398.44934,397.58686 389.30903,395.00927 382.27718,389.85407 C 375.24525,384.69888 369.3863,376.49692 364.7003,365.24815 C 360.76379,356.05924 357.99881,346.44975 356.40536,336.41967 C 354.81186,326.3897 354.01512,314.15685 354.01514,299.72107 C 354.01512,285.47429 354.81186,273.24144 356.40536,263.02246 C 357.99881,252.80376 360.76379,243.19427 364.7003,234.19398 C 369.57511,222.94541 375.52847,214.83642 382.5604,209.86699 C 389.59225,204.89794 398.63815,202.41332 409.69815,202.41313 C 420.56918,202.41332 429.47347,204.89794 436.41105,209.86699 C 443.34844,214.83642 449.16019,223.13422 453.84632,234.76042 C 455.7229,239.4466 457.36501,244.13262 458.77266,248.81849 C 460.18006,253.50466 461.30579,258.42526 462.14985,263.58032 C 462.99367,268.73565 463.60302,274.26704 463.97792,280.17451 C 464.35256,286.08221 464.53994,292.59773 464.54007,299.72107 L 464.54007,299.72107 z M 438.66395,299.72107 C 438.66385,294.4687 438.52367,289.68684 438.24341,285.37548 C 437.96295,281.06434 437.58818,277.08065 437.11911,273.42441 C 436.64983,269.7684 436.04048,266.25389 435.29104,262.88085 C 434.54141,259.50808 433.69747,256.13375 432.75922,252.75784 C 430.32171,244.31857 427.27493,238.2236 423.6189,234.47291 C 419.96269,230.72254 415.32244,228.84727 409.69815,228.84711 C 398.07171,228.84727 390.10433,236.62869 385.79599,252.1914 C 383.54162,259.31498 381.99392,266.48562 381.15288,273.70334 C 380.31176,280.9213 379.89122,289.77982 379.89126,300.27893 C 379.89122,305.34267 380.0314,309.98434 380.3118,314.20397 C 380.59212,318.42375 380.96688,322.36167 381.4361,326.01773 C 381.90523,329.67392 382.51459,333.28284 383.26417,336.8445 C 384.01365,340.40628 384.8576,344.06097 385.79599,347.80859 C 390.10433,363.37149 398.07171,371.15291 409.69815,371.15289 C 415.32244,371.15291 419.96269,369.27764 423.6189,365.52708 C 427.27493,361.77658 430.32171,355.87042 432.75922,347.80859 C 433.88056,344.06097 434.81748,340.45348 435.56997,336.98611 C 436.32227,333.51886 436.93162,329.90994 437.39804,326.15934 C 437.86425,322.40887 438.19181,318.42375 438.38073,314.20397 C 438.56944,309.98434 438.66385,305.15671 438.66395,299.72107 L 438.66395,299.72107 z "
       style="font-size:281.23007202px"
       id="text2799" />
  </g>
</svg>
