<?xml version="1.0" encoding="UTF-8" standalone="no"?>
<!-- Created with Inkscape (http://www.inkscape.org/) -->
<svg
   xmlns:svg="http://www.w3.org/2000/svg"
   xmlns="http://www.w3.org/2000/svg"
   version="1.0"
   width="600"
   height="600"
   id="svg1873">
  <defs
     id="defs1875" />
  <g
     id="layer1">
    <path
       d="M 37.50003,-0.00048 L 562.50045,-0.00048 C 583.27547,-0.00048 600.00048,16.724533 600.00048,37.49955 L 600.00048,562.49997 C 600.00048,583.27499 583.27547,600 562.50045,600 L 37.50003,600 C 16.725013,600 0,583.27499 0,562.49997 L 0,37.49955 C 0,16.724533 16.725013,-0.00048 37.50003,-0.00048 z "
       style="fill:black;fill-opacity:1;fill-rule:nonzero;stroke:none;stroke-width:10;stroke-linecap:square;stroke-linejoin:bevel;stroke-miterlimit:4;stroke-dashoffset:0;stroke-opacity:1"
       id="rect1899" />
    <path
       d="M 326.51728,24.227931 L 575.77298,273.48364 C 590.46316,288.17382 590.46316,311.82659 575.77298,326.51677 L 326.51727,575.77248 C 311.8271,590.46266 288.17432,590.46266 273.48414,575.77248 L 24.228435,326.51677 C 9.5382579,311.8266 9.5382579,288.17382 24.228435,273.48364 L 273.48415,24.227931 C 288.17432,9.5377543 311.8271,9.5377543 326.51728,24.227931 z "
       style="fill:white;fill-opacity:1;fill-rule:nonzero;stroke:none;stroke-width:10;stroke-linecap:square;stroke-linejoin:bevel;stroke-miterlimit:4;stroke-dashoffset:0;stroke-opacity:1"
       id="rect2789" />
    <path
       d="M 211.79435,232.2286 C 203.36054,241.78961 195.86234,252.61637 189.29972,264.70892 C 182.73691,276.80172 176.83219,290.44067 171.58552,305.6258 C 166.5218,320.06157 162.86424,334.16969 160.61284,347.9502 C 158.36132,361.73081 156.86082,377.15204 156.11134,394.21396 L 129.67736,394.21396 L 129.67736,390.27461 C 129.67733,385.58859 129.95912,380.15161 130.52273,373.96364 C 131.08629,367.77572 131.88302,361.35461 132.91295,354.70031 C 133.94281,348.04609 135.11432,341.29742 136.42747,334.45428 C 137.74055,327.61127 139.24104,321.09433 140.92897,314.90344 C 142.98872,307.40818 145.19011,300.23897 147.53317,293.39579 C 149.87613,286.55282 152.50093,279.84992 155.40758,273.28709 C 158.31411,266.72449 161.54827,260.11457 165.11005,253.45731 C 168.6717,246.80033 172.79843,239.7241 177.49025,232.2286 L 106.61629,232.2286 L 106.61629,205.78603 L 211.79435,205.78603 L 211.79435,232.2286 L 211.79435,232.2286 z M 356.37448,299.72107 C 356.37435,314.15685 355.57761,326.4369 353.98426,336.56128 C 352.39066,346.68577 349.62282,356.24805 345.68073,365.24815 C 340.99459,376.49692 335.13707,384.69888 328.10814,389.85407 C 321.07901,395.00927 312.22049,397.58686 301.53255,397.58687 C 290.28375,397.58686 281.14343,395.00927 274.11159,389.85407 C 267.07966,384.69888 261.2207,376.49692 256.53471,365.24815 C 252.5982,356.05924 249.83322,346.44975 248.23976,336.41967 C 246.64627,326.3897 245.84953,314.15685 245.84955,299.72107 C 245.84953,285.47429 246.64627,273.24144 248.23976,263.02246 C 249.83322,252.80376 252.5982,243.19427 256.53471,234.19398 C 261.40952,222.94541 267.36288,214.83642 274.39481,209.86699 C 281.42665,204.89794 290.47256,202.41332 301.53255,202.41313 C 312.40358,202.41332 321.30788,204.89794 328.24546,209.86699 C 335.18284,214.83642 340.99459,223.13422 345.68073,234.76042 C 347.55731,239.4466 349.19942,244.13262 350.60706,248.81849 C 352.01446,253.50466 353.14019,258.42526 353.98426,263.58032 C 354.82808,268.73565 355.43743,274.26704 355.81232,280.17451 C 356.18696,286.08221 356.37435,292.59773 356.37448,299.72107 L 356.37448,299.72107 z M 330.49836,299.72107 C 330.49825,294.4687 330.35807,289.68684 330.07782,285.37548 C 329.79735,281.06434 329.42259,277.08065 328.95351,273.42441 C 328.48424,269.7684 327.87489,266.25389 327.12545,262.88085 C 326.37582,259.50808 325.53188,256.13375 324.59362,252.75784 C 322.15611,244.31857 319.10934,238.2236 315.4533,234.47291 C 311.79709,230.72254 307.15685,228.84727 301.53255,228.84711 C 289.90612,228.84727 281.93874,236.62869 277.6304,252.1914 C 275.37603,259.31498 273.82832,266.48562 272.98729,273.70334 C 272.14616,280.9213 271.72562,289.77982 271.72567,300.27893 C 271.72562,305.34267 271.8658,309.98434 272.14621,314.20397 C 272.42652,318.42375 272.80129,322.36167 273.27051,326.01773 C 273.73964,329.67392 274.34899,333.28284 275.09857,336.8445 C 275.84806,340.40628 276.692,344.06097 277.6304,347.80859 C 281.93874,363.37149 289.90612,371.15291 301.53255,371.15289 C 307.15685,371.15291 311.79709,369.27764 315.4533,365.52708 C 319.10934,361.77658 322.15611,355.87042 324.59362,347.80859 C 325.71497,344.06097 326.65189,340.45348 327.40438,336.98611 C 328.15668,333.51886 328.76603,329.90994 329.23244,326.15934 C 329.69866,322.40887 330.02622,318.42375 330.21514,314.20397 C 330.40385,309.98434 330.49825,305.15671 330.49836,299.72107 L 330.49836,299.72107 z M 501.38373,299.72107 C 501.3836,314.15685 500.58686,326.4369 498.99351,336.56128 C 497.39991,346.68577 494.63207,356.24805 490.68998,365.24815 C 486.00385,376.49692 480.14632,384.69888 473.1174,389.85407 C 466.08827,395.00927 457.22975,397.58686 446.54181,397.58687 C 435.293,397.58686 426.15269,395.00927 419.12084,389.85407 C 412.08891,384.69888 406.22996,376.49692 401.54396,365.24815 C 397.60745,356.05924 394.84247,346.44975 393.24902,336.41967 C 391.65552,326.3897 390.85878,314.15685 390.8588,299.72107 C 390.85878,285.47429 391.65552,273.24144 393.24902,263.02246 C 394.84247,252.80376 397.60745,243.19427 401.54396,234.19398 C 406.41877,222.94541 412.37213,214.83642 419.40407,209.86699 C 426.43591,204.89794 435.48181,202.41332 446.54181,202.41313 C 457.41284,202.41332 466.31713,204.89794 473.25472,209.86699 C 480.1921,214.83642 486.00385,223.13422 490.68998,234.76042 C 492.56656,239.4466 494.20867,244.13262 495.61632,248.81849 C 497.02372,253.50466 498.14945,258.42526 498.99351,263.58032 C 499.83733,268.73565 500.44668,274.26704 500.82158,280.17451 C 501.19622,286.08221 501.3836,292.59773 501.38373,299.72107 L 501.38373,299.72107 z M 475.50761,299.72107 C 475.50751,294.4687 475.36733,289.68684 475.08707,285.37548 C 474.80661,281.06434 474.43184,277.08065 473.96277,273.42441 C 473.49349,269.7684 472.88414,266.25389 472.1347,262.88085 C 471.38507,259.50808 470.54113,256.13375 469.60288,252.75784 C 467.16537,244.31857 464.1186,238.2236 460.46256,234.47291 C 456.80635,230.72254 452.1661,228.84727 446.54181,228.84711 C 434.91537,228.84727 426.948,236.62869 422.63965,252.1914 C 420.38528,259.31498 418.83758,266.48562 417.99654,273.70334 C 417.15542,280.9213 416.73488,289.77982 416.73492,300.27893 C 416.73488,305.34267 416.87506,309.98434 417.15546,314.20397 C 417.43578,318.42375 417.81054,322.36167 418.27976,326.01773 C 418.74889,329.67392 419.35825,333.28284 420.10783,336.8445 C 420.85732,340.40628 421.70126,344.06097 422.63965,347.80859 C 426.948,363.37149 434.91537,371.15291 446.54181,371.15289 C 452.1661,371.15291 456.80635,369.27764 460.46256,365.52708 C 464.1186,361.77658 467.16537,355.87042 469.60288,347.80859 C 470.72422,344.06097 471.66114,340.45348 472.41363,336.98611 C 473.16593,333.51886 473.77528,329.90994 474.2417,326.15934 C 474.70791,322.40887 475.03547,318.42375 475.22439,314.20397 C 475.4131,309.98434 475.50751,305.15671 475.50761,299.72107 L 475.50761,299.72107 z "
       style="font-size:281.23007202px"
       id="text2799" />
  </g>
</svg>
