<?xml version="1.0" encoding="UTF-8" standalone="no"?>
<!-- Created with Inkscape (http://www.inkscape.org/) -->

<svg
   xmlns:dc="http://purl.org/dc/elements/1.1/"
   xmlns:cc="http://creativecommons.org/ns#"
   xmlns:rdf="http://www.w3.org/1999/02/22-rdf-syntax-ns#"
   xmlns:svg="http://www.w3.org/2000/svg"
   xmlns="http://www.w3.org/2000/svg"
   xmlns:inkscape="http://www.inkscape.org/namespaces/inkscape"
   version="1.1"
   width="600"
   height="600"
   id="svg20612">
  <defs
     id="defs24" />
  <metadata
     id="metadata20617">
    <rdf:RDF>
      <cc:Work
         rdf:about="">
        <dc:format>image/svg+xml</dc:format>
        <dc:type
           rdf:resource="http://purl.org/dc/dcmitype/StillImage" />
        <dc:title />
      </cc:Work>
    </rdf:RDF>
  </metadata>
  <g
     id="g3017">
    <rect
       width="600"
       height="600"
       rx="37.5"
       ry="37.5"
       x="1.958e-07"
       y="-1.6602e-07"
       id="rect20620" />
    <path
       d="m 30.078,175 h 480.47 l 1.3021,5.8594 3.9062,11.719 1.3021,9.1146 4.5573,8.4635 1.9531,5.8594 -1.9531,7.8125 -0.6511,7.8125 1.9532,14.323 -1.3021,11.719 1.9531,2.6042 -1.3021,7.8125 0.6511,14.974 7.1614,9.7656 5.2084,18.88 0.651,4.5573 6.5104,11.719 4.5573,11.068 3.9063,8.4635 v 6.5104 l 1.9531,3.9062 -1.3021,5.2083 2.6042,29.948 1.3021,11.719 v 11.068 l 3.9062,9.1146 3.9063,3.2552 -0.6511,10.417 -1.3021,4.5573 0.6511,9.7656 -1.9532,7.1615 7.8125,19.531 1.9532,8.4635 11.068,13.672 0.651,12.37 4.5573,17.578 -1.3021,11.719 2.59,6.51 H 12.487 l 17.578,-375"
       inkscape:connector-curvature="0"
       id="path5094"
       style="fill:#ffffff" />
    <g
       transform="translate(-54.286,-175.22)"
       id="text21148"
       style="fill:#ffffff">
      <path
         d="m 129.42,300.22 -14.664,-44.44 v 44.44 h -9.5149 v -75 h 9.5149 l 13.321,37.388 V 225.22 h 9.5149 v 75 h -8.1716"
         inkscape:connector-curvature="0"
         id="path21230" />
      <path
         d="m 188.23,262.61 c -4e-5,2.015 -4e-5,4.403 0,7.1642 -4e-5,2.6866 -0.1493,5.4851 -0.44776,8.3955 -0.22392,2.9105 -0.67168,5.7836 -1.3433,8.6194 -0.59705,2.7612 -1.5672,5.2612 -2.9104,7.5 -1.2687,2.1642 -2.9478,3.9179 -5.0373,5.2612 -2.015,1.3433 -4.5523,2.0149 -7.6119,2.0149 -3.1344,0 -5.7463,-0.67164 -7.8358,-2.0149 -2.0149,-1.3433 -3.694,-3.097 -5.0373,-5.2612 -1.2687,-2.2388 -2.2388,-4.7388 -2.9104,-7.5 -0.59702,-2.8358 -1.0075,-5.7089 -1.2313,-8.6194 -0.22389,-2.9104 -0.33583,-5.7089 -0.33582,-8.3955 -1e-5,-2.6865 -1e-5,-5.0746 0,-7.1642 -1e-5,-2.1641 -1e-5,-4.5895 0,-7.2761 -1e-5,-2.7612 0.11193,-5.5596 0.33582,-8.3955 0.2985,-2.8358 0.78357,-5.597 1.4552,-8.2836 0.67163,-2.7611 1.6418,-5.1865 2.9104,-7.2761 1.2686,-2.1641 2.9104,-3.8805 4.9254,-5.1493 2.0895,-1.3432 4.6642,-2.0148 7.7239,-2.0149 3.0597,7e-5 5.597,0.67171 7.6119,2.0149 2.0895,1.2687 3.7686,2.9852 5.0373,5.1493 1.3432,2.1642 2.3134,4.6269 2.9104,7.3881 0.67161,2.6866 1.1194,5.4478 1.3433,8.2836 0.29846,2.8359 0.44772,5.6344 0.44776,8.3955 -4e-5,2.6866 -4e-5,5.0747 0,7.1642 m -9.9627,0 c -3e-5,-1.0447 -0.0373,-2.4626 -0.11194,-4.2537 -3e-5,-1.791 -0.0747,-3.7313 -0.22388,-5.8209 -0.14928,-2.1641 -0.37316,-4.3283 -0.67164,-6.4925 -0.29854,-2.2387 -0.7463,-4.2537 -1.3433,-6.0448 -0.52242,-1.791 -1.1941,-3.2462 -2.0149,-4.3657 -0.82092,-1.1193 -1.8284,-1.679 -3.0224,-1.6791 -1.4179,7e-5 -2.612,0.59708 -3.5821,1.791 -0.89554,1.1195 -1.6418,2.612 -2.2388,4.4776 -0.52241,1.7911 -0.93286,3.806 -1.2314,6.0448 -0.22389,2.2388 -0.41046,4.4403 -0.5597,6.6045 -0.0746,2.0896 -0.11195,4.0299 -0.11194,5.8209 0.0746,1.7165 0.11193,3.0224 0.11194,3.9179 -1e-5,0.82093 -0.0373,2.1269 -0.11194,3.9179 -10e-6,1.7164 0.0373,3.6568 0.11194,5.8209 0.14924,2.1642 0.33581,4.403 0.5597,6.7164 0.29849,2.3135 0.70894,4.403 1.2314,6.2687 0.59699,1.8657 1.3433,3.4328 2.2388,4.7015 0.97013,1.194 2.1642,1.7911 3.5821,1.791 1.4179,10e-6 2.5746,-0.59701 3.4702,-1.791 0.8955,-1.2686 1.6044,-2.8358 2.1269,-4.7015 0.59698,-1.8656 1.0074,-3.9552 1.2313,-6.2687 0.22385,-2.3134 0.3731,-4.5522 0.44776,-6.7164 0.14923,-2.1642 0.18654,-4.1044 0.11194,-5.8209 -3e-5,-1.791 -3e-5,-3.097 0,-3.9179"
         inkscape:connector-curvature="0"
         id="path21232" />
      <path
         d="m 236.24,246.26 c -5e-5,4.2538 -0.63437,7.6493 -1.903,10.187 -1.1941,2.5374 -3.1717,4.6642 -5.9328,6.3806 l 7.6119,37.388 h -9.7388 l -8.5075,-35.037 h -4.3657 v 35.037 h -9.5149 v -75 h 14.776 c 11.716,7e-5 17.575,7.015 17.575,21.045 m -9.7388,-0.22389 c -3e-5,-4.2537 -0.59705,-7.1641 -1.791,-8.7313 -1.1194,-1.5671 -3.3209,-2.3507 -6.6045,-2.3507 h -4.7015 v 20.485 h 6.2687 c 2.6119,4e-5 4.403,-0.6716 5.3731,-2.0149 0.97011,-1.3432 1.4552,-3.8059 1.4552,-7.3881"
         inkscape:connector-curvature="0"
         id="path21234" />
      <path
         d="m 262.6,234.96 v 65.261 h -9.5149 V 234.96 h -9.1791 v -9.7388 h 28.433 v 9.7388 h -9.7388"
         inkscape:connector-curvature="0"
         id="path21236" />
      <path
         d="m 307.46,300.22 v -35.037 h -13.321 v 35.037 h -9.5149 v -75 h 9.5149 v 30.224 H 307.46 V 225.22 h 9.5149 v 75 H 307.46"
         inkscape:connector-curvature="0"
         id="path21238" />
      <path
         d="m 383.71,262.61 c -4e-5,17.463 -2.2762,28.769 -6.8284,33.918 -1.0448,1.194 -2.4627,2.1269 -4.2537,2.7985 -1.7164,0.59701 -3.6194,0.89552 -5.709,0.89552 h -15.56 v -75 h 15.56 c 5.2238,7e-5 8.9925,1.8284 11.306,5.4851 0.89548,1.4926 1.6791,3.3956 2.3507,5.709 0.74623,2.2389 1.2686,4.5523 1.5672,6.9403 0.52235,3.0598 0.89548,6.2314 1.1194,9.5149 0.29847,3.2836 0.44772,6.5299 0.44776,9.7388 m -9.7388,2.3508 c -3e-5,-1.3432 -0.0373,-2.8358 -0.11194,-4.4776 -0.0747,-1.7164 -0.14928,-3.4328 -0.22388,-5.1492 -0.0746,-1.791 -0.14928,-3.5074 -0.22388,-5.1492 -0.0746,-1.6417 -0.14928,-3.1343 -0.22388,-4.4776 -0.37316,-4.1044 -1.0448,-6.9029 -2.0149,-8.3955 -0.89555,-1.5671 -2.3135,-2.3507 -4.2537,-2.3507 h -6.0448 v 55.522 h 6.0448 c 1.7164,1e-5 3.0597,-0.597 4.0298,-1.791 0.97012,-1.2686 1.7164,-3.3209 2.2388,-6.1567 0.0746,-0.67162 0.14923,-1.6418 0.22388,-2.9104 0.0746,-1.2686 0.14923,-2.7238 0.22388,-4.3657 0.0746,-1.6418 0.14923,-3.3582 0.22388,-5.1492 0.0746,-1.791 0.11191,-3.5074 0.11194,-5.1492"
         inkscape:connector-curvature="0"
         id="path21240" />
      <path
         d="m 424.12,300.22 -4.2537,-20.037 h -12.313 l -4.2537,20.037 h -9.7388 l 15.336,-75 h 9.6269 l 15.56,75 h -9.9627 m -10.298,-49.478 -4.1418,19.701 h 8.0597 l -3.9179,-19.701"
         inkscape:connector-curvature="0"
         id="path21242" />
      <path
         d="m 469.25,300.22 -10.075,-35.485 -3.5821,7.2761 v 28.209 h -9.5149 v -75 h 9.5149 v 23.955 l 11.754,-23.955 h 11.082 l -12.313,25.746 13.321,49.254 h -10.187"
         inkscape:connector-curvature="0"
         id="path21244" />
      <path
         d="m 525.8,262.61 c -4e-5,2.015 -4e-5,4.403 0,7.1642 -4e-5,2.6866 -0.1493,5.4851 -0.44776,8.3955 -0.22392,2.9105 -0.67168,5.7836 -1.3433,8.6194 -0.59705,2.7612 -1.5672,5.2612 -2.9104,7.5 -1.2687,2.1642 -2.9478,3.9179 -5.0373,5.2612 -2.015,1.3433 -4.5523,2.0149 -7.6119,2.0149 -3.1344,0 -5.7463,-0.67164 -7.8358,-2.0149 -2.0149,-1.3433 -3.694,-3.097 -5.0373,-5.2612 -1.2687,-2.2388 -2.2388,-4.7388 -2.9104,-7.5 -0.59702,-2.8358 -1.0075,-5.7089 -1.2313,-8.6194 -0.22389,-2.9104 -0.33583,-5.7089 -0.33582,-8.3955 -1e-5,-2.6865 -1e-5,-5.0746 0,-7.1642 -1e-5,-2.1641 -1e-5,-4.5895 0,-7.2761 -1e-5,-2.7612 0.11193,-5.5596 0.33582,-8.3955 0.2985,-2.8358 0.78357,-5.597 1.4552,-8.2836 0.67163,-2.7611 1.6418,-5.1865 2.9104,-7.2761 1.2686,-2.1641 2.9104,-3.8805 4.9254,-5.1493 2.0895,-1.3432 4.6642,-2.0148 7.7239,-2.0149 3.0597,7e-5 5.597,0.67171 7.6119,2.0149 2.0895,1.2687 3.7686,2.9852 5.0373,5.1493 1.3432,2.1642 2.3134,4.6269 2.9104,7.3881 0.67161,2.6866 1.1194,5.4478 1.3433,8.2836 0.29846,2.8359 0.44772,5.6344 0.44776,8.3955 -4e-5,2.6866 -4e-5,5.0747 0,7.1642 m -9.9627,0 c -3e-5,-1.0447 -0.0373,-2.4626 -0.11194,-4.2537 -3e-5,-1.791 -0.0747,-3.7313 -0.22388,-5.8209 -0.14928,-2.1641 -0.37316,-4.3283 -0.67164,-6.4925 -0.29854,-2.2387 -0.7463,-4.2537 -1.3433,-6.0448 -0.52242,-1.791 -1.1941,-3.2462 -2.0149,-4.3657 -0.82092,-1.1193 -1.8284,-1.679 -3.0224,-1.6791 -1.4179,7e-5 -2.612,0.59708 -3.5821,1.791 -0.89554,1.1195 -1.6418,2.612 -2.2388,4.4776 -0.52241,1.7911 -0.93286,3.806 -1.2314,6.0448 -0.22389,2.2388 -0.41046,4.4403 -0.5597,6.6045 -0.0746,2.0896 -0.11195,4.0299 -0.11194,5.8209 0.0746,1.7165 0.11193,3.0224 0.11194,3.9179 -10e-6,0.82093 -0.0373,2.1269 -0.11194,3.9179 -10e-6,1.7164 0.0373,3.6568 0.11194,5.8209 0.14924,2.1642 0.33581,4.403 0.5597,6.7164 0.29849,2.3135 0.70894,4.403 1.2314,6.2687 0.59699,1.8657 1.3433,3.4328 2.2388,4.7015 0.97013,1.194 2.1642,1.7911 3.5821,1.791 1.4179,10e-6 2.5746,-0.59701 3.4702,-1.791 0.8955,-1.2686 1.6044,-2.8358 2.1269,-4.7015 0.59698,-1.8656 1.0074,-3.9552 1.2313,-6.2687 0.22385,-2.3134 0.3731,-4.5522 0.44776,-6.7164 0.14922,-2.1642 0.18654,-4.1044 0.11194,-5.8209 -3e-5,-1.791 -3e-5,-3.097 0,-3.9179"
         inkscape:connector-curvature="0"
         id="path21246" />
      <path
         d="m 554.33,234.96 v 65.261 h -9.5149 V 234.96 h -9.1791 v -9.7388 h 28.433 v 9.7388 h -9.7388"
         inkscape:connector-curvature="0"
         id="path21248" />
      <path
         d="m 601.1,300.22 -4.2537,-20.037 h -12.313 l -4.2537,20.037 h -9.7388 l 15.336,-75 h 9.6269 l 15.56,75 h -9.9627 m -10.299,-49.478 -4.1418,19.701 h 8.0597 l -3.9179,-19.701"
         inkscape:connector-curvature="0"
         id="path21250" />
    </g>
  </g>
  <g
     id="routenum">
    <path
       d="m 248.57,412.71 c -2.3e-4,15.224 -2.5375,29.254 -7.6119,42.09 -5.0748,12.836 -12.239,23.881 -21.493,33.134 -8.9554,8.9552 -19.851,16.119 -32.687,21.493 -12.537,5.0746 -26.418,7.6119 -41.642,7.6119 -12.239,0 -23.731,-1.9403 -34.478,-5.8209 -10.448,-3.8806 -20.149,-9.2537 -29.104,-16.119 -8.6568,-6.8656 -16.119,-15.224 -22.388,-25.075 -6.2687,-9.8507 -10.896,-20.895 -13.881,-33.134 l 46.567,-13.43 c 3.582,14.627 10.149,25.821 19.701,33.582 9.5521,7.7612 21.492,11.642 35.821,11.642 8.0596,4e-5 15.373,-1.3432 21.94,-4.0298 6.567,-2.6865 12.089,-6.2686 16.567,-10.746 4.776,-4.7761 8.5073,-10.298 11.194,-16.567 2.6864,-6.5671 4.0297,-13.731 4.0298,-21.493 -1.8e-4,-7.7611 -1.4927,-15.075 -4.4776,-21.94 -2.9852,-6.8656 -7.1644,-12.239 -12.537,-16.119 -1.7912,-1.1939 -3.433,-2.0894 -4.9254,-2.6866 -1.1942,-0.89538 -2.836,-1.4924 -4.9254,-1.791 -1.7912,-0.29837 -4.3285,-0.59688 -7.6119,-0.89553 -2.9852,-0.29836 -7.3136,-0.59687 -12.985,-0.89552 h -5.3731 v -48.358 1.3433 h 1.3433 0.89552 9.403 c 9.5521,1.9e-4 16.866,-2.5371 21.94,-7.6119 5.0745,-5.0744 7.6118,-12.388 7.6119,-21.94 -1.7e-4,-11.642 -4.1793,-21.194 -12.537,-28.657 -8.0598,-7.7609 -18.209,-11.642 -30.448,-11.642 -20,2.5e-4 -35.075,9.851 -45.224,29.552 l -44.318,-16.56 c 7.7612,-19.104 19.403,-34.03 34.925,-44.776 15.821,-11.044 33.582,-16.567 53.284,-16.567 12.537,3e-4 24.328,2.3884 35.373,7.1642 11.343,4.7764 21.194,11.344 29.552,19.701 8.358,8.3585 14.925,18.209 19.701,29.552 4.7759,11.045 7.164,22.836 7.1642,35.373 -2.2e-4,8.9554 -1.1942,17.015 -3.5821,24.179 -2.3883,7.1644 -6.8659,15.523 -13.433,25.075 5.6714,5.0748 10.298,10 13.881,14.776 3.5819,4.4778 6.4177,9.2539 8.5075,14.328 2.3878,5.0748 4.0296,10.597 4.9254,16.567 0.89529,5.6718 1.343,12.239 1.3433,19.701"
       inkscape:connector-curvature="0"
       id="path3000" />
    <path
       d="m 521.34,362.11 c -2.4e-4,23.881 -2.8361,46.717 -8.5075,68.507 -5.6719,21.791 -13.732,39.403 -24.179,52.836 -16.717,22.388 -40.896,33.582 -72.537,33.582 -21.194,0 -38.657,-4.3284 -52.388,-12.985 -13.731,-8.6567 -25.075,-22.239 -34.03,-40.746 -6.2687,-12.836 -11.343,-28.358 -15.224,-46.567 -3.8806,-18.507 -5.8209,-36.716 -5.8209,-54.627 -3e-5,-24.776 2.8358,-47.761 8.5075,-68.955 5.9701,-21.194 14.03,-38.955 24.179,-53.284 8.9552,-11.343 19.552,-19.701 31.791,-25.075 12.537,-5.6713 27.463,-8.5072 44.776,-8.5075 19.104,3e-4 35.373,4.3287 48.806,12.985 13.433,8.657 24.925,22.239 34.478,40.746 6.2684,13.433 11.194,29.105 14.776,47.015 3.5818,17.911 5.3729,36.269 5.3731,55.075 m -47.463,0 c -1.9e-4,-17.015 -1.4927,-32.686 -4.4776,-47.015 -2.9853,-14.627 -7.4629,-27.015 -13.433,-37.164 -4.7763,-7.761 -10.299,-13.433 -16.567,-17.015 -5.9703,-3.5818 -13.433,-5.6714 -22.388,-6.2686 -11.642,-0.59676 -21.343,2.0898 -29.104,8.0597 -7.7613,5.9704 -14.179,15.672 -19.254,29.104 -3.8807,8.9554 -6.8658,19.851 -8.9552,32.687 -1.7911,12.537 -2.6866,25.075 -2.6866,37.612 -8e-5,16.12 1.4925,31.642 4.4776,46.567 2.985,14.925 7.4626,27.164 13.433,36.716 4.776,7.7612 10.448,13.582 17.015,17.463 6.567,3.8806 14.627,5.8209 24.179,5.8209 11.045,4e-5 20.149,-2.985 27.313,-8.9552 7.4625,-5.9701 13.731,-15.672 18.806,-29.104 1.4924,-3.8805 2.9849,-8.5074 4.4776,-13.881 1.4924,-5.6715 2.6864,-11.492 3.5821,-17.463 1.1938,-6.2685 2.0894,-12.537 2.6866,-18.806 0.59682,-6.2685 0.89533,-12.388 0.89552,-18.358"
       inkscape:connector-curvature="0"
       id="path3002" />
  </g>
</svg>
