<?xml version="1.0" encoding="UTF-8" standalone="no"?>
<!-- Created with Inkscape (http://www.inkscape.org/) -->
<svg
   xmlns:dc="http://purl.org/dc/elements/1.1/"
   xmlns:cc="http://web.resource.org/cc/"
   xmlns:rdf="http://www.w3.org/1999/02/22-rdf-syntax-ns#"
   xmlns:svg="http://www.w3.org/2000/svg"
   xmlns="http://www.w3.org/2000/svg"
   xmlns:sodipodi="http://sodipodi.sourceforge.net/DTD/sodipodi-0.dtd"
   xmlns:inkscape="http://www.inkscape.org/namespaces/inkscape"
   width="600"
   height="600"
   id="svg2"
   sodipodi:version="0.32"
   inkscape:version="0.44"
   version="1.0"
   sodipodi:docbase="C:\Documents and Settings\Geoffrey\My Documents\Nevada shields"
   sodipodi:docname="Nevada 278.svg">
  <defs
     id="defs4" />
  <sodipodi:namedview
     id="base"
     pagecolor="#ffffff"
     bordercolor="#666666"
     borderopacity="1.0"
     gridtolerance="10000"
     guidetolerance="10"
     objecttolerance="10"
     inkscape:pageopacity="0.0"
     inkscape:pageshadow="2"
     inkscape:zoom="0.84666667"
     inkscape:cx="300"
     inkscape:cy="300"
     inkscape:document-units="px"
     inkscape:current-layer="layer4"
     width="600px"
     height="600px"
     showgrid="true"
     units="px"
     gridspacingx="16.66px"
     gridspacingy="16.66px"
     grid_units="px"
     gridempspacing="3"
     inkscape:window-width="997"
     inkscape:window-height="704"
     inkscape:window-x="275"
     inkscape:window-y="0"
     inkscape:grid-points="true"
     showguides="true"
     inkscape:object-nodes="false"
     inkscape:object-points="false" />
  <metadata
     id="metadata7">
    <rdf:RDF>
      <cc:Work
         rdf:about="">
        <dc:format>image/svg+xml</dc:format>
        <dc:type
           rdf:resource="http://purl.org/dc/dcmitype/StillImage" />
        <cc:license
           rdf:resource="" />
      </cc:Work>
    </rdf:RDF>
  </metadata>
  <g
     inkscape:label="Background"
     inkscape:groupmode="layer"
     id="layer1"
     transform="translate(-765.0002,-539.9991)">
    <path
       style="fill:black;fill-opacity:1;fill-rule:evenodd;stroke:black;stroke-width:0.19601439px;stroke-linecap:butt;stroke-linejoin:miter;stroke-opacity:1"
       d="M 765.09821,593.02099 C 765.09821,540.09709 818.02209,540.09709 818.02209,540.09709 C 818.02209,540.09709 1259.0544,540.09709 1311.9783,540.09709 C 1364.9022,540.09709 1364.9022,593.02099 1364.9022,593.02099 C 1364.9022,593.02099 1364.9022,1034.0533 1364.9022,1086.9773 C 1364.9022,1139.9011 1311.9783,1139.9011 1311.9783,1139.9011 C 1311.9783,1139.9011 870.94597,1139.9011 818.02209,1139.9011 C 765.09821,1139.9011 765.09821,1086.9773 765.09821,1086.9773 L 765.09821,593.02099 z "
       id="path1888" />
  </g>
  <g
     inkscape:groupmode="layer"
     id="layer2"
     inkscape:label="Nevada shape"
     transform="translate(-765.0002,-539.9991)">
    <path
       style="opacity:1;fill:white;fill-opacity:1"
       d="M 1262.4285,1106.6791 C 1263.9325,1102.7233 1261.8099,1097.5929 1256.4957,1092.3396 C 1245.9376,1081.9022 1244.3737,1079.5799 1244.3737,1074.3391 C 1244.3737,1070.6947 1243.7825,1068.7685 1242.0139,1066.6499 C 1240.417,1064.7371 1239.4913,1062.0918 1239.1506,1058.4682 C 1238.6992,1053.667 1238.2026,1052.7303 1234.3483,1049.4108 C 1230.3004,1045.9245 1230.086,1045.4783 1230.6748,1041.7658 C 1231.0894,1039.1521 1232.1899,1037.149 1233.9397,1035.8232 C 1235.3914,1034.7232 1238.2638,1032.0991 1240.3226,1029.9919 C 1243.222,1027.0245 1244.6986,1026.2353 1246.8714,1026.4919 C 1249.261,1026.7741 1249.8791,1027.5205 1251.0425,1031.5285 C 1252.3315,1035.9697 1255.3355,1039.3232 1258.0248,1039.3232 C 1260.1156,1039.3232 1262.3737,1036.2862 1262.3737,1033.4742 C 1262.3737,1031.9859 1263.0852,1029.7524 1263.9547,1028.511 C 1265.0968,1026.8804 1265.947,1023.145 1265.9255,1015.0385 L 1264.8002,590.2191 L 864.9602,590.2191 L 864.9602,806.7991 L 960.5202,882.0791 L 864.9602,881.7691 L 864.9602,990.0591 L 1106.5302,990.0591 L 1254.2458,1105.5375 C 1259.8378,1109.9091 1261.1032,1110.1647 1262.4285,1106.6791 z "
       id="path2226"
       sodipodi:nodetypes="csssssssssssssscccccccsc" />
  </g>
  <g
     inkscape:groupmode="layer"
     id="layer3"
     inkscape:label="NEVADA text"
     transform="translate(-765.0002,-539.9991)"
     style="opacity:1">
    <path
       style="font-size:144px;opacity:1;font-family:Roadgeek 2005 Series D"
       d="M 929.42752,973.5991 L 902.2802,927.8391 L 902.2802,973.5991 L 889.8002,973.5991 L 889.8002,898.7191 L 902.2802,898.7191 L 927.2402,940.3191 L 927.2402,898.7191 L 939.7202,898.7191 L 939.7202,973.5991 L 929.42752,973.5991 z "
       id="path3274"
       sodipodi:nodetypes="ccccccccccc" />
    <path
       style="font-size:144px;opacity:1;font-family:Roadgeek 2005 Series D"
       d="M 953.8365,973.5991 L 953.8365,898.7191 L 997.9602,898.7191 L 997.9602,911.1991 L 968.8402,911.1991 L 968.8402,927.8391 L 989.6402,927.8391 L 989.6402,940.3191 L 968.8402,940.3191 L 968.8402,961.1191 L 1002.1202,961.52902 L 1002.1202,973.5991 L 953.8365,973.5991 z "
       id="path3272"
       sodipodi:nodetypes="ccccccccccccc" />
    <path
       style="font-size:144px;opacity:1;font-family:Roadgeek 2005 Series D"
       d="M 1041.6233,973.5991 L 1032.9261,973.5991 L 1010.4402,898.7191 L 1022.2125,898.7191 L 1037.3798,948.67773 L 1052.3338,898.7191 L 1064.3194,898.7191 L 1041.6233,973.5991 z "
       id="path3270" />
    <path
       id="path3268"
       style="font-size:144px;font-family:Roadgeek 2005 Series D"
       d="M 1110.7744,973.5991 L 1103.7733,952.58971 L 1081.6078,952.58971 L 1074.6067,973.5991 L 1062.621,973.5991 L 1087.1233,898.7191 L 1098.2579,898.7191 L 1122.7602,973.5991 L 1110.7744,973.5991 z M 1092.8491,919.50682 L 1085.5307,940.51964 L 1099.7436,940.51964 L 1092.8491,919.50682 z " />
    <path
       id="path3264"
       style="font-size:144px;font-family:Roadgeek 2005 Series D"
       d="M 1181.0002,936.0483 C 1181.0002,943.57445 1179.9216,950.18697 1177.765,955.88607 C 1175.6081,961.58527 1172.5143,966.07411 1168.4834,969.35287 C 1167.1392,970.69441 1165.5656,971.6999 1163.7627,972.36951 C 1161.9597,973.0392 1160.1392,973.44904 1158.3007,973.5991 L 1154.2709,973.5991 L 1132.6331,973.5991 L 1132.6331,898.7191 L 1155.543,898.7191 C 1157.3124,898.7192 1158.8508,898.77545 1160.1585,898.88794 C 1161.4662,899.00061 1162.6503,899.20586 1163.711,899.50364 C 1164.7715,899.80151 1165.7257,900.21135 1166.5739,900.73313 C 1167.4219,901.25501 1168.3411,901.88769 1169.3316,902.63108 C 1173.0798,906.05998 1175.9614,910.62393 1177.977,916.32296 C 1179.9924,922.02216 1181.0002,928.59719 1181.0002,936.0483 L 1181.0002,936.0483 z M 1169.5453,936.0483 C 1169.5452,930.98242 1169.0322,926.47478 1168.0062,922.52516 C 1166.98,918.57573 1165.5834,915.63241 1163.8161,913.69512 C 1162.8968,912.8016 1161.8362,912.05686 1160.6344,911.46112 C 1159.4324,910.86546 1158.0892,910.56759 1156.6046,910.5675 L 1143.8775,910.5675 L 1143.8775,961.52902 L 1155.119,961.52902 C 1156.9573,961.52902 1158.4953,961.30564 1159.733,960.85879 C 1160.9705,960.41202 1162.0844,959.66676 1163.0749,958.62317 C 1165.196,956.38801 1166.8048,953.31448 1167.9009,949.40242 C 1168.9971,945.49063 1169.5452,941.03917 1169.5453,936.0483 L 1169.5453,936.0483 z " />
    <path
       id="path3260"
       style="font-size:144px;font-family:Roadgeek 2005 Series D"
       d="M 1235.5744,973.5991 L 1228.5733,952.58971 L 1206.4079,952.58971 L 1199.4066,973.5991 L 1187.4209,973.5991 L 1211.9233,898.7191 L 1223.0577,898.7191 L 1247.5602,973.5991 L 1235.5744,973.5991 z M 1217.6492,919.50682 L 1210.3308,940.51964 L 1224.5435,940.51964 L 1217.6492,919.50682 z " />
  </g>
  <g
     inkscape:groupmode="layer"
     id="layer4"
     inkscape:label="Route number">
    <path
       transform="matrix(2.668367,0,0,2.668367,-501.8844,-268.9826)"
       style="font-size:72px;font-weight:normal;text-align:center;text-anchor:middle"
       d="M 243.2605,200.15665 C 243.35571,197.32511 243.71533,194.73307 244.33936,192.38053 C 244.96337,190.028 245.94775,187.70036 247.29248,185.39761 C 248.30028,183.57244 249.54796,181.87981 251.03552,180.31973 C 252.52306,178.7597 254.10692,177.35565 255.78711,176.10758 C 256.21922,175.86883 256.60338,175.61724 256.93958,175.35282 C 257.27574,175.08844 257.61155,174.83612 257.94702,174.59586 L 260.53979,173.22916 L 262.91504,171.86026 L 265.21997,170.56387 C 266.17942,169.93988 266.95908,169.15985 267.55896,168.22379 C 268.15878,167.28778 268.45871,166.31586 268.45874,165.30802 C 268.45871,164.39692 268.21884,163.54511 267.73914,162.7526 C 267.25937,161.96015 266.62363,161.27607 265.83191,160.70035 C 265.04013,160.12471 264.11619,159.66877 263.06006,159.33255 C 262.00388,158.99641 260.87595,158.82832 259.67627,158.82828 C 257.2285,158.82832 255.2484,159.40437 253.73596,160.55643 C 252.2235,161.70857 251.27538,163.38837 250.8916,165.59586 L 243.2605,163.94132 C 244.07641,159.90864 245.94811,156.75227 248.87561,154.4722 C 251.80309,152.19222 255.4033,151.05221 259.67627,151.05216 C 261.98045,151.05221 264.12827,151.43636 266.11975,152.20462 C 268.11118,152.97298 269.83896,154.00496 271.3031,155.30057 C 272.76718,156.59627 273.93136,158.12007 274.79565,159.87198 C 275.65987,161.62397 276.092,163.48432 276.09204,165.45303 C 276.092,167.32514 275.67196,169.16095 274.83191,170.96048 C 273.99179,172.76007 272.78,174.35638 271.19653,175.74942 C 270.81271,176.03656 270.46481,176.30023 270.15283,176.54044 C 269.84079,176.78069 269.51633,176.97259 269.17944,177.11612 L 266.8042,178.62784 L 264.21143,179.99674 L 261.83618,181.36563 C 260.68333,182.03655 259.66306,182.74407 258.77539,183.48819 C 257.88768,184.23235 257.07176,185.03655 256.32764,185.90079 C 255.58348,186.76506 254.88731,187.72526 254.23914,188.7814 C 253.59093,189.83757 252.97899,191.03727 252.40332,192.38053 L 276.09204,192.38053 L 276.09204,200.15665 L 243.2605,200.15665 z M 316.90845,159.54898 C 316.47628,160.07637 316.08004,160.5561 315.71973,160.98819 C 315.35934,161.42036 315.02316,161.85249 314.71118,162.28458 C 314.39914,162.71674 314.07541,163.17268 313.73999,163.65238 C 313.40451,164.13215 313.04416,164.68403 312.65894,165.30802 C 310.49973,168.86029 308.66428,172.60443 307.15259,176.54044 C 305.64084,180.47649 304.47629,184.38835 303.65894,188.27603 C 303.51536,189.28386 303.3718,190.25578 303.22827,191.1918 C 303.08469,192.12785 302.97666,193.06388 302.90417,193.99991 C 302.83164,194.93595 302.77158,195.89615 302.724,196.88053 C 302.67637,197.8649 302.65257,198.95694 302.65259,200.15665 L 294.87646,200.15665 C 294.92479,197.37198 295.09288,194.684 295.38074,192.09268 C 295.66856,189.50139 296.08824,186.95769 296.63977,184.46158 C 297.19127,181.9655 297.89915,179.4815 298.76343,177.00955 C 299.62767,174.53766 300.65965,172.02948 301.85938,169.48502 C 302.67527,167.66132 303.56333,165.8852 304.52356,164.15665 C 305.48374,162.42817 306.39597,160.89228 307.26025,159.54898 L 284.21973,159.54898 L 284.21973,151.91568 L 316.90845,151.91568 L 316.90845,159.54898 L 316.90845,159.54898 z M 357.93579,184.74942 C 357.93575,186.95695 357.49154,189.04472 356.60315,191.01273 C 355.71469,192.98075 354.51461,194.7089 353.00293,196.19718 C 351.49118,197.68546 349.75131,198.86136 347.78333,199.72489 C 345.81528,200.58841 343.72752,201.02017 341.52002,201.02017 C 339.31102,201.02017 337.22252,200.58841 335.25452,199.72489 C 333.28649,198.86136 331.54662,197.68546 330.03491,196.19718 C 328.52319,194.7089 327.32348,192.98075 326.43579,191.01273 C 325.54809,189.04472 325.10424,186.95695 325.10425,184.74942 C 325.10424,182.44524 325.58398,180.36919 326.54346,178.52127 C 327.50292,176.6734 328.87109,175.02948 330.64795,173.58951 C 328.2954,171.09344 327.11913,168.16523 327.11914,164.80484 C 327.11913,162.93281 327.50329,161.16877 328.27161,159.51273 C 329.03991,157.85676 330.08397,156.39265 331.40381,155.12039 C 332.72362,153.84822 334.24742,152.85213 335.97522,152.13211 C 337.70299,151.41219 339.55125,151.05221 341.52002,151.05216 C 343.44041,151.05221 345.28831,151.41219 347.06372,152.13211 C 348.83908,152.85213 350.38705,153.84822 351.70764,155.12039 C 353.02817,156.39265 354.08432,157.85676 354.8761,159.51273 C 355.66781,161.16877 356.06368,162.93281 356.06372,164.80484 C 356.06368,166.48505 355.73959,168.05719 355.09143,169.52127 C 354.4432,170.98541 353.51925,172.34149 352.31958,173.58951 C 354.19162,175.02948 355.59567,176.6972 356.53174,178.59268 C 357.46774,180.48821 357.93575,182.54045 357.93579,184.74942 L 357.93579,184.74942 z M 348.2876,164.58951 C 348.28757,163.00459 347.62766,161.64814 346.30786,160.52017 C 344.98801,159.39228 343.39207,158.82832 341.52002,158.82828 C 339.64793,158.82832 338.05198,159.39228 336.73218,160.52017 C 335.41234,161.64814 334.75243,163.00459 334.75244,164.58951 C 334.75243,166.02948 335.41234,167.26545 336.73218,168.2974 C 338.05198,169.32941 339.64793,169.8454 341.52002,169.84537 C 343.39207,169.8454 344.98801,169.32941 346.30786,168.2974 C 347.62766,167.26545 348.28757,166.02948 348.2876,164.58951 L 348.2876,164.58951 z M 350.30249,184.89224 C 350.30246,183.88445 350.06259,182.93669 349.58289,182.04898 C 349.10312,181.16131 348.46738,180.39336 347.67566,179.74515 C 346.88388,179.09698 345.95994,178.58099 344.90381,178.19718 C 343.84763,177.81341 342.7197,177.62151 341.52002,177.62149 C 340.32029,177.62151 339.20445,177.81341 338.17249,178.19718 C 337.14049,178.58099 336.22826,179.09698 335.43579,179.74515 C 334.6433,180.39336 334.01927,181.16131 333.56372,182.04898 C 333.10814,182.93669 332.88036,183.88445 332.88037,184.89224 C 332.88036,186.04509 333.10814,187.12541 333.56372,188.13321 C 334.01927,189.14103 334.6433,190.02873 335.43579,190.7963 C 336.22826,191.56388 337.14049,192.16374 338.17249,192.59586 C 339.20445,193.02799 340.32029,193.24406 341.52002,193.24405 C 342.7197,193.24406 343.85972,193.02799 344.94006,192.59586 C 346.02036,192.16374 346.95639,191.56388 347.74817,190.7963 C 348.53989,190.02873 349.16355,189.14103 349.61914,188.13321 C 350.07468,187.12541 350.30246,186.04509 350.30249,184.89224 L 350.30249,184.89224 z "
       id="flowRoot2198" />
  </g>
</svg>
