<?xml version="1.0" encoding="UTF-8" standalone="no"?>
<!-- Created with Inkscape (http://www.inkscape.org/) -->
<svg
   xmlns:dc="http://purl.org/dc/elements/1.1/"
   xmlns:cc="http://web.resource.org/cc/"
   xmlns:rdf="http://www.w3.org/1999/02/22-rdf-syntax-ns#"
   xmlns:svg="http://www.w3.org/2000/svg"
   xmlns="http://www.w3.org/2000/svg"
   xmlns:sodipodi="http://sodipodi.sourceforge.net/DTD/sodipodi-0.dtd"
   xmlns:inkscape="http://www.inkscape.org/namespaces/inkscape"
   width="600"
   height="600"
   id="svg2"
   sodipodi:version="0.32"
   inkscape:version="0.44"
   version="1.0"
   sodipodi:docbase="C:\Documents and Settings\Geoffrey\My Documents\Nevada shields"
   sodipodi:docname="Nevada 305.svg">
  <defs
     id="defs4" />
  <sodipodi:namedview
     id="base"
     pagecolor="#ffffff"
     bordercolor="#666666"
     borderopacity="1.0"
     gridtolerance="10000"
     guidetolerance="10"
     objecttolerance="10"
     inkscape:pageopacity="0.0"
     inkscape:pageshadow="2"
     inkscape:zoom="0.84666667"
     inkscape:cx="300"
     inkscape:cy="300"
     inkscape:document-units="px"
     inkscape:current-layer="layer4"
     width="600px"
     height="600px"
     showgrid="true"
     units="px"
     gridspacingx="16.66px"
     gridspacingy="16.66px"
     grid_units="px"
     gridempspacing="3"
     inkscape:window-width="997"
     inkscape:window-height="704"
     inkscape:window-x="275"
     inkscape:window-y="0"
     inkscape:grid-points="true"
     showguides="true"
     inkscape:object-nodes="false"
     inkscape:object-points="false" />
  <metadata
     id="metadata7">
    <rdf:RDF>
      <cc:Work
         rdf:about="">
        <dc:format>image/svg+xml</dc:format>
        <dc:type
           rdf:resource="http://purl.org/dc/dcmitype/StillImage" />
        <cc:license
           rdf:resource="" />
      </cc:Work>
    </rdf:RDF>
  </metadata>
  <g
     inkscape:label="Background"
     inkscape:groupmode="layer"
     id="layer1"
     transform="translate(-765.0002,-539.9991)">
    <path
       style="fill:black;fill-opacity:1;fill-rule:evenodd;stroke:black;stroke-width:0.19601439px;stroke-linecap:butt;stroke-linejoin:miter;stroke-opacity:1"
       d="M 765.09821,593.02099 C 765.09821,540.09709 818.02209,540.09709 818.02209,540.09709 C 818.02209,540.09709 1259.0544,540.09709 1311.9783,540.09709 C 1364.9022,540.09709 1364.9022,593.02099 1364.9022,593.02099 C 1364.9022,593.02099 1364.9022,1034.0533 1364.9022,1086.9773 C 1364.9022,1139.9011 1311.9783,1139.9011 1311.9783,1139.9011 C 1311.9783,1139.9011 870.94597,1139.9011 818.02209,1139.9011 C 765.09821,1139.9011 765.09821,1086.9773 765.09821,1086.9773 L 765.09821,593.02099 z "
       id="path1888" />
  </g>
  <g
     inkscape:groupmode="layer"
     id="layer2"
     inkscape:label="Nevada shape"
     transform="translate(-765.0002,-539.9991)">
    <path
       style="opacity:1;fill:white;fill-opacity:1"
       d="M 1262.4285,1106.6791 C 1263.9325,1102.7233 1261.8099,1097.5929 1256.4957,1092.3396 C 1245.9376,1081.9022 1244.3737,1079.5799 1244.3737,1074.3391 C 1244.3737,1070.6947 1243.7825,1068.7685 1242.0139,1066.6499 C 1240.417,1064.7371 1239.4913,1062.0918 1239.1506,1058.4682 C 1238.6992,1053.667 1238.2026,1052.7303 1234.3483,1049.4108 C 1230.3004,1045.9245 1230.086,1045.4783 1230.6748,1041.7658 C 1231.0894,1039.1521 1232.1899,1037.149 1233.9397,1035.8232 C 1235.3914,1034.7232 1238.2638,1032.0991 1240.3226,1029.9919 C 1243.222,1027.0245 1244.6986,1026.2353 1246.8714,1026.4919 C 1249.261,1026.7741 1249.8791,1027.5205 1251.0425,1031.5285 C 1252.3315,1035.9697 1255.3355,1039.3232 1258.0248,1039.3232 C 1260.1156,1039.3232 1262.3737,1036.2862 1262.3737,1033.4742 C 1262.3737,1031.9859 1263.0852,1029.7524 1263.9547,1028.511 C 1265.0968,1026.8804 1265.947,1023.145 1265.9255,1015.0385 L 1264.8002,590.2191 L 864.9602,590.2191 L 864.9602,806.7991 L 960.5202,882.0791 L 864.9602,881.7691 L 864.9602,990.0591 L 1106.5302,990.0591 L 1254.2458,1105.5375 C 1259.8378,1109.9091 1261.1032,1110.1647 1262.4285,1106.6791 z "
       id="path2226"
       sodipodi:nodetypes="csssssssssssssscccccccsc" />
  </g>
  <g
     inkscape:groupmode="layer"
     id="layer3"
     inkscape:label="NEVADA text"
     transform="translate(-765.0002,-539.9991)"
     style="opacity:1">
    <path
       style="font-size:144px;opacity:1;font-family:Roadgeek 2005 Series D"
       d="M 929.42752,973.5991 L 902.2802,927.8391 L 902.2802,973.5991 L 889.8002,973.5991 L 889.8002,898.7191 L 902.2802,898.7191 L 927.2402,940.3191 L 927.2402,898.7191 L 939.7202,898.7191 L 939.7202,973.5991 L 929.42752,973.5991 z "
       id="path3274"
       sodipodi:nodetypes="ccccccccccc" />
    <path
       style="font-size:144px;opacity:1;font-family:Roadgeek 2005 Series D"
       d="M 953.8365,973.5991 L 953.8365,898.7191 L 997.9602,898.7191 L 997.9602,911.1991 L 968.8402,911.1991 L 968.8402,927.8391 L 989.6402,927.8391 L 989.6402,940.3191 L 968.8402,940.3191 L 968.8402,961.1191 L 1002.1202,961.52902 L 1002.1202,973.5991 L 953.8365,973.5991 z "
       id="path3272"
       sodipodi:nodetypes="ccccccccccccc" />
    <path
       style="font-size:144px;opacity:1;font-family:Roadgeek 2005 Series D"
       d="M 1041.6233,973.5991 L 1032.9261,973.5991 L 1010.4402,898.7191 L 1022.2125,898.7191 L 1037.3798,948.67773 L 1052.3338,898.7191 L 1064.3194,898.7191 L 1041.6233,973.5991 z "
       id="path3270" />
    <path
       id="path3268"
       style="font-size:144px;font-family:Roadgeek 2005 Series D"
       d="M 1110.7744,973.5991 L 1103.7733,952.58971 L 1081.6078,952.58971 L 1074.6067,973.5991 L 1062.621,973.5991 L 1087.1233,898.7191 L 1098.2579,898.7191 L 1122.7602,973.5991 L 1110.7744,973.5991 z M 1092.8491,919.50682 L 1085.5307,940.51964 L 1099.7436,940.51964 L 1092.8491,919.50682 z " />
    <path
       id="path3264"
       style="font-size:144px;font-family:Roadgeek 2005 Series D"
       d="M 1181.0002,936.0483 C 1181.0002,943.57445 1179.9216,950.18697 1177.765,955.88607 C 1175.6081,961.58527 1172.5143,966.07411 1168.4834,969.35287 C 1167.1392,970.69441 1165.5656,971.6999 1163.7627,972.36951 C 1161.9597,973.0392 1160.1392,973.44904 1158.3007,973.5991 L 1154.2709,973.5991 L 1132.6331,973.5991 L 1132.6331,898.7191 L 1155.543,898.7191 C 1157.3124,898.7192 1158.8508,898.77545 1160.1585,898.88794 C 1161.4662,899.00061 1162.6503,899.20586 1163.711,899.50364 C 1164.7715,899.80151 1165.7257,900.21135 1166.5739,900.73313 C 1167.4219,901.25501 1168.3411,901.88769 1169.3316,902.63108 C 1173.0798,906.05998 1175.9614,910.62393 1177.977,916.32296 C 1179.9924,922.02216 1181.0002,928.59719 1181.0002,936.0483 L 1181.0002,936.0483 z M 1169.5453,936.0483 C 1169.5452,930.98242 1169.0322,926.47478 1168.0062,922.52516 C 1166.98,918.57573 1165.5834,915.63241 1163.8161,913.69512 C 1162.8968,912.8016 1161.8362,912.05686 1160.6344,911.46112 C 1159.4324,910.86546 1158.0892,910.56759 1156.6046,910.5675 L 1143.8775,910.5675 L 1143.8775,961.52902 L 1155.119,961.52902 C 1156.9573,961.52902 1158.4953,961.30564 1159.733,960.85879 C 1160.9705,960.41202 1162.0844,959.66676 1163.0749,958.62317 C 1165.196,956.38801 1166.8048,953.31448 1167.9009,949.40242 C 1168.9971,945.49063 1169.5452,941.03917 1169.5453,936.0483 L 1169.5453,936.0483 z " />
    <path
       id="path3260"
       style="font-size:144px;font-family:Roadgeek 2005 Series D"
       d="M 1235.5744,973.5991 L 1228.5733,952.58971 L 1206.4079,952.58971 L 1199.4066,973.5991 L 1187.4209,973.5991 L 1211.9233,898.7191 L 1223.0577,898.7191 L 1247.5602,973.5991 L 1235.5744,973.5991 z M 1217.6492,919.50682 L 1210.3308,940.51964 L 1224.5435,940.51964 L 1217.6492,919.50682 z " />
  </g>
  <g
     inkscape:groupmode="layer"
     id="layer4"
     inkscape:label="Route number">
    <path
       transform="matrix(2.668367,0,0,2.668367,-501.8844,-268.9826)"
       style="font-size:72px;font-weight:normal;text-align:center;text-anchor:middle"
       d="M 273.32568,184.24405 C 273.32565,186.69182 272.91769,188.94767 272.10181,191.01163 C 271.28585,193.0756 270.14584,194.83964 268.68176,196.30374 C 267.21762,197.76786 265.46567,198.91995 263.4259,199.76004 C 261.38608,200.60013 259.14231,201.02017 256.69458,201.02017 C 254.72581,201.02017 252.88963,200.70816 251.18604,200.08414 C 249.48241,199.46012 247.92235,198.59622 246.50586,197.49246 C 245.08935,196.38871 243.87719,195.04471 242.86938,193.46048 C 241.86157,191.87626 241.11743,190.10051 240.63696,188.13321 L 248.12524,185.9733 C 248.70238,188.32438 249.7589,190.12394 251.2948,191.37198 C 252.83067,192.62003 254.75071,193.24406 257.05493,193.24405 C 258.34983,193.24406 259.52537,193.02799 260.58154,192.59586 C 261.63767,192.16374 262.53782,191.57597 263.28198,190.83255 C 264.0261,190.08915 264.61423,189.20146 265.04639,188.16947 C 265.47849,187.1375 265.69455,185.99748 265.69458,184.74942 C 265.69455,183.50139 265.45432,182.32512 264.97388,181.22061 C 264.49338,180.11614 263.82175,179.25188 262.95898,178.62784 C 262.67038,178.43597 262.41807,178.27996 262.20203,178.15982 C 261.98594,178.03973 261.7219,177.95586 261.40991,177.90824 C 261.09788,177.86065 260.68992,177.81268 260.18604,177.76431 C 259.68211,177.716 258.97385,177.66839 258.06128,177.62149 L 257.19775,177.62149 L 257.19775,169.84537 L 257.19775,170.0607 L 257.41309,170.0607 L 257.55811,170.0607 L 259.06982,170.0607 C 260.60642,170.06073 261.78269,169.65277 262.59863,168.83682 C 263.41452,168.02094 263.82248,166.84467 263.82251,165.30802 C 263.82248,163.43598 263.16257,161.88801 261.84277,160.66409 C 260.52293,159.44026 258.87864,158.82832 256.90991,158.82828 C 253.69456,158.82832 251.27025,160.41255 249.63696,163.58096 L 242.50903,160.91568 C 243.75707,157.84395 245.64123,155.43208 248.1615,153.68009 C 250.68175,151.92818 253.52611,151.05221 256.69458,151.05216 C 258.71018,151.05221 260.61814,151.43636 262.41846,152.20462 C 264.21872,152.97298 265.79086,154.02913 267.13489,155.37308 C 268.47885,156.71712 269.53464,158.28889 270.30225,160.08841 C 271.06979,161.88801 271.45358,163.79633 271.45361,165.81339 C 271.45358,167.25336 271.26168,168.54938 270.87793,169.70145 C 270.49411,170.85358 269.77414,172.1972 268.71802,173.73233 C 269.63058,174.54828 270.37472,175.3283 270.95044,176.07242 C 271.52609,176.81658 271.99411,177.59661 272.35449,178.41251 C 272.71481,179.22845 272.96676,180.10442 273.11035,181.04044 C 273.25387,181.97649 273.32565,183.04436 273.32568,184.24405 L 273.32568,184.24405 z M 317.1853,176.10758 C 317.18526,179.94842 316.72933,183.62078 315.8175,187.12467 C 314.9056,190.62858 313.60958,193.46085 311.92944,195.62149 C 309.24142,199.22061 305.35373,201.02017 300.26636,201.02017 C 296.85765,201.02017 294.04954,200.32437 291.84204,198.93277 C 289.63451,197.54117 287.81078,195.35709 286.37085,192.38053 C 285.36303,190.31657 284.54711,187.80876 283.9231,184.85709 C 283.29907,181.90545 282.98706,178.98894 282.98706,176.10758 C 282.98706,172.12469 283.45507,168.42926 284.39111,165.02127 C 285.32714,161.61335 286.61108,158.75728 288.24292,156.45303 C 289.68285,154.62935 291.39891,153.27327 293.39111,152.3848 C 295.38328,151.49642 297.77098,151.05221 300.5542,151.05216 C 303.62595,151.05221 306.24179,151.74837 308.40173,153.14066 C 310.56161,154.53304 312.40988,156.71675 313.94653,159.6918 C 314.95431,161.85249 315.74606,164.37275 316.32178,167.2526 C 316.89742,170.13251 317.18526,173.08417 317.1853,176.10758 L 317.1853,176.10758 z M 309.5542,176.10758 C 309.55417,173.37274 309.3143,170.84113 308.83459,168.51273 C 308.35483,166.18439 307.63449,164.20429 306.67358,162.57242 C 305.90598,161.32441 305.03037,160.41255 304.04675,159.83682 C 303.06309,159.26118 301.85129,158.925 300.41138,158.82828 C 298.53929,158.73311 296.97923,159.16523 295.7312,160.12467 C 294.48314,161.08418 293.45116,162.64423 292.63525,164.80484 C 292.01122,166.24482 291.5432,167.98468 291.2312,170.02445 C 290.91918,172.06427 290.76317,174.09198 290.76318,176.10758 C 290.76317,178.70037 291.00304,181.19683 291.48279,183.59696 C 291.96251,185.99712 292.68211,187.96477 293.6416,189.49991 C 294.41063,190.74797 295.32286,191.684 296.3783,192.30802 C 297.4337,192.93205 298.72972,193.24406 300.26636,193.24405 C 302.04172,193.24406 303.51755,192.76432 304.69385,191.80484 C 305.87009,190.84538 306.86618,189.28532 307.68213,187.12467 C 307.92233,186.50066 308.16257,185.7448 308.40283,184.85709 C 308.64304,183.96941 308.84702,183.03337 309.01477,182.04898 C 309.18246,181.06463 309.3143,180.06853 309.41028,179.0607 C 309.50619,178.05291 309.55417,177.06854 309.5542,176.10758 L 309.5542,176.10758 z M 359.6936,182.37198 C 359.69357,185.05998 359.17758,187.53227 358.14563,189.78885 C 357.11361,192.04545 355.66159,194.01347 353.78955,195.6929 C 351.91745,197.37235 349.69748,198.68009 347.12964,199.61612 C 344.56175,200.55216 341.74192,201.02017 338.67017,201.02017 C 336.55785,201.02017 334.4818,200.7803 332.44202,200.30057 C 330.40221,199.82083 328.54223,199.14884 326.86206,198.28458 L 330.6062,191.517 C 331.614,192.04435 332.93383,192.46403 334.56567,192.77603 C 336.1975,193.08805 337.90111,193.24406 339.67651,193.24405 C 341.40501,193.24406 343.02513,192.9683 344.53687,192.41678 C 346.04856,191.86527 347.36875,191.10942 348.49744,190.1492 C 349.62607,189.18901 350.50205,188.04899 351.12537,186.72916 C 351.74863,185.40935 352.06027,183.95696 352.0603,182.37198 C 352.06027,181.17229 351.83249,180.06853 351.37695,179.0607 C 350.92136,178.05291 350.2977,177.16485 349.50598,176.39652 C 348.71421,175.62823 347.80234,175.02801 346.77039,174.59586 C 345.73838,174.16375 344.6218,173.94769 343.42065,173.94766 C 342.55784,173.94769 341.80235,174.01983 341.15417,174.16409 C 340.50596,174.30841 339.89366,174.57245 339.31726,174.95621 C 338.74083,175.34002 338.16478,175.85601 337.58911,176.50418 C 337.01341,177.1524 336.36522,177.9804 335.64453,178.98819 L 328.01343,176.82828 L 329.2373,151.91568 L 356.95801,151.91568 L 356.95801,159.54898 L 336.65308,159.54898 L 336.1499,167.46793 C 337.92528,166.94062 339.31688,166.581 340.32471,166.38907 C 341.3325,166.19721 342.43699,166.10126 343.63818,166.10123 C 345.84568,166.10126 347.92136,166.53302 349.86523,167.39652 C 351.80905,168.26007 353.51303,169.43598 354.97717,170.92423 C 356.44125,172.41254 357.59335,174.14068 358.43347,176.10867 C 359.27352,178.07671 359.69357,180.16448 359.6936,182.37198 L 359.6936,182.37198 z "
       id="flowRoot2198" />
  </g>
</svg>
