<?xml version="1.0" encoding="UTF-8" standalone="no"?>
<!-- Created with Inkscape (http://www.inkscape.org/) -->
<svg
   xmlns:dc="http://purl.org/dc/elements/1.1/"
   xmlns:cc="http://web.resource.org/cc/"
   xmlns:rdf="http://www.w3.org/1999/02/22-rdf-syntax-ns#"
   xmlns:svg="http://www.w3.org/2000/svg"
   xmlns="http://www.w3.org/2000/svg"
   xmlns:sodipodi="http://sodipodi.sourceforge.net/DTD/sodipodi-0.dtd"
   xmlns:inkscape="http://www.inkscape.org/namespaces/inkscape"
   width="600"
   height="600"
   id="svg2"
   sodipodi:version="0.32"
   inkscape:version="0.44"
   version="1.0"
   sodipodi:docbase="C:\Documents and Settings\Geoffrey\My Documents\Nevada shields"
   sodipodi:docname="Nevada 373.svg">
  <defs
     id="defs4" />
  <sodipodi:namedview
     id="base"
     pagecolor="#ffffff"
     bordercolor="#666666"
     borderopacity="1.0"
     gridtolerance="10000"
     guidetolerance="10"
     objecttolerance="10"
     inkscape:pageopacity="0.0"
     inkscape:pageshadow="2"
     inkscape:zoom="0.84666667"
     inkscape:cx="300"
     inkscape:cy="300"
     inkscape:document-units="px"
     inkscape:current-layer="layer4"
     width="600px"
     height="600px"
     showgrid="true"
     units="px"
     gridspacingx="16.66px"
     gridspacingy="16.66px"
     grid_units="px"
     gridempspacing="3"
     inkscape:window-width="997"
     inkscape:window-height="704"
     inkscape:window-x="275"
     inkscape:window-y="0"
     inkscape:grid-points="true"
     showguides="true"
     inkscape:object-nodes="false"
     inkscape:object-points="false" />
  <metadata
     id="metadata7">
    <rdf:RDF>
      <cc:Work
         rdf:about="">
        <dc:format>image/svg+xml</dc:format>
        <dc:type
           rdf:resource="http://purl.org/dc/dcmitype/StillImage" />
        <cc:license
           rdf:resource="" />
      </cc:Work>
    </rdf:RDF>
  </metadata>
  <g
     inkscape:label="Background"
     inkscape:groupmode="layer"
     id="layer1"
     transform="translate(-765.0002,-539.9991)">
    <path
       style="fill:black;fill-opacity:1;fill-rule:evenodd;stroke:black;stroke-width:0.19601439px;stroke-linecap:butt;stroke-linejoin:miter;stroke-opacity:1"
       d="M 765.09821,593.02099 C 765.09821,540.09709 818.02209,540.09709 818.02209,540.09709 C 818.02209,540.09709 1259.0544,540.09709 1311.9783,540.09709 C 1364.9022,540.09709 1364.9022,593.02099 1364.9022,593.02099 C 1364.9022,593.02099 1364.9022,1034.0533 1364.9022,1086.9773 C 1364.9022,1139.9011 1311.9783,1139.9011 1311.9783,1139.9011 C 1311.9783,1139.9011 870.94597,1139.9011 818.02209,1139.9011 C 765.09821,1139.9011 765.09821,1086.9773 765.09821,1086.9773 L 765.09821,593.02099 z "
       id="path1888" />
  </g>
  <g
     inkscape:groupmode="layer"
     id="layer2"
     inkscape:label="Nevada shape"
     transform="translate(-765.0002,-539.9991)">
    <path
       style="opacity:1;fill:white;fill-opacity:1"
       d="M 1262.4285,1106.6791 C 1263.9325,1102.7233 1261.8099,1097.5929 1256.4957,1092.3396 C 1245.9376,1081.9022 1244.3737,1079.5799 1244.3737,1074.3391 C 1244.3737,1070.6947 1243.7825,1068.7685 1242.0139,1066.6499 C 1240.417,1064.7371 1239.4913,1062.0918 1239.1506,1058.4682 C 1238.6992,1053.667 1238.2026,1052.7303 1234.3483,1049.4108 C 1230.3004,1045.9245 1230.086,1045.4783 1230.6748,1041.7658 C 1231.0894,1039.1521 1232.1899,1037.149 1233.9397,1035.8232 C 1235.3914,1034.7232 1238.2638,1032.0991 1240.3226,1029.9919 C 1243.222,1027.0245 1244.6986,1026.2353 1246.8714,1026.4919 C 1249.261,1026.7741 1249.8791,1027.5205 1251.0425,1031.5285 C 1252.3315,1035.9697 1255.3355,1039.3232 1258.0248,1039.3232 C 1260.1156,1039.3232 1262.3737,1036.2862 1262.3737,1033.4742 C 1262.3737,1031.9859 1263.0852,1029.7524 1263.9547,1028.511 C 1265.0968,1026.8804 1265.947,1023.145 1265.9255,1015.0385 L 1264.8002,590.2191 L 864.9602,590.2191 L 864.9602,806.7991 L 960.5202,882.0791 L 864.9602,881.7691 L 864.9602,990.0591 L 1106.5302,990.0591 L 1254.2458,1105.5375 C 1259.8378,1109.9091 1261.1032,1110.1647 1262.4285,1106.6791 z "
       id="path2226"
       sodipodi:nodetypes="csssssssssssssscccccccsc" />
  </g>
  <g
     inkscape:groupmode="layer"
     id="layer3"
     inkscape:label="NEVADA text"
     transform="translate(-765.0002,-539.9991)"
     style="opacity:1">
    <path
       style="font-size:144px;opacity:1;font-family:Roadgeek 2005 Series D"
       d="M 929.42752,973.5991 L 902.2802,927.8391 L 902.2802,973.5991 L 889.8002,973.5991 L 889.8002,898.7191 L 902.2802,898.7191 L 927.2402,940.3191 L 927.2402,898.7191 L 939.7202,898.7191 L 939.7202,973.5991 L 929.42752,973.5991 z "
       id="path3274"
       sodipodi:nodetypes="ccccccccccc" />
    <path
       style="font-size:144px;opacity:1;font-family:Roadgeek 2005 Series D"
       d="M 953.8365,973.5991 L 953.8365,898.7191 L 997.9602,898.7191 L 997.9602,911.1991 L 968.8402,911.1991 L 968.8402,927.8391 L 989.6402,927.8391 L 989.6402,940.3191 L 968.8402,940.3191 L 968.8402,961.1191 L 1002.1202,961.52902 L 1002.1202,973.5991 L 953.8365,973.5991 z "
       id="path3272"
       sodipodi:nodetypes="ccccccccccccc" />
    <path
       style="font-size:144px;opacity:1;font-family:Roadgeek 2005 Series D"
       d="M 1041.6233,973.5991 L 1032.9261,973.5991 L 1010.4402,898.7191 L 1022.2125,898.7191 L 1037.3798,948.67773 L 1052.3338,898.7191 L 1064.3194,898.7191 L 1041.6233,973.5991 z "
       id="path3270" />
    <path
       id="path3268"
       style="font-size:144px;font-family:Roadgeek 2005 Series D"
       d="M 1110.7744,973.5991 L 1103.7733,952.58971 L 1081.6078,952.58971 L 1074.6067,973.5991 L 1062.621,973.5991 L 1087.1233,898.7191 L 1098.2579,898.7191 L 1122.7602,973.5991 L 1110.7744,973.5991 z M 1092.8491,919.50682 L 1085.5307,940.51964 L 1099.7436,940.51964 L 1092.8491,919.50682 z " />
    <path
       id="path3264"
       style="font-size:144px;font-family:Roadgeek 2005 Series D"
       d="M 1181.0002,936.0483 C 1181.0002,943.57445 1179.9216,950.18697 1177.765,955.88607 C 1175.6081,961.58527 1172.5143,966.07411 1168.4834,969.35287 C 1167.1392,970.69441 1165.5656,971.6999 1163.7627,972.36951 C 1161.9597,973.0392 1160.1392,973.44904 1158.3007,973.5991 L 1154.2709,973.5991 L 1132.6331,973.5991 L 1132.6331,898.7191 L 1155.543,898.7191 C 1157.3124,898.7192 1158.8508,898.77545 1160.1585,898.88794 C 1161.4662,899.00061 1162.6503,899.20586 1163.711,899.50364 C 1164.7715,899.80151 1165.7257,900.21135 1166.5739,900.73313 C 1167.4219,901.25501 1168.3411,901.88769 1169.3316,902.63108 C 1173.0798,906.05998 1175.9614,910.62393 1177.977,916.32296 C 1179.9924,922.02216 1181.0002,928.59719 1181.0002,936.0483 L 1181.0002,936.0483 z M 1169.5453,936.0483 C 1169.5452,930.98242 1169.0322,926.47478 1168.0062,922.52516 C 1166.98,918.57573 1165.5834,915.63241 1163.8161,913.69512 C 1162.8968,912.8016 1161.8362,912.05686 1160.6344,911.46112 C 1159.4324,910.86546 1158.0892,910.56759 1156.6046,910.5675 L 1143.8775,910.5675 L 1143.8775,961.52902 L 1155.119,961.52902 C 1156.9573,961.52902 1158.4953,961.30564 1159.733,960.85879 C 1160.9705,960.41202 1162.0844,959.66676 1163.0749,958.62317 C 1165.196,956.38801 1166.8048,953.31448 1167.9009,949.40242 C 1168.9971,945.49063 1169.5452,941.03917 1169.5453,936.0483 L 1169.5453,936.0483 z " />
    <path
       id="path3260"
       style="font-size:144px;font-family:Roadgeek 2005 Series D"
       d="M 1235.5744,973.5991 L 1228.5733,952.58971 L 1206.4079,952.58971 L 1199.4066,973.5991 L 1187.4209,973.5991 L 1211.9233,898.7191 L 1223.0577,898.7191 L 1247.5602,973.5991 L 1235.5744,973.5991 z M 1217.6492,919.50682 L 1210.3308,940.51964 L 1224.5435,940.51964 L 1217.6492,919.50682 z " />
  </g>
  <g
     inkscape:groupmode="layer"
     id="layer4"
     inkscape:label="Route number">
    <path
       transform="matrix(2.668367,0,0,2.668367,-501.8844,-268.9826)"
       style="font-size:72px;font-weight:normal;text-align:center;text-anchor:middle"
       d="M 275.92725,184.24405 C 275.92721,186.69182 275.51925,188.94767 274.70337,191.01163 C 273.88742,193.0756 272.7474,194.83964 271.28333,196.30374 C 269.81918,197.76786 268.06723,198.91995 266.02747,199.76004 C 263.98765,200.60013 261.74387,201.02017 259.29614,201.02017 C 257.32737,201.02017 255.49119,200.70816 253.7876,200.08414 C 252.08397,199.46012 250.52391,198.59622 249.10742,197.49246 C 247.69091,196.38871 246.47875,195.04471 245.47095,193.46048 C 244.46313,191.87626 243.71899,190.10051 243.23853,188.13321 L 250.72681,185.9733 C 251.30394,188.32438 252.36046,190.12394 253.89636,191.37198 C 255.43223,192.62003 257.35228,193.24406 259.65649,193.24405 C 260.95139,193.24406 262.12693,193.02799 263.18311,192.59586 C 264.23923,192.16374 265.13938,191.57597 265.88354,190.83255 C 266.62766,190.08915 267.21579,189.20146 267.64795,188.16947 C 268.08005,187.1375 268.29611,185.99748 268.29614,184.74942 C 268.29611,183.50139 268.05588,182.32512 267.57544,181.22061 C 267.09494,180.11614 266.42331,179.25188 265.56055,178.62784 C 265.27195,178.43597 265.01963,178.27996 264.80359,178.15982 C 264.5875,178.03973 264.32346,177.95586 264.01147,177.90824 C 263.69944,177.86065 263.29148,177.81268 262.7876,177.76431 C 262.28367,177.716 261.57542,177.66839 260.66284,177.62149 L 259.79932,177.62149 L 259.79932,169.84537 L 259.79932,170.0607 L 260.01465,170.0607 L 260.15967,170.0607 L 261.67139,170.0607 C 263.20798,170.06073 264.38425,169.65277 265.2002,168.83682 C 266.01609,168.02094 266.42405,166.84467 266.42407,165.30802 C 266.42405,163.43598 265.76413,161.88801 264.44434,160.66409 C 263.12449,159.44026 261.4802,158.82832 259.51147,158.82828 C 256.29613,158.82832 253.87181,160.41255 252.23853,163.58096 L 245.1106,160.91568 C 246.35864,157.84395 248.24279,155.43208 250.76306,153.68009 C 253.28331,151.92818 256.12767,151.05221 259.29614,151.05216 C 261.31175,151.05221 263.2197,151.43636 265.02002,152.20462 C 266.82029,152.97298 268.39243,154.02913 269.73645,155.37308 C 271.08041,156.71712 272.1362,158.28889 272.90381,160.08841 C 273.67135,161.88801 274.05514,163.79633 274.05518,165.81339 C 274.05514,167.25336 273.86325,168.54938 273.47949,169.70145 C 273.09567,170.85358 272.3757,172.1972 271.31958,173.73233 C 272.23214,174.54828 272.97628,175.3283 273.552,176.07242 C 274.12765,176.81658 274.59567,177.59661 274.95605,178.41251 C 275.31637,179.22845 275.56832,180.10442 275.71191,181.04044 C 275.85543,181.97649 275.92721,183.04436 275.92725,184.24405 L 275.92725,184.24405 z M 316.90845,159.54898 C 316.47628,160.07637 316.08004,160.5561 315.71973,160.98819 C 315.35934,161.42036 315.02316,161.85249 314.71118,162.28458 C 314.39914,162.71674 314.07541,163.17268 313.73999,163.65238 C 313.40451,164.13215 313.04416,164.68403 312.65894,165.30802 C 310.49973,168.86029 308.66428,172.60443 307.15259,176.54044 C 305.64084,180.47649 304.47629,184.38835 303.65894,188.27603 C 303.51536,189.28386 303.3718,190.25578 303.22827,191.1918 C 303.08469,192.12785 302.97666,193.06388 302.90417,193.99991 C 302.83164,194.93595 302.77158,195.89615 302.724,196.88053 C 302.67637,197.8649 302.65257,198.95694 302.65259,200.15665 L 294.87646,200.15665 C 294.92479,197.37198 295.09288,194.684 295.38074,192.09268 C 295.66856,189.50139 296.08824,186.95769 296.63977,184.46158 C 297.19127,181.9655 297.89915,179.4815 298.76343,177.00955 C 299.62767,174.53766 300.65965,172.02948 301.85938,169.48502 C 302.67527,167.66132 303.56333,165.8852 304.52356,164.15665 C 305.48374,162.42817 306.39597,160.89228 307.26025,159.54898 L 284.21973,159.54898 L 284.21973,151.91568 L 316.90845,151.91568 L 316.90845,159.54898 L 316.90845,159.54898 z M 356.92725,184.24405 C 356.92721,186.69182 356.51925,188.94767 355.70337,191.01163 C 354.88742,193.0756 353.7474,194.83964 352.28333,196.30374 C 350.81918,197.76786 349.06723,198.91995 347.02747,199.76004 C 344.98765,200.60013 342.74387,201.02017 340.29614,201.02017 C 338.32737,201.02017 336.49119,200.70816 334.7876,200.08414 C 333.08397,199.46012 331.52391,198.59622 330.10742,197.49246 C 328.69091,196.38871 327.47875,195.04471 326.47095,193.46048 C 325.46313,191.87626 324.71899,190.10051 324.23853,188.13321 L 331.72681,185.9733 C 332.30394,188.32438 333.36046,190.12394 334.89636,191.37198 C 336.43223,192.62003 338.35228,193.24406 340.65649,193.24405 C 341.95139,193.24406 343.12693,193.02799 344.18311,192.59586 C 345.23923,192.16374 346.13938,191.57597 346.88354,190.83255 C 347.62766,190.08915 348.21579,189.20146 348.64795,188.16947 C 349.08005,187.1375 349.29611,185.99748 349.29614,184.74942 C 349.29611,183.50139 349.05588,182.32512 348.57544,181.22061 C 348.09494,180.11614 347.42331,179.25188 346.56055,178.62784 C 346.27195,178.43597 346.01963,178.27996 345.80359,178.15982 C 345.5875,178.03973 345.32346,177.95586 345.01147,177.90824 C 344.69944,177.86065 344.29148,177.81268 343.7876,177.76431 C 343.28367,177.716 342.57542,177.66839 341.66284,177.62149 L 340.79932,177.62149 L 340.79932,169.84537 L 340.79932,170.0607 L 341.01465,170.0607 L 341.15967,170.0607 L 342.67139,170.0607 C 344.20798,170.06073 345.38425,169.65277 346.2002,168.83682 C 347.01609,168.02094 347.42405,166.84467 347.42407,165.30802 C 347.42405,163.43598 346.76413,161.88801 345.44434,160.66409 C 344.12449,159.44026 342.4802,158.82832 340.51147,158.82828 C 337.29613,158.82832 334.87181,160.41255 333.23853,163.58096 L 326.1106,160.91568 C 327.35864,157.84395 329.24279,155.43208 331.76306,153.68009 C 334.28331,151.92818 337.12767,151.05221 340.29614,151.05216 C 342.31175,151.05221 344.2197,151.43636 346.02002,152.20462 C 347.82029,152.97298 349.39243,154.02913 350.73645,155.37308 C 352.08041,156.71712 353.1362,158.28889 353.90381,160.08841 C 354.67135,161.88801 355.05514,163.79633 355.05518,165.81339 C 355.05514,167.25336 354.86325,168.54938 354.47949,169.70145 C 354.09567,170.85358 353.3757,172.1972 352.31958,173.73233 C 353.23214,174.54828 353.97628,175.3283 354.552,176.07242 C 355.12765,176.81658 355.59567,177.59661 355.95605,178.41251 C 356.31637,179.22845 356.56832,180.10442 356.71191,181.04044 C 356.85543,181.97649 356.92721,183.04436 356.92725,184.24405 L 356.92725,184.24405 z "
       id="flowRoot2198" />
  </g>
</svg>
