<?xml version="1.0" encoding="UTF-8" standalone="no"?>
<!-- Created with Inkscape (http://www.inkscape.org/) -->
<svg
   xmlns:dc="http://purl.org/dc/elements/1.1/"
   xmlns:cc="http://web.resource.org/cc/"
   xmlns:rdf="http://www.w3.org/1999/02/22-rdf-syntax-ns#"
   xmlns:svg="http://www.w3.org/2000/svg"
   xmlns="http://www.w3.org/2000/svg"
   xmlns:sodipodi="http://sodipodi.sourceforge.net/DTD/sodipodi-0.dtd"
   xmlns:inkscape="http://www.inkscape.org/namespaces/inkscape"
   width="600"
   height="600"
   id="svg2"
   sodipodi:version="0.32"
   inkscape:version="0.44"
   version="1.0"
   sodipodi:docbase="C:\Documents and Settings\Geoffrey\My Documents\Nevada shields"
   sodipodi:docname="Nevada 208.svg">
  <defs
     id="defs4" />
  <sodipodi:namedview
     id="base"
     pagecolor="#ffffff"
     bordercolor="#666666"
     borderopacity="1.0"
     gridtolerance="10000"
     guidetolerance="10"
     objecttolerance="10"
     inkscape:pageopacity="0.0"
     inkscape:pageshadow="2"
     inkscape:zoom="0.84666667"
     inkscape:cx="300"
     inkscape:cy="300"
     inkscape:document-units="px"
     inkscape:current-layer="layer4"
     width="600px"
     height="600px"
     showgrid="true"
     units="px"
     gridspacingx="16.66px"
     gridspacingy="16.66px"
     grid_units="px"
     gridempspacing="3"
     inkscape:window-width="997"
     inkscape:window-height="704"
     inkscape:window-x="275"
     inkscape:window-y="0"
     inkscape:grid-points="true"
     showguides="true"
     inkscape:object-nodes="false"
     inkscape:object-points="false" />
  <metadata
     id="metadata7">
    <rdf:RDF>
      <cc:Work
         rdf:about="">
        <dc:format>image/svg+xml</dc:format>
        <dc:type
           rdf:resource="http://purl.org/dc/dcmitype/StillImage" />
        <cc:license
           rdf:resource="" />
      </cc:Work>
    </rdf:RDF>
  </metadata>
  <g
     inkscape:label="Background"
     inkscape:groupmode="layer"
     id="layer1"
     transform="translate(-765.0002,-539.9991)">
    <path
       style="fill:black;fill-opacity:1;fill-rule:evenodd;stroke:black;stroke-width:0.19601439px;stroke-linecap:butt;stroke-linejoin:miter;stroke-opacity:1"
       d="M 765.09821,593.02099 C 765.09821,540.09709 818.02209,540.09709 818.02209,540.09709 C 818.02209,540.09709 1259.0544,540.09709 1311.9783,540.09709 C 1364.9022,540.09709 1364.9022,593.02099 1364.9022,593.02099 C 1364.9022,593.02099 1364.9022,1034.0533 1364.9022,1086.9773 C 1364.9022,1139.9011 1311.9783,1139.9011 1311.9783,1139.9011 C 1311.9783,1139.9011 870.94597,1139.9011 818.02209,1139.9011 C 765.09821,1139.9011 765.09821,1086.9773 765.09821,1086.9773 L 765.09821,593.02099 z "
       id="path1888" />
  </g>
  <g
     inkscape:groupmode="layer"
     id="layer2"
     inkscape:label="Nevada shape"
     transform="translate(-765.0002,-539.9991)">
    <path
       style="opacity:1;fill:white;fill-opacity:1"
       d="M 1262.4285,1106.6791 C 1263.9325,1102.7233 1261.8099,1097.5929 1256.4957,1092.3396 C 1245.9376,1081.9022 1244.3737,1079.5799 1244.3737,1074.3391 C 1244.3737,1070.6947 1243.7825,1068.7685 1242.0139,1066.6499 C 1240.417,1064.7371 1239.4913,1062.0918 1239.1506,1058.4682 C 1238.6992,1053.667 1238.2026,1052.7303 1234.3483,1049.4108 C 1230.3004,1045.9245 1230.086,1045.4783 1230.6748,1041.7658 C 1231.0894,1039.1521 1232.1899,1037.149 1233.9397,1035.8232 C 1235.3914,1034.7232 1238.2638,1032.0991 1240.3226,1029.9919 C 1243.222,1027.0245 1244.6986,1026.2353 1246.8714,1026.4919 C 1249.261,1026.7741 1249.8791,1027.5205 1251.0425,1031.5285 C 1252.3315,1035.9697 1255.3355,1039.3232 1258.0248,1039.3232 C 1260.1156,1039.3232 1262.3737,1036.2862 1262.3737,1033.4742 C 1262.3737,1031.9859 1263.0852,1029.7524 1263.9547,1028.511 C 1265.0968,1026.8804 1265.947,1023.145 1265.9255,1015.0385 L 1264.8002,590.2191 L 864.9602,590.2191 L 864.9602,806.7991 L 960.5202,882.0791 L 864.9602,881.7691 L 864.9602,990.0591 L 1106.5302,990.0591 L 1254.2458,1105.5375 C 1259.8378,1109.9091 1261.1032,1110.1647 1262.4285,1106.6791 z "
       id="path2226"
       sodipodi:nodetypes="csssssssssssssscccccccsc" />
  </g>
  <g
     inkscape:groupmode="layer"
     id="layer3"
     inkscape:label="NEVADA text"
     transform="translate(-765.0002,-539.9991)"
     style="opacity:1">
    <path
       style="font-size:144px;opacity:1;font-family:Roadgeek 2005 Series D"
       d="M 929.42752,973.5991 L 902.2802,927.8391 L 902.2802,973.5991 L 889.8002,973.5991 L 889.8002,898.7191 L 902.2802,898.7191 L 927.2402,940.3191 L 927.2402,898.7191 L 939.7202,898.7191 L 939.7202,973.5991 L 929.42752,973.5991 z "
       id="path3274"
       sodipodi:nodetypes="ccccccccccc" />
    <path
       style="font-size:144px;opacity:1;font-family:Roadgeek 2005 Series D"
       d="M 953.8365,973.5991 L 953.8365,898.7191 L 997.9602,898.7191 L 997.9602,911.1991 L 968.8402,911.1991 L 968.8402,927.8391 L 989.6402,927.8391 L 989.6402,940.3191 L 968.8402,940.3191 L 968.8402,961.1191 L 1002.1202,961.52902 L 1002.1202,973.5991 L 953.8365,973.5991 z "
       id="path3272"
       sodipodi:nodetypes="ccccccccccccc" />
    <path
       style="font-size:144px;opacity:1;font-family:Roadgeek 2005 Series D"
       d="M 1041.6233,973.5991 L 1032.9261,973.5991 L 1010.4402,898.7191 L 1022.2125,898.7191 L 1037.3798,948.67773 L 1052.3338,898.7191 L 1064.3194,898.7191 L 1041.6233,973.5991 z "
       id="path3270" />
    <path
       id="path3268"
       style="font-size:144px;font-family:Roadgeek 2005 Series D"
       d="M 1110.7744,973.5991 L 1103.7733,952.58971 L 1081.6078,952.58971 L 1074.6067,973.5991 L 1062.621,973.5991 L 1087.1233,898.7191 L 1098.2579,898.7191 L 1122.7602,973.5991 L 1110.7744,973.5991 z M 1092.8491,919.50682 L 1085.5307,940.51964 L 1099.7436,940.51964 L 1092.8491,919.50682 z " />
    <path
       id="path3264"
       style="font-size:144px;font-family:Roadgeek 2005 Series D"
       d="M 1181.0002,936.0483 C 1181.0002,943.57445 1179.9216,950.18697 1177.765,955.88607 C 1175.6081,961.58527 1172.5143,966.07411 1168.4834,969.35287 C 1167.1392,970.69441 1165.5656,971.6999 1163.7627,972.36951 C 1161.9597,973.0392 1160.1392,973.44904 1158.3007,973.5991 L 1154.2709,973.5991 L 1132.6331,973.5991 L 1132.6331,898.7191 L 1155.543,898.7191 C 1157.3124,898.7192 1158.8508,898.77545 1160.1585,898.88794 C 1161.4662,899.00061 1162.6503,899.20586 1163.711,899.50364 C 1164.7715,899.80151 1165.7257,900.21135 1166.5739,900.73313 C 1167.4219,901.25501 1168.3411,901.88769 1169.3316,902.63108 C 1173.0798,906.05998 1175.9614,910.62393 1177.977,916.32296 C 1179.9924,922.02216 1181.0002,928.59719 1181.0002,936.0483 L 1181.0002,936.0483 z M 1169.5453,936.0483 C 1169.5452,930.98242 1169.0322,926.47478 1168.0062,922.52516 C 1166.98,918.57573 1165.5834,915.63241 1163.8161,913.69512 C 1162.8968,912.8016 1161.8362,912.05686 1160.6344,911.46112 C 1159.4324,910.86546 1158.0892,910.56759 1156.6046,910.5675 L 1143.8775,910.5675 L 1143.8775,961.52902 L 1155.119,961.52902 C 1156.9573,961.52902 1158.4953,961.30564 1159.733,960.85879 C 1160.9705,960.41202 1162.0844,959.66676 1163.0749,958.62317 C 1165.196,956.38801 1166.8048,953.31448 1167.9009,949.40242 C 1168.9971,945.49063 1169.5452,941.03917 1169.5453,936.0483 L 1169.5453,936.0483 z " />
    <path
       id="path3260"
       style="font-size:144px;font-family:Roadgeek 2005 Series D"
       d="M 1235.5744,973.5991 L 1228.5733,952.58971 L 1206.4079,952.58971 L 1199.4066,973.5991 L 1187.4209,973.5991 L 1211.9233,898.7191 L 1223.0577,898.7191 L 1247.5602,973.5991 L 1235.5744,973.5991 z M 1217.6492,919.50682 L 1210.3308,940.51964 L 1224.5435,940.51964 L 1217.6492,919.50682 z " />
  </g>
  <g
     inkscape:groupmode="layer"
     id="layer4"
     inkscape:label="Route number">
    <path
       transform="matrix(2.668367,0,0,2.668367,-501.8844,-268.9826)"
       style="font-size:72px;font-weight:normal;text-align:center;text-anchor:middle"
       d="M 241.08081,200.15665 C 241.17602,197.32511 241.53564,194.73307 242.15967,192.38053 C 242.78368,190.028 243.76806,187.70036 245.11279,185.39761 C 246.1206,183.57244 247.36828,181.87981 248.85583,180.31973 C 250.34337,178.7597 251.92723,177.35565 253.60742,176.10758 C 254.03953,175.86883 254.42369,175.61724 254.75989,175.35282 C 255.09605,175.08844 255.43187,174.83612 255.76733,174.59586 L 258.36011,173.22916 L 260.73535,171.86026 L 263.04028,170.56387 C 263.99973,169.93988 264.77939,169.15985 265.37927,168.22379 C 265.9791,167.28778 266.27902,166.31586 266.27905,165.30802 C 266.27902,164.39692 266.03915,163.54511 265.55945,162.7526 C 265.07968,161.96015 264.44394,161.27607 263.65222,160.70035 C 262.86045,160.12471 261.9365,159.66877 260.88037,159.33255 C 259.8242,158.99641 258.69627,158.82832 257.49658,158.82828 C 255.04881,158.82832 253.06871,159.40437 251.55627,160.55643 C 250.04381,161.70857 249.09569,163.38837 248.71191,165.59586 L 241.08081,163.94132 C 241.89672,159.90864 243.76843,156.75227 246.69592,154.4722 C 249.6234,152.19222 253.22362,151.05221 257.49658,151.05216 C 259.80076,151.05221 261.94858,151.43636 263.94006,152.20462 C 265.93149,152.97298 267.65927,154.00496 269.12341,155.30057 C 270.58749,156.59627 271.75167,158.12007 272.61597,159.87198 C 273.48019,161.62397 273.91232,163.48432 273.91235,165.45303 C 273.91232,167.32514 273.49227,169.16095 272.65222,170.96048 C 271.8121,172.76007 270.60031,174.35638 269.01685,175.74942 C 268.63302,176.03656 268.28512,176.30023 267.97314,176.54044 C 267.6611,176.78069 267.33664,176.97259 266.99976,177.11612 L 264.62451,178.62784 L 262.03174,179.99674 L 259.65649,181.36563 C 258.50364,182.03655 257.48338,182.74407 256.5957,183.48819 C 255.70799,184.23235 254.89207,185.03655 254.14795,185.90079 C 253.40379,186.76506 252.70763,187.72526 252.05945,188.7814 C 251.41124,189.83757 250.7993,191.03727 250.22363,192.38053 L 273.91235,192.38053 L 273.91235,200.15665 L 241.08081,200.15665 z M 317.60718,176.10758 C 317.60714,179.94842 317.15121,183.62078 316.23938,187.12467 C 315.32748,190.62858 314.03146,193.46085 312.35132,195.62149 C 309.6633,199.22061 305.77561,201.02017 300.68823,201.02017 C 297.27952,201.02017 294.47142,200.32437 292.26392,198.93277 C 290.05639,197.54117 288.23266,195.35709 286.79272,192.38053 C 285.7849,190.31657 284.96899,187.80876 284.34497,184.85709 C 283.72094,181.90545 283.40893,178.98894 283.40894,176.10758 C 283.40893,172.12469 283.87695,168.42926 284.81299,165.02127 C 285.74902,161.61335 287.03295,158.75728 288.66479,156.45303 C 290.10472,154.62935 291.82079,153.27327 293.81299,152.3848 C 295.80516,151.49642 298.19285,151.05221 300.97607,151.05216 C 304.04783,151.05221 306.66367,151.74837 308.82361,153.14066 C 310.98349,154.53304 312.83175,156.71675 314.36841,159.6918 C 315.37618,161.85249 316.16793,164.37275 316.74365,167.2526 C 317.3193,170.13251 317.60714,173.08417 317.60718,176.10758 L 317.60718,176.10758 z M 309.97607,176.10758 C 309.97604,173.37274 309.73617,170.84113 309.25647,168.51273 C 308.7767,166.18439 308.05637,164.20429 307.09546,162.57242 C 306.32785,161.32441 305.45224,160.41255 304.46863,159.83682 C 303.48496,159.26118 302.27317,158.925 300.83325,158.82828 C 298.96116,158.73311 297.4011,159.16523 296.15308,160.12467 C 294.90501,161.08418 293.87303,162.64423 293.05713,164.80484 C 292.43309,166.24482 291.96507,167.98468 291.65308,170.02445 C 291.34105,172.06427 291.18505,174.09198 291.18506,176.10758 C 291.18505,178.70037 291.42491,181.19683 291.90466,183.59696 C 292.38439,185.99712 293.10399,187.96477 294.06348,189.49991 C 294.8325,190.74797 295.74473,191.684 296.80017,192.30802 C 297.85557,192.93205 299.15159,193.24406 300.68823,193.24405 C 302.4636,193.24406 303.93943,192.76432 305.11572,191.80484 C 306.29196,190.84538 307.28806,189.28532 308.104,187.12467 C 308.34421,186.50066 308.58444,185.7448 308.82471,184.85709 C 309.06491,183.96941 309.26889,183.03337 309.43665,182.04898 C 309.60434,181.06463 309.73617,180.06853 309.83215,179.0607 C 309.92807,178.05291 309.97604,177.06854 309.97607,176.10758 L 309.97607,176.10758 z M 360.11548,184.74942 C 360.11544,186.95695 359.67123,189.04472 358.78284,191.01273 C 357.89437,192.98075 356.6943,194.7089 355.18262,196.19718 C 353.67087,197.68546 351.931,198.86136 349.96301,199.72489 C 347.99497,200.58841 345.9072,201.02017 343.69971,201.02017 C 341.4907,201.02017 339.4022,200.58841 337.4342,199.72489 C 335.46617,198.86136 333.72631,197.68546 332.2146,196.19718 C 330.70287,194.7089 329.50317,192.98075 328.61548,191.01273 C 327.72778,189.04472 327.28393,186.95695 327.28394,184.74942 C 327.28393,182.44524 327.76367,180.36919 328.72314,178.52127 C 329.68261,176.6734 331.05077,175.02948 332.82764,173.58951 C 330.47509,171.09344 329.29882,168.16523 329.29883,164.80484 C 329.29882,162.93281 329.68298,161.16877 330.45129,159.51273 C 331.2196,157.85676 332.26366,156.39265 333.5835,155.12039 C 334.90331,153.84822 336.42711,152.85213 338.15491,152.13211 C 339.88267,151.41219 341.73094,151.05221 343.69971,151.05216 C 345.62009,151.05221 347.46799,151.41219 349.24341,152.13211 C 351.01877,152.85213 352.56674,153.84822 353.88733,155.12039 C 355.20785,156.39265 356.264,157.85676 357.05579,159.51273 C 357.8475,161.16877 358.24337,162.93281 358.24341,164.80484 C 358.24337,166.48505 357.91928,168.05719 357.27112,169.52127 C 356.62289,170.98541 355.69894,172.34149 354.49927,173.58951 C 356.3713,175.02948 357.77536,176.6972 358.71143,178.59268 C 359.64742,180.48821 360.11544,182.54045 360.11548,184.74942 L 360.11548,184.74942 z M 350.46729,164.58951 C 350.46726,163.00459 349.80735,161.64814 348.48755,160.52017 C 347.1677,159.39228 345.57175,158.82832 343.69971,158.82828 C 341.82762,158.82832 340.23167,159.39228 338.91187,160.52017 C 337.59203,161.64814 336.93211,163.00459 336.93213,164.58951 C 336.93211,166.02948 337.59203,167.26545 338.91187,168.2974 C 340.23167,169.32941 341.82762,169.8454 343.69971,169.84537 C 345.57175,169.8454 347.1677,169.32941 348.48755,168.2974 C 349.80735,167.26545 350.46726,166.02948 350.46729,164.58951 L 350.46729,164.58951 z M 352.48218,184.89224 C 352.48215,183.88445 352.24228,182.93669 351.76257,182.04898 C 351.28281,181.16131 350.64707,180.39336 349.85535,179.74515 C 349.06357,179.09698 348.13962,178.58099 347.0835,178.19718 C 346.02732,177.81341 344.89939,177.62151 343.69971,177.62149 C 342.49998,177.62151 341.38414,177.81341 340.35217,178.19718 C 339.32017,178.58099 338.40794,179.09698 337.61548,179.74515 C 336.82298,180.39336 336.19896,181.16131 335.74341,182.04898 C 335.28783,182.93669 335.06005,183.88445 335.06006,184.89224 C 335.06005,186.04509 335.28783,187.12541 335.74341,188.13321 C 336.19896,189.14103 336.82298,190.02873 337.61548,190.7963 C 338.40794,191.56388 339.32017,192.16374 340.35217,192.59586 C 341.38414,193.02799 342.49998,193.24406 343.69971,193.24405 C 344.89939,193.24406 346.03941,193.02799 347.11975,192.59586 C 348.20005,192.16374 349.13608,191.56388 349.92786,190.7963 C 350.71958,190.02873 351.34323,189.14103 351.79883,188.13321 C 352.25436,187.12541 352.48215,186.04509 352.48218,184.89224 L 352.48218,184.89224 z "
       id="flowRoot2198" />
  </g>
</svg>
