<?xml version="1.0" encoding="UTF-8" standalone="no"?>
<!-- Created with Inkscape (http://www.inkscape.org/) -->
<svg
   xmlns:dc="http://purl.org/dc/elements/1.1/"
   xmlns:cc="http://web.resource.org/cc/"
   xmlns:rdf="http://www.w3.org/1999/02/22-rdf-syntax-ns#"
   xmlns:svg="http://www.w3.org/2000/svg"
   xmlns="http://www.w3.org/2000/svg"
   xmlns:sodipodi="http://sodipodi.sourceforge.net/DTD/sodipodi-0.dtd"
   xmlns:inkscape="http://www.inkscape.org/namespaces/inkscape"
   width="600"
   height="600"
   id="svg2"
   sodipodi:version="0.32"
   inkscape:version="0.44"
   version="1.0"
   sodipodi:docbase="C:\Documents and Settings\Geoffrey\My Documents\Nevada shields"
   sodipodi:docname="Nevada 339.svg">
  <defs
     id="defs4" />
  <sodipodi:namedview
     id="base"
     pagecolor="#ffffff"
     bordercolor="#666666"
     borderopacity="1.0"
     gridtolerance="10000"
     guidetolerance="10"
     objecttolerance="10"
     inkscape:pageopacity="0.0"
     inkscape:pageshadow="2"
     inkscape:zoom="0.84666667"
     inkscape:cx="300"
     inkscape:cy="300"
     inkscape:document-units="px"
     inkscape:current-layer="layer4"
     width="600px"
     height="600px"
     showgrid="true"
     units="px"
     gridspacingx="16.66px"
     gridspacingy="16.66px"
     grid_units="px"
     gridempspacing="3"
     inkscape:window-width="997"
     inkscape:window-height="704"
     inkscape:window-x="275"
     inkscape:window-y="0"
     inkscape:grid-points="true"
     showguides="true"
     inkscape:object-nodes="false"
     inkscape:object-points="false" />
  <metadata
     id="metadata7">
    <rdf:RDF>
      <cc:Work
         rdf:about="">
        <dc:format>image/svg+xml</dc:format>
        <dc:type
           rdf:resource="http://purl.org/dc/dcmitype/StillImage" />
        <cc:license
           rdf:resource="" />
      </cc:Work>
    </rdf:RDF>
  </metadata>
  <g
     inkscape:label="Background"
     inkscape:groupmode="layer"
     id="layer1"
     transform="translate(-765.0002,-539.9991)">
    <path
       style="fill:black;fill-opacity:1;fill-rule:evenodd;stroke:black;stroke-width:0.19601439px;stroke-linecap:butt;stroke-linejoin:miter;stroke-opacity:1"
       d="M 765.09821,593.02099 C 765.09821,540.09709 818.02209,540.09709 818.02209,540.09709 C 818.02209,540.09709 1259.0544,540.09709 1311.9783,540.09709 C 1364.9022,540.09709 1364.9022,593.02099 1364.9022,593.02099 C 1364.9022,593.02099 1364.9022,1034.0533 1364.9022,1086.9773 C 1364.9022,1139.9011 1311.9783,1139.9011 1311.9783,1139.9011 C 1311.9783,1139.9011 870.94597,1139.9011 818.02209,1139.9011 C 765.09821,1139.9011 765.09821,1086.9773 765.09821,1086.9773 L 765.09821,593.02099 z "
       id="path1888" />
  </g>
  <g
     inkscape:groupmode="layer"
     id="layer2"
     inkscape:label="Nevada shape"
     transform="translate(-765.0002,-539.9991)">
    <path
       style="opacity:1;fill:white;fill-opacity:1"
       d="M 1262.4285,1106.6791 C 1263.9325,1102.7233 1261.8099,1097.5929 1256.4957,1092.3396 C 1245.9376,1081.9022 1244.3737,1079.5799 1244.3737,1074.3391 C 1244.3737,1070.6947 1243.7825,1068.7685 1242.0139,1066.6499 C 1240.417,1064.7371 1239.4913,1062.0918 1239.1506,1058.4682 C 1238.6992,1053.667 1238.2026,1052.7303 1234.3483,1049.4108 C 1230.3004,1045.9245 1230.086,1045.4783 1230.6748,1041.7658 C 1231.0894,1039.1521 1232.1899,1037.149 1233.9397,1035.8232 C 1235.3914,1034.7232 1238.2638,1032.0991 1240.3226,1029.9919 C 1243.222,1027.0245 1244.6986,1026.2353 1246.8714,1026.4919 C 1249.261,1026.7741 1249.8791,1027.5205 1251.0425,1031.5285 C 1252.3315,1035.9697 1255.3355,1039.3232 1258.0248,1039.3232 C 1260.1156,1039.3232 1262.3737,1036.2862 1262.3737,1033.4742 C 1262.3737,1031.9859 1263.0852,1029.7524 1263.9547,1028.511 C 1265.0968,1026.8804 1265.947,1023.145 1265.9255,1015.0385 L 1264.8002,590.2191 L 864.9602,590.2191 L 864.9602,806.7991 L 960.5202,882.0791 L 864.9602,881.7691 L 864.9602,990.0591 L 1106.5302,990.0591 L 1254.2458,1105.5375 C 1259.8378,1109.9091 1261.1032,1110.1647 1262.4285,1106.6791 z "
       id="path2226"
       sodipodi:nodetypes="csssssssssssssscccccccsc" />
  </g>
  <g
     inkscape:groupmode="layer"
     id="layer3"
     inkscape:label="NEVADA text"
     transform="translate(-765.0002,-539.9991)"
     style="opacity:1">
    <path
       style="font-size:144px;opacity:1;font-family:Roadgeek 2005 Series D"
       d="M 929.42752,973.5991 L 902.2802,927.8391 L 902.2802,973.5991 L 889.8002,973.5991 L 889.8002,898.7191 L 902.2802,898.7191 L 927.2402,940.3191 L 927.2402,898.7191 L 939.7202,898.7191 L 939.7202,973.5991 L 929.42752,973.5991 z "
       id="path3274"
       sodipodi:nodetypes="ccccccccccc" />
    <path
       style="font-size:144px;opacity:1;font-family:Roadgeek 2005 Series D"
       d="M 953.8365,973.5991 L 953.8365,898.7191 L 997.9602,898.7191 L 997.9602,911.1991 L 968.8402,911.1991 L 968.8402,927.8391 L 989.6402,927.8391 L 989.6402,940.3191 L 968.8402,940.3191 L 968.8402,961.1191 L 1002.1202,961.52902 L 1002.1202,973.5991 L 953.8365,973.5991 z "
       id="path3272"
       sodipodi:nodetypes="ccccccccccccc" />
    <path
       style="font-size:144px;opacity:1;font-family:Roadgeek 2005 Series D"
       d="M 1041.6233,973.5991 L 1032.9261,973.5991 L 1010.4402,898.7191 L 1022.2125,898.7191 L 1037.3798,948.67773 L 1052.3338,898.7191 L 1064.3194,898.7191 L 1041.6233,973.5991 z "
       id="path3270" />
    <path
       id="path3268"
       style="font-size:144px;font-family:Roadgeek 2005 Series D"
       d="M 1110.7744,973.5991 L 1103.7733,952.58971 L 1081.6078,952.58971 L 1074.6067,973.5991 L 1062.621,973.5991 L 1087.1233,898.7191 L 1098.2579,898.7191 L 1122.7602,973.5991 L 1110.7744,973.5991 z M 1092.8491,919.50682 L 1085.5307,940.51964 L 1099.7436,940.51964 L 1092.8491,919.50682 z " />
    <path
       id="path3264"
       style="font-size:144px;font-family:Roadgeek 2005 Series D"
       d="M 1181.0002,936.0483 C 1181.0002,943.57445 1179.9216,950.18697 1177.765,955.88607 C 1175.6081,961.58527 1172.5143,966.07411 1168.4834,969.35287 C 1167.1392,970.69441 1165.5656,971.6999 1163.7627,972.36951 C 1161.9597,973.0392 1160.1392,973.44904 1158.3007,973.5991 L 1154.2709,973.5991 L 1132.6331,973.5991 L 1132.6331,898.7191 L 1155.543,898.7191 C 1157.3124,898.7192 1158.8508,898.77545 1160.1585,898.88794 C 1161.4662,899.00061 1162.6503,899.20586 1163.711,899.50364 C 1164.7715,899.80151 1165.7257,900.21135 1166.5739,900.73313 C 1167.4219,901.25501 1168.3411,901.88769 1169.3316,902.63108 C 1173.0798,906.05998 1175.9614,910.62393 1177.977,916.32296 C 1179.9924,922.02216 1181.0002,928.59719 1181.0002,936.0483 L 1181.0002,936.0483 z M 1169.5453,936.0483 C 1169.5452,930.98242 1169.0322,926.47478 1168.0062,922.52516 C 1166.98,918.57573 1165.5834,915.63241 1163.8161,913.69512 C 1162.8968,912.8016 1161.8362,912.05686 1160.6344,911.46112 C 1159.4324,910.86546 1158.0892,910.56759 1156.6046,910.5675 L 1143.8775,910.5675 L 1143.8775,961.52902 L 1155.119,961.52902 C 1156.9573,961.52902 1158.4953,961.30564 1159.733,960.85879 C 1160.9705,960.41202 1162.0844,959.66676 1163.0749,958.62317 C 1165.196,956.38801 1166.8048,953.31448 1167.9009,949.40242 C 1168.9971,945.49063 1169.5452,941.03917 1169.5453,936.0483 L 1169.5453,936.0483 z " />
    <path
       id="path3260"
       style="font-size:144px;font-family:Roadgeek 2005 Series D"
       d="M 1235.5744,973.5991 L 1228.5733,952.58971 L 1206.4079,952.58971 L 1199.4066,973.5991 L 1187.4209,973.5991 L 1211.9233,898.7191 L 1223.0577,898.7191 L 1247.5602,973.5991 L 1235.5744,973.5991 z M 1217.6492,919.50682 L 1210.3308,940.51964 L 1224.5435,940.51964 L 1217.6492,919.50682 z " />
  </g>
  <g
     inkscape:groupmode="layer"
     id="layer4"
     inkscape:label="Route number">
    <path
       transform="matrix(2.668367,0,0,2.668367,-501.8844,-268.9826)"
       style="font-size:72px;font-weight:normal;text-align:center;text-anchor:middle"
       d="M 274.521,184.24405 C 274.52096,186.69182 274.113,188.94767 273.29712,191.01163 C 272.48117,193.0756 271.34115,194.83964 269.87708,196.30374 C 268.41293,197.76786 266.66098,198.91995 264.62122,199.76004 C 262.5814,200.60013 260.33762,201.02017 257.88989,201.02017 C 255.92112,201.02017 254.08494,200.70816 252.38135,200.08414 C 250.67772,199.46012 249.11766,198.59622 247.70117,197.49246 C 246.28466,196.38871 245.0725,195.04471 244.0647,193.46048 C 243.05688,191.87626 242.31274,190.10051 241.83228,188.13321 L 249.32056,185.9733 C 249.89769,188.32438 250.95421,190.12394 252.49011,191.37198 C 254.02598,192.62003 255.94603,193.24406 258.25024,193.24405 C 259.54514,193.24406 260.72068,193.02799 261.77686,192.59586 C 262.83298,192.16374 263.73313,191.57597 264.47729,190.83255 C 265.22141,190.08915 265.80954,189.20146 266.2417,188.16947 C 266.6738,187.1375 266.88986,185.99748 266.88989,184.74942 C 266.88986,183.50139 266.64963,182.32512 266.16919,181.22061 C 265.68869,180.11614 265.01706,179.25188 264.1543,178.62784 C 263.8657,178.43597 263.61338,178.27996 263.39734,178.15982 C 263.18125,178.03973 262.91721,177.95586 262.60522,177.90824 C 262.29319,177.86065 261.88523,177.81268 261.38135,177.76431 C 260.87742,177.716 260.16917,177.66839 259.25659,177.62149 L 258.39307,177.62149 L 258.39307,169.84537 L 258.39307,170.0607 L 258.6084,170.0607 L 258.75342,170.0607 L 260.26514,170.0607 C 261.80173,170.06073 262.978,169.65277 263.79395,168.83682 C 264.60984,168.02094 265.0178,166.84467 265.01782,165.30802 C 265.0178,163.43598 264.35788,161.88801 263.03809,160.66409 C 261.71824,159.44026 260.07395,158.82832 258.10522,158.82828 C 254.88988,158.82832 252.46556,160.41255 250.83228,163.58096 L 243.70435,160.91568 C 244.95239,157.84395 246.83654,155.43208 249.35681,153.68009 C 251.87706,151.92818 254.72142,151.05221 257.88989,151.05216 C 259.9055,151.05221 261.81345,151.43636 263.61377,152.20462 C 265.41404,152.97298 266.98618,154.02913 268.3302,155.37308 C 269.67416,156.71712 270.72995,158.28889 271.49756,160.08841 C 272.2651,161.88801 272.64889,163.79633 272.64893,165.81339 C 272.64889,167.25336 272.457,168.54938 272.07324,169.70145 C 271.68942,170.85358 270.96945,172.1972 269.91333,173.73233 C 270.82589,174.54828 271.57003,175.3283 272.14575,176.07242 C 272.7214,176.81658 273.18942,177.59661 273.5498,178.41251 C 273.91012,179.22845 274.16207,180.10442 274.30566,181.04044 C 274.44918,181.97649 274.52096,183.04436 274.521,184.24405 L 274.521,184.24405 z M 316.00537,184.24405 C 316.00533,186.69182 315.59738,188.94767 314.78149,191.01163 C 313.96554,193.0756 312.82553,194.83964 311.36145,196.30374 C 309.89731,197.76786 308.14536,198.91995 306.10559,199.76004 C 304.06577,200.60013 301.822,201.02017 299.37427,201.02017 C 297.4055,201.02017 295.56932,200.70816 293.86572,200.08414 C 292.1621,199.46012 290.60204,198.59622 289.18555,197.49246 C 287.76903,196.38871 286.55688,195.04471 285.54907,193.46048 C 284.54125,191.87626 283.79711,190.10051 283.31665,188.13321 L 290.80493,185.9733 C 291.38207,188.32438 292.43859,190.12394 293.97449,191.37198 C 295.51036,192.62003 297.4304,193.24406 299.73462,193.24405 C 301.02952,193.24406 302.20506,193.02799 303.26123,192.59586 C 304.31736,192.16374 305.2175,191.57597 305.96167,190.83255 C 306.70578,190.08915 307.29392,189.20146 307.72607,188.16947 C 308.15817,187.1375 308.37424,185.99748 308.37427,184.74942 C 308.37424,183.50139 308.134,182.32512 307.65356,181.22061 C 307.17307,180.11614 306.50144,179.25188 305.63867,178.62784 C 305.35007,178.43597 305.09775,178.27996 304.88171,178.15982 C 304.66562,178.03973 304.40159,177.95586 304.0896,177.90824 C 303.77756,177.86065 303.3696,177.81268 302.86572,177.76431 C 302.36179,177.716 301.65354,177.66839 300.74097,177.62149 L 299.87744,177.62149 L 299.87744,169.84537 L 299.87744,170.0607 L 300.09277,170.0607 L 300.23779,170.0607 L 301.74951,170.0607 C 303.28611,170.06073 304.46238,169.65277 305.27832,168.83682 C 306.09421,168.02094 306.50217,166.84467 306.5022,165.30802 C 306.50217,163.43598 305.84226,161.88801 304.52246,160.66409 C 303.20261,159.44026 301.55833,158.82832 299.5896,158.82828 C 296.37425,158.82832 293.94994,160.41255 292.31665,163.58096 L 285.18872,160.91568 C 286.43676,157.84395 288.32091,155.43208 290.84119,153.68009 C 293.36144,151.92818 296.20579,151.05221 299.37427,151.05216 C 301.38987,151.05221 303.29783,151.43636 305.09814,152.20462 C 306.89841,152.97298 308.47055,154.02913 309.81458,155.37308 C 311.15854,156.71712 312.21432,158.28889 312.98193,160.08841 C 313.74948,161.88801 314.13327,163.79633 314.1333,165.81339 C 314.13327,167.25336 313.94137,168.54938 313.55762,169.70145 C 313.17379,170.85358 312.45382,172.1972 311.39771,173.73233 C 312.31027,174.54828 313.05441,175.3283 313.63013,176.07242 C 314.20578,176.81658 314.67379,177.59661 315.03418,178.41251 C 315.3945,179.22845 315.64645,180.10442 315.79004,181.04044 C 315.93356,181.97649 316.00533,183.04436 316.00537,184.24405 L 316.00537,184.24405 z M 358.49829,166.46158 C 358.49825,169.77362 358.05404,173.07355 357.16565,176.36136 C 356.27719,179.64922 355.01706,182.80523 353.38525,185.82938 C 351.75339,188.85356 349.78574,191.6613 347.4823,194.2526 C 345.17881,196.84391 342.63474,199.09976 339.8501,201.02017 L 336.17847,194.54044 C 337.61839,193.38908 338.90233,192.27323 340.03027,191.1929 C 341.15818,190.11259 342.17808,188.99638 343.08997,187.84427 C 344.00181,186.69218 344.8419,185.46831 345.61023,184.17264 C 346.37851,182.877 347.12229,181.4367 347.84155,179.85172 C 346.44993,180.09197 345.38206,180.26006 344.63794,180.35599 C 343.89378,180.45196 343.04197,180.49993 342.08252,180.49991 C 339.82664,180.49993 337.70262,180.11614 335.71045,179.34854 C 333.71825,178.58099 331.97802,177.53729 330.48975,176.21744 C 329.00146,174.89764 327.82555,173.33758 326.96204,171.53726 C 326.09851,169.737 325.66674,167.82904 325.66675,165.81339 C 325.66674,163.74946 326.09851,161.81733 326.96204,160.017 C 327.82555,158.21675 328.98937,156.65669 330.45349,155.33682 C 331.91759,154.01705 333.64574,152.97298 335.63794,152.20462 C 337.63011,151.43636 339.7783,151.05221 342.08252,151.05216 C 344.3867,151.05221 346.54661,151.44844 348.56226,152.24088 C 350.57785,153.0334 352.31772,154.11336 353.78186,155.48074 C 355.24594,156.84822 356.39804,158.46797 357.23816,160.34 C 358.07821,162.21211 358.49825,164.25263 358.49829,166.46158 L 358.49829,166.46158 z M 350.86499,165.81339 C 350.86496,164.90082 350.62509,164.0124 350.14539,163.1481 C 349.66562,162.28388 349.02988,161.53974 348.23816,160.91568 C 347.44638,160.2917 346.52244,159.78779 345.46631,159.40396 C 344.41013,159.02021 343.2822,158.82832 342.08252,158.82828 C 340.88279,158.82832 339.76695,159.0085 338.73499,159.36881 C 337.70299,159.7292 336.79076,160.22139 335.99829,160.84537 C 335.2058,161.46943 334.58177,162.2132 334.12622,163.07669 C 333.67064,163.94025 333.44286,164.85248 333.44287,165.81339 C 333.44286,166.77289 333.67064,167.67267 334.12622,168.51273 C 334.58177,169.35285 335.2058,170.0849 335.99829,170.70889 C 336.79076,171.33295 337.70299,171.82477 338.73499,172.18436 C 339.76695,172.544 340.88279,172.72381 342.08252,172.72379 C 343.2822,172.72381 344.42222,172.544 345.50256,172.18436 C 346.58286,171.82477 347.51889,171.33295 348.31067,170.70889 C 349.10239,170.0849 349.72605,169.35285 350.18164,168.51273 C 350.63718,167.67267 350.86496,166.77289 350.86499,165.81339 L 350.86499,165.81339 z "
       id="flowRoot2198" />
  </g>
</svg>
