<?xml version="1.0" encoding="UTF-8" standalone="no"?>
<!-- Created with Inkscape (http://www.inkscape.org/) -->
<svg
   xmlns:svg="http://www.w3.org/2000/svg"
   xmlns="http://www.w3.org/2000/svg"
   version="1.0"
   width="600.00006"
   height="599.99994"
   id="svg3882">
  <defs
     id="defs3884" />
  <g
     id="g2480">
    <path
       d="M 37.499975,-2e-12 L 562.49999,-2e-12 C 583.27507,-2e-12 600.00005,16.724987 600.00005,37.499972 L 600.00005,562.49997 C 600.00005,583.27497 583.27507,599.99995 562.49999,599.99995 L 37.499975,599.99995 C 16.724974,599.99995 0,583.27497 0,562.49997 L 0,37.499972 C 0,16.724987 16.724974,-2e-12 37.499975,-2e-12 z"
       id="rect1873"
       style="fill:#000000" />
    <g
       transform="matrix(0.277778,0,0,0.277778,-619.88596,2.9629065)"
       id="g2448">
      <path
         d="M 3311.5869,101.83257 C 3097.0554,101.83257 2984.8848,145.58308 2850.998,244.15739 C 2706.7787,350.33899 2540.6385,418.07141 2344.0869,418.41436 L 2344.0869,1559.4099 C 2344.0869,1660.764 2344.2308,1660.7821 2396.2385,1712.043 C 2487.1109,1801.6108 3311.5869,2036.8326 3311.5869,2036.8326 C 3311.5869,2036.8326 4136.0629,1801.6108 4226.9353,1712.043 C 4278.943,1660.7821 4279.0869,1660.764 4279.0869,1559.4099 L 4279.0869,418.41438 C 4082.5353,418.07143 3914.951,352.50396 3772.1758,244.15741 C 3644.7748,147.47774 3526.1184,101.83257 3311.5869,101.83257 z"
         id="path2452"
         style="fill:#ffffff;fill-opacity:1;stroke:none;stroke-width:22.5;stroke-linecap:square;stroke-linejoin:round;stroke-miterlimit:2;stroke-dasharray:none;stroke-dashoffset:0;stroke-opacity:1" />
    </g>
    <path
       d="M 276.41266,349.27875 C 276.41244,363.97476 273.96312,377.51857 269.0647,389.91022 C 264.16585,402.30198 257.32139,412.89297 248.5313,421.68323 C 239.74082,430.47354 229.22239,437.39055 216.97595,442.4343 C 204.7292,447.47805 191.25795,449.99992 176.56216,449.99993 C 164.74199,449.99992 153.71786,448.12666 143.48973,444.38012 C 133.26143,440.63359 123.8951,435.44693 115.3907,428.82012 C 106.88619,422.19334 99.608589,414.12423 93.557886,404.61274 C 87.50711,395.10133 83.039412,384.43998 80.15478,372.62865 L 125.11323,359.66088 C 128.57827,373.77643 134.92143,384.5807 144.14274,392.07371 C 153.36387,399.56683 164.8915,403.31336 178.72565,403.31332 C 186.50003,403.31336 193.55776,402.01615 199.89887,399.42167 C 206.23969,396.82729 211.64402,393.29842 216.11188,388.83507 C 220.57941,384.37182 224.11048,379.04225 226.70508,372.84632 C 229.29934,366.65054 230.59656,359.80608 230.59673,352.31292 C 230.59656,344.81995 229.15423,337.75782 226.26974,331.12652 C 223.38492,324.49544 219.35256,319.30658 214.17265,315.55992 C 212.43994,314.40794 210.92505,313.47131 209.62799,312.75001 C 208.33062,312.02898 206.74538,311.52549 204.87226,311.23953 C 202.99885,310.95383 200.54953,310.66581 197.5243,310.37545 C 194.49879,310.08536 190.24656,309.79953 184.76761,309.51797 L 179.58314,309.51797 L 179.58314,262.83136 L 179.58314,264.12418 L 180.87596,264.12418 L 181.74663,264.12418 L 190.82275,264.12418 C 200.04823,264.12436 207.11036,261.67504 212.00915,256.77622 C 216.90764,251.87777 219.35695,244.81564 219.35712,235.58981 C 219.35695,224.35042 215.39495,215.05664 207.47109,207.70845 C 199.54694,200.36073 189.67491,196.68675 177.85498,196.6865 C 158.55054,196.68675 143.99534,206.1982 134.18935,225.22087 L 91.394393,209.21894 C 98.887426,190.77673 110.19958,176.29629 125.3309,165.77757 C 140.46208,155.25941 157.53915,150.00019 176.56216,149.9999 C 188.66352,150.00019 200.11859,152.3066 210.92741,156.91912 C 221.73592,161.53222 231.17481,167.87318 239.24411,175.94203 C 247.31304,184.01142 253.65181,193.44811 258.26042,204.25214 C 262.86863,215.05664 265.17284,226.51391 265.17305,238.62398 C 265.17284,247.26936 264.02074,255.05045 261.71674,261.96728 C 259.41232,268.88448 255.08974,276.9514 248.74897,286.16807 C 254.22786,291.06686 258.69556,295.75003 262.15207,300.21758 C 265.60818,304.68542 268.41808,309.36859 270.58178,314.2671 C 272.74506,319.16587 274.25774,324.42508 275.11984,330.04477 C 275.9815,335.66469 276.41244,342.07601 276.41266,349.27875 L 276.41266,349.27875 z M 522.45728,201.01349 C 519.86264,204.17982 517.48367,207.06008 515.32039,209.65427 C 513.15669,212.24894 511.13831,214.84337 509.26525,217.43757 C 507.39178,220.03223 505.44816,222.76957 503.43437,225.64961 C 501.42019,228.53009 499.2567,231.84349 496.94389,235.58981 C 483.98034,256.91712 472.96061,279.39632 463.88465,303.02749 C 454.80839,326.65893 447.81662,350.14513 442.90932,373.48614 C 442.04731,379.53695 441.18543,385.37222 440.32368,390.99196 C 439.46167,396.61182 438.81306,402.23162 438.37786,407.85138 C 437.94239,413.47122 437.58181,419.23613 437.29611,425.14614 C 437.01015,431.05618 436.86724,437.61262 436.86737,444.81546 L 390.18076,444.81546 C 390.4709,428.09677 391.48009,411.95854 393.20834,396.4007 C 394.9364,380.84296 397.45608,365.57099 400.76737,350.58477 C 404.07847,335.59872 408.3285,320.68515 413.51747,305.84398 C 418.70622,291.0031 424.90208,275.94441 432.10505,260.66787 C 437.00356,249.71867 442.33533,239.05512 448.10039,228.67719 C 453.86516,218.29968 459.34204,209.07846 464.53106,201.01349 L 326.1994,201.01349 L 326.1994,155.18437 L 522.45728,155.18437 L 522.45728,201.01349 L 522.45728,201.01349 z"
       id="text1421"
       style="font-size:6.48414803px;font-style:normal;font-weight:normal;line-height:125%;fill:#000000;fill-opacity:1;stroke:none;stroke-width:1px;stroke-linecap:butt;stroke-linejoin:miter;stroke-opacity:1;font-family:Bitstream Vera Sans" />
  </g>
</svg>
