<?xml version="1.0" encoding="UTF-8" standalone="no"?>
<!-- Created with Inkscape (http://www.inkscape.org/) -->
<svg
   xmlns:svg="http://www.w3.org/2000/svg"
   xmlns="http://www.w3.org/2000/svg"
   version="1.0"
   width="600.00006"
   height="599.99994"
   id="svg3882">
  <defs
     id="defs3884" />
  <g
     id="g2480">
    <path
       d="M 37.499975,-2e-12 L 562.49999,-2e-12 C 583.27507,-2e-12 600.00005,16.724987 600.00005,37.499972 L 600.00005,562.49997 C 600.00005,583.27497 583.27507,599.99995 562.49999,599.99995 L 37.499975,599.99995 C 16.724974,599.99995 0,583.27497 0,562.49997 L 0,37.499972 C 0,16.724987 16.724974,-2e-12 37.499975,-2e-12 z"
       id="rect1873"
       style="fill:#000000" />
    <g
       transform="matrix(0.277778,0,0,0.277778,-619.88596,2.9629065)"
       id="g2448">
      <path
         d="M 3311.5869,101.83257 C 3097.0554,101.83257 2984.8848,145.58308 2850.998,244.15739 C 2706.7787,350.33899 2540.6385,418.07141 2344.0869,418.41436 L 2344.0869,1559.4099 C 2344.0869,1660.764 2344.2308,1660.7821 2396.2385,1712.043 C 2487.1109,1801.6108 3311.5869,2036.8326 3311.5869,2036.8326 C 3311.5869,2036.8326 4136.0629,1801.6108 4226.9353,1712.043 C 4278.943,1660.7821 4279.0869,1660.764 4279.0869,1559.4099 L 4279.0869,418.41438 C 4082.5353,418.07143 3914.951,352.50396 3772.1758,244.15741 C 3644.7748,147.47774 3526.1184,101.83257 3311.5869,101.83257 z"
         id="path2452"
         style="fill:#ffffff;fill-opacity:1;stroke:none;stroke-width:22.5;stroke-linecap:square;stroke-linejoin:round;stroke-miterlimit:2;stroke-dasharray:none;stroke-dashoffset:0;stroke-opacity:1" />
    </g>
    <path
       d="M 159.84785,444.81546 L 159.84785,210.08961 L 133.47698,210.08961 L 133.47698,173.3498 L 136.49795,173.3498 C 142.54866,173.35007 148.5994,171.76483 154.65019,168.59407 C 160.70088,165.42386 165.74463,160.95397 169.78146,155.18437 L 206.52127,155.18437 L 206.52127,444.81546 L 159.84785,444.81546 z M 269.40769,444.81546 C 269.97931,427.81534 272.13841,412.25316 275.88498,398.12885 C 279.63148,384.00464 285.5415,370.0299 293.61507,356.20457 C 299.66576,345.24649 307.15663,335.08424 316.0877,325.71778 C 325.01862,316.35157 334.52787,307.92187 344.61547,300.42865 C 347.2098,298.99527 349.5162,297.48478 351.53469,295.89719 C 353.55296,294.3099 355.56914,292.79502 357.58324,291.35254 L 373.14984,283.14709 L 387.41043,274.92845 L 401.24887,267.14515 C 407.00923,263.3988 411.69019,258.71563 415.29179,253.09564 C 418.89304,247.47603 420.69375,241.64076 420.69393,235.58981 C 420.69375,230.11973 419.25362,225.00562 416.37354,220.24748 C 413.4931,215.48978 409.67621,211.38266 404.92285,207.92612 C 400.16916,204.47004 394.62192,201.7327 388.2811,199.71408 C 381.93999,197.69594 375.16809,196.68675 367.96537,196.6865 C 353.26933,196.68675 341.38112,200.14526 332.30071,207.06204 C 323.22011,213.97929 317.52775,224.06459 315.22362,237.31797 L 269.40769,227.38437 C 274.3063,203.17283 285.5437,184.22249 303.11993,170.5333 C 320.69604,156.84465 342.31116,150.00019 367.96537,149.9999 C 381.79928,150.00019 394.69448,152.3066 406.65101,156.91912 C 418.60721,161.53222 428.98054,167.72807 437.77102,175.50669 C 446.5611,183.28586 453.55067,192.43452 458.73975,202.95272 C 463.9284,213.4714 466.52283,224.64064 466.52305,236.46048 C 466.52283,247.70029 464.00095,258.72223 458.95742,269.52632 C 453.91345,280.33076 446.63805,289.91476 437.1312,298.27835 C 434.8268,300.00226 432.73806,301.5853 430.86499,303.02749 C 428.99153,304.46995 427.04351,305.62206 425.02092,306.4838 L 410.76033,315.55992 L 395.19373,323.77855 L 380.93314,331.99719 C 374.01159,336.02527 367.88609,340.2731 362.55664,344.74069 C 357.22694,349.20849 352.3283,354.03677 347.86071,359.22555 C 343.39291,364.41449 339.21324,370.17941 335.32168,376.5203 C 331.42994,382.86134 327.75597,390.06418 324.29974,398.12885 L 466.52305,398.12885 L 466.52305,444.81546 L 269.40769,444.81546 z"
       id="text1421"
       style="font-size:6.48414803px;font-style:normal;font-weight:normal;line-height:125%;fill:#000000;fill-opacity:1;stroke:none;stroke-width:1px;stroke-linecap:butt;stroke-linejoin:miter;stroke-opacity:1;font-family:Bitstream Vera Sans" />
  </g>
</svg>
