<?xml version="1.0" encoding="UTF-8" standalone="no"?>
<!-- Created with Inkscape (http://www.inkscape.org/) -->
<svg
   xmlns:svg="http://www.w3.org/2000/svg"
   xmlns="http://www.w3.org/2000/svg"
   version="1.0"
   width="600.00006"
   height="599.99994"
   id="svg3882">
  <defs
     id="defs3884" />
  <g
     id="g2480">
    <path
       d="M 37.499975,-2e-12 L 562.49999,-2e-12 C 583.27507,-2e-12 600.00005,16.724987 600.00005,37.499972 L 600.00005,562.49997 C 600.00005,583.27497 583.27507,599.99995 562.49999,599.99995 L 37.499975,599.99995 C 16.724974,599.99995 0,583.27497 0,562.49997 L 0,37.499972 C 0,16.724987 16.724974,-2e-12 37.499975,-2e-12 z"
       id="rect1873"
       style="fill:#000000" />
    <g
       transform="matrix(0.277778,0,0,0.277778,-619.88596,2.9629065)"
       id="g2448">
      <path
         d="M 3311.5869,101.83257 C 3097.0554,101.83257 2984.8848,145.58308 2850.998,244.15739 C 2706.7787,350.33899 2540.6385,418.07141 2344.0869,418.41436 L 2344.0869,1559.4099 C 2344.0869,1660.764 2344.2308,1660.7821 2396.2385,1712.043 C 2487.1109,1801.6108 3311.5869,2036.8326 3311.5869,2036.8326 C 3311.5869,2036.8326 4136.0629,1801.6108 4226.9353,1712.043 C 4278.943,1660.7821 4279.0869,1660.764 4279.0869,1559.4099 L 4279.0869,418.41438 C 4082.5353,418.07143 3914.951,352.50396 3772.1758,244.15741 C 3644.7748,147.47774 3526.1184,101.83257 3311.5869,101.83257 z"
         id="path2452"
         style="fill:#ffffff;fill-opacity:1;stroke:none;stroke-width:22.5;stroke-linecap:square;stroke-linejoin:round;stroke-miterlimit:2;stroke-dasharray:none;stroke-dashoffset:0;stroke-opacity:1" />
    </g>
    <path
       d="M 74.37667,444.81546 C 74.948295,427.81534 77.107389,412.25316 80.853958,398.12885 C 84.600457,384.00464 90.510482,370.0299 98.584051,356.20457 C 104.63474,345.24649 112.12561,335.08424 121.05668,325.71778 C 129.9876,316.35157 139.49685,307.92187 149.58445,300.42865 C 152.17878,298.99527 154.48518,297.48478 156.50367,295.89719 C 158.52194,294.3099 160.53812,292.79502 162.55222,291.35254 L 178.11882,283.14709 L 192.37941,274.92845 L 206.21785,267.14515 C 211.97821,263.3988 216.65918,258.71563 220.26077,253.09564 C 223.86202,247.47603 225.66273,241.64076 225.66291,235.58981 C 225.66273,230.11973 224.2226,225.00562 221.34252,220.24748 C 218.46208,215.48978 214.64519,211.38266 209.89183,207.92612 C 205.13814,204.47004 199.5909,201.7327 193.25008,199.71408 C 186.90897,197.69594 180.13707,196.68675 172.93435,196.6865 C 158.23831,196.68675 146.3501,200.14526 137.26969,207.06204 C 128.18909,213.97929 122.49673,224.06459 120.1926,237.31797 L 74.37667,227.38437 C 79.275278,203.17283 90.512681,184.22249 108.08891,170.5333 C 125.66502,156.84465 147.28014,150.00019 172.93435,149.9999 C 186.76826,150.00019 199.66346,152.3066 211.61999,156.91912 C 223.57619,161.53222 233.94952,167.72807 242.74,175.50669 C 251.53008,183.28586 258.51965,192.43452 263.70873,202.95272 C 268.89738,213.4714 271.49181,224.64064 271.49203,236.46048 C 271.49181,247.70029 268.96993,258.72223 263.9264,269.52632 C 258.88243,280.33076 251.60704,289.91476 242.10018,298.27835 C 239.79578,300.00226 237.70704,301.5853 235.83397,303.02749 C 233.96051,304.46995 232.01249,305.62206 229.9899,306.4838 L 215.72931,315.55992 L 200.16271,323.77855 L 185.90212,331.99719 C 178.98057,336.02527 172.85507,340.2731 167.52562,344.74069 C 162.19592,349.20849 157.29728,354.03677 152.82969,359.22555 C 148.36189,364.41449 144.18222,370.17941 140.29066,376.5203 C 136.39892,382.86134 132.72495,390.06418 129.26872,398.12885 L 271.49203,398.12885 L 271.49203,444.81546 L 74.37667,444.81546 z M 525.62337,352.31292 C 525.62314,365.5666 522.95615,378.10122 517.6224,389.91681 C 512.28821,401.73252 505.08316,412.10804 496.00725,421.04342 C 486.93094,429.97883 476.48506,437.03876 464.66957,442.22323 C 452.85376,447.40769 440.31914,449.99992 427.06568,449.99993 C 413.80318,449.99992 401.26416,447.40769 389.4486,442.22323 C 377.63286,437.03876 367.18698,429.97883 358.11093,421.04342 C 349.03476,412.10804 341.83191,401.73252 336.50237,389.91681 C 331.17276,378.10122 328.50797,365.5666 328.508,352.31292 C 328.50797,338.47898 331.38823,326.01472 337.14878,314.9201 C 342.90926,303.82574 351.12349,293.95591 361.7915,285.31058 C 347.66718,270.32461 340.60506,252.74404 340.6051,232.56883 C 340.60506,221.32945 342.91146,210.73845 347.52432,200.79582 C 352.13708,190.85368 358.40549,182.0634 366.32956,174.42495 C 374.2535,166.78704 383.40217,160.80666 393.77559,156.48378 C 404.14882,152.16149 415.24551,150.00019 427.06568,149.9999 C 438.59538,150.00019 449.68987,152.16149 460.34918,156.48378 C 471.00818,160.80666 480.30195,166.78704 488.23055,174.42495 C 496.15876,182.0634 502.49973,190.85368 507.25346,200.79582 C 512.00678,210.73845 514.38354,221.32945 514.38375,232.56883 C 514.38354,242.65655 512.43772,252.09544 508.54628,260.88553 C 504.65442,269.676 499.10718,277.81768 491.90453,285.31058 C 503.14394,293.95591 511.57364,303.96866 517.19366,315.34884 C 522.81324,326.72929 525.62314,339.05064 525.62337,352.31292 L 525.62337,352.31292 z M 467.69715,231.27602 C 467.69698,221.76039 463.73498,213.61651 455.81112,206.84437 C 447.88696,200.0727 438.30516,196.68675 427.06568,196.6865 C 415.82596,196.68675 406.24415,200.0727 398.32024,206.84437 C 390.39614,213.61651 386.43413,221.76039 386.43422,231.27602 C 386.43413,239.9214 390.39614,247.34191 398.32024,253.53757 C 406.24415,259.73362 415.82596,262.83154 427.06568,262.83136 C 438.30516,262.83154 447.88696,259.73362 455.81112,253.53757 C 463.73498,247.34191 467.69698,239.9214 467.69715,231.27602 L 467.69715,231.27602 z M 479.79424,353.1704 C 479.79406,347.11976 478.35393,341.4296 475.47385,336.09991 C 472.59342,330.77045 468.77653,326.15983 464.02317,322.26807 C 459.26948,318.37654 453.72223,315.27862 447.38142,312.97428 C 441.0403,310.6702 434.2684,309.5181 427.06568,309.51797 C 419.86271,309.5181 413.16337,310.6702 406.96762,312.97428 C 400.77166,315.27862 395.29477,318.37654 390.53694,322.26807 C 385.77893,326.15983 382.0324,330.77045 379.29733,336.09991 C 376.56211,341.4296 375.19453,347.11976 375.19461,353.1704 C 375.19453,360.09191 376.56211,366.57799 379.29733,372.62865 C 382.0324,378.67947 385.77893,384.00904 390.53694,388.6174 C 395.29477,393.22587 400.77166,396.82729 406.96762,399.42167 C 413.16337,402.01615 419.86271,403.31336 427.06568,403.31332 C 434.2684,403.31336 441.11286,402.01615 447.59908,399.42167 C 454.08501,396.82729 459.70481,393.22587 464.4585,388.6174 C 469.21186,384.00904 472.9562,378.67947 475.69152,372.62865 C 478.42649,366.57799 479.79406,360.09191 479.79424,353.1704 L 479.79424,353.1704 z"
       id="text1421"
       style="font-size:6.48414803px;font-style:normal;font-weight:normal;line-height:125%;fill:#000000;fill-opacity:1;stroke:none;stroke-width:1px;stroke-linecap:butt;stroke-linejoin:miter;stroke-opacity:1;font-family:Bitstream Vera Sans" />
  </g>
</svg>
