<?xml version="1.0" encoding="UTF-8" standalone="no"?>
<!-- Created with Inkscape (http://www.inkscape.org/) -->
<svg
   xmlns:svg="http://www.w3.org/2000/svg"
   xmlns="http://www.w3.org/2000/svg"
   version="1.0"
   width="750.00006"
   height="600.00006"
   id="svg3882">
  <defs
     id="defs3884" />
  <rect
     width="750.00006"
     height="600.00006"
     rx="37.500004"
     ry="37.500004"
     x="0"
     y="0"
     id="rect2398"
     style="fill:#000000;fill-opacity:1;stroke:none;stroke-width:22.5;stroke-linecap:square;stroke-linejoin:round;stroke-miterlimit:2;stroke-dasharray:none;stroke-dashoffset:0;stroke-opacity:1" />
  <path
     d="M 375.00003,31.250061 C 316.52503,31.250061 266.30315,39.874664 211.8837,71.294758 C 157.66474,102.59909 104.806,119.17825 31.250003,119.17825 L 31.250003,436.12426 C 31.250003,464.27909 31.304808,464.29051 49.78299,478.53015 C 82.069684,503.41087 375.00003,568.75007 375.00003,568.75007 C 375.00003,568.75007 667.93036,503.41087 700.21706,478.53015 C 718.69525,464.29051 718.75006,464.27909 718.75006,436.12426 L 718.75006,119.17825 C 645.19405,119.17825 592.3353,102.59909 538.11638,71.294758 C 483.69693,39.874664 433.47503,31.250061 375.00003,31.250061 z"
     id="rect4804"
     style="fill:#ffffff;fill-opacity:1;stroke:none;stroke-width:22.5;stroke-linecap:square;stroke-linejoin:round;stroke-miterlimit:2;stroke-dasharray:none;stroke-dashoffset:0;stroke-opacity:1" />
  <path
     d="M 276.0268,360.52396 L 276.0268,420.67963 L 238.20964,420.67963 L 238.20964,360.52396 L 118.61287,360.52396 L 118.61287,337.82267 L 238.20964,179.3204 L 276.0268,179.3204 L 276.0268,325.93885 L 299.09087,325.93885 L 299.09087,360.52396 L 276.0268,360.52396 z M 238.20964,235.15567 L 169.40219,325.93885 L 238.20964,325.93885 L 238.20964,235.15567 z M 373.91167,420.67963 L 373.91167,225.07476 L 351.93595,225.07476 L 351.93595,194.45825 L 354.45343,194.45825 C 359.49568,194.45848 364.53796,193.13745 369.58029,190.49515 C 374.62253,187.85331 378.82565,184.1284 382.18967,179.3204 L 412.80618,179.3204 L 412.80618,420.67963 L 373.91167,420.67963 z M 603.89276,360.52396 L 603.89276,420.67963 L 566.0756,420.67963 L 566.0756,360.52396 L 446.47883,360.52396 L 446.47883,337.82267 L 566.0756,179.3204 L 603.89276,179.3204 L 603.89276,325.93885 L 626.95683,325.93885 L 626.95683,360.52396 L 603.89276,360.52396 z M 566.0756,235.15567 L 497.26816,325.93885 L 566.0756,325.93885 L 566.0756,235.15567 z"
     id="text1421"
     style="font-size:5.40345669px;font-style:normal;font-weight:normal;line-height:125%;fill:#000000;fill-opacity:1;stroke:none;stroke-width:1px;stroke-linecap:butt;stroke-linejoin:miter;stroke-opacity:1;font-family:Bitstream Vera Sans" />
</svg>
