<?xml version="1.0" encoding="UTF-8" standalone="no"?>
<!-- Created with Inkscape (http://www.inkscape.org/) -->
<svg
   xmlns:svg="http://www.w3.org/2000/svg"
   xmlns="http://www.w3.org/2000/svg"
   version="1.0"
   width="600.00006"
   height="599.99994"
   id="svg3882">
  <defs
     id="defs3884" />
  <g
     id="g2480">
    <path
       d="M 37.499975,-2e-12 L 562.49999,-2e-12 C 583.27507,-2e-12 600.00005,16.724987 600.00005,37.499972 L 600.00005,562.49997 C 600.00005,583.27497 583.27507,599.99995 562.49999,599.99995 L 37.499975,599.99995 C 16.724974,599.99995 0,583.27497 0,562.49997 L 0,37.499972 C 0,16.724987 16.724974,-2e-12 37.499975,-2e-12 z"
       id="rect1873"
       style="fill:#000000" />
    <g
       transform="matrix(0.277778,0,0,0.277778,-619.88596,2.9629065)"
       id="g2448">
      <path
         d="M 3311.5869,101.83257 C 3097.0554,101.83257 2984.8848,145.58308 2850.998,244.15739 C 2706.7787,350.33899 2540.6385,418.07141 2344.0869,418.41436 L 2344.0869,1559.4099 C 2344.0869,1660.764 2344.2308,1660.7821 2396.2385,1712.043 C 2487.1109,1801.6108 3311.5869,2036.8326 3311.5869,2036.8326 C 3311.5869,2036.8326 4136.0629,1801.6108 4226.9353,1712.043 C 4278.943,1660.7821 4279.0869,1660.764 4279.0869,1559.4099 L 4279.0869,418.41438 C 4082.5353,418.07143 3914.951,352.50396 3772.1758,244.15741 C 3644.7748,147.47774 3526.1184,101.83257 3311.5869,101.83257 z"
         id="path2452"
         style="fill:#ffffff;fill-opacity:1;stroke:none;stroke-width:22.5;stroke-linecap:square;stroke-linejoin:round;stroke-miterlimit:2;stroke-dasharray:none;stroke-dashoffset:0;stroke-opacity:1" />
    </g>
    <path
       d="M 158.15927,444.81546 L 158.15927,210.08961 L 131.7884,210.08961 L 131.7884,173.3498 L 134.80937,173.3498 C 140.86008,173.35007 146.91082,171.76483 152.96161,168.59407 C 159.0123,165.42386 164.05605,160.95397 168.09287,155.18437 L 204.83269,155.18437 L 204.83269,444.81546 L 158.15927,444.81546 z M 434.13661,372.62865 L 434.13661,444.81546 L 388.75602,444.81546 L 388.75602,372.62865 L 245.23988,372.62865 L 245.23988,345.3871 L 388.75602,155.18437 L 434.13661,155.18437 L 434.13661,331.12652 L 461.8135,331.12652 L 461.8135,372.62865 L 434.13661,372.62865 z M 388.75602,222.1867 L 306.18708,331.12652 L 388.75602,331.12652 L 388.75602,222.1867 z"
       id="text1421"
       style="font-size:6.48414803px;font-style:normal;font-weight:normal;line-height:125%;fill:#000000;fill-opacity:1;stroke:none;stroke-width:1px;stroke-linecap:butt;stroke-linejoin:miter;stroke-opacity:1;font-family:Bitstream Vera Sans" />
  </g>
</svg>
