<?xml version="1.0" encoding="UTF-8" standalone="no"?>
<!-- Created with Inkscape (http://www.inkscape.org/) -->

<svg
   xmlns:dc="http://purl.org/dc/elements/1.1/"
   xmlns:cc="http://creativecommons.org/ns#"
   xmlns:rdf="http://www.w3.org/1999/02/22-rdf-syntax-ns#"
   xmlns:svg="http://www.w3.org/2000/svg"
   xmlns="http://www.w3.org/2000/svg"
   xmlns:inkscape="http://www.inkscape.org/namespaces/inkscape"
   version="1.0"
   width="600"
   height="600"
   id="svg2">
  <title
     id="title4">Ohio State Route 13</title>
  <defs
     id="defs13" />
  <metadata
     id="metadata6">
    <rdf:RDF>
      <cc:Work
         rdf:about="">
        <dc:format>image/svg+xml</dc:format>
        <dc:type
           rdf:resource="http://purl.org/dc/dcmitype/StillImage" />
        <dc:title>Ohio State Route 13</dc:title>
      </cc:Work>
    </rdf:RDF>
  </metadata>
  <g
     id="g3766">
    <rect
       width="600"
       height="600"
       rx="37.5"
       ry="37"
       x="0"
       y="0"
       id="rect3760"
       style="fill:#000000;fill-rule:nonzero" />
    <path
       d="m 35.684,35.525 h 152.8 c 11.878,7.4633 25.825,13.302 41.064,17.82 15.239,4.518 32.952,-5.8749 50.001,-3.6927 8.5243,1.0911 15.405,7.394 24.091,7.5722 8.6859,0.17818 19.177,-5.7684 27.83,-5.5406 17.307,0.4556 22.538,17.336 49.188,14.902 15.962,-1.4579 27.536,-10.302 43.373,-16.182 15.836,-5.8802 35.987,-8.0005 52.714,-7.8043 32.029,0.37571 64.058,-16.015 96.087,-22.952 l 1.6713,226.42 c -16.88,11.321 -4.2266,30.351 -5.3553,48.012 -0.61683,9.6524 -1.9248,19.637 -9.3038,24.781 -7.3505,5.1248 -6.6474,17.268 -3.1851,31.198 4.5833,18.44 -3,36.947 -6.632,55.024 -3.6319,18.077 -11.016,35.099 -25.602,49.873 -14.268,14.453 -35.577,38.832 -60.761,42.639 -32.51,4.9138 -43.364,19.832 -60.825,38.85 -8.0529,8.7704 -11.805,11.253 -30.617,12.924 -10.486,0.93144 -7.7747,9.0298 -31.157,10.416 -23.075,1.368 -44.484,14.745 -58.221,14.722 -38.506,-0.0634 -70.102,-51.29 -120.86,-58.384 -25.336,-3.5407 -48.786,-14.768 -71.752,-27.008 -11.533,-6.15 -22.595,-18.33 -35.338,-20.54 -15.347,-2.65 -18.672,-15.13 -29.395,-20.39 v -401.76 c -0.3649,-7.3923 4.2841,-11.024 10.187,-10.895 z"
       inkscape:connector-curvature="0"
       id="path8"
       style="fill:#ffffff;stroke-width:0;stroke-miterlimit:4" />
  </g>
  <g
     id="routenum"
     style="font-size:446.42999268px;font-style:normal;font-variant:normal;font-weight:normal;font-stretch:normal;text-align:center;line-height:100%;letter-spacing:0px;word-spacing:0px;writing-mode:lr-tb;text-anchor:middle;fill:#000000;font-family:Roadgeek 2005 Series C">
    <path
       d="M 157.2,440 V 197.59 h -27.232 v -37.946 h 3.125 c 6.25,2.8e-4 12.5,-1.6366 18.75,-4.9107 6.2499,-3.2735 11.458,-7.8866 15.625,-13.839 h 37.946 v 299.11 H 157.2"
       inkscape:connector-curvature="0"
       id="path2988" />
    <path
       d="m 463.12,341.34 c -2.2e-4,15.179 -2.53,29.167 -7.5893,41.964 -5.0597,12.798 -12.203,23.81 -21.429,33.036 -8.9288,8.9286 -19.792,16.071 -32.589,21.429 -12.5,5.0595 -26.339,7.5893 -41.518,7.5893 -12.202,0 -23.661,-1.9345 -34.375,-5.8036 -10.417,-3.869 -20.089,-9.2262 -29.018,-16.071 -8.631,-6.8452 -16.071,-15.179 -22.321,-25 -6.25,-9.8214 -10.863,-20.833 -13.839,-33.036 l 46.429,-13.393 c 3.5714,14.583 10.119,25.744 19.643,33.482 9.5237,7.7381 21.428,11.607 35.714,11.607 8.0356,4e-5 15.327,-1.3392 21.875,-4.0179 6.5475,-2.6785 12.053,-6.25 16.518,-10.714 4.7617,-4.7618 8.482,-10.268 11.161,-16.518 2.6784,-6.5475 4.0177,-13.69 4.0179,-21.429 -1.8e-4,-7.738 -1.4883,-15.03 -4.4643,-21.875 -2.9764,-6.8451 -7.143,-12.202 -12.5,-16.071 -1.7859,-1.1903 -3.4228,-2.0832 -4.9107,-2.6786 -1.1906,-0.89272 -2.8275,-1.488 -4.9107,-1.7857 -1.7859,-0.29749 -4.3156,-0.5951 -7.5893,-0.89286 -2.9763,-0.29748 -7.2918,-0.5951 -12.946,-0.89286 h -5.3571 v -48.214 1.3393 h 1.3393 0.89286 9.375 c 9.5237,1.9e-4 16.815,-2.5296 21.875,-7.5893 5.0594,-5.0593 7.5891,-12.351 7.5893,-21.875 -1.6e-4,-11.607 -4.1668,-21.131 -12.5,-28.571 -8.0359,-7.7378 -18.155,-11.607 -30.357,-11.607 -19.941,2.5e-4 -34.97,9.8217 -45.089,29.464 l -44.196,-16.518 c 7.738,-19.047 19.345,-33.928 34.821,-44.643 15.774,-11.012 33.482,-16.518 53.125,-16.518 12.5,3.1e-4 24.256,2.3813 35.268,7.1429 11.309,4.7622 21.131,11.31 29.464,19.643 8.3331,8.3336 14.881,18.155 19.643,29.464 4.7617,11.012 7.1426,22.768 7.1429,35.268 -2.1e-4,8.9288 -1.1907,16.964 -3.5714,24.107 -2.3812,7.143 -6.8454,15.476 -13.393,25 5.6546,5.0597 10.268,9.9704 13.839,14.732 3.5712,4.4644 6.3986,9.2263 8.4821,14.286 2.3807,5.0596 4.0176,10.566 4.9107,16.518 0.89263,5.6549 1.3391,12.202 1.3393,19.643"
       inkscape:connector-curvature="0"
       id="path2990" />
  </g>
</svg>
