<?xml version="1.0" encoding="UTF-8" standalone="no"?>
<!-- Created with Inkscape (http://www.inkscape.org/) -->

<svg
   xmlns:dc="http://purl.org/dc/elements/1.1/"
   xmlns:cc="http://creativecommons.org/ns#"
   xmlns:rdf="http://www.w3.org/1999/02/22-rdf-syntax-ns#"
   xmlns:svg="http://www.w3.org/2000/svg"
   xmlns="http://www.w3.org/2000/svg"
   xmlns:inkscape="http://www.inkscape.org/namespaces/inkscape"
   version="1.0"
   width="600"
   height="600"
   id="svg2">
  <title
     id="title4">Ohio State Route 2</title>
  <defs
     id="defs12" />
  <metadata
     id="metadata6">
    <rdf:RDF>
      <cc:Work
         rdf:about="">
        <dc:format>image/svg+xml</dc:format>
        <dc:type
           rdf:resource="http://purl.org/dc/dcmitype/StillImage" />
        <dc:title>Ohio State Route 2</dc:title>
      </cc:Work>
    </rdf:RDF>
  </metadata>
  <g
     id="g3766">
    <rect
       width="600"
       height="600"
       rx="37.5"
       ry="37"
       x="0"
       y="0"
       id="rect3760"
       style="fill:#000000;fill-rule:nonzero" />
    <path
       d="m 35.684,35.525 h 152.8 c 11.878,7.4633 25.825,13.302 41.064,17.82 15.239,4.518 32.952,-5.8749 50.001,-3.6927 8.5243,1.0911 15.405,7.394 24.091,7.5722 8.6859,0.17818 19.177,-5.7684 27.83,-5.5406 17.307,0.4556 22.538,17.336 49.188,14.902 15.962,-1.4579 27.536,-10.302 43.373,-16.182 15.836,-5.8802 35.987,-8.0005 52.714,-7.8043 32.029,0.37571 64.058,-16.015 96.087,-22.952 l 1.6713,226.42 c -16.88,11.321 -4.2266,30.351 -5.3553,48.012 -0.61683,9.6524 -1.9248,19.637 -9.3038,24.781 -7.3505,5.1248 -6.6474,17.268 -3.1851,31.198 4.5833,18.44 -3,36.947 -6.632,55.024 -3.6319,18.077 -11.016,35.099 -25.602,49.873 -14.268,14.453 -35.577,38.832 -60.761,42.639 -32.51,4.9138 -43.364,19.832 -60.825,38.85 -8.0529,8.7704 -11.805,11.253 -30.617,12.924 -10.486,0.93144 -7.7747,9.0298 -31.157,10.416 -23.075,1.368 -44.484,14.745 -58.221,14.722 -38.506,-0.0634 -70.102,-51.29 -120.86,-58.384 -25.336,-3.5407 -48.786,-14.768 -71.752,-27.008 -11.533,-6.15 -22.595,-18.33 -35.338,-20.54 -15.347,-2.65 -18.672,-15.13 -29.395,-20.39 v -401.76 c -0.3649,-7.3923 4.2841,-11.024 10.187,-10.895 z"
       inkscape:connector-curvature="0"
       id="path8"
       style="fill:#ffffff;stroke-width:0;stroke-miterlimit:4" />
  </g>
  <g
     id="routenum"
     style="font-size:446.42999268px;font-style:normal;font-variant:normal;font-weight:normal;font-stretch:normal;text-align:center;line-height:100%;letter-spacing:0px;word-spacing:0px;writing-mode:lr-tb;text-anchor:middle;fill:#000000;font-family:Roadgeek 2005 Series C">
    <path
       d="m 195.27,440 c 0.5952,-17.56 2.8273,-33.631 6.6964,-48.214 3.869,-14.583 9.9702,-29.018 18.304,-43.304 6.2499,-11.309 13.988,-21.726 23.214,-31.25 9.2261,-9.8213 19.048,-18.601 29.464,-26.339 2.6785,-1.4879 5.0594,-2.976 7.1428,-4.4643 2.0832,-1.7856 4.1666,-3.4225 6.25,-4.9107 l 16.071,-8.4821 14.732,-8.4821 14.286,-8.0357 c 5.9522,-3.8689 10.714,-8.6308 14.286,-14.286 3.8689,-5.9522 5.8034,-12.053 5.8036,-18.304 -1.8e-4,-5.6545 -1.4883,-10.863 -4.4643,-15.625 -2.9764,-5.0593 -6.9942,-9.3748 -12.054,-12.946 -4.7621,-3.5712 -10.417,-6.3986 -16.964,-8.4821 -6.5478,-2.0831 -13.542,-3.1248 -20.982,-3.125 -15.179,2.5e-4 -27.53,3.5717 -37.054,10.714 -9.2263,7.1431 -15.03,17.56 -17.411,31.25 l -47.321,-10.268 c 5.0595,-25 16.667,-44.494 34.821,-58.482 18.155,-14.285 40.476,-21.428 66.964,-21.429 14.286,3.1e-4 27.53,2.3813 39.732,7.1429 12.5,4.7622 23.214,11.161 32.143,19.196 9.226,8.036 16.518,17.56 21.875,28.571 5.3569,10.715 8.0355,22.173 8.0357,34.375 -2.3e-4,11.607 -2.6788,23.066 -8.0357,34.375 -5.0597,11.012 -12.5,20.834 -22.321,29.464 -2.3812,1.7859 -4.6133,3.4228 -6.6964,4.9107 -1.7859,1.4882 -3.7204,2.6787 -5.8036,3.5714 l -14.732,9.375 -16.071,8.4821 -14.732,8.4822 c -7.143,4.1668 -13.542,8.6311 -19.196,13.393 -5.3573,4.4644 -10.417,9.3751 -15.179,14.732 -4.4644,5.3572 -8.7799,11.31 -12.946,17.857 -3.8691,6.5477 -7.5894,13.988 -11.161,22.321 h 146.88 v 48.214 h -203.57"
       inkscape:connector-curvature="0"
       id="path2988"
       style="fill:#000000" />
  </g>
</svg>
