<?xml version="1.0" encoding="UTF-8" standalone="no"?>
<!-- Created with Inkscape (http://www.inkscape.org/) -->

<svg
   xmlns:dc="http://purl.org/dc/elements/1.1/"
   xmlns:cc="http://creativecommons.org/ns#"
   xmlns:rdf="http://www.w3.org/1999/02/22-rdf-syntax-ns#"
   xmlns:svg="http://www.w3.org/2000/svg"
   xmlns="http://www.w3.org/2000/svg"
   xmlns:sodipodi="http://sodipodi.sourceforge.net/DTD/sodipodi-0.dtd"
   xmlns:inkscape="http://www.inkscape.org/namespaces/inkscape"
   width="480"
   height="385"
   id="svg27842"
   sodipodi:version="0.32"
   inkscape:version="0.48.1 r9760"
   version="1.0"
   sodipodi:docname="Oklahoma_State_Highway_template_wide.svg">
  <defs
     id="defs27844" />
  <sodipodi:namedview
     id="base"
     pagecolor="#ffffff"
     bordercolor="#666666"
     borderopacity="1.0"
     gridtolerance="10000"
     guidetolerance="10"
     objecttolerance="10"
     inkscape:pageopacity="0.0"
     inkscape:pageshadow="2"
     inkscape:zoom="0.98994949"
     inkscape:cx="242.93166"
     inkscape:cy="153.63663"
     inkscape:document-units="px"
     inkscape:current-layer="layer1"
     inkscape:window-width="860"
     inkscape:window-height="620"
     inkscape:window-x="483"
     inkscape:window-y="342"
     height="385px"
     width="480px"
     showguides="true"
     inkscape:guide-bbox="true"
     showgrid="false"
     inkscape:window-maximized="0" />
  <metadata
     id="metadata27847">
    <rdf:RDF>
      <cc:Work
         rdf:about="">
        <dc:format>image/svg+xml</dc:format>
        <dc:type
           rdf:resource="http://purl.org/dc/dcmitype/StillImage" />
        <dc:title></dc:title>
      </cc:Work>
    </rdf:RDF>
  </metadata>
  <g
     inkscape:label="Layer 1"
     inkscape:groupmode="layer"
     id="layer1"
     transform="translate(-253.215,-405.577)">
    <g
       id="g24382">
      <path
         sodipodi:nodetypes="cccccccccc"
         d="M 253.63869,430.1439 C 253.63869,416.88902 264.38359,406.1439 277.63869,406.1439 L 709.98896,406.1439 C 723.24386,406.1439 733.98876,416.88902 733.98876,430.1439 L 733.98876,766.14195 C 733.98876,779.39683 723.24386,790.14195 709.98896,790.14195 L 277.63869,790.14195 C 264.38359,790.14195 253.63869,779.39683 253.63869,766.14195 L 253.63869,430.1439 L 253.63869,430.1439 z "
         id="path10936"
         style="fill:white" />
      <path
         sodipodi:nodetypes="cccccccccc"
         stroke-miterlimit="3.863693"
         d="M 253.63869,430.1439 C 253.63869,416.88902 264.38359,406.1439 277.63869,406.1439 L 710.06526,406.1439 C 723.32016,406.1439 734.06506,416.88902 734.06506,430.1439 L 734.06506,766.14195 C 734.06506,779.39683 723.32016,790.14195 710.06526,790.14195 L 277.63869,790.14195 C 264.38359,790.14195 253.63869,779.39683 253.63869,766.14195 L 253.63869,430.1439 L 253.63869,430.1439 z "
         id="path10942"
         style="fill:none;stroke:black;stroke-linecap:round;stroke-linejoin:round;stroke-miterlimit:3.863693" />
      <path
         sodipodi:nodetypes="cccccccccc"
         d="M 257.63869,430.1439 C 257.63869,419.098 266.59279,410.1439 277.63849,410.1439 L 709.35098,410.1439 C 720.39668,410.1439 729.35078,419.098 729.35078,430.1439 L 729.35078,766.14146 C 729.35078,777.18785 720.39668,786.14195 709.35098,786.14195 L 277.63849,786.14195 C 266.59279,786.14195 257.63869,777.18785 257.63869,766.14146 L 257.63869,430.1439 L 257.63869,430.1439 z "
         id="path10950" />
      <path
         sodipodi:nodetypes="cccccccccc"
         d="M 263.63869,430.1439 C 263.63869,422.41197 269.90649,416.1439 277.63849,416.1439 L 710.06526,416.1439 C 717.79726,416.1439 724.06506,422.41197 724.06506,430.1439 L 724.06506,766.14195 C 724.06506,773.87388 717.79726,780.14195 710.06526,780.14195 L 277.63849,780.14195 C 269.90649,780.14195 263.63869,773.87388 263.63869,766.14195 L 263.63869,430.1439 L 263.63869,430.1439 z "
         id="path10958"
         style="fill:white" />
      <polygon
         transform="matrix(1.24861,0,0,1.158608,-2868.31,-4815.397)"
         clip-rule="evenodd"
         stroke-miterlimit="3.863693"
         points="2692.499,4698.8989 2687.6987,4689.2988 2682.8994,4692.499 2671.6992,4689.2988 2668.499,4686.0991 2663.6992,4690.8989 2647.6992,4681.2988 2646.0991,4674.8989 2646.0991,4577.2998 2527.6997,4577.2998 2527.6997,4550.0996 2838.0981,4550.0996 2838.0981,4570.8994 2855.6982,4633.2993 2855.6982,4719.6987 2828.498,4710.0986 2810.8984,4714.8989 2801.2983,4721.2988 2778.8984,4710.0986 2764.4985,4718.0986 2748.4985,4708.499 2738.8984,4711.6987 2730.8984,4706.8989 2721.2988,4711.6987 2692.499,4698.8989 "
         id="polygon12066"
         style="fill:none;fill-rule:evenodd;stroke:black;stroke-width:8;stroke-miterlimit:3.863693" />
      <path
         d=""
         id="path10938"
         style="fill:white" />
      <path
         d=""
         stroke-miterlimit="3.863693"
         id="path10944"
         style="fill:none;stroke:black;stroke-linecap:round;stroke-linejoin:round;stroke-miterlimit:3.863693" />
      <path
         d=""
         id="path10952" />
      <path
         d=""
         id="path10960"
         style="fill:white" />
    </g>
    <path
       style="color:#000000;fill:#ffffff;stroke:none;stroke-width:0.50000000000000000;stroke-linecap:butt;stroke-linejoin:miter;stroke-miterlimit:4;stroke-opacity:1;stroke-dasharray:none;stroke-dashoffset:0;marker:none;visibility:visible;display:inline;overflow:visible;enable-background:accumulate"
       d="m 282.14286,225.71429 9.28571,25 97.85714,10.71428 L 371.42857,230 z"
       id="path9044"
       inkscape:connector-curvature="0"
       transform="translate(253.215,405.577)" />
    <path
       style="color:#000000;fill:#ffffff;stroke:none;stroke-width:0.5;marker:none;visibility:visible;display:inline;overflow:visible;enable-background:accumulate"
       d="m 200,195 -13.57143,27.14286 72.14286,34.28571 17.14286,-39.99999 z"
       id="path9042"
       inkscape:connector-curvature="0"
       transform="translate(253.215,405.577)"
       sodipodi:nodetypes="ccccc" />
    <g
       style="font-size:272.36260986px;font-style:normal;font-weight:normal;fill:#000000;fill-opacity:1;stroke:none;font-family:Roadgeek 2005 Series B"
       id="text7106">
      <path
         d="m 391.89275,735.28894 0,-156.88086 -14.70758,0 0,-14.16286 c 4.72094,-0.9077 8.6248,-2.17873 11.71159,-3.81308 3.08676,-1.81557 6.17353,-4.35762 9.26033,-7.62615 l 16.88648,0 0,182.48295 -23.15082,0"
         style=""
         id="path9047" />
      <path
         d="m 518.57967,682.17823 c -8e-5,10.89455 -1.27111,20.51802 -3.81308,28.87044 -2.54213,8.17089 -6.17362,14.34444 -10.8945,18.52066 -6.89992,5.99197 -15.25236,8.98796 -25.05736,8.98796 -12.52871,0 -22.06139,-4.63016 -28.59808,-13.89049 -6.53671,-9.44189 -9.80505,-22.96921 -9.80505,-40.58203 0,-27.41776 5.35645,-52.29352 16.06939,-74.62736 10.89448,-22.51516 27.327,-42.48839 49.29764,-59.91977 l 12.80104,19.88247 c -10.34985,8.35261 -19.06545,17.15899 -26.14681,26.41917 -6.8999,9.26046 -12.7103,19.88259 -17.43121,31.86643 7.08138,-2.17879 13.4365,-1.99722 19.06539,0.54472 5.81033,2.36059 10.53128,6.44602 14.16285,12.25632 3.0867,4.53947 5.53796,10.53144 7.35379,17.97593 1.99724,7.44465 2.99591,15.34316 2.99599,23.69555 m -23.69555,-3.26835 c -6e-5,-18.70216 -5.08415,-28.05326 -15.2523,-28.05335 -5.44729,9e-5 -9.44194,2.54213 -11.98396,7.62615 -2.3605,4.9026 -3.54074,12.80111 -3.54071,23.69555 -3e-5,6.71833 0.36312,12.34715 1.08945,16.88648 0.72627,4.35784 2.08808,7.71697 4.08544,10.07742 1.27099,1.45263 2.81437,2.81444 4.63016,4.08544 1.81571,1.08947 3.72225,1.6342 5.71962,1.63417 4.7209,3e-5 8.53397,-2.36045 11.43923,-7.08142 0.90781,-2.36045 1.7249,-6.26431 2.45126,-11.7116 0.90782,-5.62878 1.36175,-11.34839 1.36181,-17.15884"
         style=""
         id="path9049" />
      <path
         d="m 625.9799,662.84049 c -9e-5,8.71566 -0.99876,17.43126 -2.99599,26.14681 -1.81584,8.71564 -4.63025,16.88651 -8.44324,24.51263 -9.07883,16.70491 -22.15222,25.05736 -39.22022,25.05736 -9.44193,0 -18.61147,-2.81441 -27.50862,-8.44324 l 12.25632,-20.42719 c 3.08674,1.99734 5.71958,3.35916 7.89851,4.08543 2.36044,0.72633 4.8117,1.08948 7.35379,1.08945 4.53933,3e-5 8.26162,-1.36179 11.16687,-4.08543 3.08672,-2.7236 5.81034,-7.17219 8.17088,-13.34577 2.17884,-5.08406 3.99458,-11.16682 5.44725,-18.2483 1.45253,-7.26294 2.17883,-13.98121 2.1789,-20.15483 -7e-5,-6.89977 -1.36188,-12.4378 -4.08544,-16.61412 -2.72369,-4.17613 -6.53676,-6.26424 -11.43923,-6.26434 -2.5421,10e-5 -4.721,0.63561 -6.5367,1.90654 -1.8158,1.27112 -3.90391,3.17766 -6.26434,5.71961 l -23.69555,-2.72362 3.26835,-88.24549 67.27357,0 0,23.69555 -44.66747,0 -0.81709,37.04131 c 2.54201,-0.36302 4.72091,-0.63539 6.53671,-0.81708 1.8157,-0.18146 3.72223,-0.27224 5.71961,-0.27237 7.08137,1.3e-4 12.89176,1.36194 17.43121,4.08544 4.72087,2.54217 8.89709,6.71839 12.52868,12.52868 2.54196,4.17633 4.53928,9.26043 5.99197,15.25231 1.63409,5.99206 2.45118,12.16561 2.45127,18.52066"
         style=""
         id="path9051" />
    </g>
  </g>
</svg>
