<?xml version="1.0" encoding="UTF-8" standalone="no"?>
<!-- Created with Inkscape (http://www.inkscape.org/) -->

<svg
   xmlns:dc="http://purl.org/dc/elements/1.1/"
   xmlns:cc="http://creativecommons.org/ns#"
   xmlns:rdf="http://www.w3.org/1999/02/22-rdf-syntax-ns#"
   xmlns:svg="http://www.w3.org/2000/svg"
   xmlns="http://www.w3.org/2000/svg"
   version="1.1"
   width="600"
   height="600"
   id="svg16807">
  <defs
     id="defs16809" />
  <metadata
     id="metadata16812">
    <rdf:RDF>
      <cc:Work
         rdf:about="">
        <dc:format>image/svg+xml</dc:format>
        <dc:type
           rdf:resource="http://purl.org/dc/dcmitype/StillImage" />
        <dc:title></dc:title>
      </cc:Work>
    </rdf:RDF>
  </metadata>
  <g
     transform="translate(0,-452.36218)"
     id="layer1">
    <g
       id="g17602">
      <rect
         width="600"
         height="600"
         rx="37.5"
         ry="37.5"
         x="0"
         y="452.36218"
         id="rect16822"
         style="color:#000000;fill:#000000;fill-opacity:1;fill-rule:nonzero;stroke:none;stroke-width:3;marker:none;visibility:visible;display:inline;overflow:visible;enable-background:accumulate" />
      <path
         d="m 578.39848,601.2848 0,0 0,0 -2.67688,-9.59214 -3.74771,-10.12511 -4.28305,-9.59225 -4.81843,-9.05935 -5.88924,-8.52638 -5.88916,-8.52641 -6.95997,-7.99352 -6.95992,-7.4606 -8.03076,-6.92771 -8.03072,-6.39481 -8.56612,-5.86191 -9.10152,-4.79614 0,0 0,0 0,0 -9.10146,-3.73027 -8.5661,-3.73031 -8.5661,-3.1974 -9.1015,-3.19741 -9.10148,-2.66446 -9.10153,-3.19742 -9.10145,-2.66453 -9.10153,-2.1316 -9.10145,-2.6645 -9.10146,-2.13161 -9.10152,-1.59871 -9.10149,-2.13153 -9.63686,-1.59869 -9.10146,-1.59878 -9.6369,-1.0658 -9.1015,-1.06585 -9.63683,-1.06575 -9.10152,-0.53294 -9.63691,-0.53287 -9.10145,-0.5329 -9.63688,-0.53294 -9.6369,0 -9.10145,0.53294 -9.63688,0 -9.6369,0.5329 -9.10145,0.53287 -9.63688,1.06584 -9.10148,1.06579 -9.63688,1.06577 -9.10144,1.06584 -9.63691,1.59871 -9.10152,1.59868 -9.10146,2.13161 -9.63688,1.59871 -9.10148,2.13156 -9.10149,2.66455 -9.10149,2.66457 -9.10153,2.66444 -8.56607,2.6645 -9.10148,3.1974 -9.10153,3.1974 -8.56607,3.19749 -9.10149,3.73022 -8.566108,3.19741 0,0 0,0 0,0 -9.101485,5.32901 -8.566103,5.86187 -8.030771,6.39485 -8.03065,6.92768 -7.495379,7.46063 -6.424584,7.46058 -6.424635,8.52652 -5.889143,8.52635 -5.35382,9.0593 -4.818398,9.05939 -4.283077,9.59215 -3.212332,9.59221 0,0 0,0 0,0 -2.141488,8.52642 -1.606167,8.52641 -1.070744,9.0593 -1.606065,8.52643 -0.535423,8.5264 -1.070744,8.52642 -0.535422,9.05935 -0.535422,8.52638 0,9.0593 0,8.52642 0,8.52637 0.535422,9.05935 0.535422,8.52642 1.070744,8.52641 1.070744,9.05927 1.606167,8.52653 1.070643,8.52633 1.606167,8.52642 2.141588,8.52641 2.141488,8.52642 2.141588,8.5264 2.676911,8.52642 2.67681,7.9935 2.67701,8.52642 3.212232,7.99352 3.212333,7.9935 3.747654,7.99355 3.747654,7.99345 3.747725,7.99354 4.283016,7.46061 3.747634,7.99354 4.818479,7.46058 4.283046,7.46058 4.818439,7.46065 4.818468,6.9277 5.353781,6.92771 5.35382,7.46062 5.353821,6.39484 5.889194,6.92768 5.35382,6.39484 5.88916,6.39474 6.42462,6.39484 5.8892,6.39481 6.42461,5.86195 6.95993,5.86187 6.42461,5.8619 6.95993,5.32902 6.95996,5.329 6.95996,5.32901 6.95997,5.32898 7.49534,4.79611 7.49535,4.26323 7.49534,4.79611 7.49535,4.26328 7.49533,4.2631 8.03069,3.7304 8.03077,3.7302 8.03073,3.7304 8.03072,3.7304 8.03072,3.1973 8.03069,2.6645 8.56618,3.1974 8.56607,2.6645 8.03076,2.1315 8.56611,2.1316 8.56607,2.1317 0,0 0,0 0,0 8.56611,-2.1317 8.56611,-2.1316 8.56611,-2.1315 8.03072,-2.6645 8.5661,-3.1974 8.03073,-2.6645 8.03076,-3.1973 8.56608,-3.7304 7.49533,-3.1974 8.03074,-3.7304 8.03072,-4.2632 7.49534,-4.2631 7.49534,-4.26328 8.03076,-4.26321 6.95993,-4.79613 7.49535,-4.79611 6.95993,-5.32898 7.49537,-4.79614 6.42458,-5.32897 6.95997,-5.86192 6.95996,-5.32904 6.42458,-5.86187 6.42458,-6.39481 5.88919,-5.86187 6.42459,-6.39485 5.88923,-6.3948 5.88916,-6.39481 5.35382,-6.92772 5.35386,-6.9277 5.35378,-6.92768 5.35382,-6.92779 4.81842,-7.46056 4.81844,-6.92771 4.28306,-7.46062 4.81843,-7.99348 4.28305,-7.46064 3.74768,-7.46058 3.74767,-7.99355 3.74764,-7.9935 3.74774,-7.99352 3.21229,-7.99354 3.21222,-8.52638 2.67695,-7.99355 2.6769,-8.52637 2.67691,-7.99348 2.14156,-8.52648 2.14149,-8.52638 2.14153,-8.52641 1.60615,-8.52642 1.60614,-8.5264 1.07077,-8.52642 1.07075,-9.05935 1.07077,-8.52637 0.53538,-8.52641 0.53542,-9.05932 0,-8.52637 0,-8.52649 0,-9.05928 -0.53542,-8.52641 -0.53538,-9.05935 -1.07077,-8.52638 -0.53537,-8.5264 -1.60615,-8.52643 -1.0708,-9.05927 -1.60615,-8.52641 -2.14148,-8.52649"
         id="path8752"
         style="fill:#ffffff;fill-opacity:1;fill-rule:evenodd;stroke:none" />
    </g>
    <g
       id="text17596"
       style="font-size:447.76119995px;font-style:normal;font-variant:normal;font-weight:normal;font-stretch:normal;text-align:center;line-height:100%;letter-spacing:0px;word-spacing:0px;writing-mode:lr-tb;text-anchor:middle;fill:#000000;fill-opacity:1;stroke:none;font-family:Roadgeek 2005 Series C;-inkscape-font-specification:Roadgeek 2005 Series C">
      <path
         d="m 273.24931,759.6383 c -1.9e-4,15.82099 -2.38825,30.44784 -7.16418,43.8806 -4.7763,13.43288 -11.34345,25.07466 -19.7015,34.92537 -8.35835,9.85076 -18.20909,17.61195 -29.55223,23.28358 -11.34341,5.67164 -23.73145,8.50746 -37.16418,8.50747 -13.43292,-10e-6 -26.41798,-2.23881 -38.95523,-6.71642 -12.23885,-4.47761 -23.88063,-11.04476 -34.92537,-19.70149 l 28.20895,-30.44777 c 7.46264,5.07468 14.3283,8.80602 20.59702,11.19403 6.26858,2.3881 13.13425,3.58213 20.59701,3.58209 8.05961,4e-5 15.52229,-1.64175 22.38806,-4.92537 6.86556,-3.58204 12.68645,-8.50741 17.46269,-14.77612 5.0745,-6.26859 8.95509,-13.73127 11.64179,-22.38806 2.98493,-8.65663 4.47747,-18.20886 4.47761,-28.65672 -1.4e-4,-16.41778 -3.73148,-29.25359 -11.19403,-38.50746 -7.46281,-9.25357 -17.4628,-13.88044 -30,-13.8806 -13.13441,1.6e-4 -25.0747,4.92553 -35.82089,14.77612 l -41.19403,-5.37313 7.61194,-149.55224 141.04478,0 0,42.08955 -101.19404,0 -3.13432,63.13433 c 7.46261,-2.68637 13.43275,-4.32816 17.91044,-4.92537 4.77603,-0.89532 9.99991,-1.34309 15.67165,-1.34329 12.23869,2e-4 23.43271,2.38826 33.58209,7.16418 10.1491,4.4778 18.80581,11.04496 25.97015,19.7015 7.164,8.35837 12.68639,18.35836 16.56716,30 4.17892,11.64192 6.26847,24.62698 6.26866,38.95522"
         id="path19365"
         style="letter-spacing:18.07228851;fill:#000000;font-family:Roadgeek 2005 Series C;-inkscape-font-specification:Roadgeek 2005 Series C" />
      <path
         d="m 494.21339,776.65323 c -1.9e-4,14.32843 -2.5375,28.05976 -7.61194,41.19403 -5.0748,12.83585 -12.08972,23.58211 -21.04478,32.2388 -13.13447,13.43284 -31.34341,20.14925 -54.62687,20.14926 -14.92546,-10e-6 -27.76126,-2.68657 -38.50746,-8.0597 -10.44781,-5.37313 -19.40303,-13.28357 -26.86567,-23.73135 -5.97018,-8.35817 -10.59704,-17.9104 -13.8806,-28.65671 -3.2836,-10.74621 -4.92539,-21.79097 -4.92537,-33.13433 -2e-5,-14.92527 2.23878,-28.6566 6.71642,-41.19403 4.77609,-12.83568 11.94026,-24.0297 21.49253,-33.58209 -16.11943,-17.61176 -24.17912,-38.35801 -24.1791,-62.23881 -2e-5,-11.64156 1.94027,-22.38781 5.82089,-32.23881 3.88057,-9.85048 9.2537,-18.20868 16.11941,-25.07462 7.16413,-7.16389 15.67158,-12.68628 25.52239,-16.56717 9.85066,-4.1788 20.74618,-6.26835 32.68656,-6.26866 11.64168,3.1e-4 22.23869,2.08986 31.79105,6.26866 9.55209,3.88089 17.76104,9.40328 24.62687,16.56717 7.16401,6.86594 12.68639,15.22414 16.56716,25.07462 3.88042,9.851 5.82071,20.59725 5.8209,32.23881 -1.9e-4,12.23902 -2.08974,23.73154 -6.26866,34.47761 -3.88077,10.44794 -9.85091,19.70167 -17.91045,27.7612 9.55207,8.95537 16.71625,20.00014 21.49254,33.13432 4.77593,12.83594 7.16399,26.71653 7.16418,41.6418 M 447.64622,639.6383 c -1.4e-4,-11.04454 -3.58222,-20.14901 -10.74627,-27.31343 -6.86579,-7.16392 -15.5225,-10.74601 -25.97015,-10.74627 -11.04486,2.6e-4 -20.14933,3.58235 -27.31343,10.74627 -7.16425,7.16442 -10.74633,16.26889 -10.74627,27.31343 -6e-5,12.23902 3.58202,21.9405 10.74627,29.10448 7.1641,7.16437 16.26857,10.74645 27.31343,10.74627 10.44765,1.8e-4 19.10436,-3.5819 25.97015,-10.74627 7.16405,-7.16398 10.74613,-16.86546 10.74627,-29.10448 m 5.37314,137.01493 c -1.5e-4,-16.41781 -3.88074,-29.40287 -11.64179,-38.95523 -7.76132,-9.85061 -17.91057,-14.77598 -30.44777,-14.77612 -12.5374,1.4e-4 -22.68664,4.92551 -30.44776,14.77612 -7.76126,9.55236 -11.64185,22.53742 -11.64179,38.95523 -6e-5,15.22395 3.88053,27.612 11.64179,37.16418 7.76112,9.55228 17.91036,14.32839 30.44776,14.32835 12.5372,4e-5 22.68645,-4.77607 30.44777,-14.32835 7.76105,-9.55218 11.64164,-21.94023 11.64179,-37.16418"
         id="path19367"
         style="letter-spacing:18.07228851;fill:#000000;font-family:Roadgeek 2005 Series C;-inkscape-font-specification:Roadgeek 2005 Series C" />
    </g>
  </g>
</svg>
