<?xml version="1.0" encoding="UTF-8" standalone="no"?>
<!-- Created with Inkscape (http://www.inkscape.org/) -->

<svg
   xmlns:dc="http://purl.org/dc/elements/1.1/"
   xmlns:cc="http://creativecommons.org/ns#"
   xmlns:rdf="http://www.w3.org/1999/02/22-rdf-syntax-ns#"
   xmlns:svg="http://www.w3.org/2000/svg"
   xmlns="http://www.w3.org/2000/svg"
   version="1.1"
   width="600"
   height="600"
   id="svg16807">
  <defs
     id="defs16809" />
  <metadata
     id="metadata16812">
    <rdf:RDF>
      <cc:Work
         rdf:about="">
        <dc:format>image/svg+xml</dc:format>
        <dc:type
           rdf:resource="http://purl.org/dc/dcmitype/StillImage" />
        <dc:title></dc:title>
      </cc:Work>
    </rdf:RDF>
  </metadata>
  <g
     transform="translate(0,-452.36218)"
     id="layer1">
    <g
       id="g17602">
      <rect
         width="600"
         height="600"
         rx="37.5"
         ry="37.5"
         x="0"
         y="452.36218"
         id="rect16822"
         style="color:#000000;fill:#000000;fill-opacity:1;fill-rule:nonzero;stroke:none;stroke-width:3;marker:none;visibility:visible;display:inline;overflow:visible;enable-background:accumulate" />
      <path
         d="m 578.39848,601.2848 0,0 0,0 -2.67688,-9.59214 -3.74771,-10.12511 -4.28305,-9.59225 -4.81843,-9.05935 -5.88924,-8.52638 -5.88916,-8.52641 -6.95997,-7.99352 -6.95992,-7.4606 -8.03076,-6.92771 -8.03072,-6.39481 -8.56612,-5.86191 -9.10152,-4.79614 0,0 0,0 0,0 -9.10146,-3.73027 -8.5661,-3.73031 -8.5661,-3.1974 -9.1015,-3.19741 -9.10148,-2.66446 -9.10153,-3.19742 -9.10145,-2.66453 -9.10153,-2.1316 -9.10145,-2.6645 -9.10146,-2.13161 -9.10152,-1.59871 -9.10149,-2.13153 -9.63686,-1.59869 -9.10146,-1.59878 -9.6369,-1.0658 -9.1015,-1.06585 -9.63683,-1.06575 -9.10152,-0.53294 -9.63691,-0.53287 -9.10145,-0.5329 -9.63688,-0.53294 -9.6369,0 -9.10145,0.53294 -9.63688,0 -9.6369,0.5329 -9.10145,0.53287 -9.63688,1.06584 -9.10148,1.06579 -9.63688,1.06577 -9.10144,1.06584 -9.63691,1.59871 -9.10152,1.59868 -9.10146,2.13161 -9.63688,1.59871 -9.10148,2.13156 -9.10149,2.66455 -9.10149,2.66457 -9.10153,2.66444 -8.56607,2.6645 -9.10148,3.1974 -9.10153,3.1974 -8.56607,3.19749 -9.10149,3.73022 -8.566108,3.19741 0,0 0,0 0,0 -9.101485,5.32901 -8.566103,5.86187 -8.030771,6.39485 -8.03065,6.92768 -7.495379,7.46063 -6.424584,7.46058 -6.424635,8.52652 -5.889143,8.52635 -5.35382,9.0593 -4.818398,9.05939 -4.283077,9.59215 -3.212332,9.59221 0,0 0,0 0,0 -2.141488,8.52642 -1.606167,8.52641 -1.070744,9.0593 -1.606065,8.52643 -0.535423,8.5264 -1.070744,8.52642 -0.535422,9.05935 -0.535422,8.52638 0,9.0593 0,8.52642 0,8.52637 0.535422,9.05935 0.535422,8.52642 1.070744,8.52641 1.070744,9.05927 1.606167,8.52653 1.070643,8.52633 1.606167,8.52642 2.141588,8.52641 2.141488,8.52642 2.141588,8.5264 2.676911,8.52642 2.67681,7.9935 2.67701,8.52642 3.212232,7.99352 3.212333,7.9935 3.747654,7.99355 3.747654,7.99345 3.747725,7.99354 4.283016,7.46061 3.747634,7.99354 4.818479,7.46058 4.283046,7.46058 4.818439,7.46065 4.818468,6.9277 5.353781,6.92771 5.35382,7.46062 5.353821,6.39484 5.889194,6.92768 5.35382,6.39484 5.88916,6.39474 6.42462,6.39484 5.8892,6.39481 6.42461,5.86195 6.95993,5.86187 6.42461,5.8619 6.95993,5.32902 6.95996,5.329 6.95996,5.32901 6.95997,5.32898 7.49534,4.79611 7.49535,4.26323 7.49534,4.79611 7.49535,4.26328 7.49533,4.2631 8.03069,3.7304 8.03077,3.7302 8.03073,3.7304 8.03072,3.7304 8.03072,3.1973 8.03069,2.6645 8.56618,3.1974 8.56607,2.6645 8.03076,2.1315 8.56611,2.1316 8.56607,2.1317 0,0 0,0 0,0 8.56611,-2.1317 8.56611,-2.1316 8.56611,-2.1315 8.03072,-2.6645 8.5661,-3.1974 8.03073,-2.6645 8.03076,-3.1973 8.56608,-3.7304 7.49533,-3.1974 8.03074,-3.7304 8.03072,-4.2632 7.49534,-4.2631 7.49534,-4.26328 8.03076,-4.26321 6.95993,-4.79613 7.49535,-4.79611 6.95993,-5.32898 7.49537,-4.79614 6.42458,-5.32897 6.95997,-5.86192 6.95996,-5.32904 6.42458,-5.86187 6.42458,-6.39481 5.88919,-5.86187 6.42459,-6.39485 5.88923,-6.3948 5.88916,-6.39481 5.35382,-6.92772 5.35386,-6.9277 5.35378,-6.92768 5.35382,-6.92779 4.81842,-7.46056 4.81844,-6.92771 4.28306,-7.46062 4.81843,-7.99348 4.28305,-7.46064 3.74768,-7.46058 3.74767,-7.99355 3.74764,-7.9935 3.74774,-7.99352 3.21229,-7.99354 3.21222,-8.52638 2.67695,-7.99355 2.6769,-8.52637 2.67691,-7.99348 2.14156,-8.52648 2.14149,-8.52638 2.14153,-8.52641 1.60615,-8.52642 1.60614,-8.5264 1.07077,-8.52642 1.07075,-9.05935 1.07077,-8.52637 0.53538,-8.52641 0.53542,-9.05932 0,-8.52637 0,-8.52649 0,-9.05928 -0.53542,-8.52641 -0.53538,-9.05935 -1.07077,-8.52638 -0.53537,-8.5264 -1.60615,-8.52643 -1.0708,-9.05927 -1.60615,-8.52641 -2.14148,-8.52649"
         id="path8752"
         style="fill:#ffffff;fill-opacity:1;fill-rule:evenodd;stroke:none" />
    </g>
    <g
       id="text17596"
       style="font-size:447.76119995px;font-style:normal;font-variant:normal;font-weight:normal;font-stretch:normal;text-align:center;line-height:100%;letter-spacing:0px;word-spacing:0px;writing-mode:lr-tb;text-anchor:middle;fill:#000000;fill-opacity:1;stroke:none;font-family:Roadgeek 2005 Series C;-inkscape-font-specification:Roadgeek 2005 Series C">
      <path
         d="m 312.85882,783.81741 c -1.8e-4,12.23887 -2.08973,23.7314 -6.26865,34.47761 -4.17928,10.4478 -10.00017,19.55226 -17.46269,27.31343 -7.16433,7.76121 -15.9703,13.8806 -26.41791,18.35821 -10.14938,4.1791 -21.19415,6.26865 -33.13433,6.26866 -12.2389,-10e-6 -23.43292,-2.08956 -33.58209,-6.26866 -9.85081,-4.1791 -18.50751,-9.99999 -25.97015,-17.46269 -7.16422,-7.46266 -12.9851,-16.26862 -17.46269,-26.41791 -4.17912,-10.4477 -6.56718,-21.79098 -7.16418,-34.02985 l 42.08956,0 c 1.19396,12.23887 5.52232,22.38812 12.98507,30.44776 7.76111,7.76124 17.4626,11.64183 29.10448,11.64179 12.23869,4e-5 22.23868,-4.17906 30,-12.53731 8.05956,-8.65666 12.08941,-19.25366 12.08955,-31.79104 -1.4e-4,-8.05962 -1.04492,-15.5223 -3.13433,-22.38806 -2.08969,-7.16407 -4.92551,-13.28347 -8.50746,-18.35821 -3.58222,-5.37301 -7.76132,-9.55211 -12.53731,-12.53732 -4.47773,-2.98493 -9.4031,-4.47747 -14.77612,-4.47761 l -21.04478,0 0,-41.19403 17.91045,0 c 5.37303,1.8e-4 9.40287,-0.89534 12.08955,-2.68657 2.98496,-1.79086 6.26854,-4.77593 9.85075,-8.95522 8.65658,-9.55204 12.98494,-20.74606 12.98507,-33.58209 -1.3e-4,-11.64156 -3.28371,-20.89528 -9.85074,-27.7612 -6.26878,-6.86541 -14.62698,-10.29824 -25.07463,-10.2985 -9.55233,2.6e-4 -17.16427,2.83608 -22.83582,8.50746 -5.37321,5.37338 -8.65679,13.13457 -9.85075,23.28358 l -42.08955,-5.37313 c 1.194,-9.8505 3.88056,-18.95497 8.0597,-27.31344 4.17907,-8.65644 9.55219,-15.96986 16.1194,-21.94029 6.56711,-5.96986 14.17904,-10.59672 22.83582,-13.8806 8.65664,-3.58179 17.91036,-5.37283 27.7612,-5.37314 10.74616,3.1e-4 20.74615,1.94061 30,5.8209 9.25359,3.88089 17.16403,9.40328 23.73134,16.56716 6.86551,6.86595 12.23864,15.0749 16.11941,24.62687 3.88042,9.25398 5.82071,19.25397 5.82089,30 -1.8e-4,12.53753 -2.08973,24.17931 -6.26865,34.92537 -3.88077,10.74646 -10.89569,21.94047 -21.04478,33.58209 11.64163,10.44791 20.29834,22.3882 25.97015,35.8209 5.96997,13.43295 8.95504,27.76129 8.95522,42.98508"
         id="path18981"
         style="letter-spacing:18.07228851;fill:#000000;font-family:Roadgeek 2005 Series C;-inkscape-font-specification:Roadgeek 2005 Series C" />
      <path
         d="m 394.56917,864.86218 0,-246.26866 -18.80597,0 0,-32.68656 c 8.65668,-0.59674 15.52234,-2.68629 20.59701,-6.26866 5.37309,-3.5818 9.70144,-8.50717 12.98508,-14.77612 l 28.65672,0 0,300 -43.43284,0"
         id="path18983"
         style="letter-spacing:18.07228851;fill:#000000;font-family:Roadgeek 2005 Series C;-inkscape-font-specification:Roadgeek 2005 Series C" />
    </g>
  </g>
</svg>
