<?xml version="1.0" encoding="UTF-8" standalone="no"?>
<!-- Generator: Adobe Illustrator 12.0.0, SVG Export Plug-In . SVG Version: 6.00 Build 51448)  -->
<svg
   xmlns:dc="http://purl.org/dc/elements/1.1/"
   xmlns:cc="http://web.resource.org/cc/"
   xmlns:rdf="http://www.w3.org/1999/02/22-rdf-syntax-ns#"
   xmlns:svg="http://www.w3.org/2000/svg"
   xmlns="http://www.w3.org/2000/svg"
   xmlns:sodipodi="http://sodipodi.sourceforge.net/DTD/sodipodi-0.dtd"
   xmlns:inkscape="http://www.inkscape.org/namespaces/inkscape"
   version="1.1"
   id="Layer_1"
   width="383.9995117"
   height="384"
   viewBox="0 0 383.9995117 384"
   overflow="visible"
   enable-background="new 0 0 383.9995117 384"
   xml:space="preserve"
   sodipodi:version="0.32"
   inkscape:version="0.44.1"
   sodipodi:docname="Texas RM 1.svg"
   sodipodi:docbase="C:\Documents and Settings\User.CORAL\Desktop"><metadata
   id="metadata44"><rdf:RDF><cc:Work
       rdf:about=""><dc:format>image/svg+xml</dc:format><dc:type
         rdf:resource="http://purl.org/dc/dcmitype/StillImage" /></cc:Work></rdf:RDF></metadata><defs
   id="defs42" /><sodipodi:namedview
   inkscape:window-height="573"
   inkscape:window-width="853"
   inkscape:pageshadow="2"
   inkscape:pageopacity="0.0"
   guidetolerance="10.0"
   gridtolerance="10.0"
   objecttolerance="10.0"
   borderopacity="1.0"
   bordercolor="#666666"
   pagecolor="#ffffff"
   id="base"
   inkscape:zoom="0.98177083"
   inkscape:cx="191.99976"
   inkscape:cy="192"
   inkscape:window-x="66"
   inkscape:window-y="87"
   inkscape:current-layer="Layer_1" />
<g
   id="g3">
	<g
   id="g5">
		<path
   d="M0,24C0,10.7451172,10.7451172,0,24,0h335.9995117c13.2558594,0,24,10.7451172,24,24v336    c0,13.2548828-10.7441406,24-24,24H24c-13.2548828,0-24-10.7451172-24-24V24L0,24z"
   id="path7" />
		<path
   d="M192,192"
   id="path9" />
	</g>
	<path
   fill-rule="evenodd"
   clip-rule="evenodd"
   fill="#FFFFFF"
   d="M364.9438477,183.6342773   c-0.5917969-3.4604492-3.6884766-7.7094727-6.6806641-9.5151367c-0.9296875-6.7060547-5.0644531-12.7480469-11.1044922-15.8574219   l-4.3017578-48.4775391c-5.2460938-0.5224609-10.2519531-1.3955078-15.4033203-2.4921875l-2.1533203-0.5664063l-1.4746094-1.246582   l-1.6962891-1.1303711l-1.7001953-1.0205078l-1.8125-0.9082031l-1.9248047-0.7905273l-1.8095703-0.5673828l-2.0410156-0.4521484   l-1.9257813-0.3408203l-2.0371094-0.2260742h-2.0390625l-1.9248047,0.1142578l-2.0419922,0.3378906l-1.9257813,0.3398438   l-1.9257813,0.5683594l-0.1113281,0.1123047c-4.4550781,2.5771484-11.0009766,4.8676758-16.0830078,5.6621094   c-5.5244141-4.2822266-13.5214844-5.2050781-19.8232422-2.1508789v-0.112793   c-9.3310547,2.0410156-19.4892578-0.4921875-26.8447266-6.5717773v0.1157227   c-8.4931641,1.3925781-17.4150391,0.0644531-25.1455078-3.7407227l-2.0371094-1.1289063l-0.7949219-1.0200195l-1.0195313-0.9052734   l-1.1308594-0.5668945c-2.0068359-1.0913086-4.4707031-0.4799805-6.2285156,0.7905273v-0.1123047   c-3.3671875-2.496582-7.5385742-4.1264648-11.7802734-3.8505859l-2.605957-58.2197266l-75.5483398,1.2475586v136.597168   l-91.4072266-1.3598633c2.0698242,13.3662109,11.4238281,25.2885742,23.7875977,30.6948242l-0.1137695,0.1142578   c6.8833008,2.6337891,14.1411133,9.0029297,17.8959961,15.2890625c2.6791992,3.6796875,4.2041016,8.3388672,5.4375,12.6884766   c0.7583008,5.4091797,2.1079102,10.078125,4.8706055,14.8388672c4.4599609,8.0576172,11.9033203,14.2246094,20.5009766,17.4423828   l1.8125,0.5634766l1.8105469,1.7011719l2.0390625,1.3574219l2.152832,1.0185547l2.3803711,0.5693359l2.4902344,0.2236328   l2.378418-0.2236328l2.3789063-0.5693359l2.2651367-0.9033203l2.0375977-1.359375l1.8154297-1.5869141l1.4707031-1.9248047   h0.1137695c0.105957-8.09375,4.5166016-15.3496094,11.8916016-18.8027344h-0.1132813   c16.1035156-3.5820313,33.7597656,3.5751953,42.5898438,17.5576172l0.1142578-0.1132813   c8.1689453,18.9882813,20.9716797,37.4882813,35.5634766,52.2138672h-0.1113281   c2.7363281,13.1923828,7.5371094,23.9990234,15.8564453,34.6591797c8.2880859,1.1523438,17.8232422,5.140625,24.5791016,10.0820313   c6.7695313-1.8457031,13.4355469-0.6074219,19.3652344,3.0585938v-0.1123047   c4.7138672,4.4755859,12.8398438,1.1201172,13.1425781-5.3251953l-0.1162109,0.1142578   c-12.1123047-15.0732422-14.7978516-35.3964844-7.0205078-53.1210938   c2.2880859-4.7685547,4.7587891-8.8173828,8.2675781-12.7998047c3.8925781-4.5458984,4.4228516-4.0380859,9.2900391-7.2509766   c10.6748047-6.6445313,21.3720703-13.2412109,32.1669922-19.7080078h-0.1142578   c5.2255859,0.1816406,8.1503906-6.1445313,4.8681641-10.0800781h0.1171875l-1.359375-1.5859375l-0.453125-2.0390625   l0.453125-2.0371094l1.2421875-1.7021484l1.9267578-0.9042969l2.0400391,0.1132813l1.9248047,0.90625l1.2451172,1.6992188   l0.3408203,2.0380859c7.4902344-6.0058594,15.7861328-10.9892578,24.5810547-14.8369141v-0.1142578l0.9042969-1.9248047   l0.90625-2.0380859l1.359375-4.078125l0.5664063-2.1503906l0.4511719-2.1533203l0.6826172-4.3037109l-1.3623047-6.3427734   l-0.4501953-1.5869141l-0.3447266-1.5859375l-0.9023438-3.171875   C364.3217773,194.8691406,366.230957,189.2363281,364.9438477,183.6342773z"
   id="path11" />
	<g
   id="g13">
		<path
   fill-rule="evenodd"
   clip-rule="evenodd"
   fill="#FFFFFF"
   d="M68.2436523,339.4462891l-4.9794922-13.4638672h-5.855957    v13.4638672h-4.8876953v-30.8925781h10.1899414c1.1992188,0,2.2290039,0.0683594,3.0898438,0.2070313    c0.8603516,0.1386719,1.6748047,0.3925781,2.4433594,0.7607422c0.6762695,0.3388672,1.2988281,0.7763672,1.8676758,1.3144531    s1.0605469,1.1523438,1.4755859,1.8447266c0.4150391,0.6914063,0.737793,1.4287109,0.9682617,2.2128906    s0.3457031,1.5595703,0.3457031,2.328125c0,0.8300781-0.1152344,1.6367188-0.3457031,2.4208984    s-0.5532227,1.5214844-0.9682617,2.2138672c-0.4150391,0.6914063-0.9223633,1.3134766-1.5214844,1.8671875    c-0.5996094,0.5527344-1.2529297,0.9833984-1.9599609,1.2910156l5.440918,14.4316406H68.2436523z M68.0131836,317.2216797    c0-0.6455078-0.1689453-1.2597656-0.5068359-1.84375c-0.3383789-0.5839844-0.8149414-1.0449219-1.4296875-1.3837891    c-0.3994141-0.2148438-0.7685547-0.3603516-1.1064453-0.4375c-0.3383789-0.0771484-0.9067383-0.1152344-1.7060547-0.1152344    h-5.855957v7.5615234h5.855957c0.7685547,0,1.3291016-0.03125,1.6831055-0.0917969    c0.3530273-0.0615234,0.7299805-0.2001953,1.1293945-0.4150391c0.6147461-0.3388672,1.0913086-0.8076172,1.4296875-1.40625    C67.8442383,318.4902344,68.0131836,317.8671875,68.0131836,317.2216797z"
   id="path15" />
		<path
   fill-rule="evenodd"
   clip-rule="evenodd"
   fill="#FFFFFF"
   d="M100.0073242,324.0458984    c0,2.4589844-0.2924805,4.8105469-0.8764648,7.0546875s-1.4140625,4.0576172-2.4897461,5.4414063    C94.9194336,338.8476563,92.4296875,340,89.1713867,340c-2.1826172,0-3.980957-0.4453125-5.3950195-1.3369141    s-2.5820313-2.2900391-3.5043945-4.1962891c-0.6455078-1.3212891-1.1679688-2.9277344-1.5673828-4.8183594    c-0.3999023-1.890625-0.5996094-3.7578125-0.5996094-5.6025391c0-2.5507813,0.2998047-4.9179688,0.8994141-7.1005859    c0.5991211-2.1826172,1.4213867-4.0117188,2.4667969-5.4873047c0.921875-1.1679688,2.0209961-2.0361328,3.296875-2.6044922    C86.043457,308.2841797,87.5727539,308,89.355957,308c1.9672852,0,3.6425781,0.4462891,5.0253906,1.3369141    c1.3837891,0.8916016,2.5668945,2.2910156,3.5507813,4.1962891c0.6455078,1.3828125,1.152832,2.9970703,1.5214844,4.8417969    C99.8227539,320.2197266,100.0073242,322.109375,100.0073242,324.0458984z M95.1196289,324.0458984    c0-1.7519531-0.1538086-3.3730469-0.4614258-4.8642578c-0.3071289-1.4912109-0.7685547-2.7587891-1.3833008-3.8037109    c-0.4916992-0.7998047-1.0527344-1.3837891-1.6826172-1.7519531c-0.6303711-0.3691406-1.4067383-0.5839844-2.3291016-0.6464844    c-1.1987305-0.0605469-2.1977539,0.2158203-2.9970703,0.8300781c-0.7988281,0.6152344-1.4599609,1.6142578-1.9824219,2.9980469    c-0.3994141,0.921875-0.6992188,2.0351563-0.8994141,3.3417969c-0.199707,1.3066406-0.2993164,2.6054688-0.2993164,3.8964844    c0,1.6601563,0.1538086,3.2587891,0.4609375,4.7949219c0.3076172,1.5371094,0.7685547,2.7978516,1.3833008,3.78125    c0.4916992,0.7998047,1.0756836,1.3994141,1.7519531,1.7988281s1.5063477,0.5996094,2.4902344,0.5996094    c1.137207,0,2.0825195-0.3076172,2.8359375-0.921875c0.7529297-0.6152344,1.390625-1.6142578,1.9130859-2.9980469    c0.1538086-0.3994141,0.3076172-0.8828125,0.4609375-1.4521484c0.1538086-0.5683594,0.284668-1.1679688,0.3920898-1.7978516    c0.1079102-0.6308594,0.1923828-1.2685547,0.253418-1.9140625    C95.0883789,325.2910156,95.1196289,324.6611328,95.1196289,324.0458984z"
   id="path17" />
		<path
   fill-rule="evenodd"
   clip-rule="evenodd"
   fill="#FFFFFF"
   d="M125.0756836,339.4462891l-3.0429688-8.6679688h-9.637207    l-3.0429688,8.6679688h-5.2104492l10.6513672-30.8925781h4.8413086l10.6513672,30.8925781H125.0756836z M117.2832031,317.1298828    l-3.1816406,8.6679688h6.1787109L117.2832031,317.1298828z"
   id="path19" />
		<path
   fill-rule="evenodd"
   clip-rule="evenodd"
   fill="#FFFFFF"
   d="M156.0004883,323.9541016    c0,3.1044922-0.46875,5.8330078-1.40625,8.1845703s-2.2827148,4.203125-4.034668,5.5556641    c-0.5839844,0.5537109-1.2680664,0.96875-2.0517578,1.2451172c-0.7841797,0.2763672-1.5756836,0.4462891-2.3745117,0.5068359    h-1.7524414h-9.40625v-30.8925781h9.9594727c0.7685547,0,1.4375,0.0224609,2.0058594,0.0683594    c0.5688477,0.046875,1.0834961,0.1308594,1.5449219,0.2539063c0.4609375,0.1230469,0.8759766,0.2919922,1.2446289,0.5078125    c0.3691406,0.2148438,0.7685547,0.4765625,1.1992188,0.7832031c1.6289063,1.4140625,2.8813477,3.296875,3.7578125,5.6484375    C155.5625,318.1669922,156.0004883,320.8798828,156.0004883,323.9541016z M151.0205078,323.9541016    c0-2.0898438-0.2226563-3.9501953-0.668457-5.5791016c-0.4458008-1.6298828-1.0527344-2.84375-1.8212891-3.6425781    c-0.3994141-0.3691406-0.8608398-0.6767578-1.3833008-0.9228516s-1.1064453-0.3681641-1.7519531-0.3681641h-5.5332031v21.0253906    H144.75c0.7988281,0,1.4677734-0.0917969,2.0053711-0.2763672c0.5380859-0.1845703,1.0224609-0.4921875,1.4526367-0.921875    c0.9223633-0.9228516,1.621582-2.1904297,2.0981445-3.8046875    C150.7822266,327.8505859,151.0205078,326.0136719,151.0205078,323.9541016z"
   id="path21" />
	</g>
	<g
   id="g23">
		<path
   fill-rule="evenodd"
   clip-rule="evenodd"
   fill="#FFFFFF"
   d="M231.7241211,59.4467773l-4.9804688-13.4638672h-5.8554688    v13.4638672h-4.8886719V28.5537109h10.1914063c1.1982422,0,2.2285156,0.0683594,3.0888672,0.2070313    s1.6748047,0.3920898,2.4443359,0.7607422c0.6757813,0.3383789,1.2978516,0.7763672,1.8671875,1.3144531    c0.5683594,0.5380859,1.0605469,1.1523438,1.4746094,1.8442383c0.4160156,0.6918945,0.7382813,1.4291992,0.96875,2.2133789    s0.3457031,1.5595703,0.3457031,2.328125c0,0.8300781-0.1152344,1.637207-0.3457031,2.4208984    c-0.2304688,0.7841797-0.5527344,1.5214844-0.96875,2.2133789c-0.4140625,0.6918945-0.921875,1.3139648-1.5214844,1.8676758    c-0.5996094,0.5532227-1.2519531,0.9833984-1.9589844,1.2910156l5.4404297,14.4321289H231.7241211z M231.4926758,37.2216797    c0-0.6455078-0.1689453-1.2597656-0.5068359-1.84375c-0.3378906-0.5844727-0.8144531-1.0454102-1.4296875-1.3837891    c-0.3994141-0.2148438-0.7685547-0.3608398-1.1064453-0.4375c-0.3378906-0.0771484-0.9072266-0.1152344-1.7060547-0.1152344    h-5.8554688v7.5615234h5.8554688c0.7685547,0,1.3300781-0.0302734,1.6835938-0.0917969s0.7294922-0.2001953,1.1289063-0.4150391    c0.6152344-0.3383789,1.0917969-0.8071289,1.4296875-1.40625    C231.3237305,38.4902344,231.4926758,37.8671875,231.4926758,37.2216797z"
   id="path25" />
		<path
   fill-rule="evenodd"
   clip-rule="evenodd"
   fill="#FFFFFF"
   d="M260.4428711,59.4467773l-3.0429688-8.668457h-9.6367188    l-3.0429688,8.668457h-5.2109375l10.6513672-30.8930664h4.8417969l10.6513672,30.8930664H260.4428711z M252.6508789,37.1298828    l-3.1816406,8.668457h6.1787109L252.6508789,37.1298828z"
   id="path27" />
		<polygon
   fill-rule="evenodd"
   clip-rule="evenodd"
   fill="#FFFFFF"
   points="287.0336914,59.4467773 275.2299805,38.5131836     275.2299805,59.4467773 270.3422852,59.4467773 270.3422852,28.5537109 275.2299805,28.5537109 286.4799805,48.2880859     286.4799805,28.5537109 291.3686523,28.5537109 291.3686523,59.4467773   "
   id="polygon29" />
		<path
   fill-rule="evenodd"
   clip-rule="evenodd"
   fill="#FFFFFF"
   d="M319.0698242,53.1757813    C317.2260742,57.7255859,314.1206055,60,309.7563477,60c-2.3056641,0-4.2119141-0.4453125-5.7177734-1.3369141    s-2.7509766-2.2900391-3.734375-4.1962891c-0.7070313-1.3828125-1.2607422-2.9970703-1.6601563-4.8413086    c-0.4003906-1.8442383-0.5996094-3.7348633-0.5996094-5.6713867c0-2.4589844,0.3076172-4.8105469,0.921875-7.0546875    c0.6152344-2.2441406,1.4609375-4.0581055,2.5361328-5.440918c0.9228516-1.137207,2.0361328-1.9985352,3.3427734-2.5825195    S307.6811523,28,309.4331055,28c2.3359375,0,4.265625,0.5073242,5.7871094,1.5214844    c1.5214844,1.0146484,2.8046875,2.612793,3.8496094,4.7958984l-4.5644531,1.9365234    c-0.4296875-0.6455078-0.8222656-1.1835938-1.1757813-1.6142578s-0.7226563-0.7685547-1.1064453-1.0141602    c-0.3837891-0.2460938-0.7998047-0.4150391-1.2451172-0.5073242c-0.4453125-0.0917969-0.9609375-0.1381836-1.5449219-0.1381836    c-1.2597656,0-2.3125,0.2919922-3.1582031,0.8759766c-0.8457031,0.5844727-1.5292969,1.5678711-2.0517578,2.9511719    c-0.3994141,0.9223633-0.6992188,2.0131836-0.8994141,3.2739258c-0.1992188,1.2602539-0.2998047,2.5507813-0.2998047,3.8730469    c0,1.6904297,0.1689453,3.3120117,0.5068359,4.8642578c0.3388672,1.5527344,0.8154297,2.8203125,1.4296875,3.8037109    c0.5537109,0.7998047,1.1992188,1.3994141,1.9375,1.7988281c0.7373047,0.3994141,1.6445313,0.5996094,2.7197266,0.5996094    c1.0458984,0,1.9521484-0.2841797,2.7207031-0.8535156c0.7685547-0.5683594,1.4599609-1.4829102,2.0751953-2.7431641    L319.0698242,53.1757813z"
   id="path31" />
		<polygon
   fill-rule="evenodd"
   clip-rule="evenodd"
   fill="#FFFFFF"
   points="341.8823242,59.4467773 341.8823242,45.9829102     330.6313477,45.9829102 330.6313477,59.4467773 325.7436523,59.4467773 325.7436523,28.5537109 330.6313477,28.5537109     330.6313477,41.0029297 341.8823242,41.0029297 341.8823242,28.5537109 346.769043,28.5537109 346.769043,59.4467773   "
   id="polygon33" />
	</g>
</g>

<path
   style="font-size:140.80299377px;font-style:normal;font-variant:normal;font-weight:normal;font-stretch:normal;text-align:start;line-height:125%;writing-mode:lr-tb;text-anchor:start;fill:black;fill-opacity:1;stroke:none;stroke-width:1px;stroke-linecap:butt;stroke-linejoin:miter;stroke-opacity:1;font-family:Roadgeek 2005 Series D"
   d="M 220.69364,218.34 L 220.69364,141.88407 L 212.104,141.88407 L 212.104,129.91702 L 213.08801,129.91702 C 215.05887,129.91711 217.02974,129.40076 219.00063,128.36797 C 220.97149,127.33535 222.61436,125.8794 223.92925,124.0001 L 235.8963,124.0001 L 235.8963,218.34 L 220.69364,218.34 z "
   id="text1908" /></svg>