<?xml version="1.0" encoding="utf-8"?>
<!-- Generator: Adobe Illustrator 12.0.0, SVG Export Plug-In . SVG Version: 6.00 Build 51448)  -->
<!DOCTYPE svg PUBLIC "-//W3C//DTD SVG 1.1//EN" "http://www.w3.org/Graphics/SVG/1.1/DTD/svg11.dtd" [
	<!ENTITY ns_svg "http://www.w3.org/2000/svg">
	<!ENTITY ns_xlink "http://www.w3.org/1999/xlink">
]>
<svg  version="1.1" id="Layer_1" xmlns="&ns_svg;" xmlns:xlink="&ns_xlink;" width="384" height="384" viewBox="0 0 384 384"
	 overflow="visible" enable-background="new 0 0 384 384" xml:space="preserve">
<g>
	<g>
		<path d="M0,24C0,10.7451172,10.7451172,0,24,0h336c13.2548828,0,24,10.7451172,24,24v336c0,13.2548828-10.7451172,24-24,24H24
			c-13.2548828,0-24-10.7451172-24-24V24L0,24z"/>
		<path d="M192,192"/>
	</g>
	<g>
		<polygon fill="#FFFFFF" points="24,24 360,24 360,360 24,360 24,24 		"/>
		<path fill="#FFFFFF" d="M192,192"/>
	</g>
	<g>
		<polygon fill-rule="evenodd" clip-rule="evenodd" points="89.418457,265.7753906 89.418457,318.8935547 79.6435547,318.8935547 
			79.6435547,265.7753906 65.5336914,265.7753906 65.5336914,257.1064453 103.7124023,257.1064453 103.7124023,265.7753906 		"/>
		<polygon fill-rule="evenodd" clip-rule="evenodd" points="116.5371094,318.8935547 116.5371094,257.1064453 
			152.9633789,257.1064453 152.9633789,266.8818359 126.3120117,266.8818359 126.3120117,282.0058594 144.2949219,282.0058594 
			144.2949219,291.9648438 126.3120117,291.9648438 126.3120117,308.9335938 154.9003906,308.9335938 154.9003906,318.8935547 		"/>
		<polygon fill-rule="evenodd" clip-rule="evenodd" points="195.5732422,318.8935547 185.6142578,298.328125 
			175.6542969,318.8935547 164.5878906,318.8935547 179.9882813,286.9853516 165.6943359,257.1064453 176.7607422,257.1064453 
			185.6142578,275.5507813 194.4667969,257.1064453 205.5332031,257.1064453 191.0546875,286.9853516 206.6396484,318.8935547 		"/>
		<path fill-rule="evenodd" clip-rule="evenodd" d="M257.2626953,318.8935547l-6.0869141-17.3369141h-19.2734375
			l-6.0859375,17.3369141h-10.4208984l21.3027344-61.7871094h9.6826172l21.3027344,61.7871094H257.2626953z
			 M241.6777344,274.2597656l-6.3632813,17.3369141h12.3574219L241.6777344,274.2597656z"/>
		<path fill-rule="evenodd" clip-rule="evenodd" d="M318.4658203,301.0957031c0,2.8271484-0.5224609,5.4404297-1.5673828,7.8378906
			c-1.0449219,2.3984375-2.5507813,4.4882813-4.5185547,6.2714844c-1.7216797,1.5371094-3.7353516,2.7207031-6.0410156,3.5498047
			C304.0332031,319.5849609,301.5585938,320,298.9160156,320c-5.3486328,0-9.9140625-1.4296875-13.6953125-4.2880859
			c-3.7802734-2.8583984-6.7167969-6.6552734-8.8066406-11.3896484l9.3144531-3.4121094
			c1.2910156,2.9511719,3.0742188,5.2109375,5.3486328,6.7792969c2.2744141,1.5664063,4.8876953,2.3515625,7.8388672,2.3515625
			c2.8886719,0,5.2099609-0.8769531,6.9619141-2.6289063c1.7529297-1.7519531,2.6279297-3.9199219,2.6279297-6.5019531
			c0-2.0283203-0.5371094-3.6884766-1.6132813-4.9794922s-2.4746094-2.3818359-4.1962891-3.2734375
			s-3.6113281-1.6757813-5.6708984-2.3515625c-2.0595703-0.6767578-4.1035156-1.4140625-6.1328125-2.2138672
			c-0.921875-0.3691406-2.0595703-0.890625-3.4121094-1.5673828s-2.6591797-1.6142578-3.9199219-2.8125
			c-1.2597656-1.1992188-2.3359375-2.6904297-3.2265625-4.4726563c-0.8925781-1.7832031-1.3378906-3.9658203-1.3378906-6.5478516
			c0-3.0117188,0.4921875-5.5791016,1.4755859-7.7001953s2.3212891-3.8427734,4.0117188-5.1640625
			s3.7197266-2.2900391,6.0869141-2.9052734C292.9365234,256.3076172,295.5039063,256,298.2695313,256
			c4.3652344,0,8.0078125,1.1367188,10.9287109,3.4121094c2.9199219,2.2753906,5.1494141,5.3486328,6.6865234,9.2216797
			l-8.6699219,2.5830078c-0.4912109-0.984375-1.1367188-1.8759766-1.9355469-2.6748047
			c-0.6767578-0.6767578-1.6142578-1.2910156-2.8134766-1.8447266c-1.1982422-0.5527344-2.6591797-0.8603516-4.3798828-0.921875
			c-1.1074219-0.0615234-2.2597656,0.015625-3.4589844,0.2304688c-1.1982422,0.2148438-2.2587891,0.5996094-3.1806641,1.1523438
			c-0.9228516,0.5537109-1.6601563,1.3066406-2.2138672,2.2597656c-0.5527344,0.953125-0.7685547,2.1367188-0.6455078,3.5507813
			c0.1230469,1.9052734,0.953125,3.3652344,2.4902344,4.3798828s3.4121094,1.890625,5.625,2.6279297
			c2.2138672,0.7382813,4.5957031,1.4912109,7.1474609,2.2597656c2.5507813,0.7685547,4.9023438,1.875,7.0546875,3.3203125
			c2.1523438,1.4443359,3.9492188,3.3808594,5.3945313,5.8095703S318.4658203,297.0371094,318.4658203,301.0957031z"/>
	</g>
</g>
<g>
	<path fill-rule="evenodd" clip-rule="evenodd" d="M180.6157227,161.1064453c0,6.3632813-1.2797852,12.3803711-3.8383789,18.0522461
		c-2.5595703,5.6713867-6.0175781,10.6508789-10.375,14.9389648c-4.3574219,4.2890625-9.371582,7.6777344-15.0429688,10.1679688
		C145.6875,206.7548828,139.6704102,208,133.3076172,208c-6.3632813,0-12.3803711-1.2451172-18.0517578-3.734375
		c-5.671875-2.4902344-10.6865234-5.8789063-15.043457-10.1679688c-4.3569336-4.2880859-7.815918-9.2675781-10.3745117-14.9389648
		c-2.5595703-5.671875-3.8388672-11.6889648-3.8388672-18.0522461c0-6.6396484,1.3833008-12.6220703,4.1503906-17.9477539
		c2.7661133-5.3256836,6.7084961-10.0634766,11.8266602-14.2133789
		c-6.777832-7.1933594-10.1674805-15.6313477-10.1674805-25.3144531c0-5.3945313,1.1069336-10.4780273,3.3203125-15.2504883
		s5.2216797-8.9912109,9.0253906-12.6572266c3.8046875-3.6655273,8.1962891-6.5356445,13.1757813-8.6108398
		C122.3105469,65.0375977,127.6362305,64,133.3076172,64c5.5332031,0,10.8583984,1.0375977,15.9765625,3.1123047
		c5.1181641,2.0751953,9.5791016,4.9453125,13.3837891,8.6108398c3.8037109,3.6660156,6.8466797,7.8847656,9.1293945,12.6572266
		c2.2822266,4.7724609,3.4238281,9.855957,3.4238281,15.2504883c0,4.8417969-0.934082,9.3720703-2.8012695,13.5908203
		c-1.8676758,4.2192383-4.5302734,8.1269531-7.9882813,11.7236328c5.3945313,4.1499023,9.4404297,8.956543,12.1376953,14.4208984
		C179.2670898,148.8300781,180.6157227,154.7436523,180.6157227,161.1064453z M152.8115234,103.0087891
		c0-4.5649414-1.9018555-8.4726563-5.7060547-11.7236328c-3.8037109-3.2504883-8.4033203-4.8759766-13.7978516-4.8759766
		c-5.3950195,0-9.9946289,1.6254883-13.7988281,4.8759766c-3.8037109,3.2509766-5.7060547,7.1586914-5.7060547,11.7236328
		c0,4.1499023,1.9023438,7.7114258,5.7060547,10.6855469c3.8041992,2.9741211,8.4038086,4.4614258,13.7988281,4.4614258
		c5.3945313,0,9.9941406-1.4873047,13.7978516-4.4614258C150.909668,110.7202148,152.8115234,107.1586914,152.8115234,103.0087891z
		 M158.621582,161.5214844c0-2.9047852-0.6918945-5.6367188-2.0751953-8.1958008s-3.2163086-4.7724609-5.4985352-6.6396484
		c-2.2822266-1.8676758-4.9453125-3.3544922-7.9882813-4.4614258c-3.0429688-1.1064453-6.2939453-1.659668-9.7519531-1.659668
		c-3.4584961,0-6.6748047,0.5532227-9.6484375,1.659668c-2.9741211,1.1069336-5.6025391,2.59375-7.8847656,4.4614258
		c-2.2827148,1.8671875-4.0810547,4.0805664-5.3950195,6.6396484s-1.9711914,5.2910156-1.9711914,8.1958008
		c0,3.3198242,0.6572266,6.4326172,1.9711914,9.3374023s3.1123047,5.4638672,5.3950195,7.6772461
		c2.2822266,2.2133789,4.9106445,3.9423828,7.8847656,5.1870117c2.9736328,1.2451172,6.1899414,1.8676758,9.6484375,1.8676758
		c3.4580078,0,6.7436523-0.6225586,9.8554688-1.8676758c3.1123047-1.2446289,5.8100586-2.9736328,8.0927734-5.1870117
		c2.2822266-2.2133789,4.0800781-4.7724609,5.3945313-7.6772461
		C157.9643555,167.9541016,158.621582,164.8413086,158.621582,161.5214844z"/>
	<path fill-rule="evenodd" clip-rule="evenodd" d="M298.0009766,88.484375
		c-1.2451172,1.5214844-2.3867188,2.9047852-3.4238281,4.1494141c-1.0371094,1.2451172-2.0058594,2.4902344-2.9052734,3.7353516
		c-0.8984375,1.2446289-1.8320313,2.5585938-2.8007813,3.9418945s-2.0058594,2.9741211-3.1123047,4.7724609
		c-6.2246094,10.2363281-11.515625,21.0258789-15.8730469,32.3686523
		c-4.3574219,11.3432617-7.7119141,22.6171875-10.0634766,33.8217773c-0.4150391,2.9047852-0.8300781,5.7060547-1.2451172,8.4033203
		s-0.7255859,5.3945313-0.9335938,8.0922852c-0.2080078,2.6972656-0.3798828,5.4638672-0.5185547,8.2998047
		c-0.1386719,2.8349609-0.2080078,5.9824219-0.2080078,9.4404297h-22.4091797
		c0.1386719-8.0234375,0.6230469-15.769043,1.453125-23.2387695s2.0400391-14.8012695,3.6308594-21.9946289
		c1.5908203-7.1928711,3.6308594-14.3515625,6.1210938-21.4750977c2.4892578-7.1240234,5.4638672-14.3515625,8.921875-21.6831055
		c2.3515625-5.2563477,4.9101563-10.3745117,7.6777344-15.3544922c2.765625-4.9799805,5.3945313-9.40625,7.8847656-13.2792969
		h-66.3984375V66.4897461h94.2021484V88.484375z"/>
</g>
</svg>
