<?xml version="1.0" encoding="utf-8"?>
<!-- Generator: Adobe Illustrator 12.0.0, SVG Export Plug-In . SVG Version: 6.00 Build 51448)  -->
<!DOCTYPE svg PUBLIC "-//W3C//DTD SVG 1.1//EN" "http://www.w3.org/Graphics/SVG/1.1/DTD/svg11.dtd" [
	<!ENTITY ns_svg "http://www.w3.org/2000/svg">
	<!ENTITY ns_xlink "http://www.w3.org/1999/xlink">
]>
<svg  version="1.1" id="Layer_1" xmlns="&ns_svg;" xmlns:xlink="&ns_xlink;" width="750" height="600" viewBox="0 0 750 600"
	 overflow="visible" enable-background="new 0 0 750 600" xml:space="preserve">
<g>
	<g>
		<path d="M0,50C0,22.3852539,22.3852539,0,50,0h650c27.6142578,0,50,22.3852539,50,50v500c0,27.6152344-22.3857422,50-50,50H50
			c-27.6147461,0-50-22.3847656-50-50V50L0,50z"/>
		<path d="M375,300"/>
	</g>
	<path fill-rule="evenodd" clip-rule="evenodd" fill="#FFFFFF" d="M375,590c24.7519531-30.5048828,62.5419922-50,104.8867188-50H580
		c88.3671875,0,160-71.6328125,160-160c0-24.6884766-5.5917969-48.0703125-15.5771484-68.9492188
		c-11.5458984-24.1416016-18.0107422-51.1777344-18.0107422-79.7236328C706.4121094,191.7539063,718.8378906,155.0805664,740,125
		L625,10c-36.3271484,22.4638672-79.1494141,35.4287109-125,35.4287109S411.328125,32.4638672,375,10
		c-36.3271484,22.4638672-79.1494141,35.4287109-125,35.4287109S161.3276367,32.4638672,125,10L10,125
		c21.1616211,30.0805664,33.5878906,66.7539063,33.5878906,106.3271484c0,28.5458984-6.4648438,55.5820313-18.0107422,79.7236328
		C15.5917969,331.9296875,10,355.3115234,10,380c0,88.3671875,71.6333008,160,160,160h100.1132813
		C312.4580078,540,350.2490234,559.4951172,375,590z"/>
</g>
<g>
	<path fill-rule="evenodd" clip-rule="evenodd" d="M170.2094727,434.8125V200.0859375h-26.3686523v-36.7431641h3.0258789
		c6.0517578,0,12.1035156-1.5849609,18.1557617-4.7548828c6.0517578-3.1704102,11.0947266-7.637207,15.1293945-13.4008789
		h36.7436523V434.8125H170.2094727z"/>
	<path fill-rule="evenodd" clip-rule="evenodd" d="M476.5927734,232.5068359
		c0,19.8847656-2.6660156,39.6972656-7.9970703,59.4379883c-5.3320313,19.7407227-12.8964844,38.6889648-22.6943359,56.8442383
		c-9.7988281,18.15625-21.6142578,35.0146484-35.4472656,50.5761719
		c-13.8330078,15.5625-29.1064453,29.1074219-45.8212891,40.6347656l-22.0458984-38.9052734
		c8.6455078-6.9169922,16.3544922-13.6162109,23.1269531-20.1005859s12.8955078-13.1845703,18.3720703-20.1015625
		c5.4746094-6.9160156,10.5175781-14.2646484,15.1289063-22.0458984c4.6113281-7.7802734,9.078125-16.4267578,13.4003906-25.9365234
		c-8.3574219,1.4414063-14.7695313,2.4492188-19.2363281,3.0263672c-4.4667969,0.5761719-9.5820313,0.8642578-15.3457031,0.8642578
		c-13.5439453,0-26.2963867-2.3056641-38.2558594-6.9160156c-11.9599609-4.6113281-22.4067383-10.8793945-31.340332-18.8041992
		c-8.9335938-7.925293-15.9941406-17.2915039-21.1816406-28.0981445
		c-5.1870117-10.8071289-7.7807617-22.262207-7.7807617-34.3662109c0-12.3916016,2.59375-23.9912109,7.7807617-34.7978516
		c5.1875-10.8071289,12.1757813-20.1733398,20.965332-28.0981445c8.7900391-7.925293,19.1645508-14.1933594,31.1240234-18.8041992
		c11.9599609-4.6108398,24.855957-6.9165039,38.6884766-6.9165039c13.8330078,0,26.8017578,2.3774414,38.9052734,7.1328125
		c12.1035156,4.7548828,22.5507813,11.2392578,31.3398438,19.4526367
		c8.7900391,8.2128906,15.7060547,17.9394531,20.7490234,29.1787109
		C474.0712891,207.0024414,476.5927734,219.2504883,476.5927734,232.5068359z M430.7714844,228.6162109
		c0-5.4750977-1.4414063-10.8066406-4.3222656-15.9941406c-2.8828125-5.1875-6.7011719-9.6542969-11.4560547-13.4003906
		c-4.7548828-3.746582-10.3027344-6.7724609-16.6425781-9.078125c-6.3398438-2.3051758-13.1123047-3.4580078-20.3173828-3.4580078
		c-7.2041016,0-13.9042969,1.0805664-20.1005859,3.2421875c-6.1958008,2.1611328-11.6713867,5.1152344-16.4262695,8.8613281
		c-4.7553711,3.746582-8.5014648,8.2133789-11.2392578,13.4008789c-2.737793,5.1870117-4.1069336,10.6625977-4.1069336,16.4262695
		s1.3691406,11.1674805,4.1069336,16.2104492c2.737793,5.043457,6.4838867,9.4379883,11.2392578,13.1845703
		c4.7548828,3.746582,10.2304688,6.7001953,16.4262695,8.8618164c6.1962891,2.1611328,12.8964844,3.2416992,20.1005859,3.2416992
		c7.2050781,0,14.0488281-1.0805664,20.5332031-3.2416992c6.484375-2.1616211,12.1035156-5.1152344,16.859375-8.8618164
		c4.7548828-3.746582,8.5009766-8.1411133,11.2382813-13.1845703
		C429.4023438,239.7836914,430.7714844,234.3798828,430.7714844,228.6162109z"/>
	<path fill-rule="evenodd" clip-rule="evenodd" d="M559.4736328,434.8125V200.0859375h-26.3691406v-36.7431641h3.0263672
		c6.0517578,0,12.1035156-1.5849609,18.1552734-4.7548828c6.0517578-3.1704102,11.0947266-7.637207,15.1298828-13.4008789
		h36.7431641V434.8125H559.4736328z"/>
</g>
</svg>
