<?xml version="1.0" encoding="UTF-8" standalone="no"?>
<!-- Created with Inkscape (http://www.inkscape.org/) -->
<svg
   xmlns:svg="http://www.w3.org/2000/svg"
   xmlns="http://www.w3.org/2000/svg"
   version="1.0"
   width="750"
   height="600"
   viewBox="0 0 750 600"
   id="Layer_1"
   xml:space="preserve"><defs
   id="defs22" />
<g
   id="g3">
	<g
   id="g5">
		<path
   d="M 0,50 C 0,22.385742 22.385254,0 50,0 L 700,0 C 727.61426,0 750,22.385742 750,50 L 750,550 C 750,577.61523 727.61426,600 700,600 L 50,600 C 22.385254,600 0,577.61523 0,550 L 0,50 L 0,50 z "
   id="path7" />
		<path
   id="path9" />
	</g>
	<path
   d="M 375,10.001953 C 338.67236,32.46582 295.85059,45.430664 250,45.430664 C 204.14941,45.430664 161.32715,32.463867 125,10 L 10,125 C 31.163086,155.08057 43.587891,191.75244 43.587891,231.32764 C 43.587891,259.8877 37.116699,286.93604 25.560059,311.08594 C 15.584961,331.95508 10,355.32617 10,380 C 10,468.36719 81.633301,540 170,540 L 270.11523,540 C 312.4585,540 350.24854,559.49414 375,589.99805 C 399.75098,559.49414 437.54102,540 479.88477,540 L 580,540 C 668.36719,540 740,468.36719 740,380 C 740,355.32617 734.41504,331.95508 724.43945,311.08594 C 712.88281,286.93604 706.41211,259.8877 706.41211,231.32764 C 706.41211,191.75244 718.83691,155.08057 740,125 L 625,10 C 588.67285,32.463867 545.85059,45.430664 500,45.430664 C 454.14941,45.430664 411.32715,32.46582 375,10.001953 z "
   style="fill:white;fill-rule:evenodd"
   id="path11" />
</g>

<path
   d="M 113.30765,434.43698 L 113.30765,199.5898 L 86.923141,199.5898 L 86.923141,162.83099 L 89.945679,162.83099 C 95.999515,162.83127 102.05338,161.2452 108.1073,158.07281 C 114.16112,154.90096 119.20747,150.42876 123.24638,144.65617 L 160.00519,144.65617 L 160.00519,434.43698 L 113.30765,434.43698 z M 414.0831,338.85089 C 414.08288,353.55449 411.6323,367.1053 406.73134,379.50336 C 401.82996,391.90152 394.98196,402.49799 386.18732,411.29279 C 377.39231,420.08764 366.86843,427.00823 354.61567,432.05459 C 342.36259,437.10095 328.88437,439.62413 314.18098,439.62413 C 302.3547,439.62413 291.32487,437.74989 281.09146,434.00142 C 270.85787,430.25295 261.4867,425.06361 252.97791,418.43337 C 244.46899,411.80317 237.18764,403.72988 231.1338,394.21348 C 225.0799,384.69716 220.60989,374.03029 217.72377,362.21286 L 262.70546,349.23839 C 266.17229,363.36123 272.51873,374.17108 281.7448,381.66797 C 290.97071,389.16496 302.50429,392.91343 316.3456,392.91339 C 324.12399,392.91343 331.18537,391.61555 337.52975,389.01973 C 343.87385,386.424 349.28098,382.89331 353.75114,378.42765 C 358.22099,373.9621 361.75388,368.62977 364.34982,362.43064 C 366.94542,356.23166 368.24331,349.38366 368.24348,341.88663 C 368.24331,334.38978 366.80024,327.324 363.91426,320.68927 C 361.02795,314.05477 356.9935,308.86322 351.81091,305.11462 C 350.07731,303.96205 348.56164,303.02494 347.26391,302.30327 C 345.96587,301.58186 344.37981,301.07811 342.50572,300.792 C 340.63134,300.50616 338.18075,300.21798 335.15396,299.92747 C 332.12689,299.63724 327.87246,299.35126 322.39067,299.06955 L 317.20352,299.06955 L 317.20352,252.35881 L 317.20352,253.6523 L 318.49701,253.6523 L 319.36813,253.6523 L 328.44894,253.6523 C 337.6792,253.65248 344.74498,251.20189 349.6463,246.30054 C 354.54732,241.39956 356.9979,234.33378 356.99806,225.10318 C 356.9979,213.85798 353.03385,204.5594 345.1059,197.20741 C 337.17764,189.85589 327.30051,186.18001 315.47447,186.17976 C 296.16005,186.18001 281.59733,195.69638 271.78627,214.72888 L 228.96919,198.71867 C 236.4661,180.26693 247.7841,165.77901 262.92324,155.25485 C 278.06224,144.73126 295.14814,139.46932 314.18098,139.46902 C 326.2886,139.46932 337.74959,141.77692 348.564,146.39182 C 359.37809,151.00731 368.82186,157.35155 376.89533,165.42457 C 384.96844,173.49813 391.31048,182.9397 395.92148,193.74931 C 400.53207,204.5594 402.83747,216.02259 402.83768,228.13892 C 402.83747,236.78876 401.68477,244.57388 399.37958,251.49429 C 397.07398,258.41506 392.74916,266.48615 386.40511,275.70758 C 391.88683,280.60891 396.35684,285.2945 399.81514,289.76436 C 403.27303,294.23451 406.08438,298.9201 408.24921,303.82114 C 410.4136,308.72244 411.92707,313.98437 412.78961,319.60696 C 413.65172,325.22978 414.08288,331.64442 414.0831,338.85089 L 414.0831,338.85089 z M 669.33571,341.88663 C 669.33548,355.14715 666.66712,367.68825 661.3306,379.50996 C 655.99366,391.33177 648.78489,401.71266 639.70428,410.65265 C 630.62329,419.59269 620.17201,426.65627 608.35041,431.84341 C 596.52849,437.03055 583.98739,439.62413 570.72708,439.62413 C 557.45772,439.62413 544.91222,437.03055 533.09055,431.84341 C 521.2687,426.65627 510.81742,419.59269 501.73668,410.65265 C 492.65582,401.71266 485.44925,391.33177 480.11696,379.50996 C 474.78459,367.68825 472.11843,355.14715 472.11845,341.88663 C 472.11843,328.04554 475.00017,315.57483 480.7637,304.47448 C 486.52716,293.37439 494.74564,283.49945 505.41916,274.84966 C 491.28754,259.85593 484.22176,242.26628 484.2218,222.08064 C 484.22176,210.83544 486.52936,200.23898 491.1446,190.29121 C 495.75975,180.34393 502.03139,171.5491 509.95956,163.9067 C 517.8876,156.26484 527.041,150.28137 537.41978,145.95626 C 547.79837,141.63173 558.90079,139.46932 570.72708,139.46902 C 582.26274,139.46932 593.36296,141.63173 604.02779,145.95626 C 614.69229,150.28137 623.99087,156.26484 631.92356,163.9067 C 639.85588,171.5491 646.20012,180.34393 650.95631,190.29121 C 655.71208,200.23898 658.09007,210.83544 658.09029,222.08064 C 658.09007,232.17357 656.14324,241.61734 652.24979,250.41198 C 648.35593,259.20699 642.80582,267.35287 635.59944,274.84966 C 646.84466,283.49945 655.27872,293.51737 660.90164,304.90344 C 666.52413,316.28977 669.33548,328.61749 669.33571,341.88663 L 669.33571,341.88663 z M 611.37955,220.78716 C 611.37938,211.26661 607.41533,203.11852 599.48738,196.34288 C 591.55912,189.56771 581.97237,186.18001 570.72708,186.17976 C 559.48154,186.18001 549.89479,189.56771 541.96678,196.34288 C 534.03858,203.11852 530.07453,211.26661 530.07462,220.78716 C 530.07453,229.43701 534.03858,236.86136 541.96678,243.06022 C 549.89479,249.25947 559.48154,252.35899 570.72708,252.35881 C 581.97237,252.35899 591.55912,249.25947 599.48738,243.06022 C 607.41533,236.86136 611.37938,229.43701 611.37955,220.78716 L 611.37955,220.78716 z M 623.48289,342.74455 C 623.48271,336.69078 622.04184,330.99768 619.16027,325.66524 C 616.27835,320.33302 612.45948,315.72002 607.70367,311.82624 C 602.94752,307.93271 597.39741,304.83318 591.05331,302.52765 C 584.70892,300.22238 577.93352,299.06968 570.72708,299.06955 C 563.52039,299.06968 556.81758,300.22238 550.61863,302.52765 C 544.41947,304.83318 538.93975,307.93271 534.17946,311.82624 C 529.41899,315.72002 525.67052,320.33302 522.93404,325.66524 C 520.1974,330.99768 518.82912,336.69078 518.82919,342.74455 C 518.82912,349.66964 520.1974,356.15906 522.93404,362.21286 C 525.67052,368.2668 529.41899,373.59913 534.17946,378.20987 C 538.93975,382.82072 544.41947,386.424 550.61863,389.01973 C 556.81758,391.61555 563.52039,392.91343 570.72708,392.91339 C 577.93352,392.91343 584.78152,391.61555 591.2711,389.01973 C 597.76038,386.424 603.38308,382.82072 608.13923,378.20987 C 612.89505,373.59913 616.64132,368.2668 619.37805,362.21286 C 622.11444,356.15906 623.48271,349.66964 623.48289,342.74455 L 623.48289,342.74455 z "
   style="font-size:432.5px;font-style:normal;font-variant:normal;font-weight:normal;font-stretch:normal;text-align:center;line-height:125%;writing-mode:lr-tb;text-anchor:middle;font-family:Roadgeek 2005 Series C"
   id="text1331" />

</svg>