<?xml version="1.0" encoding="UTF-8" standalone="no"?>
<!-- Created with Inkscape (http://www.inkscape.org/) -->

<svg
   xmlns:dc="http://purl.org/dc/elements/1.1/"
   xmlns:cc="http://creativecommons.org/ns#"
   xmlns:rdf="http://www.w3.org/1999/02/22-rdf-syntax-ns#"
   xmlns:svg="http://www.w3.org/2000/svg"
   xmlns="http://www.w3.org/2000/svg"
   version="1.1"
   width="750"
   height="600"
   viewBox="0 0 750 600"
   id="Layer_1"
   xml:space="preserve"
   style="overflow:visible"><metadata
   id="metadata24"><rdf:RDF><cc:Work
       rdf:about=""><dc:format>image/svg+xml</dc:format><dc:type
         rdf:resource="http://purl.org/dc/dcmitype/StillImage" /><dc:title></dc:title></cc:Work></rdf:RDF></metadata><defs
   id="defs22" />
<g
   id="g3">
	<g
   id="g5">
		<path
   d="M 0,50 C 0,22.385742 22.385254,0 50,0 h 650 c 27.61426,0 50,22.385742 50,50 v 500 c 0,27.61523 -22.38574,50 -50,50 H 50 C 22.385254,600 0,577.61523 0,550 V 50 l 0,0 z"
   id="path7" />
		<path
   d="M 375,300"
   id="path9" />
	</g>
	<path
   d="M 375,10.001953 C 338.67236,32.46582 295.85059,45.430664 250,45.430664 204.14941,45.430664 161.32715,32.463867 125,10 L 10,125 c 21.163086,30.08057 33.587891,66.75244 33.587891,106.32764 0,28.56006 -6.471192,55.6084 -18.027832,79.7583 C 15.584961,331.95508 10,355.32617 10,380 10,468.36719 81.633301,540 170,540 H 270.11523 C 312.4585,540 350.24854,559.49414 375,589.99805 399.75098,559.49414 437.54102,540 479.88477,540 H 580 c 88.36719,0 160,-71.63281 160,-160 0,-24.67383 -5.58496,-48.04492 -15.56055,-68.91406 -11.55664,-24.1499 -18.02734,-51.19824 -18.02734,-79.7583 0,-39.5752 12.4248,-76.24707 33.58789,-106.32764 L 625,10 c -36.32715,22.463867 -79.14941,35.430664 -125,35.430664 -45.85059,0 -88.67285,-12.964844 -125,-35.428711 z"
   id="path11"
   style="fill:#ffffff;fill-rule:evenodd" />
</g>

<g
   id="text1331"
   style="font-size:432.5px;font-style:normal;font-variant:normal;font-weight:normal;font-stretch:normal;text-align:center;line-height:125%;writing-mode:lr-tb;text-anchor:middle;font-family:Roadgeek 2005 Series D;-inkscape-font-specification:Roadgeek 2005 Series D"><path
     d="m 119.30152,434.43698 0,-234.8475 -26.382497,0 0,-36.7625 3.0275,0 c 6.054967,2.7e-4 12.109957,-1.58556 18.164997,-4.7575 6.05495,-3.17139 11.10078,-7.64055 15.1375,-13.4075 l 36.7625,0 0,289.775 -46.71,0"
     id="path3046" /><path
     d="m 420.085,338.85448 c -2.2e-4,14.70508 -2.45105,28.25674 -7.3525,40.655 -4.90187,12.39838 -11.82187,23.0667 -20.76,32.005 -8.65018,8.65002 -19.17434,15.57001 -31.5725,20.76 -12.11015,4.90167 -25.51763,7.3525 -40.2225,7.3525 -11.82177,0 -22.9226,-1.87417 -33.3025,-5.6225 -10.09174,-3.74833 -19.46257,-8.93832 -28.1125,-15.57 -8.36172,-6.63164 -15.57004,-14.70497 -21.625,-24.22 -6.05503,-9.51495 -10.52419,-20.18327 -13.4075,-32.005 l 44.98,-12.975 c 3.45993,14.12841 9.80326,24.94089 19.03,32.4375 9.22657,7.49671 20.75989,11.24504 34.6,11.245 7.78487,4e-5 14.84903,-1.29746 21.1925,-3.8925 6.34318,-2.59495 11.67735,-6.05495 16.0025,-10.38 4.61317,-4.61327 8.21733,-9.94743 10.8125,-16.0025 2.59483,-6.34325 3.89233,-13.26325 3.8925,-20.76 -1.7e-4,-7.49657 -1.44184,-14.56073 -4.325,-21.1925 -2.8835,-6.63155 -6.92016,-11.82154 -12.11,-15.57 -1.73016,-1.1532 -3.31599,-2.0182 -4.7575,-2.595 -1.15348,-0.86487 -2.73932,-1.44153 -4.7575,-1.73 -1.73015,-0.2882 -4.18098,-0.57653 -7.3525,-0.865 -2.88347,-0.2882 -7.0643,-0.57653 -12.5425,-0.865 l -5.19,0 0,-46.71 0,1.2975 1.2975,0 0.865,0 9.0825,0 c 9.22652,1.8e-4 16.29068,-2.45065 21.1925,-7.3525 4.90151,-4.90147 7.35234,-11.96563 7.3525,-21.1925 -1.6e-4,-11.24478 -4.03683,-20.47144 -12.11,-27.68 -7.78514,-7.49642 -17.58847,-11.24475 -29.41,-11.245 -19.31844,2.5e-4 -33.87925,9.51524 -43.6825,28.545 l -42.8175,-16.0025 c 7.49662,-18.45308 18.74161,-32.86973 33.735,-43.25 15.28158,-10.66804 32.4374,-16.0022 51.4675,-16.0025 12.10987,3e-4 23.49902,2.30696 34.1675,6.92 10.9565,4.61362 20.47149,10.95694 28.545,19.03 8.07314,8.0736 14.41647,17.58859 19.03,28.545 4.61313,10.66856 6.91979,22.05772 6.92,34.1675 -2.1e-4,8.6502 -1.15354,16.43519 -3.46,23.355 -2.30687,6.92018 -6.63187,14.9935 -12.975,24.22 5.47814,4.90182 9.9473,9.65932 13.4075,14.2725 3.45979,4.32514 6.19896,8.93847 8.2175,13.84 2.30645,4.90179 3.89228,10.23595 4.7575,16.0025 0.86478,5.47844 1.29728,11.82177 1.2975,19.03"
     id="path3048" /><path
     d="m 675.33434,350.96448 c -2.3e-4,12.39841 -2.59523,24.07589 -7.785,35.0325 -4.90188,10.66837 -11.82188,20.0392 -20.76,28.1125 -8.65019,7.78501 -19.03018,13.98417 -31.14,18.5975 -12.11016,4.61333 -25.08515,6.92 -38.925,6.92 -13.84012,0 -26.8151,-2.30667 -38.925,-6.92 -12.11008,-4.90166 -22.63424,-11.53332 -31.5725,-19.895 -8.65005,-8.36164 -15.57005,-18.16496 -20.76,-29.41 -4.9017,-11.24494 -7.35253,-23.35492 -7.3525,-36.33 -3e-5,-20.18322 2.59496,-40.22237 7.785,-60.1175 5.47829,-19.89483 13.11911,-38.92481 22.9225,-57.09 9.80326,-18.16478 21.48075,-34.88809 35.0325,-50.17 13.83989,-15.56973 29.12154,-28.97722 45.845,-40.2225 l 23.355,38.925 c -8.93849,6.92025 -16.86765,13.69608 -23.7875,20.3275 -6.6318,6.34356 -12.83096,12.97522 -18.5975,19.895 -5.47845,6.92021 -10.52428,14.2727 -15.1375,22.0575 -4.61344,7.49685 -9.0826,15.85851 -13.4075,25.085 8.36156,-1.4415 14.70489,-2.30649 19.03,-2.595 4.61321,-0.28816 9.80321,-0.43233 15.57,-0.4325 13.26319,1.7e-4 25.80568,2.30684 37.6275,6.92 12.10982,4.61349 22.63398,10.95682 31.5725,19.03 9.22646,7.78514 16.43478,17.15596 21.625,28.1125 5.18977,10.66844 7.78477,22.0576 7.785,34.1675 m -45.845,-0.865 c -1.8e-4,-5.47824 -1.44185,-10.8124 -4.325,-16.0025 -2.59518,-5.18989 -6.34351,-9.65906 -11.245,-13.4075 -4.6135,-3.74821 -10.23599,-6.77571 -16.8675,-9.0825 -6.34348,-2.30654 -13.11931,-3.45987 -20.3275,-3.46 -7.20846,1.3e-4 -13.98428,1.15346 -20.3275,3.46 -6.0551,2.30679 -11.53343,5.33429 -16.435,9.0825 -4.61342,3.74844 -8.36175,8.21761 -11.245,13.4075 -2.59508,5.1901 -3.89258,10.52426 -3.8925,16.0025 -8e-5,5.76675 1.29742,11.24507 3.8925,16.435 2.88325,5.19006 6.63158,9.80339 11.245,13.84 4.90157,3.74838 10.3799,6.77588 16.435,9.0825 6.34322,2.30671 13.11904,3.46004 20.3275,3.46 7.20819,4e-5 13.98402,-1.15329 20.3275,-3.46 6.34318,-2.30662 11.8215,-5.33412 16.435,-9.0825 4.90149,-4.03661 8.79399,-8.64994 11.6775,-13.84 2.88315,-5.18993 4.32482,-10.66825 4.325,-16.435"
     id="path3050" /></g>

</svg>