<?xml version="1.0" encoding="UTF-8" standalone="no"?>
<!-- Created with Inkscape (http://www.inkscape.org/) -->

<svg
   xmlns:dc="http://purl.org/dc/elements/1.1/"
   xmlns:cc="http://creativecommons.org/ns#"
   xmlns:rdf="http://www.w3.org/1999/02/22-rdf-syntax-ns#"
   xmlns:svg="http://www.w3.org/2000/svg"
   xmlns="http://www.w3.org/2000/svg"
   version="1.1"
   width="750"
   height="600"
   viewBox="0 0 750 600"
   id="Layer_1"
   xml:space="preserve"
   style="overflow:visible"><metadata
   id="metadata24"><rdf:RDF><cc:Work
       rdf:about=""><dc:format>image/svg+xml</dc:format><dc:type
         rdf:resource="http://purl.org/dc/dcmitype/StillImage" /><dc:title></dc:title></cc:Work></rdf:RDF></metadata><defs
   id="defs22" />
<g
   id="g3">
	<g
   id="g5">
		<path
   d="M 0,50 C 0,22.385742 22.385254,0 50,0 h 650 c 27.61426,0 50,22.385742 50,50 v 500 c 0,27.61523 -22.38574,50 -50,50 H 50 C 22.385254,600 0,577.61523 0,550 V 50 l 0,0 z"
   id="path7" />
		<path
   d="M 375,300"
   id="path9" />
	</g>
	<path
   d="M 375,10.001953 C 338.67236,32.46582 295.85059,45.430664 250,45.430664 204.14941,45.430664 161.32715,32.463867 125,10 L 10,125 c 21.163086,30.08057 33.587891,66.75244 33.587891,106.32764 0,28.56006 -6.471192,55.6084 -18.027832,79.7583 C 15.584961,331.95508 10,355.32617 10,380 10,468.36719 81.633301,540 170,540 H 270.11523 C 312.4585,540 350.24854,559.49414 375,589.99805 399.75098,559.49414 437.54102,540 479.88477,540 H 580 c 88.36719,0 160,-71.63281 160,-160 0,-24.67383 -5.58496,-48.04492 -15.56055,-68.91406 -11.55664,-24.1499 -18.02734,-51.19824 -18.02734,-79.7583 0,-39.5752 12.4248,-76.24707 33.58789,-106.32764 L 625,10 c -36.32715,22.463867 -79.14941,35.430664 -125,35.430664 -45.85059,0 -88.67285,-12.964844 -125,-35.428711 z"
   id="path11"
   style="fill:#ffffff;fill-rule:evenodd" />
</g>

<g
   id="text1331"
   style="font-size:432.5px;font-style:normal;font-variant:normal;font-weight:normal;font-stretch:normal;text-align:center;line-height:125%;writing-mode:lr-tb;text-anchor:middle;font-family:Roadgeek 2005 Series D;-inkscape-font-specification:Roadgeek 2005 Series D"><path
     d="m 110.77347,434.43698 0,-234.84718 -26.384508,0 0,-36.75881 3.022537,0 c 6.053836,2.8e-4 12.107704,-1.58579 18.161621,-4.75818 6.05382,-3.17185 11.10017,-7.64405 15.13908,-13.41664 l 36.75881,0 0,289.78081 z"
     id="path2990" /><path
     d="m 417.60719,232.03258 c -2.2e-4,19.89525 -2.66859,39.71771 -8.0051,59.46743 -5.33695,19.75 -12.90648,38.70794 -22.70863,56.87385 -9.80253,18.16609 -21.62209,35.03201 -35.45871,50.5978 -13.83695,15.56587 -29.119,29.11668 -45.84622,40.65247 l -22.05528,-38.92342 c 8.64955,-6.91615 16.36207,-13.61896 23.13759,-20.10845 6.77529,-6.48937 12.90175,-13.19438 18.3794,-20.11505 5.47738,-6.92052 10.52374,-14.27227 15.13908,-22.05528 4.61505,-7.78282 9.08286,-16.43466 13.40344,-25.95555 -8.35943,1.4432 -14.77406,2.45291 -19.24393,3.02914 -4.47015,0.57647 -9.5869,0.86464 -15.35026,0.86453 -13.55094,1.1e-4 -26.30982,-2.30528 -38.27668,-6.9162 -11.96703,-4.61067 -22.42051,-10.88012 -31.36047,-18.80837 -8.94007,-7.92796 -16.00365,-17.29913 -21.19076,-28.11355 -5.18718,-10.81408 -7.78075,-22.27507 -7.78072,-34.38301 -3e-5,-12.39791 2.59354,-24.00409 7.78072,-34.81858 5.18711,-10.814 12.17809,-20.18518 20.97298,-28.11355 8.79477,-7.92784 19.17566,-14.19948 31.14269,-18.81497 11.96686,-4.6149 24.87093,-6.9225 38.71224,-6.9228 13.84105,3e-4 26.81551,2.38049 38.92341,7.14058 12.10757,4.76067 22.55885,11.2479 31.35388,19.46171 8.79463,8.21435 15.71522,17.94409 20.76179,29.18926 5.04614,11.24565 7.56932,23.50298 7.56954,36.77201 z m -45.85281,-3.89366 c -1.8e-4,-5.48172 -1.44105,-10.81845 -4.32262,-16.01021 -2.88193,-5.19132 -6.70079,-9.66133 -11.45661,-13.41004 -4.75614,-3.74823 -10.30626,-6.77516 -16.65035,-9.08081 -6.34439,-2.30515 -13.1198,-3.45785 -20.32623,-3.4581 -7.2067,2.5e-4 -13.90951,1.08256 -20.10846,3.24692 -6.19916,2.16486 -11.67888,5.1214 -16.43917,8.86963 -4.76047,3.74871 -8.50894,8.21651 -11.24542,13.40344 -2.73664,5.18736 -4.10492,10.66708 -4.10484,16.43917 -8e-5,5.7637 1.3682,11.16862 4.10484,16.21479 2.73648,5.04654 6.48495,9.44396 11.24542,13.19225 4.76029,3.74865 10.24001,6.70299 16.43917,8.86303 6.19895,2.16038 12.90176,3.24048 20.10846,3.24032 7.20643,1.6e-4 14.05443,-1.07994 20.54401,-3.24032 6.48928,-2.16004 12.11199,-5.11438 16.86813,-8.86303 4.75582,-3.74829 8.50209,-8.14571 11.23883,-13.19225 2.73638,-5.04617 4.10466,-10.45109 4.10484,-16.21479 z"
     id="path2992" /><path
     d="m 671.86989,327.60547 c -2.3e-4,16.14669 -3.09975,30.99758 -9.29859,44.55273 -6.19927,13.55527 -14.92151,25.37703 -26.16673,35.46531 -11.2456,10.08834 -24.58083,17.94385 -40.00572,23.56655 -15.42519,5.62271 -32.3637,8.43407 -50.81558,8.43407 -12.68859,0 -25.15929,-1.44088 -37.41215,-4.32262 -12.25298,-2.88175 -23.4258,-6.9184 -33.51849,-12.10995 l 22.49085,-40.65247 c 6.05381,3.16778 13.98192,5.68875 23.78433,7.56295 9.80226,1.87428 20.03576,2.81139 30.70053,2.81135 10.38298,4e-5 20.11493,-1.65641 29.19586,-4.96937 9.08067,-3.31286 17.01097,-7.85326 23.79094,-13.62121 6.77964,-5.76784 12.04158,-12.61583 15.78582,-20.54402 3.7439,-7.92802 5.61593,-16.65245 5.61611,-26.17332 -1.8e-4,-7.20646 -1.36846,-13.83668 -4.10484,-19.89067 -2.73673,-6.05374 -6.483,-11.38827 -11.23882,-16.00361 -4.75615,-4.61505 -10.23367,-8.22054 -16.43257,-10.81646 -6.19921,-2.59562 -12.90642,-3.8935 -20.12165,-3.89366 -5.18288,1.6e-4 -9.72108,0.43352 -13.61462,1.30009 -3.89377,0.86688 -7.57185,2.45294 -11.03424,4.75818 -3.4626,2.30555 -6.9229,5.40508 -10.3809,9.29859 -3.45819,3.8938 -7.35184,8.86757 -11.68098,14.92131 l -45.83962,-12.97448 7.35176,-149.64859 166.51673,0 0,45.85282 -121.9706,0 -3.02254,47.56866 c 10.66458,-3.16752 19.02385,-5.32773 25.07782,-6.48063 6.05376,-1.1525 12.68838,-1.72885 19.90387,-1.72905 13.26031,2e-4 25.72881,2.59377 37.40555,7.78072 11.67641,5.18734 21.91211,12.25092 30.70713,21.19076 8.79463,8.94019 15.71522,19.32107 20.7618,31.14269 5.04613,11.8219 7.56931,24.363 7.56954,37.62333 z"
     id="path2994" /></g>



</svg>