<?xml version="1.0" encoding="UTF-8" standalone="no"?>
<!-- Created with Inkscape (http://www.inkscape.org/) -->

<svg
   xmlns:dc="http://purl.org/dc/elements/1.1/"
   xmlns:cc="http://creativecommons.org/ns#"
   xmlns:rdf="http://www.w3.org/1999/02/22-rdf-syntax-ns#"
   xmlns:svg="http://www.w3.org/2000/svg"
   xmlns="http://www.w3.org/2000/svg"
   version="1.1"
   width="750"
   height="600"
   viewBox="0 0 750 600"
   id="Layer_1"
   xml:space="preserve"
   style="overflow:visible"><metadata
     id="metadata24"><rdf:RDF><cc:Work
         rdf:about=""><dc:format>image/svg+xml</dc:format><dc:type
           rdf:resource="http://purl.org/dc/dcmitype/StillImage" /><dc:title></dc:title></cc:Work></rdf:RDF></metadata><defs
     id="defs22" /><g
     id="g3861"><g
       id="g5"><path
         d="M 0,50 C 0,22.385742 22.385254,0 50,0 h 650 c 27.61426,0 50,22.385742 50,50 v 500 c 0,27.61523 -22.38574,50 -50,50 H 50 C 22.385254,600 0,577.61523 0,550 V 50 l 0,0 z"
         id="path7" /><path
         d="M 375,300"
         id="path9" /></g><path
       d="M 375,10.001953 C 338.67236,32.46582 295.85059,45.430664 250,45.430664 204.14941,45.430664 161.32715,32.463867 125,10 L 10,125 c 21.163086,30.08057 33.587891,66.75244 33.587891,106.32764 0,28.56006 -6.471192,55.6084 -18.027832,79.7583 C 15.584961,331.95508 10,355.32617 10,380 10,468.36719 81.633301,540 170,540 H 270.11523 C 312.4585,540 350.24854,559.49414 375,589.99805 399.75098,559.49414 437.54102,540 479.88477,540 H 580 c 88.36719,0 160,-71.63281 160,-160 0,-24.67383 -5.58496,-48.04492 -15.56055,-68.91406 -11.55664,-24.1499 -18.02734,-51.19824 -18.02734,-79.7583 0,-39.5752 12.4248,-76.24707 33.58789,-106.32764 L 625,10 c -36.32715,22.463867 -79.14941,35.430664 -125,35.430664 -45.85059,0 -88.67285,-12.964844 -125,-35.428711 z"
       id="path11"
       style="fill:#ffffff;fill-opacity:1;fill-rule:evenodd" /></g><g
     id="text1331"
     style="font-size:447.76119995px;font-style:normal;font-variant:normal;font-weight:normal;font-stretch:normal;text-align:center;line-height:125%;writing-mode:lr-tb;text-anchor:middle;font-family:Roadgeek 2005 Series D;-inkscape-font-specification:Roadgeek 2005 Series D"><path
       d="m 98.115658,440 0,-243.13433 -27.313433,0 0,-38.0597 3.134329,0 c 6.268617,2.8e-4 12.537268,-1.64151 18.80597,-4.92538 C 99.011123,150.5973 104.235,145.97044 108.41417,140 l 38.0597,0 0,300 -48.358212,0"
       id="path3645" /><path
       d="m 415.78124,353.58209 c -2.3e-4,12.83589 -2.68679,24.92543 -8.0597,36.26866 -5.07485,11.04481 -12.23902,20.74629 -21.49254,29.10447 -8.95541,8.05972 -19.70167,14.47762 -32.2388,19.25374 -12.53747,4.77611 -25.9703,7.16417 -40.29851,7.16417 -14.32848,0 -27.7613,-2.38806 -40.29851,-7.16417 -12.53739,-5.07462 -23.4329,-11.94029 -32.68657,-20.59702 -8.95527,-8.65669 -16.11944,-18.80593 -21.49253,-30.44776 -5.07466,-11.64173 -7.61197,-24.17903 -7.61194,-37.61194 -3e-5,-20.89541 2.68653,-41.64166 8.0597,-62.23881 5.6716,-20.59684 13.58204,-40.29831 23.73134,-59.10448 10.14918,-18.80574 22.23872,-36.11915 36.26866,-51.9403 14.32825,-16.11912 30.14913,-29.9997 47.46269,-41.64179 l 24.1791,40.29851 c -9.25389,7.16444 -17.46284,14.17936 -24.62686,21.04478 -6.86581,6.5674 -13.28372,13.43306 -19.25374,20.59701 -5.67176,7.1644 -10.89563,14.77633 -15.67164,22.83582 -4.77622,7.76139 -9.40308,16.4181 -13.8806,25.97015 8.65662,-1.49236 15.22377,-2.38788 19.7015,-2.68657 4.776,-0.29833 10.14913,-0.44758 16.1194,-0.44776 13.7312,1.8e-4 26.71626,2.38824 38.95522,7.16418 12.53714,4.77629 23.43265,11.34345 32.68657,19.7015 9.55203,8.05984 17.01471,17.76132 22.38806,29.10447 5.37291,11.04489 8.05947,22.83592 8.0597,35.37314 m -47.46268,-0.89552 c -1.9e-4,-5.67155 -1.49273,-11.19394 -4.47762,-16.56717 -2.68674,-5.37302 -6.56733,-9.99988 -11.64179,-13.8806 -4.77628,-3.88047 -10.59717,-7.0148 -17.46268,-9.40298 -6.56731,-2.38793 -13.58223,-3.58196 -21.04478,-3.58209 -7.46281,1.3e-4 -14.47773,1.19416 -21.04478,3.58209 -6.26876,2.38818 -11.94039,5.52251 -17.01492,9.40298 -4.77621,3.88072 -8.6568,8.50758 -11.64179,13.8806 -2.68665,5.37323 -4.02993,10.89562 -4.02985,16.56717 -8e-5,5.97023 1.3432,11.64186 4.02985,17.01492 2.98499,5.3732 6.86558,10.14932 11.64179,14.32836 5.07453,3.88065 10.74616,7.01497 17.01492,9.40299 6.56705,2.3881 13.58197,3.58213 21.04478,3.58208 7.46255,5e-5 14.47747,-1.19398 21.04478,-3.58208 6.567,-2.38802 12.23864,-5.52234 17.01492,-9.40299 5.07445,-4.17904 9.1043,-8.95516 12.08955,-14.32836 2.98489,-5.37306 4.47743,-11.04469 4.47762,-17.01492"
       id="path3647" /><path
       d="m 679.01588,329.40298 c -2.4e-4,16.71652 -3.28381,32.08963 -9.85075,46.11941 -6.26887,14.0299 -15.22409,26.26869 -26.86567,36.71642 -11.64198,10.44777 -25.52256,18.65672 -41.64179,24.62686 -15.82104,5.67164 -33.28371,8.50746 -52.38806,8.50746 -13.13442,0 -26.11948,-1.49254 -38.95523,-4.47761 -12.53736,-2.98507 -24.02989,-7.16417 -34.47761,-12.53731 l 23.28358,-42.08955 c 6.2686,3.28363 14.47755,5.97019 24.62687,8.0597 10.14917,1.79109 20.74617,2.68661 31.79104,2.68656 10.74615,5e-5 20.74614,-1.64174 30.00001,-4.92537 9.55209,-3.58204 17.76103,-8.35815 24.62686,-14.32836 7.16401,-5.97008 12.68639,-12.985 16.56717,-21.04477 3.88041,-8.35812 5.8207,-17.46259 5.82089,-27.31344 -1.9e-4,-7.46256 -1.49272,-14.32823 -4.47761,-20.59701 -2.68675,-6.26852 -6.56734,-11.7909 -11.64179,-16.56717 -4.77629,-4.77596 -10.44792,-8.5073 -17.01493,-11.19403 -6.2688,-2.6864 -13.13447,-4.02968 -20.59701,-4.02985 -5.37326,1.7e-4 -10.14938,0.44793 -14.32836,1.34329 -3.88071,0.89568 -7.61205,2.53747 -11.19403,4.92537 -3.58219,2.38821 -7.16428,5.67179 -10.74627,9.85075 -3.58218,3.88074 -7.61203,8.95536 -12.08955,15.22388 L 482.00095,294.92537 489.61289,140 l 172.38806,0 0,47.46268 -126.26866,0 -3.13432,49.25374 c 11.04467,-3.28338 19.70138,-5.52218 25.97015,-6.71642 6.26853,-1.19382 13.1342,-1.79084 20.59701,-1.79105 13.7312,2.1e-4 26.567,2.68678 38.50746,8.0597 12.23863,5.37334 22.83563,12.68676 31.79105,21.9403 9.25352,9.25391 16.41769,20.00016 21.49254,32.23881 5.3729,12.23894 8.05946,25.224 8.0597,38.95522"
       id="path3649" /></g></svg>