<?xml version="1.0" encoding="UTF-8" standalone="no"?>
<!-- Created with Inkscape (http://www.inkscape.org/) -->

<svg
   xmlns:dc="http://purl.org/dc/elements/1.1/"
   xmlns:cc="http://creativecommons.org/ns#"
   xmlns:rdf="http://www.w3.org/1999/02/22-rdf-syntax-ns#"
   xmlns:svg="http://www.w3.org/2000/svg"
   xmlns="http://www.w3.org/2000/svg"
   version="1.1"
   width="750"
   height="600"
   viewBox="0 0 750 600"
   id="Layer_1"
   xml:space="preserve"
   style="overflow:visible"><metadata
     id="metadata24"><rdf:RDF><cc:Work
         rdf:about=""><dc:format>image/svg+xml</dc:format><dc:type
           rdf:resource="http://purl.org/dc/dcmitype/StillImage" /><dc:title></dc:title></cc:Work></rdf:RDF></metadata><defs
     id="defs22" /><g
     id="g3861"><g
       id="g5"><path
         d="M 0,50 C 0,22.385742 22.385254,0 50,0 h 650 c 27.61426,0 50,22.385742 50,50 v 500 c 0,27.61523 -22.38574,50 -50,50 H 50 C 22.385254,600 0,577.61523 0,550 V 50 l 0,0 z"
         id="path7" /><path
         d="M 375,300"
         id="path9" /></g><path
       d="M 375,10.001953 C 338.67236,32.46582 295.85059,45.430664 250,45.430664 204.14941,45.430664 161.32715,32.463867 125,10 L 10,125 c 21.163086,30.08057 33.587891,66.75244 33.587891,106.32764 0,28.56006 -6.471192,55.6084 -18.027832,79.7583 C 15.584961,331.95508 10,355.32617 10,380 10,468.36719 81.633301,540 170,540 H 270.11523 C 312.4585,540 350.24854,559.49414 375,589.99805 399.75098,559.49414 437.54102,540 479.88477,540 H 580 c 88.36719,0 160,-71.63281 160,-160 0,-24.67383 -5.58496,-48.04492 -15.56055,-68.91406 -11.55664,-24.1499 -18.02734,-51.19824 -18.02734,-79.7583 0,-39.5752 12.4248,-76.24707 33.58789,-106.32764 L 625,10 c -36.32715,22.463867 -79.14941,35.430664 -125,35.430664 -45.85059,0 -88.67285,-12.964844 -125,-35.428711 z"
       id="path11"
       style="fill:#ffffff;fill-opacity:1;fill-rule:evenodd" /></g><g
     id="text1331"
     style="font-size:447.76119995px;font-style:normal;font-variant:normal;font-weight:normal;font-stretch:normal;text-align:center;line-height:125%;writing-mode:lr-tb;text-anchor:middle;font-family:Roadgeek 2005 Series D;-inkscape-font-specification:Roadgeek 2005 Series D"><path
       d="m 93.305724,440 0,-243.13433 -27.313434,0 0,-38.0597 3.134329,0 c 6.268618,2.8e-4 12.537268,-1.64151 18.80597,-4.92538 C 94.201188,150.5973 99.425064,145.97044 103.60423,140 l 38.0597,0 0,300 -48.358206,0"
       id="path3567" /><path
       d="m 410.97131,353.58209 c -2.3e-4,12.83589 -2.6868,24.92543 -8.0597,36.26866 -5.07485,11.04481 -12.23902,20.74629 -21.49254,29.10447 -8.95542,8.05972 -19.70168,14.47762 -32.23881,19.25374 -12.53747,4.77611 -25.97029,7.16417 -40.2985,7.16417 -14.32848,0 -27.7613,-2.38806 -40.29851,-7.16417 -12.53739,-5.07462 -23.43291,-11.94029 -32.68657,-20.59702 -8.95527,-8.65669 -16.11945,-18.80593 -21.49254,-30.44776 -5.07466,-11.64173 -7.61197,-24.17903 -7.61194,-37.61194 -3e-5,-20.89541 2.68654,-41.64166 8.0597,-62.23881 5.6716,-20.59684 13.58204,-40.29831 23.73135,-59.10448 10.14918,-18.80574 22.23872,-36.11915 36.26865,-51.9403 14.32825,-16.11912 30.14913,-29.9997 47.46269,-41.64179 l 24.17911,40.29851 c -9.2539,7.16444 -17.46284,14.17936 -24.62687,21.04478 -6.86581,6.5674 -13.28371,13.43306 -19.25373,20.59701 -5.67176,7.1644 -10.89564,14.77633 -15.67164,22.83582 -4.77623,7.76139 -9.40309,16.4181 -13.8806,25.97015 8.65661,-1.49236 15.22377,-2.38788 19.70149,-2.68657 4.776,-0.29833 10.14913,-0.44758 16.11941,-0.44776 13.73119,1.8e-4 26.71626,2.38824 38.95522,7.16418 12.53713,4.77629 23.43264,11.34345 32.68657,19.7015 9.55202,8.05984 17.0147,17.76132 22.38806,29.10447 5.3729,11.04489 8.05947,22.83592 8.0597,35.37314 m -47.46269,-0.89552 c -1.8e-4,-5.67155 -1.49272,-11.19394 -4.47761,-16.56717 -2.68675,-5.37302 -6.56734,-9.99988 -11.64179,-13.8806 -4.77629,-3.88047 -10.59718,-7.0148 -17.46269,-9.40298 -6.56731,-2.38793 -13.58223,-3.58196 -21.04477,-3.58209 -7.46282,1.3e-4 -14.47773,1.19416 -21.04478,3.58209 -6.26876,2.38818 -11.9404,5.52251 -17.01493,9.40298 -4.7762,3.88072 -8.6568,8.50758 -11.64179,13.8806 -2.68664,5.37323 -4.02993,10.89562 -4.02985,16.56717 -8e-5,5.97023 1.34321,11.64186 4.02985,17.01492 2.98499,5.3732 6.86559,10.14932 11.64179,14.32836 5.07453,3.88065 10.74617,7.01497 17.01493,9.40299 6.56705,2.3881 13.58196,3.58213 21.04478,3.58208 7.46254,5e-5 14.47746,-1.19398 21.04477,-3.58208 6.56701,-2.38802 12.23864,-5.52234 17.01493,-9.40299 5.07445,-4.17904 9.1043,-8.95516 12.08955,-14.32836 2.98489,-5.37306 4.47743,-11.04469 4.47761,-17.01492"
       id="path3569" /><path
       d="m 682.71341,290.44776 c -2.5e-4,23.88072 -2.83606,46.71652 -8.50747,68.50746 -5.67187,21.79111 -13.73156,39.40303 -24.1791,52.83582 -16.71661,22.38807 -40.89569,33.58209 -72.53732,33.58209 -21.19414,0 -38.65681,-4.32835 -52.38806,-12.98507 -13.73141,-8.6567 -25.07468,-22.23878 -34.02985,-40.74627 -6.2687,-12.83576 -11.34332,-28.35813 -15.22388,-46.56716 -3.88063,-18.50735 -5.82092,-36.71629 -5.82089,-54.62687 -3e-5,-24.77595 2.83578,-47.761 8.50746,-68.95523 5.9701,-21.19379 14.0298,-38.95496 24.1791,-53.28358 8.95516,-11.343 19.55216,-19.7012 31.79105,-25.07463 12.53721,-5.67133 27.46256,-8.50715 44.77612,-8.50746 19.10432,3.1e-4 35.37296,4.32866 48.80597,12.98508 13.43263,8.657 24.92516,22.23907 34.47761,40.74627 6.26843,13.43307 11.1938,29.1047 14.77612,47.01492 3.58185,17.91064 5.37289,36.26883 5.37314,55.07463 m -47.46269,0 c -2e-4,-17.01476 -1.49273,-32.68639 -4.47761,-47.01493 -2.98526,-14.62665 -7.46287,-27.0147 -13.43284,-37.16418 -4.77629,-7.76095 -10.29867,-13.43259 -16.56716,-17.01492 -5.97031,-3.58184 -13.43299,-5.67139 -22.38806,-6.26866 -11.64192,-0.59676 -21.3434,2.08981 -29.10448,8.0597 -7.7613,5.9704 -14.1792,15.67188 -19.25373,29.10448 -3.88069,8.95544 -6.86576,19.85095 -8.95523,32.68657 -1.79112,12.53749 -2.68664,25.07479 -2.68656,37.61194 -8e-5,16.11954 1.49245,31.64191 4.47761,46.56716 2.98499,14.92547 7.46259,27.16426 13.43283,36.71642 4.77602,7.76126 10.44766,13.58214 17.01493,17.46269 6.56704,3.88064 14.62674,5.82094 24.1791,5.82089 11.04463,5e-5 20.1491,-2.98502 27.31344,-8.95522 7.46251,-5.97009 13.73116,-15.67157 18.80597,-29.10448 1.49235,-3.88051 2.98489,-8.50737 4.47761,-13.88059 1.49235,-5.67155 2.68638,-11.49244 3.58209,-17.46269 1.19384,-6.26854 2.08936,-12.53719 2.68657,-18.80597 0.59682,-6.26852 0.89532,-12.38792 0.89552,-18.35821"
       id="path3571" /></g></svg>