<?xml version="1.0" encoding="UTF-8" standalone="no"?>
<!-- Created with Inkscape (http://www.inkscape.org/) -->

<svg
   xmlns:dc="http://purl.org/dc/elements/1.1/"
   xmlns:cc="http://creativecommons.org/ns#"
   xmlns:rdf="http://www.w3.org/1999/02/22-rdf-syntax-ns#"
   xmlns:svg="http://www.w3.org/2000/svg"
   xmlns="http://www.w3.org/2000/svg"
   version="1.1"
   width="750"
   height="600"
   viewBox="0 0 750 600"
   id="Layer_1"
   xml:space="preserve"
   style="overflow:visible"><metadata
     id="metadata24"><rdf:RDF><cc:Work
         rdf:about=""><dc:format>image/svg+xml</dc:format><dc:type
           rdf:resource="http://purl.org/dc/dcmitype/StillImage" /><dc:title></dc:title></cc:Work></rdf:RDF></metadata><defs
     id="defs22" /><g
     id="g3861"><g
       id="g5"><path
         d="M 0,50 C 0,22.385742 22.385254,0 50,0 h 650 c 27.61426,0 50,22.385742 50,50 v 500 c 0,27.61523 -22.38574,50 -50,50 H 50 C 22.385254,600 0,577.61523 0,550 V 50 l 0,0 z"
         id="path7" /><path
         d="M 375,300"
         id="path9" /></g><path
       d="M 375,10.001953 C 338.67236,32.46582 295.85059,45.430664 250,45.430664 204.14941,45.430664 161.32715,32.463867 125,10 L 10,125 c 21.163086,30.08057 33.587891,66.75244 33.587891,106.32764 0,28.56006 -6.471192,55.6084 -18.027832,79.7583 C 15.584961,331.95508 10,355.32617 10,380 10,468.36719 81.633301,540 170,540 H 270.11523 C 312.4585,540 350.24854,559.49414 375,589.99805 399.75098,559.49414 437.54102,540 479.88477,540 H 580 c 88.36719,0 160,-71.63281 160,-160 0,-24.67383 -5.58496,-48.04492 -15.56055,-68.91406 -11.55664,-24.1499 -18.02734,-51.19824 -18.02734,-79.7583 0,-39.5752 12.4248,-76.24707 33.58789,-106.32764 L 625,10 c -36.32715,22.463867 -79.14941,35.430664 -125,35.430664 -45.85059,0 -88.67285,-12.964844 -125,-35.428711 z"
       id="path11"
       style="fill:#ffffff;fill-opacity:1;fill-rule:evenodd" /></g><g
     id="text1331"
     style="font-size:447.76119995px;font-style:normal;font-variant:normal;font-weight:normal;font-stretch:normal;text-align:center;line-height:125%;writing-mode:lr-tb;text-anchor:middle;font-family:Roadgeek 2005 Series D;-inkscape-font-specification:Roadgeek 2005 Series D"><path
       d="m 106.86099,440 0,-243.13433 -27.313429,0 0,-38.0597 3.134329,0 c 6.268617,2.8e-4 12.537268,-1.64151 18.80597,-4.92538 6.2686,-3.28329 11.49247,-7.91015 15.67164,-13.88059 l 38.0597,0 0,300 -48.35821,0"
       id="path3307" /><path
       d="m 220.34747,440 c 0.59699,-17.61192 2.83579,-33.73131 6.71642,-48.35821 3.88056,-14.6268 9.99995,-29.1044 18.35821,-43.43284 6.2686,-11.34318 14.02978,-21.79093 23.28358,-31.34328 9.25365,-9.85061 19.10438,-18.65657 29.55224,-26.41791 2.68646,-1.49239 5.07452,-2.98492 7.16418,-4.47761 2.08944,-1.79089 4.17899,-3.43268 6.26866,-4.92538 l 16.1194,-8.50746 14.77612,-8.50746 14.32836,-8.0597 c 5.96998,-3.88041 10.74609,-8.65653 14.32836,-14.32836 3.88041,-5.96995 5.82071,-12.08934 5.82089,-18.35821 -1.8e-4,-5.67142 -1.49272,-10.8953 -4.47761,-15.67164 -2.98525,-5.07439 -7.0151,-9.40275 -12.08955,-12.98508 -4.77629,-3.58184 -10.44792,-6.41766 -17.01493,-8.50746 -6.56731,-2.0893 -13.58223,-3.13407 -21.04477,-3.13433 -15.224,2.6e-4 -27.61205,3.58234 -37.16418,10.74627 -9.25382,7.16442 -15.07471,17.61217 -17.46269,31.34328 l -47.46269,-10.2985 c 5.07459,-25.07438 16.71637,-44.6266 34.92538,-58.65672 18.20887,-14.32806 40.59691,-21.49223 67.16418,-21.49254 14.32821,3.1e-4 27.61178,2.38836 39.85074,7.16418 12.53713,4.77641 23.28339,11.19432 32.23881,19.25373 9.25352,8.05997 16.56694,17.6122 21.9403,28.65672 5.3729,10.74651 8.05947,22.23903 8.0597,34.47761 -2.3e-4,11.642 -2.6868,23.13452 -8.0597,34.47761 -5.07485,11.04495 -12.53753,20.89569 -22.38806,29.55224 -2.38826,1.7912 -4.62707,3.43299 -6.71642,4.92538 -1.79124,1.49268 -3.73154,2.68671 -5.8209,3.58209 l -14.77611,9.40298 -16.11941,8.50746 -14.77612,8.50747 c -7.16431,4.17921 -13.58222,8.65682 -19.25373,13.43283 -5.37325,4.47771 -10.44788,9.40308 -15.22388,14.77612 -4.47772,5.37322 -8.80607,11.34336 -12.98507,17.91045 -3.8807,6.56723 -7.61204,14.02991 -11.19403,22.38806 l 147.31343,0 0,48.35821 -204.17911,0"
       id="path3309" /><path
       d="m 678.35823,187.46268 c -2.68679,3.28383 -5.2241,6.26891 -7.61194,8.95523 -2.08977,2.68681 -4.17932,5.37337 -6.26866,8.0597 -1.79125,2.6868 -3.73155,5.52262 -5.82089,8.50746 -2.08976,2.9853 -4.32856,6.41813 -6.71642,10.29851 -13.43302,22.08975 -24.92555,45.37331 -34.47761,69.85075 -9.25389,24.47773 -16.41806,48.80607 -21.49254,72.98507 -0.89567,6.26873 -1.79119,12.38812 -2.68657,18.35821 -0.89566,5.67169 -1.64193,11.49258 -2.2388,17.46269 -0.29865,5.67167 -0.59716,11.64182 -0.89553,17.91045 -0.29864,5.97016 -0.44789,12.68657 -0.44776,20.14925 l -48.35821,0 c 0.29842,-17.31342 1.3432,-34.02982 3.13433,-50.14925 1.79095,-16.11934 4.32826,-31.94022 7.61194,-47.46269 3.58199,-15.52228 8.0596,-30.8954 13.43284,-46.11941 5.37301,-15.52222 11.79092,-31.19385 19.25373,-47.01492 5.07449,-11.34308 10.59687,-22.38785 16.56716,-33.13433 5.97,-10.74603 11.64163,-20.29826 17.01493,-28.65672 l -143.28359,0 0,-47.46268 203.28359,0 0,47.46268 0,0"
       id="path3311" /></g></svg>