<?xml version="1.0" encoding="utf-8"?>
<!-- Generator: Adobe Illustrator 12.0.0, SVG Export Plug-In . SVG Version: 6.00 Build 51448)  -->
<!DOCTYPE svg PUBLIC "-//W3C//DTD SVG 1.1//EN" "http://www.w3.org/Graphics/SVG/1.1/DTD/svg11.dtd" [
	<!ENTITY ns_svg "http://www.w3.org/2000/svg">
	<!ENTITY ns_xlink "http://www.w3.org/1999/xlink">
]>
<svg  version="1.1" id="Layer_1" xmlns="&ns_svg;" xmlns:xlink="&ns_xlink;" width="600" height="600" viewBox="0 0 600 600"
	 overflow="visible" enable-background="new 0 0 600 600" xml:space="preserve">
<g>
	<path d="M0,50C0,22.3857422,22.3852539,0,50,0h500c27.6142578,0,50,22.3857422,50,50v500c0,27.6152344-22.3857422,50-50,50H50
		c-27.6147461,0-50-22.3847656-50-50V50L0,50z"/>
	<path d="M300,300"/>
</g>
<g>
	<path fill-rule="evenodd" clip-rule="evenodd" fill="#FFFFFF" d="M300,10.0024414
		c23.5644531,20.0751953,54.1171875,32.1918945,87.5,32.1918945S451.4355469,30.0756836,475,10l115,115
		c-21.1621094,30.0805664-33.5878906,66.7539063-33.5878906,106.3266602c0,28.4633789,6.4267578,55.4248047,17.9101563,79.512207
		C584.2441406,331.6640625,590,355.3945313,590,380c0,88.3671875-71.6328125,160-160,160h-25.1132813
		C362.5419922,540,324.7509766,559.4960938,300,590c-24.7514648-30.5039063-62.5419922-50-104.8867188-50h-25.1137695
		c-88.3666992,0-160-71.6328125-160-160c0-24.6054688,5.7558594-48.3359375,15.6782227-69.1611328
		c11.4829102-24.0874023,17.9106445-51.0488281,17.9106445-79.512207C43.5883789,191.7539063,31.1616211,155.0805664,10,125L125,10
		c23.5644531,20.0756836,54.1166992,32.1943359,87.5,32.1943359C245.8828125,42.1943359,276.4355469,30.0776367,300,10.0024414z"/>
	
		<path fill-rule="evenodd" clip-rule="evenodd" fill="none" stroke="#000000" stroke-linecap="round" stroke-linejoin="round" stroke-miterlimit="3.863693" d="
		M300,10.0024414c23.5644531,20.0751953,54.1171875,32.1918945,87.5,32.1918945S451.4355469,30.0756836,475,10l115,115
		c-21.1621094,30.0805664-33.5878906,66.7539063-33.5878906,106.3266602c0,28.4633789,6.4267578,55.4248047,17.9101563,79.512207
		C584.2441406,331.6640625,590,355.3945313,590,380c0,88.3671875-71.6328125,160-160,160h-25.1132813
		C362.5419922,540,324.7509766,559.4960938,300,590c-24.7514648-30.5039063-62.5419922-50-104.8867188-50h-25.1137695
		c-88.3666992,0-160-71.6328125-160-160c0-24.6054688,5.7558594-48.3359375,15.6782227-69.1611328
		c11.4829102-24.0874023,17.9106445-51.0488281,17.9106445-79.512207C43.5883789,191.7539063,31.1616211,155.0805664,10,125L125,10
		c23.5644531,20.0756836,54.1166992,32.1943359,87.5,32.1943359C245.8828125,42.1943359,276.4355469,30.0776367,300,10.0024414z"/>
</g>
<g>
	<path fill-rule="evenodd" clip-rule="evenodd" d="M206.4067383,434.8056641h-46.7529297V199.7407227H133.246582v-36.3637695
		h3.0307617c13.5639648,0,24.675293-6.2050781,33.3330078-18.6147461h36.7963867V434.8056641z"/>
	<path fill-rule="evenodd" clip-rule="evenodd" d="M466.7529297,351.2558594
		c0,25.1074219-9.4521484,46.1757813-28.3544922,63.203125C419.4941406,431.4863281,396.046875,440,368.0517578,440
		s-51.4423828-8.9462891-70.3466797-26.8398438c-18.9033203-17.8925781-28.3544922-39.8261719-28.3544922-65.8007813
		c0-40.1152344,10.2451172-79.1484375,30.7353516-117.0991211c20.4912109-37.9516602,47.4746094-68.0375977,80.953125-90.2597656
		l23.3759766,38.527832c-31.1689453,24.2426758-54.8339844,53.3911133-70.9951172,87.4462891
		c10.6777344-2.0209961,22.2216797-3.0302734,34.6318359-3.0302734c26.8398438,0,50,8.6577148,69.4804688,25.9736328
		C457.0126953,306.234375,466.7529297,327.0136719,466.7529297,351.2558594z M420.8652344,350.390625
		c0-11.2558594-5.1943359-20.9960938-15.5839844-29.2226563c-10.3896484-8.2236328-22.7998047-12.3359375-37.2294922-12.3359375
		c-14.1416016,0-26.3349609,4.1123047-36.5800781,12.3359375c-10.2451172,8.2265625-15.3681641,17.9667969-15.3681641,29.2226563
		c0,11.8320313,5.0507813,21.9335938,15.1513672,30.3027344s22.3662109,12.5537109,36.796875,12.5537109
		c14.1416016,0,26.4794922-4.2568359,37.0126953-12.7705078
		C415.5986328,371.9628906,420.8652344,361.9335938,420.8652344,350.390625z"/>
</g>
</svg>
