<?xml version="1.0" encoding="UTF-8" standalone="no"?>
<!-- Created with Inkscape (http://www.inkscape.org/) -->

<svg
   xmlns:dc="http://purl.org/dc/elements/1.1/"
   xmlns:cc="http://creativecommons.org/ns#"
   xmlns:rdf="http://www.w3.org/1999/02/22-rdf-syntax-ns#"
   xmlns:svg="http://www.w3.org/2000/svg"
   xmlns="http://www.w3.org/2000/svg"
   version="1.1"
   width="750"
   height="600"
   viewBox="0 0 750 600"
   id="Layer_1"
   xml:space="preserve"
   style="overflow:visible"><metadata
     id="metadata24"><rdf:RDF><cc:Work
         rdf:about=""><dc:format>image/svg+xml</dc:format><dc:type
           rdf:resource="http://purl.org/dc/dcmitype/StillImage" /><dc:title></dc:title></cc:Work></rdf:RDF></metadata><defs
     id="defs22" /><g
     id="g3861"><g
       id="g5"><path
         d="M 0,50 C 0,22.385742 22.385254,0 50,0 h 650 c 27.61426,0 50,22.385742 50,50 v 500 c 0,27.61523 -22.38574,50 -50,50 H 50 C 22.385254,600 0,577.61523 0,550 V 50 l 0,0 z"
         id="path7" /><path
         d="M 375,300"
         id="path9" /></g><path
       d="M 375,10.001953 C 338.67236,32.46582 295.85059,45.430664 250,45.430664 204.14941,45.430664 161.32715,32.463867 125,10 L 10,125 c 21.163086,30.08057 33.587891,66.75244 33.587891,106.32764 0,28.56006 -6.471192,55.6084 -18.027832,79.7583 C 15.584961,331.95508 10,355.32617 10,380 10,468.36719 81.633301,540 170,540 H 270.11523 C 312.4585,540 350.24854,559.49414 375,589.99805 399.75098,559.49414 437.54102,540 479.88477,540 H 580 c 88.36719,0 160,-71.63281 160,-160 0,-24.67383 -5.58496,-48.04492 -15.56055,-68.91406 -11.55664,-24.1499 -18.02734,-51.19824 -18.02734,-79.7583 0,-39.5752 12.4248,-76.24707 33.58789,-106.32764 L 625,10 c -36.32715,22.463867 -79.14941,35.430664 -125,35.430664 -45.85059,0 -88.67285,-12.964844 -125,-35.428711 z"
       id="path11"
       style="fill:#ffffff;fill-opacity:1;fill-rule:evenodd" /></g><g
     id="text1331"
     style="font-size:447.76119995px;font-style:normal;font-variant:normal;font-weight:normal;font-stretch:normal;text-align:center;line-height:125%;writing-mode:lr-tb;text-anchor:middle;font-family:Roadgeek 2005 Series D;-inkscape-font-specification:Roadgeek 2005 Series D"><path
       d="m 100.73926,440 0,-243.13433 -27.313434,0 0,-38.0597 3.134328,0 c 6.268618,2.8e-4 12.537269,-1.64151 18.805971,-4.92538 C 101.63472,150.5973 106.8586,145.97044 111.03777,140 l 38.0597,0 0,300 -48.35821,0"
       id="path3225" /><path
       d="m 418.40484,344.1791 c -2.3e-4,13.73143 -2.83605,26.71649 -8.50746,38.95523 -5.37335,12.23885 -12.83603,22.98511 -22.38806,32.2388 -9.25392,9.25375 -20.00018,16.56718 -32.2388,21.9403 -12.23897,5.37313 -25.22403,8.0597 -38.95523,8.0597 -13.73146,0 -26.71652,-2.68657 -38.95522,-8.0597 -12.23889,-5.37312 -23.1344,-12.68655 -32.68657,-21.9403 -9.25378,-9.25369 -16.71646,-19.99995 -22.38806,-32.2388 -5.37317,-12.23874 -8.05973,-25.2238 -8.0597,-38.95523 -3e-5,-14.32825 2.98504,-27.16405 8.95522,-38.50746 5.97011,-11.64165 14.47756,-21.94014 25.52239,-30.89552 -14.62692,-15.52221 -21.94034,-33.73115 -21.9403,-54.62687 -4e-5,-11.64156 2.38802,-22.53707 7.16418,-32.68657 4.77607,-10.4475 11.19397,-19.55196 19.25373,-27.31343 8.35813,-8.05941 17.91036,-14.32806 28.65672,-18.80597 10.74616,-4.47731 22.23869,-6.71611 34.47761,-6.71642 11.94016,3.1e-4 23.43268,2.23911 34.47761,6.71642 11.0446,4.47791 20.59683,10.74656 28.65672,18.80597 8.35801,7.76147 14.92516,16.86593 19.70149,27.31343 5.07441,10.1495 7.61172,21.04501 7.61194,32.68657 -2.2e-4,10.44797 -2.08977,20.29871 -6.26865,29.55224 -3.88081,8.95541 -9.55245,17.31361 -17.01493,25.07463 11.64158,8.95538 20.29829,19.40313 25.97015,31.34328 5.96992,11.64191 8.95499,24.32847 8.95522,38.0597 m -60,-125.37313 c -1.7e-4,-9.85052 -4.17927,-18.20872 -12.53731,-25.07463 -8.05985,-7.16393 -17.91059,-10.74601 -29.55224,-10.74627 -11.64191,2.6e-4 -21.6419,3.58234 -30,10.74627 -8.05979,6.86591 -12.08964,15.22411 -12.08955,25.07463 -9e-5,8.95543 4.02976,16.71662 12.08955,23.28358 8.3581,6.26885 18.35809,9.40317 30,9.40298 11.64165,1.9e-4 21.49239,-3.13413 29.55224,-9.40298 8.35804,-6.56696 12.53714,-14.32815 12.53731,-23.28358 m 12.53732,126.26866 c -1.9e-4,-6.26856 -1.49272,-12.08945 -4.47761,-17.46269 -2.98526,-5.67152 -7.0151,-10.44764 -12.08956,-14.32836 -4.77628,-4.17897 -10.44792,-7.46255 -17.01492,-9.85075 -6.56731,-2.38792 -13.58223,-3.58195 -21.04478,-3.58209 -7.46281,1.4e-4 -14.47773,1.19417 -21.04478,3.58209 -6.26876,2.3882 -11.94039,5.67178 -17.01492,9.85075 -4.77621,3.88072 -8.6568,8.65684 -11.64179,14.32836 -2.68665,5.37324 -4.02993,11.19413 -4.02985,17.46269 -8e-5,7.16426 1.3432,13.88067 4.02985,20.14925 2.98499,6.26872 6.86558,11.79111 11.64179,16.56716 5.07453,4.77618 10.74616,8.50752 17.01492,11.19403 6.56705,2.68662 13.58197,4.0299 21.04478,4.02985 7.46255,5e-5 14.47747,-1.34323 21.04478,-4.02985 6.86551,-2.68651 12.6864,-6.41785 17.46268,-11.19403 5.07446,-4.77605 8.95505,-10.29844 11.6418,-16.56716 2.98489,-6.26858 4.47742,-12.98499 4.47761,-20.14925"
       id="path3227" /><path
       d="m 675.37082,341.04477 c -2.3e-4,15.22397 -2.53754,29.25381 -7.61194,42.08956 -5.07484,12.83586 -12.23901,23.88063 -21.49254,33.13433 -8.95541,8.95524 -19.85092,16.11941 -32.68656,21.49253 -12.53747,5.07463 -26.41805,7.61194 -41.64179,7.61194 -12.23892,0 -23.73145,-1.9403 -34.47762,-5.82089 -10.44784,-3.88059 -20.14932,-9.25372 -29.10448,-16.1194 -8.65676,-6.86565 -16.11944,-15.22385 -22.38806,-25.07463 -6.26868,-9.8507 -10.89554,-20.89546 -13.88059,-33.13433 l 46.56716,-13.43284 c 3.58202,14.62694 10.14918,25.82096 19.7015,33.58209 9.55213,7.76124 21.49242,11.64184 35.82089,11.64179 8.05957,5e-5 15.37299,-1.34323 21.9403,-4.02985 6.56701,-2.68651 12.08939,-6.2686 16.56716,-10.74626 4.77595,-4.77606 8.50729,-10.29844 11.19403,-16.56717 2.68639,-6.56708 4.02968,-13.73125 4.02986,-21.49254 -1.8e-4,-7.76109 -1.49272,-15.07451 -4.47762,-21.9403 -2.98524,-6.86554 -7.16434,-12.23867 -12.53731,-16.1194 -1.79121,-1.19389 -3.433,-2.08942 -4.92537,-2.68657 -1.19419,-0.89538 -2.83598,-1.4924 -4.92538,-1.79104 -1.79119,-0.29837 -4.3285,-0.59688 -7.61194,-0.89552 -2.98521,-0.29837 -7.31357,-0.59688 -12.98507,-0.89553 l -5.37314,0 0,-48.35821 0,1.34329 1.34329,0 0.89552,0 9.40298,0 c 9.5521,1.9e-4 16.86552,-2.53713 21.9403,-7.61194 5.07446,-5.07443 7.61178,-12.38785 7.61194,-21.9403 -1.6e-4,-11.64156 -4.17926,-21.19379 -12.53731,-28.65672 -8.05985,-7.76094 -18.20909,-11.64153 -30.44776,-11.64179 -20.00011,2.6e-4 -35.07472,9.85099 -45.22388,29.55224 l -44.32836,-16.56716 c 7.76115,-19.10422 19.40293,-34.02958 34.92537,-44.77612 15.82081,-11.04448 33.58199,-16.56686 53.28359,-16.56717 12.53717,3.1e-4 24.32821,2.38836 35.37313,7.16418 11.34311,4.77641 21.19385,11.34357 29.55224,19.70149 8.35801,8.35848 14.92517,18.20922 19.70149,29.55224 4.77591,11.04502 7.16397,22.83605 7.16418,35.37314 -2.1e-4,8.95543 -1.19424,17.01512 -3.58209,24.1791 -2.38827,7.16436 -6.86588,15.52256 -13.43283,25.07463 5.67143,5.07479 10.29829,10.00015 13.88059,14.77612 3.58188,4.47776 6.41769,9.25387 8.50747,14.32836 2.38783,5.07475 4.02962,10.59714 4.92537,16.56716 0.89529,5.67176 1.34305,12.23891 1.34328,19.70149"
       id="path3229" /></g></svg>