<?xml version="1.0" encoding="utf-8"?>
<!-- Generator: Adobe Illustrator 12.0.0, SVG Export Plug-In . SVG Version: 6.00 Build 51448)  -->
<!DOCTYPE svg PUBLIC "-//W3C//DTD SVG 1.1//EN" "http://www.w3.org/Graphics/SVG/1.1/DTD/svg11.dtd" [
	<!ENTITY ns_svg "http://www.w3.org/2000/svg">
	<!ENTITY ns_xlink "http://www.w3.org/1999/xlink">
]>
<svg  version="1.1" id="Layer_1" xmlns="&ns_svg;" xmlns:xlink="&ns_xlink;" width="600" height="600" viewBox="0 0 600 600"
	 overflow="visible" enable-background="new 0 0 600 600" xml:space="preserve">
<g>
	<path d="M0,50C0,22.3857422,22.3852539,0,50,0h500c27.6142578,0,50,22.3857422,50,50v500c0,27.6152344-22.3857422,50-50,50H50
		c-27.6147461,0-50-22.3847656-50-50V50L0,50z"/>
	<path d="M300,300"/>
</g>
<g>
	<path fill-rule="evenodd" clip-rule="evenodd" fill="#FFFFFF" d="M300,10.0024414
		c23.5644531,20.0751953,54.1171875,32.1918945,87.5,32.1918945S451.4355469,30.0756836,475,10l115,115
		c-21.1621094,30.0805664-33.5878906,66.7539063-33.5878906,106.3266602c0,28.4633789,6.4267578,55.4248047,17.9101563,79.512207
		C584.2441406,331.6640625,590,355.3945313,590,380c0,88.3671875-71.6328125,160-160,160h-25.1132813
		C362.5419922,540,324.7509766,559.4960938,300,590c-24.7514648-30.5039063-62.5419922-50-104.8867188-50h-25.1137695
		c-88.3666992,0-160-71.6328125-160-160c0-24.6054688,5.7563477-48.3359375,15.6787109-69.1611328
		c11.4824219-24.0874023,17.9101563-51.0488281,17.9101563-79.512207C43.5883789,191.7539063,31.1616211,155.0805664,10,125L125,10
		c23.5644531,20.0756836,54.1166992,32.1943359,87.5,32.1943359C245.8828125,42.1943359,276.4355469,30.0776367,300,10.0024414z"/>
	
		<path fill-rule="evenodd" clip-rule="evenodd" fill="none" stroke="#000000" stroke-linecap="round" stroke-linejoin="round" stroke-miterlimit="3.863693" d="
		M300,10.0024414c23.5644531,20.0751953,54.1171875,32.1918945,87.5,32.1918945S451.4355469,30.0756836,475,10l115,115
		c-21.1621094,30.0805664-33.5878906,66.7539063-33.5878906,106.3266602c0,28.4633789,6.4267578,55.4248047,17.9101563,79.512207
		C584.2441406,331.6640625,590,355.3945313,590,380c0,88.3671875-71.6328125,160-160,160h-25.1132813
		C362.5419922,540,324.7509766,559.4960938,300,590c-24.7514648-30.5039063-62.5419922-50-104.8867188-50h-25.1137695
		c-88.3666992,0-160-71.6328125-160-160c0-24.6054688,5.7563477-48.3359375,15.6787109-69.1611328
		c11.4824219-24.0874023,17.9101563-51.0488281,17.9101563-79.512207C43.5883789,191.7539063,31.1616211,155.0805664,10,125L125,10
		c23.5644531,20.0756836,54.1166992,32.1943359,87.5,32.1943359C245.8828125,42.1943359,276.4355469,30.0776367,300,10.0024414z"/>
</g>
<g>
	<path fill-rule="evenodd" clip-rule="evenodd" d="M202.2944336,434.8056641h-46.7529297V199.7407227h-26.4072266v-36.3637695
		h3.0302734c13.5644531,0,24.675293-6.2050781,33.3334961-18.6147461h36.7963867V434.8056641z"/>
	<path fill-rule="evenodd" clip-rule="evenodd" d="M470.8652344,290.2167969
		c0,53.96875-11.5439453,94.5166016-34.6318359,121.6445313C419.7832031,430.6210938,397.4169922,440,369.1337891,440
		c-38.3837891,0-66.0888672-17.3164063-83.1166992-51.9472656c-13.5639648-27.7060547-20.3461914-60.3183594-20.3461914-97.8359375
		c0-49.9277344,10.5336914-89.1777344,31.6015625-117.7490234c15.8730469-21.6450195,40.5488281-32.4672852,74.0263672-32.4672852
		c36.3632813,0,63.203125,17.1713867,80.5195313,51.5151367
		C464.5166016,217.4892578,470.8652344,250.3901367,470.8652344,290.2167969z M425.4111328,290.2167969
		c0-34.6318359-5.7724609-61.7607422-17.3164063-81.3852539c-8.3691406-13.8530273-20.9228516-21.2119141-37.6621094-22.078125
		c-21.0673828-1.1547852-36.6523438,10.6782227-46.7529297,35.4980469
		c-7.5039063,18.4702148-11.2558594,41.1254883-11.2558594,67.965332c0,34.6318359,5.7724609,61.4716797,17.3164063,80.5195313
		c8.9462891,15.0078125,22.078125,22.5107422,39.3935547,22.5107422c20.2021484,0,35.2089844-12.265625,45.0214844-36.7958984
		C421.6591797,337.6914063,425.4111328,315.6132813,425.4111328,290.2167969z"/>
</g>
</svg>
