<?xml version="1.0" encoding="utf-8"?>
<!-- Generator: Adobe Illustrator 12.0.0, SVG Export Plug-In . SVG Version: 6.00 Build 51448)  -->
<!DOCTYPE svg PUBLIC "-//W3C//DTD SVG 1.1//EN" "http://www.w3.org/Graphics/SVG/1.1/DTD/svg11.dtd" [
	<!ENTITY ns_svg "http://www.w3.org/2000/svg">
	<!ENTITY ns_xlink "http://www.w3.org/1999/xlink">
]>
<svg  version="1.1" id="Layer_1" xmlns="&ns_svg;" xmlns:xlink="&ns_xlink;" width="600" height="600" viewBox="0 0 600 600"
	 overflow="visible" enable-background="new 0 0 600 600" xml:space="preserve">
<g>
	<path d="M0,50C0,22.3857422,22.3852539,0,50,0h500c27.6142578,0,50,22.3857422,50,50v500c0,27.6152344-22.3857422,50-50,50H50
		c-27.6147461,0-50-22.3847656-50-50V50L0,50z"/>
	<path d="M300,300"/>
</g>
<g>
	<path fill-rule="evenodd" clip-rule="evenodd" fill="#FFFFFF" d="M300,10.0024414
		c23.5644531,20.0751953,54.1171875,32.1918945,87.5,32.1918945S451.4355469,30.0756836,475,10l115,115
		c-21.1621094,30.0805664-33.5878906,66.7539063-33.5878906,106.3266602c0,28.4633789,6.4267578,55.4248047,17.9101563,79.512207
		C584.2441406,331.6640625,590,355.3945313,590,380c0,88.3671875-71.6328125,160-160,160h-25.1132813
		C362.5419922,540,324.7509766,559.4960938,300,590c-24.7514648-30.5039063-62.5424805-50-104.8867188-50h-25.1137695
		c-88.3666992,0-160-71.6328125-160-160c0-24.6054688,5.7558594-48.3359375,15.6782227-69.1611328
		c11.4829102-24.0874023,17.9106445-51.0488281,17.9106445-79.512207C43.5883789,191.7539063,31.1616211,155.0805664,10,125L125,10
		c23.5644531,20.0756836,54.1166992,32.1943359,87.5,32.1943359C245.8828125,42.1943359,276.4355469,30.0776367,300,10.0024414z"/>
	
		<path fill-rule="evenodd" clip-rule="evenodd" fill="none" stroke="#000000" stroke-linecap="round" stroke-linejoin="round" stroke-miterlimit="3.863693" d="
		M300,10.0024414c23.5644531,20.0751953,54.1171875,32.1918945,87.5,32.1918945S451.4355469,30.0756836,475,10l115,115
		c-21.1621094,30.0805664-33.5878906,66.7539063-33.5878906,106.3266602c0,28.4633789,6.4267578,55.4248047,17.9101563,79.512207
		C584.2441406,331.6640625,590,355.3945313,590,380c0,88.3671875-71.6328125,160-160,160h-25.1132813
		C362.5419922,540,324.7509766,559.4960938,300,590c-24.7514648-30.5039063-62.5424805-50-104.8867188-50h-25.1137695
		c-88.3666992,0-160-71.6328125-160-160c0-24.6054688,5.7558594-48.3359375,15.6782227-69.1611328
		c11.4829102-24.0874023,17.9106445-51.0488281,17.9106445-79.512207C43.5883789,191.7539063,31.1616211,155.0805664,10,125L125,10
		c23.5644531,20.0756836,54.1166992,32.1943359,87.5,32.1943359C245.8828125,42.1943359,276.4355469,30.0776367,300,10.0024414z"/>
</g>
<g>
	<path fill-rule="evenodd" clip-rule="evenodd" d="M206.4067383,434.8056641h-46.7529297V199.7407227H133.246582v-36.3637695
		h3.0307617c13.5639648,0,24.675293-6.2050781,33.3330078-18.6147461h36.7963867V434.8056641z"/>
	<path fill-rule="evenodd" clip-rule="evenodd" d="M466.7529297,342.1640625c0,26.5527344-9.8125,49.4960938-29.4375,68.8320313
		C417.6914063,430.3320313,394.6035156,440,368.0517578,440s-49.6396484-9.6679688-69.2641602-29.0039063
		c-19.625-19.3359375-29.4375-42.2792969-29.4375-68.8320313c0-26.5507813,11.1113281-48.9169922,33.3334961-67.0986328
		c-14.1416016-15.2958984-21.2119141-32.9003906-21.2119141-52.8139648c0-22.5107422,8.5854492-41.847168,25.7568359-58.0087891
		c17.1728516-16.1621094,37.4462891-24.2421875,60.8232422-24.2421875c23.3759766,0,43.7949219,8.152832,61.2548828,24.4580078
		c17.4609375,16.3066406,26.1914063,35.5703125,26.1914063,57.7929688c0,19.3359375-7.5039063,36.940918-22.5117188,52.8139648
		C455.4980469,292.3813477,466.7529297,314.7480469,466.7529297,342.1640625z M408.7441406,221.3857422
		c0-9.8129883-3.96875-18.0375977-11.9042969-24.675293c-7.9375-6.6381836-17.5332031-9.9570313-28.7880859-9.9570313
		s-20.8515625,3.3188477-28.7880859,9.9570313c-7.9365234,6.6376953-11.9042969,14.8623047-11.9042969,24.675293
		c0,8.3691406,3.9677734,15.6557617,11.9042969,21.8613281c7.9365234,6.2050781,17.5322266,9.3076172,28.7880859,9.3076172
		c10.9667969,0,20.4902344-3.1025391,28.5712891-9.3076172
		C404.7041016,237.0415039,408.7441406,229.7548828,408.7441406,221.3857422z M420.8652344,343.4628906
		c0-12.1210938-5.1953125-22.5097656-15.5839844-31.1679688c-10.3896484-8.6582031-22.7998047-12.9873047-37.2294922-12.9873047
		c-14.4306641,0-26.6962891,4.2568359-36.796875,12.7705078s-15.1513672,18.9755859-15.1513672,31.3847656
		c0,13.5644531,5.0507813,25.2539063,15.1513672,35.0654297c10.1005859,9.8125,22.3662109,14.71875,36.796875,14.71875
		c14.7177734,0,27.2001953-4.90625,37.4462891-14.71875C415.7431641,368.7167969,420.8652344,357.0273438,420.8652344,343.4628906z"
		/>
</g>
</svg>
