<?xml version="1.0" encoding="utf-8"?>
<!-- Generator: Adobe Illustrator 12.0.0, SVG Export Plug-In . SVG Version: 6.00 Build 51448)  -->
<!DOCTYPE svg PUBLIC "-//W3C//DTD SVG 1.1//EN" "http://www.w3.org/Graphics/SVG/1.1/DTD/svg11.dtd" [
	<!ENTITY ns_svg "http://www.w3.org/2000/svg">
	<!ENTITY ns_xlink "http://www.w3.org/1999/xlink">
]>
<svg  version="1.1" id="Layer_1" xmlns="&ns_svg;" xmlns:xlink="&ns_xlink;" width="750" height="600" viewBox="0 0 750 600"
	 overflow="visible" enable-background="new 0 0 750 600" xml:space="preserve">
<g>
	<g>
		<path d="M0,50C0,22.3857422,22.3852539,0,50,0h650c27.6142578,0,50,22.3857422,50,50v500c0,27.6152344-22.3857422,50-50,50H50
			c-27.6147461,0-50-22.3847656-50-50V50L0,50z"/>
		<path d="M375,300"/>
	</g>
	<path fill-rule="evenodd" clip-rule="evenodd" fill="#FFFFFF" d="M375,590c24.7509766-30.5048828,62.5419922-50,104.8867188-50H580
		c88.3671875,0,160-71.6328125,160-160c0-24.6884766-5.5917969-48.0703125-15.5771484-68.9492188
		c-11.5458984-24.1416016-18.0107422-51.1777344-18.0107422-79.7236328C706.4121094,191.7539063,718.8378906,155.0805664,740,125
		L625,10c-36.3271484,22.4638672-79.1494141,35.4287109-125,35.4287109S411.3271484,32.4638672,375,10
		c-36.3271484,22.4638672-79.1494141,35.4287109-125,35.4287109S161.3276367,32.4638672,125,10L10,125
		c21.1616211,30.0805664,33.5878906,66.7539063,33.5878906,106.3271484c0,28.5458984-6.4648438,55.5820313-18.0107422,79.7236328
		C15.5917969,331.9296875,10,355.3115234,10,380c0,88.3671875,71.6333008,160,160,160h100.1132813
		C312.4580078,540,350.2490234,559.4951172,375,590z"/>
</g>
<g>
	<path fill-rule="evenodd" clip-rule="evenodd" d="M165.2490234,434.8125V200.0859375h-26.3686523v-36.7431641h3.0258789
		c6.0517578,0,12.1035156-1.5849609,18.1557617-4.7548828c6.0517578-3.1704102,11.0952148-7.637207,15.1293945-13.4008789
		h36.7436523V434.8125H165.2490234z"/>
	<path fill-rule="evenodd" clip-rule="evenodd" d="M479.8457031,290.4316406
		c0,23.0546875-2.7373047,45.1015625-8.2128906,66.1386719s-13.2568359,38.0400391-23.34375,51.0087891
		C432.1513672,429.1933594,408.8085938,440,378.2607422,440c-20.4609375,0-37.3198242-4.1796875-50.5761719-12.5361328
		c-13.2568359-8.3574219-24.2080078-21.4697266-32.8535156-39.3369141
		c-6.0517578-12.3925781-10.9511719-27.4501953-14.6972656-45.1738281
		c-3.7460938-17.7226563-5.6196289-35.2304688-5.6196289-52.5214844c0-23.9189453,2.8100586-46.109375,8.4291992-66.5703125
		c5.6201172-20.4609375,13.3291016-37.6079102,23.1269531-51.440918
		c8.6455078-10.9506836,18.9482422-19.0922852,30.9082031-24.4233398C348.9384766,142.6655273,363.2753906,140,379.9902344,140
		c18.4433594,0,34.1494141,4.1787109,47.1181641,12.5356445c12.9677734,8.3569336,24.0634766,21.4697266,33.2851563,39.3374023
		c6.0517578,12.9682617,10.8066406,28.0976563,14.2646484,45.3886719S479.8457031,272.2763672,479.8457031,290.4316406z
		 M434.0244141,290.4316406c0-16.4262695-1.4404297-31.6279297-4.3232422-45.6044922
		c-2.8808594-13.9775391-7.2041016-25.8652344-12.9677734-35.6630859
		c-4.6113281-7.4931641-9.8701172-12.96875-15.7783203-16.4267578s-13.1845703-5.4755859-21.8300781-6.0517578
		c-11.2392578-0.5761719-20.6049805,2.0175781-28.0976563,7.78125
		c-7.4931641,5.7636719-13.6889648,15.1293945-18.5878906,28.0976563
		c-3.7460938,8.6455078-6.5566406,19.0922852-8.4296875,31.3398438
		c-1.8730469,12.2480469-2.8095703,24.4238281-2.8095703,36.5273438c0,15.5625,1.440918,30.5478516,4.3232422,44.9570313
		c2.8813477,14.4091797,7.2041016,26.2246094,12.9677734,35.4472656
		c4.6108398,7.4921875,10.0864258,13.1113281,16.4267578,16.8583984c6.3398438,3.7460938,14.1210938,5.6201172,23.3427734,5.6201172
		c10.6630859,0,19.5244141-2.8828125,26.5849609-8.6464844s13.0400391-15.1289063,17.9394531-28.0976563
		c1.4414063-3.7460938,2.8818359-8.2851563,4.3232422-13.6171875c1.4404297-5.3310547,2.6650391-10.9511719,3.6738281-16.8583984
		s1.8017578-11.8876953,2.3779297-17.9394531S434.0244141,296.1953125,434.0244141,290.4316406z"/>
	<path fill-rule="evenodd" clip-rule="evenodd" d="M564.4335938,434.8125V200.0859375h-26.3691406v-36.7431641h3.0263672
		c6.0517578,0,12.1035156-1.5849609,18.1552734-4.7548828c6.0527344-3.1704102,11.0957031-7.637207,15.1298828-13.4008789
		h36.7431641V434.8125H564.4335938z"/>
</g>
</svg>
