<?xml version="1.0" encoding="UTF-8" standalone="no"?>
<!-- Created with Inkscape (http://www.inkscape.org/) -->

<svg
   xmlns:dc="http://purl.org/dc/elements/1.1/"
   xmlns:cc="http://creativecommons.org/ns#"
   xmlns:rdf="http://www.w3.org/1999/02/22-rdf-syntax-ns#"
   xmlns:svg="http://www.w3.org/2000/svg"
   xmlns="http://www.w3.org/2000/svg"
   version="1.1"
   width="750"
   height="600"
   viewBox="0 0 750 600"
   id="Layer_1"
   xml:space="preserve"
   style="overflow:visible"><metadata
     id="metadata24"><rdf:RDF><cc:Work
         rdf:about=""><dc:format>image/svg+xml</dc:format><dc:type
           rdf:resource="http://purl.org/dc/dcmitype/StillImage" /><dc:title></dc:title></cc:Work></rdf:RDF></metadata><defs
     id="defs22" /><g
     id="g3861"><g
       id="g5"><path
         d="M 0,50 C 0,22.385742 22.385254,0 50,0 h 650 c 27.61426,0 50,22.385742 50,50 v 500 c 0,27.61523 -22.38574,50 -50,50 H 50 C 22.385254,600 0,577.61523 0,550 V 50 l 0,0 z"
         id="path7" /><path
         d="M 375,300"
         id="path9" /></g><path
       d="M 375,10.001953 C 338.67236,32.46582 295.85059,45.430664 250,45.430664 204.14941,45.430664 161.32715,32.463867 125,10 L 10,125 c 21.163086,30.08057 33.587891,66.75244 33.587891,106.32764 0,28.56006 -6.471192,55.6084 -18.027832,79.7583 C 15.584961,331.95508 10,355.32617 10,380 10,468.36719 81.633301,540 170,540 H 270.11523 C 312.4585,540 350.24854,559.49414 375,589.99805 399.75098,559.49414 437.54102,540 479.88477,540 H 580 c 88.36719,0 160,-71.63281 160,-160 0,-24.67383 -5.58496,-48.04492 -15.56055,-68.91406 -11.55664,-24.1499 -18.02734,-51.19824 -18.02734,-79.7583 0,-39.5752 12.4248,-76.24707 33.58789,-106.32764 L 625,10 c -36.32715,22.463867 -79.14941,35.430664 -125,35.430664 -45.85059,0 -88.67285,-12.964844 -125,-35.428711 z"
       id="path11"
       style="fill:#ffffff;fill-opacity:1;fill-rule:evenodd" /></g><g
     id="text1331"
     style="font-size:447.76119995px;font-style:normal;font-variant:normal;font-weight:normal;font-stretch:normal;text-align:center;line-height:125%;writing-mode:lr-tb;text-anchor:middle;font-family:Roadgeek 2005 Series D;-inkscape-font-specification:Roadgeek 2005 Series D"><path
       d="m 98.115658,440 0,-243.13433 -27.313433,0 0,-38.0597 3.134329,0 c 6.268617,2.8e-4 12.537268,-1.64151 18.80597,-4.92538 C 99.011123,150.5973 104.235,145.97044 108.41417,140 l 38.0597,0 0,300 -48.358212,0"
       id="path3515" /><path
       d="m 415.78124,329.40298 c -2.3e-4,16.71652 -3.28381,32.08963 -9.85074,46.11941 -6.26888,14.0299 -15.22409,26.26869 -26.86567,36.71642 -11.64198,10.44777 -25.52256,18.65672 -41.6418,24.62686 -15.82103,5.67164 -33.2837,8.50746 -52.38806,8.50746 -13.13441,0 -26.11948,-1.49254 -38.95522,-4.47761 -12.53737,-2.98507 -24.02989,-7.16417 -34.47761,-12.53731 l 23.28358,-42.08955 c 6.2686,3.28363 14.47754,5.97019 24.62687,8.0597 10.14916,1.79109 20.74617,2.68661 31.79104,2.68656 10.74615,5e-5 20.74614,-1.64174 30,-4.92537 9.55209,-3.58204 17.76104,-8.35815 24.62687,-14.32836 7.164,-5.97008 12.68639,-12.985 16.56716,-21.04477 3.88041,-8.35812 5.82071,-17.46259 5.8209,-27.31344 -1.9e-4,-7.46256 -1.49273,-14.32823 -4.47762,-20.59701 -2.68674,-6.26852 -6.56733,-11.7909 -11.64179,-16.56717 -4.77628,-4.77596 -10.44792,-8.5073 -17.01492,-11.19403 -6.26881,-2.6864 -13.13447,-4.02968 -20.59702,-4.02985 -5.37326,1.7e-4 -10.14937,0.44793 -14.32836,1.34329 -3.88071,0.89568 -7.61205,2.53747 -11.19403,4.92537 -3.58219,2.38821 -7.16427,5.67179 -10.74626,9.85075 -3.58219,3.88074 -7.61203,8.95536 -12.08956,15.22388 L 218.76632,294.92537 226.37826,140 l 172.38806,0 0,47.46268 -126.26866,0 -3.13433,49.25374 c 11.04468,-3.28338 19.70139,-5.52218 25.97015,-6.71642 6.26854,-1.19382 13.1342,-1.79084 20.59702,-1.79105 13.73119,2.1e-4 26.567,2.68678 38.50746,8.0597 12.23862,5.37334 22.83563,12.68676 31.79104,21.9403 9.25352,9.25391 16.41769,20.00016 21.49254,32.23881 5.37291,12.23894 8.05947,25.224 8.0597,38.95522"
       id="path3517" /><path
       d="m 679.01588,344.1791 c -2.4e-4,13.73143 -2.83605,26.71649 -8.50746,38.95523 -5.37336,12.23885 -12.83604,22.98511 -22.38806,32.2388 -9.25393,9.25375 -20.00019,16.56718 -32.23881,21.9403 -12.23897,5.37313 -25.22403,8.0597 -38.95523,8.0597 -13.73146,0 -26.71652,-2.68657 -38.95522,-8.0597 -12.23889,-5.37312 -23.1344,-12.68655 -32.68657,-21.9403 -9.25378,-9.25369 -16.71646,-19.99995 -22.38806,-32.2388 -5.37316,-12.23874 -8.05973,-25.2238 -8.0597,-38.95523 -3e-5,-14.32825 2.98504,-27.16405 8.95523,-38.50746 5.9701,-11.64165 14.47755,-21.94014 25.52238,-30.89552 -14.62691,-15.52221 -21.94034,-33.73115 -21.9403,-54.62687 -4e-5,-11.64156 2.38802,-22.53707 7.16418,-32.68657 4.77607,-10.4475 11.19397,-19.55196 19.25374,-27.31343 8.35813,-8.05941 17.91036,-14.32806 28.65671,-18.80597 10.74616,-4.47731 22.23869,-6.71611 34.47761,-6.71642 11.94016,3.1e-4 23.43269,2.23911 34.47762,6.71642 11.0446,4.47791 20.59683,10.74656 28.65671,18.80597 8.35801,7.76147 14.92517,16.86593 19.7015,27.31343 5.0744,10.1495 7.61172,21.04501 7.61194,32.68657 -2.2e-4,10.44797 -2.08978,20.29871 -6.26866,29.55224 -3.88081,8.95541 -9.55244,17.31361 -17.01493,25.07463 11.64159,8.95538 20.29829,19.40313 25.97015,31.34328 5.96992,11.64191 8.95499,24.32847 8.95523,38.0597 m -60,-125.37313 c -1.8e-4,-9.85052 -4.17928,-18.20872 -12.53732,-25.07463 -8.05985,-7.16393 -17.91059,-10.74601 -29.55224,-10.74627 -11.64191,2.6e-4 -21.6419,3.58234 -30,10.74627 -8.05979,6.86591 -12.08964,15.22411 -12.08955,25.07463 -9e-5,8.95543 4.02976,16.71662 12.08955,23.28358 8.3581,6.26885 18.35809,9.40317 30,9.40298 11.64165,1.9e-4 21.49239,-3.13413 29.55224,-9.40298 8.35804,-6.56696 12.53714,-14.32815 12.53732,-23.28358 m 12.53731,126.26866 c -1.9e-4,-6.26856 -1.49272,-12.08945 -4.47761,-17.46269 -2.98525,-5.67152 -7.0151,-10.44764 -12.08955,-14.32836 -4.77629,-4.17897 -10.44792,-7.46255 -17.01493,-9.85075 -6.56731,-2.38792 -13.58223,-3.58195 -21.04478,-3.58209 -7.46281,1.4e-4 -14.47772,1.19417 -21.04477,3.58209 -6.26876,2.3882 -11.9404,5.67178 -17.01493,9.85075 -4.77621,3.88072 -8.6568,8.65684 -11.64179,14.32836 -2.68664,5.37324 -4.02993,11.19413 -4.02985,17.46269 -8e-5,7.16426 1.34321,13.88067 4.02985,20.14925 2.98499,6.26872 6.86558,11.79111 11.64179,16.56716 5.07453,4.77618 10.74617,8.50752 17.01493,11.19403 6.56705,2.68662 13.58196,4.0299 21.04477,4.02985 7.46255,5e-5 14.47747,-1.34323 21.04478,-4.02985 6.86551,-2.68651 12.6864,-6.41785 17.46269,-11.19403 5.07445,-4.77605 8.95504,-10.29844 11.64179,-16.56716 2.98489,-6.26858 4.47742,-12.98499 4.47761,-20.14925"
       id="path3519" /></g></svg>