<?xml version="1.0" encoding="utf-8"?>
<!-- Generator: Adobe Illustrator 12.0.0, SVG Export Plug-In . SVG Version: 6.00 Build 51448)  -->
<!DOCTYPE svg PUBLIC "-//W3C//DTD SVG 1.1//EN" "http://www.w3.org/Graphics/SVG/1.1/DTD/svg11.dtd" [
	<!ENTITY ns_svg "http://www.w3.org/2000/svg">
	<!ENTITY ns_xlink "http://www.w3.org/1999/xlink">
]>
<svg  version="1.1" id="Layer_1" xmlns="&ns_svg;" xmlns:xlink="&ns_xlink;" width="600" height="600" viewBox="0 0 600 600"
	 overflow="visible" enable-background="new 0 0 600 600" xml:space="preserve">
<g>
	<path d="M0,50C0,22.3857422,22.3852539,0,50,0h500c27.6142578,0,50,22.3857422,50,50v500c0,27.6152344-22.3857422,50-50,50H50
		c-27.6147461,0-50-22.3847656-50-50V50L0,50z"/>
	<path d="M300,300"/>
</g>
<g>
	<path fill-rule="evenodd" clip-rule="evenodd" fill="#FFFFFF" d="M300,10.0024414
		c23.5644531,20.0751953,54.1171875,32.1918945,87.5,32.1918945S451.4355469,30.0756836,475,10l115,115
		c-21.1621094,30.0805664-33.5878906,66.7539063-33.5878906,106.3266602c0,28.4633789,6.4267578,55.4248047,17.9101563,79.512207
		C584.2441406,331.6640625,590,355.3945313,590,380c0,88.3671875-71.6328125,160-160,160h-25.1132813
		C362.5419922,540,324.7509766,559.4960938,300,590c-24.7514648-30.5039063-62.5424805-50-104.8867188-50h-25.1137695
		c-88.3666992,0-160-71.6328125-160-160c0-24.6054688,5.7558594-48.3359375,15.6782227-69.1611328
		c11.4829102-24.0874023,17.9101563-51.0488281,17.9101563-79.512207C43.5878906,191.7539063,31.1616211,155.0805664,10,125L125,10
		c23.5644531,20.0756836,54.1166992,32.1943359,87.5,32.1943359C245.8828125,42.1943359,276.4355469,30.0776367,300,10.0024414z"/>
	
		<path fill-rule="evenodd" clip-rule="evenodd" fill="none" stroke="#000000" stroke-linecap="round" stroke-linejoin="round" stroke-miterlimit="3.863693" d="
		M300,10.0024414c23.5644531,20.0751953,54.1171875,32.1918945,87.5,32.1918945S451.4355469,30.0756836,475,10l115,115
		c-21.1621094,30.0805664-33.5878906,66.7539063-33.5878906,106.3266602c0,28.4633789,6.4267578,55.4248047,17.9101563,79.512207
		C584.2441406,331.6640625,590,355.3945313,590,380c0,88.3671875-71.6328125,160-160,160h-25.1132813
		C362.5419922,540,324.7509766,559.4960938,300,590c-24.7514648-30.5039063-62.5424805-50-104.8867188-50h-25.1137695
		c-88.3666992,0-160-71.6328125-160-160c0-24.6054688,5.7558594-48.3359375,15.6782227-69.1611328
		c11.4829102-24.0874023,17.9101563-51.0488281,17.9101563-79.512207C43.5878906,191.7539063,31.1616211,155.0805664,10,125L125,10
		c23.5644531,20.0756836,54.1166992,32.1943359,87.5,32.1943359C245.8828125,42.1943359,276.4355469,30.0776367,300,10.0024414z"/>
</g>
<g>
	<path fill-rule="evenodd" clip-rule="evenodd" d="M206.4067383,434.8056641h-46.7529297V199.7407227H133.246582v-36.3637695
		h3.0307617c13.5639648,0,24.675293-6.2050781,33.3330078-18.6147461h36.7963867V434.8056641z"/>
	<path fill-rule="evenodd" clip-rule="evenodd" d="M466.7529297,232.2080078
		c0,39.8271484-10.2451172,78.6435547-30.7353516,116.4501953C415.5263672,386.4648438,388.3984375,416.9121094,354.6318359,440
		l-22.5107422-38.9609375c31.1679688-24.53125,54.6894531-53.9677734,70.5625-88.3115234
		c-14.4296875,2.5976563-25.9746094,3.8955078-34.6318359,3.8955078c-27.1279297,0-50.3603516-8.6572266-69.6972656-25.9731445
		c-19.3359375-17.3164063-29.0043945-38.0952148-29.0043945-62.3378906c0-24.8198242,9.5239258-45.7431641,28.5717773-62.7705078
		c19.046875-17.0273438,42.4238281-25.5410156,70.1298828-25.5410156c27.9951172,0,51.4423828,8.8022461,70.3466797,26.4067383
		C457.3007813,184.0117188,466.7529297,205.9453125,466.7529297,232.2080078z M420.8652344,228.3120117
		c0-11.2553711-5.2666016-20.9956055-15.8007813-29.2207031c-10.5332031-8.2255859-22.8710938-12.3378906-37.0126953-12.3378906
		c-14.4306641,0-26.6962891,4.0405273-36.796875,12.121582c-10.1005859,8.0805664-15.1513672,17.8930664-15.1513672,29.4370117
		s5.0507813,21.3564453,15.1513672,29.4375c10.1005859,8.0805664,22.3662109,12.1210938,36.796875,12.1210938
		c14.7177734,0,27.2001953-4.0405273,37.4462891-12.1210938C415.7431641,249.668457,420.8652344,239.855957,420.8652344,228.3120117
		z"/>
</g>
</svg>
