<?xml version="1.0" encoding="UTF-8" standalone="no"?>
<!-- Created with Inkscape (http://www.inkscape.org/) -->

<svg
   xmlns:dc="http://purl.org/dc/elements/1.1/"
   xmlns:cc="http://creativecommons.org/ns#"
   xmlns:rdf="http://www.w3.org/1999/02/22-rdf-syntax-ns#"
   xmlns:svg="http://www.w3.org/2000/svg"
   xmlns="http://www.w3.org/2000/svg"
   version="1.1"
   width="750"
   height="600"
   viewBox="0 0 750 600"
   id="Layer_1"
   xml:space="preserve"
   style="overflow:visible"><metadata
     id="metadata24"><rdf:RDF><cc:Work
         rdf:about=""><dc:format>image/svg+xml</dc:format><dc:type
           rdf:resource="http://purl.org/dc/dcmitype/StillImage" /><dc:title></dc:title></cc:Work></rdf:RDF></metadata><defs
     id="defs22" /><g
     id="g3861"><g
       id="g5"><path
         d="M 0,50 C 0,22.385742 22.385254,0 50,0 h 650 c 27.61426,0 50,22.385742 50,50 v 500 c 0,27.61523 -22.38574,50 -50,50 H 50 C 22.385254,600 0,577.61523 0,550 V 50 l 0,0 z"
         id="path7" /><path
         d="M 375,300"
         id="path9" /></g><path
       d="M 375,10.001953 C 338.67236,32.46582 295.85059,45.430664 250,45.430664 204.14941,45.430664 161.32715,32.463867 125,10 L 10,125 c 21.163086,30.08057 33.587891,66.75244 33.587891,106.32764 0,28.56006 -6.471192,55.6084 -18.027832,79.7583 C 15.584961,331.95508 10,355.32617 10,380 10,468.36719 81.633301,540 170,540 H 270.11523 C 312.4585,540 350.24854,559.49414 375,589.99805 399.75098,559.49414 437.54102,540 479.88477,540 H 580 c 88.36719,0 160,-71.63281 160,-160 0,-24.67383 -5.58496,-48.04492 -15.56055,-68.91406 -11.55664,-24.1499 -18.02734,-51.19824 -18.02734,-79.7583 0,-39.5752 12.4248,-76.24707 33.58789,-106.32764 L 625,10 c -36.32715,22.463867 -79.14941,35.430664 -125,35.430664 -45.85059,0 -88.67285,-12.964844 -125,-35.428711 z"
       id="path11"
       style="fill:#ffffff;fill-opacity:1;fill-rule:evenodd" /></g><g
     id="text1331"
     style="font-size:447.76119995px;font-style:normal;font-variant:normal;font-weight:normal;font-stretch:normal;text-align:center;line-height:125%;writing-mode:lr-tb;text-anchor:middle;font-family:Roadgeek 2005 Series D;-inkscape-font-specification:Roadgeek 2005 Series D"><path
       d="m 106.86099,440 0,-243.13433 -27.313429,0 0,-38.0597 3.134329,0 c 6.268617,2.8e-4 12.537268,-1.64151 18.80597,-4.92538 6.2686,-3.28329 11.49247,-7.91015 15.67164,-13.88059 l 38.0597,0 0,300 -48.35821,0"
       id="path3697" /><path
       d="m 424.52658,353.58209 c -2.3e-4,12.83589 -2.6868,24.92543 -8.0597,36.26866 -5.07485,11.04481 -12.23902,20.74629 -21.49254,29.10447 -8.95542,8.05972 -19.70168,14.47762 -32.23881,19.25374 -12.53747,4.77611 -25.97029,7.16417 -40.2985,7.16417 -14.32848,0 -27.7613,-2.38806 -40.29851,-7.16417 -12.53739,-5.07462 -23.43291,-11.94029 -32.68657,-20.59702 -8.95527,-8.65669 -16.11945,-18.80593 -21.49254,-30.44776 -5.07466,-11.64173 -7.61197,-24.17903 -7.61194,-37.61194 -3e-5,-20.89541 2.68654,-41.64166 8.0597,-62.23881 5.6716,-20.59684 13.58204,-40.29831 23.73135,-59.10448 10.14918,-18.80574 22.23872,-36.11915 36.26866,-51.9403 14.32824,-16.11912 30.14912,-29.9997 47.46268,-41.64179 l 24.17911,40.29851 c -9.25389,7.16444 -17.46284,14.17936 -24.62687,21.04478 -6.86581,6.5674 -13.28371,13.43306 -19.25373,20.59701 -5.67176,7.1644 -10.89564,14.77633 -15.67164,22.83582 -4.77623,7.76139 -9.40309,16.4181 -13.8806,25.97015 8.65661,-1.49236 15.22377,-2.38788 19.70149,-2.68657 4.776,-0.29833 10.14913,-0.44758 16.11941,-0.44776 13.73119,1.8e-4 26.71626,2.38824 38.95522,7.16418 12.53713,4.77629 23.43264,11.34345 32.68657,19.7015 9.55202,8.05984 17.0147,17.76132 22.38806,29.10447 5.3729,11.04489 8.05947,22.83592 8.0597,35.37314 m -47.46269,-0.89552 c -1.8e-4,-5.67155 -1.49272,-11.19394 -4.47761,-16.56717 -2.68675,-5.37302 -6.56734,-9.99988 -11.64179,-13.8806 -4.77629,-3.88047 -10.59718,-7.0148 -17.46269,-9.40298 -6.56731,-2.38793 -13.58223,-3.58196 -21.04477,-3.58209 -7.46281,1.3e-4 -14.47773,1.19416 -21.04478,3.58209 -6.26876,2.38818 -11.9404,5.52251 -17.01493,9.40298 -4.7762,3.88072 -8.6568,8.50758 -11.64179,13.8806 -2.68664,5.37323 -4.02993,10.89562 -4.02985,16.56717 -8e-5,5.97023 1.34321,11.64186 4.02985,17.01492 2.98499,5.3732 6.86559,10.14932 11.64179,14.32836 5.07453,3.88065 10.74617,7.01497 17.01493,9.40299 6.56705,2.3881 13.58197,3.58213 21.04478,3.58208 7.46254,5e-5 14.47746,-1.19398 21.04477,-3.58208 6.56701,-2.38802 12.23864,-5.52234 17.01493,-9.40299 5.07445,-4.17904 9.1043,-8.95516 12.08955,-14.32836 2.98489,-5.37306 4.47743,-11.04469 4.47761,-17.01492"
       id="path3699" /><path
       d="m 678.35823,187.46268 c -2.68679,3.28383 -5.2241,6.26891 -7.61194,8.95523 -2.08977,2.68681 -4.17932,5.37337 -6.26866,8.0597 -1.79125,2.6868 -3.73155,5.52262 -5.82089,8.50746 -2.08976,2.9853 -4.32856,6.41813 -6.71642,10.29851 -13.43302,22.08975 -24.92555,45.37331 -34.47761,69.85075 -9.25389,24.47773 -16.41806,48.80607 -21.49254,72.98507 -0.89567,6.26873 -1.79119,12.38812 -2.68657,18.35821 -0.89566,5.67169 -1.64193,11.49258 -2.2388,17.46269 -0.29865,5.67167 -0.59716,11.64182 -0.89553,17.91045 -0.29864,5.97016 -0.44789,12.68657 -0.44776,20.14925 l -48.35821,0 c 0.29842,-17.31342 1.3432,-34.02982 3.13433,-50.14925 1.79095,-16.11934 4.32826,-31.94022 7.61194,-47.46269 3.58199,-15.52228 8.0596,-30.8954 13.43284,-46.11941 5.37301,-15.52222 11.79092,-31.19385 19.25373,-47.01492 5.07449,-11.34308 10.59687,-22.38785 16.56716,-33.13433 5.97,-10.74603 11.64163,-20.29826 17.01493,-28.65672 l -143.28359,0 0,-47.46268 203.28359,0 0,47.46268 0,0"
       id="path3701" /></g></svg>