<?xml version="1.0" encoding="utf-8"?>
<!-- Generator: Adobe Illustrator 12.0.0, SVG Export Plug-In . SVG Version: 6.00 Build 51448)  -->
<!DOCTYPE svg PUBLIC "-//W3C//DTD SVG 1.1//EN" "http://www.w3.org/Graphics/SVG/1.1/DTD/svg11.dtd" [
	<!ENTITY ns_svg "http://www.w3.org/2000/svg">
	<!ENTITY ns_xlink "http://www.w3.org/1999/xlink">
]>
<svg  version="1.1" id="Layer_1" xmlns="&ns_svg;" xmlns:xlink="&ns_xlink;" width="600" height="600" viewBox="0 0 600 600"
	 overflow="visible" enable-background="new 0 0 600 600" xml:space="preserve">
<g>
	<path d="M0,50C0,22.3857422,22.3852539,0,50,0h500c27.6142578,0,50,22.3857422,50,50v500c0,27.6152344-22.3857422,50-50,50H50
		c-27.6147461,0-50-22.3847656-50-50V50L0,50z"/>
	<path d="M300,300"/>
</g>
<g>
	<path fill-rule="evenodd" clip-rule="evenodd" fill="#FFFFFF" d="M300,10.0024414
		c23.5644531,20.0751953,54.1171875,32.1918945,87.5,32.1918945S451.4355469,30.0756836,475,10l115,115
		c-21.1621094,30.0805664-33.5878906,66.7539063-33.5878906,106.3266602c0,28.4633789,6.4267578,55.4248047,17.9101563,79.512207
		C584.2441406,331.6640625,590,355.3945313,590,380c0,88.3671875-71.6328125,160-160,160h-25.1132813
		C362.5419922,540,324.7509766,559.4960938,300,590c-24.7514648-30.5039063-62.5419922-50-104.8867188-50h-25.1137695
		c-88.3666992,0-160-71.6328125-160-160c0-24.6054688,5.7563477-48.3359375,15.6782227-69.1611328
		c11.4829102-24.0874023,17.9101563-51.0488281,17.9101563-79.512207C43.5878906,191.7539063,31.1611328,155.0805664,10,125L125,10
		c23.5644531,20.0756836,54.1166992,32.1943359,87.5,32.1943359C245.8828125,42.1943359,276.4355469,30.0776367,300,10.0024414z"/>
	
		<path fill-rule="evenodd" clip-rule="evenodd" fill="none" stroke="#000000" stroke-linecap="round" stroke-linejoin="round" stroke-miterlimit="3.863693" d="
		M300,10.0024414c23.5644531,20.0751953,54.1171875,32.1918945,87.5,32.1918945S451.4355469,30.0756836,475,10l115,115
		c-21.1621094,30.0805664-33.5878906,66.7539063-33.5878906,106.3266602c0,28.4633789,6.4267578,55.4248047,17.9101563,79.512207
		C584.2441406,331.6640625,590,355.3945313,590,380c0,88.3671875-71.6328125,160-160,160h-25.1132813
		C362.5419922,540,324.7509766,559.4960938,300,590c-24.7514648-30.5039063-62.5419922-50-104.8867188-50h-25.1137695
		c-88.3666992,0-160-71.6328125-160-160c0-24.6054688,5.7563477-48.3359375,15.6782227-69.1611328
		c11.4829102-24.0874023,17.9101563-51.0488281,17.9101563-79.512207C43.5878906,191.7539063,31.1611328,155.0805664,10,125L125,10
		c23.5644531,20.0756836,54.1166992,32.1943359,87.5,32.1943359C245.8828125,42.1943359,276.4355469,30.0776367,300,10.0024414z"/>
</g>
<g>
	<path fill-rule="evenodd" clip-rule="evenodd" d="M206.4072266,434.8056641h-46.753418V199.7407227H133.246582v-36.3637695
		h3.0307617c13.5639648,0,24.675293-6.2050781,33.3330078-18.6147461h36.796875V434.8056641z"/>
	<path fill-rule="evenodd" clip-rule="evenodd" d="M466.7529297,327.8789063
		c0,32.3242188-11.9052734,59.0917969-35.7138672,80.3027344C407.2285156,429.3945313,376.9980469,440,340.3457031,440
		c-25.6855469,0-49.3500977-5.4824219-70.9951172-16.4492188l22.0776367-40.6933594
		c13.5639648,6.9257813,31.8901367,10.3896484,54.9780273,10.3896484c21.0683594,0,38.7451172-6.2060547,53.03125-18.6142578
		c14.2851563-12.4101563,21.4277344-27.9951172,21.4277344-46.7539063c0-14.140625-5.0507813-26.1181641-15.1513672-35.9306641
		c-10.1005859-9.8120117-22.3662109-14.7182617-36.7958984-14.7182617c-10.1015625,0-18.2539063,2.0200195-24.4589844,6.0605469
		c-6.2050781,4.0400391-13.6367188,12.1210938-22.2949219,24.2426758l-45.887207-12.9873047l7.359375-149.7836914h166.6665039
		v45.8876953h-122.078125l-3.0302734,47.6186523c19.0478516-5.1948242,33.9111328-7.7919922,44.5888672-7.7919922
		c26.5507813,0,49.3515625,9.5957031,68.3984375,28.7875977S466.7529297,301.328125,466.7529297,327.8789063z"/>
</g>
</svg>
