<?xml version="1.0" encoding="utf-8"?>
<!-- Generator: Adobe Illustrator 12.0.0, SVG Export Plug-In . SVG Version: 6.00 Build 51448)  -->
<!DOCTYPE svg PUBLIC "-//W3C//DTD SVG 1.1//EN" "http://www.w3.org/Graphics/SVG/1.1/DTD/svg11.dtd" [
	<!ENTITY ns_svg "http://www.w3.org/2000/svg">
	<!ENTITY ns_xlink "http://www.w3.org/1999/xlink">
]>
<svg  version="1.1" id="Layer_1" xmlns="&ns_svg;" xmlns:xlink="&ns_xlink;" width="600" height="600" viewBox="0 0 600 600"
	 overflow="visible" enable-background="new 0 0 600 600" xml:space="preserve">
<g>
	<path d="M0,50C0,22.3857422,22.3852539,0,50,0h500c27.6142578,0,50,22.3857422,50,50v500c0,27.6152344-22.3857422,50-50,50H50
		c-27.6147461,0-50-22.3847656-50-50V50L0,50z"/>
	<path d="M300,300"/>
</g>
<g>
	<path fill-rule="evenodd" clip-rule="evenodd" fill="#FFFFFF" d="M300,10.0024414
		c23.5644531,20.0751953,54.1171875,32.1914063,87.5,32.1914063S451.4355469,30.0756836,475,10l115,115
		c-21.1621094,30.0805664-33.5878906,66.7539063-33.5878906,106.3266602c0,28.4633789,6.4267578,55.4248047,17.9101563,79.512207
		C584.2441406,331.6640625,590,355.3945313,590,380c0,88.3671875-71.6328125,160-160,160h-25.1132813
		C362.5419922,540,324.7509766,559.4960938,300,590c-24.7514648-30.5039063-62.5419922-50-104.8867188-50h-25.1137695
		c-88.3666992,0-160-71.6328125-160-160c0-24.6054688,5.7558594-48.3359375,15.6782227-69.1611328
		c11.4829102-24.0874023,17.9106445-51.0488281,17.9106445-79.512207C43.5883789,191.7539063,31.1616211,155.0805664,10,125L125,10
		c23.5644531,20.0756836,54.1166992,32.1938477,87.5,32.1938477C245.8828125,42.1938477,276.4355469,30.0776367,300,10.0024414z"/>
	
		<path fill-rule="evenodd" clip-rule="evenodd" fill="none" stroke="#000000" stroke-linecap="round" stroke-linejoin="round" stroke-miterlimit="3.863693" d="
		M300,10.0024414c23.5644531,20.0751953,54.1171875,32.1914063,87.5,32.1914063S451.4355469,30.0756836,475,10l115,115
		c-21.1621094,30.0805664-33.5878906,66.7539063-33.5878906,106.3266602c0,28.4633789,6.4267578,55.4248047,17.9101563,79.512207
		C584.2441406,331.6640625,590,355.3945313,590,380c0,88.3671875-71.6328125,160-160,160h-25.1132813
		C362.5419922,540,324.7509766,559.4960938,300,590c-24.7514648-30.5039063-62.5419922-50-104.8867188-50h-25.1137695
		c-88.3666992,0-160-71.6328125-160-160c0-24.6054688,5.7558594-48.3359375,15.6782227-69.1611328
		c11.4829102-24.0874023,17.9106445-51.0488281,17.9106445-79.512207C43.5883789,191.7539063,31.1616211,155.0805664,10,125L125,10
		c23.5644531,20.0756836,54.1166992,32.1938477,87.5,32.1938477C245.8828125,42.1938477,276.4355469,30.0776367,300,10.0024414z"/>
</g>
<g>
	<path fill-rule="evenodd" clip-rule="evenodd" d="M271.6899414,434.8056641H74.2875977
		c0.8657227-32.3232422,8.9462891-61.7607422,24.2421875-88.3115234
		c11.8325195-20.7792969,28.8598633-39.5390625,51.0820313-56.2773438c3.1748047-2.0200195,7.5039063-5.050293,12.9873047-9.0908203
		l15.1513672-8.2250977l28.5712891-16.0175781c12.9873047-7.503418,19.4804688-18.0371094,19.4804688-31.6015625
		c0-10.6782227-5.2666016-19.769043-15.8007813-27.2729492c-10.5336914-7.503418-22.871582-11.2553711-37.0126953-11.2553711
		c-30.0146484,0-47.6191406,13.5644531-52.8139648,40.6923828l-45.887207-10.3891602
		c4.9057617-23.9541016,16.2333984-42.7851563,33.9824219-56.4936523s39.3217773-20.5625,64.71875-20.5625
		c27.4169922,0,50.7211914,8.3691406,69.9130859,25.1079102s28.7880859,37.0854492,28.7880859,61.0390625
		c0,24.2426758-9.8125,45.0209961-29.4375,62.3374023c-3.7509766,3.1748047-7.9360352,5.7719727-12.5537109,7.7924805
		l-14.2856445,9.5234375l-15.1518555,7.7929688l-14.2856445,8.2246094
		c-24.8193359,14.4296875-43.7231445,36.5078125-56.7099609,66.234375h142.4243164V434.8056641z"/>
	<path fill-rule="evenodd" clip-rule="evenodd" d="M525.7128906,351.2558594
		c0,25.1074219-9.4521484,46.1757813-28.3554688,63.203125S455.0058594,440,427.0117188,440
		s-51.4433594-8.9462891-70.3476563-26.8398438c-18.9023438-17.8925781-28.3535156-39.8261719-28.3535156-65.8007813
		c0-40.1152344,10.2441406-79.1484375,30.7353516-117.0991211c20.4902344-37.9516602,47.4746094-68.0375977,80.9521484-90.2597656
		L463.375,178.5283203c-31.1689453,24.2426758-54.8339844,53.3911133-70.9960938,87.4462891
		c10.6777344-2.0209961,22.2226563-3.0307617,34.6328125-3.0307617c26.8398438,0,50,8.6582031,69.4804688,25.9741211
		C515.9726563,306.234375,525.7128906,327.0136719,525.7128906,351.2558594z M479.8251953,350.390625
		c0-11.2558594-5.1943359-20.9960938-15.5849609-29.2226563c-10.3886719-8.2246094-22.7988281-12.3359375-37.2285156-12.3359375
		c-14.1425781,0-26.3359375,4.1113281-36.5800781,12.3359375C380.1855469,329.3945313,375.0625,339.1347656,375.0625,350.390625
		c0,11.8320313,5.0507813,21.9335938,15.1523438,30.3027344c10.1005859,8.3691406,22.3662109,12.5537109,36.796875,12.5537109
		c14.140625,0,26.4785156-4.2568359,37.0117188-12.7705078C474.5585938,371.9628906,479.8251953,361.9335938,479.8251953,350.390625
		z"/>
</g>
</svg>
