<?xml version="1.0" encoding="utf-8"?>
<!-- Generator: Adobe Illustrator 12.0.0, SVG Export Plug-In . SVG Version: 6.00 Build 51448)  -->
<!DOCTYPE svg PUBLIC "-//W3C//DTD SVG 1.1//EN" "http://www.w3.org/Graphics/SVG/1.1/DTD/svg11.dtd" [
	<!ENTITY ns_svg "http://www.w3.org/2000/svg">
	<!ENTITY ns_xlink "http://www.w3.org/1999/xlink">
]>
<svg  version="1.1" id="Layer_1" xmlns="&ns_svg;" xmlns:xlink="&ns_xlink;" width="750" height="600" viewBox="0 0 750 600"
	 overflow="visible" enable-background="new 0 0 750 600" xml:space="preserve">
<g>
	<g>
		<path d="M0,50C0,22.3857422,22.3852539,0,50,0h650c27.6142578,0,50,22.3857422,50,50v500c0,27.6152344-22.3857422,50-50,50H50
			c-27.6147461,0-50-22.3847656-50-50V50L0,50z"/>
		<path d="M375,300"/>
	</g>
	<path fill-rule="evenodd" clip-rule="evenodd" fill="#FFFFFF" d="M375,10.0019531
		c-36.3276367,22.4638672-79.1494141,35.4287109-125,35.4287109S161.3271484,32.4638672,125,10L10,125
		c21.1630859,30.0805664,33.5878906,66.7524414,33.5878906,106.3276367c0,28.5600586-6.4711914,55.6083984-18.0283203,79.7583008
		C15.5849609,331.9550781,10,355.3261719,10,380c0,88.3671875,71.6328125,160,160,160h100.1152344
		C312.4584961,540,350.2485352,559.4941406,375,589.9980469C399.7509766,559.4941406,437.5410156,540,479.8847656,540H580
		c88.3671875,0,160-71.6328125,160-160c0-24.6738281-5.5849609-48.0449219-15.5605469-68.9140625
		c-11.5566406-24.1499023-18.0273438-51.1982422-18.0273438-79.7583008C706.4121094,191.7524414,718.8369141,155.0805664,740,125
		L625,10c-36.3271484,22.4638672-79.1494141,35.4306641-125,35.4306641S411.3271484,32.4658203,375,10.0019531z"/>
</g>
<g>
	<path fill-rule="evenodd" clip-rule="evenodd" d="M258.9882813,434.8056641H97.0839844
		c1.7314453-32.3232422,6.4931641-58.7304688,14.2851563-79.2207031
		c11.2558594-30.0146484,26.8398438-54.1132813,46.753418-72.2944336
		c6.3491211-5.7719727,18.6147461-15.0078125,36.7963867-27.7055664
		c9.5244141-6.6381836,15.9453125-12.265625,19.2646484-16.8833008c3.3183594-4.6176758,4.9780273-10.3896484,4.9780273-17.315918
		c0-11.2553711-3.9682617-20.8515625-11.9047852-28.7880859s-17.5322266-11.9047852-28.7880859-11.9047852
		c-11.2548828,0-20.8510742,3.9677734-28.7875977,11.9047852c-7.9365234,7.9365234-11.9047852,17.5327148-11.9047852,28.7880859
		H97.0839844c0.5771484-23.0883789,8.5854492-42.4243164,24.0253906-58.0087891
		c15.4404297-15.5844727,34.5600586-23.3764648,57.359375-23.3764648c22.2226563,0,41.1982422,7.9365234,56.9267578,23.8095703
		s23.5927734,35.0649414,23.5927734,57.5756836s-8.2246094,41.4140625-24.6748047,56.7099609
		c-4.0405273,2.8857422-7.0712891,5.3388672-9.0913086,7.359375l-20.3461914,13.8525391l-11.2553711,8.2255859
		c-20.7792969,15.0068359-36.0751953,36.3632813-45.887207,64.0683594c-2.309082,7.2148438-4.3291016,14.71875-6.0610352,22.5117188
		h117.315918V434.8056641z"/>
	<path fill-rule="evenodd" clip-rule="evenodd" d="M455.9521484,349.5234375
		c0,29.7265625-9.2353516,53.390625-27.7050781,70.9960938C414.9707031,433.5068359,397.3662109,440,375.4326172,440
		c-27.9941406,0-49.0620117-10.2451172-63.203125-30.7363281c-12.1210938-17.6035156-18.1816406-37.5175781-18.1816406-59.7402344
		c0-30.0136719,9.0908203-54.1118164,27.2724609-72.293457c-15.5844727-16.7387695-23.3764648-36.796875-23.3764648-60.1733398
		c0-22.5107422,7.2148438-40.9814453,21.6450195-55.4111328c14.4296875-14.4301758,33.0444336-21.6450195,55.84375-21.6450195
		c22.2226563,0,40.4765625,7.2148438,54.7626953,21.6450195c14.2851563,14.4296875,21.4277344,32.9003906,21.4277344,55.4111328
		c0,24.5307617-7.7919922,44.5888672-23.3759766,60.1733398
		C446.7167969,294.5458984,455.9521484,318.6445313,455.9521484,349.5234375z M410.9306641,217.0566406
		c0-10.6782227-3.390625-19.4082031-10.1728516-26.190918c-6.7822266-6.7817383-15.2236328-10.1728516-25.3251953-10.1728516
		c-10.6777344,0-19.4804688,3.3911133-26.4067383,10.1728516c-6.9262695,6.7827148-10.3896484,15.5126953-10.3896484,26.190918
		c0,11.5439453,3.4633789,20.8515625,10.3896484,27.921875c6.9262695,7.0708008,15.7290039,10.6064453,26.4067383,10.6064453
		c10.3896484,0,18.9033203-3.5356445,25.5410156-10.6064453
		C407.6113281,237.9082031,410.9306641,228.6005859,410.9306641,217.0566406z M416.125,349.5234375
		c0-15.8730469-3.7509766-28.4980469-11.2548828-37.8779297s-17.3164063-14.0693359-29.4375-14.0693359
		s-21.9335938,4.6894531-29.4370117,14.0693359s-11.2553711,22.0048828-11.2553711,37.8779297
		c0,14.71875,3.7519531,26.6962891,11.2553711,35.9316406c7.503418,9.234375,17.315918,13.8525391,29.4370117,13.8525391
		s21.9335938-4.6181641,29.4375-13.8525391C412.3740234,376.2197266,416.125,364.2421875,416.125,349.5234375z"/>
	<path fill-rule="evenodd" clip-rule="evenodd" d="M652.9160156,333.0742188c0,30.5917969-8.6582031,56.0605469-25.9736328,76.40625
		C609.6259766,429.8261719,587.9814453,440,562.0068359,440c-25.1083984,0-48.7734375-8.5136719-70.9951172-25.5410156
		l27.2724609-29.4375c13.2753906,9.5244141,26.5507813,14.2861328,39.8271484,14.2861328
		c15.8730469,0,28.859375-6.4208984,38.9609375-19.2646484c10.1005859-12.8417969,15.1513672-29.2207031,15.1513672-49.1337891
		c0-15.5839844-3.6074219-27.921875-10.8222656-37.0126953c-7.2158203-9.0908203-16.8837891-13.6362305-29.0048828-13.6362305
		c-12.4101563,0-23.953125,4.7617188-34.6318359,14.2856445L497.9375,289.3510742l7.359375-144.5888672h136.3642578v40.6928711
		h-97.8359375l-3.0302734,61.0385742c11.5439453-4.0400391,22.3662109-6.0605469,32.4677734-6.0605469
		c23.3759766,0,42.4960938,8.5859375,57.359375,25.7578125C645.484375,283.3623047,652.9160156,305.65625,652.9160156,333.0742188z"
		/>
</g>
</svg>
