<?xml version="1.0" encoding="UTF-8" standalone="no"?>
<!-- Created with Inkscape (http://www.inkscape.org/) -->

<svg
   xmlns:dc="http://purl.org/dc/elements/1.1/"
   xmlns:cc="http://creativecommons.org/ns#"
   xmlns:rdf="http://www.w3.org/1999/02/22-rdf-syntax-ns#"
   xmlns:svg="http://www.w3.org/2000/svg"
   xmlns="http://www.w3.org/2000/svg"
   version="1.1"
   width="750"
   height="600"
   viewBox="0 0 750 600"
   id="Layer_1"
   xml:space="preserve"
   style="overflow:visible"><metadata
     id="metadata24"><rdf:RDF><cc:Work
         rdf:about=""><dc:format>image/svg+xml</dc:format><dc:type
           rdf:resource="http://purl.org/dc/dcmitype/StillImage" /><dc:title></dc:title></cc:Work></rdf:RDF></metadata><defs
     id="defs22" /><g
     id="g3861"><g
       id="g5"><path
         d="M 0,50 C 0,22.385742 22.385254,0 50,0 h 650 c 27.61426,0 50,22.385742 50,50 v 500 c 0,27.61523 -22.38574,50 -50,50 H 50 C 22.385254,600 0,577.61523 0,550 V 50 l 0,0 z"
         id="path7" /><path
         d="M 375,300"
         id="path9" /></g><path
       d="M 375,10.001953 C 338.67236,32.46582 295.85059,45.430664 250,45.430664 204.14941,45.430664 161.32715,32.463867 125,10 L 10,125 c 21.163086,30.08057 33.587891,66.75244 33.587891,106.32764 0,28.56006 -6.471192,55.6084 -18.027832,79.7583 C 15.584961,331.95508 10,355.32617 10,380 10,468.36719 81.633301,540 170,540 H 270.11523 C 312.4585,540 350.24854,559.49414 375,589.99805 399.75098,559.49414 437.54102,540 479.88477,540 H 580 c 88.36719,0 160,-71.63281 160,-160 0,-24.67383 -5.58496,-48.04492 -15.56055,-68.91406 -11.55664,-24.1499 -18.02734,-51.19824 -18.02734,-79.7583 0,-39.5752 12.4248,-76.24707 33.58789,-106.32764 L 625,10 c -36.32715,22.463867 -79.14941,35.430664 -125,35.430664 -45.85059,0 -88.67285,-12.964844 -125,-35.428711 z"
       id="path11"
       style="fill:#ffffff;fill-opacity:1;fill-rule:evenodd" /></g><g
     transform="translate(-6,0)"
     id="text1331"
     style="font-size:447.76119995px;font-style:normal;font-variant:normal;font-weight:normal;font-stretch:normal;text-align:center;line-height:125%;writing-mode:lr-tb;text-anchor:middle;font-family:Roadgeek 2005 Series D;-inkscape-font-specification:Roadgeek 2005 Series D"><path
       d="m 77.426451,440 c 0.596985,-17.61192 2.835789,-33.73131 6.716418,-48.35821 3.880557,-14.6268 9.999954,-29.1044 18.358211,-43.43284 6.26859,-11.34318 14.02978,-21.79093 23.28358,-31.34328 9.25365,-9.85061 19.10438,-18.65657 29.55224,-26.41791 2.68646,-1.49239 5.07451,-2.98492 7.16418,-4.47761 2.08943,-1.79089 4.17899,-3.43268 6.26866,-4.92538 l 16.1194,-8.50746 14.77612,-8.50746 14.32836,-8.0597 c 5.96997,-3.88041 10.74609,-8.65653 14.32836,-14.32836 3.88041,-5.96995 5.82071,-12.08934 5.82089,-18.35821 -1.8e-4,-5.67142 -1.49272,-10.8953 -4.47761,-15.67164 -2.98525,-5.07439 -7.0151,-9.40275 -12.08955,-12.98508 -4.77629,-3.58184 -10.44792,-6.41766 -17.01493,-8.50746 -6.56731,-2.0893 -13.58223,-3.13407 -21.04478,-3.13433 -15.22399,2.6e-4 -27.61204,3.58234 -37.16417,10.74627 -9.25382,7.16442 -15.07471,17.61217 -17.46269,31.34328 l -47.462689,-10.2985 c 5.074593,-25.07438 16.716372,-44.6266 34.925369,-58.65672 18.20888,-14.32806 40.59692,-21.49223 67.16418,-21.49254 14.32822,3.1e-4 27.61179,2.38836 39.85075,7.16418 12.53713,4.77641 23.28339,11.19432 32.23881,19.25373 9.25352,8.05997 16.56694,17.6122 21.9403,28.65672 5.3729,10.74651 8.05946,22.23903 8.0597,34.47761 -2.4e-4,11.642 -2.6868,23.13452 -8.0597,34.47761 -5.07485,11.04495 -12.53753,20.89569 -22.38806,29.55224 -2.38826,1.7912 -4.62707,3.43299 -6.71642,4.92538 -1.79124,1.49268 -3.73154,2.68671 -5.8209,3.58209 l -14.77612,9.40298 -16.1194,8.50746 -14.77612,8.50747 c -7.16432,4.17921 -13.58222,8.65682 -19.25373,13.43283 -5.37326,4.47771 -10.44788,9.40308 -15.22388,14.77612 -4.47772,5.37322 -8.80607,11.34336 -12.98508,17.91045 -3.88069,6.56723 -7.61203,14.02991 -11.19403,22.38806 l 147.31344,0 0,48.35821 -204.179109,0"
       id="path3608" /><path
       d="m 539.24512,344.1791 c -2.4e-4,13.73143 -2.83606,26.71649 -8.50747,38.95523 -5.37335,12.23885 -12.83603,22.98511 -22.38806,32.2388 -9.25392,9.25375 -20.00018,16.56718 -32.2388,21.9403 -12.23897,5.37313 -25.22403,8.0597 -38.95523,8.0597 -13.73146,0 -26.71652,-2.68657 -38.95522,-8.0597 -12.23889,-5.37312 -23.1344,-12.68655 -32.68657,-21.9403 -9.25378,-9.25369 -16.71646,-19.99995 -22.38806,-32.2388 -5.37317,-12.23874 -8.05973,-25.2238 -8.0597,-38.95523 -3e-5,-14.32825 2.98504,-27.16405 8.95522,-38.50746 5.97011,-11.64165 14.47756,-21.94014 25.52239,-30.89552 -14.62691,-15.52221 -21.94034,-33.73115 -21.9403,-54.62687 -4e-5,-11.64156 2.38802,-22.53707 7.16418,-32.68657 4.77607,-10.4475 11.19397,-19.55196 19.25373,-27.31343 8.35813,-8.05941 17.91036,-14.32806 28.65672,-18.80597 10.74616,-4.47731 22.23869,-6.71611 34.47761,-6.71642 11.94016,3.1e-4 23.43268,2.23911 34.47761,6.71642 11.0446,4.47791 20.59683,10.74656 28.65672,18.80597 8.35801,7.76147 14.92516,16.86593 19.70149,27.31343 5.07441,10.1495 7.61172,21.04501 7.61194,32.68657 -2.2e-4,10.44797 -2.08977,20.29871 -6.26865,29.55224 -3.88081,8.95541 -9.55245,17.31361 -17.01493,25.07463 11.64158,8.95538 20.29829,19.40313 25.97015,31.34328 5.96992,11.64191 8.95499,24.32847 8.95523,38.0597 M 479.24511,218.80597 c -1.7e-4,-9.85052 -4.17927,-18.20872 -12.53731,-25.07463 -8.05985,-7.16393 -17.91059,-10.74601 -29.55224,-10.74627 -11.64191,2.6e-4 -21.6419,3.58234 -30,10.74627 -8.05979,6.86591 -12.08964,15.22411 -12.08955,25.07463 -9e-5,8.95543 4.02976,16.71662 12.08955,23.28358 8.3581,6.26885 18.35809,9.40317 30,9.40298 11.64165,1.9e-4 21.49239,-3.13413 29.55224,-9.40298 8.35804,-6.56696 12.53714,-14.32815 12.53731,-23.28358 m 12.53732,126.26866 c -1.9e-4,-6.26856 -1.49272,-12.08945 -4.47761,-17.46269 -2.98526,-5.67152 -7.0151,-10.44764 -12.08956,-14.32836 -4.77628,-4.17897 -10.44792,-7.46255 -17.01492,-9.85075 -6.56731,-2.38792 -13.58223,-3.58195 -21.04478,-3.58209 -7.46281,1.4e-4 -14.47773,1.19417 -21.04477,3.58209 -6.26877,2.3882 -11.9404,5.67178 -17.01493,9.85075 -4.77621,3.88072 -8.6568,8.65684 -11.64179,14.32836 -2.68665,5.37324 -4.02993,11.19413 -4.02985,17.46269 -8e-5,7.16426 1.3432,13.88067 4.02985,20.14925 2.98499,6.26872 6.86558,11.79111 11.64179,16.56716 5.07453,4.77618 10.74616,8.50752 17.01493,11.19403 6.56704,2.68662 13.58196,4.0299 21.04477,4.02985 7.46255,5e-5 14.47747,-1.34323 21.04478,-4.02985 6.86551,-2.68651 12.6864,-6.41785 17.46268,-11.19403 5.07446,-4.77605 8.95505,-10.29844 11.6418,-16.56716 2.98489,-6.26858 4.47742,-12.98499 4.47761,-20.14925"
       id="path3610" /><path
       d="m 624.21529,440 0,-243.13433 -27.31344,0 0,-38.0597 3.13433,0 c 6.26862,2.8e-4 12.53727,-1.64151 18.80597,-4.92538 6.2686,-3.28329 11.49248,-7.91015 15.67164,-13.88059 l 38.05971,0 0,300 -48.35821,0"
       id="path3612" /></g></svg>