<?xml version="1.0" encoding="utf-8"?>
<!-- Generator: Adobe Illustrator 12.0.0, SVG Export Plug-In . SVG Version: 6.00 Build 51448)  -->
<!DOCTYPE svg PUBLIC "-//W3C//DTD SVG 1.1//EN" "http://www.w3.org/Graphics/SVG/1.1/DTD/svg11.dtd" [
	<!ENTITY ns_svg "http://www.w3.org/2000/svg">
	<!ENTITY ns_xlink "http://www.w3.org/1999/xlink">
]>
<svg  version="1.1" id="Layer_1" xmlns="&ns_svg;" xmlns:xlink="&ns_xlink;" width="750" height="600" viewBox="0 0 750 600"
	 overflow="visible" enable-background="new 0 0 750 600" xml:space="preserve">
<g>
	<g>
		<path d="M0,50C0,22.3857422,22.3852539,0,50,0h650c27.6142578,0,50,22.3857422,50,50v500c0,27.6152344-22.3857422,50-50,50H50
			c-27.6147461,0-50-22.3847656-50-50V50L0,50z"/>
		<path d="M375,300"/>
	</g>
	<path fill-rule="evenodd" clip-rule="evenodd" fill="#FFFFFF" d="M375,10.0019531
		c-36.3276367,22.4638672-79.1494141,35.4287109-125,35.4287109S161.3271484,32.4638672,125,10L10,125
		c21.1630859,30.0810547,33.5878906,66.7524414,33.5878906,106.3271484c0,28.5605469-6.4716797,55.6088867-18.0283203,79.7587891
		C15.5849609,331.9560547,10,355.3261719,10,380c0,88.3671875,71.6328125,160,160,160h100.1152344
		c42.34375,0,80.1333008,19.4941406,104.8847656,49.9980469C399.7509766,559.4941406,437.5410156,540,479.8847656,540H580
		c88.3671875,0,160-71.6328125,160-160c0-24.6738281-5.5849609-48.0439453-15.5605469-68.9140625
		c-11.5566406-24.1499023-18.0273438-51.1982422-18.0273438-79.7587891C706.4121094,191.7524414,718.8369141,155.0810547,740,125
		L625,10c-36.3271484,22.4638672-79.1494141,35.4306641-125,35.4306641S411.3271484,32.4658203,375,10.0019531z"/>
</g>
<g>
	<path fill-rule="evenodd" clip-rule="evenodd" d="M291.9277344,434.8056641H130.0224609
		c1.7319336-32.3232422,6.4941406-58.7304688,14.2861328-79.2207031
		c11.2548828-30.0146484,26.8398438-54.1132813,46.7529297-72.2949219
		c6.3496094-5.7714844,18.6152344-15.0068359,36.796875-27.7050781c9.5234375-6.6381836,15.9453125-12.265625,19.2636719-16.8837891
		c3.3193359-4.6171875,4.9785156-10.3896484,4.9785156-17.3154297c0-11.2558594-3.9682617-20.8515625-11.9042969-28.7880859
		c-7.9365234-7.9365234-17.5332031-11.9047852-28.7880859-11.9047852c-11.2558594,0-20.8515625,3.9682617-28.7880859,11.9047852
		s-11.9047852,17.5322266-11.9047852,28.7880859h-40.6928711c0.5776367-23.0883789,8.5859375-42.4248047,24.0263672-58.0087891
		C169.4887695,147.7924805,188.6083984,140,211.4082031,140c22.2216797,0,41.1972656,7.9365234,56.9262695,23.8095703
		s23.5932617,35.0654297,23.5932617,57.5761719s-8.2255859,41.4140625-24.6757813,56.7099609
		c-4.0400391,2.8857422-7.0703125,5.3388672-9.0908203,7.359375l-20.3457031,13.8525391l-11.2558594,8.2255859
		c-20.7792969,15.0068359-36.0751953,36.3632813-45.8876953,64.0683594
		c-2.3085938,7.2148438-4.3291016,14.71875-6.0605469,22.5117188h117.3164063V434.8056641z"/>
	<path fill-rule="evenodd" clip-rule="evenodd" d="M506.2070313,289.3505859
		c0,41.5585938-5.4824219,75.1806641-16.4501953,100.8662109C475.6152344,423.40625,452.8164063,440,421.359375,440
		c-32.0351563,0-54.9785156-16.59375-68.831543-49.7832031c-10.9667969-25.9746094-16.4501953-59.5957031-16.4501953-100.8662109
		c0-42.7128906,5.4833984-76.3349609,16.4501953-100.8657227C366.9580078,156.1621094,389.9013672,140,421.359375,140
		c17.0273438,0,30.8798828,3.8242188,41.5576172,11.4716797c10.6787109,7.6484375,19.625,20.4189453,26.8398438,38.3120117
		C500.7246094,216.0463867,506.2070313,249.2353516,506.2070313,289.3505859z M466.3808594,289.3505859
		c0-26.5507813-3.0302734-50.6489258-9.0917969-72.2939453c-6.9257813-24.2426758-18.9023438-36.3637695-35.9296875-36.3637695
		s-29.1494141,11.8325195-36.3642578,35.4975586c-6.0605469,19.9130859-9.0908203,44.5888672-9.0908203,74.0263672
		c0,26.8398438,3.0302734,51.3710938,9.0908203,73.5927734c6.6376953,23.6650391,18.7587891,35.4980469,36.3642578,35.4980469
		c17.0273438,0,29.4365234-13.5644531,37.2285156-40.6923828
		C463.7832031,340.1445313,466.3808594,317.0566406,466.3808594,289.3505859z"/>
	<path fill-rule="evenodd" clip-rule="evenodd" d="M619.9765625,434.8056641h-41.9902344V196.7099609h-18.1816406v-31.6015625
		c15.2949219-0.8657227,26.1171875-7.6474609,32.4667969-20.3461914h27.7050781V434.8056641z"/>
</g>
</svg>
