<?xml version="1.0" encoding="utf-8"?>
<!-- Generator: Adobe Illustrator 12.0.0, SVG Export Plug-In . SVG Version: 6.00 Build 51448)  -->
<!DOCTYPE svg PUBLIC "-//W3C//DTD SVG 1.1//EN" "http://www.w3.org/Graphics/SVG/1.1/DTD/svg11.dtd" [
	<!ENTITY ns_svg "http://www.w3.org/2000/svg">
	<!ENTITY ns_xlink "http://www.w3.org/1999/xlink">
]>
<svg  version="1.1" id="Layer_1" xmlns="&ns_svg;" xmlns:xlink="&ns_xlink;" width="750" height="600" viewBox="0 0 750 600"
	 overflow="visible" enable-background="new 0 0 750 600" xml:space="preserve">
<g>
	<g>
		<path d="M0,50C0,22.3857422,22.3852539,0,50,0h650c27.6142578,0,50,22.3857422,50,50v500c0,27.6152344-22.3857422,50-50,50H50
			c-27.6147461,0-50-22.3847656-50-50V50L0,50z"/>
		<path d="M375,300"/>
	</g>
	<path fill-rule="evenodd" clip-rule="evenodd" fill="#FFFFFF" d="M375,10.0019531
		c-36.3276367,22.4638672-79.1494141,35.4287109-125,35.4287109S161.3271484,32.4638672,125,10L10,125
		c21.1630859,30.0805664,33.5878906,66.7524414,33.5878906,106.3276367c0,28.5600586-6.4711914,55.6083984-18.0283203,79.7583008
		C15.5849609,331.9550781,10,355.3261719,10,380c0,88.3671875,71.6328125,160,160,160h100.1152344
		C312.4584961,540,350.2485352,559.4941406,375,589.9980469C399.7509766,559.4941406,437.5410156,540,479.8847656,540H580
		c88.3671875,0,160-71.6328125,160-160c0-24.6738281-5.5849609-48.0449219-15.5605469-68.9140625
		c-11.5566406-24.1499023-18.0273438-51.1982422-18.0273438-79.7583008C706.4121094,191.7524414,718.8369141,155.0805664,740,125
		L625,10c-36.3271484,22.4638672-79.1494141,35.4306641-125,35.4306641S411.3271484,32.4658203,375,10.0019531z"/>
</g>
<g>
	<path fill-rule="evenodd" clip-rule="evenodd" d="M262.8847656,434.8056641H100.9794922
		c1.7319336-32.3232422,6.4936523-58.7304688,14.2861328-79.2207031
		c11.2553711-30.0146484,26.8398438-54.1132813,46.7529297-72.2944336
		c6.3496094-5.7719727,18.6147461-15.0078125,36.796875-27.7055664c9.5234375-6.6381836,15.9453125-12.265625,19.2636719-16.8833008
		c3.3193359-4.6176758,4.9785156-10.3896484,4.9785156-17.315918c0-11.2553711-3.9682617-20.8515625-11.9042969-28.7880859
		c-7.9370117-7.9365234-17.5327148-11.9047852-28.7880859-11.9047852c-11.2558594,0-20.8515625,3.9677734-28.7880859,11.9047852
		c-7.9365234,7.9365234-11.9047852,17.5327148-11.9047852,28.7880859h-40.6928711
		c0.5776367-23.0883789,8.5859375-42.4243164,24.0263672-58.0087891
		c15.4399414-15.5844727,34.5595703-23.3764648,57.359375-23.3764648c22.222168,0,41.1972656,7.9365234,56.9262695,23.8095703
		c15.7285156,15.8730469,23.5932617,35.0649414,23.5932617,57.5756836s-8.2255859,41.4140625-24.6757813,56.7099609
		c-4.0400391,2.8857422-7.0703125,5.3388672-9.0908203,7.359375l-20.3461914,13.8525391l-11.2553711,8.2255859
		c-20.7792969,15.0068359-36.0751953,36.3632813-45.8876953,64.0683594
		c-2.3085938,7.2148438-4.3286133,14.71875-6.0605469,22.5117188h117.3164063V434.8056641z"/>
	<path fill-rule="evenodd" clip-rule="evenodd" d="M459.8486328,349.5234375
		c0,29.7265625-9.2353516,53.390625-27.7060547,70.9960938C418.8671875,433.5068359,401.2626953,440,379.3291016,440
		c-27.9941406,0-49.0620117-10.2451172-63.2036133-30.7363281c-12.1210938-17.6035156-18.1821289-37.5175781-18.1821289-59.7402344
		c0-30.0136719,9.0913086-54.1118164,27.2729492-72.293457c-15.5844727-16.7387695-23.3764648-36.796875-23.3764648-60.1733398
		c0-22.5107422,7.2148438-40.9814453,21.6450195-55.4111328c14.4301758-14.4301758,33.0444336-21.6450195,55.8442383-21.6450195
		c22.2216797,0,40.4755859,7.2148438,54.7617188,21.6450195c14.2861328,14.4296875,21.4287109,32.9003906,21.4287109,55.4111328
		c0,24.5307617-7.7929688,44.5888672-23.3769531,60.1733398
		C450.6132813,294.5458984,459.8486328,318.6445313,459.8486328,349.5234375z M414.8261719,217.0566406
		c0-10.6782227-3.390625-19.4082031-10.171875-26.190918c-6.7832031-6.7817383-15.2246094-10.1728516-25.3251953-10.1728516
		c-10.6782227,0-19.4804688,3.3911133-26.4072266,10.1728516c-6.9262695,6.7827148-10.3896484,15.5126953-10.3896484,26.190918
		c0,11.5439453,3.4633789,20.8515625,10.3896484,27.921875c6.9267578,7.0708008,15.7290039,10.6064453,26.4072266,10.6064453
		c10.3896484,0,18.9033203-3.5356445,25.5410156-10.6064453
		C411.5078125,237.9082031,414.8261719,228.6005859,414.8261719,217.0566406z M420.0214844,349.5234375
		c0-15.8730469-3.7519531-28.4980469-11.2558594-37.8779297c-7.5029297-9.3798828-17.3154297-14.0693359-29.4365234-14.0693359
		s-21.9335938,4.6894531-29.4375,14.0693359c-7.503418,9.3798828-11.2553711,22.0048828-11.2553711,37.8779297
		c0,14.71875,3.7519531,26.6962891,11.2553711,35.9316406c7.5039063,9.234375,17.3164063,13.8525391,29.4375,13.8525391
		s21.9335938-4.6181641,29.4365234-13.8525391C416.2695313,376.2197266,420.0214844,364.2421875,420.0214844,349.5234375z"/>
	<path fill-rule="evenodd" clip-rule="evenodd" d="M649.0195313,185.4550781
		c-25.6845703,30.0141602-46.4638672,67.6767578-62.3369141,112.9868164
		c-13.5644531,39.5385742-21.3564453,84.9926758-23.3769531,136.3637695h-40.6923828v-6.0605469
		c0-33.1894531,5.7714844-71.8623047,17.3164063-116.0175781c11.2548828-43.0019531,30.0136719-85.4257813,56.2763672-127.2724609
		H487.1152344V144.762207h161.9042969V185.4550781z"/>
</g>
</svg>
