<?xml version="1.0" encoding="utf-8"?>
<!-- Generator: Adobe Illustrator 12.0.0, SVG Export Plug-In . SVG Version: 6.00 Build 51448)  -->
<!DOCTYPE svg PUBLIC "-//W3C//DTD SVG 1.1//EN" "http://www.w3.org/Graphics/SVG/1.1/DTD/svg11.dtd" [
	<!ENTITY ns_svg "http://www.w3.org/2000/svg">
	<!ENTITY ns_xlink "http://www.w3.org/1999/xlink">
]>
<svg  version="1.1" id="Layer_1" xmlns="&ns_svg;" xmlns:xlink="&ns_xlink;" width="600" height="600" viewBox="0 0 600 600"
	 overflow="visible" enable-background="new 0 0 600 600" xml:space="preserve">
<g>
	<path d="M0,50C0,22.3857422,22.3852539,0,50,0h500c27.6142578,0,50,22.3857422,50,50v500c0,27.6152344-22.3857422,50-50,50H50
		c-27.6147461,0-50-22.3847656-50-50V50L0,50z"/>
	<path d="M300,300"/>
</g>
<g>
	<path fill-rule="evenodd" clip-rule="evenodd" fill="#FFFFFF" d="M300,10.0024414
		c23.5644531,20.0751953,54.1171875,32.1914063,87.5,32.1914063S451.4355469,30.0756836,475,10l115,115
		c-21.1621094,30.0805664-33.5878906,66.7539063-33.5878906,106.3266602c0,28.4633789,6.4267578,55.4248047,17.9101563,79.512207
		C584.2441406,331.6640625,590,355.3945313,590,380c0,88.3671875-71.6328125,160-160,160h-25.1132813
		C362.5419922,540,324.7509766,559.4960938,300,590c-24.7514648-30.5039063-62.5424805-50-104.8867188-50h-25.1137695
		c-88.3666992,0-160-71.6328125-160-160c0-24.6054688,5.7558594-48.3359375,15.6782227-69.1611328
		c11.4829102-24.0874023,17.9106445-51.0488281,17.9106445-79.512207C43.5883789,191.7539063,31.1616211,155.0805664,10,125L125,10
		c23.5644531,20.0756836,54.1166992,32.1938477,87.5,32.1938477C245.8828125,42.1938477,276.4355469,30.0776367,300,10.0024414z"/>
	
		<path fill-rule="evenodd" clip-rule="evenodd" fill="none" stroke="#000000" stroke-linecap="round" stroke-linejoin="round" stroke-miterlimit="3.863693" d="
		M300,10.0024414c23.5644531,20.0751953,54.1171875,32.1914063,87.5,32.1914063S451.4355469,30.0756836,475,10l115,115
		c-21.1621094,30.0805664-33.5878906,66.7539063-33.5878906,106.3266602c0,28.4633789,6.4267578,55.4248047,17.9101563,79.512207
		C584.2441406,331.6640625,590,355.3945313,590,380c0,88.3671875-71.6328125,160-160,160h-25.1132813
		C362.5419922,540,324.7509766,559.4960938,300,590c-24.7514648-30.5039063-62.5424805-50-104.8867188-50h-25.1137695
		c-88.3666992,0-160-71.6328125-160-160c0-24.6054688,5.7558594-48.3359375,15.6782227-69.1611328
		c11.4829102-24.0874023,17.9106445-51.0488281,17.9106445-79.512207C43.5883789,191.7539063,31.1616211,155.0805664,10,125L125,10
		c23.5644531,20.0756836,54.1166992,32.1938477,87.5,32.1938477C245.8828125,42.1938477,276.4355469,30.0776367,300,10.0024414z"/>
</g>
<g>
	<path fill-rule="evenodd" clip-rule="evenodd" d="M276.2353516,434.8056641H78.8325195
		c0.8662109-32.3232422,8.9467773-61.7607422,24.2426758-88.3115234
		c11.8325195-20.7792969,28.8598633-39.5390625,51.0820313-56.2773438c3.1748047-2.0200195,7.5039063-5.050293,12.9873047-9.0908203
		l15.1513672-8.2250977l28.5712891-16.0175781c12.9873047-7.503418,19.480957-18.0371094,19.480957-31.6015625
		c0-10.6782227-5.2670898-19.769043-15.8012695-27.2729492c-10.5336914-7.503418-22.871582-11.2553711-37.0126953-11.2553711
		c-30.0146484,0-47.6191406,13.5644531-52.8139648,40.6923828l-45.8876953-10.3891602
		c4.90625-23.9541016,16.2338867-42.7851563,33.9829102-56.4936523s39.3217773-20.5625,64.71875-20.5625
		c27.4169922,0,50.7211914,8.3691406,69.9130859,25.1079102s28.7880859,37.0854492,28.7880859,61.0390625
		c0,24.2426758-9.8125,45.0209961-29.4370117,62.3374023c-3.7519531,3.1748047-7.9365234,5.7719727-12.5541992,7.7924805
		l-14.2856445,9.5234375l-15.1518555,7.7929688l-14.2856445,8.2246094
		c-24.8193359,14.4296875-43.7226563,36.5078125-56.7099609,66.234375h142.4243164V434.8056641z"/>
	<path fill-rule="evenodd" clip-rule="evenodd" d="M521.1669922,190.6499023
		c-5.4833984,6.3491211-13.9970703,17.8930664-25.5410156,34.6318359
		c-27.4169922,45.8867188-45.4541016,92.0629883-54.1123047,138.5288086
		c-4.0410156,21.6445313-6.0605469,45.3095703-6.0605469,70.9951172h-46.7539063
		c0.8662109-64.9345703,14.71875-126.2626953,41.5585938-183.9829102
		c9.5234375-20.4912109,20.4902344-40.5483398,32.9003906-60.1728516H324.6308594V144.762207h196.5361328V190.6499023z"/>
</g>
</svg>
