<?xml version="1.0" encoding="UTF-8" standalone="no"?>
<!-- Created with Inkscape (http://www.inkscape.org/) -->

<svg
   xmlns:dc="http://purl.org/dc/elements/1.1/"
   xmlns:cc="http://creativecommons.org/ns#"
   xmlns:rdf="http://www.w3.org/1999/02/22-rdf-syntax-ns#"
   xmlns:svg="http://www.w3.org/2000/svg"
   xmlns="http://www.w3.org/2000/svg"
   version="1.1"
   width="750"
   height="600"
   viewBox="0 0 750 600"
   id="Layer_1"
   xml:space="preserve"
   style="overflow:visible"><metadata
     id="metadata24"><rdf:RDF><cc:Work
         rdf:about=""><dc:format>image/svg+xml</dc:format><dc:type
           rdf:resource="http://purl.org/dc/dcmitype/StillImage" /><dc:title></dc:title></cc:Work></rdf:RDF></metadata><defs
     id="defs22" /><g
     id="g3861"><g
       id="g5"><path
         d="M 0,50 C 0,22.385742 22.385254,0 50,0 h 650 c 27.61426,0 50,22.385742 50,50 v 500 c 0,27.61523 -22.38574,50 -50,50 H 50 C 22.385254,600 0,577.61523 0,550 V 50 l 0,0 z"
         id="path7" /><path
         d="M 375,300"
         id="path9" /></g><path
       d="M 375,10.001953 C 338.67236,32.46582 295.85059,45.430664 250,45.430664 204.14941,45.430664 161.32715,32.463867 125,10 L 10,125 c 21.163086,30.08057 33.587891,66.75244 33.587891,106.32764 0,28.56006 -6.471192,55.6084 -18.027832,79.7583 C 15.584961,331.95508 10,355.32617 10,380 10,468.36719 81.633301,540 170,540 H 270.11523 C 312.4585,540 350.24854,559.49414 375,589.99805 399.75098,559.49414 437.54102,540 479.88477,540 H 580 c 88.36719,0 160,-71.63281 160,-160 0,-24.67383 -5.58496,-48.04492 -15.56055,-68.91406 -11.55664,-24.1499 -18.02734,-51.19824 -18.02734,-79.7583 0,-39.5752 12.4248,-76.24707 33.58789,-106.32764 L 625,10 c -36.32715,22.463867 -79.14941,35.430664 -125,35.430664 -45.85059,0 -88.67285,-12.964844 -125,-35.428711 z"
       id="path11"
       style="fill:#ffffff;fill-opacity:1;fill-rule:evenodd" /></g><g
     id="text1331"
     style="font-size:447.76119995px;font-style:normal;font-variant:normal;font-weight:normal;font-stretch:normal;text-align:center;line-height:125%;writing-mode:lr-tb;text-anchor:middle;font-family:Roadgeek 2005 Series D;-inkscape-font-specification:Roadgeek 2005 Series D"><path
       d="m 62.553145,437.5 c 0.596985,-17.61192 2.835789,-33.73131 6.716418,-48.35821 3.880557,-14.6268 9.999954,-29.1044 18.35821,-43.43284 6.268595,-11.34318 14.029777,-21.79093 23.283577,-31.34328 9.25365,-9.85061 19.10439,-18.65657 29.55224,-26.41791 2.68646,-1.49239 5.07452,-2.98492 7.16418,-4.47761 2.08944,-1.79089 4.17899,-3.43268 6.26866,-4.92538 l 16.1194,-8.50746 14.77612,-8.50746 14.32836,-8.0597 c 5.96998,-3.88041 10.74609,-8.65653 14.32836,-14.32836 3.88041,-5.96995 5.82071,-12.08934 5.8209,-18.35821 -1.9e-4,-5.67142 -1.49273,-10.8953 -4.47762,-15.67164 -2.98525,-5.07439 -7.0151,-9.40275 -12.08955,-12.98508 -4.77628,-3.58184 -10.44792,-6.41766 -17.01492,-8.50746 -6.56732,-2.0893 -13.58223,-3.13407 -21.04478,-3.13433 -15.224,2.6e-4 -27.61205,3.58234 -37.16418,10.74627 -9.25382,7.16442 -15.07471,17.61217 -17.46269,31.34328 l -47.462685,-10.2985 c 5.074593,-25.07438 16.716372,-44.6266 34.925374,-58.65672 18.208871,-14.32806 40.596911,-21.49223 67.164181,-21.49254 14.32821,3.1e-4 27.61178,2.38836 39.85075,7.16418 12.53713,4.77641 23.28338,11.19432 32.2388,19.25373 9.25352,8.05997 16.56695,17.6122 21.9403,28.65672 5.3729,10.74651 8.05947,22.23903 8.0597,34.47761 -2.3e-4,11.642 -2.6868,23.13452 -8.0597,34.47761 -5.07485,11.04495 -12.53753,20.89569 -22.38806,29.55224 -2.38826,1.7912 -4.62706,3.43299 -6.71642,4.92538 -1.79124,1.49268 -3.73153,2.68671 -5.82089,3.58209 l -14.77612,9.40298 -16.11941,8.50746 -14.77612,8.50747 c -7.16431,4.17921 -13.58222,8.65682 -19.25373,13.43283 -5.37325,4.47771 -10.44787,9.40308 -15.22388,14.77612 -4.47772,5.37322 -8.80607,11.34336 -12.98507,17.91045 -3.88069,6.56723 -7.61203,14.02991 -11.19403,22.38806 l 147.31343,0 0,48.35821 -204.179105,0"
       id="path3120" /><path
       d="m 523.69821,338.54477 c -2.2e-4,15.22397 -2.53753,29.25381 -7.61194,42.08956 -5.07484,12.83586 -12.23901,23.88063 -21.49253,33.13433 -8.95542,8.95524 -19.85093,16.11941 -32.68657,21.49253 -12.53747,5.07463 -26.41805,7.61194 -41.64179,7.61194 -12.23892,0 -23.73145,-1.9403 -34.47761,-5.82089 -10.44785,-3.88059 -20.14933,-9.25372 -29.10448,-16.1194 -8.65677,-6.86565 -16.11945,-15.22385 -22.38806,-25.07463 -6.26869,-9.8507 -10.89555,-20.89546 -13.8806,-33.13433 l 46.56716,-13.43284 c 3.58202,14.62694 10.14918,25.82096 19.7015,33.58209 9.55214,7.76124 21.49242,11.64184 35.82089,11.64179 8.05957,5e-5 15.373,-1.34323 21.9403,-4.02985 6.56701,-2.68651 12.08939,-6.2686 16.56717,-10.74626 4.77595,-4.77606 8.50729,-10.29844 11.19403,-16.56717 2.68639,-6.56708 4.02967,-13.73125 4.02985,-21.49254 -1.8e-4,-7.76109 -1.49272,-15.07451 -4.47761,-21.9403 -2.98525,-6.86554 -7.16435,-12.23867 -12.53732,-16.1194 -1.7912,-1.19389 -3.43299,-2.08942 -4.92537,-2.68657 -1.19419,-0.89538 -2.83598,-1.4924 -4.92537,-1.79104 -1.7912,-0.29837 -4.32851,-0.59688 -7.61194,-0.89552 -2.98522,-0.29837 -7.31358,-0.59688 -12.98508,-0.89553 l -5.37313,0 0,-48.35821 0,1.34329 1.34328,0 0.89552,0 9.40299,0 c 9.55209,1.9e-4 16.86551,-2.53713 21.9403,-7.61194 5.07446,-5.07443 7.61177,-12.38785 7.61194,-21.9403 -1.7e-4,-11.64156 -4.17927,-21.19379 -12.53732,-28.65672 -8.05985,-7.76094 -18.20909,-11.64153 -30.44776,-11.64179 -20.0001,2.6e-4 -35.07472,9.85099 -45.22388,29.55224 l -44.32836,-16.56716 c 7.76115,-19.10422 19.40293,-34.02958 34.92537,-44.77612 15.82081,-11.04448 33.58199,-16.56686 53.28359,-16.56717 12.53717,3.1e-4 24.32821,2.38836 35.37313,7.16418 11.34312,4.77641 21.19385,11.34357 29.55224,19.70149 8.35801,8.35848 14.92517,18.20922 19.70149,29.55224 4.77591,11.04502 7.16397,22.83605 7.16418,35.37314 -2.1e-4,8.95543 -1.19424,17.01512 -3.58209,24.1791 -2.38827,7.16436 -6.86587,15.52256 -13.43283,25.07463 5.67144,5.07479 10.2983,10.00015 13.8806,14.77612 3.58187,4.47776 6.41769,9.25387 8.50746,14.32836 2.38783,5.07475 4.02962,10.59714 4.92537,16.56716 0.8953,5.67176 1.34306,12.23891 1.34328,19.70149"
       id="path3122" /><path
       d="m 611.08862,437.5 0,-243.13433 -27.31343,0 0,-38.0597 3.13433,0 c 6.26862,2.8e-4 12.53727,-1.64151 18.80597,-4.92538 6.2686,-3.28329 11.49247,-7.91015 15.67164,-13.88059 l 38.0597,0 0,300 -48.35821,0"
       id="path3124" /></g></svg>