<?xml version="1.0" encoding="utf-8"?>
<!-- Generator: Adobe Illustrator 12.0.0, SVG Export Plug-In . SVG Version: 6.00 Build 51448)  -->
<!DOCTYPE svg PUBLIC "-//W3C//DTD SVG 1.1//EN" "http://www.w3.org/Graphics/SVG/1.1/DTD/svg11.dtd" [
	<!ENTITY ns_svg "http://www.w3.org/2000/svg">
	<!ENTITY ns_xlink "http://www.w3.org/1999/xlink">
]>
<svg  version="1.1" id="Layer_1" xmlns="&ns_svg;" xmlns:xlink="&ns_xlink;" width="750" height="600" viewBox="0 0 750 600"
	 overflow="visible" enable-background="new 0 0 750 600" xml:space="preserve">
<g>
	<g>
		<path d="M0,50C0,22.3857422,22.3852539,0,50,0h650c27.6142578,0,50,22.3857422,50,50v500c0,27.6152344-22.3857422,50-50,50H50
			c-27.6147461,0-50-22.3847656-50-50V50L0,50z"/>
		<path d="M375,300"/>
	</g>
	<path fill-rule="evenodd" clip-rule="evenodd" fill="#FFFFFF" d="M375,10.0019531
		c-36.3276367,22.4638672-79.1494141,35.4287109-125,35.4287109S161.3271484,32.4638672,125,10L10,125
		c21.1630859,30.0805664,33.5878906,66.7524414,33.5878906,106.3276367c0,28.5600586-6.4716797,55.6083984-18.0283203,79.7583008
		C15.5849609,331.9550781,10,355.3261719,10,380c0,88.3671875,71.6328125,160,160,160h100.1152344
		c42.34375,0,80.1333008,19.4941406,104.8847656,49.9980469C399.7509766,559.4941406,437.5410156,540,479.8847656,540H580
		c88.3671875,0,160-71.6328125,160-160c0-24.6738281-5.5849609-48.0449219-15.5605469-68.9140625
		c-11.5566406-24.1499023-18.0273438-51.1982422-18.0273438-79.7583008C706.4121094,191.7524414,718.8369141,155.0805664,740,125
		L625,10c-36.3271484,22.4638672-79.1494141,35.4306641-125,35.4306641S411.3271484,32.4658203,375,10.0019531z"/>
</g>
<g>
	<path fill-rule="evenodd" clip-rule="evenodd" d="M250.3300781,434.8056641H88.4257813
		c1.7314453-32.3232422,6.4931641-58.7304688,14.2856445-79.2207031
		c11.2553711-30.0146484,26.8398438-54.1132813,46.753418-72.2944336
		c6.3486328-5.7719727,18.6142578-15.0078125,36.7963867-27.7055664
		c9.5239258-6.6381836,15.9448242-12.265625,19.2641602-16.8833008c3.3188477-4.6176758,4.9780273-10.3896484,4.9780273-17.315918
		c0-11.2553711-3.9682617-20.8515625-11.9047852-28.7880859s-17.5322266-11.9047852-28.7875977-11.9047852
		s-20.8515625,3.9677734-28.7880859,11.9047852c-7.9365234,7.9365234-11.9047852,17.5327148-11.9047852,28.7880859H88.4257813
		c0.5771484-23.0883789,8.5859375-42.4243164,24.0258789-58.0087891s34.5600586-23.3764648,57.359375-23.3764648
		c22.222168,0,41.1977539,7.9365234,56.9262695,23.8095703s23.5927734,35.0649414,23.5927734,57.5756836
		s-8.2246094,41.4140625-24.6748047,56.7099609c-4.0405273,2.8857422-7.0708008,5.3388672-9.0908203,7.359375
		l-20.3466797,13.8525391l-11.2553711,8.2255859c-20.7788086,15.0068359-36.074707,36.3632813-45.887207,64.0683594
		c-2.3085938,7.2148438-4.3291016,14.71875-6.0605469,22.5117188h117.3154297V434.8056641z"/>
	<path fill-rule="evenodd" clip-rule="evenodd" d="M447.2949219,243.4633789
		c0,35.7866211-8.7304688,70.418457-26.1914063,103.8959961c-17.4599609,33.4785156-42.0634766,62.6269531-73.809082,87.4462891
		l-23.3764648-32.4677734c12.1210938-9.234375,24.0976563-21.6445313,35.9306641-37.2294922
		c11.8320313-15.5849609,20.2021484-30.3027344,25.1083984-44.1552734
		c-4.6181641,0.5761719-10.6787109,0.8652344-18.1821289,0.8652344c-24.8198242,0-44.5888672-8.2246094-59.3071289-24.6757813
		c-14.71875-16.449707-22.078125-38.671875-22.078125-66.6660156c0-27.7055664,7.359375-49.7119141,22.078125-66.0180664
		c14.7182617-16.3051758,34.4873047-24.4580078,59.3071289-24.4580078
		C420.4541016,140.0004883,447.2949219,174.4882813,447.2949219,243.4633789z M407.4677734,234.3725586
		c0-16.1616211-3.7519531-29.1484375-11.2558594-38.9609375c-7.5029297-9.8129883-17.3154297-14.71875-29.4370117-14.71875
		c-12.6987305,0-22.6552734,4.4736328-29.8701172,13.4199219c-7.215332,8.9467773-10.8227539,21.0678711-10.8227539,36.3637695
		c0,15.5844727,3.6074219,27.921875,10.8227539,37.0126953c7.2148438,9.0913086,17.1713867,13.6367188,29.8701172,13.6367188
		c12.121582,0,21.934082-4.2568359,29.4370117-12.7705078C403.7158203,259.8417969,407.4677734,248.5141602,407.4677734,234.3725586
		z"/>
	<path fill-rule="evenodd" clip-rule="evenodd" d="M661.5742188,289.3510742
		c0,41.5581055-5.4833984,75.1801758-16.4501953,100.8657227C630.9824219,423.40625,608.1835938,440,576.7255859,440
		c-32.0341797,0-54.9785156-16.59375-68.8310547-49.7832031c-10.9667969-25.9746094-16.4501953-59.5957031-16.4501953-100.8657227
		c0-42.7133789,5.4833984-76.3354492,16.4501953-100.8662109c14.4296875-32.3227539,37.3740234-48.484375,68.8310547-48.484375
		c17.0273438,0,30.8808594,3.8237305,41.5585938,11.4711914c10.6787109,7.6484375,19.625,20.4189453,26.8398438,38.3120117
		C656.0908203,216.0463867,661.5742188,249.2358398,661.5742188,289.3510742z M621.7470703,289.3510742
		c0-26.5512695-3.0302734-50.6494141-9.0908203-72.2944336c-6.9257813-24.2431641-18.9033203-36.3637695-35.9306641-36.3637695
		s-29.1484375,11.8325195-36.3632813,35.4980469c-6.0605469,19.9125977-9.0908203,44.5888672-9.0908203,74.0258789
		c0,26.8398438,3.0302734,51.3710938,9.0908203,73.59375C547,387.4746094,559.1210938,399.3076172,576.7255859,399.3076172
		c17.0273438,0,29.4375-13.5634766,37.2294922-40.6923828C619.1503906,340.1445313,621.7470703,317.0566406,621.7470703,289.3510742
		z"/>
</g>
</svg>
