<?xml version="1.0" encoding="utf-8"?>
<!-- Generator: Adobe Illustrator 12.0.0, SVG Export Plug-In . SVG Version: 6.00 Build 51448)  -->
<!DOCTYPE svg PUBLIC "-//W3C//DTD SVG 1.1//EN" "http://www.w3.org/Graphics/SVG/1.1/DTD/svg11.dtd" [
	<!ENTITY ns_svg "http://www.w3.org/2000/svg">
	<!ENTITY ns_xlink "http://www.w3.org/1999/xlink">
]>
<svg  version="1.1" id="Layer_1" xmlns="&ns_svg;" xmlns:xlink="&ns_xlink;" width="600" height="600" viewBox="0 0 600 600"
	 overflow="visible" enable-background="new 0 0 600 600" xml:space="preserve">
<g>
	<path d="M0,50C0,22.3857422,22.3852539,0,50,0h500c27.6142578,0,50,22.3857422,50,50v500c0,27.6152344-22.3857422,50-50,50H50
		c-27.6147461,0-50-22.3847656-50-50V50L0,50z"/>
	<path d="M300,300"/>
</g>
<g>
	<path fill-rule="evenodd" clip-rule="evenodd" fill="#FFFFFF" d="M300,10.0024414
		c23.5644531,20.0751953,54.1171875,32.1914063,87.5,32.1914063S451.4355469,30.0756836,475,10l115,115
		c-21.1621094,30.0805664-33.5878906,66.7539063-33.5878906,106.3266602c0,28.4633789,6.4267578,55.4248047,17.9101563,79.512207
		C584.2441406,331.6640625,590,355.3945313,590,380c0,88.3671875-71.6328125,160-160,160h-25.1132813
		C362.5419922,540,324.7509766,559.4960938,300,590c-24.7514648-30.5039063-62.5419922-50-104.8867188-50h-25.1137695
		c-88.3666992,0-160-71.6328125-160-160c0-24.6054688,5.7563477-48.3359375,15.6782227-69.1611328
		c11.4829102-24.0874023,17.9101563-51.0488281,17.9101563-79.512207C43.5878906,191.7539063,31.1616211,155.0805664,10,125L125,10
		c23.5644531,20.0756836,54.1171875,32.1938477,87.5,32.1938477S276.4355469,30.0776367,300,10.0024414z"/>
	
		<path fill-rule="evenodd" clip-rule="evenodd" fill="none" stroke="#000000" stroke-linecap="round" stroke-linejoin="round" stroke-miterlimit="3.863693" d="
		M300,10.0024414c23.5644531,20.0751953,54.1171875,32.1914063,87.5,32.1914063S451.4355469,30.0756836,475,10l115,115
		c-21.1621094,30.0805664-33.5878906,66.7539063-33.5878906,106.3266602c0,28.4633789,6.4267578,55.4248047,17.9101563,79.512207
		C584.2441406,331.6640625,590,355.3945313,590,380c0,88.3671875-71.6328125,160-160,160h-25.1132813
		C362.5419922,540,324.7509766,559.4960938,300,590c-24.7514648-30.5039063-62.5419922-50-104.8867188-50h-25.1137695
		c-88.3666992,0-160-71.6328125-160-160c0-24.6054688,5.7563477-48.3359375,15.6782227-69.1611328
		c11.4829102-24.0874023,17.9101563-51.0488281,17.9101563-79.512207C43.5878906,191.7539063,31.1616211,155.0805664,10,125L125,10
		c23.5644531,20.0756836,54.1171875,32.1938477,87.5,32.1938477S276.4355469,30.0776367,300,10.0024414z"/>
</g>
<g>
	<path fill-rule="evenodd" clip-rule="evenodd" d="M274.5039063,434.8056641H77.1015625
		c0.8652344-32.3232422,8.9462891-61.7607422,24.2421875-88.3115234
		c11.8325195-20.7792969,28.8603516-39.5390625,51.0820313-56.2773438c3.1748047-2.0200195,7.5039063-5.050293,12.9873047-9.0908203
		l15.1513672-8.2250977l28.5712891-16.0175781c12.9873047-7.503418,19.4804688-18.0371094,19.4804688-31.6015625
		c0-10.6782227-5.2666016-19.769043-15.8007813-27.2729492c-10.5336914-7.503418-22.8710938-11.2553711-37.0126953-11.2553711
		c-30.0146484,0-47.6191406,13.5644531-52.8139648,40.6923828l-45.887207-10.3891602
		c4.9057617-23.9541016,16.2333984-42.7851563,33.9824219-56.4936523s39.3217773-20.5625,64.71875-20.5625
		c27.4169922,0,50.7211914,8.3691406,69.9130859,25.1079102s28.7880859,37.0854492,28.7880859,61.0390625
		c0,24.2426758-9.8125,45.0209961-29.4375,62.3374023c-3.7514648,3.1748047-7.9365234,5.7719727-12.5537109,7.7924805
		l-14.2861328,9.5234375l-15.1513672,7.7929688l-14.2856445,8.2246094
		c-24.8198242,14.4296875-43.7231445,36.5078125-56.7099609,66.234375h142.4243164V434.8056641z"/>
	<path fill-rule="evenodd" clip-rule="evenodd" d="M522.8984375,339.1347656
		c0,29.7255859-9.3066406,53.9677734-27.921875,72.7265625C476.3613281,430.6210938,452.3359375,440,422.8984375,440
		c-23.3769531,0-43.7949219-7.0703125-61.2548828-21.2128906c-17.4599609-14.140625-29.2216797-32.8994141-35.2822266-56.2763672
		l44.5888672-12.9873047c7.5039063,29.1494141,25.5419922,43.7236328,54.1132813,43.7236328
		c15.2958984,0,27.7773438-4.8339844,37.4453125-14.5029297c9.6689453-9.6679688,14.5029297-21.8613281,14.5029297-36.5800781
		c0-16.7382813-5.484375-28.859375-16.4511719-36.3632813c-4.6171875-3.4628906-14.4296875-5.6269531-29.4365234-6.4931641
		c0,0-1.7314453,0-5.1943359,0v-45.4550781h11.2548828c19.0478516,0,28.5712891-9.5229492,28.5712891-28.5708008
		c0-11.2553711-4.0410156-20.4907227-12.1210938-27.7055664c-8.0810547-7.215332-17.8935547-10.8227539-29.4375-10.8227539
		c-19.3359375,0-33.9101563,9.3798828-43.7226563,28.1386719L337.6171875,198.875
		c7.5039063-18.4707031,18.9033203-32.9003906,34.1992188-43.2900391
		c15.2958984-10.3901367,32.3232422-15.5844727,51.0820313-15.5844727c24.53125,0,45.4550781,8.5849609,62.7705078,25.7573242
		c17.3164063,17.171875,25.9746094,38.0229492,25.9746094,62.5541992c0,15.5844727-5.4833984,31.4575195-16.4501953,47.6191406
		c10.6777344,9.8125,17.9648438,19.1918945,21.8613281,28.1381836
		C520.9501953,313.015625,522.8984375,324.7050781,522.8984375,339.1347656z"/>
</g>
</svg>
