<?xml version="1.0" encoding="UTF-8" standalone="no"?>
<!-- Generator: Adobe Illustrator 12.0.0, SVG Export Plug-In . SVG Version: 6.00 Build 51448)  -->
<svg
   xmlns:dc="http://purl.org/dc/elements/1.1/"
   xmlns:cc="http://web.resource.org/cc/"
   xmlns:rdf="http://www.w3.org/1999/02/22-rdf-syntax-ns#"
   xmlns:svg="http://www.w3.org/2000/svg"
   xmlns="http://www.w3.org/2000/svg"
   xmlns:sodipodi="http://sodipodi.sourceforge.net/DTD/sodipodi-0.dtd"
   xmlns:inkscape="http://www.inkscape.org/namespaces/inkscape"
   version="1.1"
   id="Layer_1"
   width="750"
   height="600"
   viewBox="0 0 750 600"
   overflow="visible"
   enable-background="new 0 0 750 600"
   xml:space="preserve"
   sodipodi:version="0.32"
   inkscape:version="0.45.1"
   sodipodi:docname="US 219.svg"
   sodipodi:docbase="C:\Documents and Settings\HP_Administrator\My Documents\My Pictures\US Roads"
   inkscape:output_extension="org.inkscape.output.svg.inkscape"><metadata
   id="metadata24"><rdf:RDF><cc:Work
       rdf:about=""><dc:format>image/svg+xml</dc:format><dc:type
         rdf:resource="http://purl.org/dc/dcmitype/StillImage" /></cc:Work></rdf:RDF></metadata><defs
   id="defs22" /><sodipodi:namedview
   inkscape:window-height="974"
   inkscape:window-width="1280"
   inkscape:pageshadow="2"
   inkscape:pageopacity="0.0"
   borderopacity="1.0"
   bordercolor="#666666"
   pagecolor="#ffffff"
   id="base"
   inkscape:zoom="1.335"
   inkscape:cx="375"
   inkscape:cy="300"
   inkscape:window-x="-8"
   inkscape:window-y="-8"
   inkscape:current-layer="Layer_1" />
<g
   id="g3">
	<g
   id="g5">
		<path
   d="M0,50C0,22.3857422,22.3852539,0,50,0h650c27.6142578,0,50,22.3857422,50,50v500c0,27.6152344-22.3857422,50-50,50H50    c-27.6147461,0-50-22.3847656-50-50V50L0,50z"
   id="path7" />
		<path
   d="M375,300"
   id="path9" />
	</g>
	<path
   fill-rule="evenodd"
   clip-rule="evenodd"
   fill="#FFFFFF"
   d="M375,10.0019531   c-36.3276367,22.4638672-79.1494141,35.4287109-125,35.4287109S161.3271484,32.4638672,125,10L10,125   c21.1630859,30.0805664,33.5878906,66.7524414,33.5878906,106.3276367c0,28.5600586-6.4711914,55.6083984-18.027832,79.7583008   C15.5849609,331.9550781,10,355.3261719,10,380c0,88.3671875,71.6333008,160,160,160h100.1152344   C312.4584961,540,350.2485352,559.4941406,375,589.9980469C399.7509766,559.4941406,437.5410156,540,479.8847656,540H580   c88.3671875,0,160-71.6328125,160-160c0-24.6738281-5.5849609-48.0449219-15.5605469-68.9140625   c-11.5566406-24.1499023-18.0273438-51.1982422-18.0273438-79.7583008C706.4121094,191.7524414,718.8369141,155.0805664,740,125   L625,10c-36.3271484,22.4638672-79.1494141,35.4306641-125,35.4306641S411.3271484,32.4658203,375,10.0019531z"
   id="path11" />
</g>

<path
   style="font-size:432.5px;font-style:normal;font-variant:normal;font-weight:normal;font-stretch:normal;text-align:center;line-height:125%;writing-mode:lr-tb;text-anchor:middle;font-family:Roadgeek 2005 Series C"
   d="M 84.388962,434.43698 C 84.960883,417.42808 87.121093,401.85785 90.869598,387.72624 C 94.618034,373.59473 100.53111,359.61276 108.60886,345.78029 C 114.66267,334.81654 122.15741,324.64904 131.0931,315.27774 C 140.02864,305.90668 149.5428,297.47263 159.63562,289.97554 C 162.23129,288.54141 164.53889,287.03014 166.55842,285.44173 C 168.57773,283.85362 170.59495,282.33796 172.61009,280.89473 L 188.18474,272.68504 L 202.4527,264.46216 L 216.29829,256.67484 C 222.06163,252.92654 226.74501,248.24095 230.34847,242.61806 C 233.95158,236.99554 235.75322,231.15726 235.7534,225.10318 C 235.75322,219.63027 234.31235,214.51352 231.43078,209.75291 C 228.54886,204.99276 224.72999,200.88352 219.97417,197.42519 C 215.21803,193.96733 209.66792,191.22857 203.32382,189.2089 C 196.97943,187.18972 190.20403,186.18001 182.99759,186.17976 C 168.29395,186.18001 156.3996,189.64031 147.31449,196.56066 C 138.2292,203.48149 132.5339,213.572 130.22858,226.83223 L 84.388962,216.89349 C 89.290102,192.66944 100.53331,173.70931 118.11863,160.01304 C 135.70382,146.31732 157.33012,139.46932 182.99759,139.46902 C 196.83864,139.46932 209.74051,141.77692 221.70322,146.39182 C 233.66561,151.00731 244.04429,157.20636 252.83932,164.98901 C 261.63395,172.77219 268.62713,181.92559 273.81889,192.44922 C 279.01022,202.97334 281.60599,214.14835 281.60622,225.9743 C 281.60599,237.21992 279.08281,248.24755 274.03667,259.05723 C 268.9901,269.86725 261.71094,279.45621 252.19917,287.82413 C 249.89358,289.54892 247.80376,291.13278 245.92972,292.57571 C 244.05529,294.01893 242.10626,295.17163 240.08263,296.03381 L 225.81467,305.11462 L 210.24002,313.33751 L 195.97206,321.56039 C 189.04693,325.59055 182.91827,329.84058 177.58606,334.31049 C 172.25361,338.78059 167.35244,343.61137 162.88254,348.80283 C 158.41242,353.99446 154.23059,359.76235 150.33703,366.10652 C 146.44328,372.45083 142.7674,379.6574 139.30939,387.72624 L 281.60622,387.72624 L 281.60622,434.43698 L 84.388962,434.43698 z M 365.03616,434.43698 L 365.03616,199.5898 L 338.65166,199.5898 L 338.65166,162.83099 L 341.67419,162.83099 C 347.72803,162.83127 353.7819,161.2452 359.83582,158.07281 C 365.88963,154.90096 370.93599,150.42876 374.9749,144.65617 L 411.7337,144.65617 L 411.7337,434.43698 L 365.03616,434.43698 z M 671.86989,232.03258 C 671.86966,251.92783 669.2013,271.75029 663.86478,291.50001 C 658.52784,311.25001 650.9583,330.20795 641.15616,348.37386 C 631.35363,366.53995 619.53406,383.40587 605.69744,398.97166 C 591.8605,414.53753 576.57844,428.08834 559.85123,439.62413 L 537.79594,400.70071 C 546.44549,393.78456 554.15801,387.08175 560.93353,380.59226 C 567.70882,374.10289 573.83528,367.39788 579.31293,360.47721 C 584.79032,353.55669 589.83668,346.20494 594.45202,338.42193 C 599.06706,330.63911 603.53487,321.98727 607.85545,312.46638 C 599.49603,313.90958 593.08139,314.91929 588.61153,315.49552 C 584.14138,316.07199 579.02463,316.36016 573.26126,316.36005 C 559.71033,316.36016 546.95145,314.05477 534.98459,309.44385 C 523.01755,304.83318 512.56407,298.56373 503.62411,290.63548 C 494.68404,282.70752 487.62046,273.33635 482.43336,262.52193 C 477.24618,251.70785 474.65261,240.24686 474.65263,228.13892 C 474.65261,215.74101 477.24618,204.13483 482.43336,193.32034 C 487.62046,182.50634 494.61145,173.13516 503.40633,165.20679 C 512.2011,157.27895 522.58199,151.00731 534.54903,146.39182 C 546.51589,141.77692 559.41995,139.46932 573.26126,139.46902 C 587.10232,139.46932 600.07678,141.84951 612.18468,146.6096 C 624.29225,151.37027 634.74353,157.8575 643.53855,166.07131 C 652.33318,174.28566 659.25377,184.0154 664.30035,195.26057 C 669.34648,206.50622 671.86966,218.76355 671.86989,232.03258 L 671.86989,232.03258 z M 626.01707,228.13892 C 626.01689,222.6572 624.57602,217.32047 621.69445,212.12871 C 618.81253,206.93739 614.99366,202.46738 610.23785,198.71867 C 605.4817,194.97044 599.93159,191.94351 593.58749,189.63786 C 587.2431,187.33271 580.4677,186.18001 573.26126,186.17976 C 566.05457,186.18001 559.35176,187.26232 553.15281,189.42668 C 546.95365,191.59154 541.47393,194.54808 536.71364,198.29631 C 531.95317,202.04502 528.2047,206.51282 525.46822,211.69975 C 522.73158,216.88711 521.3633,222.36683 521.36337,228.13892 C 521.3633,233.90262 522.73158,239.30754 525.46822,244.35371 C 528.2047,249.40025 531.95317,253.79767 536.71364,257.54596 C 541.47393,261.29461 546.95365,264.24895 553.15281,266.40899 C 559.35176,268.56937 566.05457,269.64947 573.26126,269.64931 C 580.4677,269.64947 587.3157,268.56937 593.80527,266.40899 C 600.29456,264.24895 605.91726,261.29461 610.67341,257.54596 C 615.42923,253.79767 619.1755,249.40025 621.91223,244.35371 C 624.64861,239.30754 626.01689,233.90262 626.01707,228.13892 L 626.01707,228.13892 z "
   id="text1331" />

</svg>