<?xml version="1.0" encoding="utf-8"?>
<!-- Generator: Adobe Illustrator 12.0.0, SVG Export Plug-In . SVG Version: 6.00 Build 51448)  -->
<!DOCTYPE svg PUBLIC "-//W3C//DTD SVG 1.1//EN" "http://www.w3.org/Graphics/SVG/1.1/DTD/svg11.dtd" [
	<!ENTITY ns_svg "http://www.w3.org/2000/svg">
	<!ENTITY ns_xlink "http://www.w3.org/1999/xlink">
]>
<svg  version="1.1" id="Layer_1" xmlns="&ns_svg;" xmlns:xlink="&ns_xlink;" width="750" height="600" viewBox="0 0 750 600"
	 overflow="visible" enable-background="new 0 0 750 600" xml:space="preserve">
<g>
	<g>
		<path d="M0,50C0,22.3857422,22.3852539,0,50,0h650c27.6142578,0,50,22.3857422,50,50v500c0,27.6152344-22.3857422,50-50,50H50
			c-27.6147461,0-50-22.3847656-50-50V50L0,50z"/>
		<path d="M375,300"/>
	</g>
	<path fill-rule="evenodd" clip-rule="evenodd" fill="#FFFFFF" d="M375,10.0019531
		c-36.3276367,22.4638672-79.1494141,35.4287109-125,35.4287109S161.3271484,32.4638672,125,10L10,125
		c21.1630859,30.0810547,33.5883789,66.7524414,33.5883789,106.3271484c0,28.5605469-6.4716797,55.6088867-18.0288086,79.7587891
		C15.5854492,331.9560547,9.9995117,355.3261719,9.9995117,380c0,88.3671875,71.6333008,160,160,160h100.1157227
		C312.4584961,540,350.2485352,559.4941406,375,589.9980469C399.7509766,559.4941406,437.5410156,540,479.8847656,540H580
		c88.3671875,0,160-71.6328125,160-160c0-24.6738281-5.5849609-48.0439453-15.5605469-68.9140625
		c-11.5566406-24.1499023-18.0273438-51.1982422-18.0273438-79.7587891C706.4121094,191.7524414,718.8369141,155.0810547,740,125
		L625,10c-36.328125,22.4638672-79.1503906,35.4306641-125,35.4306641
		C454.1494141,45.4306641,411.3271484,32.4658203,375,10.0019531z"/>
</g>
<g>
	<path fill-rule="evenodd" clip-rule="evenodd" d="M250.3305664,434.8046875H88.4257813
		c1.7314453-32.3222656,6.4931641-58.7294922,14.2856445-79.2207031
		c11.2553711-30.0136719,26.8398438-54.1123047,46.7529297-72.2939453
		c6.3496094-5.7719727,18.6147461-15.0068359,36.796875-27.7055664
		c9.5239258-6.6376953,15.9448242-12.2651367,19.2641602-16.8833008c3.3188477-4.6171875,4.9780273-10.3891602,4.9780273-17.315918
		c0-11.2553711-3.9682617-20.8510742-11.9047852-28.7875977s-17.5322266-11.9047852-28.7875977-11.9047852
		s-20.8515625,3.9682617-28.7880859,11.9047852s-11.9047852,17.5322266-11.9047852,28.7875977H88.4257813
		c0.5771484-23.0878906,8.5859375-42.4243164,24.0258789-58.0083008C127.8916016,147.7924805,147.0117188,140,169.8110352,140
		c22.222168,0,41.1977539,7.9365234,56.9262695,23.8095703s23.5932617,35.0649414,23.5932617,57.5756836
		c0,22.5112305-8.2250977,41.4145508-24.675293,56.7104492c-4.0405273,2.8857422-7.0708008,5.3388672-9.0913086,7.3588867
		l-20.3461914,13.8530273l-11.2553711,8.2255859c-20.7792969,15.0068359-36.0751953,36.3632813-45.887207,64.0683594
		c-2.309082,7.2148438-4.3291016,14.71875-6.0610352,22.5117188h117.3164063V434.8046875z"/>
	<path fill-rule="evenodd" clip-rule="evenodd" d="M447.2949219,333.0742188c0,30.5917969-8.6582031,56.0605469-25.9746094,76.40625
		C404.0039063,429.8271484,382.359375,440,356.3852539,440c-25.1079102,0-48.7734375-8.5136719-70.9956055-25.5410156
		l27.2724609-29.4375c13.2758789,9.5244141,26.5512695,14.2861328,39.8271484,14.2861328
		c15.8730469,0,28.8603516-6.4208984,38.9609375-19.2646484c10.1005859-12.8417969,15.1513672-29.2207031,15.1513672-49.1337891
		c0-15.5849609-3.6074219-27.921875-10.8222656-37.0126953c-7.2148438-9.0913086-16.8828125-13.6367188-29.0043945-13.6367188
		c-12.4101563,0-23.9541016,4.762207-34.6323242,14.2861328l-39.8261719-5.1953125l7.3588867-144.5883789h136.3637695v40.6923828
		H338.203125l-3.0302734,61.0390625c11.5439453-4.0405273,22.3666992-6.0605469,32.4677734-6.0605469
		c23.3769531,0,42.4960938,8.5859375,57.359375,25.7573242C439.8632813,283.3623047,447.2939453,305.65625,447.2949219,333.0742188z
		"/>
	<path fill-rule="evenodd" clip-rule="evenodd" d="M661.5742188,289.3505859
		c0,41.5585938-5.4833984,75.1806641-16.4501953,100.8662109C630.9824219,423.40625,608.1835938,440,576.7255859,440
		c-32.0341797,0-54.9785156-16.59375-68.8310547-49.7832031c-10.9667969-25.9746094-16.4501953-59.5957031-16.4501953-100.8662109
		c0-42.7128906,5.4833984-76.3344727,16.4501953-100.8657227C522.3242188,156.1621094,545.2675781,140,576.7255859,140
		c17.0273438,0,30.8808594,3.8242188,41.5585938,11.4716797c10.6787109,7.6484375,19.625,20.4189453,26.8398438,38.3120117
		C656.0908203,216.0463867,661.5742188,249.2353516,661.5742188,289.3505859z M621.7470703,289.3505859
		c0-26.5507813-3.0302734-50.6489258-9.0908203-72.2939453c-6.9257813-24.2426758-18.9033203-36.3637695-35.9306641-36.3637695
		s-29.1484375,11.8325195-36.3642578,35.4975586c-6.0605469,19.9135742-9.0898438,44.5888672-9.0898438,74.0263672
		c0,26.8398438,3.0292969,51.3710938,9.0898438,73.5927734C547,387.4746094,559.1210938,399.3076172,576.7255859,399.3076172
		c17.0273438,0,29.4375-13.5644531,37.2294922-40.6923828C619.1503906,340.1445313,621.7470703,317.0566406,621.7470703,289.3505859
		z"/>
</g>
</svg>
