<?xml version="1.0" encoding="utf-8"?>
<!-- Generator: Adobe Illustrator 12.0.0, SVG Export Plug-In . SVG Version: 6.00 Build 51448)  -->
<!DOCTYPE svg PUBLIC "-//W3C//DTD SVG 1.1//EN" "http://www.w3.org/Graphics/SVG/1.1/DTD/svg11.dtd" [
	<!ENTITY ns_svg "http://www.w3.org/2000/svg">
	<!ENTITY ns_xlink "http://www.w3.org/1999/xlink">
]>
<svg  version="1.1" id="Layer_1" xmlns="&ns_svg;" xmlns:xlink="&ns_xlink;" width="750" height="600" viewBox="0 0 750 600"
	 overflow="visible" enable-background="new 0 0 750 600" xml:space="preserve">
<g>
	<g>
		<path d="M0,50C0,22.3852539,22.3852539,0,50,0h650c27.6142578,0,50,22.3852539,50,50v500c0,27.6152344-22.3857422,50-50,50H50
			c-27.6147461,0-50-22.3847656-50-50V50L0,50z"/>
		<path d="M375,300"/>
	</g>
	<path fill-rule="evenodd" clip-rule="evenodd" fill="#FFFFFF" d="M375,10.0019531
		c-36.3276367,22.4638672-79.1494141,35.4287109-125,35.4287109S161.3271484,32.4638672,125,10L10,125
		c21.1630859,30.0810547,33.5883789,66.7524414,33.5883789,106.3271484c0,28.5605469-6.4716797,55.6088867-18.0288086,79.7587891
		C15.5854492,331.9560547,9.9995117,355.3261719,9.9995117,380c0,88.3671875,71.6333008,160,160,160h100.1157227
		C312.4584961,540,350.2485352,559.4941406,375,589.9980469C399.7509766,559.4941406,437.5410156,540,479.8847656,540H580
		c88.3671875,0,160-71.6328125,160-160c0-24.6738281-5.5849609-48.0439453-15.5605469-68.9140625
		c-11.5566406-24.1499023-18.0273438-51.1982422-18.0273438-79.7587891C706.4121094,191.7524414,718.8369141,155.0810547,740,125
		L625,10c-36.328125,22.4638672-79.1503906,35.4306641-125,35.4306641
		C454.1494141,45.4306641,411.3271484,32.4658203,375,10.0019531z"/>
</g>
<g>
	<path fill-rule="evenodd" clip-rule="evenodd" d="M262.359375,434.8046875H100.4545898
		c1.7314453-32.3222656,6.4936523-58.7294922,14.2856445-79.2207031
		c11.2553711-30.0136719,26.8398438-54.1113281,46.753418-72.2939453
		c6.3491211-5.7719727,18.6147461-15.0068359,36.7963867-27.7055664
		c9.5244141-6.6376953,15.9453125-12.2651367,19.2641602-16.8833008c3.3188477-4.6171875,4.9785156-10.3891602,4.9785156-17.315918
		c0-11.2553711-3.9682617-20.8510742-11.9047852-28.7875977s-17.5327148-11.9047852-28.7880859-11.9047852
		s-20.8515625,3.9682617-28.7880859,11.9047852s-11.9042969,17.5322266-11.9042969,28.7875977h-40.6928711
		c0.5771484-23.0878906,8.5859375-42.4238281,24.0258789-58.0083008C139.9208984,147.7924805,159.0405273,140,181.8398438,140
		c22.222168,0,41.1977539,7.9365234,56.9262695,23.8095703c15.7290039,15.8730469,23.5932617,35.0649414,23.5932617,57.5756836
		c0,22.5112305-8.2250977,41.4145508-24.675293,56.7099609c-4.0405273,2.8862305-7.0708008,5.3393555-9.0908203,7.359375
		l-20.3466797,13.8530273l-11.2553711,8.2255859c-20.7788086,15.0068359-36.074707,36.3632813-45.887207,64.0683594
		c-2.3085938,7.2148438-4.3291016,14.71875-6.0605469,22.5117188h117.315918V434.8046875z"/>
	<path fill-rule="evenodd" clip-rule="evenodd" d="M451.53125,185.4545898
		c-25.6855469,30.0146484-46.4648438,67.6767578-62.3378906,112.9873047
		c-13.5644531,39.5385742-21.3564453,84.9926758-23.3764648,136.362793h-40.6928711v-6.0605469
		c0-33.1884766,5.7719727-71.8613281,17.315918-116.0166016c11.2553711-43.0014648,30.0146484-85.4257813,56.2768555-127.2729492
		h-109.090332V144.762207H451.53125V185.4545898z"/>
	<path fill-rule="evenodd" clip-rule="evenodd" d="M649.5449219,185.4545898
		c-25.6855469,30.0146484-46.4648438,67.6767578-62.3378906,112.9873047
		c-13.5644531,39.5385742-21.3554688,84.9926758-23.3759766,136.362793h-40.6923828v-6.0605469
		c0-33.1884766,5.7714844-71.8613281,17.3154297-116.0166016c11.2548828-43.0014648,30.0146484-85.4257813,56.2773438-127.2729492
		H487.640625V144.762207h161.9042969V185.4545898z"/>
</g>
</svg>
