<?xml version="1.0" encoding="utf-8"?>
<!-- Generator: Adobe Illustrator 12.0.0, SVG Export Plug-In . SVG Version: 6.00 Build 51448)  -->
<!DOCTYPE svg PUBLIC "-//W3C//DTD SVG 1.1//EN" "http://www.w3.org/Graphics/SVG/1.1/DTD/svg11.dtd" [
	<!ENTITY ns_svg "http://www.w3.org/2000/svg">
	<!ENTITY ns_xlink "http://www.w3.org/1999/xlink">
]>
<svg  version="1.1" id="Layer_1" xmlns="&ns_svg;" xmlns:xlink="&ns_xlink;" width="750" height="600" viewBox="0 0 750 600"
	 overflow="visible" enable-background="new 0 0 750 600" xml:space="preserve">
<g>
	<g>
		<path d="M0,50C0,22.3852539,22.3852539,0,50,0h650c27.6142578,0,50,22.3852539,50,50v500c0,27.6152344-22.3857422,50-50,50H50
			c-27.6147461,0-50-22.3847656-50-50V50L0,50z"/>
		<path d="M375,300"/>
	</g>
	<path fill-rule="evenodd" clip-rule="evenodd" fill="#FFFFFF" d="M375,10.0019531
		c-36.3276367,22.4638672-79.1499023,35.4287109-125.0004883,35.4287109C204.1494141,45.4306641,161.3271484,32.4638672,125,10
		L10,125c21.1630859,30.0810547,33.5883789,66.7524414,33.5883789,106.3271484
		c0,28.5605469-6.472168,55.6088867-18.0288086,79.7587891C15.5854492,331.9560547,9.9995117,355.3261719,9.9995117,380
		c0,88.3671875,71.6333008,160,160,160h100.1157227C312.4584961,540,350.2485352,559.4941406,375,589.9980469
		C399.7509766,559.4941406,437.5410156,540,479.8847656,540H580c88.3671875,0,160-71.6328125,160-160
		c0-24.6738281-5.5839844-48.0439453-15.5605469-68.9140625c-11.5566406-24.1499023-18.0273438-51.1982422-18.0273438-79.7587891
		C706.4121094,191.7524414,718.8369141,155.0810547,740,125L625,10c-36.328125,22.4638672-79.1503906,35.4306641-125,35.4306641
		C454.1494141,45.4306641,411.3271484,32.4658203,375,10.0019531z"/>
</g>
<g>
	<path fill-rule="evenodd" clip-rule="evenodd" d="M250.3305664,434.8046875H88.425293
		c1.7319336-32.3222656,6.4936523-58.7294922,14.2861328-79.2207031
		c11.2553711-30.0136719,26.8398438-54.1113281,46.7529297-72.2939453
		c6.3496094-5.7719727,18.6147461-15.0068359,36.796875-27.7055664
		c9.5239258-6.6376953,15.9448242-12.2651367,19.2636719-16.8833008c3.3193359-4.6171875,4.9785156-10.3891602,4.9785156-17.315918
		c0-11.2553711-3.9682617-20.8510742-11.9047852-28.7875977s-17.5322266-11.9047852-28.7871094-11.9047852
		c-11.2558594,0-20.8520508,3.9682617-28.7885742,11.9047852s-11.9047852,17.5322266-11.9047852,28.7875977H88.425293
		c0.5776367-23.0878906,8.5859375-42.4238281,24.0263672-58.0083008C127.8916016,147.7924805,147.0112305,140,169.8115234,140
		c22.2216797,0,41.1967773,7.9365234,56.9257813,23.8095703c15.7285156,15.8730469,23.5932617,35.0649414,23.5932617,57.5756836
		c0,22.5112305-8.2250977,41.4145508-24.675293,56.7099609c-4.0405273,2.8862305-7.0708008,5.3393555-9.0913086,7.359375
		l-20.3461914,13.8530273l-11.2553711,8.2255859c-20.7792969,15.0068359-36.0751953,36.3632813-45.8876953,64.0683594
		c-2.3085938,7.2148438-4.3286133,14.71875-6.0605469,22.5117188h117.3164063V434.8046875z"/>
	<path fill-rule="evenodd" clip-rule="evenodd" d="M447.2949219,349.5234375
		c0,29.7265625-9.2363281,53.3916016-27.7070313,70.9960938C406.3125,433.5068359,388.7089844,440,366.7749023,440
		c-27.9941406,0-49.0625-10.2451172-63.2036133-30.7363281c-12.1210938-17.6035156-18.1816406-37.5175781-18.1816406-59.7402344
		c0-30.0136719,9.0908203-54.1118164,27.2724609-72.2939453c-15.5844727-16.7387695-23.3764648-36.7963867-23.3764648-60.1728516
		c0-22.5112305,7.2148438-40.9814453,21.6450195-55.4116211C325.3603516,147.215332,343.9750977,140,366.7749023,140
		c22.222168,0,40.4760742,7.215332,54.762207,21.6450195c14.2851563,14.4301758,21.4277344,32.9003906,21.4277344,55.4116211
		c0,24.5307617-7.7919922,44.5883789-23.3769531,60.1728516
		C438.0585938,294.5454102,447.2939453,318.6435547,447.2949219,349.5234375z M402.2724609,217.0566406
		c0-10.6782227-3.3916016-19.4086914-10.1728516-26.1904297c-6.7822266-6.7822266-15.2246094-10.1733398-25.324707-10.1733398
		c-10.6782227,0-19.4804688,3.3911133-26.4067383,10.1733398c-6.9267578,6.7817383-10.3901367,15.512207-10.3901367,26.1904297
		c0,11.5439453,3.4633789,20.8510742,10.3901367,27.921875c6.9262695,7.0708008,15.7285156,10.605957,26.4067383,10.605957
		c10.3891602,0,18.902832-3.5351563,25.5415039-10.605957C398.953125,237.9077148,402.2724609,228.6005859,402.2724609,217.0566406z
		 M407.4667969,349.5234375c0-15.8730469-3.7519531-28.4980469-11.2548828-37.8789063
		c-7.5029297-9.3789063-17.3154297-14.0683594-29.4370117-14.0683594s-21.9335938,4.6894531-29.4375,14.0683594
		c-7.5029297,9.3808594-11.2553711,22.0058594-11.2553711,37.8789063c0,14.71875,3.7524414,26.6962891,11.2553711,35.9316406
		c7.5039063,9.234375,17.315918,13.8525391,29.4375,13.8525391s21.934082-4.6181641,29.4370117-13.8525391
		C403.7148438,376.2197266,407.4667969,364.2421875,407.4667969,349.5234375z"/>
	<path fill-rule="evenodd" clip-rule="evenodd" d="M661.5742188,289.3505859
		c0,41.5585938-5.4833984,75.1806641-16.4492188,100.8662109C630.9824219,423.40625,608.1835938,440,576.7255859,440
		c-32.0341797,0-54.9785156-16.59375-68.8310547-49.7832031c-10.9667969-25.9746094-16.4501953-59.5957031-16.4501953-100.8662109
		c0-42.7124023,5.4833984-76.3344727,16.4501953-100.8657227C522.3242188,156.1616211,545.2675781,140,576.7255859,140
		c17.0273438,0,30.8808594,3.8242188,41.5585938,11.472168c10.6787109,7.6479492,19.625,20.418457,26.8408203,38.3115234
		C656.0908203,216.0463867,661.5742188,249.2353516,661.5742188,289.3505859z M621.7470703,289.3505859
		c0-26.5507813-3.0302734-50.6489258-9.0908203-72.2939453c-6.9257813-24.2426758-18.9033203-36.3637695-35.9306641-36.3637695
		s-29.1484375,11.8325195-36.3642578,35.4975586c-6.0605469,19.9135742-9.0898438,44.5888672-9.0898438,74.0263672
		c0,26.8398438,3.0292969,51.3710938,9.0898438,73.5927734C547,387.4746094,559.1210938,399.3076172,576.7255859,399.3076172
		c17.0273438,0,29.4384766-13.5644531,37.2294922-40.6923828
		C619.1503906,340.1445313,621.7470703,317.0566406,621.7470703,289.3505859z"/>
</g>
</svg>
