<?xml version="1.0" encoding="utf-8"?>
<!-- Generator: Adobe Illustrator 12.0.0, SVG Export Plug-In . SVG Version: 6.00 Build 51448)  -->
<!DOCTYPE svg PUBLIC "-//W3C//DTD SVG 1.1//EN" "http://www.w3.org/Graphics/SVG/1.1/DTD/svg11.dtd" [
	<!ENTITY ns_svg "http://www.w3.org/2000/svg">
	<!ENTITY ns_xlink "http://www.w3.org/1999/xlink">
]>
<svg  version="1.1" id="Layer_1" xmlns="&ns_svg;" xmlns:xlink="&ns_xlink;" width="750" height="600" viewBox="0 0 750 600"
	 overflow="visible" enable-background="new 0 0 750 600" xml:space="preserve">
<g>
	<g>
		<path d="M0,50C0,22.3857422,22.3852539,0,50,0h650c27.6142578,0,50,22.3857422,50,50v500c0,27.6152344-22.3857422,50-50,50H50
			c-27.6147461,0-50-22.3847656-50-50V50L0,50z"/>
		<path d="M375,300"/>
	</g>
	<path fill-rule="evenodd" clip-rule="evenodd" fill="#FFFFFF" d="M375,10.0019531
		c-36.3276367,22.4638672-79.1494141,35.4287109-125.0004883,35.4287109C204.1494141,45.4306641,161.3271484,32.4638672,125,10
		L10,125c21.1630859,30.0805664,33.5883789,66.7524414,33.5883789,106.3276367
		c0,28.5600586-6.4716797,55.6083984-18.0288086,79.7583008C15.5854492,331.9550781,9.9995117,355.3261719,9.9995117,380
		c0,88.3671875,71.6333008,160,160,160h100.1157227C312.4584961,540,350.2485352,559.4941406,375,589.9980469
		C399.7509766,559.4941406,437.5410156,540,479.8847656,540H580c88.3671875,0,160-71.6328125,160-160
		c0-24.6738281-5.5839844-48.0449219-15.5605469-68.9140625c-11.5566406-24.1499023-18.0273438-51.1982422-18.0273438-79.7583008
		C706.4121094,191.7524414,718.8369141,155.0805664,740,125L625,10c-36.328125,22.4638672-79.1503906,35.4306641-125,35.4306641
		C454.1494141,45.4306641,411.3271484,32.4658203,375,10.0019531z"/>
</g>
<g>
	<path fill-rule="evenodd" clip-rule="evenodd" d="M250.3305664,356.4511719
		c0,23.953125-7.5761719,43.8671875-22.7275391,59.7402344S193.1875,440,169.8110352,440
		c-23.3769531,0-42.5688477-7.5761719-57.5756836-22.7265625c-15.0073242-15.1523438-22.9438477-34.7050781-23.8095703-58.6582031
		h40.6923828c1.1542969,11.8320313,5.4833984,21.5722656,12.9873047,29.2207031s16.7387695,11.4716797,27.7055664,11.4716797
		c11.5444336,0,21.2119141-4.1123047,29.0039063-12.3378906c7.7924805-8.2255859,11.6884766-18.3974609,11.6884766-30.5185547
		c0-15.296875-3.7519531-28.4277344-11.2553711-39.3945313s-16.3056641-16.4501953-26.4067383-16.4501953h-20.3461914v-39.8266602
		h17.315918c7.503418,0,14.5742188-3.7519531,21.2119141-11.2558594
		c8.0805664-9.2348633,12.1210938-20.0576172,12.1210938-32.4672852c0-11.2558594-3.0297852-20.1298828-9.0908203-26.6235352
		c-6.0605469-6.4936523-14.1411133-9.7402344-24.2421875-9.7402344c-18.7587891,0-29.2929688,10.1010742-31.6020508,30.3032227
		l-40.6923828-5.1953125c2.0200195-19.3359375,9.7402344-35.1367188,23.1601563-47.4023438
		c13.4199219-12.2651367,29.7978516-18.3979492,49.1342773-18.3979492c20.7788086,0,38.1669922,7.1420898,52.1645508,21.4282227
		c13.9970703,14.2856445,20.9956055,31.8183594,20.9956055,52.5976563c0,23.6650391-8.8022461,45.7431641-26.4072266,66.2338867
		C239.0751953,300.4619141,250.3305664,325.859375,250.3305664,356.4511719z"/>
	<path fill-rule="evenodd" clip-rule="evenodd" d="M447.2949219,349.5234375
		c0,29.7265625-9.2363281,53.390625-27.7070313,70.9960938C406.3125,433.5068359,388.7089844,440,366.7749023,440
		c-27.9941406,0-49.0620117-10.2451172-63.2036133-30.7363281c-12.1210938-17.6035156-18.1816406-37.5175781-18.1816406-59.7402344
		c0-30.0136719,9.0908203-54.1118164,27.2724609-72.293457c-15.5844727-16.7392578-23.3764648-36.796875-23.3764648-60.1733398
		c0-22.5107422,7.2148438-40.9814453,21.6450195-55.4111328c14.4296875-14.4301758,33.0444336-21.6450195,55.8442383-21.6450195
		c22.222168,0,40.4760742,7.2148438,54.762207,21.6450195c14.2851563,14.4296875,21.4277344,32.9003906,21.4277344,55.4111328
		c0,24.5307617-7.7919922,44.5888672-23.3769531,60.1733398
		C438.0585938,294.5458984,447.2939453,318.6445313,447.2949219,349.5234375z M402.2724609,217.0566406
		c0-10.6782227-3.3916016-19.4082031-10.1728516-26.190918c-6.7822266-6.7817383-15.2236328-10.1728516-25.324707-10.1728516
		c-10.6782227,0-19.4804688,3.3911133-26.4067383,10.1728516c-6.9267578,6.7827148-10.3901367,15.5126953-10.3901367,26.190918
		c0,11.5439453,3.4633789,20.8510742,10.3901367,27.921875c6.9262695,7.0708008,15.7285156,10.6064453,26.4067383,10.6064453
		c10.3891602,0,18.902832-3.5356445,25.5415039-10.6064453C398.953125,237.9077148,402.2724609,228.6005859,402.2724609,217.0566406
		z M407.4667969,349.5234375c0-15.8730469-3.7519531-28.4980469-11.2548828-37.8779297
		s-17.3154297-14.0693359-29.4370117-14.0693359s-21.9335938,4.6894531-29.4375,14.0693359
		c-7.5029297,9.3798828-11.2553711,22.0048828-11.2553711,37.8779297c0,14.71875,3.7524414,26.6962891,11.2553711,35.9316406
		c7.5039063,9.234375,17.315918,13.8525391,29.4375,13.8525391s21.934082-4.6181641,29.4370117-13.8525391
		C403.7148438,376.2197266,407.4667969,364.2421875,407.4667969,349.5234375z"/>
	<path fill-rule="evenodd" clip-rule="evenodd" d="M661.5742188,289.3510742
		c0,41.5581055-5.4833984,75.1801758-16.4492188,100.8657227C630.9824219,423.40625,608.1835938,440,576.7255859,440
		c-32.0341797,0-54.9785156-16.59375-68.8310547-49.7832031c-10.9667969-25.9746094-16.4501953-59.5957031-16.4501953-100.8657227
		c0-42.7133789,5.4833984-76.3354492,16.4501953-100.8662109c14.4296875-32.3227539,37.3730469-48.484375,68.8310547-48.484375
		c17.0273438,0,30.8808594,3.8237305,41.5585938,11.4711914c10.6787109,7.6484375,19.625,20.4189453,26.8408203,38.3120117
		C656.0908203,216.0463867,661.5742188,249.2353516,661.5742188,289.3510742z M621.7470703,289.3510742
		c0-26.5512695-3.0302734-50.6494141-9.0908203-72.2944336c-6.9257813-24.2431641-18.9033203-36.3637695-35.9306641-36.3637695
		s-29.1484375,11.8325195-36.3642578,35.4980469c-6.0605469,19.9125977-9.0898438,44.5888672-9.0898438,74.0258789
		c0,26.8398438,3.0292969,51.3710938,9.0898438,73.59375C547,387.4746094,559.1210938,399.3076172,576.7255859,399.3076172
		c17.0273438,0,29.4375-13.5634766,37.2294922-40.6923828C619.1503906,340.1445313,621.7470703,317.0566406,621.7470703,289.3510742
		z"/>
</g>
</svg>
