<?xml version="1.0" encoding="utf-8"?>
<!-- Generator: Adobe Illustrator 12.0.0, SVG Export Plug-In . SVG Version: 6.00 Build 51448)  -->
<!DOCTYPE svg PUBLIC "-//W3C//DTD SVG 1.1//EN" "http://www.w3.org/Graphics/SVG/1.1/DTD/svg11.dtd" [
	<!ENTITY ns_svg "http://www.w3.org/2000/svg">
	<!ENTITY ns_xlink "http://www.w3.org/1999/xlink">
]>
<svg  version="1.1" id="Layer_1" xmlns="&ns_svg;" xmlns:xlink="&ns_xlink;" width="750" height="600" viewBox="0 0 750 600"
	 overflow="visible" enable-background="new 0 0 750 600" xml:space="preserve">
<g>
	<g>
		<path d="M0,50C0,22.3857422,22.3852539,0,50,0h650c27.6142578,0,50,22.3857422,50,50v500c0,27.6152344-22.3857422,50-50,50H50
			c-27.6147461,0-50-22.3847656-50-50V50L0,50z"/>
		<path d="M375,300"/>
	</g>
	<path fill-rule="evenodd" clip-rule="evenodd" fill="#FFFFFF" d="M375,10.0019531
		c-36.3276367,22.4638672-79.1499023,35.4287109-125.0004883,35.4287109C204.1494141,45.4306641,161.3271484,32.4638672,125,10
		L10,125c21.1630859,30.0805664,33.5883789,66.7524414,33.5883789,106.3276367
		c0,28.5600586-6.472168,55.6083984-18.0288086,79.7583008C15.5854492,331.9550781,9.9995117,355.3261719,9.9995117,380
		c0,88.3671875,71.6333008,160,160,160h100.1157227C312.4584961,540,350.2485352,559.4941406,375,589.9980469
		C399.7509766,559.4941406,437.5410156,540,479.8847656,540H580c88.3671875,0,160-71.6328125,160-160
		c0-24.6738281-5.5839844-48.0449219-15.5605469-68.9140625c-11.5566406-24.1499023-18.0273438-51.1982422-18.0273438-79.7583008
		C706.4121094,191.7524414,718.8369141,155.0805664,740,125L625,10c-36.328125,22.4638672-79.1503906,35.4306641-125,35.4306641
		C454.1494141,45.4306641,411.3271484,32.4658203,375,10.0019531z"/>
</g>
<g>
	<path fill-rule="evenodd" clip-rule="evenodd" d="M258.9882813,356.4511719
		c0,23.953125-7.5756836,43.8671875-22.7270508,59.7402344C221.109375,432.0644531,201.8452148,440,178.4692383,440
		c-23.3769531,0-42.5688477-7.5761719-57.5761719-22.7265625c-15.0068359-15.1523438-22.9438477-34.7050781-23.8095703-58.6582031
		h40.6928711c1.1542969,11.8320313,5.4833984,21.5722656,12.9868164,29.2207031
		c7.5043945,7.6484375,16.7387695,11.4716797,27.7060547,11.4716797c11.5439453,0,21.2119141-4.1123047,29.0039063-12.3378906
		s11.6884766-18.3974609,11.6884766-30.5185547c0-15.296875-3.7519531-28.4277344-11.2553711-39.3945313
		c-7.5039063-10.9667969-16.3061523-16.4501953-26.4072266-16.4501953h-20.3457031v-39.8266602h17.315918
		c7.503418,0,14.5737305-3.7519531,21.2119141-11.2558594c8.0805664-9.2348633,12.1210938-20.0576172,12.1210938-32.4672852
		c0-11.2558594-3.0297852-20.1298828-9.0908203-26.6235352s-14.1416016-9.7402344-24.2421875-9.7402344
		c-18.7592773,0-29.293457,10.1010742-31.6020508,30.3032227l-40.6928711-5.1953125
		c2.0205078-19.3359375,9.7402344-35.1367188,23.1601563-47.4023438
		c13.4199219-12.2651367,29.7983398-18.3979492,49.1347656-18.3979492c20.7788086,0,38.1669922,7.1420898,52.1640625,21.4282227
		c13.9970703,14.2856445,20.9956055,31.8183594,20.9956055,52.5976563c0,23.6650391-8.8022461,45.7431641-26.4067383,66.2338867
		C247.7329102,300.4619141,258.9882813,325.859375,258.9882813,356.4511719z"/>
	<path fill-rule="evenodd" clip-rule="evenodd" d="M455.9521484,349.5234375
		c0,29.7265625-9.2353516,53.390625-27.7060547,70.9960938C414.9707031,433.5068359,397.3662109,440,375.4326172,440
		c-27.9941406,0-49.0620117-10.2451172-63.2036133-30.7363281c-12.1210938-17.6035156-18.1816406-37.5175781-18.1816406-59.7402344
		c0-30.0136719,9.0908203-54.1118164,27.2729492-72.293457c-15.5844727-16.7392578-23.3769531-36.796875-23.3769531-60.1733398
		c0-22.5107422,7.215332-40.9814453,21.6450195-55.4111328c14.4301758-14.4301758,33.0449219-21.6450195,55.8442383-21.6450195
		c22.2216797,0,40.4755859,7.2148438,54.7626953,21.6450195c14.2851563,14.4296875,21.4277344,32.9003906,21.4277344,55.4111328
		c0,24.5307617-7.7919922,44.5888672-23.3769531,60.1733398
		C446.7167969,294.5458984,455.9521484,318.6445313,455.9521484,349.5234375z M410.9306641,217.0566406
		c0-10.6782227-3.3916016-19.4082031-10.1728516-26.190918c-6.7832031-6.7817383-15.2246094-10.1728516-25.3251953-10.1728516
		c-10.6782227,0-19.4804688,3.3911133-26.40625,10.1728516c-6.9272461,6.7827148-10.3901367,15.5126953-10.3901367,26.190918
		c0,11.5439453,3.4628906,20.8510742,10.3901367,27.921875c6.9257813,7.0708008,15.7280273,10.6064453,26.40625,10.6064453
		c10.3896484,0,18.9033203-3.5356445,25.5419922-10.6064453
		C407.6113281,237.9077148,410.9306641,228.6005859,410.9306641,217.0566406z M416.125,349.5234375
		c0-15.8730469-3.7519531-28.4980469-11.2548828-37.8779297c-7.5039063-9.3798828-17.3164063-14.0693359-29.4375-14.0693359
		s-21.9335938,4.6894531-29.4370117,14.0693359c-7.5039063,9.3798828-11.2553711,22.0048828-11.2553711,37.8779297
		c0,14.71875,3.7514648,26.6962891,11.2553711,35.9316406c7.503418,9.234375,17.315918,13.8525391,29.4370117,13.8525391
		s21.9335938-4.6181641,29.4375-13.8525391C412.3730469,376.2197266,416.125,364.2421875,416.125,349.5234375z"/>
	<path fill-rule="evenodd" clip-rule="evenodd" d="M652.9160156,333.0742188c0,30.5917969-8.6582031,56.0605469-25.9746094,76.40625
		C609.6259766,429.8261719,587.9804688,440,562.0068359,440c-25.1083984,0-48.7734375-8.5136719-70.9951172-25.5410156
		l27.2724609-29.4375c13.2753906,9.5244141,26.5507813,14.2861328,39.8271484,14.2861328
		c15.8730469,0,28.859375-6.4208984,38.9609375-19.2646484c10.1005859-12.8417969,15.1513672-29.2207031,15.1513672-49.1337891
		c0-15.5839844-3.6083984-27.921875-10.8232422-37.0126953s-16.8818359-13.6362305-29.0039063-13.6362305
		c-12.4101563,0-23.953125,4.7617188-34.6318359,14.2856445L497.9375,289.3510742l7.359375-144.5888672h136.3632813v40.6928711
		h-97.8349609l-3.0302734,61.0385742c11.5449219-4.0400391,22.3662109-6.0605469,32.4667969-6.0605469
		c23.3769531,0,42.4970703,8.5859375,57.359375,25.7578125C645.484375,283.3623047,652.9160156,305.65625,652.9160156,333.0742188z"
		/>
</g>
</svg>
