<?xml version="1.0" encoding="UTF-8" standalone="no"?>
<!-- Created with Inkscape (http://www.inkscape.org/) -->

<svg
   xmlns:dc="http://purl.org/dc/elements/1.1/"
   xmlns:cc="http://creativecommons.org/ns#"
   xmlns:rdf="http://www.w3.org/1999/02/22-rdf-syntax-ns#"
   xmlns:svg="http://www.w3.org/2000/svg"
   xmlns="http://www.w3.org/2000/svg"
   version="1.1"
   width="750"
   height="600"
   viewBox="0 0 750 600"
   id="Layer_1"
   xml:space="preserve"
   style="overflow:visible"><metadata
     id="metadata24"><rdf:RDF><cc:Work
         rdf:about=""><dc:format>image/svg+xml</dc:format><dc:type
           rdf:resource="http://purl.org/dc/dcmitype/StillImage" /><dc:title></dc:title></cc:Work></rdf:RDF></metadata><defs
     id="defs22" /><g
     id="g3861"><g
       id="g5"><path
         d="M 0,50 C 0,22.385742 22.385254,0 50,0 h 650 c 27.61426,0 50,22.385742 50,50 v 500 c 0,27.61523 -22.38574,50 -50,50 H 50 C 22.385254,600 0,577.61523 0,550 V 50 l 0,0 z"
         id="path7" /><path
         d="M 375,300"
         id="path9" /></g><path
       d="M 375,10.001953 C 338.67236,32.46582 295.85059,45.430664 250,45.430664 204.14941,45.430664 161.32715,32.463867 125,10 L 10,125 c 21.163086,30.08057 33.587891,66.75244 33.587891,106.32764 0,28.56006 -6.471192,55.6084 -18.027832,79.7583 C 15.584961,331.95508 10,355.32617 10,380 10,468.36719 81.633301,540 170,540 H 270.11523 C 312.4585,540 350.24854,559.49414 375,589.99805 399.75098,559.49414 437.54102,540 479.88477,540 H 580 c 88.36719,0 160,-71.63281 160,-160 0,-24.67383 -5.58496,-48.04492 -15.56055,-68.91406 -11.55664,-24.1499 -18.02734,-51.19824 -18.02734,-79.7583 0,-39.5752 12.4248,-76.24707 33.58789,-106.32764 L 625,10 c -36.32715,22.463867 -79.14941,35.430664 -125,35.430664 -45.85059,0 -88.67285,-12.964844 -125,-35.428711 z"
       id="path11"
       style="fill:#ffffff;fill-opacity:1;fill-rule:evenodd" /></g><g
     id="text1331"
     style="font-size:447.76119995px;font-style:normal;font-variant:normal;font-weight:normal;font-stretch:normal;text-align:center;line-height:125%;writing-mode:lr-tb;text-anchor:middle;font-family:Roadgeek 2005 Series D;-inkscape-font-specification:Roadgeek 2005 Series D"><path
       d="m 255.65366,338.54477 c -2.3e-4,15.22397 -2.53754,29.25381 -7.61194,42.08956 -5.07484,12.83586 -12.23901,23.88063 -21.49254,33.13433 -8.95541,8.95524 -19.85092,16.11941 -32.68656,21.49253 -12.53747,5.07463 -26.41805,7.61194 -41.6418,7.61194 -12.23891,0 -23.73144,-1.9403 -34.47761,-5.82089 -10.44784,-3.88059 -20.149322,-9.25372 -29.104477,-16.1194 -8.656768,-6.86565 -16.119447,-15.22385 -22.38806,-25.07463 -6.268688,-9.8507 -10.895549,-20.89546 -13.880597,-33.13433 l 46.567165,-13.43284 c 3.582019,14.62694 10.149169,25.82096 19.701489,33.58209 9.55214,7.76124 21.49243,11.64184 35.8209,11.64179 8.05957,5e-5 15.37299,-1.34323 21.9403,-4.02985 6.56701,-2.68651 12.08939,-6.2686 16.56716,-10.74626 4.77595,-4.77606 8.50729,-10.29844 11.19403,-16.56717 2.68639,-6.56708 4.02967,-13.73125 4.02985,-21.49254 -1.8e-4,-7.76109 -1.49271,-15.07451 -4.47761,-21.9403 -2.98525,-6.86554 -7.16435,-12.23867 -12.53731,-16.1194 -1.79121,-1.19389 -3.433,-2.08942 -4.92538,-2.68657 -1.19418,-0.89538 -2.83597,-1.4924 -4.92537,-1.79104 -1.79119,-0.29837 -4.32851,-0.59688 -7.61194,-0.89552 -2.98522,-0.29837 -7.31357,-0.59688 -12.98507,-0.89553 l -5.37314,0 0,-48.35821 0,1.34329 1.34329,0 0.89552,0 9.40298,0 c 9.55209,1.9e-4 16.86552,-2.53713 21.9403,-7.61194 5.07446,-5.07443 7.61177,-12.38785 7.61194,-21.9403 -1.7e-4,-11.64156 -4.17927,-21.19379 -12.53731,-28.65672 -8.05985,-7.76094 -18.20909,-11.64153 -30.44776,-11.64179 -20.00011,2.6e-4 -35.07472,9.85099 -45.22388,29.55224 L 64.011867,193.47015 c 7.761151,-19.10422 19.40293,-34.02958 34.925374,-44.77612 15.820809,-11.04448 33.581989,-16.56686 53.283579,-16.56717 12.53718,3.1e-4 24.32821,2.38836 35.37314,7.16418 11.34311,4.77641 21.19385,11.34357 29.55224,19.70149 8.35801,8.35848 14.92517,18.20922 19.70149,29.55224 4.77591,11.04502 7.16396,22.83605 7.16418,35.37314 -2.2e-4,8.95543 -1.19424,17.01512 -3.58209,24.1791 -2.38827,7.16436 -6.86588,15.52256 -13.43284,25.07463 5.67144,5.07479 10.2983,10.00015 13.8806,14.77612 3.58187,4.47776 6.41769,9.25387 8.50746,14.32836 2.38784,5.07475 4.02963,10.59714 4.92538,16.56716 0.89529,5.67176 1.34305,12.23891 1.34328,19.70149"
       id="path3172" /><path
       d="m 528.41718,287.94776 c -2.5e-4,23.88072 -2.83606,46.71652 -8.50747,68.50746 -5.67187,21.79111 -13.73156,39.40303 -24.1791,52.83582 -16.71661,22.38807 -40.89569,33.58209 -72.53732,33.58209 -21.19414,0 -38.65681,-4.32835 -52.38806,-12.98507 -13.73141,-8.6567 -25.07468,-22.23878 -34.02985,-40.74627 -6.2687,-12.83576 -11.34332,-28.35813 -15.22388,-46.56716 -3.88063,-18.50735 -5.82092,-36.71629 -5.82089,-54.62687 -3e-5,-24.77595 2.83579,-47.761 8.50746,-68.95523 5.9701,-21.19379 14.0298,-38.95496 24.1791,-53.28358 8.95516,-11.343 19.55216,-19.7012 31.79105,-25.07463 12.53721,-5.67133 27.46257,-8.50715 44.77612,-8.50746 19.10432,3.1e-4 35.37296,4.32866 48.80597,12.98508 13.43264,8.657 24.92516,22.23907 34.47761,40.74627 6.26843,13.43307 11.1938,29.1047 14.77612,47.01492 3.58185,17.91064 5.37289,36.26883 5.37314,55.07463 m -47.46269,0 c -2e-4,-17.01476 -1.49273,-32.68639 -4.47761,-47.01493 -2.98526,-14.62665 -7.46287,-27.0147 -13.43284,-37.16418 -4.77629,-7.76095 -10.29867,-13.43259 -16.56716,-17.01492 -5.97031,-3.58184 -13.43299,-5.67139 -22.38806,-6.26866 -11.64192,-0.59676 -21.3434,2.08981 -29.10448,8.0597 -7.7613,5.9704 -14.1792,15.67188 -19.25373,29.10448 -3.88069,8.95544 -6.86576,19.85095 -8.95523,32.68657 -1.79112,12.53749 -2.68664,25.07479 -2.68656,37.61194 -8e-5,16.11954 1.49245,31.64191 4.47761,46.56716 2.98499,14.92547 7.4626,27.16426 13.43283,36.71642 4.77602,7.76126 10.44766,13.58214 17.01493,17.46269 6.56704,3.88064 14.62674,5.82094 24.1791,5.82089 11.04463,5e-5 20.1491,-2.98502 27.31344,-8.95522 7.46251,-5.97009 13.73116,-15.67157 18.80597,-29.10448 1.49235,-3.88051 2.98489,-8.50737 4.47761,-13.88059 1.49235,-5.67155 2.68638,-11.49244 3.58209,-17.46269 1.19384,-6.26854 2.08936,-12.53719 2.68657,-18.80597 0.59682,-6.26852 0.89532,-12.38792 0.89552,-18.35821"
       id="path3174" /><path
       d="m 615.89856,437.5 0,-243.13433 -27.31343,0 0,-38.0597 3.13433,0 c 6.26862,2.8e-4 12.53727,-1.64151 18.80597,-4.92538 6.2686,-3.28329 11.49247,-7.91015 15.67164,-13.88059 l 38.0597,0 0,300 -48.35821,0"
       id="path3176" /></g></svg>