<?xml version="1.0" encoding="UTF-8" standalone="no"?>
<!-- Created with Inkscape (http://www.inkscape.org/) -->

<svg
   xmlns:dc="http://purl.org/dc/elements/1.1/"
   xmlns:cc="http://creativecommons.org/ns#"
   xmlns:rdf="http://www.w3.org/1999/02/22-rdf-syntax-ns#"
   xmlns:svg="http://www.w3.org/2000/svg"
   xmlns="http://www.w3.org/2000/svg"
   version="1.1"
   width="750"
   height="600"
   viewBox="0 0 750 600"
   id="Layer_1"
   xml:space="preserve"
   style="overflow:visible"><metadata
     id="metadata24"><rdf:RDF><cc:Work
         rdf:about=""><dc:format>image/svg+xml</dc:format><dc:type
           rdf:resource="http://purl.org/dc/dcmitype/StillImage" /><dc:title></dc:title></cc:Work></rdf:RDF></metadata><defs
     id="defs22" /><g
     id="g3861"><g
       id="g5"><path
         d="M 0,50 C 0,22.385742 22.385254,0 50,0 h 650 c 27.61426,0 50,22.385742 50,50 v 500 c 0,27.61523 -22.38574,50 -50,50 H 50 C 22.385254,600 0,577.61523 0,550 V 50 l 0,0 z"
         id="path7" /><path
         d="M 375,300"
         id="path9" /></g><path
       d="M 375,10.001953 C 338.67236,32.46582 295.85059,45.430664 250,45.430664 204.14941,45.430664 161.32715,32.463867 125,10 L 10,125 c 21.163086,30.08057 33.587891,66.75244 33.587891,106.32764 0,28.56006 -6.471192,55.6084 -18.027832,79.7583 C 15.584961,331.95508 10,355.32617 10,380 10,468.36719 81.633301,540 170,540 H 270.11523 C 312.4585,540 350.24854,559.49414 375,589.99805 399.75098,559.49414 437.54102,540 479.88477,540 H 580 c 88.36719,0 160,-71.63281 160,-160 0,-24.67383 -5.58496,-48.04492 -15.56055,-68.91406 -11.55664,-24.1499 -18.02734,-51.19824 -18.02734,-79.7583 0,-39.5752 12.4248,-76.24707 33.58789,-106.32764 L 625,10 c -36.32715,22.463867 -79.14941,35.430664 -125,35.430664 -45.85059,0 -88.67285,-12.964844 -125,-35.428711 z"
       id="path11"
       style="fill:#ffffff;fill-opacity:1;fill-rule:evenodd" /></g><g
     id="text1331"
     style="font-size:447.76119995px;font-style:normal;font-variant:normal;font-weight:normal;font-stretch:normal;text-align:center;line-height:125%;writing-mode:lr-tb;text-anchor:middle;font-family:Roadgeek 2005 Series D;-inkscape-font-specification:Roadgeek 2005 Series D"><path
       d="m 241.59108,341.04477 c -2.2e-4,15.22397 -2.53753,29.25381 -7.61194,42.08956 -5.07484,12.83586 -12.23901,23.88063 -21.49253,33.13433 -8.95542,8.95524 -19.85093,16.11941 -32.68657,21.49253 -12.53747,5.07463 -26.41805,7.61194 -41.64179,7.61194 -12.23892,0 -23.73145,-1.9403 -34.47761,-5.82089 C 93.232795,435.67165 83.531312,430.29852 74.576157,423.43284 65.919389,416.56719 58.45671,408.20899 52.188097,398.35821 45.919409,388.50751 41.292548,377.46275 38.3075,365.22388 l 46.567165,-13.43284 c 3.582015,14.62694 10.149173,25.82096 19.701495,33.58209 9.55214,7.76124 21.49242,11.64184 35.82089,11.64179 8.05957,5e-5 15.373,-1.34323 21.9403,-4.02985 6.56701,-2.68651 12.08939,-6.2686 16.56717,-10.74626 4.77595,-4.77606 8.50729,-10.29844 11.19403,-16.56717 2.68639,-6.56708 4.02967,-13.73125 4.02985,-21.49254 -1.8e-4,-7.76109 -1.49272,-15.07451 -4.47761,-21.9403 -2.98525,-6.86554 -7.16435,-12.23867 -12.53732,-16.1194 -1.7912,-1.19389 -3.43299,-2.08942 -4.92537,-2.68657 -1.19419,-0.89538 -2.83598,-1.4924 -4.92537,-1.79104 -1.7912,-0.29837 -4.32851,-0.59688 -7.61194,-0.89552 -2.98522,-0.29837 -7.31358,-0.59688 -12.98508,-0.89553 l -5.37313,0 0,-48.35821 0,1.34329 1.34328,0 0.89552,0 9.40299,0 c 9.55209,1.9e-4 16.86551,-2.53713 21.9403,-7.61194 5.07446,-5.07443 7.61177,-12.38785 7.61194,-21.9403 -1.7e-4,-11.64156 -4.17927,-21.19379 -12.53732,-28.65672 -8.05985,-7.76094 -18.20909,-11.64153 -30.44776,-11.64179 -20.0001,2.6e-4 -35.07472,9.85099 -45.22388,29.55224 L 49.949291,195.97015 c 7.761151,-19.10422 19.40293,-34.02958 34.925374,-44.77612 15.820805,-11.04448 33.581985,-16.56686 53.283585,-16.56717 12.53717,3.1e-4 24.32821,2.38836 35.37313,7.16418 11.34312,4.77641 21.19385,11.34357 29.55224,19.70149 8.35801,8.35848 14.92517,18.20922 19.70149,29.55224 4.77591,11.04502 7.16397,22.83605 7.16418,35.37314 -2.1e-4,8.95543 -1.19424,17.01512 -3.58209,24.1791 -2.38827,7.16436 -6.86587,15.52256 -13.43283,25.07463 5.67144,5.07479 10.2983,10.00015 13.8806,14.77612 3.58187,4.47776 6.41769,9.25387 8.50746,14.32836 2.38783,5.07475 4.02962,10.59714 4.92537,16.56716 0.8953,5.67176 1.34306,12.23891 1.34328,19.70149"
       id="path3738"
       style="letter-spacing:-34.96906662" /><path
       d="m 472.27684,230.44776 c -2.3e-4,20.5972 -2.83605,41.1942 -8.50746,61.79104 -5.37336,20.29864 -13.13454,39.85086 -23.28358,58.65672 -10.14945,18.80604 -22.38824,36.26871 -36.71642,52.38806 -14.32851,16.11943 -30.14939,30.14926 -47.46269,42.08955 l -22.83582,-40.2985 c 8.95512,-7.16414 16.86556,-14.02981 23.73134,-20.59702 7.16406,-6.86561 13.58196,-13.88053 19.25373,-21.04478 5.6715,-7.16409 10.89538,-14.77602 15.67165,-22.83582 4.77596,-8.05959 9.40282,-17.01481 13.88059,-26.86567 -8.65687,1.49266 -15.37328,2.53744 -20.14925,3.13433 -4.47776,0.59714 -9.70163,0.89564 -15.67164,0.89552 -14.02997,1.2e-4 -27.31354,-2.38793 -39.85075,-7.16418 -12.23889,-4.77598 -22.98514,-11.19389 -32.23881,-19.25373 -9.25378,-8.35805 -16.5672,-18.05953 -21.94029,-29.10448 -5.37317,-11.34309 -8.05974,-23.28338 -8.05971,-35.82089 -3e-5,-12.8356 2.68654,-24.77588 8.05971,-35.8209 5.37309,-11.34302 12.53726,-21.0445 21.49253,-29.10448 9.25367,-8.35792 19.99992,-14.92508 32.23881,-19.70149 12.53721,-4.77582 25.97003,-7.16387 40.29851,-7.16418 14.32821,3.1e-4 27.76103,2.53762 40.29851,7.61194 12.53712,4.77641 23.28338,11.49283 32.2388,20.14926 9.25352,8.35847 16.41769,18.35846 21.49254,30 5.3729,11.64202 8.05947,24.32858 8.0597,38.0597 m -47.46269,-4.02985 c -1.8e-4,-5.67142 -1.49272,-11.19381 -4.47761,-16.56717 -2.98525,-5.3729 -7.0151,-9.99976 -12.08955,-13.88059 -4.77629,-3.88035 -10.44792,-7.01468 -17.01493,-9.40299 -6.56731,-2.3878 -13.58223,-3.58183 -21.04477,-3.58209 -7.46281,2.6e-4 -14.47773,1.19429 -21.04478,3.58209 -6.26876,2.0898 -11.9404,5.07488 -17.01492,8.95522 -4.77621,3.88084 -8.65681,8.5077 -11.6418,13.8806 -2.68664,5.37336 -4.02992,11.045 -4.02985,17.01493 -7e-5,5.97035 1.34321,11.64199 4.02985,17.01492 2.98499,5.07482 6.86559,9.55243 11.6418,13.43284 5.07452,3.88078 10.74616,7.0151 17.01492,9.40298 6.56705,2.08973 13.58197,3.1345 21.04478,3.13433 7.46254,1.7e-4 14.47746,-1.0446 21.04477,-3.13433 6.86552,-2.38788 12.68641,-5.5222 17.46269,-9.40298 5.07445,-3.88041 8.95505,-8.35802 11.64179,-13.43284 2.98489,-5.37293 4.47743,-11.04457 4.47761,-17.01492"
       id="path3740"
       style="letter-spacing:-34.96906662" /><path
       d="m 706.13745,329.40298 c -2.3e-4,16.71652 -3.28381,32.08963 -9.85074,46.11941 -6.26888,14.0299 -15.22409,26.26869 -26.86568,36.71642 -11.64197,10.44777 -25.52256,18.65672 -41.64179,24.62686 -15.82103,5.67164 -33.2837,8.50746 -52.38806,8.50746 -13.13442,0 -26.11948,-1.49254 -38.95522,-4.47761 -12.53737,-2.98507 -24.02989,-7.16417 -34.47762,-12.53731 l 23.28359,-42.08955 c 6.26859,3.28363 14.47754,5.97019 24.62686,8.0597 10.14917,1.79109 20.74617,2.68661 31.79105,2.68656 10.74615,5e-5 20.74614,-1.64174 30,-4.92537 9.55209,-3.58204 17.76104,-8.35815 24.62686,-14.32836 7.16401,-5.97008 12.6864,-12.985 16.56717,-21.04477 3.88041,-8.35812 5.82071,-17.46259 5.82089,-27.31344 -1.8e-4,-7.46256 -1.49272,-14.32823 -4.47761,-20.59701 -2.68674,-6.26852 -6.56734,-11.7909 -11.64179,-16.56717 -4.77628,-4.77596 -10.44792,-8.5073 -17.01492,-11.19403 -6.26881,-2.6864 -13.13447,-4.02968 -20.59702,-4.02985 -5.37326,1.7e-4 -10.14938,0.44793 -14.32836,1.34329 -3.88071,0.89568 -7.61205,2.53747 -11.19403,4.92537 -3.58219,2.38821 -7.16428,5.67179 -10.74627,9.85075 -3.58218,3.88074 -7.61203,8.95536 -12.08955,15.22388 L 509.12252,294.92537 516.73446,140 l 172.38807,0 0,47.46268 -126.26866,0 -3.13433,49.25374 c 11.04468,-3.28338 19.70139,-5.52218 25.97015,-6.71642 6.26854,-1.19382 13.1342,-1.79084 20.59701,-1.79105 13.7312,2.1e-4 26.56701,2.68678 38.50747,8.0597 12.23862,5.37334 22.83562,12.68676 31.79104,21.9403 9.25352,9.25391 16.41769,20.00016 21.49254,32.23881 5.3729,12.23894 8.05947,25.224 8.0597,38.95522"
       id="path3742"
       style="letter-spacing:-34.96906662" /></g></svg>