<?xml version="1.0" encoding="UTF-8" standalone="no"?>
<!-- Created with Inkscape (http://www.inkscape.org/) -->
<svg
   xmlns:svg="http://www.w3.org/2000/svg"
   xmlns="http://www.w3.org/2000/svg"
   version="1.0"
   width="600"
   height="600"
   viewBox="0 0 600 600"
   id="Layer_1"
   xml:space="preserve"><defs
   id="defs18" />
<g
   id="g3">
	<path
   d="M 0,50 C 0,22.385742 22.385254,0 50,0 L 550,0 C 577.61426,0 600,22.385742 600,50 L 600,550 C 600,577.61523 577.61426,600 550,600 L 50,600 C 22.385254,600 0,577.61523 0,550 L 0,50 L 0,50 z "
   id="path5" />
	<path
   id="path7" />
</g>
<g
   id="g9">
	<path
   d="M 300,10.00293 C 323.56445,30.078125 354.11719,42.194336 387.5,42.194336 C 420.88281,42.194336 451.43555,30.075195 475,10 L 590,125 C 568.83789,155.08105 556.41211,191.75391 556.41211,231.32617 C 556.41211,259.79004 562.83887,286.75098 574.32227,310.83887 C 584.24414,331.66406 590,355.39453 590,380 C 590,468.36719 518.36719,540 430,540 L 404.88672,540 C 362.54199,540 324.75098,559.49512 300,590 C 275.24854,559.49512 237.45801,540 195.11328,540 L 169.99951,540 C 81.632813,540 9.9995117,468.36719 9.9995117,380 C 9.9995117,355.39453 15.755859,331.66406 25.678223,310.83887 C 37.160645,286.75098 43.588379,259.79004 43.588379,231.32617 C 43.588379,191.75391 31.161621,155.08105 10,125 L 125,10 C 148.56445,30.075195 179.1167,42.194336 212.5,42.194336 C 245.88281,42.194336 276.43555,30.078125 300,10.00293 z "
   style="fill:#ffffff;fill-rule:evenodd"
   id="path11" />
	
		<path
   d="M 300,10.00293 C 323.56445,30.078125 354.11719,42.194336 387.5,42.194336 C 420.88281,42.194336 451.43555,30.075195 475,10 L 590,125 C 568.83789,155.08105 556.41211,191.75391 556.41211,231.32617 C 556.41211,259.79004 562.83887,286.75098 574.32227,310.83887 C 584.24414,331.66406 590,355.39453 590,380 C 590,468.36719 518.36719,540 430,540 L 404.88672,540 C 362.54199,540 324.75098,559.49512 300,590 C 275.24854,559.49512 237.45801,540 195.11328,540 L 169.99951,540 C 81.632813,540 9.9995117,468.36719 9.9995117,380 C 9.9995117,355.39453 15.755859,331.66406 25.678223,310.83887 C 37.160645,286.75098 43.588379,259.79004 43.588379,231.32617 C 43.588379,191.75391 31.161621,155.08105 10,125 L 125,10 C 148.56445,30.075195 179.1167,42.194336 212.5,42.194336 C 245.88281,42.194336 276.43555,30.078125 300,10.00293 z "
   style="fill:none;fill-rule:evenodd;stroke:#000000;stroke-linecap:round;stroke-linejoin:round;stroke-miterlimit:3.863693"
   id="path13" />
</g>

<path
   d="M 326.85608,338.41367 C 326.85586,353.03228 324.41944,366.50476 319.54681,378.83115 C 314.67376,391.15765 307.86535,401.69286 299.12155,410.43683 C 290.37737,419.18084 279.91433,426.06143 267.73239,431.07861 C 255.55014,436.0958 242.14983,438.6044 227.53143,438.6044 C 215.77351,438.6044 204.80744,436.74099 194.63318,433.01419 C 184.45875,429.28739 175.14174,424.12804 166.68213,417.53613 C 158.2224,410.94426 150.98313,402.91763 144.96429,393.45624 C 138.94538,383.99492 134.50121,373.38972 131.63177,361.64059 L 176.35345,348.74112 C 179.80024,362.78233 186.11,373.52969 195.28275,380.98325 C 204.45532,388.4369 215.92224,392.16371 229.68353,392.16367 C 237.41696,392.16371 244.43753,390.87332 250.74524,388.29251 C 257.05267,385.71179 262.42854,382.20151 266.87286,377.76166 C 271.31687,373.32192 274.82934,368.02041 277.41028,361.85712 C 279.99088,355.69397 281.28126,348.88555 281.28143,341.43185 C 281.28126,333.97834 279.84653,326.9534 276.97723,320.35703 C 274.1076,313.76087 270.09648,308.59934 264.94385,304.87241 C 263.22026,303.7265 261.71336,302.7948 260.42313,302.0773 C 259.13259,301.36007 257.5557,300.85922 255.69244,300.57477 C 253.8289,300.29058 251.39248,300.00407 248.38318,299.71524 C 245.3736,299.42668 241.14377,299.14236 235.69366,298.86227 L 230.5365,298.86227 L 230.5365,252.42154 L 230.5365,253.70755 L 231.82251,253.70755 L 232.6886,253.70755 L 241.71692,253.70755 C 250.89382,253.70773 257.91876,251.27131 262.79175,246.39828 C 267.66443,241.52563 270.10085,234.5007 270.10101,225.32346 C 270.10085,214.14326 266.15971,204.89842 258.27759,197.58893 C 250.39516,190.27991 240.57512,186.62528 228.81744,186.62503 C 209.61467,186.62528 195.13612,196.08663 185.38177,215.00912 L 142.81219,199.09146 C 150.26577,180.74638 161.51835,166.3422 176.56998,155.87888 C 191.62147,145.41611 208.6086,140.18459 227.53143,140.1843 C 239.56906,140.18459 250.96381,142.47885 261.7157,147.06708 C 272.46728,151.65588 281.85647,157.96345 289.88327,165.98981 C 297.90971,174.0167 304.2151,183.40369 308.79944,194.15082 C 313.38338,204.89842 315.67545,216.29535 315.67566,228.34164 C 315.67545,236.94149 314.52942,244.68161 312.23755,251.56201 C 309.94527,258.44278 305.64545,266.46722 299.33807,275.63535 C 304.78811,280.50834 309.23228,285.16685 312.67059,289.61087 C 316.1085,294.05518 318.9036,298.71369 321.05591,303.5864 C 323.20779,308.45936 324.71251,313.69089 325.57007,319.28098 C 326.42719,324.87129 326.85586,331.24885 326.85608,338.41367 L 326.85608,338.41367 z M 410.78796,433.44724 L 410.78796,199.95755 L 384.55597,199.95755 L 384.55597,163.41122 L 387.56104,163.41122 C 393.57988,163.41149 399.59875,161.8346 405.61768,158.68054 C 411.6365,155.52703 416.65369,151.08068 420.66925,145.34146 L 457.21558,145.34146 L 457.21558,433.44724 L 410.78796,433.44724 z "
   style="font-size:430px;font-style:normal;font-variant:normal;font-weight:normal;font-stretch:normal;text-align:center;line-height:125%;writing-mode:lr-tb;text-anchor:middle;font-family:Roadgeek 2005 Series D"
   id="path2225" />
</svg>