<?xml version="1.0" encoding="utf-8"?>
<!-- Generator: Adobe Illustrator 12.0.0, SVG Export Plug-In . SVG Version: 6.00 Build 51448)  -->
<!DOCTYPE svg PUBLIC "-//W3C//DTD SVG 1.1//EN" "http://www.w3.org/Graphics/SVG/1.1/DTD/svg11.dtd" [
	<!ENTITY ns_svg "http://www.w3.org/2000/svg">
	<!ENTITY ns_xlink "http://www.w3.org/1999/xlink">
]>
<svg  version="1.1" id="Layer_1" xmlns="&ns_svg;" xmlns:xlink="&ns_xlink;" width="750" height="600" viewBox="0 0 750 600"
	 overflow="visible" enable-background="new 0 0 750 600" xml:space="preserve">
<g>
	<g>
		<path d="M0,50C0,22.3857422,22.3852539,0,50,0h650c27.6142578,0,50,22.3857422,50,50v500c0,27.6152344-22.3857422,50-50,50H50
			c-27.6147461,0-50-22.3847656-50-50V50L0,50z"/>
		<path d="M375,300"/>
	</g>
	<path fill-rule="evenodd" clip-rule="evenodd" fill="#FFFFFF" d="M375,10.0019531
		c-36.3276367,22.4638672-79.1494141,35.4287109-125.0004883,35.4287109C204.1494141,45.4306641,161.3271484,32.4638672,125,10
		L10,125c21.1630859,30.0805664,33.5883789,66.7524414,33.5883789,106.3276367
		c0,28.5600586-6.4716797,55.6083984-18.0288086,79.7583008C15.5854492,331.9550781,9.9995117,355.3261719,9.9995117,380
		c0,88.3671875,71.6333008,160,160,160h100.1157227C312.4584961,540,350.2485352,559.4941406,375,589.9980469
		C399.7509766,559.4941406,437.5410156,540,479.8847656,540H580c88.3671875,0,160-71.6328125,160-160
		c0-24.6738281-5.5839844-48.0449219-15.5605469-68.9140625c-11.5566406-24.1499023-18.0273438-51.1982422-18.0273438-79.7583008
		C706.4121094,191.7524414,718.8369141,155.0805664,740,125L625,10c-36.328125,22.4638672-79.1503906,35.4306641-125,35.4306641
		C454.1494141,45.4306641,411.3271484,32.4658203,375,10.0019531z"/>
</g>
<g>
	<path fill-rule="evenodd" clip-rule="evenodd" d="M245.8237305,356.4511719
		c0,23.953125-7.5761719,43.8671875-22.7275391,59.7402344S188.6806641,440,165.3041992,440
		c-23.3769531,0-42.5688477-7.5751953-57.5761719-22.7265625c-15.0068359-15.1523438-22.9433594-34.7050781-23.809082-58.6582031
		h40.6923828c1.1542969,11.8320313,5.4838867,21.5722656,12.9873047,29.2207031s16.7387695,11.4716797,27.7055664,11.4716797
		c11.5439453,0,21.2119141-4.1123047,29.0043945-12.3369141c7.7919922-8.2255859,11.6879883-18.3984375,11.6879883-30.5195313
		c0-15.296875-3.7514648-28.4277344-11.2553711-39.3945313c-7.503418-10.9667969-16.3056641-16.4501953-26.4067383-16.4501953
		h-20.3461914v-39.8266602h17.315918c7.503418,0,14.5742188-3.7519531,21.2119141-11.2563477
		c8.0810547-9.234375,12.1210938-20.0571289,12.1210938-32.4667969c0-11.2558594-3.0302734-20.1298828-9.0908203-26.6235352
		c-6.0600586-6.4931641-14.1411133-9.7402344-24.2421875-9.7402344c-18.7592773,0-29.2929688,10.1010742-31.6020508,30.3032227
		l-40.6923828-5.1953125c2.0200195-19.3359375,9.7402344-35.1367188,23.1601563-47.4023438
		c13.4199219-12.2651367,29.7983398-18.3979492,49.1342773-18.3979492c20.7792969,0,38.1674805,7.1420898,52.1645508,21.4282227
		c13.9970703,14.2856445,20.9956055,31.8183594,20.9956055,52.5976563c0,23.6650391-8.8022461,45.7431641-26.4072266,66.2338867
		C234.5683594,300.4619141,245.8237305,325.859375,245.8237305,356.4511719z"/>
	<path fill-rule="evenodd" clip-rule="evenodd" d="M460.1035156,289.3510742
		c0,41.5581055-5.4833984,75.1801758-16.4501953,100.8657227C429.5117188,423.40625,406.7128906,440,375.2548828,440
		c-32.034668,0-54.9785156-16.59375-68.8310547-49.7832031c-10.9667969-25.9746094-16.4501953-59.5957031-16.4501953-100.8657227
		c0-42.7133789,5.4833984-76.3354492,16.4501953-100.8662109c14.4296875-32.3227539,37.3735352-48.484375,68.8310547-48.484375
		c17.0273438,0,30.8798828,3.8237305,41.5585938,11.4711914c10.6787109,7.6484375,19.6240234,20.4189453,26.8398438,38.3120117
		C454.6201172,216.0463867,460.1035156,249.2358398,460.1035156,289.3510742z M420.2763672,289.3510742
		c0-26.5512695-3.0302734-50.6494141-9.0908203-72.2944336c-6.9257813-24.2431641-18.9033203-36.3637695-35.9306641-36.3637695
		s-29.1484375,11.8325195-36.3637695,35.4980469c-6.0605469,19.9125977-9.0908203,44.5888672-9.0908203,74.0258789
		c0,26.8398438,3.0302734,51.3710938,9.0908203,73.59375c6.6376953,23.6640625,18.7592773,35.4970703,36.3637695,35.4970703
		c17.0273438,0,29.4375-13.5634766,37.2294922-40.6923828C417.6796875,340.1445313,420.2763672,317.0566406,420.2763672,289.3510742
		z"/>
	<path fill-rule="evenodd" clip-rule="evenodd" d="M666.0810547,434.8056641H504.1757813
		c1.7324219-32.3232422,6.4941406-58.7304688,14.2871094-79.2207031
		c11.2539063-30.0146484,26.8388672-54.1132813,46.7519531-72.2944336
		c6.3496094-5.7719727,18.6152344-15.0078125,36.796875-27.7055664c9.5234375-6.6381836,15.9453125-12.265625,19.2636719-16.8833008
		c3.3193359-4.6176758,4.9785156-10.3896484,4.9785156-17.315918c0-11.2553711-3.9677734-20.8515625-11.9042969-28.7880859
		s-17.5322266-11.9047852-28.7880859-11.9047852c-11.2548828,0-20.8515625,3.9677734-28.7880859,11.9047852
		c-7.9365234,7.9365234-11.9042969,17.5327148-11.9042969,28.7880859h-40.6933594
		c0.578125-23.0883789,8.5859375-42.4243164,24.0263672-58.0087891s34.5595703-23.3764648,57.359375-23.3764648
		c22.2216797,0,41.1982422,7.9365234,56.9267578,23.8095703s23.5927734,35.0649414,23.5927734,57.5756836
		s-8.2246094,41.4140625-24.6748047,56.7099609c-4.0410156,2.8857422-7.0703125,5.3388672-9.0917969,7.359375L611.96875,299.3076172
		l-11.2558594,8.2255859c-20.7792969,15.0068359-36.0742188,36.3632813-45.8867188,64.0683594
		c-2.3095703,7.2148438-4.3300781,14.71875-6.0605469,22.5117188h117.3154297V434.8056641z"/>
</g>
</svg>
