<?xml version="1.0" encoding="utf-8"?>
<!-- Generator: Adobe Illustrator 12.0.0, SVG Export Plug-In . SVG Version: 6.00 Build 51448)  -->
<!DOCTYPE svg PUBLIC "-//W3C//DTD SVG 1.1//EN" "http://www.w3.org/Graphics/SVG/1.1/DTD/svg11.dtd" [
	<!ENTITY ns_svg "http://www.w3.org/2000/svg">
	<!ENTITY ns_xlink "http://www.w3.org/1999/xlink">
]>
<svg  version="1.1" id="Layer_1" xmlns="&ns_svg;" xmlns:xlink="&ns_xlink;" width="750" height="600" viewBox="0 0 750 600"
	 overflow="visible" enable-background="new 0 0 750 600" xml:space="preserve">
<g>
	<g>
		<path d="M0,50C0,22.3857422,22.3852539,0,50,0h650c27.6142578,0,50,22.3857422,50,50v500c0,27.6152344-22.3857422,50-50,50H50
			c-27.6147461,0-50-22.3847656-50-50V50L0,50z"/>
		<path d="M375,300"/>
	</g>
	<path fill-rule="evenodd" clip-rule="evenodd" fill="#FFFFFF" d="M375,10.0019531
		c-36.3276367,22.4638672-79.1494141,35.4287109-125,35.4287109S161.3271484,32.4638672,125,10L10,125
		c21.1630859,30.0805664,33.5878906,66.7524414,33.5878906,106.3276367c0,28.5600586-6.4711914,55.6083984-18.0283203,79.7583008
		C15.5849609,331.9550781,10,355.3261719,10,380c0,88.3671875,71.6328125,160,160,160h100.1152344
		C312.4584961,540,350.2485352,559.4941406,375,589.9980469C399.7509766,559.4941406,437.5410156,540,479.8847656,540H580
		c88.3671875,0,160-71.6328125,160-160c0-24.6738281-5.5849609-48.0449219-15.5605469-68.9140625
		c-11.5566406-24.1499023-18.0273438-51.1982422-18.0273438-79.7583008C706.4121094,191.7524414,718.8369141,155.0805664,740,125
		L625,10c-36.3271484,22.4638672-79.1494141,35.4306641-125,35.4306641S411.3271484,32.4658203,375,10.0019531z"/>
</g>
<g>
	<path fill-rule="evenodd" clip-rule="evenodd" d="M241.6347656,364.6757813h-17.3154297v70.1298828h-41.9916992v-70.1298828
		H62.4140625v-29.4375L182.3276367,144.762207h41.9916992v181.3852539h17.3154297V364.6757813z M182.3276367,326.1474609
		V217.0566406L113.496582,326.1474609H182.3276367z"/>
	<path fill-rule="evenodd" clip-rule="evenodd" d="M464.2919922,289.3510742
		c0,41.5581055-5.4833984,75.1801758-16.4501953,100.8657227C433.7001953,423.40625,410.9003906,440,379.4433594,440
		c-32.0341797,0-54.9780273-16.59375-68.8310547-49.7832031c-10.9667969-25.9746094-16.4501953-59.5957031-16.4501953-100.8657227
		c0-42.7133789,5.4833984-76.3354492,16.4501953-100.8662109c14.4301758-32.3227539,37.3740234-48.484375,68.8310547-48.484375
		c17.0273438,0,30.8808594,3.8237305,41.5585938,11.4711914c10.6777344,7.6484375,19.625,20.4189453,26.8398438,38.3120117
		C458.8085938,216.0463867,464.2919922,249.2353516,464.2919922,289.3510742z M424.4648438,289.3510742
		c0-26.5512695-3.0292969-50.6494141-9.0898438-72.2944336c-6.9267578-24.2426758-18.9042969-36.3637695-35.9316406-36.3637695
		s-29.1484375,11.8325195-36.3632813,35.4980469c-6.0605469,19.9125977-9.0908203,44.5883789-9.0908203,74.0258789
		c0,26.8398438,3.0302734,51.3710938,9.0908203,73.59375c6.6376953,23.6640625,18.7587891,35.4970703,36.3632813,35.4970703
		c17.0273438,0,29.4375-13.5634766,37.2294922-40.6923828C421.8671875,340.1445313,424.4648438,317.0566406,424.4648438,289.3510742
		z"/>
	<path fill-rule="evenodd" clip-rule="evenodd" d="M687.5859375,289.3510742
		c0,41.5581055-5.4833984,75.1801758-16.4501953,100.8657227C656.9941406,423.40625,634.1943359,440,602.7373047,440
		c-32.0341797,0-54.9785156-16.59375-68.8310547-49.7832031c-10.9667969-25.9746094-16.4501953-59.5957031-16.4501953-100.8657227
		c0-42.7133789,5.4833984-76.3354492,16.4501953-100.8662109c14.4296875-32.3227539,37.3730469-48.484375,68.8310547-48.484375
		c17.0273438,0,30.8798828,3.8237305,41.5585938,11.4711914c10.6777344,7.6484375,19.6240234,20.4189453,26.8398438,38.3120117
		C682.1025391,216.0463867,687.5859375,249.2353516,687.5859375,289.3510742z M647.7587891,289.3510742
		c0-26.5512695-3.0302734-50.6494141-9.0908203-72.2944336c-6.9267578-24.2426758-18.9033203-36.3637695-35.9306641-36.3637695
		s-29.1484375,11.8325195-36.3642578,35.4980469c-6.0605469,19.9125977-9.0898438,44.5883789-9.0898438,74.0258789
		c0,26.8398438,3.0292969,51.3710938,9.0898438,73.59375c6.6386719,23.6640625,18.7597656,35.4970703,36.3642578,35.4970703
		c17.0273438,0,29.4365234-13.5634766,37.2294922-40.6923828
		C645.1611328,340.1445313,647.7587891,317.0566406,647.7587891,289.3510742z"/>
</g>
</svg>
