<?xml version="1.0" encoding="UTF-8" standalone="no"?>
<!-- Created with Inkscape (http://www.inkscape.org/) -->

<svg
   xmlns:dc="http://purl.org/dc/elements/1.1/"
   xmlns:cc="http://creativecommons.org/ns#"
   xmlns:rdf="http://www.w3.org/1999/02/22-rdf-syntax-ns#"
   xmlns:svg="http://www.w3.org/2000/svg"
   xmlns="http://www.w3.org/2000/svg"
   version="1.1"
   width="600"
   height="600"
   viewBox="0 0 600 600"
   id="Layer_1"
   xml:space="preserve"
   style="overflow:visible"><metadata
     id="metadata2242"><rdf:RDF><cc:Work
         rdf:about=""><dc:format>image/svg+xml</dc:format><dc:type
           rdf:resource="http://purl.org/dc/dcmitype/StillImage" /><dc:title></dc:title></cc:Work></rdf:RDF></metadata><defs
     id="defs2240" /><g
     id="g2221"><path
       d="M 0,50 C 0,22.385742 22.385254,0 50,0 h 500 c 27.61426,0 50,22.385742 50,50 v 500 c 0,27.61523 -22.38574,50 -50,50 H 50 C 22.385254,600 0,577.61523 0,550 V 50 l 0,0 z"
       id="path2223" /><path
       d="M 300,300"
       id="path2225" /></g><g
     id="g2227"><path
       d="m 300,10.002441 c 23.56445,20.075196 54.11719,32.191407 87.5,32.191407 33.38281,0 63.93555,-12.118164 87.5,-32.193848 l 115,115 c -21.16211,30.08057 -33.58789,66.75391 -33.58789,106.32666 0,28.46338 6.42676,55.4248 17.91016,79.51221 C 584.24414,331.66406 590,355.39453 590,380 590,468.36719 518.36719,540 430,540 H 404.88672 C 362.54199,540 324.75098,559.49512 300,590 275.24854,559.49512 237.45801,540 195.11328,540 H 169.99951 C 81.632813,540 9.9995117,468.36719 9.9995117,380 c 0,-24.60547 5.7563473,-48.33594 15.6787113,-69.16113 C 37.160645,286.75146 43.588379,259.79004 43.588379,231.32666 43.588379,191.75391 31.161621,155.08057 10,125 L 125,10 c 23.56445,20.075684 54.11719,32.193848 87.5,32.193848 33.38281,0 63.93555,-12.116211 87.5,-32.191407 z"
       id="path2229"
       style="fill:#ffffff;fill-rule:evenodd" /><path
       d="m 300,10.002441 c 23.56445,20.075196 54.11719,32.191407 87.5,32.191407 33.38281,0 63.93555,-12.118164 87.5,-32.193848 l 115,115 c -21.16211,30.08057 -33.58789,66.75391 -33.58789,106.32666 0,28.46338 6.42676,55.4248 17.91016,79.51221 C 584.24414,331.66406 590,355.39453 590,380 590,468.36719 518.36719,540 430,540 H 404.88672 C 362.54199,540 324.75098,559.49512 300,590 275.24854,559.49512 237.45801,540 195.11328,540 H 169.99951 C 81.632813,540 9.9995117,468.36719 9.9995117,380 c 0,-24.60547 5.7563473,-48.33594 15.6787113,-69.16113 C 37.160645,286.75146 43.588379,259.79004 43.588379,231.32666 43.588379,191.75391 31.161621,155.08057 10,125 L 125,10 c 23.56445,20.075684 54.11719,32.193848 87.5,32.193848 33.38281,0 63.93555,-12.116211 87.5,-32.191407 z"
       id="path2231"
       style="fill:none;stroke:#000000;stroke-linecap:round;stroke-linejoin:round;stroke-miterlimit:3.863693" /></g><g
     transform="translate(-24,0)"
     id="g2233"><path
       d="m 340.44727,362.51074 h -27.70508 v 72.29492 h -45.8877 V 362.51074 H 123.56445 V 335.23828 L 266.85449,144.76221 h 45.8877 v 176.19091 h 27.70508 v 41.55762 z m -73.59278,-41.55762 v -109.0913 l -82.25097,109.0913 h 82.25097 z"
       id="path2235"
       style="fill-rule:evenodd" /><path
       d="M 476.43555,434.80566 H 429.68164 V 199.74072 h -26.40625 v -36.36377 h 3.03027 c 13.56348,0 24.67481,-6.20507 33.33301,-18.61474 h 36.79688 v 290.04345 z"
       id="path2237"
       style="fill-rule:evenodd" /></g></svg>