<?xml version="1.0" encoding="UTF-8" standalone="no"?>
<!-- Created with Inkscape (http://www.inkscape.org/) -->
<svg
   xmlns:svg="http://www.w3.org/2000/svg"
   xmlns="http://www.w3.org/2000/svg"
   version="1.0"
   width="750"
   height="600"
   viewBox="0 0 750 600"
   id="Layer_1"
   xml:space="preserve"><defs
   id="defs22" />
<g
   id="g3">
	<g
   id="g5">
		<path
   d="M 0,50 C 0,22.385742 22.385254,0 50,0 L 700,0 C 727.61426,0 750,22.385742 750,50 L 750,550 C 750,577.61523 727.61426,600 700,600 L 50,600 C 22.385254,600 0,577.61523 0,550 L 0,50 L 0,50 z "
   id="path7" />
		<path
   id="path9" />
	</g>
	<path
   d="M 375,10.001953 C 338.67236,32.46582 295.85059,45.430664 250,45.430664 C 204.14941,45.430664 161.32715,32.463867 125,10 L 10,125 C 31.163086,155.08057 43.587891,191.75244 43.587891,231.32764 C 43.587891,259.8877 37.116699,286.93604 25.560059,311.08594 C 15.584961,331.95508 10,355.32617 10,380 C 10,468.36719 81.633301,540 170,540 L 270.11523,540 C 312.4585,540 350.24854,559.49414 375,589.99805 C 399.75098,559.49414 437.54102,540 479.88477,540 L 580,540 C 668.36719,540 740,468.36719 740,380 C 740,355.32617 734.41504,331.95508 724.43945,311.08594 C 712.88281,286.93604 706.41211,259.8877 706.41211,231.32764 C 706.41211,191.75244 718.83691,155.08057 740,125 L 625,10 C 588.67285,32.463867 545.85059,45.430664 500,45.430664 C 454.14941,45.430664 411.32715,32.46582 375,10.001953 z "
   style="fill:white;fill-rule:evenodd"
   id="path11" />
</g>

<path
   d="M 249.20303,362.21286 L 249.20303,434.43698 L 203.79898,434.43698 L 203.79898,362.21286 L 60.208664,362.21286 L 60.208664,334.95723 L 203.79898,144.65617 L 249.20303,144.65617 L 249.20303,320.68927 L 276.89423,320.68927 L 276.89423,362.21286 L 249.20303,362.21286 z M 203.79898,211.69315 L 121.18736,320.68927 L 203.79898,320.68927 L 203.79898,211.69315 z M 366.72562,434.43698 L 366.72562,199.5898 L 340.34111,199.5898 L 340.34111,162.83099 L 343.36365,162.83099 C 349.41748,162.83127 355.47135,161.2452 361.52527,158.07281 C 367.57909,154.90096 372.62544,150.42876 376.66435,144.65617 L 413.42316,144.65617 L 413.42316,434.43698 L 366.72562,434.43698 z M 476.34209,434.43698 C 476.91401,417.42808 479.07422,401.85785 482.82272,387.72624 C 486.57116,373.59473 492.48424,359.61276 500.56198,345.78029 C 506.6158,334.81654 514.11054,324.64904 523.04623,315.27774 C 531.98177,305.90668 541.49593,297.47263 551.58875,289.97554 C 554.18441,288.54141 556.49201,287.03014 558.51154,285.44173 C 560.53085,283.85362 562.54808,282.33796 564.56322,280.89473 L 580.13786,272.68504 L 594.40582,264.46216 L 608.25142,256.67484 C 614.01475,252.92654 618.69814,248.24095 622.3016,242.61806 C 625.90471,236.99554 627.70635,231.15726 627.70653,225.10318 C 627.70635,219.63027 626.26547,214.51352 623.3839,209.75291 C 620.50198,204.99276 616.68312,200.88352 611.9273,197.42519 C 607.17115,193.96733 601.62104,191.22857 595.27695,189.2089 C 588.93256,187.18972 582.15715,186.18001 574.95071,186.17976 C 560.24708,186.18001 548.35273,189.64031 539.26762,196.56066 C 530.18232,203.48149 524.48702,213.572 522.1817,226.83223 L 476.34209,216.89349 C 481.24323,192.66944 492.48644,173.70931 510.07175,160.01304 C 527.65695,146.31732 549.28324,139.46932 574.95071,139.46902 C 588.79177,139.46932 601.69364,141.77692 613.65635,146.39182 C 625.61873,151.00731 635.99742,157.20636 644.79244,164.98901 C 653.58707,172.77219 660.58026,181.92559 665.77202,192.44922 C 670.96334,202.97334 673.55912,214.14835 673.55934,225.9743 C 673.55912,237.21992 671.03594,248.24755 665.9898,259.05723 C 660.94323,269.86725 653.66407,279.45621 644.1523,287.82413 C 641.8467,289.54892 639.75689,291.13278 637.88284,292.57571 C 636.00842,294.01893 634.05939,295.17163 632.03575,296.03381 L 617.76779,305.11462 L 602.19315,313.33751 L 587.92519,321.56039 C 581.00005,325.59055 574.87139,329.84058 569.53918,334.31049 C 564.20673,338.78059 559.30556,343.61137 554.83566,348.80283 C 550.36555,353.99446 546.18372,359.76235 542.29015,366.10652 C 538.3964,372.45083 534.72052,379.6574 531.26251,387.72624 L 673.55934,387.72624 L 673.55934,434.43698 L 476.34209,434.43698 z "
   style="font-size:432.5px;font-style:normal;font-variant:normal;font-weight:normal;font-stretch:normal;text-align:center;line-height:125%;writing-mode:lr-tb;text-anchor:middle;font-family:Roadgeek 2005 Series C"
   id="text1331" />

</svg>