<?xml version="1.0" encoding="utf-8"?>
<!-- Generator: Adobe Illustrator 12.0.0, SVG Export Plug-In . SVG Version: 6.00 Build 51448)  -->
<!DOCTYPE svg PUBLIC "-//W3C//DTD SVG 1.1//EN" "http://www.w3.org/Graphics/SVG/1.1/DTD/svg11.dtd" [
	<!ENTITY ns_svg "http://www.w3.org/2000/svg">
	<!ENTITY ns_xlink "http://www.w3.org/1999/xlink">
]>
<svg  version="1.1" id="Layer_1" xmlns="&ns_svg;" xmlns:xlink="&ns_xlink;" width="600" height="600" viewBox="0 0 600 600"
	 overflow="visible" enable-background="new 0 0 600 600" xml:space="preserve">
<g>
	<path d="M0,50C0,22.3857422,22.3852539,0,50,0h500c27.6142578,0,50,22.3857422,50,50v500c0,27.6152344-22.3857422,50-50,50H50
		c-27.6147461,0-50-22.3847656-50-50V50L0,50z"/>
	<path d="M300,300"/>
</g>
<g>
	<path fill-rule="evenodd" clip-rule="evenodd" fill="#FFFFFF" d="M300,10.0024414
		c23.5644531,20.0751953,54.1171875,32.1914063,87.5,32.1914063S451.4355469,30.0756836,475,10l115,115
		c-21.1621094,30.0805664-33.5878906,66.7539063-33.5878906,106.3266602c0,28.4633789,6.4267578,55.4248047,17.9101563,79.512207
		C584.2441406,331.6640625,590,355.3945313,590,380c0,88.3671875-71.6328125,160-160,160h-25.1132813
		C362.5419922,540,324.7509766,559.4951172,300,590c-24.7514648-30.5048828-62.5424805-50-104.8867188-50h-25.1137695
		c-88.3666992,0-160-71.6328125-160-160c0-24.6054688,5.7558594-48.3359375,15.6782227-69.1611328
		c11.4829102-24.0874023,17.9101563-51.0488281,17.9101563-79.512207C43.5878906,191.7539063,31.1616211,155.0805664,10,125L125,10
		c23.5644531,20.0756836,54.1166992,32.1938477,87.5,32.1938477C245.8828125,42.1938477,276.4355469,30.0776367,300,10.0024414z"/>
	
		<path fill-rule="evenodd" clip-rule="evenodd" fill="none" stroke="#000000" stroke-linecap="round" stroke-linejoin="round" stroke-miterlimit="3.863693" d="
		M300,10.0024414c23.5644531,20.0751953,54.1171875,32.1914063,87.5,32.1914063S451.4355469,30.0756836,475,10l115,115
		c-21.1621094,30.0805664-33.5878906,66.7539063-33.5878906,106.3266602c0,28.4633789,6.4267578,55.4248047,17.9101563,79.512207
		C584.2441406,331.6640625,590,355.3945313,590,380c0,88.3671875-71.6328125,160-160,160h-25.1132813
		C362.5419922,540,324.7509766,559.4951172,300,590c-24.7514648-30.5048828-62.5424805-50-104.8867188-50h-25.1137695
		c-88.3666992,0-160-71.6328125-160-160c0-24.6054688,5.7558594-48.3359375,15.6782227-69.1611328
		c11.4829102-24.0874023,17.9101563-51.0488281,17.9101563-79.512207C43.5878906,191.7539063,31.1616211,155.0805664,10,125L125,10
		c23.5644531,20.0756836,54.1166992,32.1938477,87.5,32.1938477C245.8828125,42.1938477,276.4355469,30.0776367,300,10.0024414z"/>
</g>
<g>
	<path fill-rule="evenodd" clip-rule="evenodd" d="M278.543457,362.5107422h-27.7060547v72.2949219H204.949707v-72.2949219
		H61.659668v-27.2724609L204.949707,144.762207h45.8876953v176.190918h27.7060547V362.5107422z M204.949707,320.953125V211.8618164
		L122.6987305,320.953125H204.949707z"/>
	<path fill-rule="evenodd" clip-rule="evenodd" d="M538.3398438,232.2080078
		c0,39.8271484-10.2451172,78.6435547-30.7363281,116.4501953C487.1132813,386.4648438,459.984375,416.9121094,426.21875,440
		l-22.5107422-38.9609375c31.1689453-24.53125,54.6904297-53.96875,70.5625-88.3115234
		c-14.4296875,2.5966797-25.9736328,3.8955078-34.6318359,3.8955078c-27.1289063,0-50.3613281-8.6572266-69.6972656-25.9736328
		c-19.3359375-17.315918-29.0039063-38.0952148-29.0039063-62.3374023c0-24.8198242,9.5234375-45.7431641,28.5722656-62.7705078
		c19.046875-17.0273438,42.4238281-25.5410156,70.1289063-25.5410156c27.9941406,0,51.4433594,8.8022461,70.3457031,26.4067383
		C528.8886719,184.0117188,538.3398438,205.9453125,538.3398438,232.2080078z M492.453125,228.3120117
		c0-11.2553711-5.2675781-20.9956055-15.8017578-29.2207031c-10.5341797-8.2255859-22.8710938-12.3378906-37.0126953-12.3378906
		c-14.4296875,0-26.6953125,4.0405273-36.796875,12.1210938c-10.1005859,8.0810547-15.1513672,17.8935547-15.1513672,29.4375
		s5.0507813,21.3564453,15.1513672,29.4370117c10.1015625,8.0810547,22.3671875,12.121582,36.796875,12.121582
		c14.71875,0,27.2011719-4.0405273,37.4453125-12.121582C487.3300781,249.668457,492.453125,239.855957,492.453125,228.3120117z"/>
</g>
</svg>
