<?xml version="1.0" encoding="utf-8"?>
<!-- Generator: Adobe Illustrator 12.0.0, SVG Export Plug-In . SVG Version: 6.00 Build 51448)  -->
<!DOCTYPE svg PUBLIC "-//W3C//DTD SVG 1.1//EN" "http://www.w3.org/Graphics/SVG/1.1/DTD/svg11.dtd" [
	<!ENTITY ns_svg "http://www.w3.org/2000/svg">
	<!ENTITY ns_xlink "http://www.w3.org/1999/xlink">
]>
<svg  version="1.1" id="Layer_1" xmlns="&ns_svg;" xmlns:xlink="&ns_xlink;" width="600" height="600" viewBox="0 0 600 600"
	 overflow="visible" enable-background="new 0 0 600 600" xml:space="preserve">
<g>
	<path d="M0,50C0,22.3857422,22.3852539,0,50,0h500c27.6142578,0,50,22.3857422,50,50v500c0,27.6152344-22.3857422,50-50,50H50
		c-27.6147461,0-50-22.3847656-50-50V50L0,50z"/>
	<path d="M300,300"/>
</g>
<g>
	<path fill-rule="evenodd" clip-rule="evenodd" fill="#FFFFFF" d="M300,10.0024414
		c23.5644531,20.0751953,54.1171875,32.1914063,87.5,32.1914063S451.4355469,30.0751953,475,10l115,115
		c-21.1621094,30.0805664-33.5878906,66.7539063-33.5878906,106.3266602c0,28.4633789,6.4267578,55.4248047,17.9101563,79.512207
		C584.2441406,331.6640625,590,355.3945313,590,380c0,88.3671875-71.6328125,160-160,160h-25.1132813
		C362.5419922,540,324.7509766,559.4951172,300,590c-24.7514648-30.5048828-62.5424805-50-104.8867188-50h-25.1137695
		c-88.3666992,0-160-71.6328125-160-160c0-24.6054688,5.7558594-48.3359375,15.6782227-69.1611328
		c11.4829102-24.0874023,17.9101563-51.0488281,17.9101563-79.512207C43.5878906,191.7539063,31.1616211,155.0805664,10,125L125,10
		c23.5644531,20.0751953,54.1166992,32.1938477,87.5,32.1938477C245.8828125,42.1938477,276.4355469,30.0776367,300,10.0024414z"/>
	
		<path fill-rule="evenodd" clip-rule="evenodd" fill="none" stroke="#000000" stroke-linecap="round" stroke-linejoin="round" stroke-miterlimit="3.863693" d="
		M300,10.0024414c23.5644531,20.0751953,54.1171875,32.1914063,87.5,32.1914063S451.4355469,30.0751953,475,10l115,115
		c-21.1621094,30.0805664-33.5878906,66.7539063-33.5878906,106.3266602c0,28.4633789,6.4267578,55.4248047,17.9101563,79.512207
		C584.2441406,331.6640625,590,355.3945313,590,380c0,88.3671875-71.6328125,160-160,160h-25.1132813
		C362.5419922,540,324.7509766,559.4951172,300,590c-24.7514648-30.5048828-62.5424805-50-104.8867188-50h-25.1137695
		c-88.3666992,0-160-71.6328125-160-160c0-24.6054688,5.7558594-48.3359375,15.6782227-69.1611328
		c11.4829102-24.0874023,17.9101563-51.0488281,17.9101563-79.512207C43.5878906,191.7539063,31.1616211,155.0805664,10,125L125,10
		c23.5644531,20.0751953,54.1166992,32.1938477,87.5,32.1938477C245.8828125,42.1938477,276.4355469,30.0776367,300,10.0024414z"/>
</g>
<g>
	<path fill-rule="evenodd" clip-rule="evenodd" d="M271.6899414,327.8789063
		c0,32.3232422-11.9047852,59.0908203-35.7143555,80.3027344C212.1660156,429.3945313,181.9350586,440,145.2827148,440
		c-25.6850586,0-49.3505859-5.4833984-70.9956055-16.4501953l22.078125-40.6923828
		c13.5639648,6.9257813,31.8901367,10.3896484,54.9785156,10.3896484c21.0678711,0,38.7441406-6.2050781,53.0307617-18.6142578
		c14.2851563-12.4101563,21.4277344-27.9951172,21.4277344-46.7539063c0-14.140625-5.050293-26.1181641-15.1513672-35.9306641
		s-22.3666992-14.71875-36.7963867-14.71875c-10.1010742,0-18.2539063,2.0205078-24.4589844,6.0610352
		c-6.2050781,4.0400391-13.6362305,12.1210938-22.2944336,24.2426758l-45.887207-12.9873047l7.359375-149.7836914h166.6665039
		v45.887207h-122.078125l-3.0302734,47.6191406c19.0478516-5.1948242,33.9106445-7.7919922,44.5888672-7.7919922
		c26.5512695,0,49.3510742,9.5957031,68.3984375,28.7875977S271.6899414,301.328125,271.6899414,327.8789063z"/>
	<path fill-rule="evenodd" clip-rule="evenodd" d="M525.7128906,232.2080078
		c0,39.8271484-10.2460938,78.6435547-30.7363281,116.4501953S447.3574219,416.9121094,413.5917969,440l-22.5117188-38.9609375
		c31.1689453-24.53125,54.6894531-53.96875,70.5625-88.3115234c-14.4296875,2.5966797-25.9736328,3.8955078-34.6308594,3.8955078
		c-27.1289063,0-50.3613281-8.6572266-69.6972656-25.9736328c-19.3359375-17.315918-29.0039063-38.0952148-29.0039063-62.3374023
		c0-24.8198242,9.5234375-45.7431641,28.5703125-62.7705078c19.0488281-17.0273438,42.4238281-25.5410156,70.1308594-25.5410156
		c27.9941406,0,51.4423828,8.8022461,70.3457031,26.4067383S525.7128906,205.9453125,525.7128906,232.2080078z
		 M479.8242188,228.3120117c0-11.2553711-5.265625-20.9956055-15.8007813-29.2207031
		c-10.5332031-8.2255859-22.8710938-12.3378906-37.0117188-12.3378906c-14.4306641,0-26.6962891,4.0405273-36.796875,12.1210938
		c-10.1015625,8.0810547-15.1523438,17.8935547-15.1523438,29.4375s5.0507813,21.3564453,15.1523438,29.4370117
		c10.1005859,8.0810547,22.3662109,12.121582,36.796875,12.121582c14.7177734,0,27.1992188-4.0405273,37.4453125-12.121582
		C474.7021484,249.668457,479.8242188,239.855957,479.8242188,228.3120117z"/>
</g>
</svg>
