<?xml version="1.0" encoding="utf-8"?>
<!-- Generator: Adobe Illustrator 12.0.0, SVG Export Plug-In . SVG Version: 6.00 Build 51448)  -->
<!DOCTYPE svg PUBLIC "-//W3C//DTD SVG 1.1//EN" "http://www.w3.org/Graphics/SVG/1.1/DTD/svg11.dtd" [
	<!ENTITY ns_svg "http://www.w3.org/2000/svg">
	<!ENTITY ns_xlink "http://www.w3.org/1999/xlink">
]>
<svg  version="1.1" id="Layer_1" xmlns="&ns_svg;" xmlns:xlink="&ns_xlink;" width="600" height="600" viewBox="0 0 600 600"
	 overflow="visible" enable-background="new 0 0 600 600" xml:space="preserve">
<g>
	<path d="M0,50C0,22.3857422,22.3852539,0,50,0h500c27.6142578,0,50,22.3857422,50,50v500c0,27.6152344-22.3857422,50-50,50H50
		c-27.6147461,0-50-22.3847656-50-50V50L0,50z"/>
	<path d="M300,300"/>
</g>
<g>
	<path fill-rule="evenodd" clip-rule="evenodd" fill="#FFFFFF" d="M300,10.0024414
		c23.5644531,20.0751953,54.1171875,32.1914063,87.5,32.1914063S451.4355469,30.0751953,475,10l115,115
		c-21.1621094,30.0805664-33.5878906,66.7539063-33.5878906,106.3266602c0,28.4633789,6.4267578,55.4248047,17.9101563,79.512207
		C584.2441406,331.6640625,590,355.3945313,590,380c0,88.3671875-71.6328125,160-160,160h-25.1132813
		C362.5419922,540,324.7509766,559.4951172,300,590c-24.7514648-30.5048828-62.5419922-50-104.8867188-50h-25.1137695
		c-88.3666992,0-160-71.6328125-160-160c0-24.6054688,5.7563477-48.3359375,15.6782227-69.1611328
		c11.4829102-24.0874023,17.9101563-51.0488281,17.9101563-79.512207C43.5878906,191.7539063,31.1616211,155.0805664,10,125L125,10
		c23.5644531,20.0751953,54.1166992,32.1938477,87.5,32.1938477C245.8828125,42.1938477,276.4355469,30.0776367,300,10.0024414z"/>
	
		<path fill-rule="evenodd" clip-rule="evenodd" fill="none" stroke="#000000" stroke-linecap="round" stroke-linejoin="round" stroke-miterlimit="3.863693" d="
		M300,10.0024414c23.5644531,20.0751953,54.1171875,32.1914063,87.5,32.1914063S451.4355469,30.0751953,475,10l115,115
		c-21.1621094,30.0805664-33.5878906,66.7539063-33.5878906,106.3266602c0,28.4633789,6.4267578,55.4248047,17.9101563,79.512207
		C584.2441406,331.6640625,590,355.3945313,590,380c0,88.3671875-71.6328125,160-160,160h-25.1132813
		C362.5419922,540,324.7509766,559.4951172,300,590c-24.7514648-30.5048828-62.5419922-50-104.8867188-50h-25.1137695
		c-88.3666992,0-160-71.6328125-160-160c0-24.6054688,5.7563477-48.3359375,15.6782227-69.1611328
		c11.4829102-24.0874023,17.9101563-51.0488281,17.9101563-79.512207C43.5878906,191.7539063,31.1616211,155.0805664,10,125L125,10
		c23.5644531,20.0751953,54.1166992,32.1938477,87.5,32.1938477C245.8828125,42.1938477,276.4355469,30.0776367,300,10.0024414z"/>
</g>
<g>
	<path fill-rule="evenodd" clip-rule="evenodd" d="M272.9882813,327.8789063
		c0,32.3232422-11.9042969,59.0908203-35.7138672,80.3027344C213.4648438,429.3945313,183.234375,440,146.5820313,440
		c-25.6855469,0-49.3505859-5.4833984-70.9960938-16.4501953l22.078125-40.6923828
		c13.5644531,6.9257813,31.8901367,10.3896484,54.9785156,10.3896484c21.0673828,0,38.7446289-6.2050781,53.0302734-18.6142578
		c14.2856445-12.4101563,21.4287109-27.9951172,21.4287109-46.7539063c0-14.140625-5.0507813-26.1181641-15.1518555-35.9306641
		s-22.3666992-14.71875-36.7963867-14.71875c-10.1015625,0-18.2539063,2.0205078-24.4589844,6.0610352
		c-6.2050781,4.0400391-13.6362305,12.1210938-22.2939453,24.2426758l-45.8876953-12.9873047l7.359375-149.7836914h166.6660156
		v45.887207H134.4604492l-3.0302734,47.6191406c19.0473633-5.1948242,33.9106445-7.7919922,44.5888672-7.7919922
		c26.5512695,0,49.3505859,9.5957031,68.3979492,28.7875977
		C263.4648438,278.4560547,272.9882813,301.328125,272.9882813,327.8789063z"/>
	<path fill-rule="evenodd" clip-rule="evenodd" d="M524.4140625,362.5107422h-27.7060547v72.2939453h-45.8876953v-72.2939453
		H307.5302734v-27.2724609L450.8203125,144.762207h45.8876953v176.190918h27.7060547V362.5107422z M450.8203125,320.953125
		V211.8618164L368.5693359,320.953125H450.8203125z"/>
</g>
</svg>
