<?xml version="1.0" encoding="utf-8"?>
<!-- Generator: Adobe Illustrator 12.0.0, SVG Export Plug-In . SVG Version: 6.00 Build 51448)  -->
<!DOCTYPE svg PUBLIC "-//W3C//DTD SVG 1.1//EN" "http://www.w3.org/Graphics/SVG/1.1/DTD/svg11.dtd" [
	<!ENTITY ns_svg "http://www.w3.org/2000/svg">
	<!ENTITY ns_xlink "http://www.w3.org/1999/xlink">
]>
<svg  version="1.1" id="Layer_1" xmlns="&ns_svg;" xmlns:xlink="&ns_xlink;" width="600" height="600" viewBox="0 0 600 600"
	 overflow="visible" enable-background="new 0 0 600 600" xml:space="preserve">
<g>
	<path d="M0,50C0,22.3857422,22.3852539,0,50,0h500c27.6142578,0,50,22.3857422,50,50v500c0,27.6152344-22.3857422,50-50,50H50
		c-27.6147461,0-50-22.3847656-50-50V50L0,50z"/>
	<path d="M300,300"/>
</g>
<g>
	<path fill-rule="evenodd" clip-rule="evenodd" fill="#FFFFFF" d="M300,10.0024414
		c23.5644531,20.0751953,54.1171875,32.1914063,87.5,32.1914063S451.4355469,30.0751953,475,10l115,115
		c-21.1621094,30.0805664-33.5878906,66.7539063-33.5878906,106.3266602c0,28.4633789,6.4267578,55.4248047,17.9101563,79.512207
		C584.2441406,331.6640625,590,355.3945313,590,380c0,88.3671875-71.6328125,160-160,160h-25.1132813
		C362.5419922,540,324.7509766,559.4951172,300,590c-24.7514648-30.5048828-62.5419922-50-104.8867188-50h-25.1137695
		c-88.3666992,0-160-71.6328125-160-160c0-24.6054688,5.7563477-48.3359375,15.6787109-69.1611328
		c11.4824219-24.0874023,17.9101563-51.0488281,17.9101563-79.512207C43.5883789,191.7539063,31.1616211,155.0805664,10,125L125,10
		c23.5644531,20.0751953,54.1166992,32.1938477,87.5,32.1938477C245.8828125,42.1938477,276.4355469,30.0776367,300,10.0024414z"/>
	
		<path fill-rule="evenodd" clip-rule="evenodd" fill="none" stroke="#000000" stroke-linecap="round" stroke-linejoin="round" stroke-miterlimit="3.863693" d="
		M300,10.0024414c23.5644531,20.0751953,54.1171875,32.1914063,87.5,32.1914063S451.4355469,30.0751953,475,10l115,115
		c-21.1621094,30.0805664-33.5878906,66.7539063-33.5878906,106.3266602c0,28.4633789,6.4267578,55.4248047,17.9101563,79.512207
		C584.2441406,331.6640625,590,355.3945313,590,380c0,88.3671875-71.6328125,160-160,160h-25.1132813
		C362.5419922,540,324.7509766,559.4951172,300,590c-24.7514648-30.5048828-62.5419922-50-104.8867188-50h-25.1137695
		c-88.3666992,0-160-71.6328125-160-160c0-24.6054688,5.7563477-48.3359375,15.6787109-69.1611328
		c11.4824219-24.0874023,17.9101563-51.0488281,17.9101563-79.512207C43.5883789,191.7539063,31.1616211,155.0805664,10,125L125,10
		c23.5644531,20.0751953,54.1166992,32.1938477,87.5,32.1938477C245.8828125,42.1938477,276.4355469,30.0776367,300,10.0024414z"/>
</g>
<g>
	<path fill-rule="evenodd" clip-rule="evenodd" d="M271.6899414,327.8789063
		c0,32.3232422-11.9047852,59.0908203-35.7143555,80.3027344C212.1660156,429.3945313,181.9355469,440,145.2832031,440
		c-25.6855469,0-49.3505859-5.4833984-70.9956055-16.4501953l22.0776367-40.6923828
		c13.5644531,6.9257813,31.890625,10.3896484,54.9785156,10.3896484c21.0678711,0,38.7446289-6.2050781,53.0302734-18.6142578
		c14.2856445-12.4101563,21.4287109-27.9951172,21.4287109-46.7539063c0-14.140625-5.0507813-26.1181641-15.1518555-35.9306641
		s-22.3662109-14.71875-36.7963867-14.71875c-10.1010742,0-18.2539063,2.0205078-24.4589844,6.0610352
		c-6.2045898,4.0400391-13.6362305,12.1210938-22.2944336,24.2426758l-45.887207-12.9873047l7.359375-149.7836914h166.6665039
		v45.887207H133.1621094l-3.0302734,47.6191406c19.0473633-5.1948242,33.9101563-7.7919922,44.5883789-7.7919922
		c26.5512695,0,49.3510742,9.5957031,68.3984375,28.7875977S271.6899414,301.328125,271.6899414,327.8789063z"/>
	<path fill-rule="evenodd" clip-rule="evenodd" d="M525.7128906,434.8046875H328.3105469
		c0.8652344-32.3222656,8.9462891-61.7597656,24.2421875-88.3105469
		c11.8320313-20.7792969,28.859375-39.5390625,51.0820313-56.2773438c3.1738281-2.0205078,7.5039063-5.0507813,12.9863281-9.0908203
		l15.1523438-8.2250977l28.5712891-16.0175781c12.9873047-7.503418,19.4804688-18.0375977,19.4804688-31.6015625
		c0-10.6782227-5.2666016-19.769043-15.8007813-27.2729492c-10.5341797-7.503418-22.8720703-11.2553711-37.0126953-11.2553711
		c-30.015625,0-47.6191406,13.5644531-52.8144531,40.6923828l-45.8867188-10.3891602
		c4.90625-23.9541016,16.2333984-42.7851563,33.9824219-56.4936523c17.7480469-13.7084961,39.3212891-20.5625,64.71875-20.5625
		c27.4160156,0,50.7207031,8.3691406,69.9130859,25.1079102c19.1914063,16.7387695,28.7880859,37.0854492,28.7880859,61.0390625
		c0,24.2426758-9.8125,45.0214844-29.4375,62.3374023c-3.7519531,3.1748047-7.9365234,5.7719727-12.5546875,7.7924805
		l-14.2851563,9.5234375l-15.1513672,7.7929688l-14.2861328,8.2246094
		c-24.8193359,14.4296875-43.7226563,36.5078125-56.7099609,66.234375h142.4248047V434.8046875z"/>
</g>
</svg>
