<?xml version="1.0" encoding="utf-8"?>
<!-- Generator: Adobe Illustrator 12.0.0, SVG Export Plug-In . SVG Version: 6.00 Build 51448)  -->
<!DOCTYPE svg PUBLIC "-//W3C//DTD SVG 1.1//EN" "http://www.w3.org/Graphics/SVG/1.1/DTD/svg11.dtd" [
	<!ENTITY ns_svg "http://www.w3.org/2000/svg">
	<!ENTITY ns_xlink "http://www.w3.org/1999/xlink">
]>
<svg  version="1.1" id="Layer_1" xmlns="&ns_svg;" xmlns:xlink="&ns_xlink;" width="600" height="600" viewBox="0 0 600 600"
	 overflow="visible" enable-background="new 0 0 600 600" xml:space="preserve">
<g>
	<path d="M0,50C0,22.3857422,22.3852539,0,50,0h500c27.6142578,0,50,22.3857422,50,50v500c0,27.6152344-22.3857422,50-50,50H50
		c-27.6147461,0-50-22.3847656-50-50V50L0,50z"/>
	<path d="M300,300"/>
</g>
<g>
	<path fill-rule="evenodd" clip-rule="evenodd" fill="#FFFFFF" d="M300,10.0024414
		c23.5644531,20.0751953,54.1171875,32.1914063,87.5,32.1914063S451.4355469,30.0751953,475,10l115,115
		c-21.1621094,30.0805664-33.5878906,66.7539063-33.5878906,106.3266602c0,28.4633789,6.4267578,55.4248047,17.9101563,79.512207
		C584.2441406,331.6640625,590,355.3945313,590,380c0,88.3671875-71.6328125,160-160,160h-25.1132813
		C362.5419922,540,324.7509766,559.4951172,300,590c-24.7514648-30.5048828-62.5419922-50-104.8867188-50h-25.1137695
		c-88.3666992,0-160-71.6328125-160-160c0-24.6054688,5.7563477-48.3359375,15.6782227-69.1611328
		c11.4829102-24.0874023,17.9101563-51.0488281,17.9101563-79.512207C43.5878906,191.7539063,31.1616211,155.0805664,10,125L125,10
		c23.5644531,20.0751953,54.1171875,32.1938477,87.5,32.1938477S276.4355469,30.0776367,300,10.0024414z"/>
	
		<path fill-rule="evenodd" clip-rule="evenodd" fill="none" stroke="#000000" stroke-linecap="round" stroke-linejoin="round" stroke-miterlimit="3.863693" d="
		M300,10.0024414c23.5644531,20.0751953,54.1171875,32.1914063,87.5,32.1914063S451.4355469,30.0751953,475,10l115,115
		c-21.1621094,30.0805664-33.5878906,66.7539063-33.5878906,106.3266602c0,28.4633789,6.4267578,55.4248047,17.9101563,79.512207
		C584.2441406,331.6640625,590,355.3945313,590,380c0,88.3671875-71.6328125,160-160,160h-25.1132813
		C362.5419922,540,324.7509766,559.4951172,300,590c-24.7514648-30.5048828-62.5419922-50-104.8867188-50h-25.1137695
		c-88.3666992,0-160-71.6328125-160-160c0-24.6054688,5.7563477-48.3359375,15.6782227-69.1611328
		c11.4829102-24.0874023,17.9101563-51.0488281,17.9101563-79.512207C43.5878906,191.7539063,31.1616211,155.0805664,10,125L125,10
		c23.5644531,20.0751953,54.1171875,32.1938477,87.5,32.1938477S276.4355469,30.0776367,300,10.0024414z"/>
</g>
<g>
	<path fill-rule="evenodd" clip-rule="evenodd" d="M274.5039063,327.8789063
		c0,32.3232422-11.9047852,59.0908203-35.7143555,80.3027344C214.9799805,429.3945313,184.7490234,440,148.097168,440
		c-25.6855469,0-49.3510742-5.4833984-70.9956055-16.4501953l22.0776367-40.6923828
		c13.5639648,6.9257813,31.8901367,10.3896484,54.9780273,10.3896484c21.0683594,0,38.7451172-6.2050781,53.0302734-18.6142578
		c14.2861328-12.4101563,21.4287109-27.9951172,21.4287109-46.7539063c0-14.140625-5.050293-26.1181641-15.1513672-35.9306641
		s-22.3662109-14.71875-36.796875-14.71875c-10.1005859,0-18.2539063,2.0205078-24.4584961,6.0610352
		c-6.2045898,4.0400391-13.6362305,12.1210938-22.2944336,24.2426758l-45.8876953-12.9873047L91.387207,144.762207h166.6665039
		v45.887207h-122.078125l-3.0302734,47.6191406c19.0478516-5.1948242,33.9111328-7.7919922,44.5888672-7.7919922
		c26.5512695,0,49.3505859,9.5957031,68.3984375,28.7875977
		C264.9799805,278.4560547,274.5039063,301.328125,274.5039063,327.8789063z"/>
	<path fill-rule="evenodd" clip-rule="evenodd" d="M522.8984375,339.1347656
		c0,29.7255859-9.3066406,53.9677734-27.921875,72.7265625C476.3613281,430.6210938,452.3359375,440,422.8984375,440
		c-23.3769531,0-43.7949219-7.0703125-61.2548828-21.2128906c-17.4599609-14.140625-29.2216797-32.8994141-35.2822266-56.2763672
		l44.5888672-12.9873047c7.5039063,29.1494141,25.5419922,43.7236328,54.1132813,43.7236328
		c15.2958984,0,27.7773438-4.8339844,37.4453125-14.5029297c9.6689453-9.6679688,14.5029297-21.8613281,14.5029297-36.5800781
		c0-16.7382813-5.484375-28.859375-16.4511719-36.3632813c-4.6171875-3.4628906-14.4296875-5.6269531-29.4365234-6.4931641
		c0,0-1.7314453,0-5.1943359,0v-45.4545898h11.2548828c19.0478516,0,28.5712891-9.5239258,28.5712891-28.5712891
		c0-11.2553711-4.0410156-20.4907227-12.1210938-27.7055664c-8.0810547-7.215332-17.8935547-10.8227539-29.4375-10.8227539
		c-19.3359375,0-33.9101563,9.3793945-43.7226563,28.1386719l-42.8574219-16.0175781
		c7.5039063-18.4702148,18.9033203-32.9003906,34.1992188-43.2895508
		c15.2958984-10.3901367,32.3232422-15.5844727,51.0820313-15.5844727c24.53125,0,45.4550781,8.5854492,62.7705078,25.7573242
		c17.3164063,17.171875,25.9746094,38.0229492,25.9746094,62.5541992c0,15.5844727-5.4833984,31.4575195-16.4501953,47.6191406
		c10.6777344,9.8125,17.9648438,19.1918945,21.8613281,28.1381836
		C520.9501953,313.015625,522.8984375,324.7050781,522.8984375,339.1347656z"/>
</g>
</svg>
