<?xml version="1.0" encoding="utf-8"?>
<!-- Generator: Adobe Illustrator 12.0.0, SVG Export Plug-In . SVG Version: 6.00 Build 51448)  -->
<!DOCTYPE svg PUBLIC "-//W3C//DTD SVG 1.1//EN" "http://www.w3.org/Graphics/SVG/1.1/DTD/svg11.dtd" [
	<!ENTITY ns_svg "http://www.w3.org/2000/svg">
	<!ENTITY ns_xlink "http://www.w3.org/1999/xlink">
]>
<svg  version="1.1" id="Layer_1" xmlns="&ns_svg;" xmlns:xlink="&ns_xlink;" width="600" height="600" viewBox="0 0 600 600"
	 overflow="visible" enable-background="new 0 0 600 600" xml:space="preserve">
<g>
	<path d="M0,50C0,22.3857422,22.3852539,0,50,0h500c27.6142578,0,50,22.3857422,50,50v500c0,27.6152344-22.3857422,50-50,50H50
		c-27.6147461,0-50-22.3847656-50-50V50L0,50z"/>
	<path d="M300,300"/>
</g>
<g>
	<path fill-rule="evenodd" clip-rule="evenodd" fill="#FFFFFF" d="M300,10.0024414
		c23.5644531,20.0751953,54.1171875,32.1918945,87.5,32.1918945S451.4355469,30.0751953,475,10l115,115
		c-21.1621094,30.0805664-33.5878906,66.7539063-33.5878906,106.3271484c0,28.4628906,6.4267578,55.4238281,17.9101563,79.5117188
		C584.2441406,331.6640625,590,355.3945313,590,380c0,88.3671875-71.6328125,160-160,160h-25.1132813
		C362.5419922,540,324.7509766,559.4951172,300,590c-24.7514648-30.5048828-62.5419922-50-104.8867188-50h-25.1137695
		c-88.3666992,0-160-71.6328125-160-160c0-24.6054688,5.7563477-48.3359375,15.6787109-69.1611328
		c11.4824219-24.0878906,17.9101563-51.0488281,17.9101563-79.5117188C43.5883789,191.7539063,31.1616211,155.0805664,10,125L125,10
		c23.5644531,20.0751953,54.1166992,32.1943359,87.5,32.1943359C245.8828125,42.1943359,276.4355469,30.0776367,300,10.0024414z"/>
	
		<path fill-rule="evenodd" clip-rule="evenodd" fill="none" stroke="#000000" stroke-linecap="round" stroke-linejoin="round" stroke-miterlimit="3.863693" d="
		M300,10.0024414c23.5644531,20.0751953,54.1171875,32.1918945,87.5,32.1918945S451.4355469,30.0751953,475,10l115,115
		c-21.1621094,30.0805664-33.5878906,66.7539063-33.5878906,106.3271484c0,28.4628906,6.4267578,55.4238281,17.9101563,79.5117188
		C584.2441406,331.6640625,590,355.3945313,590,380c0,88.3671875-71.6328125,160-160,160h-25.1132813
		C362.5419922,540,324.7509766,559.4951172,300,590c-24.7514648-30.5048828-62.5419922-50-104.8867188-50h-25.1137695
		c-88.3666992,0-160-71.6328125-160-160c0-24.6054688,5.7563477-48.3359375,15.6787109-69.1611328
		c11.4824219-24.0878906,17.9101563-51.0488281,17.9101563-79.5117188C43.5883789,191.7539063,31.1616211,155.0805664,10,125L125,10
		c23.5644531,20.0751953,54.1166992,32.1943359,87.5,32.1943359C245.8828125,42.1943359,276.4355469,30.0776367,300,10.0024414z"/>
</g>
<g>
	<path fill-rule="evenodd" clip-rule="evenodd" d="M267.5776367,351.2558594
		c0,25.1074219-9.4516602,46.1757813-28.3549805,63.203125S196.8701172,440,168.8759766,440
		s-51.4428711-8.9462891-70.3461914-26.8398438c-18.9033203-17.8925781-28.3549805-39.8261719-28.3549805-65.8007813
		c0-40.1152344,10.2456055-79.1484375,30.7358398-117.0996094C121.4013672,192.3085938,148.3857422,162.2226563,181.8632813,140
		l23.3764648,38.5283203c-31.1689453,24.2421875-54.8339844,53.3911133-70.9956055,87.4462891
		c10.6782227-2.0205078,22.222168-3.0302734,34.6318359-3.0302734c26.8398438,0,50,8.6577148,69.4804688,25.9736328
		C257.8369141,306.234375,267.5776367,327.0136719,267.5776367,351.2558594z M221.6899414,350.3896484
		c0-11.2548828-5.1948242-20.9951172-15.5844727-29.2207031c-10.3896484-8.2246094-22.7993164-12.3378906-37.2294922-12.3378906
		c-14.1411133,0-26.3344727,4.1132813-36.5800781,12.3378906c-10.2451172,8.2255859-15.3676758,17.9658203-15.3676758,29.2207031
		c0,11.8330078,5.050293,21.9335938,15.1513672,30.3037109c10.1010742,8.3691406,22.3666992,12.5537109,36.7963867,12.5537109
		c14.1416016,0,26.4794922-4.2568359,37.0131836-12.7705078S221.6899414,361.9335938,221.6899414,350.3896484z"/>
	<path fill-rule="evenodd" clip-rule="evenodd" d="M529.8251953,290.2167969
		c0,53.9677734-11.5439453,94.5166016-34.6318359,121.6445313C478.7431641,430.6210938,456.3759766,440,428.09375,440
		c-38.3837891,0-66.0898438-17.3164063-83.1171875-51.9472656c-13.5644531-27.7060547-20.3466797-60.3183594-20.3466797-97.8359375
		c0-49.9277344,10.5341797-89.1777344,31.6025391-117.7490234C372.1054688,150.8227539,396.7802734,140,430.2578125,140
		c36.3632813,0,63.2041016,17.171875,80.5195313,51.515625
		C523.4755859,217.4892578,529.8251953,250.3896484,529.8251953,290.2167969z M484.3701172,290.2167969
		c0-34.6318359-5.7714844-61.7607422-17.3154297-81.3857422c-8.3691406-13.8525391-20.9238281-21.2119141-37.6621094-22.0776367
		c-21.0683594-1.1547852-36.6523438,10.6782227-46.7539063,35.4975586
		c-7.5039063,18.4707031-11.2548828,41.1259766-11.2548828,67.9658203c0,34.6318359,5.7714844,61.4716797,17.3154297,80.5195313
		c8.9472656,15.0068359,22.078125,22.5107422,39.3945313,22.5107422c20.2021484,0,35.2089844-12.265625,45.0214844-36.796875
		C480.6191406,337.6914063,484.3701172,315.6132813,484.3701172,290.2167969z"/>
</g>
</svg>
