<?xml version="1.0" encoding="utf-8"?>
<!-- Generator: Adobe Illustrator 12.0.0, SVG Export Plug-In . SVG Version: 6.00 Build 51448)  -->
<!DOCTYPE svg PUBLIC "-//W3C//DTD SVG 1.1//EN" "http://www.w3.org/Graphics/SVG/1.1/DTD/svg11.dtd" [
	<!ENTITY ns_svg "http://www.w3.org/2000/svg">
	<!ENTITY ns_xlink "http://www.w3.org/1999/xlink">
]>
<svg  version="1.1" id="Layer_1" xmlns="&ns_svg;" xmlns:xlink="&ns_xlink;" width="600" height="600" viewBox="0 0 600 600"
	 overflow="visible" enable-background="new 0 0 600 600" xml:space="preserve">
<g>
	<path d="M0,50C0,22.3857422,22.3852539,0,50,0h500c27.6142578,0,50,22.3857422,50,50v500c0,27.6152344-22.3857422,50-50,50H50
		c-27.6147461,0-50-22.3847656-50-50V50L0,50z"/>
	<path d="M300,300"/>
</g>
<g>
	<path fill-rule="evenodd" clip-rule="evenodd" fill="#FFFFFF" d="M300,10.0024414
		c23.5644531,20.0751953,54.1171875,32.1918945,87.5,32.1918945S451.4355469,30.0751953,475,10l115,115
		c-21.1621094,30.0805664-33.5878906,66.7539063-33.5878906,106.3271484c0,28.4628906,6.4267578,55.4238281,17.9101563,79.5117188
		C584.2441406,331.6640625,590,355.3945313,590,380c0,88.3671875-71.6328125,160-160,160h-25.1132813
		C362.5419922,540,324.7509766,559.4951172,300,590c-24.7514648-30.5048828-62.5419922-50-104.8867188-50h-25.1137695
		c-88.3666992,0-160-71.6328125-160-160c0-24.6054688,5.7563477-48.3359375,15.6787109-69.1611328
		c11.4824219-24.0878906,17.9101563-51.0488281,17.9101563-79.5117188C43.5883789,191.7539063,31.1616211,155.0805664,10,125L125,10
		c23.5644531,20.0751953,54.1166992,32.1943359,87.5,32.1943359C245.8828125,42.1943359,276.4355469,30.0776367,300,10.0024414z"/>
	
		<path fill-rule="evenodd" clip-rule="evenodd" fill="none" stroke="#000000" stroke-linecap="round" stroke-linejoin="round" stroke-miterlimit="3.863693" d="
		M300,10.0024414c23.5644531,20.0751953,54.1171875,32.1918945,87.5,32.1918945S451.4355469,30.0751953,475,10l115,115
		c-21.1621094,30.0805664-33.5878906,66.7539063-33.5878906,106.3271484c0,28.4628906,6.4267578,55.4238281,17.9101563,79.5117188
		C584.2441406,331.6640625,590,355.3945313,590,380c0,88.3671875-71.6328125,160-160,160h-25.1132813
		C362.5419922,540,324.7509766,559.4951172,300,590c-24.7514648-30.5048828-62.5419922-50-104.8867188-50h-25.1137695
		c-88.3666992,0-160-71.6328125-160-160c0-24.6054688,5.7563477-48.3359375,15.6787109-69.1611328
		c11.4824219-24.0878906,17.9101563-51.0488281,17.9101563-79.5117188C43.5883789,191.7539063,31.1616211,155.0805664,10,125L125,10
		c23.5644531,20.0751953,54.1166992,32.1943359,87.5,32.1943359C245.8828125,42.1943359,276.4355469,30.0776367,300,10.0024414z"/>
</g>
<g>
	<path fill-rule="evenodd" clip-rule="evenodd" d="M271.6899414,351.2558594
		c0,25.1074219-9.4516602,46.1757813-28.3549805,63.203125S200.9829102,440,172.9887695,440
		s-51.4428711-8.9462891-70.3461914-26.8398438c-18.9033203-17.8925781-28.3549805-39.8261719-28.3549805-65.8007813
		c0-40.1152344,10.2451172-79.1484375,30.7358398-117.0996094S152.4980469,162.2226563,185.9755859,140l23.3769531,38.5283203
		c-31.1689453,24.2421875-54.8339844,53.3911133-70.9960938,87.4462891
		c10.6787109-2.0205078,22.2226563-3.0302734,34.6323242-3.0302734c26.8398438,0,50,8.6577148,69.4804688,25.9736328
		C261.949707,306.234375,271.6899414,327.0136719,271.6899414,351.2558594z M225.8027344,350.3896484
		c0-11.2548828-5.1948242-20.9951172-15.5844727-29.2207031c-10.3896484-8.2246094-22.7993164-12.3378906-37.2294922-12.3378906
		c-14.1411133,0-26.3344727,4.1132813-36.5800781,12.3378906c-10.2456055,8.2255859-15.3681641,17.9658203-15.3681641,29.2207031
		c0,11.8330078,5.0507813,21.9335938,15.1518555,30.3037109c10.1005859,8.3691406,22.3662109,12.5537109,36.7963867,12.5537109
		c14.1411133,0,26.4790039-4.2568359,37.0131836-12.7705078
		C220.5356445,371.9628906,225.8027344,361.9335938,225.8027344,350.3896484z"/>
	<path fill-rule="evenodd" clip-rule="evenodd" d="M525.7128906,434.8056641H328.3105469
		c0.8652344-32.3232422,8.9462891-61.7607422,24.2421875-88.3115234
		c11.8320313-20.7792969,28.859375-39.5390625,51.0820313-56.2773438c3.1738281-2.0205078,7.5039063-5.0507813,12.9863281-9.0908203
		l15.1523438-8.2255859l28.5712891-16.0170898c12.9873047-7.503418,19.4804688-18.0375977,19.4804688-31.6020508
		c0-10.6777344-5.2666016-19.7685547-15.8007813-27.2724609c-10.5341797-7.503418-22.8720703-11.2553711-37.0126953-11.2553711
		c-30.015625,0-47.6191406,13.5639648-52.8144531,40.6923828l-45.8867188-10.3891602
		c4.90625-23.9541016,16.2333984-42.7851563,33.9824219-56.4936523C380.0410156,146.8544922,401.6142578,140,427.0117188,140
		c27.4160156,0,50.7207031,8.3696289,69.9130859,25.1083984c19.1914063,16.7392578,28.7880859,37.0849609,28.7880859,61.0390625
		c0,24.2421875-9.8125,45.0214844-29.4375,62.3374023c-3.7519531,3.1748047-7.9365234,5.7719727-12.5546875,7.7924805
		l-14.2851563,9.5234375l-15.1513672,7.7929688l-14.2861328,8.2246094
		c-24.8193359,14.4296875-43.7226563,36.5078125-56.7099609,66.234375h142.4248047V434.8056641z"/>
</g>
</svg>
