<?xml version="1.0" encoding="utf-8"?>
<!-- Generator: Adobe Illustrator 12.0.0, SVG Export Plug-In . SVG Version: 6.00 Build 51448)  -->
<!DOCTYPE svg PUBLIC "-//W3C//DTD SVG 1.1//EN" "http://www.w3.org/Graphics/SVG/1.1/DTD/svg11.dtd" [
	<!ENTITY ns_svg "http://www.w3.org/2000/svg">
	<!ENTITY ns_xlink "http://www.w3.org/1999/xlink">
]>
<svg  version="1.1" id="Layer_1" xmlns="&ns_svg;" xmlns:xlink="&ns_xlink;" width="600" height="600" viewBox="0 0 600 600"
	 overflow="visible" enable-background="new 0 0 600 600" xml:space="preserve">
<g>
	<path d="M0,50C0,22.3857422,22.3852539,0,50,0h500c27.6142578,0,50,22.3857422,50,50v500c0,27.6152344-22.3857422,50-50,50H50
		c-27.6147461,0-50-22.3847656-50-50V50L0,50z"/>
	<path d="M300,300"/>
</g>
<g>
	<path fill-rule="evenodd" clip-rule="evenodd" fill="#FFFFFF" d="M300,10.0024414
		c23.5644531,20.0751953,54.1171875,32.1918945,87.5,32.1918945S451.4355469,30.0751953,475,10l115,115
		c-21.1621094,30.0805664-33.5878906,66.7539063-33.5878906,106.3271484c0,28.4628906,6.4267578,55.4238281,17.9101563,79.5117188
		C584.2441406,331.6640625,590,355.3945313,590,380c0,88.3671875-71.6328125,160-160,160h-25.1132813
		C362.5419922,540,324.7509766,559.4951172,300,590c-24.7514648-30.5048828-62.5424805-50-104.8867188-50h-25.1137695
		c-88.3666992,0-160-71.6328125-160-160c0-24.6054688,5.7558594-48.3359375,15.6782227-69.1611328
		c11.4829102-24.0878906,17.9106445-51.0488281,17.9106445-79.5117188C43.5883789,191.7539063,31.1616211,155.0805664,10,125L125,10
		c23.5644531,20.0751953,54.1166992,32.1943359,87.5,32.1943359C245.8828125,42.1943359,276.4355469,30.0776367,300,10.0024414z"/>
	
		<path fill-rule="evenodd" clip-rule="evenodd" fill="none" stroke="#000000" stroke-linecap="round" stroke-linejoin="round" stroke-miterlimit="3.863693" d="
		M300,10.0024414c23.5644531,20.0751953,54.1171875,32.1918945,87.5,32.1918945S451.4355469,30.0751953,475,10l115,115
		c-21.1621094,30.0805664-33.5878906,66.7539063-33.5878906,106.3271484c0,28.4628906,6.4267578,55.4238281,17.9101563,79.5117188
		C584.2441406,331.6640625,590,355.3945313,590,380c0,88.3671875-71.6328125,160-160,160h-25.1132813
		C362.5419922,540,324.7509766,559.4951172,300,590c-24.7514648-30.5048828-62.5424805-50-104.8867188-50h-25.1137695
		c-88.3666992,0-160-71.6328125-160-160c0-24.6054688,5.7558594-48.3359375,15.6782227-69.1611328
		c11.4829102-24.0878906,17.9106445-51.0488281,17.9106445-79.5117188C43.5883789,191.7539063,31.1616211,155.0805664,10,125L125,10
		c23.5644531,20.0751953,54.1166992,32.1943359,87.5,32.1943359C245.8828125,42.1943359,276.4355469,30.0776367,300,10.0024414z"/>
</g>
<g>
	<path fill-rule="evenodd" clip-rule="evenodd" d="M276.2353516,351.2558594
		c0,25.1074219-9.4516602,46.1757813-28.3549805,63.203125S205.5283203,440,177.5341797,440
		s-51.4433594-8.9462891-70.3461914-26.8398438c-18.9033203-17.8925781-28.3554688-39.8261719-28.3554688-65.8007813
		c0-40.1152344,10.2456055-79.1484375,30.7363281-117.0996094C130.059082,192.3085938,157.043457,162.2226563,190.5209961,140
		l23.3764648,38.5283203c-31.1679688,24.2421875-54.8339844,53.3911133-70.9956055,87.4462891
		c10.6782227-2.0205078,22.222168-3.0302734,34.6323242-3.0302734c26.840332,0,50,8.6577148,69.4804688,25.9736328
		C266.4951172,306.234375,276.2353516,327.0136719,276.2353516,351.2558594z M230.3481445,350.3896484
		c0-11.2548828-5.1953125-20.9951172-15.5844727-29.2207031c-10.3891602-8.2246094-22.7998047-12.3378906-37.2294922-12.3378906
		c-14.1416016,0-26.3349609,4.1132813-36.5800781,12.3378906c-10.2456055,8.2255859-15.3681641,17.9658203-15.3681641,29.2207031
		c0,11.8330078,5.0507813,21.9335938,15.1518555,30.3037109c10.1005859,8.3691406,22.3662109,12.5537109,36.7963867,12.5537109
		c14.1411133,0,26.4790039-4.2568359,37.0126953-12.7705078
		C225.0810547,371.9628906,230.3481445,361.9335938,230.3481445,350.3896484z"/>
	<path fill-rule="evenodd" clip-rule="evenodd" d="M521.1669922,190.6494141
		c-5.4833984,6.3496094-13.9970703,17.8935547-25.5410156,34.6318359
		c-27.4169922,45.8876953-45.4541016,92.0634766-54.1123047,138.5283203
		c-4.0410156,21.6455078-6.0605469,45.3105469-6.0605469,70.9960938h-46.7539063
		c0.8662109-64.9355469,14.71875-126.2626953,41.5585938-183.9829102
		c9.5234375-20.4907227,20.4902344-40.5483398,32.9003906-60.1733398H324.6308594v-45.887207h196.5361328V190.6494141z"/>
</g>
</svg>
