<?xml version="1.0" encoding="UTF-8" standalone="no"?>
<!-- Generator: Adobe Illustrator 12.0.0, SVG Export Plug-In . SVG Version: 6.00 Build 51448)  -->
<svg
   xmlns:dc="http://purl.org/dc/elements/1.1/"
   xmlns:cc="http://web.resource.org/cc/"
   xmlns:rdf="http://www.w3.org/1999/02/22-rdf-syntax-ns#"
   xmlns:svg="http://www.w3.org/2000/svg"
   xmlns="http://www.w3.org/2000/svg"
   xmlns:sodipodi="http://sodipodi.sourceforge.net/DTD/sodipodi-0.dtd"
   xmlns:inkscape="http://www.inkscape.org/namespaces/inkscape"
   version="1.1"
   id="Layer_1"
   width="600"
   height="600"
   viewBox="0 0 600 600"
   overflow="visible"
   enable-background="new 0 0 600 600"
   xml:space="preserve"
   sodipodi:version="0.32"
   inkscape:version="0.45"
   sodipodi:docname="US_6.svg"
   inkscape:output_extension="org.inkscape.output.svg.inkscape"
   sodipodi:docbase="C:\Documents and Settings\zcohen\Desktop"><metadata
   id="metadata2234"><rdf:RDF><cc:Work
       rdf:about=""><dc:format>image/svg+xml</dc:format><dc:type
         rdf:resource="http://purl.org/dc/dcmitype/StillImage" /></cc:Work></rdf:RDF></metadata><defs
   id="defs2232" /><sodipodi:namedview
   inkscape:window-height="582"
   inkscape:window-width="746"
   inkscape:pageshadow="2"
   inkscape:pageopacity="0.0"
   guidetolerance="10.0"
   gridtolerance="10.0"
   objecttolerance="10.0"
   borderopacity="1.0"
   bordercolor="#666666"
   pagecolor="#ffffff"
   id="base"
   inkscape:zoom="0.65666667"
   inkscape:cx="300"
   inkscape:cy="300"
   inkscape:window-x="0"
   inkscape:window-y="0"
   inkscape:current-layer="Layer_1" />
<g
   id="g2217">
	<path
   d="M0,50C0,22.3857422,22.3852539,0,50,0h500c27.6142578,0,50,22.3857422,50,50v500c0,27.6152344-22.3857422,50-50,50H50   c-27.6147461,0-50-22.3847656-50-50V50L0,50z"
   id="path2219" />
	<path
   d="M300,300"
   id="path2221" />
</g>
<g
   id="g2223">
	<path
   fill-rule="evenodd"
   clip-rule="evenodd"
   fill="#FFFFFF"
   d="M300,10.0029297   c23.5644531,20.0751953,54.1171875,32.1914063,87.5,32.1914063S451.4355469,30.0751953,475,10l115,115   c-21.1621094,30.0810547-33.5878906,66.7539063-33.5878906,106.3261719c0,28.4638672,6.4267578,55.4248047,17.9101563,79.5126953   C584.2441406,331.6640625,590,355.3945313,590,380c0,88.3671875-71.6328125,160-160,160h-25.1132813   C362.5419922,540,324.7509766,559.4951172,300,590c-24.7514648-30.5048828-62.5419922-50-104.8867188-50h-25.1137695   c-88.3666992,0-160-71.6328125-160-160c0-24.6054688,5.7558594-48.3359375,15.6782227-69.1611328   c11.4829102-24.0878906,17.9106445-51.0488281,17.9106445-79.5126953C43.5883789,191.7539063,31.1616211,155.0810547,10,125L125,10   c23.5644531,20.0751953,54.1166992,32.1943359,87.5,32.1943359C245.8828125,42.1943359,276.4355469,30.078125,300,10.0029297z"
   id="path2225" />
	
		<path
   fill-rule="evenodd"
   clip-rule="evenodd"
   fill="none"
   stroke="#000000"
   stroke-linecap="round"
   stroke-linejoin="round"
   stroke-miterlimit="3.863693"
   d="   M300,10.0029297c23.5644531,20.0751953,54.1171875,32.1914063,87.5,32.1914063S451.4355469,30.0751953,475,10l115,115   c-21.1621094,30.0810547-33.5878906,66.7539063-33.5878906,106.3261719c0,28.4638672,6.4267578,55.4248047,17.9101563,79.5126953   C584.2441406,331.6640625,590,355.3945313,590,380c0,88.3671875-71.6328125,160-160,160h-25.1132813   C362.5419922,540,324.7509766,559.4951172,300,590c-24.7514648-30.5048828-62.5419922-50-104.8867188-50h-25.1137695   c-88.3666992,0-160-71.6328125-160-160c0-24.6054688,5.7558594-48.3359375,15.6782227-69.1611328   c11.4829102-24.0878906,17.9106445-51.0488281,17.9106445-79.5126953C43.5883789,191.7539063,31.1616211,155.0810547,10,125L125,10   c23.5644531,20.0751953,54.1166992,32.1943359,87.5,32.1943359C245.8828125,42.1943359,276.4355469,30.078125,300,10.0029297z"
   id="path2227" />
</g>
<path
   fill-rule="evenodd"
   clip-rule="evenodd"
   d="M398.7011719,351.2558594c0,25.1083984-9.4511719,46.1757813-28.3554688,63.203125  C351.4433594,431.4863281,327.9941406,440,300,440s-51.4428711-8.9462891-70.3461914-26.8398438  c-18.9033203-17.8925781-28.3554688-39.8261719-28.3554688-65.8007813c0-40.1162109,10.2460938-79.1484375,30.7363281-117.0996094  C252.5253906,192.3085938,279.5092773,162.2226563,312.9873047,140l23.3759766,38.5283203  c-31.1679688,24.2421875-54.8339844,53.3916016-70.9951172,87.4462891  c10.6777344-2.0214844,22.2216797-3.0302734,34.6318359-3.0302734c26.8398438,0,50,8.6582031,69.4804688,25.9736328  C388.9609375,306.234375,398.7011719,327.0136719,398.7011719,351.2558594z M352.8144531,350.3896484  c0-11.2548828-5.1953125-20.9951172-15.5849609-29.2207031C326.8398438,312.9443359,314.4296875,308.8310547,300,308.8310547  c-14.1416016,0-26.3349609,4.1132813-36.5800781,12.3378906c-10.2456055,8.2255859-15.3676758,17.9658203-15.3676758,29.2207031  c0,11.8330078,5.050293,21.9335938,15.1513672,30.3037109C273.3041992,389.0625,285.5698242,393.2470703,300,393.2470703  c14.140625,0,26.4785156-4.2568359,37.0136719-12.7705078C347.546875,371.9628906,352.8134766,361.9335938,352.8144531,350.3896484z  "
   id="path2229" />
</svg>