<?xml version="1.0" encoding="utf-8"?>
<!-- Generator: Adobe Illustrator 12.0.0, SVG Export Plug-In . SVG Version: 6.00 Build 51448)  -->
<!DOCTYPE svg PUBLIC "-//W3C//DTD SVG 1.1//EN" "http://www.w3.org/Graphics/SVG/1.1/DTD/svg11.dtd" [
	<!ENTITY ns_svg "http://www.w3.org/2000/svg">
	<!ENTITY ns_xlink "http://www.w3.org/1999/xlink">
]>
<svg  version="1.1" id="Layer_1" xmlns="&ns_svg;" xmlns:xlink="&ns_xlink;" width="600" height="600" viewBox="0 0 600 600"
	 overflow="visible" enable-background="new 0 0 600 600" xml:space="preserve">
<g>
	<path d="M0,50C0,22.3857422,22.3852539,0,50,0h500c27.6142578,0,50,22.3857422,50,50v500c0,27.6152344-22.3857422,50-50,50H50
		c-27.6147461,0-50-22.3847656-50-50V50L0,50z"/>
	<path d="M300,300"/>
</g>
<g>
	<path fill-rule="evenodd" clip-rule="evenodd" fill="#FFFFFF" d="M300,10.0024414
		c23.5644531,20.0751953,54.1171875,32.1918945,87.5,32.1918945S451.4355469,30.0751953,475,10l115,115
		c-21.1621094,30.0805664-33.5878906,66.7539063-33.5878906,106.3271484c0,28.4628906,6.4267578,55.4238281,17.9101563,79.5117188
		C584.2441406,331.6640625,590,355.3945313,590,380c0,88.3671875-71.6328125,160-160,160h-25.1132813
		C362.5419922,540,324.7509766,559.4951172,300,590c-24.7514648-30.5048828-62.5419922-50-104.8867188-50h-25.1137695
		c-88.3666992,0-160-71.6328125-160-160c0-24.6054688,5.7563477-48.3359375,15.6782227-69.1611328
		c11.4829102-24.0878906,17.9101563-51.0488281,17.9101563-79.5117188C43.5878906,191.7539063,31.1611328,155.0805664,10,125L125,10
		c23.5644531,20.0751953,54.1166992,32.1943359,87.5,32.1943359C245.8828125,42.1943359,276.4355469,30.0776367,300,10.0024414z"/>
	
		<path fill-rule="evenodd" clip-rule="evenodd" fill="none" stroke="#000000" stroke-linecap="round" stroke-linejoin="round" stroke-miterlimit="3.863693" d="
		M300,10.0024414c23.5644531,20.0751953,54.1171875,32.1918945,87.5,32.1918945S451.4355469,30.0751953,475,10l115,115
		c-21.1621094,30.0805664-33.5878906,66.7539063-33.5878906,106.3271484c0,28.4628906,6.4267578,55.4238281,17.9101563,79.5117188
		C584.2441406,331.6640625,590,355.3945313,590,380c0,88.3671875-71.6328125,160-160,160h-25.1132813
		C362.5419922,540,324.7509766,559.4951172,300,590c-24.7514648-30.5048828-62.5419922-50-104.8867188-50h-25.1137695
		c-88.3666992,0-160-71.6328125-160-160c0-24.6054688,5.7563477-48.3359375,15.6782227-69.1611328
		c11.4829102-24.0878906,17.9101563-51.0488281,17.9101563-79.5117188C43.5878906,191.7539063,31.1611328,155.0805664,10,125L125,10
		c23.5644531,20.0751953,54.1166992,32.1943359,87.5,32.1943359C245.8828125,42.1943359,276.4355469,30.0776367,300,10.0024414z"/>
</g>
<g>
	<path fill-rule="evenodd" clip-rule="evenodd" d="M271.6899414,351.2558594
		c0,25.1074219-9.4516602,46.1757813-28.3549805,63.203125S200.9833984,440,172.9887695,440
		c-27.9941406,0-51.4428711-8.9462891-70.3466797-26.8398438c-18.902832-17.8925781-28.3549805-39.8261719-28.3549805-65.8007813
		c0-40.1152344,10.2456055-79.1484375,30.7363281-117.0996094S152.4980469,162.2226563,185.9755859,140l23.3764648,38.5283203
		c-31.168457,24.2421875-54.8339844,53.3911133-70.9956055,87.4462891
		c10.6782227-2.0205078,22.222168-3.0302734,34.6323242-3.0302734c26.8398438,0,50,8.6577148,69.4804688,25.9736328
		C261.949707,306.234375,271.6899414,327.0136719,271.6899414,351.2558594z M225.8027344,350.3896484
		c0-11.2548828-5.1948242-20.9951172-15.5844727-29.2207031c-10.3896484-8.2246094-22.7998047-12.3378906-37.2294922-12.3378906
		c-14.1416016,0-26.3344727,4.1132813-36.5800781,12.3378906c-10.2456055,8.2255859-15.3681641,17.9658203-15.3681641,29.2207031
		c0,11.8330078,5.0507813,21.9335938,15.1513672,30.3037109c10.1010742,8.3691406,22.3666992,12.5537109,36.796875,12.5537109
		c14.1411133,0,26.4790039-4.2568359,37.0126953-12.7705078
		C220.5356445,371.9628906,225.8027344,361.9335938,225.8027344,350.3896484z"/>
	<path fill-rule="evenodd" clip-rule="evenodd" d="M525.7128906,327.8789063
		c0,32.3232422-11.9052734,59.0908203-35.7148438,80.3027344C466.1884766,429.3945313,435.9580078,440,399.3056641,440
		c-25.6855469,0-49.3505859-5.4833984-70.9951172-16.4501953l22.0771484-40.6923828
		c13.5644531,6.9257813,31.890625,10.3896484,54.9785156,10.3896484c21.0673828,0,38.7451172-6.2050781,53.0302734-18.6142578
		c14.2851563-12.4101563,21.4287109-27.9951172,21.4287109-46.7539063c0-14.1416016-5.0507813-26.1181641-15.1513672-35.9306641
		c-10.1015625-9.8125-22.3671875-14.71875-36.796875-14.71875c-10.1005859,0-18.2539063,2.0205078-24.4589844,6.0605469
		c-6.2050781,4.0410156-13.6367188,12.1210938-22.2949219,24.2431641l-45.8867188-12.9873047l7.359375-149.7836914h166.6660156
		v45.887207h-122.078125l-3.0292969,47.6191406c19.046875-5.1948242,33.9101563-7.7919922,44.5878906-7.7919922
		c26.5517578,0,49.3515625,9.5957031,68.3984375,28.7880859
		C516.1884766,278.4560547,525.7128906,301.328125,525.7128906,327.8789063z"/>
</g>
</svg>
