<?xml version="1.0" encoding="utf-8"?>
<!-- Generator: Adobe Illustrator 12.0.0, SVG Export Plug-In . SVG Version: 6.00 Build 51448)  -->
<!DOCTYPE svg PUBLIC "-//W3C//DTD SVG 1.1//EN" "http://www.w3.org/Graphics/SVG/1.1/DTD/svg11.dtd" [
	<!ENTITY ns_svg "http://www.w3.org/2000/svg">
	<!ENTITY ns_xlink "http://www.w3.org/1999/xlink">
]>
<svg  version="1.1" id="Layer_1" xmlns="&ns_svg;" xmlns:xlink="&ns_xlink;" width="600" height="600" viewBox="0 0 600 600"
	 overflow="visible" enable-background="new 0 0 600 600" xml:space="preserve">
<g>
	<path d="M0,50C0,22.3857422,22.3852539,0,50,0h500c27.6142578,0,50,22.3857422,50,50v500c0,27.6152344-22.3857422,50-50,50H50
		c-27.6147461,0-50-22.3847656-50-50V50L0,50z"/>
	<path d="M300,300"/>
</g>
<g>
	<path fill-rule="evenodd" clip-rule="evenodd" fill="#FFFFFF" d="M300,10.0024414
		c23.5644531,20.0751953,54.1171875,32.1918945,87.5,32.1918945S451.4355469,30.0751953,475,10l115,115
		c-21.1621094,30.0805664-33.5878906,66.7539063-33.5878906,106.3271484c0,28.4628906,6.4267578,55.4238281,17.9101563,79.5117188
		C584.2441406,331.6640625,590,355.3945313,590,380c0,88.3671875-71.6328125,160-160,160h-25.1132813
		C362.5419922,540,324.7509766,559.4951172,300,590c-24.7514648-30.5048828-62.5424805-50-104.8867188-50h-25.1137695
		c-88.3666992,0-160-71.6328125-160-160c0-24.6054688,5.7558594-48.3359375,15.6782227-69.1611328
		c11.4829102-24.0878906,17.9101563-51.0488281,17.9101563-79.5117188C43.5878906,191.7539063,31.1616211,155.0805664,10,125L125,10
		c23.5644531,20.0751953,54.1166992,32.1943359,87.5,32.1943359C245.8828125,42.1943359,276.4355469,30.0776367,300,10.0024414z"/>
	
		<path fill-rule="evenodd" clip-rule="evenodd" fill="none" stroke="#000000" stroke-linecap="round" stroke-linejoin="round" stroke-miterlimit="3.863693" d="
		M300,10.0024414c23.5644531,20.0751953,54.1171875,32.1918945,87.5,32.1918945S451.4355469,30.0751953,475,10l115,115
		c-21.1621094,30.0805664-33.5878906,66.7539063-33.5878906,106.3271484c0,28.4628906,6.4267578,55.4238281,17.9101563,79.5117188
		C584.2441406,331.6640625,590,355.3945313,590,380c0,88.3671875-71.6328125,160-160,160h-25.1132813
		C362.5419922,540,324.7509766,559.4951172,300,590c-24.7514648-30.5048828-62.5424805-50-104.8867188-50h-25.1137695
		c-88.3666992,0-160-71.6328125-160-160c0-24.6054688,5.7558594-48.3359375,15.6782227-69.1611328
		c11.4829102-24.0878906,17.9101563-51.0488281,17.9101563-79.5117188C43.5878906,191.7539063,31.1616211,155.0805664,10,125L125,10
		c23.5644531,20.0751953,54.1166992,32.1943359,87.5,32.1943359C245.8828125,42.1943359,276.4355469,30.0776367,300,10.0024414z"/>
</g>
<g>
	<path fill-rule="evenodd" clip-rule="evenodd" d="M275.1796875,190.6494141
		c-5.4833984,6.3496094-13.9970703,17.8935547-25.5410156,34.6318359
		c-27.4169922,45.8876953-45.4545898,92.0634766-54.112793,138.5283203
		c-4.0400391,21.6455078-6.0605469,45.3105469-6.0605469,70.9960938h-46.7529297
		c0.8657227-64.9355469,14.71875-126.2626953,41.5581055-183.9829102
		c9.5239258-20.4907227,20.4907227-40.5483398,32.9003906-60.1733398H78.6430664v-45.887207h196.5366211V190.6494141z"/>
	<path fill-rule="evenodd" clip-rule="evenodd" d="M521.3564453,232.2080078
		c0,39.8271484-10.2451172,78.6435547-30.7353516,116.4501953C470.1298828,386.4648438,443.0019531,416.9121094,409.2353516,440
		l-22.5107422-38.9609375c31.1689453-24.53125,54.6894531-53.9677734,70.5625-88.3115234
		c-14.4296875,2.5976563-25.9736328,3.8955078-34.6318359,3.8955078c-27.1279297,0-50.3603516-8.6572266-69.6962891-25.9736328
		c-19.3369141-17.315918-29.0048828-38.0947266-29.0048828-62.3378906c0-24.8193359,9.5244141-45.7426758,28.5712891-62.7705078
		C371.5732422,148.5136719,394.9492188,140,422.6552734,140c27.9941406,0,51.4423828,8.8027344,70.3466797,26.4072266
		C511.9042969,184.0117188,521.3564453,205.9453125,521.3564453,232.2080078z M475.46875,228.3115234
		c0-11.2548828-5.2666016-20.9951172-15.8007813-29.2207031c-10.5332031-8.2246094-22.8710938-12.3374023-37.0126953-12.3374023
		c-14.4306641,0-26.6953125,4.0405273-36.7958984,12.121582c-10.1015625,8.0805664-15.1523438,17.8925781-15.1523438,29.4365234
		c0,11.5444336,5.0507813,21.3569336,15.1523438,29.4375c10.1005859,8.0810547,22.3652344,12.1210938,36.7958984,12.1210938
		c14.71875,0,27.2001953-4.0400391,37.4462891-12.1210938C470.3466797,249.668457,475.46875,239.855957,475.46875,228.3115234z"/>
</g>
</svg>
