<?xml version="1.0" encoding="utf-8"?>
<!-- Generator: Adobe Illustrator 12.0.0, SVG Export Plug-In . SVG Version: 6.00 Build 51448)  -->
<!DOCTYPE svg PUBLIC "-//W3C//DTD SVG 1.1//EN" "http://www.w3.org/Graphics/SVG/1.1/DTD/svg11.dtd" [
	<!ENTITY ns_svg "http://www.w3.org/2000/svg">
	<!ENTITY ns_xlink "http://www.w3.org/1999/xlink">
]>
<svg  version="1.1" id="Layer_1" xmlns="&ns_svg;" xmlns:xlink="&ns_xlink;" width="600" height="600" viewBox="0 0 600 600"
	 overflow="visible" enable-background="new 0 0 600 600" xml:space="preserve">
<g>
	<path d="M0,50C0,22.3857422,22.3852539,0,50,0h500c27.6142578,0,50,22.3857422,50,50v500c0,27.6152344-22.3857422,50-50,50H50
		c-27.6147461,0-50-22.3847656-50-50V50L0,50z"/>
	<path d="M300,300"/>
</g>
<g>
	<path fill-rule="evenodd" clip-rule="evenodd" fill="#FFFFFF" d="M300,10.0024414
		c23.5644531,20.0751953,54.1171875,32.1918945,87.5,32.1918945S451.4355469,30.0751953,475,10l115,115
		c-21.1621094,30.0805664-33.5878906,66.7539063-33.5878906,106.3271484c0,28.4628906,6.4267578,55.4238281,17.9101563,79.5117188
		C584.2441406,331.6640625,590,355.3945313,590,380c0,88.3671875-71.6328125,160-160,160h-25.1132813
		C362.5419922,540,324.7509766,559.4951172,300,590c-24.7514648-30.5048828-62.5419922-50-104.8867188-50h-25.1137695
		c-88.3666992,0-160-71.6328125-160-160c0-24.6054688,5.7563477-48.3359375,15.6787109-69.1611328
		c11.4824219-24.0878906,17.9101563-51.0488281,17.9101563-79.5117188C43.5883789,191.7539063,31.1616211,155.0805664,10,125L125,10
		c23.5644531,20.0751953,54.1166992,32.1943359,87.5,32.1943359C245.8828125,42.1943359,276.4355469,30.0776367,300,10.0024414z"/>
	
		<path fill-rule="evenodd" clip-rule="evenodd" fill="none" stroke="#000000" stroke-linecap="round" stroke-linejoin="round" stroke-miterlimit="3.863693" d="
		M300,10.0024414c23.5644531,20.0751953,54.1171875,32.1918945,87.5,32.1918945S451.4355469,30.0751953,475,10l115,115
		c-21.1621094,30.0805664-33.5878906,66.7539063-33.5878906,106.3271484c0,28.4628906,6.4267578,55.4238281,17.9101563,79.5117188
		C584.2441406,331.6640625,590,355.3945313,590,380c0,88.3671875-71.6328125,160-160,160h-25.1132813
		C362.5419922,540,324.7509766,559.4951172,300,590c-24.7514648-30.5048828-62.5419922-50-104.8867188-50h-25.1137695
		c-88.3666992,0-160-71.6328125-160-160c0-24.6054688,5.7563477-48.3359375,15.6787109-69.1611328
		c11.4824219-24.0878906,17.9101563-51.0488281,17.9101563-79.5117188C43.5883789,191.7539063,31.1616211,155.0805664,10,125L125,10
		c23.5644531,20.0751953,54.1166992,32.1943359,87.5,32.1943359C245.8828125,42.1943359,276.4355469,30.0776367,300,10.0024414z"/>
</g>
<g>
	<path fill-rule="evenodd" clip-rule="evenodd" d="M271.0673828,190.6494141
		c-5.4833984,6.3496094-13.9970703,17.8935547-25.5410156,34.6318359
		c-27.4169922,45.8876953-45.4545898,92.0634766-54.112793,138.5283203
		c-4.0400391,21.6455078-6.0605469,45.3105469-6.0605469,70.9960938h-46.7529297
		c0.8657227-64.9355469,14.7182617-126.2626953,41.5581055-183.9829102
		c9.5239258-20.4907227,20.4907227-40.5483398,32.9003906-60.1733398H74.5307617v-45.887207h196.5366211V190.6494141z"/>
	<path fill-rule="evenodd" clip-rule="evenodd" d="M525.4697266,290.2167969
		c0,53.9677734-11.5439453,94.5166016-34.6328125,121.6445313C474.3867188,430.6210938,452.0205078,440,423.7373047,440
		c-38.3837891,0-66.0888672-17.3164063-83.1162109-51.9472656c-13.5644531-27.7060547-20.3466797-60.3183594-20.3466797-97.8359375
		c0-49.9277344,10.5341797-89.1777344,31.6015625-117.7490234C367.7490234,150.8227539,392.4248047,140,425.9023438,140
		c36.3632813,0,63.203125,17.171875,80.5195313,51.515625C519.1201172,217.4892578,525.4697266,250.3896484,525.4697266,290.2167969
		z M480.0146484,290.2167969c0-34.6318359-5.7714844-61.7607422-17.3154297-81.3857422
		c-8.3701172-13.8525391-20.9238281-21.2119141-37.6630859-22.0776367
		c-21.0673828-1.1547852-36.6523438,10.6782227-46.7529297,35.4975586
		c-7.5039063,18.4707031-11.2558594,41.1259766-11.2558594,67.9658203c0,34.6318359,5.7724609,61.4716797,17.3164063,80.5195313
		c8.9462891,15.0068359,22.078125,22.5107422,39.3935547,22.5107422c20.2021484,0,35.2099609-12.265625,45.0224609-36.796875
		C476.2626953,337.6914063,480.0146484,315.6132813,480.0146484,290.2167969z"/>
</g>
</svg>
