<?xml version="1.0" encoding="UTF-8" standalone="no"?>
<!-- Created with Inkscape (http://www.inkscape.org/) -->
<svg
   xmlns:svg="http://www.w3.org/2000/svg"
   xmlns="http://www.w3.org/2000/svg"
   version="1.0"
   width="750"
   height="600"
   viewBox="0 0 750 600"
   id="Layer_1"
   xml:space="preserve"><defs
   id="defs22">
	
	
	

	
	

		
		
	</defs>


<path
   d=""
   id="path9" /><g
   id="g1942"><path
     d="M 0,50 C 0,22.385742 22.385254,0 50,0 L 700,0 C 727.61426,0 750,22.385742 750,50 L 750,550 C 750,577.61523 727.61426,600 700,600 L 50,600 C 22.385254,600 0,577.61523 0,550 L 0,50 L 0,50 z "
     id="path7" /><path
     d="M 375,10.001953 C 338.67236,32.46582 295.85059,45.430664 250,45.430664 C 204.14941,45.430664 161.32715,32.463867 125,10 L 10,125 C 31.163086,155.08057 43.587891,191.75244 43.587891,231.32764 C 43.587891,259.8877 37.116699,286.93604 25.560059,311.08594 C 15.584961,331.95508 10,355.32617 10,380 C 10,468.36719 81.633301,540 170,540 L 270.11523,540 C 312.4585,540 350.24854,559.49414 375,589.99805 C 399.75098,559.49414 437.54102,540 479.88477,540 L 580,540 C 668.36719,540 740,468.36719 740,380 C 740,355.32617 734.41504,331.95508 724.43945,311.08594 C 712.88281,286.93604 706.41211,259.8877 706.41211,231.32764 C 706.41211,191.75244 718.83691,155.08057 740,125 L 625,10 C 588.67285,32.463867 545.85059,45.430664 500,45.430664 C 454.14941,45.430664 411.32715,32.46582 375,10.001953 z "
     style="fill:white;fill-rule:evenodd"
     id="path11" /><path
     d="M 258.39324,349.66095 C 258.39307,363.49507 255.94375,376.67829 251.04528,389.21067 C 246.14647,401.74313 239.37457,412.19121 230.72955,420.55493 C 218.04747,433.51831 200.46691,439.99998 177.98781,439.99999 C 163.58202,439.99998 151.26288,437.40775 141.03033,432.22329 C 130.79766,427.03883 122.07993,419.40285 114.87712,409.31532 C 109.11657,401.24183 104.65107,392.01841 101.48061,381.64503 C 98.31011,371.27176 96.724869,360.61041 96.724886,349.66095 C 96.724869,335.24656 98.958718,321.91602 103.42644,309.66931 C 107.89411,297.42284 114.73637,286.68673 123.95324,277.46096 C 108.39541,260.461 100.61651,240.43551 100.61654,217.38444 C 100.61651,206.14506 102.48978,195.76954 106.23634,186.25784 C 109.98285,176.74664 115.24207,168.60497 122.01401,161.83279 C 128.78587,155.06116 136.92535,149.72939 146.43246,145.83745 C 155.93945,141.9461 166.45788,140.00027 177.98781,139.99998 C 189.22731,140.00027 199.45772,141.9461 208.67907,145.83745 C 217.90016,149.72939 225.89672,155.06116 232.66878,161.83279 C 239.44053,168.60497 244.69975,176.74664 248.44645,186.25784 C 252.19282,195.76954 254.06608,206.14506 254.06626,217.38444 C 254.06608,229.19591 252.12246,240.21785 248.23538,250.45027 C 244.34796,260.68307 238.51269,269.68662 230.72955,277.46096 C 239.94623,286.10629 246.86104,296.69728 251.47402,309.23397 C 256.08666,321.77091 258.39307,335.24656 258.39324,349.66095 L 258.39324,349.66095 z M 213.4348,217.38444 C 213.43466,206.71671 210.04871,197.92423 203.27693,191.00697 C 196.50491,184.0902 188.07521,180.63169 177.98781,180.63144 C 167.32856,180.63169 158.54047,184.0902 151.62353,191.00697 C 144.70644,197.92423 141.24793,206.71671 141.248,217.38444 C 141.24793,229.19591 144.70644,238.56005 151.62353,245.47688 C 158.54047,252.39408 167.32856,255.85259 177.98781,255.85241 C 188.07521,255.85259 196.50491,252.39408 203.27693,245.47688 C 210.04871,238.56005 213.43466,229.19591 213.4348,217.38444 L 213.4348,217.38444 z M 218.61927,349.66095 C 218.61913,333.80423 214.87259,321.19486 207.37965,311.8328 C 199.88646,302.47099 190.08919,297.79002 177.98781,297.78988 C 165.88623,297.79002 156.08896,302.47099 148.59596,311.8328 C 141.10282,321.19486 137.35629,333.80423 137.35635,349.66095 C 137.35629,364.35695 141.10282,376.31551 148.59596,385.53668 C 156.08896,394.75795 165.88623,399.36857 177.98781,399.36853 C 190.08919,399.36857 199.88646,394.75795 207.37965,385.53668 C 214.87259,376.31551 218.61913,364.35695 218.61927,349.66095 L 218.61927,349.66095 z M 454.26855,243.75532 C 454.26837,279.77851 445.55064,314.35919 428.11535,347.49746 C 410.67974,380.6359 386.114,409.74189 354.41806,434.81552 L 331.06816,402.38951 C 337.11884,397.78113 343.24214,392.23608 349.43806,385.75435 C 355.63384,379.27272 361.46911,372.35571 366.94389,365.00329 C 372.41849,357.651 377.31712,350.22829 381.63981,342.73513 C 385.96229,335.24216 389.4208,328.03932 392.01535,321.12659 C 388.55892,321.70715 385.4632,321.99737 382.72816,321.99726 C 379.9929,321.99737 377.03789,321.99737 373.86311,321.99726 C 348.78938,321.99737 328.97717,313.78314 314.42641,297.35454 C 299.87557,280.92622 292.60017,258.59213 292.60019,230.35221 C 292.60017,216.80861 294.47344,204.48946 298.22,193.39473 C 301.96651,182.30048 307.36864,172.78904 314.42641,164.86036 C 321.4841,156.93223 330.05671,150.80674 340.14428,146.48386 C 350.23171,142.16157 361.47131,140.00027 373.86311,139.99998 C 400.37897,140.00027 420.40885,148.79056 433.95282,166.37085 C 447.49647,183.95169 454.26837,209.74648 454.26855,243.75532 L 454.26855,243.75532 z M 414.49457,234.666 C 414.49443,218.24654 410.7479,205.13587 403.25496,195.33396 C 395.76177,185.53253 385.96449,180.63169 373.86311,180.63144 C 360.89966,180.63169 350.88691,185.09939 343.82485,194.03454 C 336.76266,202.97018 333.23159,215.07606 333.23165,230.35221 C 333.23159,246.20043 336.76266,258.66249 343.82485,267.73843 C 350.88691,276.81471 360.89966,281.35276 373.86311,281.35261 C 385.96449,281.35276 395.76177,277.17529 403.25496,268.82018 C 410.7479,260.4654 414.49443,249.08068 414.49457,234.666 L 414.49457,234.666 z M 623.77298,434.81552 L 603.45725,355.7029 L 541.20405,355.7029 L 522.19433,434.81552 L 480.25686,434.81552 L 552.44366,145.18445 L 593.08831,145.18445 L 665.27512,434.81552 L 623.77298,434.81552 z M 571.90191,231.64503 L 551.58618,315.07144 L 593.08831,315.07144 L 571.90191,231.64503 z "
     style="font-size:432.27651978px"
     id="text1899" /></g></svg>