<?xml version="1.0" encoding="utf-8"?>
<!-- Generator: Adobe Illustrator 12.0.0, SVG Export Plug-In . SVG Version: 6.00 Build 51448)  -->
<!DOCTYPE svg PUBLIC "-//W3C//DTD SVG 1.1//EN" "http://www.w3.org/Graphics/SVG/1.1/DTD/svg11.dtd" [
	<!ENTITY ns_svg "http://www.w3.org/2000/svg">
	<!ENTITY ns_xlink "http://www.w3.org/1999/xlink">
]>
<svg  version="1.1" id="Layer_1" xmlns="&ns_svg;" xmlns:xlink="&ns_xlink;" width="600" height="600" viewBox="0 0 600 600"
	 overflow="visible" enable-background="new 0 0 600 600" xml:space="preserve">
<g>
	<path d="M0,50C0,22.3857422,22.3852539,0,50,0h500c27.6142578,0,50,22.3857422,50,50v500c0,27.6152344-22.3857422,50-50,50H50
		c-27.6147461,0-50-22.3847656-50-50V50L0,50z"/>
	<path d="M300,300"/>
</g>
<g>
	<path fill-rule="evenodd" clip-rule="evenodd" fill="#FFFFFF" d="M300,10.0024414
		c23.5644531,20.0751953,54.1171875,32.1914063,87.5,32.1914063S451.4355469,30.0751953,475,10l115,115
		c-21.1621094,30.0805664-33.5878906,66.7539063-33.5878906,106.3271484c0,28.4628906,6.4267578,55.4238281,17.9101563,79.5117188
		C584.2441406,331.6640625,590,355.3945313,590,380c0,88.3671875-71.6328125,160-160,160h-25.1132813
		C362.5419922,540,324.7509766,559.4951172,300,590c-24.7514648-30.5048828-62.5419922-50-104.8867188-50h-25.1137695
		c-88.3666992,0-160-71.6328125-160-160c0-24.6054688,5.7563477-48.3359375,15.6782227-69.1611328
		c11.4829102-24.0878906,17.9101563-51.0488281,17.9101563-79.5117188C43.5878906,191.7539063,31.1611328,155.0805664,10,125L125,10
		c23.5644531,20.0751953,54.1166992,32.1938477,87.5,32.1938477C245.8828125,42.1938477,276.4355469,30.0776367,300,10.0024414z"/>
	
		<path fill-rule="evenodd" clip-rule="evenodd" fill="none" stroke="#000000" stroke-linecap="round" stroke-linejoin="round" stroke-miterlimit="3.863693" d="
		M300,10.0024414c23.5644531,20.0751953,54.1171875,32.1914063,87.5,32.1914063S451.4355469,30.0751953,475,10l115,115
		c-21.1621094,30.0805664-33.5878906,66.7539063-33.5878906,106.3271484c0,28.4628906,6.4267578,55.4238281,17.9101563,79.5117188
		C584.2441406,331.6640625,590,355.3945313,590,380c0,88.3671875-71.6328125,160-160,160h-25.1132813
		C362.5419922,540,324.7509766,559.4951172,300,590c-24.7514648-30.5048828-62.5419922-50-104.8867188-50h-25.1137695
		c-88.3666992,0-160-71.6328125-160-160c0-24.6054688,5.7563477-48.3359375,15.6782227-69.1611328
		c11.4829102-24.0878906,17.9101563-51.0488281,17.9101563-79.5117188C43.5878906,191.7539063,31.1611328,155.0805664,10,125L125,10
		c23.5644531,20.0751953,54.1166992,32.1938477,87.5,32.1938477C245.8828125,42.1938477,276.4355469,30.0776367,300,10.0024414z"/>
</g>
<g>
	<path fill-rule="evenodd" clip-rule="evenodd" d="M271.6899414,342.1640625c0,26.5517578-9.8125,49.4960938-29.4370117,68.8320313
		S199.5400391,440,172.9887695,440s-49.6391602-9.6679688-69.2641602-29.0039063s-29.4375-42.2802734-29.4375-68.8320313
		c0-26.5507813,11.1113281-48.9169922,33.3334961-67.0986328c-14.1411133-15.2958984-21.2119141-32.9003906-21.2119141-52.8144531
		c0-22.5107422,8.5854492-41.8466797,25.7573242-58.0083008C129.3383789,148.0810547,149.6118164,140,172.9887695,140
		c23.3764648,0,43.7949219,8.1533203,61.2553711,24.4589844s26.1904297,35.5698242,26.1904297,57.7919922
		c0,19.3364258-7.503418,36.9414063-22.5107422,52.8144531
		C260.4345703,292.3808594,271.6899414,314.7480469,271.6899414,342.1640625z M213.6811523,221.3857422
		c0-9.8125-3.9682617-18.0380859-11.9047852-24.6757813s-17.5322266-9.956543-28.7875977-9.956543
		s-20.8515625,3.3188477-28.7880859,9.956543s-11.9047852,14.8632813-11.9047852,24.6757813
		c0,8.3691406,3.9682617,15.65625,11.9047852,21.8613281s17.5327148,9.3076172,28.7880859,9.3076172
		c10.9667969,0,20.4907227-3.1025391,28.5712891-9.3076172
		C209.6411133,237.0419922,213.6811523,229.7548828,213.6811523,221.3857422z M225.8027344,343.4628906
		c0-12.1210938-5.1948242-22.5097656-15.5844727-31.1679688s-22.7998047-12.9873047-37.2294922-12.9873047
		c-14.4301758,0-26.6958008,4.2568359-36.796875,12.7705078c-10.1005859,8.5136719-15.1513672,18.9755859-15.1513672,31.3847656
		c0,13.5644531,5.0507813,25.2529297,15.1513672,35.0654297c10.1010742,9.8125,22.3666992,14.71875,36.796875,14.71875
		c14.71875,0,27.2001953-4.90625,37.4458008-14.71875C220.6796875,368.7158203,225.8027344,357.0273438,225.8027344,343.4628906z"/>
	<path fill-rule="evenodd" clip-rule="evenodd" d="M525.7128906,327.8789063
		c0,32.3232422-11.9052734,59.0908203-35.7148438,80.3027344C466.1884766,429.3945313,435.9580078,440,399.3056641,440
		c-25.6855469,0-49.3505859-5.4833984-70.9951172-16.4501953l22.0771484-40.6923828
		c13.5644531,6.9257813,31.890625,10.3896484,54.9785156,10.3896484c21.0673828,0,38.7451172-6.2050781,53.0302734-18.6142578
		c14.2851563-12.4101563,21.4287109-27.9951172,21.4287109-46.7539063c0-14.1416016-5.0507813-26.1181641-15.1513672-35.9306641
		c-10.1015625-9.8125-22.3671875-14.71875-36.796875-14.71875c-10.1005859,0-18.2539063,2.0205078-24.4589844,6.0605469
		c-6.2050781,4.0405273-13.6367188,12.1210938-22.2949219,24.2431641l-45.8867188-12.9873047l7.359375-149.7836914h166.6660156
		v45.887207h-122.078125l-3.0292969,47.6191406c19.046875-5.1948242,33.9101563-7.7919922,44.5878906-7.7919922
		c26.5517578,0,49.3515625,9.5957031,68.3984375,28.7875977
		C516.1884766,278.4560547,525.7128906,301.328125,525.7128906,327.8789063z"/>
</g>
</svg>
