<?xml version="1.0" encoding="utf-8"?>
<!-- Generator: Adobe Illustrator 12.0.0, SVG Export Plug-In . SVG Version: 6.00 Build 51448)  -->
<!DOCTYPE svg PUBLIC "-//W3C//DTD SVG 1.1//EN" "http://www.w3.org/Graphics/SVG/1.1/DTD/svg11.dtd" [
	<!ENTITY ns_svg "http://www.w3.org/2000/svg">
	<!ENTITY ns_xlink "http://www.w3.org/1999/xlink">
]>
<svg  version="1.1" id="Layer_1" xmlns="&ns_svg;" xmlns:xlink="&ns_xlink;" width="600" height="600" viewBox="0 0 600 600"
	 overflow="visible" enable-background="new 0 0 600 600" xml:space="preserve">
<g>
	<path d="M0,50C0,22.3857422,22.3852539,0,50,0h500c27.6142578,0,50,22.3857422,50,50v500c0,27.6152344-22.3857422,50-50,50H50
		c-27.6147461,0-50-22.3847656-50-50V50L0,50z"/>
	<path d="M300,300"/>
</g>
<g>
	<path fill-rule="evenodd" clip-rule="evenodd" fill="#FFFFFF" d="M300,10.0024414
		c23.5644531,20.0751953,54.1171875,32.1914063,87.5,32.1914063S451.4355469,30.0751953,475,10l115,115
		c-21.1621094,30.0805664-33.5878906,66.7539063-33.5878906,106.3271484c0,28.4628906,6.4267578,55.4238281,17.9101563,79.5117188
		C584.2441406,331.6640625,590,355.3945313,590,380c0,88.3671875-71.6328125,160-160,160h-25.1132813
		C362.5419922,540,324.7509766,559.4951172,300,590c-24.7514648-30.5048828-62.5419922-50-104.8867188-50h-25.1137695
		c-88.3666992,0-160-71.6328125-160-160c0-24.6054688,5.7563477-48.3359375,15.6787109-69.1611328
		c11.4824219-24.0878906,17.9101563-51.0488281,17.9101563-79.5117188C43.5883789,191.7539063,31.1616211,155.0805664,10,125L125,10
		c23.5644531,20.0751953,54.1166992,32.1938477,87.5,32.1938477C245.8828125,42.1938477,276.4355469,30.0776367,300,10.0024414z"/>
	
		<path fill-rule="evenodd" clip-rule="evenodd" fill="none" stroke="#000000" stroke-linecap="round" stroke-linejoin="round" stroke-miterlimit="3.863693" d="
		M300,10.0024414c23.5644531,20.0751953,54.1171875,32.1914063,87.5,32.1914063S451.4355469,30.0751953,475,10l115,115
		c-21.1621094,30.0805664-33.5878906,66.7539063-33.5878906,106.3271484c0,28.4628906,6.4267578,55.4238281,17.9101563,79.5117188
		C584.2441406,331.6640625,590,355.3945313,590,380c0,88.3671875-71.6328125,160-160,160h-25.1132813
		C362.5419922,540,324.7509766,559.4951172,300,590c-24.7514648-30.5048828-62.5419922-50-104.8867188-50h-25.1137695
		c-88.3666992,0-160-71.6328125-160-160c0-24.6054688,5.7563477-48.3359375,15.6787109-69.1611328
		c11.4824219-24.0878906,17.9101563-51.0488281,17.9101563-79.5117188C43.5883789,191.7539063,31.1616211,155.0805664,10,125L125,10
		c23.5644531,20.0751953,54.1166992,32.1938477,87.5,32.1938477C245.8828125,42.1938477,276.4355469,30.0776367,300,10.0024414z"/>
</g>
<g>
	<path fill-rule="evenodd" clip-rule="evenodd" d="M271.6899414,342.1640625
		c0,26.5517578-9.8120117,49.4960938-29.4370117,68.8320313S199.5400391,440,172.9887695,440
		s-49.6391602-9.6679688-69.2641602-29.0039063s-29.4370117-42.2802734-29.4370117-68.8320313
		c0-26.5507813,11.1108398-48.9169922,33.3330078-67.0986328c-14.1411133-15.2958984-21.2119141-32.9003906-21.2119141-52.8144531
		c0-22.5107422,8.5859375-41.8466797,25.7573242-58.0083008C129.3378906,148.0810547,149.6123047,140,172.9887695,140
		s43.7949219,8.1533203,61.2553711,24.4589844s26.1904297,35.5698242,26.1904297,57.7919922
		c0,19.3364258-7.503418,36.9414063-22.5107422,52.8144531
		C260.4345703,292.3808594,271.6899414,314.7480469,271.6899414,342.1640625z M213.6816406,221.3857422
		c0-9.8125-3.96875-18.0380859-11.9052734-24.6757813s-17.5322266-9.956543-28.7875977-9.956543
		s-20.8515625,3.3188477-28.7880859,9.956543c-7.9360352,6.6376953-11.9047852,14.8632813-11.9047852,24.6757813
		c0,8.3691406,3.96875,15.65625,11.9047852,21.8613281c7.9365234,6.2050781,17.5327148,9.3076172,28.7880859,9.3076172
		c10.9667969,0,20.4907227-3.1025391,28.5712891-9.3076172
		C209.6411133,237.0419922,213.6816406,229.7548828,213.6816406,221.3857422z M225.8027344,343.4628906
		c0-12.1210938-5.1948242-22.5097656-15.5844727-31.1679688s-22.7993164-12.9873047-37.2294922-12.9873047
		s-26.6958008,4.2568359-36.7963867,12.7705078c-10.1010742,8.5136719-15.1518555,18.9755859-15.1518555,31.3847656
		c0,13.5644531,5.0507813,25.2529297,15.1518555,35.0654297c10.1005859,9.8125,22.3662109,14.71875,36.7963867,14.71875
		c14.71875,0,27.2006836-4.90625,37.4458008-14.71875S225.8027344,357.0273438,225.8027344,343.4628906z"/>
	<path fill-rule="evenodd" clip-rule="evenodd" d="M525.7128906,434.8046875H328.3105469
		c0.8652344-32.3222656,8.9462891-61.7597656,24.2421875-88.3105469
		c11.8320313-20.7792969,28.859375-39.5390625,51.0820313-56.2773438c3.1738281-2.0205078,7.5039063-5.0507813,12.9863281-9.0908203
		l15.1523438-8.2255859l28.5712891-16.0170898c12.9873047-7.503418,19.4804688-18.0375977,19.4804688-31.6020508
		c0-10.6777344-5.2666016-19.7685547-15.8007813-27.2724609c-10.5341797-7.503418-22.8720703-11.2553711-37.0126953-11.2553711
		c-30.015625,0-47.6191406,13.5639648-52.8144531,40.6923828l-45.8867188-10.3891602
		c4.90625-23.9541016,16.2333984-42.7851563,33.9824219-56.4936523C380.0410156,146.8544922,401.6142578,140,427.0117188,140
		c27.4160156,0,50.7207031,8.3696289,69.9130859,25.1083984c19.1914063,16.7387695,28.7880859,37.0849609,28.7880859,61.0390625
		c0,24.2421875-9.8125,45.0214844-29.4375,62.3374023c-3.7519531,3.1748047-7.9365234,5.7719727-12.5546875,7.7924805
		l-14.2851563,9.5234375l-15.1513672,7.7929688l-14.2861328,8.2246094
		c-24.8193359,14.4296875-43.7226563,36.5078125-56.7099609,66.234375h142.4248047V434.8046875z"/>
</g>
</svg>
