<?xml version="1.0" encoding="utf-8"?>
<!-- Generator: Adobe Illustrator 12.0.0, SVG Export Plug-In . SVG Version: 6.00 Build 51448)  -->
<!DOCTYPE svg PUBLIC "-//W3C//DTD SVG 1.1//EN" "http://www.w3.org/Graphics/SVG/1.1/DTD/svg11.dtd" [
	<!ENTITY ns_svg "http://www.w3.org/2000/svg">
	<!ENTITY ns_xlink "http://www.w3.org/1999/xlink">
]>
<svg  version="1.1" id="Layer_1" xmlns="&ns_svg;" xmlns:xlink="&ns_xlink;" width="600" height="600" viewBox="0 0 600 600"
	 overflow="visible" enable-background="new 0 0 600 600" xml:space="preserve">
<g>
	<path d="M0,50C0,22.3857422,22.3852539,0,50,0h500c27.6142578,0,50,22.3857422,50,50v500c0,27.6152344-22.3857422,50-50,50H50
		c-27.6147461,0-50-22.3847656-50-50V50L0,50z"/>
	<path d="M300,300"/>
</g>
<g>
	<path fill-rule="evenodd" clip-rule="evenodd" fill="#FFFFFF" d="M300,10.0024414
		c23.5644531,20.0751953,54.1171875,32.1914063,87.5,32.1914063S451.4355469,30.0751953,475,10l115,115
		c-21.1621094,30.0805664-33.5878906,66.7539063-33.5878906,106.3271484c0,28.4628906,6.4267578,55.4238281,17.9101563,79.5117188
		C584.2441406,331.6640625,590,355.3945313,590,380c0,88.3671875-71.6328125,160-160,160h-25.1132813
		C362.5419922,540,324.7509766,559.4951172,300,590c-24.7514648-30.5048828-62.5419922-50-104.8867188-50h-25.1137695
		c-88.3666992,0-160-71.6328125-160-160c0-24.6054688,5.7563477-48.3359375,15.6787109-69.1611328
		c11.4824219-24.0878906,17.9101563-51.0488281,17.9101563-79.5117188C43.5883789,191.7539063,31.1616211,155.0805664,10,125L125,10
		c23.5644531,20.0751953,54.1171875,32.1938477,87.5,32.1938477S276.4355469,30.0776367,300,10.0024414z"/>
	
		<path fill-rule="evenodd" clip-rule="evenodd" fill="none" stroke="#000000" stroke-linecap="round" stroke-linejoin="round" stroke-miterlimit="3.863693" d="
		M300,10.0024414c23.5644531,20.0751953,54.1171875,32.1914063,87.5,32.1914063S451.4355469,30.0751953,475,10l115,115
		c-21.1621094,30.0805664-33.5878906,66.7539063-33.5878906,106.3271484c0,28.4628906,6.4267578,55.4238281,17.9101563,79.5117188
		C584.2441406,331.6640625,590,355.3945313,590,380c0,88.3671875-71.6328125,160-160,160h-25.1132813
		C362.5419922,540,324.7509766,559.4951172,300,590c-24.7514648-30.5048828-62.5419922-50-104.8867188-50h-25.1137695
		c-88.3666992,0-160-71.6328125-160-160c0-24.6054688,5.7563477-48.3359375,15.6787109-69.1611328
		c11.4824219-24.0878906,17.9101563-51.0488281,17.9101563-79.5117188C43.5883789,191.7539063,31.1616211,155.0805664,10,125L125,10
		c23.5644531,20.0751953,54.1171875,32.1938477,87.5,32.1938477S276.4355469,30.0776367,300,10.0024414z"/>
</g>
<g>
	<path fill-rule="evenodd" clip-rule="evenodd" d="M333.5947266,342.1640625c0,26.5517578-9.8125,49.4960938-29.4375,68.8320313
		C284.5327148,430.3320313,261.4448242,440,234.8935547,440s-49.6391602-9.6679688-69.2641602-29.0039063
		c-19.6245117-19.3359375-29.4370117-42.2802734-29.4370117-68.8320313c0-26.5507813,11.1108398-48.9169922,33.3330078-67.0986328
		c-14.1416016-15.2958984-21.2119141-32.9003906-21.2119141-52.8144531c0-22.5107422,8.5859375-41.8466797,25.7578125-58.0083008
		C191.2426758,148.0810547,211.5166016,140,234.8935547,140c23.3764648,0,43.7949219,8.1533203,61.2553711,24.4589844
		s26.190918,35.5698242,26.190918,57.7919922c0,19.3364258-7.5039063,36.9414063-22.5112305,52.8144531
		C322.3398438,292.3808594,333.5947266,314.7480469,333.5947266,342.1640625z M275.5859375,221.3857422
		c0-9.8125-3.9677734-18.0380859-11.9042969-24.6757813s-17.5327148-9.956543-28.7880859-9.956543
		s-20.8515625,3.3188477-28.7880859,9.956543s-11.9042969,14.8632813-11.9042969,24.6757813
		c0,8.3691406,3.9677734,15.65625,11.9042969,21.8613281s17.5327148,9.3076172,28.7880859,9.3076172
		c10.9667969,0,20.4902344-3.1025391,28.5712891-9.3076172S275.5859375,229.7548828,275.5859375,221.3857422z
		 M287.7075195,343.4628906c0-12.1210938-5.1948242-22.5097656-15.5844727-31.1679688s-22.7998047-12.9873047-37.2294922-12.9873047
		c-14.4301758,0-26.6953125,4.2568359-36.7963867,12.7705078s-15.1518555,18.9755859-15.1518555,31.3847656
		c0,13.5644531,5.0507813,25.2529297,15.1518555,35.0654297s22.3662109,14.71875,36.7963867,14.71875
		c14.71875,0,27.2006836-4.90625,37.4458008-14.71875C282.5849609,368.7158203,287.7075195,357.0273438,287.7075195,343.4628906z"/>
	<path fill-rule="evenodd" clip-rule="evenodd" d="M463.8076172,434.8046875h-46.7529297V199.7402344h-26.4072266v-36.3632813
		h3.0302734c13.5644531,0,24.6757813-6.2050781,33.3330078-18.6147461h36.796875V434.8046875z"/>
</g>
</svg>
