<?xml version="1.0" encoding="utf-8"?>
<!-- Generator: Adobe Illustrator 12.0.0, SVG Export Plug-In . SVG Version: 6.00 Build 51448)  -->
<!DOCTYPE svg PUBLIC "-//W3C//DTD SVG 1.1//EN" "http://www.w3.org/Graphics/SVG/1.1/DTD/svg11.dtd" [
	<!ENTITY ns_svg "http://www.w3.org/2000/svg">
	<!ENTITY ns_xlink "http://www.w3.org/1999/xlink">
]>
<svg  version="1.1" id="Layer_1" xmlns="&ns_svg;" xmlns:xlink="&ns_xlink;" width="600" height="600" viewBox="0 0 600 600"
	 overflow="visible" enable-background="new 0 0 600 600" xml:space="preserve">
<g>
	<path d="M0,50C0,22.3857422,22.3852539,0,50,0h500c27.6142578,0,50,22.3857422,50,50v500c0,27.6152344-22.3857422,50-50,50H50
		c-27.6147461,0-50-22.3847656-50-50V50L0,50z"/>
	<path d="M300,300"/>
</g>
<g>
	<path fill-rule="evenodd" clip-rule="evenodd" fill="#FFFFFF" d="M300,10.0024414
		c23.5644531,20.0751953,54.1171875,32.1914063,87.5,32.1914063S451.4355469,30.0751953,475,10l115,115
		c-21.1621094,30.0805664-33.5878906,66.7539063-33.5878906,106.3271484c0,28.4628906,6.4267578,55.4238281,17.9101563,79.5117188
		C584.2441406,331.6640625,590,355.3945313,590,380c0,88.3671875-71.6328125,160-160,160h-25.1132813
		C362.5419922,540,324.7509766,559.4951172,300,590c-24.7514648-30.5048828-62.5424805-50-104.8867188-50h-25.1137695
		c-88.3666992,0-160-71.6328125-160-160c0-24.6054688,5.7558594-48.3359375,15.6782227-69.1611328
		c11.4829102-24.0878906,17.9106445-51.0488281,17.9106445-79.5117188C43.5883789,191.7539063,31.1616211,155.0805664,10,125L125,10
		c23.5644531,20.0751953,54.1166992,32.1938477,87.5,32.1938477C245.8828125,42.1938477,276.4355469,30.0776367,300,10.0024414z"/>
	
		<path fill-rule="evenodd" clip-rule="evenodd" fill="none" stroke="#000000" stroke-linecap="round" stroke-linejoin="round" stroke-miterlimit="3.863693" d="
		M300,10.0024414c23.5644531,20.0751953,54.1171875,32.1914063,87.5,32.1914063S451.4355469,30.0751953,475,10l115,115
		c-21.1621094,30.0805664-33.5878906,66.7539063-33.5878906,106.3271484c0,28.4628906,6.4267578,55.4238281,17.9101563,79.5117188
		C584.2441406,331.6640625,590,355.3945313,590,380c0,88.3671875-71.6328125,160-160,160h-25.1132813
		C362.5419922,540,324.7509766,559.4951172,300,590c-24.7514648-30.5048828-62.5424805-50-104.8867188-50h-25.1137695
		c-88.3666992,0-160-71.6328125-160-160c0-24.6054688,5.7558594-48.3359375,15.6782227-69.1611328
		c11.4829102-24.0878906,17.9106445-51.0488281,17.9106445-79.5117188C43.5883789,191.7539063,31.1616211,155.0805664,10,125L125,10
		c23.5644531,20.0751953,54.1166992,32.1938477,87.5,32.1938477C245.8828125,42.1938477,276.4355469,30.0776367,300,10.0024414z"/>
</g>
<g>
	<path fill-rule="evenodd" clip-rule="evenodd" d="M276.2353516,342.1640625c0,26.5517578-9.8125,49.4960938-29.4370117,68.8320313
		C227.1733398,430.3320313,204.0854492,440,177.5341797,440c-26.5507813,0-49.6386719-9.6679688-69.2641602-29.0039063
		c-19.625-19.3359375-29.4375-42.2802734-29.4375-68.8320313c0-26.5507813,11.1118164-48.9169922,33.3334961-67.0986328
		c-14.1416016-15.2958984-21.2119141-32.9003906-21.2119141-52.8144531c0-22.5107422,8.5859375-41.8466797,25.7573242-58.0083008
		C133.8833008,148.0810547,154.1572266,140,177.5341797,140c23.3764648,0,43.7949219,8.1533203,61.2553711,24.4589844
		c17.4599609,16.3056641,26.1904297,35.5698242,26.1904297,57.7919922c0,19.3364258-7.503418,36.9414063-22.5107422,52.8144531
		C264.9799805,292.3808594,276.2353516,314.7480469,276.2353516,342.1640625z M218.2265625,221.3857422
		c0-9.8125-3.9682617-18.0380859-11.9047852-24.6757813s-17.5322266-9.956543-28.7875977-9.956543
		s-20.8515625,3.3188477-28.7880859,9.956543s-11.9047852,14.8632813-11.9047852,24.6757813
		c0,8.3691406,3.9682617,15.65625,11.9047852,21.8613281s17.5327148,9.3076172,28.7880859,9.3076172
		c10.9672852,0,20.4902344-3.1025391,28.5712891-9.3076172
		C214.1860352,237.0419922,218.2265625,229.7548828,218.2265625,221.3857422z M230.3481445,343.4628906
		c0-12.1210938-5.1953125-22.5097656-15.5844727-31.1679688s-22.7998047-12.9873047-37.2294922-12.9873047
		c-14.4301758,0-26.6958008,4.2568359-36.7963867,12.7705078c-10.1010742,8.5136719-15.1518555,18.9755859-15.1518555,31.3847656
		c0,13.5644531,5.0507813,25.2529297,15.1518555,35.0654297c10.1005859,9.8125,22.3662109,14.71875,36.7963867,14.71875
		c14.7182617,0,27.2006836-4.90625,37.4458008-14.71875S230.3481445,357.0273438,230.3481445,343.4628906z"/>
	<path fill-rule="evenodd" clip-rule="evenodd" d="M521.1669922,190.6494141
		c-5.4833984,6.3496094-13.9970703,17.8935547-25.5410156,34.6318359
		c-27.4169922,45.8876953-45.4541016,92.0634766-54.1123047,138.5283203
		c-4.0410156,21.6455078-6.0605469,45.3105469-6.0605469,70.9951172h-46.7539063
		c0.8662109-64.9345703,14.71875-126.2617188,41.5585938-183.9819336
		c9.5234375-20.4907227,20.4902344-40.5483398,32.9003906-60.1733398H324.6308594v-45.887207h196.5361328V190.6494141z"/>
</g>
</svg>
