<?xml version="1.0" encoding="utf-8"?>
<!-- Generator: Adobe Illustrator 12.0.0, SVG Export Plug-In . SVG Version: 6.00 Build 51448)  -->
<!DOCTYPE svg PUBLIC "-//W3C//DTD SVG 1.1//EN" "http://www.w3.org/Graphics/SVG/1.1/DTD/svg11.dtd" [
	<!ENTITY ns_svg "http://www.w3.org/2000/svg">
	<!ENTITY ns_xlink "http://www.w3.org/1999/xlink">
]>
<svg  version="1.1" id="Layer_1" xmlns="&ns_svg;" xmlns:xlink="&ns_xlink;" width="600" height="600" viewBox="0 0 600 600"
	 overflow="visible" enable-background="new 0 0 600 600" xml:space="preserve">
<g>
	<path d="M0,50C0,22.3857422,22.3852539,0,50,0h500c27.6142578,0,50,22.3857422,50,50v500c0,27.6152344-22.3857422,50-50,50H50
		c-27.6147461,0-50-22.3847656-50-50V50L0,50z"/>
	<path d="M300,300"/>
</g>
<g>
	<path fill-rule="evenodd" clip-rule="evenodd" fill="#FFFFFF" d="M300,10.0024414
		c23.5644531,20.0751953,54.1171875,32.1914063,87.5,32.1914063S451.4355469,30.0751953,475,10l115,115
		c-21.1621094,30.0805664-33.5878906,66.7539063-33.5878906,106.3271484c0,28.4628906,6.4267578,55.4238281,17.9101563,79.5117188
		C584.2441406,331.6640625,590,355.3945313,590,380c0,88.3671875-71.6328125,160-160,160h-25.1132813
		C362.5419922,540,324.7509766,559.4951172,300,590c-24.7514648-30.5048828-62.5419922-50-104.8867188-50h-25.1137695
		c-88.3666992,0-160-71.6328125-160-160c0-24.6054688,5.7563477-48.3359375,15.6782227-69.1611328
		c11.4829102-24.0878906,17.9101563-51.0488281,17.9101563-79.5117188C43.5878906,191.7539063,31.1616211,155.0805664,10,125L125,10
		c23.5644531,20.0751953,54.1171875,32.1938477,87.5,32.1938477S276.4355469,30.0776367,300,10.0024414z"/>
	
		<path fill-rule="evenodd" clip-rule="evenodd" fill="none" stroke="#000000" stroke-linecap="round" stroke-linejoin="round" stroke-miterlimit="3.863693" d="
		M300,10.0024414c23.5644531,20.0751953,54.1171875,32.1914063,87.5,32.1914063S451.4355469,30.0751953,475,10l115,115
		c-21.1621094,30.0805664-33.5878906,66.7539063-33.5878906,106.3271484c0,28.4628906,6.4267578,55.4238281,17.9101563,79.5117188
		C584.2441406,331.6640625,590,355.3945313,590,380c0,88.3671875-71.6328125,160-160,160h-25.1132813
		C362.5419922,540,324.7509766,559.4951172,300,590c-24.7514648-30.5048828-62.5419922-50-104.8867188-50h-25.1137695
		c-88.3666992,0-160-71.6328125-160-160c0-24.6054688,5.7563477-48.3359375,15.6782227-69.1611328
		c11.4829102-24.0878906,17.9101563-51.0488281,17.9101563-79.5117188C43.5878906,191.7539063,31.1616211,155.0805664,10,125L125,10
		c23.5644531,20.0751953,54.1171875,32.1938477,87.5,32.1938477S276.4355469,30.0776367,300,10.0024414z"/>
</g>
<g>
	<path fill-rule="evenodd" clip-rule="evenodd" d="M274.5039063,342.1640625c0,26.5517578-9.8125,49.4960938-29.4375,68.8320313
		S202.3535156,440,175.8027344,440c-26.5517578,0-49.6396484-9.6679688-69.2646484-29.0039063
		c-19.6245117-19.3359375-29.4365234-42.2802734-29.4365234-68.8320313c0-26.5507813,11.1108398-48.9169922,33.3330078-67.0986328
		c-14.1416016-15.2958984-21.2119141-32.9003906-21.2119141-52.8144531c0-22.5107422,8.5859375-41.8466797,25.7573242-58.0083008
		C132.1518555,148.0810547,152.4257813,140,175.8027344,140c23.3764648,0,43.7949219,8.1533203,61.2553711,24.4589844
		s26.1904297,35.5698242,26.1904297,57.7919922c0,19.3364258-7.503418,36.9414063-22.5112305,52.8144531
		C263.2485352,292.3808594,274.5039063,314.7480469,274.5039063,342.1640625z M216.4951172,221.3857422
		c0-9.8125-3.9677734-18.0380859-11.9047852-24.6757813c-7.9360352-6.6376953-17.5322266-9.956543-28.7875977-9.956543
		c-11.2558594,0-20.8515625,3.3188477-28.7880859,9.956543s-11.9047852,14.8632813-11.9047852,24.6757813
		c0,8.3691406,3.9682617,15.65625,11.9047852,21.8613281s17.5322266,9.3076172,28.7880859,9.3076172
		c10.9667969,0,20.4902344-3.1025391,28.5712891-9.3076172S216.4951172,229.7548828,216.4951172,221.3857422z
		 M228.6162109,343.4628906c0-12.1210938-5.1943359-22.5097656-15.5839844-31.1679688s-22.7998047-12.9873047-37.2294922-12.9873047
		c-14.4301758,0-26.6958008,4.2568359-36.796875,12.7705078c-10.1005859,8.5136719-15.1513672,18.9755859-15.1513672,31.3847656
		c0,13.5644531,5.0507813,25.2529297,15.1513672,35.0654297c10.1010742,9.8125,22.3666992,14.71875,36.796875,14.71875
		c14.71875,0,27.2001953-4.90625,37.4458008-14.71875C223.4936523,368.7158203,228.6162109,357.0273438,228.6162109,343.4628906z"/>
	<path fill-rule="evenodd" clip-rule="evenodd" d="M522.8984375,339.1347656
		c0,29.7255859-9.3066406,53.9677734-27.921875,72.7265625C476.3613281,430.6210938,452.3359375,440,422.8984375,440
		c-23.3769531,0-43.7949219-7.0703125-61.2548828-21.2119141s-29.2216797-32.9003906-35.2822266-56.2773438l44.5888672-12.9873047
		c7.5039063,29.1494141,25.5419922,43.7236328,54.1132813,43.7236328c15.2958984,0,27.7773438-4.8339844,37.4453125-14.5029297
		c9.6689453-9.6679688,14.5029297-21.8613281,14.5029297-36.5800781c0-16.7382813-5.484375-28.859375-16.4511719-36.3632813
		c-4.6171875-3.4628906-14.4296875-5.6269531-29.4365234-6.4931641c0,0-1.7314453,0-5.1943359,0v-45.4550781h11.2548828
		c19.0478516,0,28.5712891-9.5234375,28.5712891-28.5712891c0-11.2548828-4.0410156-20.4902344-12.1210938-27.7050781
		c-8.0810547-7.215332-17.8935547-10.8227539-29.4375-10.8227539c-19.3359375,0-33.9101563,9.3793945-43.7226563,28.1381836
		L337.6171875,198.875c7.5039063-18.4707031,18.9033203-32.9003906,34.1992188-43.2900391
		C387.1123047,145.1948242,404.1396484,140,422.8984375,140c24.53125,0,45.4550781,8.5859375,62.7705078,25.7578125
		c17.3164063,17.171875,25.9746094,38.0229492,25.9746094,62.5537109c0,15.5849609-5.4833984,31.4580078-16.4501953,47.6191406
		c10.6777344,9.8125,17.9648438,19.1923828,21.8613281,28.1386719
		C520.9501953,313.015625,522.8984375,324.7041016,522.8984375,339.1347656z"/>
</g>
</svg>
