<?xml version="1.0" encoding="utf-8"?>
<!-- Generator: Adobe Illustrator 12.0.0, SVG Export Plug-In . SVG Version: 6.00 Build 51448)  -->
<!DOCTYPE svg PUBLIC "-//W3C//DTD SVG 1.1//EN" "http://www.w3.org/Graphics/SVG/1.1/DTD/svg11.dtd" [
	<!ENTITY ns_svg "http://www.w3.org/2000/svg">
	<!ENTITY ns_xlink "http://www.w3.org/1999/xlink">
]>
<svg  version="1.1" id="Layer_1" xmlns="&ns_svg;" xmlns:xlink="&ns_xlink;" width="600" height="600" viewBox="0 0 600 600"
	 overflow="visible" enable-background="new 0 0 600 600" xml:space="preserve">
<g>
	<path d="M0,50C0,22.3857422,22.3852539,0,50,0h500c27.6142578,0,50,22.3857422,50,50v500c0,27.6152344-22.3857422,50-50,50H50
		c-27.6147461,0-50-22.3847656-50-50V50L0,50z"/>
	<path d="M300,300"/>
</g>
<g>
	<path fill-rule="evenodd" clip-rule="evenodd" fill="#FFFFFF" d="M300,10.0024414
		c23.5644531,20.0751953,54.1171875,32.1914063,87.5,32.1914063S451.4355469,30.0751953,475,10l115,115
		c-21.1621094,30.0805664-33.5878906,66.7539063-33.5878906,106.3271484c0,28.4628906,6.4267578,55.4238281,17.9101563,79.5117188
		C584.2441406,331.6640625,590,355.3945313,590,380c0,88.3671875-71.6328125,160-160,160h-25.1132813
		C362.5419922,540,324.7509766,559.4951172,300,590c-24.7514648-30.5048828-62.5424805-50-104.8867188-50h-25.1137695
		c-88.3666992,0-160-71.6328125-160-160c0-24.6054688,5.7558594-48.3359375,15.6782227-69.1611328
		c11.4829102-24.0878906,17.9101563-51.0488281,17.9101563-79.5117188C43.5878906,191.7539063,31.1616211,155.0805664,10,125L125,10
		c23.5644531,20.0751953,54.1166992,32.1938477,87.5,32.1938477C245.8828125,42.1938477,276.4355469,30.0776367,300,10.0024414z"/>
	
		<path fill-rule="evenodd" clip-rule="evenodd" fill="none" stroke="#000000" stroke-linecap="round" stroke-linejoin="round" stroke-miterlimit="3.863693" d="
		M300,10.0024414c23.5644531,20.0751953,54.1171875,32.1914063,87.5,32.1914063S451.4355469,30.0751953,475,10l115,115
		c-21.1621094,30.0805664-33.5878906,66.7539063-33.5878906,106.3271484c0,28.4628906,6.4267578,55.4238281,17.9101563,79.5117188
		C584.2441406,331.6640625,590,355.3945313,590,380c0,88.3671875-71.6328125,160-160,160h-25.1132813
		C362.5419922,540,324.7509766,559.4951172,300,590c-24.7514648-30.5048828-62.5424805-50-104.8867188-50h-25.1137695
		c-88.3666992,0-160-71.6328125-160-160c0-24.6054688,5.7558594-48.3359375,15.6782227-69.1611328
		c11.4829102-24.0878906,17.9101563-51.0488281,17.9101563-79.5117188C43.5878906,191.7539063,31.1616211,155.0805664,10,125L125,10
		c23.5644531,20.0751953,54.1166992,32.1938477,87.5,32.1938477C245.8828125,42.1938477,276.4355469,30.0776367,300,10.0024414z"/>
</g>
<g>
	<path fill-rule="evenodd" clip-rule="evenodd" d="M271.6899414,342.1640625c0,26.5517578-9.8125,49.4960938-29.4375,68.8320313
		C222.628418,430.3320313,199.5400391,440,172.9887695,440s-49.6396484-9.6679688-69.2641602-29.0039063
		c-19.625-19.3359375-29.4375-42.2802734-29.4375-68.8320313c0-26.5507813,11.1113281-48.9169922,33.3334961-67.0986328
		c-14.1416016-15.2958984-21.2119141-32.9003906-21.2119141-52.8144531c0-22.5107422,8.5854492-41.8466797,25.7573242-58.0083008
		C129.3383789,148.0810547,149.6118164,140,172.9887695,140c23.3764648,0,43.7949219,8.1533203,61.2553711,24.4589844
		c17.4599609,16.3056641,26.1904297,35.5698242,26.1904297,57.7919922c0,19.3364258-7.503418,36.9414063-22.5107422,52.8144531
		C260.4345703,292.3808594,271.6899414,314.7480469,271.6899414,342.1640625z M213.6811523,221.3857422
		c0-9.8125-3.9682617-18.0380859-11.9047852-24.6757813s-17.5322266-9.956543-28.7875977-9.956543
		s-20.8515625,3.3188477-28.7880859,9.956543s-11.9047852,14.8632813-11.9047852,24.6757813
		c0,8.3691406,3.9682617,15.65625,11.9047852,21.8613281s17.5322266,9.3076172,28.7880859,9.3076172
		c10.9667969,0,20.4902344-3.1025391,28.5712891-9.3076172S213.6811523,229.7548828,213.6811523,221.3857422z
		 M225.8022461,343.4628906c0-12.1210938-5.1948242-22.5097656-15.5844727-31.1679688
		c-10.3891602-8.6582031-22.7993164-12.9873047-37.2290039-12.9873047c-14.4301758,0-26.6958008,4.2568359-36.796875,12.7705078
		s-15.1513672,18.9755859-15.1513672,31.3847656c0,13.5644531,5.050293,25.2529297,15.1513672,35.0654297
		s22.3666992,14.71875,36.796875,14.71875c14.7182617,0,27.2001953-4.90625,37.4458008-14.71875
		C220.6796875,368.7158203,225.8022461,357.0273438,225.8022461,343.4628906z"/>
	<path fill-rule="evenodd" clip-rule="evenodd" d="M525.7128906,232.2080078
		c0,39.8271484-10.2460938,78.6435547-30.7363281,116.4501953S447.3574219,416.9121094,413.5917969,440l-22.5117188-38.9609375
		c31.1689453-24.53125,54.6894531-53.9677734,70.5625-88.3115234c-14.4296875,2.5976563-25.9736328,3.8955078-34.6308594,3.8955078
		c-27.1289063,0-50.3613281-8.6572266-69.6972656-25.9736328c-19.3359375-17.315918-29.0039063-38.0947266-29.0039063-62.3378906
		c0-24.8193359,9.5234375-45.7426758,28.5703125-62.7705078C375.9296875,148.5136719,399.3046875,140,427.0117188,140
		c27.9941406,0,51.4423828,8.8027344,70.3457031,26.4072266S525.7128906,205.9453125,525.7128906,232.2080078z
		 M479.8242188,228.3115234c0-11.2548828-5.265625-20.9951172-15.8007813-29.2207031
		c-10.5332031-8.2246094-22.8710938-12.3374023-37.0117188-12.3374023c-14.4306641,0-26.6962891,4.0405273-36.796875,12.121582
		c-10.1015625,8.0805664-15.1523438,17.8925781-15.1523438,29.4365234c0,11.5444336,5.0507813,21.3569336,15.1523438,29.4375
		c10.1005859,8.0810547,22.3662109,12.1210938,36.796875,12.1210938c14.7177734,0,27.1992188-4.0400391,37.4453125-12.1210938
		C474.7021484,249.668457,479.8242188,239.855957,479.8242188,228.3115234z"/>
</g>
</svg>
