<?xml version="1.0" encoding="utf-8"?>
<!-- Generator: Adobe Illustrator 12.0.0, SVG Export Plug-In . SVG Version: 6.00 Build 51448)  -->
<!DOCTYPE svg PUBLIC "-//W3C//DTD SVG 1.1//EN" "http://www.w3.org/Graphics/SVG/1.1/DTD/svg11.dtd" [
	<!ENTITY ns_svg "http://www.w3.org/2000/svg">
	<!ENTITY ns_xlink "http://www.w3.org/1999/xlink">
]>
<svg  version="1.1" id="Layer_1" xmlns="&ns_svg;" xmlns:xlink="&ns_xlink;" width="600" height="600" viewBox="0 0 600 600"
	 overflow="visible" enable-background="new 0 0 600 600" xml:space="preserve">
<g>
	<path d="M0,50C0,22.3857422,22.3852539,0,50,0h500c27.6142578,0,50,22.3857422,50,50v500c0,27.6152344-22.3857422,50-50,50H50
		c-27.6147461,0-50-22.3847656-50-50V50L0,50z"/>
	<path d="M300,300"/>
</g>
<g>
	<path fill-rule="evenodd" clip-rule="evenodd" fill="#FFFFFF" d="M300,10.0024414
		c23.5644531,20.0751953,54.1171875,32.1914063,87.5,32.1914063S451.4355469,30.0751953,475,10l115,115
		c-21.1621094,30.0805664-33.5878906,66.7539063-33.5878906,106.3271484c0,28.4628906,6.4267578,55.4238281,17.9101563,79.5117188
		C584.2441406,331.6640625,590,355.3945313,590,380c0,88.3671875-71.6328125,160-160,160h-25.1132813
		C362.5419922,540,324.7509766,559.4951172,300,590c-24.7514648-30.5048828-62.5424805-50-104.8867188-50h-25.1137695
		c-88.3666992,0-160-71.6328125-160-160c0-24.6054688,5.7558594-48.3359375,15.6782227-69.1611328
		c11.4829102-24.0878906,17.9106445-51.0488281,17.9106445-79.5117188C43.5883789,191.7539063,31.1616211,155.0805664,10,125L125,10
		c23.5644531,20.0751953,54.1166992,32.1938477,87.5,32.1938477C245.8828125,42.1938477,276.4355469,30.0776367,300,10.0024414z"/>
	
		<path fill-rule="evenodd" clip-rule="evenodd" fill="none" stroke="#000000" stroke-linecap="round" stroke-linejoin="round" stroke-miterlimit="3.863693" d="
		M300,10.0024414c23.5644531,20.0751953,54.1171875,32.1914063,87.5,32.1914063S451.4355469,30.0751953,475,10l115,115
		c-21.1621094,30.0805664-33.5878906,66.7539063-33.5878906,106.3271484c0,28.4628906,6.4267578,55.4238281,17.9101563,79.5117188
		C584.2441406,331.6640625,590,355.3945313,590,380c0,88.3671875-71.6328125,160-160,160h-25.1132813
		C362.5419922,540,324.7509766,559.4951172,300,590c-24.7514648-30.5048828-62.5424805-50-104.8867188-50h-25.1137695
		c-88.3666992,0-160-71.6328125-160-160c0-24.6054688,5.7558594-48.3359375,15.6782227-69.1611328
		c11.4829102-24.0878906,17.9106445-51.0488281,17.9106445-79.5117188C43.5883789,191.7539063,31.1616211,155.0805664,10,125L125,10
		c23.5644531,20.0751953,54.1166992,32.1938477,87.5,32.1938477C245.8828125,42.1938477,276.4355469,30.0776367,300,10.0024414z"/>
</g>
<g>
	<path fill-rule="evenodd" clip-rule="evenodd" d="M276.2353516,232.2080078
		c0,39.8266602-10.2451172,78.6435547-30.7358398,116.4501953S197.8803711,416.9121094,164.1142578,440l-22.5107422-38.9609375
		c31.168457-24.53125,54.6894531-53.96875,70.5625-88.3115234c-14.4301758,2.5966797-25.9741211,3.8955078-34.6318359,3.8955078
		c-27.128418,0-50.3608398-8.6572266-69.6972656-25.9736328c-19.3354492-17.315918-29.0043945-38.0952148-29.0043945-62.3374023
		c0-24.8198242,9.5239258-45.7431641,28.5717773-62.7705078C126.4521484,148.5136719,149.8286133,140,177.5341797,140
		c27.9941406,0,51.4428711,8.8027344,70.3461914,26.4072266S276.2353516,205.9453125,276.2353516,232.2080078z
		 M230.3481445,228.3120117c0-11.2553711-5.2670898-20.9956055-15.8012695-29.2207031
		c-10.5336914-8.2250977-22.871582-12.3378906-37.0126953-12.3378906c-14.4301758,0-26.6958008,4.0405273-36.7963867,12.1210938
		c-10.1010742,8.0810547-15.1518555,17.8930664-15.1518555,29.4375c0,11.5439453,5.0507813,21.3564453,15.1518555,29.4370117
		c10.1005859,8.0810547,22.3662109,12.1210938,36.7963867,12.1210938c14.7182617,0,27.2006836-4.0400391,37.4458008-12.1210938
		C225.2250977,249.668457,230.3481445,239.855957,230.3481445,228.3120117z"/>
	<path fill-rule="evenodd" clip-rule="evenodd" d="M521.1669922,190.6494141
		c-5.4833984,6.3496094-13.9970703,17.8935547-25.5410156,34.6318359
		c-27.4169922,45.8876953-45.4541016,92.0634766-54.1123047,138.5283203
		c-4.0410156,21.6455078-6.0605469,45.3105469-6.0605469,70.9951172h-46.7539063
		c0.8662109-64.9345703,14.71875-126.2617188,41.5585938-183.9819336
		c9.5234375-20.4907227,20.4902344-40.5483398,32.9003906-60.1733398H324.6308594v-45.887207h196.5361328V190.6494141z"/>
</g>
</svg>
