<?xml version="1.0" encoding="utf-8"?>
<!-- Generator: Adobe Illustrator 12.0.0, SVG Export Plug-In . SVG Version: 6.00 Build 51448)  -->
<!DOCTYPE svg PUBLIC "-//W3C//DTD SVG 1.1//EN" "http://www.w3.org/Graphics/SVG/1.1/DTD/svg11.dtd" [
	<!ENTITY ns_svg "http://www.w3.org/2000/svg">
	<!ENTITY ns_xlink "http://www.w3.org/1999/xlink">
]>
<svg  version="1.1" id="Layer_1" xmlns="&ns_svg;" xmlns:xlink="&ns_xlink;" width="600" height="600" viewBox="0 0 600 600"
	 overflow="visible" enable-background="new 0 0 600 600" xml:space="preserve">
<g>
	<path d="M0,50C0,22.3857422,22.3852539,0,50,0h500c27.6142578,0,50,22.3857422,50,50v500c0,27.6152344-22.3857422,50-50,50H50
		c-27.6147461,0-50-22.3847656-50-50V50L0,50z"/>
	<path d="M300,300"/>
</g>
<g>
	<path fill-rule="evenodd" clip-rule="evenodd" fill="#FFFFFF" d="M300,10.0024414
		c23.5644531,20.0751953,54.1171875,32.1914063,87.5,32.1914063S451.4355469,30.0751953,475,10l115,115
		c-21.1621094,30.0805664-33.5878906,66.7539063-33.5878906,106.3271484c0,28.4628906,6.4267578,55.4238281,17.9101563,79.5117188
		C584.2441406,331.6640625,590,355.3945313,590,380c0,88.3671875-71.6328125,160-160,160h-25.1132813
		C362.5419922,540,324.7509766,559.4951172,300,590c-24.7514648-30.5048828-62.5419922-50-104.8867188-50h-25.1137695
		c-88.3666992,0-160-71.6328125-160-160c0-24.6054688,5.7563477-48.3359375,15.6787109-69.1611328
		c11.4824219-24.0878906,17.9101563-51.0488281,17.9101563-79.5117188C43.5883789,191.7539063,31.1616211,155.0805664,10,125L125,10
		c23.5644531,20.0751953,54.1166992,32.1938477,87.5,32.1938477C245.8828125,42.1938477,276.4355469,30.0776367,300,10.0024414z"/>
	
		<path fill-rule="evenodd" clip-rule="evenodd" fill="none" stroke="#000000" stroke-linecap="round" stroke-linejoin="round" stroke-miterlimit="3.863693" d="
		M300,10.0024414c23.5644531,20.0751953,54.1171875,32.1914063,87.5,32.1914063S451.4355469,30.0751953,475,10l115,115
		c-21.1621094,30.0805664-33.5878906,66.7539063-33.5878906,106.3271484c0,28.4628906,6.4267578,55.4238281,17.9101563,79.5117188
		C584.2441406,331.6640625,590,355.3945313,590,380c0,88.3671875-71.6328125,160-160,160h-25.1132813
		C362.5419922,540,324.7509766,559.4951172,300,590c-24.7514648-30.5048828-62.5419922-50-104.8867188-50h-25.1137695
		c-88.3666992,0-160-71.6328125-160-160c0-24.6054688,5.7563477-48.3359375,15.6787109-69.1611328
		c11.4824219-24.0878906,17.9101563-51.0488281,17.9101563-79.5117188C43.5883789,191.7539063,31.1616211,155.0805664,10,125L125,10
		c23.5644531,20.0751953,54.1166992,32.1938477,87.5,32.1938477C245.8828125,42.1938477,276.4355469,30.0776367,300,10.0024414z"/>
</g>
<g>
	<path fill-rule="evenodd" clip-rule="evenodd" d="M267.5776367,232.2080078
		c0,39.8266602-10.2456055,78.6435547-30.7358398,116.4501953C216.3510742,386.4648438,189.2226563,416.9121094,155.4560547,440
		l-22.5107422-38.9609375c31.1689453-24.53125,54.6899414-53.96875,70.5629883-88.3115234
		c-14.4301758,2.5966797-25.9741211,3.8955078-34.6323242,3.8955078c-27.1279297,0-50.3603516-8.6572266-69.6967773-25.9736328
		c-19.3364258-17.315918-29.0043945-38.0952148-29.0043945-62.3374023c0-24.8198242,9.5239258-45.7431641,28.5712891-62.7705078
		C117.7939453,148.5136719,141.1704102,140,168.8759766,140c27.9941406,0,51.4433594,8.8027344,70.3466797,26.4072266
		S267.5776367,205.9453125,267.5776367,232.2080078z M221.6899414,228.3120117
		c0-11.2553711-5.2670898-20.9956055-15.8007813-29.2207031s-22.871582-12.3378906-37.0131836-12.3378906
		c-14.4296875,0-26.6953125,4.0405273-36.7963867,12.1210938c-10.1010742,8.0810547-15.1513672,17.8930664-15.1513672,29.4375
		c0,11.5439453,5.050293,21.3564453,15.1513672,29.4370117c10.1010742,8.0810547,22.3666992,12.1210938,36.7963867,12.1210938
		c14.71875,0,27.2006836-4.0400391,37.4462891-12.1210938C216.5673828,249.668457,221.6899414,239.855957,221.6899414,228.3120117z"
		/>
	<path fill-rule="evenodd" clip-rule="evenodd" d="M529.8251953,290.2167969
		c0,53.9677734-11.5439453,94.5166016-34.6318359,121.6445313C478.7431641,430.6210938,456.3759766,440,428.09375,440
		c-38.3837891,0-66.0898438-17.3164063-83.1171875-51.9472656c-13.5644531-27.7060547-20.3466797-60.3183594-20.3466797-97.8359375
		c0-49.9277344,10.5341797-89.1777344,31.6025391-117.7490234C372.1054688,150.8227539,396.7802734,140,430.2578125,140
		c36.3632813,0,63.2041016,17.171875,80.5195313,51.515625
		C523.4755859,217.4892578,529.8251953,250.3896484,529.8251953,290.2167969z M484.3701172,290.2167969
		c0-34.6323242-5.7714844-61.7607422-17.3154297-81.3857422c-8.3691406-13.8525391-20.9238281-21.2119141-37.6621094-22.0776367
		c-21.0683594-1.1547852-36.6523438,10.6782227-46.7539063,35.4975586
		c-7.5039063,18.4707031-11.2548828,41.1259766-11.2548828,67.9658203c0,34.6318359,5.7714844,61.4716797,17.3154297,80.5195313
		c8.9472656,15.0068359,22.078125,22.5107422,39.3945313,22.5107422c20.2021484,0,35.2089844-12.265625,45.0214844-36.796875
		C480.6191406,337.6914063,484.3701172,315.6132813,484.3701172,290.2167969z"/>
</g>
</svg>
