<?xml version="1.0" encoding="utf-8"?>
<!-- Generator: Adobe Illustrator 12.0.0, SVG Export Plug-In . SVG Version: 6.00 Build 51448)  -->
<!DOCTYPE svg PUBLIC "-//W3C//DTD SVG 1.1//EN" "http://www.w3.org/Graphics/SVG/1.1/DTD/svg11.dtd" [
	<!ENTITY ns_svg "http://www.w3.org/2000/svg">
	<!ENTITY ns_xlink "http://www.w3.org/1999/xlink">
]>
<svg  version="1.1" id="Layer_1" xmlns="&ns_svg;" xmlns:xlink="&ns_xlink;" width="600" height="600" viewBox="0 0 600 600"
	 overflow="visible" enable-background="new 0 0 600 600" xml:space="preserve">
<g>
	<path d="M0,50C0,22.3857422,22.3852539,0,50,0h500c27.6142578,0,50,22.3857422,50,50v500c0,27.6152344-22.3857422,50-50,50H50
		c-27.6147461,0-50-22.3847656-50-50V50L0,50z"/>
	<path d="M300,300"/>
</g>
<g>
	<path fill-rule="evenodd" clip-rule="evenodd" fill="#FFFFFF" d="M300,10.0024414
		c23.5644531,20.0751953,54.1171875,32.1914063,87.5,32.1914063S451.4355469,30.0751953,475,10l115,115
		c-21.1621094,30.0805664-33.5878906,66.7539063-33.5878906,106.3271484c0,28.4628906,6.4267578,55.4238281,17.9101563,79.5117188
		C584.2441406,331.6640625,590,355.3945313,590,380c0,88.3671875-71.6328125,160-160,160h-25.1132813
		C362.5419922,540,324.7509766,559.4951172,300,590c-24.7514648-30.5048828-62.5419922-50-104.8867188-50h-25.1137695
		c-88.3666992,0-160-71.6328125-160-160c0-24.6054688,5.7563477-48.3359375,15.6782227-69.1611328
		c11.4829102-24.0878906,17.9101563-51.0488281,17.9101563-79.5117188C43.5878906,191.7539063,31.1616211,155.0805664,10,125L125,10
		c23.5644531,20.0751953,54.1171875,32.1938477,87.5,32.1938477S276.4355469,30.0776367,300,10.0024414z"/>
	
		<path fill-rule="evenodd" clip-rule="evenodd" fill="none" stroke="#000000" stroke-linecap="round" stroke-linejoin="round" stroke-miterlimit="3.863693" d="
		M300,10.0024414c23.5644531,20.0751953,54.1171875,32.1914063,87.5,32.1914063S451.4355469,30.0751953,475,10l115,115
		c-21.1621094,30.0805664-33.5878906,66.7539063-33.5878906,106.3271484c0,28.4628906,6.4267578,55.4238281,17.9101563,79.5117188
		C584.2441406,331.6640625,590,355.3945313,590,380c0,88.3671875-71.6328125,160-160,160h-25.1132813
		C362.5419922,540,324.7509766,559.4951172,300,590c-24.7514648-30.5048828-62.5419922-50-104.8867188-50h-25.1137695
		c-88.3666992,0-160-71.6328125-160-160c0-24.6054688,5.7563477-48.3359375,15.6782227-69.1611328
		c11.4829102-24.0878906,17.9101563-51.0488281,17.9101563-79.5117188C43.5878906,191.7539063,31.1616211,155.0805664,10,125L125,10
		c23.5644531,20.0751953,54.1171875,32.1938477,87.5,32.1938477S276.4355469,30.0776367,300,10.0024414z"/>
</g>
<g>
	<path fill-rule="evenodd" clip-rule="evenodd" d="M274.5039063,232.2080078
		c0,39.8266602-10.2451172,78.6435547-30.7358398,116.4501953S196.1489258,416.9121094,162.3828125,440l-22.5107422-38.9609375
		c31.168457-24.53125,54.6894531-53.96875,70.5625-88.3115234c-14.4296875,2.5966797-25.9741211,3.8955078-34.6318359,3.8955078
		c-27.1289063,0-50.3608398-8.6572266-69.6972656-25.9736328c-19.3359375-17.315918-29.0039063-38.0952148-29.0039063-62.3374023
		c0-24.8198242,9.5234375-45.7431641,28.5712891-62.7705078C124.7202148,148.5136719,148.097168,140,175.8027344,140
		c27.9941406,0,51.4428711,8.8027344,70.3461914,26.4072266S274.5039063,205.9453125,274.5039063,232.2080078z
		 M228.6162109,228.3120117c0-11.2553711-5.2666016-20.9956055-15.8007813-29.2207031
		c-10.5336914-8.2250977-22.8710938-12.3378906-37.0126953-12.3378906c-14.4301758,0-26.6958008,4.0405273-36.796875,12.1210938
		c-10.1005859,8.0810547-15.1513672,17.8930664-15.1513672,29.4375c0,11.5439453,5.0507813,21.3564453,15.1513672,29.4370117
		c10.1010742,8.0810547,22.3666992,12.1210938,36.796875,12.1210938c14.71875,0,27.2001953-4.0400391,37.4458008-12.1210938
		C223.4936523,249.668457,228.6162109,239.855957,228.6162109,228.3120117z"/>
	<path fill-rule="evenodd" clip-rule="evenodd" d="M522.8984375,339.1347656
		c0,29.7255859-9.3066406,53.9677734-27.921875,72.7265625C476.3613281,430.6210938,452.3359375,440,422.8984375,440
		c-23.3769531,0-43.7949219-7.0703125-61.2548828-21.2119141s-29.2216797-32.9003906-35.2822266-56.2773438l44.5888672-12.9873047
		c7.5039063,29.1494141,25.5419922,43.7236328,54.1132813,43.7236328c15.2958984,0,27.7773438-4.8339844,37.4453125-14.5029297
		c9.6689453-9.6679688,14.5029297-21.8613281,14.5029297-36.5800781c0-16.7382813-5.484375-28.859375-16.4511719-36.3632813
		c-4.6171875-3.4628906-14.4296875-5.6269531-29.4365234-6.4931641c0,0-1.7314453,0-5.1943359,0v-45.4545898h11.2548828
		c19.0478516,0,28.5712891-9.5239258,28.5712891-28.5717773c0-11.2548828-4.0410156-20.4902344-12.1210938-27.7050781
		c-8.0810547-7.215332-17.8935547-10.8227539-29.4375-10.8227539c-19.3359375,0-33.9101563,9.3793945-43.7226563,28.1386719
		l-42.8574219-16.0175781c7.5039063-18.4702148,18.9033203-32.9003906,34.1992188-43.2900391S404.1396484,140,422.8984375,140
		c24.53125,0,45.4550781,8.5859375,62.7705078,25.7578125c17.3164063,17.171875,25.9746094,38.0229492,25.9746094,62.5541992
		c0,15.5844727-5.4833984,31.4575195-16.4501953,47.6186523c10.6777344,9.8125,17.9648438,19.1923828,21.8613281,28.1386719
		C520.9501953,313.015625,522.8984375,324.7041016,522.8984375,339.1347656z"/>
</g>
</svg>
