<?xml version="1.0" encoding="utf-8"?>
<!-- Generator: Adobe Illustrator 12.0.0, SVG Export Plug-In . SVG Version: 6.00 Build 51448)  -->
<!DOCTYPE svg PUBLIC "-//W3C//DTD SVG 1.1//EN" "http://www.w3.org/Graphics/SVG/1.1/DTD/svg11.dtd" [
	<!ENTITY ns_svg "http://www.w3.org/2000/svg">
	<!ENTITY ns_xlink "http://www.w3.org/1999/xlink">
]>
<svg  version="1.1" id="Layer_1" xmlns="&ns_svg;" xmlns:xlink="&ns_xlink;" width="385" height="385" viewBox="0 0 385 385"
	 overflow="visible" enable-background="new 0 0 385 385" xml:space="preserve">
<g>
	<g>
		<g>
			<path fill="#FFFFFF" d="M0.5,24.5c0-13.2548828,10.7451172-24,24-24h336c13.2548828,0,24,10.7451172,24,24v336
				c0,13.2548828-10.7451172,24-24,24h-336c-13.2548828,0-24-10.7451172-24-24V24.5L0.5,24.5z"/>
			<path fill="#FFFFFF" d="M192.5,192.5"/>
		</g>
		<g>
			<path fill="none" stroke="#000000" stroke-linecap="round" stroke-linejoin="round" stroke-miterlimit="3.863693" d="M0.5,24.5
				c0-13.2548828,10.7451172-24,24-24h336c13.2548828,0,24,10.7451172,24,24v336c0,13.2548828-10.7451172,24-24,24h-336
				c-13.2548828,0-24-10.7451172-24-24V24.5L0.5,24.5z"/>
			<path fill="none" stroke="#000000" stroke-linecap="round" stroke-linejoin="round" stroke-miterlimit="3.863693" d="
				M192.5,192.5"/>
		</g>
	</g>
	<g>
		<g>
			<path d="M4.5,24.5c0-11.0458984,8.9541016-20,20-20h336c11.0458984,0,20,8.9541016,20,20v336c0,11.0458984-8.9541016,20-20,20
				h-336c-11.0458984,0-20-8.9541016-20-20V24.5L4.5,24.5z"/>
			<path d="M192.5,192.5"/>
		</g>
	</g>
	<g>
		<path fill="#FFFFFF" d="M166.9282227,57.7758789C169.1499023,45.671875,179.7539063,36.5,192.5,36.5
			s23.3505859,9.171875,25.5722656,21.2758789C210.6503906,61.4013672,201.90625,63.5,192.5,63.5
			S174.3491211,61.4013672,166.9282227,57.7758789z"/>
	</g>
	<g>
		<path fill-rule="evenodd" clip-rule="evenodd" fill="#FFFFFF" d="M192.5,264.5c-17.6733398,0-32,14.3261719-32,32
			l0.0117188,0.8691406c-43.2016602-3.0839844-82.3466797-12.3222656-114.2084961-25.8476563
			c-1.1484375-0.4873047-2.2875977-0.9804688-3.4169922-1.4794922C36.6958008,266.6425781,32.5,260.0615234,32.5,252.5
			c0-7.5078125,4.137207-14.0498047,10.2563477-17.4707031C38.9033203,231.3847656,36.5,226.2226563,36.5,220.5
			c0-9.140625,6.1323242-16.8496094,14.5078125-19.2363281C47.0083008,197.6064453,44.5,192.3466797,44.5,186.5
			c0-11.0458984,8.9541016-20,20-20c-2.5117188-3.3427734-4-7.4960938-4-12c0-11.0458984,8.9541016-20,20-20
			c0.9462891,0,1.8774414,0.0654297,2.7885742,0.1928711C81.5170898,131.7080078,80.5,128.2226563,80.5,124.5
			c0-11.0458984,8.9541016-20,20-20c2.8837891,0,5.625,0.6103516,8.1015625,1.7089844
			C106.0283203,103.5166016,104.5,100.1508789,104.5,96.5c0-8.8369141,8.9541016-16,20-16
			c3.027832,0,5.8984375,0.5380859,8.4707031,1.5019531l1.2753906,0.5229492C151.5556641,89.5263672,171.4233398,93.5,192.5,93.5
			c21.0761719,0,40.9443359-3.9736328,58.2539063-10.9750977l1.2753906-0.5229492
			C254.6015625,81.0380859,257.4716797,80.5,260.5,80.5c11.0458984,0,20,7.1630859,20,16
			c0,3.6508789-1.5283203,7.0166016-4.1015625,9.7089844C278.875,105.1103516,281.6162109,104.5,284.5,104.5
			c11.0458984,0,20,8.9541016,20,20c0,3.7226563-1.0175781,7.2080078-2.7890625,10.1928711
			C302.6230469,134.5654297,303.5537109,134.5,304.5,134.5c11.0458984,0,20,8.9541016,20,20c0,4.5039063-1.4882813,8.6572266-4,12
			c11.0458984,0,20,8.9541016,20,20c0,5.8466797-2.5078125,11.1064453-6.5078125,14.7636719
			C342.3671875,203.6503906,348.5,211.359375,348.5,220.5c0,5.7226563-2.4033203,10.8847656-6.2558594,14.5292969
			C348.3632813,238.4501953,352.5,244.9921875,352.5,252.5c0,7.5615234-4.1953125,14.1425781-10.3867188,17.5419922
			c-1.1289063,0.4990234-2.2675781,0.9921875-3.4160156,1.4794922
			c-31.8623047,13.5253906-71.0078125,22.7636719-114.2089844,25.8476563L224.5,296.5
			C224.5,278.8261719,210.1738281,264.5,192.5,264.5z"/>
	</g>
	<g>
		<path fill-rule="evenodd" clip-rule="evenodd" fill="#FFFFFF" d="M192.5,91.5
			c-3.8662109,0-7.6879883-0.1347656-11.4570313-0.3974609c-18.3183594-1.2768555-35.3896484-5.5849609-50.2939453-12.2177734
			C132.5087891,66.2363281,143.3671875,56.5,156.5,56.5c1.6435547,0,3.2519531,0.1523438,4.8115234,0.4443359
			c3.5493164,2.2050781,7.4677734,4.0410156,11.6621094,5.4394531C179.0024414,64.3935547,185.6020508,65.5,192.5,65.5
			c6.8984375,0,13.4980469-1.1064453,19.5263672-3.1162109c4.1943359-1.3984375,8.1123047-3.234375,11.6621094-5.4394531
			C225.2480469,56.6523438,226.8564453,56.5,228.5,56.5c13.1328125,0,23.9912109,9.7363281,25.7509766,22.3847656
			c-14.9042969,6.6328125-31.9755859,10.940918-50.2939453,12.2177734C200.1875,91.3652344,196.3662109,91.5,192.5,91.5z"/>
	</g>
	<g>
		<path fill-rule="evenodd" clip-rule="evenodd" fill="#FFFFFF" d="M16.5,332.5v-40h48l-44.3076172-1.8457031l28.0415039-14.0214844
			C88.1591797,292.8935547,138.375,302.5,192.5,302.5s104.3408203-9.6064453,144.265625-25.8671875l28.0419922,14.0214844
			L320.5,292.5h48v40H16.5z"/>
	</g>
</g>
<g>
	<path fill-rule="evenodd" clip-rule="evenodd" d="M178.1582031,209.5253906c0,6.2714844-1.0454102,12.0507813-3.1357422,17.3378906
		s-5.0107422,9.8056641-8.7607422,13.5566406c-3.7504883,3.75-8.2382813,6.7011719-13.4638672,8.8525391
		C147.5717773,251.4238281,141.8237305,252.5,135.5527344,252.5c-5.0415039,0-9.7446289-0.7988281-14.109375-2.3974609
		c-4.3652344-1.5986328-8.3613281-3.8115234-11.9887695-6.6396484s-6.7319336-6.2714844-9.3139648-10.3291016
		s-4.4882813-8.6064453-5.7177734-13.6484375l19.1816406-5.5322266c1.4755859,6.0244141,4.1806641,10.6347656,8.1152344,13.8320313
		s8.8530273,4.7958984,14.7548828,4.7958984c3.3203125,0,6.3325195-0.5537109,9.0375977-1.6601563
		s5.0107422-2.6132813,6.9165039-4.5185547c1.9057617-1.90625,3.4121094-4.1806641,4.5185547-6.8242188
		c1.1069336-2.6435547,1.6601563-5.5644531,1.6601563-8.7617188c0-3.1962891-0.6147461-6.2089844-1.8447266-9.0371094
		c-1.2294922-2.828125-2.9506836-5.0410156-5.1640625-6.6396484c-0.737793-0.4912109-1.3833008-0.8916016-1.9365234-1.1982422
		c-0.5532227-0.3076172-1.2294922-0.5234375-2.0288086-0.6464844c-0.7993164-0.1220703-1.8442383-0.2451172-3.1352539-0.3681641
		s-3.1049805-0.2460938-5.440918-0.3691406H136.84375v-19.9189453v0.5532227h0.5532227h0.3686523h3.8735352
		c3.9345703,0,6.9472656-1.0454102,9.0375977-3.1352539c2.0898438-2.0908203,3.1352539-5.1035156,3.1352539-9.0380859
		c0-4.7949219-1.690918-8.7607422-5.0717773-11.8959961c-3.3818359-3.1352539-7.5927734-4.703125-12.6342773-4.703125
		c-8.2382813,0-14.4477539,4.0571289-18.628418,12.1728516l-18.2592773-6.824707
		c3.1967773-7.8691406,8.0229492-14.0478516,14.4785156-18.5356445S127.4375,124.5,135.5527344,124.5
		c5.1640625,0,10.0517578,0.9838867,14.6625977,2.9511719s8.6381836,4.6723633,12.0805664,8.1152344
		c3.4433594,3.4428711,6.1484375,7.4697266,8.1157227,12.0800781c1.9672852,4.6113281,2.9506836,9.4990234,2.9506836,14.6630859
		c0,3.6894531-0.4916992,7.0087891-1.4755859,9.9599609c-0.9833984,2.9511719-2.828125,6.3935547-5.5332031,10.328125
		c2.3364258,2.0908203,4.2421875,4.0888672,5.7177734,5.9946289s2.6743164,3.9038086,3.5966797,5.9946289
		c0.921875,2.0898438,1.5678711,4.3339844,1.9365234,6.7314453
		C177.9736328,203.7167969,178.1582031,206.4521484,178.1582031,209.5253906z"/>
	<path fill-rule="evenodd" clip-rule="evenodd" d="M290.5771484,188.6845703c0,9.8369141-1.1679688,19.2431641-3.5048828,28.21875
		c-2.3359375,8.9765625-5.65625,16.2304688-9.9589844,21.7636719C270.2275391,247.8886719,260.2675781,252.5,247.234375,252.5
		c-8.7304688,0-15.9238281-1.7832031-21.5800781-5.3486328c-5.6552734-3.5654297-10.328125-9.1601563-14.0166016-16.7841797
		c-2.5820313-5.2871094-4.6728516-11.7109375-6.2705078-19.2734375c-1.5986328-7.5625-2.3984375-15.0322266-2.3984375-22.4091797
		c0-10.2055664,1.1992188-19.6733398,3.5966797-28.4038086c2.3974609-8.7299805,5.6865234-16.0458984,9.8671875-21.9477539
		c3.6894531-4.6728516,8.0849609-8.1459961,13.1875-10.4208984C234.7226563,125.6376953,240.8398438,124.5,247.9716797,124.5
		c7.8701172,0,14.5712891,1.7832031,20.1044922,5.3486328c5.5322266,3.565918,10.2666016,9.1606445,14.2011719,16.7841797
		c2.5820313,5.5332031,4.6113281,11.9882813,6.0859375,19.3662109
		C289.8398438,173.3759766,290.5771484,180.9384766,290.5771484,188.6845703z M271.0263672,188.6845703
		c0-7.0087891-0.6142578-13.4951172-1.8447266-19.4580078c-1.2285156-5.9638672-3.0732422-11.0361328-5.5322266-15.2163086
		c-1.9677734-3.1967773-4.2119141-5.5336914-6.7324219-7.0087891c-2.5205078-1.4755859-5.625-2.3364258-9.3134766-2.5820313
		c-4.7958984-0.2456055-8.7919922,0.8608398-11.9892578,3.3198242c-3.1962891,2.4589844-5.8408203,6.4550781-7.9306641,11.9882813
		c-1.5986328,3.6889648-2.796875,8.1464844-3.5966797,13.3720703c-0.7988281,5.2255859-1.1982422,10.4208984-1.1982422,15.5849609
		c0,6.6396484,0.6142578,13.0341797,1.84375,19.1806641c1.2294922,6.1484375,3.0742188,11.1904297,5.5332031,15.125
		c1.9677734,3.1972656,4.3037109,5.59375,7.0087891,7.1923828s6.0244141,2.3984375,9.9599609,2.3984375
		c4.5488281,0,8.3300781-1.2294922,11.3427734-3.6894531c3.0126953-2.4589844,5.5634766-6.4550781,7.6542969-11.9882813
		c0.6142578-1.5986328,1.2294922-3.5351563,1.8447266-5.8095703c0.6142578-2.2753906,1.1367188-4.671875,1.5673828-7.1933594
		c0.4306641-2.5205078,0.7685547-5.0722656,1.0146484-7.6542969
		C270.9033203,193.6640625,271.0263672,191.1435547,271.0263672,188.6845703z"/>
</g>
</svg>
