<?xml version="1.0" encoding="utf-8"?>
<!-- Generator: Adobe Illustrator 12.0.0, SVG Export Plug-In . SVG Version: 6.00 Build 51448)  -->
<!DOCTYPE svg PUBLIC "-//W3C//DTD SVG 1.1//EN" "http://www.w3.org/Graphics/SVG/1.1/DTD/svg11.dtd" [
	<!ENTITY ns_svg "http://www.w3.org/2000/svg">
	<!ENTITY ns_xlink "http://www.w3.org/1999/xlink">
]>
<svg  version="1.1" id="Layer_1" xmlns="&ns_svg;" xmlns:xlink="&ns_xlink;" width="385" height="385" viewBox="0 0 385 385"
	 overflow="visible" enable-background="new 0 0 385 385" xml:space="preserve">
<g>
	<g>
		<g>
			<path fill="#FFFFFF" d="M0.5,24.5c0-13.2553711,10.7451172-24,24-24h336c13.2548828,0,24,10.7446289,24,24v336
				c0,13.2548828-10.7451172,24-24,24h-336c-13.2548828,0-24-10.7451172-24-24V24.5L0.5,24.5z"/>
			<path fill="#FFFFFF" d="M192.5,192.5"/>
		</g>
		<g>
			<path fill="none" stroke="#000000" stroke-linecap="round" stroke-linejoin="round" stroke-miterlimit="3.863693" d="M0.5,24.5
				c0-13.2553711,10.7451172-24,24-24h336c13.2548828,0,24,10.7446289,24,24v336c0,13.2548828-10.7451172,24-24,24h-336
				c-13.2548828,0-24-10.7451172-24-24V24.5L0.5,24.5z"/>
			<path fill="none" stroke="#000000" stroke-linecap="round" stroke-linejoin="round" stroke-miterlimit="3.863693" d="
				M192.5,192.5"/>
		</g>
	</g>
	<g>
		<g>
			<path d="M4.5,24.5c0-11.0458984,8.9541016-20,20-20h336c11.0458984,0,20,8.9541016,20,20v336c0,11.0458984-8.9541016,20-20,20
				h-336c-11.0458984,0-20-8.9541016-20-20V24.5L4.5,24.5z"/>
			<path d="M192.5,192.5"/>
		</g>
	</g>
	<g>
		<path fill="#FFFFFF" d="M166.9282227,57.7758789C169.1499023,45.671875,179.753418,36.5,192.5,36.5
			c12.7460938,0,23.3496094,9.171875,25.5722656,21.2758789C210.6503906,61.4013672,201.90625,63.5,192.5,63.5
			C183.0942383,63.5,174.3491211,61.4013672,166.9282227,57.7758789z"/>
	</g>
	<g>
		<path fill-rule="evenodd" clip-rule="evenodd" fill="#FFFFFF" d="M192.5,264.5c-17.6733398,0-32,14.3261719-32,32
			l0.0117188,0.8691406c-43.2016602-3.0839844-82.3466797-12.3222656-114.2084961-25.8476563
			c-1.1484375-0.4882813-2.2875977-0.9804688-3.4169922-1.4785156C36.6958008,266.6425781,32.5,260.0615234,32.5,252.5
			c0-7.5078125,4.137207-14.0498047,10.2563477-17.4707031C38.9033203,231.3847656,36.5,226.2226563,36.5,220.5
			c0-9.140625,6.1323242-16.8496094,14.5078125-19.2363281C47.0083008,197.6074219,44.5,192.3461914,44.5,186.5
			c0-11.0458984,8.9541016-20,20-20c-2.5117188-3.3427734-4-7.4960938-4-12c0-11.0458984,8.9541016-20,20-20
			c0.9462891,0,1.8774414,0.065918,2.7885742,0.1928711C81.5170898,131.7080078,80.5,128.2231445,80.5,124.5
			c0-11.0458984,8.9541016-20,20-20c2.8837891,0,5.625,0.6103516,8.1015625,1.7089844
			C106.0283203,103.5166016,104.5,100.1508789,104.5,96.5c0-8.8364258,8.9541016-16,20-16
			c3.0283203,0,5.8984375,0.5385742,8.4707031,1.5019531l1.2753906,0.5229492C151.5556641,89.5263672,171.4233398,93.5,192.5,93.5
			c21.0761719,0,40.9443359-3.9736328,58.2539063-10.9750977l1.2753906-0.5229492
			C254.6015625,81.0385742,257.4726563,80.5,260.5,80.5c11.0458984,0,20,7.1635742,20,16
			c0,3.6508789-1.5283203,7.0166016-4.1015625,9.7089844C278.875,105.1103516,281.6162109,104.5,284.5,104.5
			c11.0458984,0,20,8.9541016,20,20c0,3.7231445-1.0175781,7.2080078-2.7890625,10.1928711
			C302.6230469,134.565918,303.5537109,134.5,304.5,134.5c11.0458984,0,20,8.9541016,20,20c0,4.5039063-1.4882813,8.6572266-4,12
			c11.0458984,0,20,8.9541016,20,20c0,5.8461914-2.5078125,11.1074219-6.5078125,14.7636719
			C342.3671875,203.6503906,348.5,211.359375,348.5,220.5c0,5.7226563-2.4033203,10.8847656-6.2558594,14.5292969
			C348.3632813,238.4501953,352.5,244.9921875,352.5,252.5c0,7.5615234-4.1953125,14.1425781-10.3867188,17.5429688
			c-1.1289063,0.4980469-2.2675781,0.9902344-3.4160156,1.4785156
			c-31.8623047,13.5253906-71.0078125,22.7636719-114.2089844,25.8476563L224.5,296.5
			C224.5,278.8261719,210.1738281,264.5,192.5,264.5z"/>
	</g>
	<g>
		<path fill-rule="evenodd" clip-rule="evenodd" fill="#FFFFFF" d="M192.5,91.5
			c-3.8662109,0-7.6879883-0.1342773-11.4570313-0.3969727c-18.3183594-1.2773438-35.3896484-5.5854492-50.2939453-12.2182617
			C132.5087891,66.2363281,143.3671875,56.5,156.5,56.5c1.6435547,0,3.2519531,0.152832,4.8115234,0.4443359
			c3.5493164,2.2050781,7.4677734,4.0410156,11.6621094,5.4394531C179.0024414,64.394043,185.6020508,65.5,192.5,65.5
			c6.8984375,0,13.4980469-1.105957,19.5263672-3.1162109c4.1943359-1.3984375,8.1123047-3.234375,11.6621094-5.4394531
			C225.2480469,56.652832,226.8564453,56.5,228.5,56.5c13.1328125,0,23.9912109,9.7363281,25.75,22.3847656
			c-14.9033203,6.6328125-31.9746094,10.940918-50.2929688,12.2182617C200.1875,91.3657227,196.3662109,91.5,192.5,91.5z"/>
	</g>
	<g>
		<path fill-rule="evenodd" clip-rule="evenodd" fill="#FFFFFF" d="M16.5,332.5v-40h48l-44.3076172-1.8457031l28.0415039-14.0214844
			C88.1591797,292.8945313,138.375,302.5,192.5,302.5s104.3408203-9.6054688,144.265625-25.8671875l28.0419922,14.0214844
			L320.5,292.5h48v40H16.5z"/>
	</g>
</g>
<g>
	<path fill-rule="evenodd" clip-rule="evenodd" d="M132.7636719,250.2871094V150.137207h-11.2509766v-15.6772461h1.2915039
		c2.5820313,0,5.1640625-0.6762695,7.7460938-2.0288086s4.7338867-3.2583008,6.4555664-5.7177734h15.6767578v123.5737305
		H132.7636719z"/>
	<path fill-rule="evenodd" clip-rule="evenodd" d="M179.3833008,250.2871094
		c0.2460938-7.2548828,1.168457-13.8945313,2.7666016-19.9199219c1.5986328-6.0244141,4.1191406-11.9882813,7.5620117-17.890625
		c2.5820313-4.671875,5.7792969-9.0058594,9.5908203-13.0019531s7.8691406-7.5932617,12.1728516-10.7900391
		c1.1064453-0.6147461,2.0908203-1.2602539,2.9511719-1.9365234s1.7216797-1.3217773,2.5820313-1.9365234l6.6396484-3.5043945
		l6.0869141-3.5043945l5.9013672-3.3198242c2.4589844-1.5986328,4.4570313-3.5966797,5.9941406-5.9941406
		c1.5371094-2.3979492,2.3056641-4.8876953,2.3056641-7.4697266c0-2.3364258-0.6142578-4.519043-1.8447266-6.5478516
		c-1.2285156-2.0288086-2.8583984-3.7807617-4.8867188-5.2563477c-2.0292969-1.4755859-4.3964844-2.6435547-7.1015625-3.5043945
		s-5.59375-1.2910156-8.6679688-1.2910156c-6.2714844,0-11.34375,1.4755859-15.2167969,4.4262695
		c-3.8730469,2.9511719-6.3007813,7.2548828-7.2851563,12.9111328l-19.550293-4.2421875
		c2.090332-10.3286133,6.8857422-18.4130859,14.3862305-24.2539063c7.5-5.840332,16.7226563-8.7607422,27.6660156-8.7607422
		c5.9013672,0,11.4042969,0.9838867,16.5068359,2.9506836c5.1025391,1.9677734,9.5292969,4.6113281,13.2802734,7.9311523
		c3.75,3.3203125,6.7314453,7.2241211,8.9443359,11.7119141c2.2138672,4.4882813,3.3203125,9.2524414,3.3203125,14.2939453
		c0,4.7949219-1.0761719,9.4985352-3.2275391,14.109375c-2.1523438,4.6113281-5.2568359,8.699707-9.3144531,12.2651367
		c-0.9833984,0.737793-1.875,1.4140625-2.6738281,2.0288086c-0.7998047,0.6152344-1.6298828,1.1069336-2.4902344,1.4755859
		l-6.0869141,3.8740234l-6.6396484,3.5039063l-6.0859375,3.5039063c-2.9511719,1.7216797-5.5644531,3.5351563-7.8388672,5.4414063
		c-2.2744141,1.9052734-4.3652344,3.9648438-6.2705078,6.1777344c-1.90625,2.2138672-3.6894531,4.6728516-5.3496094,7.3779297
		s-3.2275391,5.7792969-4.703125,9.2216797h60.6806641v19.9199219H179.3833008z"/>
</g>
</svg>
