<?xml version="1.0" encoding="utf-8"?>
<!-- Generator: Adobe Illustrator 12.0.0, SVG Export Plug-In . SVG Version: 6.00 Build 51448)  -->
<!DOCTYPE svg PUBLIC "-//W3C//DTD SVG 1.1//EN" "http://www.w3.org/Graphics/SVG/1.1/DTD/svg11.dtd" [
	<!ENTITY ns_svg "http://www.w3.org/2000/svg">
	<!ENTITY ns_xlink "http://www.w3.org/1999/xlink">
]>
<svg  version="1.1" id="Layer_1" xmlns="&ns_svg;" xmlns:xlink="&ns_xlink;" width="385" height="385" viewBox="0 0 385 385"
	 overflow="visible" enable-background="new 0 0 385 385" xml:space="preserve">
<g>
	<g>
		<g>
			<path fill="#FFFFFF" d="M0.5,24.5c0-13.2553711,10.7451172-24,24-24h336c13.2548828,0,24,10.7446289,24,24v336
				c0,13.2548828-10.7451172,24-24,24h-336c-13.2548828,0-24-10.7451172-24-24V24.5L0.5,24.5z"/>
			<path fill="#FFFFFF" d="M192.5,192.5"/>
		</g>
		<g>
			<path fill="none" stroke="#000000" stroke-linecap="round" stroke-linejoin="round" stroke-miterlimit="3.863693" d="M0.5,24.5
				c0-13.2553711,10.7451172-24,24-24h336c13.2548828,0,24,10.7446289,24,24v336c0,13.2548828-10.7451172,24-24,24h-336
				c-13.2548828,0-24-10.7451172-24-24V24.5L0.5,24.5z"/>
			<path fill="none" stroke="#000000" stroke-linecap="round" stroke-linejoin="round" stroke-miterlimit="3.863693" d="
				M192.5,192.5"/>
		</g>
	</g>
	<g>
		<g>
			<path d="M4.5,24.5c0-11.0458984,8.9541016-20,20-20h336c11.0458984,0,20,8.9541016,20,20v336c0,11.0458984-8.9541016,20-20,20
				h-336c-11.0458984,0-20-8.9541016-20-20V24.5L4.5,24.5z"/>
			<path d="M192.5,192.5"/>
		</g>
	</g>
	<g>
		<path fill="#FFFFFF" d="M166.9282227,57.7758789C169.1499023,45.671875,179.7539063,36.5,192.5,36.5
			s23.3505859,9.171875,25.5722656,21.2758789C210.6503906,61.4013672,201.90625,63.5,192.5,63.5
			S174.3491211,61.4013672,166.9282227,57.7758789z"/>
	</g>
	<g>
		<path fill-rule="evenodd" clip-rule="evenodd" fill="#FFFFFF" d="M192.5,264.5c-17.6733398,0-32,14.3261719-32,32
			l0.0117188,0.8691406c-43.2016602-3.0839844-82.3466797-12.3222656-114.2084961-25.8476563
			c-1.1484375-0.4882813-2.2875977-0.9804688-3.4169922-1.4785156C36.6958008,266.6425781,32.5,260.0615234,32.5,252.5
			c0-7.5078125,4.137207-14.0498047,10.2563477-17.4707031C38.9033203,231.3847656,36.5,226.2226563,36.5,220.5
			c0-9.140625,6.1323242-16.8496094,14.5078125-19.2363281C47.0083008,197.6074219,44.5,192.3461914,44.5,186.5
			c0-11.0458984,8.9541016-20,20-20c-2.5117188-3.3427734-4-7.4960938-4-12c0-11.0458984,8.9541016-20,20-20
			c0.9462891,0,1.8774414,0.065918,2.7885742,0.1928711C81.5170898,131.7080078,80.5,128.2231445,80.5,124.5
			c0-11.0458984,8.9541016-20,20-20c2.8837891,0,5.625,0.6103516,8.1015625,1.7089844
			C106.0283203,103.5166016,104.5,100.1508789,104.5,96.5c0-8.8364258,8.9541016-16,20-16
			c3.027832,0,5.8984375,0.5385742,8.4707031,1.5019531l1.2753906,0.5229492C151.5556641,89.5263672,171.4233398,93.5,192.5,93.5
			c21.0761719,0,40.9443359-3.9736328,58.2539063-10.9750977l1.2753906-0.5229492
			C254.6015625,81.0385742,257.4716797,80.5,260.5,80.5c11.0458984,0,20,7.1635742,20,16
			c0,3.6508789-1.5283203,7.0166016-4.1015625,9.7089844C278.875,105.1103516,281.6162109,104.5,284.5,104.5
			c11.0458984,0,20,8.9541016,20,20c0,3.7231445-1.0175781,7.2080078-2.7890625,10.1928711
			C302.6230469,134.565918,303.5537109,134.5,304.5,134.5c11.0458984,0,20,8.9541016,20,20c0,4.5039063-1.4882813,8.6572266-4,12
			c11.0458984,0,20,8.9541016,20,20c0,5.8461914-2.5078125,11.1074219-6.5078125,14.7636719
			C342.3671875,203.6503906,348.5,211.359375,348.5,220.5c0,5.7226563-2.4033203,10.8847656-6.2558594,14.5292969
			C348.3632813,238.4501953,352.5,244.9921875,352.5,252.5c0,7.5615234-4.1953125,14.1425781-10.3867188,17.5429688
			c-1.1289063,0.4980469-2.2675781,0.9902344-3.4160156,1.4785156
			c-31.8623047,13.5253906-71.0078125,22.7636719-114.2089844,25.8476563L224.5,296.5
			C224.5,278.8261719,210.1738281,264.5,192.5,264.5z"/>
	</g>
	<g>
		<path fill-rule="evenodd" clip-rule="evenodd" fill="#FFFFFF" d="M192.5,91.5
			c-3.8662109,0-7.6879883-0.1342773-11.4570313-0.3969727c-18.3183594-1.2773438-35.3896484-5.5854492-50.2939453-12.2182617
			C132.5087891,66.2363281,143.3671875,56.5,156.5,56.5c1.6435547,0,3.2519531,0.152832,4.8115234,0.4443359
			c3.5493164,2.2050781,7.4677734,4.0410156,11.6621094,5.4394531C179.0024414,64.394043,185.6020508,65.5,192.5,65.5
			c6.8984375,0,13.4980469-1.105957,19.5263672-3.1162109c4.1943359-1.3984375,8.1123047-3.234375,11.6621094-5.4394531
			C225.2480469,56.652832,226.8564453,56.5,228.5,56.5c13.1328125,0,23.9912109,9.7363281,25.7509766,22.3847656
			c-14.9042969,6.6328125-31.9755859,10.940918-50.2939453,12.2182617C200.1875,91.3657227,196.3662109,91.5,192.5,91.5z"/>
	</g>
	<g>
		<path fill-rule="evenodd" clip-rule="evenodd" fill="#FFFFFF" d="M16.5,332.5v-40h48l-44.3076172-1.8457031l28.0415039-14.0214844
			C88.1591797,292.8945313,138.375,302.5,192.5,302.5s104.3408203-9.6054688,144.265625-25.8671875l28.0419922,14.0214844
			L320.5,292.5h48v40H16.5z"/>
	</g>
</g>
<g>
	<path fill-rule="evenodd" clip-rule="evenodd" d="M131.0117188,250.2871094V150.137207h-11.2509766v-15.6772461h1.2910156
		c2.5820313,0,5.1640625-0.6762695,7.746582-2.0288086c2.5820313-1.3525391,4.7338867-3.2583008,6.4550781-5.7177734h15.6772461
		v123.5737305H131.0117188z"/>
	<path fill-rule="evenodd" clip-rule="evenodd" d="M265.2392578,188.6845703c0,9.8369141-1.1679688,19.2431641-3.5048828,28.2197266
		c-2.3359375,8.9746094-5.6552734,16.2294922-9.9589844,21.7636719C244.8896484,247.8886719,234.9296875,252.5,221.8964844,252.5
		c-8.7304688,0-15.9238281-1.7832031-21.5791016-5.3486328c-5.65625-3.5654297-10.3286133-9.1601563-14.0175781-16.7841797
		c-2.5820313-5.2871094-4.6723633-11.7109375-6.2709961-19.2734375c-1.5981445-7.5625-2.3974609-15.03125-2.3974609-22.4091797
		c0-10.2055664,1.1987305-19.6733398,3.5961914-28.4038086c2.3979492-8.7299805,5.6870117-16.0458984,9.8676758-21.9477539
		c3.6889648-4.6723633,8.0844727-8.1459961,13.1870117-10.4208984C209.3847656,125.6376953,215.5019531,124.5,222.6337891,124.5
		c7.8701172,0,14.5712891,1.7832031,20.1044922,5.3486328c5.5332031,3.565918,10.2666016,9.1606445,14.2011719,16.7841797
		c2.5820313,5.5332031,4.6113281,11.9882813,6.0859375,19.3657227
		C264.5019531,173.3759766,265.2392578,180.9379883,265.2392578,188.6845703z M245.6884766,188.6845703
		c0-7.0087891-0.6142578-13.4946289-1.84375-19.4580078c-1.2294922-5.9638672-3.0742188-11.0356445-5.5332031-15.2163086
		c-1.9677734-3.1967773-4.2119141-5.5336914-6.7324219-7.0087891c-2.5205078-1.4755859-5.625-2.3359375-9.3134766-2.5820313
		c-4.7958984-0.2460938-8.7919922,0.8608398-11.9892578,3.3198242c-3.1962891,2.4594727-5.8398438,6.4555664-7.9306641,11.9887695
		c-1.5986328,3.6884766-2.796875,8.1459961-3.5966797,13.371582c-0.7988281,5.2255859-1.1982422,10.4208984-1.1982422,15.5849609
		c0,6.6396484,0.6142578,13.0341797,1.84375,19.1806641c1.2304688,6.1484375,3.0742188,11.1894531,5.5332031,15.125
		c1.9677734,3.1972656,4.3037109,5.59375,7.0087891,7.1923828s6.0253906,2.3974609,9.9599609,2.3974609
		c4.5488281,0,8.3300781-1.2285156,11.3427734-3.6884766c3.0126953-2.4580078,5.5634766-6.4550781,7.6542969-11.9873047
		c0.6142578-1.5996094,1.2294922-3.5351563,1.8447266-5.8105469c0.6142578-2.2753906,1.1367188-4.671875,1.5673828-7.1933594
		c0.4306641-2.5205078,0.7685547-5.0722656,1.0146484-7.6542969S245.6884766,191.1435547,245.6884766,188.6845703z"/>
</g>
</svg>
