<?xml version="1.0" encoding="utf-8"?>
<!-- Generator: Adobe Illustrator 12.0.0, SVG Export Plug-In . SVG Version: 6.00 Build 51448)  -->
<!DOCTYPE svg PUBLIC "-//W3C//DTD SVG 1.1//EN" "http://www.w3.org/Graphics/SVG/1.1/DTD/svg11.dtd" [
	<!ENTITY ns_svg "http://www.w3.org/2000/svg">
	<!ENTITY ns_xlink "http://www.w3.org/1999/xlink">
]>
<svg  version="1.1" id="Layer_1" xmlns="&ns_svg;" xmlns:xlink="&ns_xlink;" width="480" height="384.0004883"
	 viewBox="0 0 480 384.0004883" overflow="visible" enable-background="new 0 0 480 384.0004883" xml:space="preserve">
<g>
	<g>
		<path fill="#006B54" d="M0,24C0,10.7451172,10.7451172,0,24,0h432c13.2558594,0,24,10.7451172,24,24v336.0004883
			c0,13.2539063-10.7441406,24-24,24H24c-13.2548828,0-24-10.7460938-24-24V24L0,24z"/>
		<path fill="#006B54" d="M240,192.0004883"/>
	</g>
	<path fill="#FFFFFF" d="M16,248.0004883C16,205.4516602,31.0976563,166.4296875,56.2285156,136h367.5429688
		C448.9023438,166.4296875,464,205.4516602,464,248.0004883c0,42.5478516-15.0976563,81.5693359-40.2285156,112H56.2285156
		C31.0976563,329.5698242,16,290.5483398,16,248.0004883z"/>
	<g>
		<path fill="#FFFFFF" d="M16,40c0-8.8369141,7.1635742-16,16-16h416c8.8369141,0,16,7.1630859,16,16v64
			c0,8.8364258-7.1630859,16-16,16H32c-8.8364258,0-16-7.1635742-16-16V40L16,40z"/>
		<path fill="#FFFFFF" d="M240,72"/>
	</g>
	<g>
		<polygon fill-rule="evenodd" clip-rule="evenodd" fill="#006B54" points="84.2895508,102.8930664 76.7275391,102.8930664 
			57.1767578,41.1064453 67.4130859,41.1064453 80.6005859,82.3286133 93.6035156,41.1064453 104.0244141,41.1064453 		"/>
		<polygon fill-rule="evenodd" clip-rule="evenodd" fill="#006B54" points="113.1962891,102.8930664 113.1962891,41.1064453 
			149.6230469,41.1064453 149.6230469,50.8818359 122.9716797,50.8818359 122.9716797,66.0058594 140.9545898,66.0058594 
			140.9545898,75.965332 122.9716797,75.965332 122.9716797,92.9335938 151.5595703,92.9335938 151.5595703,102.8930664 		"/>
		<path fill-rule="evenodd" clip-rule="evenodd" fill="#006B54" d="M193.340332,102.8930664l-9.9594727-26.9277344h-11.7119141
			v26.9277344h-9.7753906V41.1064453h20.3808594c2.3974609,0,4.4570313,0.1386719,6.1782227,0.4150391
			c1.7216797,0.2768555,3.3510742,0.7836914,4.8876953,1.5219727c1.3525391,0.6757813,2.5976563,1.5522461,3.7348633,2.6279297
			c1.1376953,1.0761719,2.1210938,2.3056641,2.9511719,3.6889648s1.4755859,2.8588867,1.9365234,4.4262695
			c0.4609375,1.5678711,0.6918945,3.1201172,0.6918945,4.6572266c0,1.659668-0.230957,3.2734375-0.6918945,4.8413086
			s-1.1064453,3.043457-1.9365234,4.4267578s-1.8447266,2.6279297-3.043457,3.7348633
			c-1.1987305,1.1064453-2.5053711,1.9672852-3.9189453,2.5820313l10.8818359,28.8642578H193.340332z M192.8793945,58.4438477
			c0-1.2910156-0.3383789-2.5205078-1.0146484-3.6889648c-0.6762695-1.1679688-1.6289063-2.090332-2.8583984-2.7666016
			c-0.7993164-0.4301758-1.5371094-0.722168-2.2133789-0.8759766s-1.8134766-0.2304688-3.4121094-0.2304688h-11.7119141v15.1240234
			h11.7119141c1.5371094,0,2.6591797-0.0615234,3.3657227-0.1845703c0.7070313-0.1230469,1.4604492-0.3999023,2.2597656-0.8300781
			c1.2294922-0.6762695,2.1821289-1.6137695,2.8583984-2.8125S192.8793945,59.7348633,192.8793945,58.4438477z"/>
		<polygon fill-rule="evenodd" clip-rule="evenodd" fill="#006B54" points="252.7167969,102.8930664 252.7167969,67.1123047 
			238.4228516,102.8930664 224.1289063,67.1123047 224.1289063,102.8930664 214.3535156,102.8930664 214.3535156,41.1064453 
			224.1289063,41.1064453 238.4228516,75.7807617 252.7167969,41.1064453 262.4921875,41.1064453 262.4921875,102.8930664 		"/>
		<path fill-rule="evenodd" clip-rule="evenodd" fill="#006B54" d="M319.6796875,72.0922852
			c0,4.9179688-0.5849609,9.621582-1.7529297,14.109375c-1.1679688,4.4882813-2.828125,8.1152344-4.9794922,10.8818359
			C309.5039063,101.6943359,304.5244141,104,298.0078125,104c-4.3652344,0-7.9619141-0.8916016-10.7900391-2.6743164
			c-2.828125-1.7832031-5.1640625-4.5800781-7.0087891-8.3920898c-1.2910156-2.6435547-2.3359375-5.855957-3.1347656-9.6367188
			c-0.7988281-3.78125-1.1992188-7.5161133-1.1992188-11.2045898c0-5.1030273,0.5996094-9.8369141,1.7988281-14.2021484
			c1.1982422-4.3647461,2.8427734-8.0224609,4.9335938-10.9736328c1.84375-2.3364258,4.0419922-4.0732422,6.59375-5.2104492
			C291.7519531,40.5688477,294.8105469,40,298.3769531,40c3.9335938,0,7.2851563,0.8916016,10.0507813,2.6743164
			c2.7675781,1.7827148,5.1347656,4.5800781,7.1015625,8.3920898c1.2910156,2.7666016,2.3046875,5.9941406,3.0429688,9.6826172
			C319.3105469,64.4379883,319.6796875,68.2192383,319.6796875,72.0922852z M309.9042969,72.0922852
			c0-3.5043945-0.3076172-6.7475586-0.9228516-9.7294922c-0.6142578-2.9814453-1.5361328-5.5175781-2.7666016-7.6079102
			c-0.9833984-1.5981445-2.1054688-2.7666016-3.3652344-3.5043945c-1.2607422-0.7373047-2.8134766-1.1679688-4.6582031-1.2910156
			c-2.3964844-0.1230469-4.3945313,0.4306641-5.9941406,1.6601563c-1.5976563,1.2294922-2.9199219,3.2275391-3.9648438,5.9941406
			c-0.7988281,1.8442383-1.3984375,4.0732422-1.7988281,6.6860352c-0.3984375,2.612793-0.5996094,5.2104492-0.5996094,7.7924805
			c0,3.3198242,0.3085938,6.5166016,0.9228516,9.5908203c0.6142578,3.0737305,1.5371094,5.5942383,2.7666016,7.5620117
			c0.984375,1.5981445,2.1523438,2.796875,3.5039063,3.5961914c1.3535156,0.7993164,3.0126953,1.1992188,4.9804688,1.1992188
			c2.2744141,0,4.1650391-0.6152344,5.671875-1.8447266c1.5058594-1.2294922,2.78125-3.2275391,3.8261719-5.9941406
			c0.3076172-0.7993164,0.6152344-1.7675781,0.921875-2.9047852c0.3085938-1.137207,0.5693359-2.3364258,0.7851563-3.5966797
			c0.2148438-1.2602539,0.3837891-2.5361328,0.5058594-3.8271484
			C309.8417969,74.5820313,309.9042969,73.3217773,309.9042969,72.0922852z"/>
		<polygon fill-rule="evenodd" clip-rule="evenodd" fill="#006B54" points="366.7734375,102.8930664 343.1660156,61.0258789 
			343.1660156,102.8930664 333.390625,102.8930664 333.390625,41.1064453 343.1660156,41.1064453 365.6669922,80.5761719 
			365.6669922,41.1064453 375.4414063,41.1064453 375.4414063,102.8930664 		"/>
		<polygon fill-rule="evenodd" clip-rule="evenodd" fill="#006B54" points="408.5292969,49.7749023 408.5292969,102.8930664 
			398.7539063,102.8930664 398.7539063,49.7749023 384.6445313,49.7749023 384.6445313,41.1064453 422.8232422,41.1064453 
			422.8232422,49.7749023 		"/>
	</g>
</g>
<g>
	<path fill-rule="evenodd" clip-rule="evenodd" fill="#006B54" d="M176.2241211,194.8813477
		c0,3.6894531-0.2768555,7.0546875-0.8300781,10.0986328c-0.5532227,3.0429688-1.5678711,6.3173828-3.0429688,9.8212891
		c-1.4755859,3.5039063-3.5043945,7.4697266-6.0869141,11.8964844c-2.5820313,4.4257813-5.9941406,9.6826172-10.2358398,15.7695313
		c-5.5332031,8.8525391-10.8359375,17.84375-15.9082031,26.9736328
		c-5.0717773,9.1298828-9.0834961,17.2910156-12.0341797,24.4833984c-1.6601563,3.6894531-2.8588867,7.2402344-3.5966797,10.6523438
		s-1.2910156,7.4238281-1.6601563,12.0341797h50.0751953v24.0693359H96.2700195
		c0.1845703-11.4355469,0.9223633-21.8105469,2.2133789-31.1240234s3.4580078-18.2587891,6.5014648-26.8359375
		c3.043457-8.5761719,7.0546875-17.1064453,12.034668-25.5908203s11.2504883-17.7050781,18.8125-27.6660156
		c6.2709961-8.4833984,10.559082-15.2158203,12.8647461-20.1953125c2.3051758-4.9804688,3.4580078-9.7753906,3.4580078-14.3867188
		c0-6.0859375-1.3833008-10.8354492-4.1499023-14.2475586s-6.5473633-5.1181641-11.3427734-5.1181641
		c-4.6108398,0-8.3920898,1.4296875-11.3427734,4.2885742c-2.9511719,2.8583984-4.6113281,6.59375-4.9799805,11.2045898H96.2700195
		c0.737793-11.4350586,4.7495117-20.7954102,12.034668-28.0810547C115.5898438,155.6425781,125.0424805,152,136.6621094,152
		c5.7177734,0,11.0200195,1.0605469,15.9077148,3.1816406s9.0834961,5.0717773,12.5878906,8.8530273
		c3.5043945,3.7807617,6.2246094,8.2998047,8.1616211,13.5561523
		C175.2558594,182.847168,176.2241211,188.6108398,176.2241211,194.8813477z"/>
	<path fill-rule="evenodd" clip-rule="evenodd" fill="#006B54" d="M274.3046875,179.3891602
		c-6.0859375,12.5410156-11.296875,24.7148438-15.6308594,36.5185547s-7.8847656,24.0693359-10.6503906,36.7958984
		c-2.7675781,12.7255859-4.8886719,26.2363281-6.3632813,40.5292969c-1.4760742,14.2949219-2.4902344,30.109375-3.043457,47.4472656
		h-24.0693359c0.5532227-16.7841797,1.659668-32.5996094,3.3198242-47.4472656
		c1.6601563-14.8466797,3.9194336-28.8183594,6.7783203-41.9130859
		c2.8583984-13.0947266,6.4091797-25.5908203,10.6508789-37.4873047
		c4.2421875-11.8964844,9.222168-23.3769531,14.9399414-34.4433594h-55.8847656v-24.0693359h79.953125V179.3891602z"/>
	<path fill-rule="evenodd" clip-rule="evenodd" fill="#006B54" d="M383.7304688,207.331543
		c0,55.1474609-22.1328125,100.703125-66.3984375,136.6689453l-13.0019531-20.1962891
		c10.5126953-8.8525391,19.3193359-17.890625,26.4199219-27.1123047
		c7.1015625-9.2226563,13.0488281-19.9199219,17.8447266-32.0917969c-0.9228516,0.3681641-2.4892578,0.5527344-4.703125,0.5527344
		c-5.9013672,0-11.4345703-1.2451172-16.5996094-3.734375c-5.1640625-2.4902344-9.5908203-5.9492188-13.2792969-10.375
		c-2.9511719-4.0576172-5.3027344-9.9140625-7.0546875-17.5683594c-1.7529297-7.6542969-2.6279297-15.7226563-2.6279297-24.2070313
		c0-11.0664063,1.2441406-20.7954102,3.734375-29.1875c2.4902344-8.3916016,6.0410156-14.7089844,10.6513672-18.9511719
		c3.6884766-2.9506836,7.6083984-5.2099609,11.7578125-6.777832S339.3730469,152,344.7216797,152
		c12.7255859,0,22.4091797,4.7490234,29.0488281,14.2475586C380.4101563,175.746582,383.7304688,189.440918,383.7304688,207.331543z
		 M359.6611328,209.2680664c0-14.7558594-1.7529297-23.8847656-5.2568359-27.3891602
		c-2.5820313-3.8730469-6.0859375-5.8100586-10.5126953-5.8100586c-5.3486328,0-9.2685547,2.8588867-11.7578125,8.5766602
		c-2.4902344,5.7177734-3.7353516,14.847168-3.7353516,27.3891602c0,9.9599609,1.2910156,17.2910156,3.8730469,21.9941406
		s6.4560547,7.0546875,11.6201172,7.0546875c5.5332031,0,9.5449219-2.5361328,12.0341797-7.6083984
		C358.4160156,228.402832,359.6611328,220.3344727,359.6611328,209.2680664z"/>
</g>
</svg>
