<?xml version="1.0" encoding="iso-8859-1"?>
<!-- Generator: Adobe Illustrator 11.0, SVG Export Plug-In . SVG Version: 6.0.0 Build 78)  -->
<!DOCTYPE svg PUBLIC "-//W3C//DTD SVG 1.0//EN"    "http://www.w3.org/TR/2001/REC-SVG-20010904/DTD/svg10.dtd" [
	<!ENTITY ns_flows "http://ns.adobe.com/Flows/1.0/">
	<!ENTITY ns_svg "http://www.w3.org/2000/svg">
	<!ENTITY ns_xlink "http://www.w3.org/1999/xlink">
]>
<svg  xmlns="&ns_svg;" xmlns:xlink="&ns_xlink;" xmlns:a="http://ns.adobe.com/AdobeSVGViewerExtensions/3.0/"
	 width="600" height="600" viewBox="0 0 600 600" style="overflow:visible;enable-background:new 0 0 600 600" xml:space="preserve"
	>
	<g id="Layer_1">
		<g id="Shield_194_">
			<path id="Background_1_" d="M600,542.227C600,574.125,574.125,600,542.227,600H57.782C25.869,600,0,574.125,0,542.227V57.782
				C0,25.869,25.869,0,57.782,0h484.444C574.125,0,600,25.869,600,57.782V542.227z"/>
			<path id="Head_1_" style="fill:#FFFFFF;" d="M69.375,304.5C58.5,303.375,40.86,310.506,36,297.75
				c-3-7.875,21.964-71.769,34.875-84C78,207,66.352,190.588,72,180c22.21-41.643,24.129-50.279,42.363-81.952
				c2.877-4.995,17.584-16.603,23.036-23.991C142.195,65.417,154.022,44.804,162,42c42.58-14.971,80.971-27.448,138.554-27.448
				c66.226,0,127.89,24.047,160.444,74.449C492,137.001,492,168.999,505.002,207c6.551,19.14,34.482,47.2,42,66
				c9.996,24.999-1.189,66.832-9,76.002c-23.004,27-67.096,50.338-74.004,63c-6,10.998-0.029,41.988,14.004,48
				c22.002-6.996,24.996-18,43.998-15c-10.998,21-6.967,29.607-9,36c-7.002,21.996-15.762,16.834-15,28.998
				c1.002,16.002,58.998,31.998,61.002,79.002H69.999c42-63,72.882-60.434,104.001-116.004c12.741-22.752,0.003-38.566-24.75-44.748
				c-29.637-7.4-82.875-3.375-87.375-28.5c-2.186-12.205,9.75-23.625,10.125-37.5c0.234-8.631-6.75-18.375-6.75-18.375
				S71.25,316.5,69.375,304.5z"/>
		</g>
		<g>
			<path d="M127.343,403.059c0.445-13.207,2.121-25.295,5.033-36.264s7.506-21.832,13.781-32.578
				c4.699-8.502,10.523-16.395,17.473-23.672c6.943-7.277,14.338-13.822,22.178-19.646c2.016-1.113,3.8-2.291,5.37-3.521
				s3.141-2.408,4.711-3.527l12.094-6.381l11.086-6.381l10.758-6.041c4.477-2.906,8.109-6.545,10.91-10.916
				c2.801-4.365,4.207-8.9,4.207-13.6c0-4.254-1.125-8.227-3.363-11.918s-5.215-6.885-8.906-9.574
				c-3.691-2.684-8.004-4.811-12.938-6.381c-4.922-1.564-10.184-2.35-15.785-2.35c-11.426,0-20.669,2.689-27.724,8.063
				c-7.055,5.379-11.479,13.219-13.271,23.52l-35.613-7.729c3.809-18.82,12.545-33.563,26.209-44.227s30.463-16.002,50.399-16.002
				c10.746,0,20.777,1.793,30.07,5.373c9.293,3.586,17.355,8.396,24.188,14.443s12.27,13.154,16.301,21.322
				s6.059,16.846,6.059,26.021c0,8.73-1.969,17.297-5.883,25.688c-3.926,8.396-9.574,15.838-16.969,22.33
				c-1.793,1.348-3.422,2.578-4.875,3.697s-2.965,2.016-4.535,2.684l-11.086,7.055l-12.094,6.381l-11.098,6.381
				c-5.379,3.135-10.137,6.439-14.273,9.908c-4.148,3.469-7.957,7.219-11.429,11.25c-3.469,4.031-6.715,8.508-9.738,13.43
				s-5.883,10.518-8.572,16.787h110.552v36.375H127.343z"/>
			<path d="M478.135,331.229c0,10.307-2.074,20.051-6.223,29.238s-9.756,17.256-16.816,24.199
				c-7.066,6.949-15.193,12.439-24.387,16.471c-9.193,4.025-18.949,6.047-29.262,6.047c-10.318,0-20.074-2.021-29.268-6.047
				c-9.193-4.031-17.32-9.521-24.381-16.471c-7.066-6.943-12.668-15.012-16.816-24.199s-6.223-18.932-6.223-29.238
				c0-10.758,2.232-20.449,6.703-29.074c4.465-8.625,10.846-16.295,19.137-23.021c-10.98-11.648-16.465-25.318-16.465-41.004
				c0-8.736,1.793-16.969,5.385-24.703c3.592-7.729,8.473-14.561,14.648-20.502c6.176-5.936,13.301-10.582,21.387-13.945
				c8.08-3.363,16.723-5.045,25.934-5.045c8.977,0,17.613,1.682,25.922,5.045s15.545,8.01,21.721,13.945
				c6.176,5.941,11.115,12.773,14.818,20.502c3.703,7.734,5.561,15.967,5.561,24.703c0,7.84-1.518,15.182-4.541,22.014
				s-7.336,13.166-12.932,18.99c8.73,6.727,15.264,14.514,19.6,23.361C475.967,311.342,478.135,320.922,478.135,331.229z
				 M442.51,331.92c0-4.693-1.125-9.105-3.363-13.242c-2.244-4.137-5.215-7.711-8.912-10.729c-3.703-3.018-8.016-5.42-12.949-7.207
				s-10.195-2.684-15.797-2.684c-5.607,0-10.822,0.896-15.639,2.684c-4.822,1.787-9.082,4.189-12.779,7.207
				c-3.703,3.018-6.615,6.592-8.742,10.729c-2.133,4.137-3.193,8.549-3.193,13.242c0,5.367,1.061,10.395,3.193,15.088
				c2.127,4.693,5.039,8.83,8.742,12.404c3.697,3.574,7.957,6.369,12.779,8.379c4.816,2.016,10.031,3.018,15.639,3.018
				c5.602,0,10.922-1.002,15.967-3.018c5.045-2.01,9.416-4.805,13.119-8.379c3.697-3.574,6.609-7.711,8.742-12.404
				C441.443,342.314,442.51,337.287,442.51,331.92z M433.135,237.174c0-7.389-3.094-13.711-9.27-18.973
				c-6.182-5.262-13.652-7.893-22.418-7.893s-16.242,2.631-22.418,7.893c-6.182,5.262-9.27,11.584-9.27,18.973
				c0,6.715,3.088,12.48,9.27,17.291c6.176,4.816,13.652,7.219,22.418,7.219s16.236-2.402,22.418-7.219
				C430.041,249.654,433.135,243.889,433.135,237.174z"/>
		</g>
	</g>
</svg>
