<?xml version="1.0" encoding="iso-8859-1"?>
<!-- Generator: Adobe Illustrator 11.0, SVG Export Plug-In . SVG Version: 6.0.0 Build 78)  -->
<!DOCTYPE svg PUBLIC "-//W3C//DTD SVG 1.0//EN"    "http://www.w3.org/TR/2001/REC-SVG-20010904/DTD/svg10.dtd" [
	<!ENTITY ns_flows "http://ns.adobe.com/Flows/1.0/">
	<!ENTITY ns_svg "http://www.w3.org/2000/svg">
	<!ENTITY ns_xlink "http://www.w3.org/1999/xlink">
]>
<svg  xmlns="&ns_svg;" xmlns:xlink="&ns_xlink;" xmlns:a="http://ns.adobe.com/AdobeSVGViewerExtensions/3.0/"
	 width="600" height="600" viewBox="0 0 600 600" style="overflow:visible;enable-background:new 0 0 600 600" xml:space="preserve"
	>
	<g id="Layer_1">
		<g id="Shield_62_">
			<path id="Background_1_" d="M600,542.227C600,574.125,574.125,600,542.227,600H57.782C25.869,600,0,574.125,0,542.227V57.782
				C0,25.869,25.869,0,57.782,0h484.444C574.125,0,600,25.869,600,57.782V542.227z"/>
			<path id="Head_1_" style="fill:#FFFFFF;" d="M69.375,304.5C58.5,303.375,40.86,310.506,36,297.75
				c-3-7.875,21.964-71.769,34.875-84C78,207,66.352,190.588,72,180c22.21-41.643,24.129-50.279,42.363-81.952
				c2.877-4.995,17.584-16.603,23.036-23.991C142.195,65.417,154.022,44.804,162,42c42.58-14.971,80.971-27.448,138.554-27.448
				c66.226,0,127.89,24.047,160.444,74.449C492,137.001,492,168.999,505.002,207c6.551,19.14,34.482,47.2,42,66
				c9.996,24.999-1.189,66.832-9,76.002c-23.004,27-67.096,50.338-74.004,63c-6,10.998-0.029,41.988,14.004,48
				c22.002-6.996,24.996-18,43.998-15c-10.998,21-6.967,29.607-9,36c-7.002,21.996-15.762,16.834-15,28.998
				c1.002,16.002,58.998,31.998,61.002,79.002H69.999c42-63,72.882-60.434,104.001-116.004c12.741-22.752,0.003-38.566-24.75-44.748
				c-29.637-7.4-82.875-3.375-87.375-28.5c-2.186-12.205,9.75-23.625,10.125-37.5c0.234-8.631-6.75-18.375-6.75-18.375
				S71.25,316.5,69.375,304.5z"/>
		</g>
		<g>
			<path d="M213.993,321.617c0,10.178-1.535,19.588-4.6,28.225s-7.277,16.125-12.639,22.459s-11.689,11.326-18.984,14.971
				s-15.264,5.473-23.9,5.473c-8.643,0-16.945-1.441-24.914-4.307c-7.969-2.871-15.504-7.084-22.605-12.639l18.146-19.559
				c4.793,3.264,9.211,5.666,13.242,7.201s8.449,2.303,13.254,2.303c5.18,0,9.979-1.102,14.396-3.305s8.209-5.32,11.379-9.352
				c3.164-4.031,5.66-8.824,7.488-14.391c1.822-5.561,2.736-11.701,2.736-18.416c0-10.547-2.402-18.791-7.201-24.738
				c-4.805-5.947-11.232-8.924-19.295-8.924c-8.449,0-16.131,3.17-23.045,9.504l-26.49-3.457l4.893-96.047h90.668v27h-65.033
				l-2.016,40.424c4.793-1.734,8.684-2.842,11.66-3.322s6.287-0.727,9.938-0.727c7.869,0,15.064,1.488,21.592,4.465
				c6.521,2.977,12.082,7.201,16.676,12.674s8.186,11.947,10.775,19.436C212.698,304.057,213.993,312.406,213.993,321.617z"/>
			<path d="M356.367,292.52c0,14.789-0.82,27.363-2.449,37.729c-1.629,10.371-4.465,20.162-8.496,29.373
				c-4.805,11.525-10.805,19.928-18.012,25.207c-7.21,5.273-16.286,7.916-27.231,7.916c-11.531,0-20.895-2.643-28.102-7.916
				c-7.207-5.279-13.207-13.682-18.006-25.207c-4.037-9.404-6.873-19.242-8.502-29.514c-1.635-10.271-2.449-22.799-2.449-37.588
				c0-14.59,0.814-27.117,2.449-37.582c1.629-10.465,4.465-20.303,8.502-29.525c4.992-11.52,11.092-19.822,18.299-24.908
				c7.201-5.086,16.471-7.635,27.809-7.635c11.139,0,20.262,2.549,27.372,7.635c7.113,5.086,13.066,13.582,17.871,25.488
				c1.922,4.799,3.598,9.598,5.039,14.396c1.441,4.805,2.59,9.844,3.457,15.123s1.488,10.945,1.875,16.992
				S356.367,285.225,356.367,292.52z M329.742,292.52c0-5.379-0.141-10.283-0.434-14.701c-0.281-4.418-0.668-8.502-1.148-12.252
				s-1.102-7.354-1.863-10.811s-1.629-6.92-2.578-10.383c-2.496-8.648-5.604-14.895-9.337-18.738s-8.467-5.766-14.209-5.766
				c-11.865,0-19.998,7.98-24.398,23.93c-2.297,7.301-3.879,14.654-4.74,22.055s-1.289,16.482-1.289,27.24
				c0,5.191,0.141,9.949,0.428,14.273s0.668,8.361,1.148,12.111s1.102,7.447,1.869,11.098c0.762,3.65,1.623,7.395,2.584,11.238
				c4.4,15.955,12.533,23.93,24.398,23.93c5.742,0,10.477-1.922,14.209-5.766s6.841-9.896,9.337-18.164
				c1.148-3.844,2.098-7.541,2.871-11.098c0.762-3.551,1.383-7.254,1.863-11.098s0.809-7.928,1.008-12.252
				C329.648,303.043,329.742,298.098,329.742,292.52z"/>
			<path d="M487.441,342.869v46.658h-27.75v-46.658h-80.063V323.24l80.063-126.996h27.75v120.75h11.52v25.875H487.441z
				 M459.691,244.707l-46.078,72.287h46.078V244.707z"/>
		</g>
	</g>
</svg>
