<?xml version="1.0" encoding="iso-8859-1"?>
<!-- Generator: Adobe Illustrator 11.0, SVG Export Plug-In . SVG Version: 6.0.0 Build 78)  -->
<!DOCTYPE svg PUBLIC "-//W3C//DTD SVG 1.0//EN"    "http://www.w3.org/TR/2001/REC-SVG-20010904/DTD/svg10.dtd" [
	<!ENTITY ns_flows "http://ns.adobe.com/Flows/1.0/">
	<!ENTITY ns_svg "http://www.w3.org/2000/svg">
	<!ENTITY ns_xlink "http://www.w3.org/1999/xlink">
]>
<svg  xmlns="&ns_svg;" xmlns:xlink="&ns_xlink;" xmlns:a="http://ns.adobe.com/AdobeSVGViewerExtensions/3.0/"
	 width="600" height="600" viewBox="0 0 600 600" style="overflow:visible;enable-background:new 0 0 600 600" xml:space="preserve"
	>
	<g id="Layer_1">
		<g id="Shield_205_">
			<path id="Background_1_" d="M600,542.227C600,574.125,574.125,600,542.227,600H57.782C25.869,600,0,574.125,0,542.227V57.782
				C0,25.869,25.869,0,57.782,0h484.444C574.125,0,600,25.869,600,57.782V542.227z"/>
			<path id="Head_1_" style="fill:#FFFFFF;" d="M69.375,304.5C58.5,303.375,40.86,310.506,36,297.75
				c-3-7.875,21.964-71.769,34.875-84C78,207,66.352,190.588,72,180c22.21-41.643,24.129-50.279,42.363-81.952
				c2.877-4.995,17.584-16.603,23.036-23.991C142.195,65.417,154.022,44.804,162,42c42.58-14.971,80.971-27.448,138.554-27.448
				c66.226,0,127.89,24.047,160.444,74.449C492,137.001,492,168.999,505.002,207c6.551,19.14,34.482,47.2,42,66
				c9.996,24.999-1.189,66.832-9,76.002c-23.004,27-67.096,50.338-74.004,63c-6,10.998-0.029,41.988,14.004,48
				c22.002-6.996,24.996-18,43.998-15c-10.998,21-6.967,29.607-9,36c-7.002,21.996-15.762,16.834-15,28.998
				c1.002,16.002,58.998,31.998,61.002,79.002H69.999c42-63,72.882-60.434,104.001-116.004c12.741-22.752,0.003-38.566-24.75-44.748
				c-29.637-7.4-82.875-3.375-87.375-28.5c-2.186-12.205,9.75-23.625,10.125-37.5c0.234-8.631-6.75-18.375-6.75-18.375
				S71.25,316.5,69.375,304.5z"/>
		</g>
		<g>
			<path d="M195.025,403.176V220.727h-20.247v-28.559h2.344c4.688,0,9.384-1.23,14.071-3.697c4.688-2.461,8.602-5.936,11.73-10.412
				H231.4v225.117H195.025z"/>
			<path d="M421.473,220.404c-1.682,2.016-3.252,4.031-4.705,6.047s-2.965,4.148-4.535,6.387s-3.246,4.816-5.039,7.729
				c-10.078,16.576-18.65,34.049-25.705,52.412c-7.055,18.369-12.486,36.627-16.295,54.768c-0.674,4.705-1.348,9.24-2.016,13.611
				c-0.674,4.371-1.178,8.736-1.512,13.102c-0.34,4.371-0.621,8.848-0.844,13.441s-0.334,9.686-0.334,15.287h-36.375
				c0.223-12.99,1.008-25.535,2.355-37.629s3.311-23.971,5.895-35.619c2.578-11.648,5.895-23.238,9.938-34.775
				c4.043-11.531,8.871-23.238,14.484-35.115c3.809-8.508,7.957-16.799,12.439-24.861c4.477-8.063,8.736-15.229,12.768-21.504
				H274.385v-35.625h152.631v35.625C425,216.15,423.148,218.389,421.473,220.404z"/>
		</g>
	</g>
</svg>
