<?xml version="1.0" encoding="iso-8859-1"?>
<!-- Generator: Adobe Illustrator 11.0, SVG Export Plug-In . SVG Version: 6.0.0 Build 78)  -->
<!DOCTYPE svg PUBLIC "-//W3C//DTD SVG 1.0//EN"    "http://www.w3.org/TR/2001/REC-SVG-20010904/DTD/svg10.dtd" [
	<!ENTITY ns_flows "http://ns.adobe.com/Flows/1.0/">
	<!ENTITY ns_svg "http://www.w3.org/2000/svg">
	<!ENTITY ns_xlink "http://www.w3.org/1999/xlink">
]>
<svg  xmlns="&ns_svg;" xmlns:xlink="&ns_xlink;" xmlns:a="http://ns.adobe.com/AdobeSVGViewerExtensions/3.0/"
	 width="600" height="600" viewBox="0 0 600 600" style="overflow:visible;enable-background:new 0 0 600 600" xml:space="preserve"
	>
	<g id="Layer_1">
		<g id="Shield_213_">
			<path id="Background_1_" d="M600,542.227C600,574.125,574.125,600,542.227,600H57.782C25.869,600,0,574.125,0,542.227V57.782
				C0,25.869,25.869,0,57.782,0h484.444C574.125,0,600,25.869,600,57.782V542.227z"/>
			<path id="Head_1_" style="fill:#FFFFFF;" d="M69.375,304.5C58.5,303.375,40.86,310.506,36,297.75
				c-3-7.875,21.964-71.769,34.875-84C78,207,66.352,190.588,72,180c22.21-41.643,24.129-50.279,42.363-81.952
				c2.877-4.995,17.584-16.603,23.036-23.991C142.195,65.417,154.022,44.804,162,42c42.58-14.971,80.971-27.448,138.554-27.448
				c66.226,0,127.89,24.047,160.444,74.449C492,137.001,492,168.999,505.002,207c6.551,19.14,34.482,47.2,42,66
				c9.996,24.999-1.189,66.832-9,76.002c-23.004,27-67.096,50.338-74.004,63c-6,10.998-0.029,41.988,14.004,48
				c22.002-6.996,24.996-18,43.998-15c-10.998,21-6.967,29.607-9,36c-7.002,21.996-15.762,16.834-15,28.998
				c1.002,16.002,58.998,31.998,61.002,79.002H69.999c42-63,72.882-60.434,104.001-116.004c12.741-22.752,0.003-38.566-24.75-44.748
				c-29.637-7.4-82.875-3.375-87.375-28.5c-2.186-12.205,9.75-23.625,10.125-37.5c0.234-8.631-6.75-18.375-6.75-18.375
				S71.25,316.5,69.375,304.5z"/>
		</g>
		<g>
			<path d="M404.859,209.717c-3.164,3.023-5.906,5.836-8.203,8.426c-2.309,2.59-4.324,4.969-6.047,7.125
				c-1.734,2.156-3.457,4.676-5.18,7.559c-9.797,13.254-18.949,28.734-27.445,46.441c-8.496,17.719-15.621,35.063-21.375,52.055
				c-2.883,8.648-5.262,16.922-7.137,24.844s-3.457,15.984-4.746,24.188c-1.301,8.215-2.238,16.781-2.813,25.711
				s-1.005,18.855-1.286,29.801h-51.75c0.281-10.945,0.645-20.801,1.078-29.59c0.422-8.789,1.148-17.215,2.156-25.277
				s2.297-15.973,3.879-23.754s3.527-16.125,5.824-25.055c5.168-18.141,11.273-35.496,18.328-52.055
				c7.043-16.559,14.883-32.039,23.505-46.441c2.297-4.605,5.18-9.504,8.637-14.684s8.355-12.387,14.695-21.609H183.343l-0.867-51
				h234.489v51.867C412.066,202.885,408.023,206.693,404.859,209.717z"/>
		</g>
	</g>
</svg>
