<?xml version="1.0" encoding="iso-8859-1"?>
<!-- Generator: Adobe Illustrator 11.0, SVG Export Plug-In . SVG Version: 6.0.0 Build 78)  -->
<!DOCTYPE svg PUBLIC "-//W3C//DTD SVG 1.0//EN"    "http://www.w3.org/TR/2001/REC-SVG-20010904/DTD/svg10.dtd" [
	<!ENTITY ns_flows "http://ns.adobe.com/Flows/1.0/">
	<!ENTITY ns_svg "http://www.w3.org/2000/svg">
	<!ENTITY ns_xlink "http://www.w3.org/1999/xlink">
]>
<svg  xmlns="&ns_svg;" xmlns:xlink="&ns_xlink;" xmlns:a="http://ns.adobe.com/AdobeSVGViewerExtensions/3.0/"
	 width="600" height="600" viewBox="0 0 600 600" style="overflow:visible;enable-background:new 0 0 600 600" xml:space="preserve"
	>
	<g id="Layer_1">
		<g id="Shield_212_">
			<path id="Background_1_" d="M600,542.227C600,574.125,574.125,600,542.227,600H57.782C25.869,600,0,574.125,0,542.227V57.782
				C0,25.869,25.869,0,57.782,0h484.444C574.125,0,600,25.869,600,57.782V542.227z"/>
			<path id="Head_1_" style="fill:#FFFFFF;" d="M69.375,304.5C58.5,303.375,40.86,310.506,36,297.75
				c-3-7.875,21.964-71.769,34.875-84C78,207,66.352,190.588,72,180c22.21-41.643,24.129-50.279,42.363-81.952
				c2.877-4.995,17.584-16.603,23.036-23.991C142.195,65.417,154.022,44.804,162,42c42.58-14.971,80.971-27.448,138.554-27.448
				c66.226,0,127.89,24.047,160.444,74.449C492,137.001,492,168.999,505.002,207c6.551,19.14,34.482,47.2,42,66
				c9.996,24.999-1.189,66.832-9,76.002c-23.004,27-67.096,50.338-74.004,63c-6,10.998-0.029,41.988,14.004,48
				c22.002-6.996,24.996-18,43.998-15c-10.998,21-6.967,29.607-9,36c-7.002,21.996-15.762,16.834-15,28.998
				c1.002,16.002,58.998,31.998,61.002,79.002H69.999c42-63,72.882-60.434,104.001-116.004c12.741-22.752,0.003-38.566-24.75-44.748
				c-29.637-7.4-82.875-3.375-87.375-28.5c-2.186-12.205,9.75-23.625,10.125-37.5c0.234-8.631-6.75-18.375-6.75-18.375
				S71.25,316.5,69.375,304.5z"/>
		</g>
		<g>
			<path d="M420.625,343.451c0,17.297-3.316,32.145-9.949,44.531c-6.633,12.398-15.363,22.477-26.168,30.258
				c-10.816,7.781-23.285,13.547-37.418,17.297c-14.133,3.738-28.688,5.613-43.673,5.613c-17.883,0-33.961-2.309-48.234-6.914
				s-26.531-11.238-36.762-19.887c-10.242-8.648-18.094-18.949-23.578-30.902s-8.215-25.289-8.215-39.996
				c0-26.789,10.77-50.133,32.32-70.02c-9.211-10.664-15.41-19.734-18.574-27.234c-3.164-7.488-4.746-15.996-4.746-25.512
				c0-12.094,2.59-23.051,7.793-32.848c5.191-9.797,12.551-18.152,22.078-25.066c9.516-6.914,20.848-12.246,33.973-15.996
				s27.773-5.625,43.945-5.625c16.438,0,31.298,1.875,44.575,5.625c13.266,3.75,24.598,9.082,33.973,15.996
				s16.664,15.27,21.867,25.066c5.191,9.797,7.793,20.754,7.793,32.848c0,9.516-1.594,18.023-4.758,25.512
				c-3.164,7.5-9.07,16.57-17.707,27.234C410.137,292.744,420.625,316.076,420.625,343.451z M368.875,343.428
				c0-14.484-5.637-25.57-16.91-33.258c-11.273-7.676-27.457-11.52-48.548-11.52c-20.813,0-36.855,3.844-48.129,11.52
				c-11.273,7.688-16.91,18.773-16.91,33.258c0,7.254,1.875,14.215,5.637,20.883c3.75,6.668,8.953,12.023,15.609,16.078
				c4.043,2.32,10.184,4.277,18.422,5.871s16.699,2.391,25.371,2.391c12.422,0,22.603-0.938,30.548-2.824
				c7.945-1.875,14.531-5.145,19.734-9.785C363.813,366.771,368.875,355.896,368.875,343.428z M359.875,219.256
				c0-8.063-4.852-14.461-14.555-19.219s-23.672-7.137-41.915-7.137c-17.953,0-31.781,2.379-41.484,7.137
				s-14.543,11.156-14.543,19.219c0,8.648,4.84,15.41,14.543,20.309s23.531,7.336,41.484,7.336c18.243,0,32.212-2.438,41.915-7.336
				S359.875,227.904,359.875,219.256z"/>
		</g>
	</g>
</svg>
