<?xml version="1.0" encoding="iso-8859-1"?>
<!-- Generator: Adobe Illustrator 11.0, SVG Export Plug-In . SVG Version: 6.0.0 Build 78)  -->
<!DOCTYPE svg PUBLIC "-//W3C//DTD SVG 1.0//EN"    "http://www.w3.org/TR/2001/REC-SVG-20010904/DTD/svg10.dtd" [
	<!ENTITY ns_flows "http://ns.adobe.com/Flows/1.0/">
	<!ENTITY ns_svg "http://www.w3.org/2000/svg">
	<!ENTITY ns_xlink "http://www.w3.org/1999/xlink">
]>
<svg  xmlns="&ns_svg;" xmlns:xlink="&ns_xlink;" xmlns:a="http://ns.adobe.com/AdobeSVGViewerExtensions/3.0/"
	 width="600" height="600" viewBox="0 0 600 600" style="overflow:visible;enable-background:new 0 0 600 600" xml:space="preserve"
	>
	<g id="Layer_1">
		<g id="Shield_77_">
			<path id="Background_1_" d="M600,542.227C600,574.125,574.125,600,542.227,600H57.782C25.869,600,0,574.125,0,542.227V57.782
				C0,25.869,25.869,0,57.782,0h484.443C574.125,0,600,25.869,600,57.782V542.227z"/>
			<path id="Head_1_" style="fill:#FFFFFF;" d="M69.375,304.5C58.5,303.375,40.86,310.506,36,297.75
				c-3-7.875,21.964-71.769,34.875-84C78,207,66.352,190.588,72,180c22.21-41.643,24.129-50.279,42.363-81.952
				c2.877-4.995,17.584-16.603,23.036-23.991C142.195,65.417,154.022,44.804,162,42c42.58-14.971,80.971-27.448,138.555-27.448
				c66.226,0,127.89,24.047,160.443,74.449C492,137.001,492,168.999,505.002,207c6.551,19.14,34.482,47.2,42,66
				c9.996,24.999-1.189,66.832-9,76.002c-23.004,27-67.096,50.338-74.004,63c-6,10.998-0.029,41.988,14.004,48
				c22.002-6.996,24.996-18,43.998-15c-10.998,21-6.967,29.607-9,36c-7.002,21.996-15.762,16.834-15,28.998
				c1.002,16.002,58.998,31.998,61.002,79.002H69.999c42-63,72.882-60.434,104.001-116.004c12.741-22.752,0.003-38.566-24.75-44.748
				c-29.637-7.4-82.875-3.375-87.375-28.5c-2.186-12.205,9.75-23.625,10.125-37.5c0.234-8.631-6.75-18.375-6.75-18.375
				S71.25,316.5,69.375,304.5z"/>
		</g>
		<g>
			<path d="M213.144,334.869v46.658h-27.75v-46.658h-80.063V315.24l80.063-126.996h27.75v120.75h11.52v25.875H213.144
				L213.144,334.869z M185.394,236.707l-46.078,72.287h46.078V236.707z"/>
			<path d="M373.242,284.52c0,14.789-0.82,27.363-2.449,37.729c-1.641,10.371-4.477,20.162-8.508,29.373
				c-4.805,11.524-10.805,19.928-18.012,25.207c-7.207,5.272-16.277,7.916-27.224,7.916c-11.531,0-20.896-2.644-28.104-7.916
				c-7.207-5.279-13.207-13.683-18.006-25.207c-4.037-9.404-6.873-19.242-8.502-29.515c-1.635-10.271-2.449-22.799-2.449-37.587
				c0-14.59,0.814-27.117,2.449-37.582c1.629-10.465,4.465-20.303,8.502-29.525c4.992-11.52,11.092-19.822,18.299-24.908
				c7.201-5.086,16.468-7.635,27.812-7.635c11.133,0,20.263,2.549,27.375,7.635c7.103,5.086,13.056,13.582,17.859,25.488
				c1.922,4.799,3.609,9.598,5.051,14.396c1.441,4.805,2.59,9.844,3.457,15.123c0.855,5.279,1.477,10.945,1.863,16.992
				C373.042,270.551,373.242,277.225,373.242,284.52z M346.617,284.52c0-5.379-0.152-10.283-0.435-14.701
				c-0.293-4.418-0.668-8.502-1.147-12.252c-0.48-3.75-1.103-7.354-1.863-10.811c-0.772-3.457-1.629-6.92-2.59-10.383
				c-2.484-8.648-5.602-14.895-9.328-18.738c-3.738-3.844-8.473-5.766-14.215-5.766c-11.859,0-19.995,7.98-24.396,23.93
				c-2.297,7.301-3.879,14.654-4.739,22.055c-0.861,7.401-1.289,16.482-1.289,27.24c0,5.191,0.141,9.949,0.428,14.273
				s0.668,8.361,1.148,12.111c0.479,3.75,1.102,7.446,1.868,11.098c0.763,3.65,1.623,7.395,2.584,11.238
				c4.4,15.955,12.536,23.93,24.396,23.93c5.742,0,10.477-1.922,14.215-5.766c3.728-3.845,6.844-9.896,9.328-18.164
				c1.148-3.845,2.109-7.541,2.871-11.099c0.762-3.551,1.383-7.254,1.863-11.098c0.479-3.845,0.819-7.929,1.008-12.252
				C346.512,295.042,346.617,290.098,346.617,284.52z"/>
			<path d="M420.305,381.205V222.803h-12V201.78c5.578-0.381,10.056-1.723,13.431-4.031c3.362-2.303,6.104-5.473,8.227-9.504h18.469
				v192.961L420.305,381.205L420.305,381.205z"/>
		</g>
	</g>
</svg>
