<?xml version="1.0" encoding="iso-8859-1"?>
<!-- Generator: Adobe Illustrator 11.0, SVG Export Plug-In . SVG Version: 6.0.0 Build 78)  -->
<!DOCTYPE svg PUBLIC "-//W3C//DTD SVG 1.0//EN"    "http://www.w3.org/TR/2001/REC-SVG-20010904/DTD/svg10.dtd" [
	<!ENTITY ns_flows "http://ns.adobe.com/Flows/1.0/">
	<!ENTITY ns_svg "http://www.w3.org/2000/svg">
	<!ENTITY ns_xlink "http://www.w3.org/1999/xlink">
]>
<svg  xmlns="&ns_svg;" xmlns:xlink="&ns_xlink;" xmlns:a="http://ns.adobe.com/AdobeSVGViewerExtensions/3.0/"
	 width="600" height="600" viewBox="0 0 600 600" style="overflow:visible;enable-background:new 0 0 600 600" xml:space="preserve"
	>
	<g id="Layer_1">
		<g id="Shield_4_">
			<path id="Background_1_" d="M600,542.227C600,574.125,574.125,600,542.227,600H57.782C25.869,600,0,574.125,0,542.227V57.782
				C0,25.869,25.869,0,57.782,0h484.444C574.125,0,600,25.869,600,57.782V542.227z"/>
			<path id="Head_1_" style="fill:#FFFFFF;" d="M69.375,304.5C58.5,303.375,40.86,310.506,36,297.75
				c-3-7.875,21.964-71.769,34.875-84C78,207,66.352,190.588,72,180c22.21-41.643,24.129-50.279,42.363-81.952
				c2.877-4.995,17.584-16.603,23.036-23.991C142.195,65.417,154.022,44.804,162,42c42.58-14.971,80.971-27.448,138.554-27.448
				c66.226,0,127.89,24.047,160.444,74.449C492,137.001,492,168.999,505.002,207c6.551,19.14,34.482,47.2,42,66
				c9.996,24.999-1.189,66.832-9,76.002c-23.004,27-67.096,50.338-74.004,63c-6,10.998-0.029,41.988,14.004,48
				c22.002-6.996,24.996-18,43.998-15c-10.998,21-6.967,29.607-9,36c-7.002,21.996-15.762,16.834-15,28.998
				c1.002,16.002,58.998,31.998,61.002,79.002H69.999c42-63,72.882-60.434,104.001-116.004c12.741-22.752,0.003-38.566-24.75-44.748
				c-29.637-7.4-82.875-3.375-87.375-28.5c-2.186-12.205,9.75-23.625,10.125-37.5c0.234-8.631-6.75-18.375-6.75-18.375
				S71.25,316.5,69.375,304.5z"/>
		</g>
		<g>
			<path d="M216.554,261.816c0,23.941-5.813,46.951-17.438,69.018s-27.993,41.455-49.122,58.154l-15.563-21.598
				c4.037-3.07,8.127-6.768,12.264-11.092c4.137-4.318,8.027-8.924,11.684-13.822c3.656-4.893,6.926-9.838,9.814-14.83
				c2.883-4.992,5.191-9.791,6.926-14.402c-2.303,0.504-4.365,0.75-6.188,0.75c-1.828,0-3.791,0-5.9,0
				c-16.693,0-29.883-5.467-39.568-16.4c-9.691-10.934-14.531-25.799-14.531-44.596c0-9.012,1.242-17.209,3.738-24.592
				s6.094-13.717,10.793-18.99s10.406-9.352,17.121-12.229s14.197-4.318,22.447-4.318c17.651,0,30.976,5.842,39.999,17.525
				C212.042,222.078,216.554,239.223,216.554,261.816z M189.929,255.881c0-10.945-2.484-19.688-7.465-26.215
				c-4.983-6.527-11.493-9.797-19.532-9.797c-8.619,0-15.275,2.977-19.963,8.93c-4.693,5.953-7.037,14.021-7.037,24.199
				c0,10.564,2.344,18.873,7.037,24.92c4.688,6.053,11.344,9.076,19.963,9.076c8.039,0,14.549-2.783,19.532-8.355
				C187.444,273.072,189.929,265.484,189.929,255.881z"/>
			<path d="M357.891,292.52c0,14.789-0.82,27.363-2.449,37.729c-1.629,10.371-4.465,20.162-8.496,29.373
				c-4.805,11.525-10.805,19.928-18.012,25.207c-7.207,5.273-16.286,7.916-27.231,7.916c-11.531,0-20.895-2.643-28.102-7.916
				c-7.207-5.279-13.207-13.682-18.006-25.207c-4.037-9.404-6.873-19.242-8.502-29.514c-1.635-10.271-2.449-22.799-2.449-37.588
				c0-14.59,0.814-27.117,2.449-37.582c1.629-10.465,4.465-20.303,8.502-29.525c4.992-11.52,11.092-19.822,18.299-24.908
				c7.201-5.086,16.471-7.635,27.809-7.635c11.139,0,20.259,2.549,27.372,7.635s13.066,13.582,17.871,25.488
				c1.922,4.799,3.598,9.598,5.039,14.396c1.441,4.805,2.59,9.844,3.457,15.123s1.488,10.945,1.875,16.992
				S357.891,285.225,357.891,292.52z M331.266,292.52c0-5.379-0.141-10.283-0.434-14.701c-0.281-4.418-0.668-8.502-1.148-12.252
				s-1.102-7.354-1.863-10.811s-1.629-6.92-2.578-10.383c-2.496-8.648-5.604-14.895-9.337-18.738s-8.467-5.766-14.209-5.766
				c-11.865,0-19.998,7.98-24.398,23.93c-2.297,7.301-3.879,14.654-4.74,22.055s-1.289,16.482-1.289,27.24
				c0,5.191,0.141,9.949,0.428,14.273s0.668,8.361,1.148,12.111s1.102,7.447,1.869,11.098c0.762,3.65,1.623,7.395,2.584,11.238
				c4.4,15.955,12.533,23.93,24.398,23.93c5.742,0,10.477-1.922,14.209-5.766s6.841-9.896,9.337-18.164
				c1.148-3.844,2.098-7.541,2.871-11.098c0.762-3.551,1.383-7.254,1.863-11.098s0.809-7.928,1.008-12.252
				C331.172,303.043,331.266,298.098,331.266,292.52z"/>
			<path d="M496.5,331.057c0,9.223-1.254,17.584-3.75,25.078c-2.496,7.5-6.082,13.986-10.781,19.459
				c-4.699,5.479-10.406,9.709-17.121,12.686c-6.715,2.971-14.203,4.465-22.453,4.465c-17.648,0-30.984-6.088-39.996-18.264
				c-9.023-12.176-13.523-29.297-13.523-51.352c0-11.695,1.488-23.443,4.465-35.238c2.977-11.789,7.301-23.203,12.961-34.23
				c5.672-11.027,12.633-21.527,20.895-31.5s17.672-18.984,28.242-27.041L471,216.957c-4.043,3.07-8.133,6.709-12.27,10.922
				c-4.137,4.219-8.027,8.672-11.684,13.365s-6.926,9.527-9.809,14.508c-2.895,4.98-5.203,9.773-6.926,14.367
				c2.297-0.498,4.453-0.75,6.469-0.75s3.891,0,5.613,0c8.25,0,15.738,1.494,22.453,4.471s12.422,7.207,17.121,12.68
				c4.699,5.479,8.285,11.965,10.781,19.459C495.246,313.479,496.5,321.834,496.5,331.057z M469.5,331.156
				c0-10.371-2.496-18.826-7.477-25.359s-11.484-9.803-19.523-9.803c-8.238,0-14.801,3.076-19.676,9.223
				c-4.887,6.152-7.324,13.834-7.324,23.057c0,10.957,2.438,19.939,7.324,26.953c4.875,7.014,11.438,10.518,19.676,10.518
				c8.039,0,14.543-3.217,19.523-9.656C467.004,349.654,469.5,341.34,469.5,331.156z"/>
		</g>
	</g>
</svg>
