<?xml version="1.0" encoding="iso-8859-1"?>
<!-- Generator: Adobe Illustrator 11.0, SVG Export Plug-In . SVG Version: 6.0.0 Build 78)  -->
<!DOCTYPE svg PUBLIC "-//W3C//DTD SVG 1.0//EN"    "http://www.w3.org/TR/2001/REC-SVG-20010904/DTD/svg10.dtd" [
	<!ENTITY ns_flows "http://ns.adobe.com/Flows/1.0/">
	<!ENTITY ns_svg "http://www.w3.org/2000/svg">
	<!ENTITY ns_xlink "http://www.w3.org/1999/xlink">
]>
<svg  xmlns="&ns_svg;" xmlns:xlink="&ns_xlink;" xmlns:a="http://ns.adobe.com/AdobeSVGViewerExtensions/3.0/"
	 width="600" height="600" viewBox="0 0 600 600" style="overflow:visible;enable-background:new 0 0 600 600" xml:space="preserve"
	>
	<g id="Layer_1">
		<g id="Shield_196_">
			<path id="Background_1_" d="M600,542.227C600,574.125,574.125,600,542.227,600H57.782C25.869,600,0,574.125,0,542.227V57.782
				C0,25.869,25.869,0,57.782,0h484.444C574.125,0,600,25.869,600,57.782V542.227z"/>
			<path id="Head_1_" style="fill:#FFFFFF;" d="M69.375,304.5C58.5,303.375,40.86,310.506,36,297.75
				c-3-7.875,21.964-71.769,34.875-84C78,207,66.352,190.588,72,180c22.21-41.643,24.129-50.279,42.363-81.952
				c2.877-4.995,17.584-16.603,23.036-23.991C142.195,65.417,154.022,44.804,162,42c42.58-14.971,80.971-27.448,138.554-27.448
				c66.226,0,127.89,24.047,160.444,74.449C492,137.001,492,168.999,505.002,207c6.551,19.14,34.482,47.2,42,66
				c9.996,24.999-1.189,66.832-9,76.002c-23.004,27-67.096,50.338-74.004,63c-6,10.998-0.029,41.988,14.004,48
				c22.002-6.996,24.996-18,43.998-15c-10.998,21-6.967,29.607-9,36c-7.002,21.996-15.762,16.834-15,28.998
				c1.002,16.002,58.998,31.998,61.002,79.002H69.999c42-63,72.882-60.434,104.001-116.004c12.741-22.752,0.003-38.566-24.75-44.748
				c-29.637-7.4-82.875-3.375-87.375-28.5c-2.186-12.205,9.75-23.625,10.125-37.5c0.234-8.631-6.75-18.375-6.75-18.375
				S71.25,316.5,69.375,304.5z"/>
		</g>
		<g>
			<path d="M127.343,403.059c0.445-13.207,2.121-25.295,5.033-36.264s7.506-21.832,13.781-32.578
				c4.699-8.502,10.523-16.395,17.473-23.672c6.943-7.277,14.338-13.822,22.178-19.646c2.016-1.113,3.8-2.291,5.37-3.521
				s3.141-2.408,4.711-3.527l12.094-6.381l11.086-6.381l10.758-6.041c4.477-2.906,8.109-6.545,10.91-10.916
				c2.801-4.365,4.207-8.9,4.207-13.6c0-4.254-1.125-8.227-3.363-11.918s-5.215-6.885-8.906-9.574
				c-3.691-2.684-8.004-4.811-12.938-6.381c-4.922-1.564-10.184-2.35-15.785-2.35c-11.426,0-20.669,2.689-27.724,8.063
				c-7.055,5.379-11.479,13.219-13.271,23.52l-35.613-7.729c3.809-18.82,12.545-33.563,26.209-44.227s30.463-16.002,50.399-16.002
				c10.746,0,20.777,1.793,30.07,5.373c9.293,3.586,17.355,8.396,24.188,14.443s12.27,13.154,16.301,21.322
				s6.059,16.846,6.059,26.021c0,8.73-1.969,17.297-5.883,25.688c-3.926,8.396-9.574,15.838-16.969,22.33
				c-1.793,1.348-3.422,2.578-4.875,3.697s-2.965,2.016-4.535,2.684l-11.086,7.055l-12.094,6.381l-11.098,6.381
				c-5.379,3.135-10.137,6.439-14.273,9.908c-4.148,3.469-7.957,7.219-11.429,11.25c-3.469,4.031-6.715,8.508-9.738,13.43
				s-5.883,10.518-8.572,16.787h110.552v36.375H127.343z"/>
			<path d="M478.135,338.201c0,9.65-1.963,18.68-5.889,27.094s-9.305,15.703-16.143,21.867c-6.844,6.17-14.971,11.051-24.387,14.637
				c-9.422,3.586-19.512,5.385-30.27,5.385c-10.764,0-20.854-1.852-30.27-5.543c-9.422-3.697-17.549-8.795-24.387-15.293
				c-6.844-6.498-12.223-14.115-16.148-22.857c-3.926-8.736-5.883-18.146-5.883-28.23c0-15.68,2.074-31.254,6.223-46.717
				c4.148-15.457,10.031-30.246,17.66-44.361c7.623-14.115,16.758-27.17,27.404-39.158c10.641-11.988,22.459-22.348,35.449-31.09
				l18.146,30.164c-6.949,5.367-13.055,10.564-18.316,15.592s-10.078,10.225-14.443,15.586c-4.371,5.367-8.344,11.01-11.93,16.928
				s-7.055,12.457-10.412,19.605c6.504-1.066,11.49-1.711,14.965-1.928c3.475-0.211,7.453-0.322,11.941-0.322
				c10.313,0,20.127,1.799,29.432,5.385c9.305,3.592,17.484,8.473,24.551,14.637c7.066,6.17,12.615,13.459,16.652,21.873
				C476.113,319.867,478.135,328.779,478.135,338.201z M442.51,337.475c0-4.266-1.066-8.414-3.193-12.457
				c-2.133-4.043-5.045-7.523-8.742-10.441c-3.703-2.918-8.074-5.273-13.119-7.072c-5.045-1.793-10.365-2.695-15.967-2.695
				c-5.607,0-10.822,0.902-15.639,2.695c-4.822,1.799-9.082,4.154-12.779,7.072c-3.703,2.918-6.615,6.398-8.742,10.441
				c-2.133,4.043-3.193,8.191-3.193,12.457c0,4.488,1.061,8.754,3.193,12.797c2.127,4.043,5.039,7.576,8.742,10.605
				c3.697,3.029,7.957,5.443,12.779,7.236c4.816,1.799,10.031,2.695,15.639,2.695c5.602,0,10.863-0.896,15.797-2.695
				c4.934-1.793,9.246-4.207,12.949-7.236c3.697-3.029,6.668-6.563,8.912-10.605C441.385,346.229,442.51,341.963,442.51,337.475z"/>
		</g>
	</g>
</svg>
