<?xml version="1.0" encoding="UTF-8" standalone="no"?>
<!-- Generator: Adobe Illustrator 11.0, SVG Export Plug-In . SVG Version: 6.0.0 Build 78)  -->
<svg
   xmlns:dc="http://purl.org/dc/elements/1.1/"
   xmlns:cc="http://web.resource.org/cc/"
   xmlns:rdf="http://www.w3.org/1999/02/22-rdf-syntax-ns#"
   xmlns:svg="http://www.w3.org/2000/svg"
   xmlns="http://www.w3.org/2000/svg"
   xmlns:sodipodi="http://sodipodi.sourceforge.net/DTD/sodipodi-0.dtd"
   xmlns:inkscape="http://www.inkscape.org/namespaces/inkscape"
   width="390.7"
   height="393.2"
   viewBox="0 0 390.7 393.2"
   style="overflow:visible;enable-background:new 0 0 390.7 393.2"
   xml:space="preserve"
   id="svg2374"
   sodipodi:version="0.32"
   inkscape:version="0.44.1"
   sodipodi:docname="WY-59.svg"
   sodipodi:docbase="D:\LH34IG2HGB\HOME\My Pictures\US Roads\WY"><metadata
   id="metadata2410"><rdf:RDF><cc:Work
       rdf:about=""><dc:format>image/svg+xml</dc:format><dc:type
         rdf:resource="http://purl.org/dc/dcmitype/StillImage" /></cc:Work></rdf:RDF></metadata><defs
   id="defs2408">
		
		
		
		
		
		 
		
		
		
		
		
		
	</defs><sodipodi:namedview
   inkscape:window-height="573"
   inkscape:window-width="853"
   inkscape:pageshadow="2"
   inkscape:pageopacity="0.0"
   guidetolerance="10.0"
   gridtolerance="10.0"
   objecttolerance="10.0"
   borderopacity="1.0"
   bordercolor="#666666"
   pagecolor="#ffffff"
   id="base"
   inkscape:zoom="0.95879956"
   inkscape:cx="195.35001"
   inkscape:cy="196.60001"
   inkscape:window-x="110"
   inkscape:window-y="145"
   inkscape:current-layer="svg2374" />
	<path
   id="path2377"
   d="M 386.6,369.7 C 386.6,380.5 377.8,389.2 366.9,389.2 L 23.7,389.2 C 12.8,389.2 4,380.5 4,369.7 L 4,23.5 C 4,12.7 12.8,4 23.7,4 L 367,4 C 377.9,4 386.7,12.7 386.7,23.5 L 386.6,369.7 L 386.6,369.7 z "
   style="fill:#ffca08;stroke:#260d0d;stroke-width:8" /><polygon
   id="polygon2379"
   points="66.8,102.3 58.5,102.3 52.1,67 45.7,102.3 37.1,102.3 26.5,34.7 35.9,34.7 41.7,70.7 48.2,34.7 55.9,34.7 62.3,70.7 68.2,34.7 77.7,34.7 66.8,102.3 "
   style="fill:#260d0d" /><polygon
   id="polygon2381"
   points="108.1,71.7 108.1,102.3 98.4,102.3 98.4,71.7 81.7,34.7 91.9,34.7 103.3,59.1 114.5,34.7 124.9,34.7 108.1,71.7 "
   style="fill:#260d0d" /><path
   id="path2383"
   d="M 172.7,68.4 C 172.7,73.6 172.4,78 171.8,81.6 C 171.2,85.2 170.2,88.7 168.8,91.9 C 167.1,95.9 165,98.9 162.5,100.7 C 160,102.5 156.8,103.5 153,103.5 C 149,103.5 145.7,102.6 143.1,100.7 C 140.6,98.8 138.5,95.9 136.8,91.9 C 135.4,88.6 134.4,85.1 133.8,81.5 C 133.2,77.9 132.9,73.5 132.9,68.3 C 132.9,63.2 133.2,58.8 133.8,55.1 C 134.4,51.4 135.4,48 136.8,44.8 C 138.6,40.8 140.7,37.8 143.2,36.1 C 145.7,34.3 149,33.4 153,33.4 C 156.9,33.4 160.1,34.3 162.6,36.1 C 165.1,37.9 167.2,40.9 168.9,45 C 169.6,46.7 170.2,48.4 170.7,50 C 171.2,51.7 171.6,53.5 171.9,55.3 C 172.2,57.1 172.4,59.1 172.6,61.3 C 172.6,63.5 172.7,65.8 172.7,68.4 z M 163.4,68.4 C 163.4,66.5 163.3,64.8 163.2,63.2 C 163.1,61.7 163,60.2 162.8,58.9 C 162.6,57.6 162.4,56.3 162.1,55.1 C 161.8,53.9 161.5,52.7 161.2,51.5 C 160.3,48.5 159.2,46.3 157.9,44.9 C 156.6,43.6 154.9,42.9 152.9,42.9 C 148.7,42.9 145.8,45.7 144.3,51.3 C 143.5,53.9 142.9,56.4 142.6,59 C 142.3,61.6 142.1,64.8 142.1,68.5 C 142.1,70.3 142.1,72 142.2,73.5 C 142.3,75 142.4,76.4 142.6,77.7 C 142.8,79 143,80.3 143.3,81.6 C 143.6,82.9 143.9,84.2 144.2,85.5 C 145.8,91.1 148.6,93.9 152.8,93.9 C 154.8,93.9 156.5,93.2 157.8,91.9 C 159.1,90.6 160.2,88.4 161.1,85.5 C 161.5,84.1 161.8,82.9 162.1,81.6 C 162.4,80.4 162.6,79.1 162.8,77.7 C 163,76.4 163.1,74.9 163.1,73.4 C 163.4,72.1 163.4,70.3 163.4,68.4 z "
   style="fill:#260d0d" /><polygon
   id="polygon2385"
   points="220.9,102.3 220.9,64.4 208.5,102.3 195.9,64.4 195.9,102.3 186.2,102.3 186.2,34.7 195.9,34.7 208.5,72.6 220.9,34.7 230.8,34.7 230.8,102.3 220.9,102.3 "
   style="fill:#260d0d" /><rect
   id="rect2387"
   height="67.599998"
   width="9.5"
   style="fill:#260d0d"
   y="34.700001"
   x="245.5" /><polygon
   id="polygon2389"
   points="300.5,102.3 279.6,57 279.6,102.3 269.9,102.3 269.9,34.7 279.6,34.7 298.2,75.3 298.2,34.7 307.9,34.7 307.9,102.3 300.5,102.3 "
   style="fill:#260d0d" /><path
   id="path2391"
   d="M 358.7,89.5 C 358.4,91.1 357.9,92.6 357.2,94.1 C 355.9,97.1 353.9,99.4 351.3,101.1 C 348.7,102.8 345.7,103.6 342.3,103.6 C 338.3,103.6 334.8,102.6 331.9,100.7 C 329,98.8 326.7,95.9 325,92 C 323.9,89.4 323.1,86 322.4,81.7 C 321.8,77.4 321.4,73.1 321.4,68.6 C 321.4,63.8 321.6,59.6 322.1,56 C 322.5,52.4 323.4,49 324.6,45.7 C 325.2,43.9 326.1,42.3 327.2,40.8 C 328.3,39.3 329.6,38 331.1,36.9 C 332.6,35.8 334.2,34.9 336,34.3 C 337.8,33.7 339.7,33.4 341.6,33.4 C 344,33.4 346.3,33.8 348.4,34.7 C 350.5,35.6 352.3,36.7 353.8,38.2 C 355.3,39.7 356.6,41.5 357.5,43.6 C 358.4,45.7 359,48 359.1,50.5 L 349.4,50.5 C 349.3,48.2 348.5,46.4 347,45 C 345.6,43.6 343.7,42.9 341.3,42.9 C 337.9,42.9 335.4,44.6 333.6,47.9 C 332.7,49.6 331.9,52.2 331.4,55.6 C 330.9,59.1 330.6,62.8 330.6,66.9 C 330.6,69.7 330.7,72.6 330.9,75.5 C 331.1,78.4 331.5,81.2 332,83.8 C 332.7,87.1 333.9,89.6 335.6,91.4 C 337.3,93.2 339.4,94 342,94 C 346.9,94 349.4,90.5 349.4,83.5 L 349.4,79.1 L 341.7,79.1 L 341.7,69.6 L 359.1,69.6 L 359.1,83.5 C 359.1,85.9 359,87.9 358.7,89.5 z "
   style="fill:#260d0d" /><path
   id="path2393"
   d="M 189,294 C 189,294 190.5,291.8 194.2,291.6 L 196.6,288.7 C 196.6,288.7 200.1,289.8 200.1,291.7 C 200.1,291.7 199.3,293.2 205.1,291 L 206.1,291.6 L 203.4,294.5 C 203.4,294.5 196.8,295 194.5,297.9 C 194.5,297.9 192.5,299 192,301.7 L 195.9,305.1 L 198.2,301.2 L 200.2,303.7 L 201.1,303.9 C 201.1,303.9 202.9,299.8 205.5,300.2 C 205.5,300.2 209.9,302.2 209.9,304.6 C 209.9,304.6 206.5,305.5 206.4,307 L 204.2,307.8 L 203.3,308 L 202.8,307.7 L 202.8,308.9 L 203.5,309.2 C 203.5,309.2 205.4,308.7 208.7,322.3 L 210.9,320.9 L 212.7,321.3 C 212.7,321.3 214.2,320.8 214.2,319.6 C 214.2,319.6 215.2,319.3 215.1,320.2 C 215,321.1 214.8,321.8 213.4,322.6 C 212,323.4 212.1,321.6 211.4,321.9 C 210.6,322.2 210.1,322.5 210.1,322.9 C 210.1,323.3 212.5,323.8 213.1,325 C 213.7,326.2 212.8,326 212.7,325.8 C 212.6,325.6 211.2,325.5 211.1,325.7 C 211,325.9 208.7,326.8 209.3,327.7 C 209.8,328.6 211,329.6 212.1,329.4 C 213.2,329.2 213.4,328.5 214.1,328.7 C 214.8,328.9 214.9,330 214.9,330 L 215.8,330.2 L 215.9,329.6 C 215.9,329.6 217.8,330.4 217,332.6 C 216.2,334.8 220.4,332.3 220.2,332 C 220,331.7 220.7,333.3 220.2,333.8 C 219.7,334.3 223.1,335.3 223.3,335.8 C 223.5,336.3 223.7,336.9 223.1,336.8 C 222.4,336.7 220.8,335.8 220.7,336.2 C 220.6,336.6 220.8,337 222.6,337.9 L 224.6,336.9 C 224.6,336.9 225.1,336.9 225.1,337.5 C 225.1,338.2 222.6,338.7 223.9,339.8 C 225.2,340.9 226.6,340.4 226.6,340.4 C 226.6,340.4 226.7,341.3 226.7,342.2 C 226.7,343.1 227.9,343.1 227.9,343.1 L 226.4,344.7 L 227.8,344.3 C 227.8,344.3 229.2,347.8 228.4,349.6 L 230.3,350.3 L 230.2,353.8 L 228.5,353.5 L 228.4,355.3 L 230.8,357.5 L 230.1,358.3 L 227.6,358 C 227.6,358 226.8,357.9 226.5,360 C 226.5,360 216.9,365.3 216.1,367 C 215.2,368.6 212.2,367.1 212.2,367.1 L 212.2,365.6 L 213.1,364.6 L 212.3,364 L 211.2,364.1 L 211,364.8 L 210.6,364.7 C 210.6,364.7 210.4,361.7 213.1,360.6 C 213.1,360.6 213.4,359 212.1,357.3 C 210.8,355.7 210.6,348.1 210.6,348.1 C 210.6,348.1 209.1,346.9 208.6,347.7 C 208.1,348.5 207.3,348.6 207.3,351.5 C 207.3,354.4 208.1,366.6 208.1,366.6 C 208.1,366.6 210.2,371.2 211,371 C 211.8,370.8 210.9,372.9 210.4,373.5 C 209.9,374.1 209,374.6 206.1,372.4 C 203.2,370.3 204.2,361.5 204.2,361.5 C 204.2,361.5 199.7,353.6 199.8,347.2 L 196.7,345.7 L 195.7,346.3 C 195.7,346.3 193.2,346.1 191.5,343 L 189.7,343.1 L 190,338.8 C 190,338.8 189.2,338.3 188.8,338.8 C 188.4,339.3 184.7,344.5 184.7,345 C 184.7,345.5 184.9,346.2 186.6,346.2 C 188.3,346.1 189.7,348.8 189.8,349.2 C 189.9,349.6 190.1,351.1 190.1,351.1 L 189,351.5 C 189,351.5 186.7,351.4 184.5,349.1 C 184.5,349.1 181.8,349.8 183.3,350.3 C 184.8,350.9 185.8,352.9 187.5,353.3 C 189.2,353.6 189,355.5 189.2,356 C 189.4,356.5 193,359 192.4,362.2 L 187.1,360.2 L 186.9,358.2 L 185.9,357.8 L 185.7,356.3 C 185.7,356.3 181,351.4 176.4,349.7 L 178,347.2 C 178,347.2 172.6,346 170.9,344.1 C 169.2,342.2 174.1,339.6 174.1,339.6 L 175,334.4 L 172.9,330.6 C 172.9,330.6 173.1,322.4 178,321.4 C 178,321.4 175.2,315.5 173.4,321.2 C 171.6,326.9 172.3,333.2 166.9,331.9 C 166.9,331.9 168.9,328.3 168.5,326.7 L 166.8,326.8 C 166.8,326.8 167.6,325.4 167.9,325.2 C 168.2,324.9 167.9,323.5 167.9,323.5 L 166,323.6 C 166,323.6 167.7,322.5 167.7,321.6 C 167.7,320.7 168.5,319.6 168.5,319.6 L 167.5,318.4 C 167.5,318.4 168.7,309.8 172.2,309.6 C 175.7,309.4 178.9,314.8 178.2,316.8 C 177.6,318.8 180.1,319.9 180.6,320.1 C 181.1,320.3 183.6,320 190.9,322.5 L 191.7,319.9 C 191.7,319.9 193.1,319.6 193.6,320.7 C 194.1,321.8 194.4,319.2 194.4,319.2 L 193.3,318.6 L 193.2,308.9 C 193.2,308.9 187.9,304.8 187.7,302.8 C 187.5,300.8 190.8,297.3 191,297.1 C 191.2,296.9 191.3,295.9 191.3,295.9 L 188.4,294.4 L 189,294 z "
   style="fill:#260d0d" /><polygon
   id="polygon2395"
   points="203,319.3 201.4,322.4 203.9,325.1 205.1,325 205.8,324.3 204.8,321.2 203.9,319.3 203,319.3 "
   style="fill:#ffca08" /><polygon
   id="polygon2397"
   points="178.5,342.2 177.2,343.8 178.8,344 179,342.8 178.5,342.2 "
   style="fill:#ffca08" />
<path
   style="font-size:100px;font-style:normal;font-weight:normal;text-align:center;text-anchor:middle;fill:black;fill-opacity:1;stroke:none;stroke-width:1px;stroke-linecap:butt;stroke-linejoin:miter;stroke-opacity:1;font-family:Roadgeek 2005 Series D"
   d="M 183.28513,223.47235 C 183.28502,231.31236 181.78004,238.5232 178.7702,245.10489 C 175.76015,251.68664 171.52508,257.42668 166.06497,262.32504 C 160.60468,267.22343 154.12977,271.03766 146.64023,273.76776 C 139.15054,276.49786 130.92606,277.86291 121.96677,277.86292 C 115.80584,277.86291 109.7507,277.1633 103.80133,275.76407 C 97.851905,274.36484 92.426953,272.40485 87.526459,269.88409 L 98.446869,250.14532 C 101.38629,251.68343 105.23578,252.90749 109.99533,253.8175 C 114.75481,254.72756 119.72368,255.18258 124.90195,255.18256 C 129.94339,255.18258 134.66873,254.37829 139.07797,252.76968 C 143.48708,251.16113 147.33763,248.95654 150.62964,246.15591 C 153.92149,243.35535 156.47642,240.03031 158.29443,236.18079 C 160.11228,232.33134 161.02124,228.0952 161.02133,223.47235 C 161.02124,219.97326 160.35688,216.75396 159.02823,213.81445 C 157.69941,210.87506 155.88041,208.28489 153.57123,206.04391 C 151.26189,203.80308 148.60228,202.05244 145.59241,200.79199 C 142.58239,199.53169 139.32571,198.9015 135.82236,198.90143 C 133.30582,198.9015 131.1023,199.11192 129.21179,199.53268 C 127.32117,199.9536 125.53529,200.72371 123.85413,201.84302 C 122.17286,202.96247 120.49272,204.46745 118.81369,206.35794 C 117.13457,208.24857 115.24401,210.66358 113.142,213.60297 L 90.884613,207.30322 L 94.454254,134.64148 L 175.3063,134.64148 L 175.3063,156.90527 L 116.08359,156.90527 L 114.616,180.0022 C 119.79417,178.46421 123.85301,177.41532 126.79251,176.85553 C 129.73191,176.29594 132.95334,176.01609 136.45682,176.01599 C 142.89535,176.01609 148.94942,177.2754 154.61905,179.79391 C 160.28852,182.31262 165.25845,185.74234 169.52887,190.08307 C 173.79909,194.42397 177.15938,199.4644 179.60974,205.20438 C 182.05989,210.94449 183.28502,217.03381 183.28513,223.47235 L 183.28513,223.47235 z M 306.74216,177.06702 C 306.74205,186.72714 305.44642,196.35192 302.85529,205.94138 C 300.26393,215.53097 296.58855,224.73598 291.82913,233.55643 C 287.06952,242.37696 281.33054,250.56619 274.61218,258.12415 C 267.89367,265.68214 260.47348,272.26172 252.35159,277.86292 L 241.64267,258.96368 C 245.84245,255.60555 249.58726,252.35101 252.87711,249.20004 C 256.16684,246.04913 259.14154,242.79352 261.80121,239.4332 C 264.46075,236.07295 266.911,232.50331 269.15198,228.72427 C 271.39281,224.94533 273.56215,220.74444 275.66,216.12158 C 271.60109,216.82232 268.48647,217.31259 266.31613,217.59238 C 264.14565,217.87228 261.66122,218.0122 258.86282,218.01215 C 252.28318,218.0122 246.08812,216.89282 240.27762,214.65399 C 234.46703,212.41529 229.39136,209.37116 225.05057,205.52161 C 220.70972,201.67219 217.28001,197.12203 214.76141,191.87109 C 212.24278,186.62033 210.98348,181.05545 210.98349,175.17645 C 210.98348,169.15666 212.24278,163.52129 214.76141,158.27032 C 217.28001,153.01959 220.67448,148.46943 224.94482,144.61981 C 229.21512,140.77046 234.25555,137.72527 240.06613,135.48422 C 245.87663,133.24346 252.14219,132.12301 258.86282,132.12286 C 265.58334,132.12301 271.88307,133.27871 277.76205,135.58997 C 283.64087,137.9015 288.71548,141.05137 292.9859,145.03958 C 297.25613,149.02805 300.61641,153.75232 303.06677,159.2124 C 305.51692,164.67272 306.74205,170.62425 306.74216,177.06702 L 306.74216,177.06702 z M 284.47836,175.17645 C 284.47828,172.51481 283.77866,169.92357 282.37952,167.40271 C 280.9802,164.88207 279.12596,162.71166 276.81677,160.89148 C 274.50743,159.07153 271.81258,157.6018 268.73221,156.4823 C 265.6517,155.36304 262.3619,154.80334 258.86282,154.80322 C 255.36362,154.80334 252.10908,155.32886 249.09918,156.37976 C 246.08918,157.4309 243.42851,158.86645 241.11716,160.6864 C 238.80571,162.50658 236.98565,164.67592 235.65695,167.19443 C 234.32818,169.71315 233.66381,172.37382 233.66385,175.17645 C 233.66381,177.97501 234.32818,180.59937 235.65695,183.04953 C 236.98565,185.49988 238.80571,187.63504 241.11716,189.45502 C 243.42851,191.27517 246.08918,192.70965 249.09918,193.75845 C 252.10908,194.80742 255.36362,195.33187 258.86282,195.33179 C 262.3619,195.33187 265.68694,194.80742 268.83795,193.75845 C 271.98882,192.70965 274.71892,191.27517 277.02826,189.45502 C 279.33744,187.63504 281.15644,185.49988 282.48526,183.04953 C 283.81391,180.59937 284.47828,177.97501 284.47836,175.17645 L 284.47836,175.17645 z "
   id="text1938" />
</svg>