<?xml version="1.0" encoding="UTF-8" standalone="no"?>
<!-- Created with Inkscape (http://www.inkscape.org/) -->
<svg
   xmlns:svg="http://www.w3.org/2000/svg"
   xmlns="http://www.w3.org/2000/svg"
   version="1.0"
   width="390.70001"
   height="393.20001"
   viewBox="0 0 390.7 393.2"
   id="svg2374"
   xml:space="preserve"><defs
   id="defs2408">
		
		
		
		
		
		 
		
		
		
		
		
		
	</defs>
	<path
   d="M 386.6,369.7 C 386.6,380.5 377.8,389.2 366.9,389.2 L 23.7,389.2 C 12.8,389.2 4,380.5 4,369.7 L 4,23.5 C 4,12.7 12.8,4 23.7,4 L 367,4 C 377.9,4 386.7,12.7 386.7,23.5 L 386.6,369.7 L 386.6,369.7 z "
   style="fill:#ffca08;stroke:#260d0d;stroke-width:8"
   id="path2377" /><polygon
   points="66.8,102.3 58.5,102.3 52.1,67 45.7,102.3 37.1,102.3 26.5,34.7 35.9,34.7 41.7,70.7 48.2,34.7 55.9,34.7 62.3,70.7 68.2,34.7 77.7,34.7 66.8,102.3 "
   style="fill:#260d0d"
   id="polygon2379" /><polygon
   points="108.1,71.7 108.1,102.3 98.4,102.3 98.4,71.7 81.7,34.7 91.9,34.7 103.3,59.1 114.5,34.7 124.9,34.7 108.1,71.7 "
   style="fill:#260d0d"
   id="polygon2381" /><path
   d="M 172.7,68.4 C 172.7,73.6 172.4,78 171.8,81.6 C 171.2,85.2 170.2,88.7 168.8,91.9 C 167.1,95.9 165,98.9 162.5,100.7 C 160,102.5 156.8,103.5 153,103.5 C 149,103.5 145.7,102.6 143.1,100.7 C 140.6,98.8 138.5,95.9 136.8,91.9 C 135.4,88.6 134.4,85.1 133.8,81.5 C 133.2,77.9 132.9,73.5 132.9,68.3 C 132.9,63.2 133.2,58.8 133.8,55.1 C 134.4,51.4 135.4,48 136.8,44.8 C 138.6,40.8 140.7,37.8 143.2,36.1 C 145.7,34.3 149,33.4 153,33.4 C 156.9,33.4 160.1,34.3 162.6,36.1 C 165.1,37.9 167.2,40.9 168.9,45 C 169.6,46.7 170.2,48.4 170.7,50 C 171.2,51.7 171.6,53.5 171.9,55.3 C 172.2,57.1 172.4,59.1 172.6,61.3 C 172.6,63.5 172.7,65.8 172.7,68.4 z M 163.4,68.4 C 163.4,66.5 163.3,64.8 163.2,63.2 C 163.1,61.7 163,60.2 162.8,58.9 C 162.6,57.6 162.4,56.3 162.1,55.1 C 161.8,53.9 161.5,52.7 161.2,51.5 C 160.3,48.5 159.2,46.3 157.9,44.9 C 156.6,43.6 154.9,42.9 152.9,42.9 C 148.7,42.9 145.8,45.7 144.3,51.3 C 143.5,53.9 142.9,56.4 142.6,59 C 142.3,61.6 142.1,64.8 142.1,68.5 C 142.1,70.3 142.1,72 142.2,73.5 C 142.3,75 142.4,76.4 142.6,77.7 C 142.8,79 143,80.3 143.3,81.6 C 143.6,82.9 143.9,84.2 144.2,85.5 C 145.8,91.1 148.6,93.9 152.8,93.9 C 154.8,93.9 156.5,93.2 157.8,91.9 C 159.1,90.6 160.2,88.4 161.1,85.5 C 161.5,84.1 161.8,82.9 162.1,81.6 C 162.4,80.4 162.6,79.1 162.8,77.7 C 163,76.4 163.1,74.9 163.1,73.4 C 163.4,72.1 163.4,70.3 163.4,68.4 z "
   style="fill:#260d0d"
   id="path2383" /><polygon
   points="220.9,102.3 220.9,64.4 208.5,102.3 195.9,64.4 195.9,102.3 186.2,102.3 186.2,34.7 195.9,34.7 208.5,72.6 220.9,34.7 230.8,34.7 230.8,102.3 220.9,102.3 "
   style="fill:#260d0d"
   id="polygon2385" /><rect
   width="9.5"
   height="67.599998"
   x="245.5"
   y="34.700001"
   style="fill:#260d0d"
   id="rect2387" /><polygon
   points="300.5,102.3 279.6,57 279.6,102.3 269.9,102.3 269.9,34.7 279.6,34.7 298.2,75.3 298.2,34.7 307.9,34.7 307.9,102.3 300.5,102.3 "
   style="fill:#260d0d"
   id="polygon2389" /><path
   d="M 358.7,89.5 C 358.4,91.1 357.9,92.6 357.2,94.1 C 355.9,97.1 353.9,99.4 351.3,101.1 C 348.7,102.8 345.7,103.6 342.3,103.6 C 338.3,103.6 334.8,102.6 331.9,100.7 C 329,98.8 326.7,95.9 325,92 C 323.9,89.4 323.1,86 322.4,81.7 C 321.8,77.4 321.4,73.1 321.4,68.6 C 321.4,63.8 321.6,59.6 322.1,56 C 322.5,52.4 323.4,49 324.6,45.7 C 325.2,43.9 326.1,42.3 327.2,40.8 C 328.3,39.3 329.6,38 331.1,36.9 C 332.6,35.8 334.2,34.9 336,34.3 C 337.8,33.7 339.7,33.4 341.6,33.4 C 344,33.4 346.3,33.8 348.4,34.7 C 350.5,35.6 352.3,36.7 353.8,38.2 C 355.3,39.7 356.6,41.5 357.5,43.6 C 358.4,45.7 359,48 359.1,50.5 L 349.4,50.5 C 349.3,48.2 348.5,46.4 347,45 C 345.6,43.6 343.7,42.9 341.3,42.9 C 337.9,42.9 335.4,44.6 333.6,47.9 C 332.7,49.6 331.9,52.2 331.4,55.6 C 330.9,59.1 330.6,62.8 330.6,66.9 C 330.6,69.7 330.7,72.6 330.9,75.5 C 331.1,78.4 331.5,81.2 332,83.8 C 332.7,87.1 333.9,89.6 335.6,91.4 C 337.3,93.2 339.4,94 342,94 C 346.9,94 349.4,90.5 349.4,83.5 L 349.4,79.1 L 341.7,79.1 L 341.7,69.6 L 359.1,69.6 L 359.1,83.5 C 359.1,85.9 359,87.9 358.7,89.5 z "
   style="fill:#260d0d"
   id="path2391" /><path
   d="M 189,294 C 189,294 190.5,291.8 194.2,291.6 L 196.6,288.7 C 196.6,288.7 200.1,289.8 200.1,291.7 C 200.1,291.7 199.3,293.2 205.1,291 L 206.1,291.6 L 203.4,294.5 C 203.4,294.5 196.8,295 194.5,297.9 C 194.5,297.9 192.5,299 192,301.7 L 195.9,305.1 L 198.2,301.2 L 200.2,303.7 L 201.1,303.9 C 201.1,303.9 202.9,299.8 205.5,300.2 C 205.5,300.2 209.9,302.2 209.9,304.6 C 209.9,304.6 206.5,305.5 206.4,307 L 204.2,307.8 L 203.3,308 L 202.8,307.7 L 202.8,308.9 L 203.5,309.2 C 203.5,309.2 205.4,308.7 208.7,322.3 L 210.9,320.9 L 212.7,321.3 C 212.7,321.3 214.2,320.8 214.2,319.6 C 214.2,319.6 215.2,319.3 215.1,320.2 C 215,321.1 214.8,321.8 213.4,322.6 C 212,323.4 212.1,321.6 211.4,321.9 C 210.6,322.2 210.1,322.5 210.1,322.9 C 210.1,323.3 212.5,323.8 213.1,325 C 213.7,326.2 212.8,326 212.7,325.8 C 212.6,325.6 211.2,325.5 211.1,325.7 C 211,325.9 208.7,326.8 209.3,327.7 C 209.8,328.6 211,329.6 212.1,329.4 C 213.2,329.2 213.4,328.5 214.1,328.7 C 214.8,328.9 214.9,330 214.9,330 L 215.8,330.2 L 215.9,329.6 C 215.9,329.6 217.8,330.4 217,332.6 C 216.2,334.8 220.4,332.3 220.2,332 C 220,331.7 220.7,333.3 220.2,333.8 C 219.7,334.3 223.1,335.3 223.3,335.8 C 223.5,336.3 223.7,336.9 223.1,336.8 C 222.4,336.7 220.8,335.8 220.7,336.2 C 220.6,336.6 220.8,337 222.6,337.9 L 224.6,336.9 C 224.6,336.9 225.1,336.9 225.1,337.5 C 225.1,338.2 222.6,338.7 223.9,339.8 C 225.2,340.9 226.6,340.4 226.6,340.4 C 226.6,340.4 226.7,341.3 226.7,342.2 C 226.7,343.1 227.9,343.1 227.9,343.1 L 226.4,344.7 L 227.8,344.3 C 227.8,344.3 229.2,347.8 228.4,349.6 L 230.3,350.3 L 230.2,353.8 L 228.5,353.5 L 228.4,355.3 L 230.8,357.5 L 230.1,358.3 L 227.6,358 C 227.6,358 226.8,357.9 226.5,360 C 226.5,360 216.9,365.3 216.1,367 C 215.2,368.6 212.2,367.1 212.2,367.1 L 212.2,365.6 L 213.1,364.6 L 212.3,364 L 211.2,364.1 L 211,364.8 L 210.6,364.7 C 210.6,364.7 210.4,361.7 213.1,360.6 C 213.1,360.6 213.4,359 212.1,357.3 C 210.8,355.7 210.6,348.1 210.6,348.1 C 210.6,348.1 209.1,346.9 208.6,347.7 C 208.1,348.5 207.3,348.6 207.3,351.5 C 207.3,354.4 208.1,366.6 208.1,366.6 C 208.1,366.6 210.2,371.2 211,371 C 211.8,370.8 210.9,372.9 210.4,373.5 C 209.9,374.1 209,374.6 206.1,372.4 C 203.2,370.3 204.2,361.5 204.2,361.5 C 204.2,361.5 199.7,353.6 199.8,347.2 L 196.7,345.7 L 195.7,346.3 C 195.7,346.3 193.2,346.1 191.5,343 L 189.7,343.1 L 190,338.8 C 190,338.8 189.2,338.3 188.8,338.8 C 188.4,339.3 184.7,344.5 184.7,345 C 184.7,345.5 184.9,346.2 186.6,346.2 C 188.3,346.1 189.7,348.8 189.8,349.2 C 189.9,349.6 190.1,351.1 190.1,351.1 L 189,351.5 C 189,351.5 186.7,351.4 184.5,349.1 C 184.5,349.1 181.8,349.8 183.3,350.3 C 184.8,350.9 185.8,352.9 187.5,353.3 C 189.2,353.6 189,355.5 189.2,356 C 189.4,356.5 193,359 192.4,362.2 L 187.1,360.2 L 186.9,358.2 L 185.9,357.8 L 185.7,356.3 C 185.7,356.3 181,351.4 176.4,349.7 L 178,347.2 C 178,347.2 172.6,346 170.9,344.1 C 169.2,342.2 174.1,339.6 174.1,339.6 L 175,334.4 L 172.9,330.6 C 172.9,330.6 173.1,322.4 178,321.4 C 178,321.4 175.2,315.5 173.4,321.2 C 171.6,326.9 172.3,333.2 166.9,331.9 C 166.9,331.9 168.9,328.3 168.5,326.7 L 166.8,326.8 C 166.8,326.8 167.6,325.4 167.9,325.2 C 168.2,324.9 167.9,323.5 167.9,323.5 L 166,323.6 C 166,323.6 167.7,322.5 167.7,321.6 C 167.7,320.7 168.5,319.6 168.5,319.6 L 167.5,318.4 C 167.5,318.4 168.7,309.8 172.2,309.6 C 175.7,309.4 178.9,314.8 178.2,316.8 C 177.6,318.8 180.1,319.9 180.6,320.1 C 181.1,320.3 183.6,320 190.9,322.5 L 191.7,319.9 C 191.7,319.9 193.1,319.6 193.6,320.7 C 194.1,321.8 194.4,319.2 194.4,319.2 L 193.3,318.6 L 193.2,308.9 C 193.2,308.9 187.9,304.8 187.7,302.8 C 187.5,300.8 190.8,297.3 191,297.1 C 191.2,296.9 191.3,295.9 191.3,295.9 L 188.4,294.4 L 189,294 z "
   style="fill:#260d0d"
   id="path2393" /><polygon
   points="203,319.3 201.4,322.4 203.9,325.1 205.1,325 205.8,324.3 204.8,321.2 203.9,319.3 203,319.3 "
   style="fill:#ffca08"
   id="polygon2395" /><polygon
   points="178.5,342.2 177.2,343.8 178.8,344 179,342.8 178.5,342.2 "
   style="fill:#ffca08"
   id="polygon2397" />
<path
   d="M 56.22641,275.3443 C 56.504111,270.58478 56.818137,266.45439 57.168488,262.95309 C 57.51882,259.45183 57.938589,256.30196 58.427795,253.50348 C 58.916981,250.70504 59.547168,248.01019 60.318359,245.41891 C 61.089525,242.8277 62.034806,239.99186 63.154205,236.91138 C 68.896372,222.21416 76.456484,210.52472 85.834564,201.84302 C 86.6762,201.14241 87.552054,200.40755 88.462128,199.63843 C 89.37212,198.86946 90.491504,197.99468 91.820282,197.01407 C 93.148972,196.03362 94.75862,194.84374 96.649231,193.44443 C 98.539744,192.04528 100.88425,190.36514 103.68277,188.40399 C 108.30551,185.18265 111.4212,182.45255 113.02985,180.21368 C 114.63836,177.97501 115.44265,175.10606 115.44272,171.60681 C 115.44265,168.94517 114.91821,166.42443 113.86938,164.04456 C 112.82043,161.66491 111.4212,159.565 109.67169,157.74481 C 107.92206,155.92486 105.82215,154.48932 103.37195,153.43817 C 100.92164,152.38727 98.365642,151.86176 95.703949,151.86163 C 92.905442,151.86176 90.316333,152.38727 87.936615,153.43817 C 85.556817,154.48932 83.491084,155.92486 81.73941,157.74481 C 79.987669,159.565 78.587372,161.66491 77.538513,164.04456 C 76.489595,166.42443 75.965151,168.94517 75.965179,171.60681 L 56.22641,171.60681 C 56.36312,166.14672 57.447256,161.00161 59.478821,156.17148 C 61.510362,151.34159 64.27571,147.14069 67.774872,143.56879 C 71.273994,139.99714 75.403323,137.19655 80.162872,135.16699 C 84.922357,133.13772 90.10271,132.12301 95.703949,132.12286 C 101.1641,132.12301 106.23978,133.17296 110.931,135.27274 C 115.62209,137.37279 119.75249,140.20756 123.3222,143.77707 C 126.89177,147.34684 129.69129,151.51248 131.72079,156.27402 C 133.75013,161.03579 134.76484,166.14672 134.76492,171.60681 C 134.76484,182.80502 130.77436,192.04421 122.79349,199.3244 C 122.09273,199.88417 121.35787,200.40861 120.5889,200.89774 C 119.81978,201.38701 119.08492,201.98195 118.38431,202.68256 L 113.55215,206.2522 L 108.51492,209.61676 L 103.05472,213.60297 C 100.8159,215.2821 98.611308,217.27734 96.440948,219.58868 C 94.270492,221.90014 92.170579,224.42089 90.141205,227.15094 C 88.111746,229.88109 86.326927,232.75111 84.786743,235.76102 C 83.246486,238.771 81.985043,241.7457 81.002411,244.68512 C 80.164976,246.50522 79.571105,248.15011 79.220795,249.61981 C 78.870422,251.08956 78.415405,253.0848 77.855743,255.60553 L 134.76492,255.60553 L 134.76492,275.3443 L 56.22641,275.3443 z M 151.38266,275.3443 C 151.66036,270.58478 151.97439,266.45439 152.32474,262.95309 C 152.67507,259.45183 153.09484,256.30196 153.58405,253.50348 C 154.07323,250.70504 154.70342,248.01019 155.47461,245.41891 C 156.24578,242.8277 157.19106,239.99186 158.31046,236.91138 C 164.05262,222.21416 171.61273,210.52472 180.99081,201.84302 C 181.83245,201.14241 182.7083,200.40755 183.61838,199.63843 C 184.52837,198.86946 185.64775,197.99468 186.97653,197.01407 C 188.30522,196.03362 189.91487,194.84374 191.80548,193.44443 C 193.69599,192.04528 196.0405,190.36514 198.83902,188.40399 C 203.46176,185.18265 206.57745,182.45255 208.1861,180.21368 C 209.79461,177.97501 210.5989,175.10606 210.59897,171.60681 C 210.5989,168.94517 210.07446,166.42443 209.02563,164.04456 C 207.97668,161.66491 206.57745,159.565 204.82794,157.74481 C 203.07831,155.92486 200.9784,154.48932 198.5282,153.43817 C 196.07789,152.38727 193.52189,151.86176 190.8602,151.86163 C 188.06169,151.86176 185.47258,152.38727 183.09286,153.43817 C 180.71307,154.48932 178.64733,155.92486 176.89566,157.74481 C 175.14392,159.565 173.74362,161.66491 172.69476,164.04456 C 171.64585,166.42443 171.1214,168.94517 171.12143,171.60681 L 151.38266,171.60681 C 151.51937,166.14672 152.60351,161.00161 154.63507,156.17148 C 156.66661,151.34159 159.43196,147.14069 162.93112,143.56879 C 166.43024,139.99714 170.55957,137.19655 175.31912,135.16699 C 180.07861,133.13772 185.25896,132.12301 190.8602,132.12286 C 196.32035,132.12301 201.39603,133.17296 206.08725,135.27274 C 210.77834,137.37279 214.90874,140.20756 218.47845,143.77707 C 222.04802,147.34684 224.84754,151.51248 226.87704,156.27402 C 228.90638,161.03579 229.92109,166.14672 229.92117,171.60681 C 229.92109,182.80502 225.93061,192.04421 217.94974,199.3244 C 217.24898,199.88417 216.51412,200.40861 215.74515,200.89774 C 214.97603,201.38701 214.24117,201.98195 213.54056,202.68256 L 208.7084,206.2522 L 203.67117,209.61676 L 198.21097,213.60297 C 195.97215,215.2821 193.76756,217.27734 191.5972,219.58868 C 189.42674,221.90014 187.32683,224.42089 185.29745,227.15094 C 183.268,229.88109 181.48318,232.75111 179.94299,235.76102 C 178.40274,238.771 177.14129,241.7457 176.15866,244.68512 C 175.32123,246.50522 174.72735,248.15011 174.37704,249.61981 C 174.02667,251.08956 173.57166,253.0848 173.01199,255.60553 L 229.92117,255.60553 L 229.92117,275.3443 L 151.38266,275.3443 z M 333.47922,204.78461 C 333.47912,215.56409 332.88418,224.73385 331.6944,232.29391 C 330.50442,239.85407 328.43762,246.99441 325.49399,253.71497 C 321.99476,262.11464 317.62083,268.2392 312.37219,272.08868 C 307.12341,275.93817 300.50857,277.86291 292.52768,277.86292 C 284.12798,277.86291 277.30273,275.93817 272.05191,272.08868 C 266.80103,268.2392 262.42603,262.11464 258.92691,253.71497 C 255.98744,246.85342 253.92277,239.67783 252.73291,232.18817 C 251.54302,224.6986 250.94808,215.56409 250.94809,204.78461 C 250.94808,194.14626 251.54302,185.01175 252.73291,177.38104 C 253.92277,169.75053 255.98744,162.57494 258.92691,155.85425 C 262.56702,147.45472 267.01251,141.39958 272.2634,137.68881 C 277.51421,133.97832 284.26897,132.12301 292.52768,132.12286 C 300.64529,132.12301 307.2943,133.97832 312.47473,137.68881 C 317.65501,141.39958 321.99476,147.59571 325.49399,156.27722 C 326.89527,159.77648 328.12146,163.27562 329.17258,166.77466 C 330.22351,170.27391 331.06412,173.94822 331.6944,177.79761 C 332.32449,181.64719 332.77951,185.77759 333.05945,190.18881 C 333.3392,194.60021 333.47912,199.46547 333.47922,204.78461 L 333.47922,204.78461 z M 314.15701,204.78461 C 314.15694,200.86256 314.05226,197.29186 313.84299,194.07248 C 313.63356,190.85326 313.35372,187.87857 313.00345,185.14838 C 312.65303,182.41837 312.19802,179.79401 311.6384,177.2753 C 311.07863,174.75678 310.44844,172.2371 309.74783,169.71625 C 307.9277,163.41448 305.65261,158.86325 302.92258,156.06253 C 300.19241,153.26205 296.72745,151.86176 292.52768,151.86163 C 283.84599,151.86176 277.8966,157.6723 274.67947,169.29327 C 272.99609,174.61259 271.84039,179.96704 271.21237,185.35666 C 270.58429,190.74645 270.27026,197.36128 270.27029,205.20117 C 270.27026,208.98237 270.37494,212.4484 270.58432,215.59927 C 270.79364,218.75027 271.07348,221.69079 271.42386,224.42084 C 271.77417,227.15099 272.22918,229.84584 272.78891,232.5054 C 273.34857,235.16505 273.97875,237.89408 274.67947,240.6925 C 277.8966,252.31362 283.84599,258.12416 292.52768,258.12415 C 296.72745,258.12416 300.19241,256.72387 302.92258,253.92325 C 305.65261,251.12267 307.9277,246.71243 309.74783,240.6925 C 310.58516,237.89408 311.28478,235.2003 311.84668,232.61115 C 312.40843,230.02208 312.86345,227.32723 313.21173,224.52658 C 313.55986,221.72604 313.80446,218.75027 313.94553,215.59927 C 314.08644,212.4484 314.15694,208.84351 314.15701,204.78461 L 314.15701,204.78461 z "
   style="font-size:100px;font-style:normal;font-weight:normal;text-align:center;text-anchor:middle;fill:#000000;fill-opacity:1;stroke:none;stroke-width:1px;stroke-linecap:butt;stroke-linejoin:miter;stroke-opacity:1;font-family:Roadgeek 2005 Series D"
   id="text1938" />
</svg>