<?xml version="1.0" encoding="UTF-8" standalone="no"?>
<!-- Created with Inkscape (http://www.inkscape.org/) -->
<svg
   xmlns:svg="http://www.w3.org/2000/svg"
   xmlns="http://www.w3.org/2000/svg"
   version="1.0"
   width="390.70001"
   height="393.20001"
   viewBox="0 0 390.7 393.2"
   id="svg2374"
   xml:space="preserve"><defs
   id="defs2408">
		
		
		
		
		
		 
		
		
		
		
		
		
	</defs>
	<path
   d="M 386.6,369.7 C 386.6,380.5 377.8,389.2 366.9,389.2 L 23.7,389.2 C 12.8,389.2 4,380.5 4,369.7 L 4,23.5 C 4,12.7 12.8,4 23.7,4 L 367,4 C 377.9,4 386.7,12.7 386.7,23.5 L 386.6,369.7 L 386.6,369.7 z "
   style="fill:#ffca08;stroke:#260d0d;stroke-width:8"
   id="path2377" /><polygon
   points="66.8,102.3 58.5,102.3 52.1,67 45.7,102.3 37.1,102.3 26.5,34.7 35.9,34.7 41.7,70.7 48.2,34.7 55.9,34.7 62.3,70.7 68.2,34.7 77.7,34.7 66.8,102.3 "
   style="fill:#260d0d"
   id="polygon2379" /><polygon
   points="108.1,71.7 108.1,102.3 98.4,102.3 98.4,71.7 81.7,34.7 91.9,34.7 103.3,59.1 114.5,34.7 124.9,34.7 108.1,71.7 "
   style="fill:#260d0d"
   id="polygon2381" /><path
   d="M 172.7,68.4 C 172.7,73.6 172.4,78 171.8,81.6 C 171.2,85.2 170.2,88.7 168.8,91.9 C 167.1,95.9 165,98.9 162.5,100.7 C 160,102.5 156.8,103.5 153,103.5 C 149,103.5 145.7,102.6 143.1,100.7 C 140.6,98.8 138.5,95.9 136.8,91.9 C 135.4,88.6 134.4,85.1 133.8,81.5 C 133.2,77.9 132.9,73.5 132.9,68.3 C 132.9,63.2 133.2,58.8 133.8,55.1 C 134.4,51.4 135.4,48 136.8,44.8 C 138.6,40.8 140.7,37.8 143.2,36.1 C 145.7,34.3 149,33.4 153,33.4 C 156.9,33.4 160.1,34.3 162.6,36.1 C 165.1,37.9 167.2,40.9 168.9,45 C 169.6,46.7 170.2,48.4 170.7,50 C 171.2,51.7 171.6,53.5 171.9,55.3 C 172.2,57.1 172.4,59.1 172.6,61.3 C 172.6,63.5 172.7,65.8 172.7,68.4 z M 163.4,68.4 C 163.4,66.5 163.3,64.8 163.2,63.2 C 163.1,61.7 163,60.2 162.8,58.9 C 162.6,57.6 162.4,56.3 162.1,55.1 C 161.8,53.9 161.5,52.7 161.2,51.5 C 160.3,48.5 159.2,46.3 157.9,44.9 C 156.6,43.6 154.9,42.9 152.9,42.9 C 148.7,42.9 145.8,45.7 144.3,51.3 C 143.5,53.9 142.9,56.4 142.6,59 C 142.3,61.6 142.1,64.8 142.1,68.5 C 142.1,70.3 142.1,72 142.2,73.5 C 142.3,75 142.4,76.4 142.6,77.7 C 142.8,79 143,80.3 143.3,81.6 C 143.6,82.9 143.9,84.2 144.2,85.5 C 145.8,91.1 148.6,93.9 152.8,93.9 C 154.8,93.9 156.5,93.2 157.8,91.9 C 159.1,90.6 160.2,88.4 161.1,85.5 C 161.5,84.1 161.8,82.9 162.1,81.6 C 162.4,80.4 162.6,79.1 162.8,77.7 C 163,76.4 163.1,74.9 163.1,73.4 C 163.4,72.1 163.4,70.3 163.4,68.4 z "
   style="fill:#260d0d"
   id="path2383" /><polygon
   points="220.9,102.3 220.9,64.4 208.5,102.3 195.9,64.4 195.9,102.3 186.2,102.3 186.2,34.7 195.9,34.7 208.5,72.6 220.9,34.7 230.8,34.7 230.8,102.3 220.9,102.3 "
   style="fill:#260d0d"
   id="polygon2385" /><rect
   width="9.5"
   height="67.599998"
   x="245.5"
   y="34.700001"
   style="fill:#260d0d"
   id="rect2387" /><polygon
   points="300.5,102.3 279.6,57 279.6,102.3 269.9,102.3 269.9,34.7 279.6,34.7 298.2,75.3 298.2,34.7 307.9,34.7 307.9,102.3 300.5,102.3 "
   style="fill:#260d0d"
   id="polygon2389" /><path
   d="M 358.7,89.5 C 358.4,91.1 357.9,92.6 357.2,94.1 C 355.9,97.1 353.9,99.4 351.3,101.1 C 348.7,102.8 345.7,103.6 342.3,103.6 C 338.3,103.6 334.8,102.6 331.9,100.7 C 329,98.8 326.7,95.9 325,92 C 323.9,89.4 323.1,86 322.4,81.7 C 321.8,77.4 321.4,73.1 321.4,68.6 C 321.4,63.8 321.6,59.6 322.1,56 C 322.5,52.4 323.4,49 324.6,45.7 C 325.2,43.9 326.1,42.3 327.2,40.8 C 328.3,39.3 329.6,38 331.1,36.9 C 332.6,35.8 334.2,34.9 336,34.3 C 337.8,33.7 339.7,33.4 341.6,33.4 C 344,33.4 346.3,33.8 348.4,34.7 C 350.5,35.6 352.3,36.7 353.8,38.2 C 355.3,39.7 356.6,41.5 357.5,43.6 C 358.4,45.7 359,48 359.1,50.5 L 349.4,50.5 C 349.3,48.2 348.5,46.4 347,45 C 345.6,43.6 343.7,42.9 341.3,42.9 C 337.9,42.9 335.4,44.6 333.6,47.9 C 332.7,49.6 331.9,52.2 331.4,55.6 C 330.9,59.1 330.6,62.8 330.6,66.9 C 330.6,69.7 330.7,72.6 330.9,75.5 C 331.1,78.4 331.5,81.2 332,83.8 C 332.7,87.1 333.9,89.6 335.6,91.4 C 337.3,93.2 339.4,94 342,94 C 346.9,94 349.4,90.5 349.4,83.5 L 349.4,79.1 L 341.7,79.1 L 341.7,69.6 L 359.1,69.6 L 359.1,83.5 C 359.1,85.9 359,87.9 358.7,89.5 z "
   style="fill:#260d0d"
   id="path2391" /><path
   d="M 189,294 C 189,294 190.5,291.8 194.2,291.6 L 196.6,288.7 C 196.6,288.7 200.1,289.8 200.1,291.7 C 200.1,291.7 199.3,293.2 205.1,291 L 206.1,291.6 L 203.4,294.5 C 203.4,294.5 196.8,295 194.5,297.9 C 194.5,297.9 192.5,299 192,301.7 L 195.9,305.1 L 198.2,301.2 L 200.2,303.7 L 201.1,303.9 C 201.1,303.9 202.9,299.8 205.5,300.2 C 205.5,300.2 209.9,302.2 209.9,304.6 C 209.9,304.6 206.5,305.5 206.4,307 L 204.2,307.8 L 203.3,308 L 202.8,307.7 L 202.8,308.9 L 203.5,309.2 C 203.5,309.2 205.4,308.7 208.7,322.3 L 210.9,320.9 L 212.7,321.3 C 212.7,321.3 214.2,320.8 214.2,319.6 C 214.2,319.6 215.2,319.3 215.1,320.2 C 215,321.1 214.8,321.8 213.4,322.6 C 212,323.4 212.1,321.6 211.4,321.9 C 210.6,322.2 210.1,322.5 210.1,322.9 C 210.1,323.3 212.5,323.8 213.1,325 C 213.7,326.2 212.8,326 212.7,325.8 C 212.6,325.6 211.2,325.5 211.1,325.7 C 211,325.9 208.7,326.8 209.3,327.7 C 209.8,328.6 211,329.6 212.1,329.4 C 213.2,329.2 213.4,328.5 214.1,328.7 C 214.8,328.9 214.9,330 214.9,330 L 215.8,330.2 L 215.9,329.6 C 215.9,329.6 217.8,330.4 217,332.6 C 216.2,334.8 220.4,332.3 220.2,332 C 220,331.7 220.7,333.3 220.2,333.8 C 219.7,334.3 223.1,335.3 223.3,335.8 C 223.5,336.3 223.7,336.9 223.1,336.8 C 222.4,336.7 220.8,335.8 220.7,336.2 C 220.6,336.6 220.8,337 222.6,337.9 L 224.6,336.9 C 224.6,336.9 225.1,336.9 225.1,337.5 C 225.1,338.2 222.6,338.7 223.9,339.8 C 225.2,340.9 226.6,340.4 226.6,340.4 C 226.6,340.4 226.7,341.3 226.7,342.2 C 226.7,343.1 227.9,343.1 227.9,343.1 L 226.4,344.7 L 227.8,344.3 C 227.8,344.3 229.2,347.8 228.4,349.6 L 230.3,350.3 L 230.2,353.8 L 228.5,353.5 L 228.4,355.3 L 230.8,357.5 L 230.1,358.3 L 227.6,358 C 227.6,358 226.8,357.9 226.5,360 C 226.5,360 216.9,365.3 216.1,367 C 215.2,368.6 212.2,367.1 212.2,367.1 L 212.2,365.6 L 213.1,364.6 L 212.3,364 L 211.2,364.1 L 211,364.8 L 210.6,364.7 C 210.6,364.7 210.4,361.7 213.1,360.6 C 213.1,360.6 213.4,359 212.1,357.3 C 210.8,355.7 210.6,348.1 210.6,348.1 C 210.6,348.1 209.1,346.9 208.6,347.7 C 208.1,348.5 207.3,348.6 207.3,351.5 C 207.3,354.4 208.1,366.6 208.1,366.6 C 208.1,366.6 210.2,371.2 211,371 C 211.8,370.8 210.9,372.9 210.4,373.5 C 209.9,374.1 209,374.6 206.1,372.4 C 203.2,370.3 204.2,361.5 204.2,361.5 C 204.2,361.5 199.7,353.6 199.8,347.2 L 196.7,345.7 L 195.7,346.3 C 195.7,346.3 193.2,346.1 191.5,343 L 189.7,343.1 L 190,338.8 C 190,338.8 189.2,338.3 188.8,338.8 C 188.4,339.3 184.7,344.5 184.7,345 C 184.7,345.5 184.9,346.2 186.6,346.2 C 188.3,346.1 189.7,348.8 189.8,349.2 C 189.9,349.6 190.1,351.1 190.1,351.1 L 189,351.5 C 189,351.5 186.7,351.4 184.5,349.1 C 184.5,349.1 181.8,349.8 183.3,350.3 C 184.8,350.9 185.8,352.9 187.5,353.3 C 189.2,353.6 189,355.5 189.2,356 C 189.4,356.5 193,359 192.4,362.2 L 187.1,360.2 L 186.9,358.2 L 185.9,357.8 L 185.7,356.3 C 185.7,356.3 181,351.4 176.4,349.7 L 178,347.2 C 178,347.2 172.6,346 170.9,344.1 C 169.2,342.2 174.1,339.6 174.1,339.6 L 175,334.4 L 172.9,330.6 C 172.9,330.6 173.1,322.4 178,321.4 C 178,321.4 175.2,315.5 173.4,321.2 C 171.6,326.9 172.3,333.2 166.9,331.9 C 166.9,331.9 168.9,328.3 168.5,326.7 L 166.8,326.8 C 166.8,326.8 167.6,325.4 167.9,325.2 C 168.2,324.9 167.9,323.5 167.9,323.5 L 166,323.6 C 166,323.6 167.7,322.5 167.7,321.6 C 167.7,320.7 168.5,319.6 168.5,319.6 L 167.5,318.4 C 167.5,318.4 168.7,309.8 172.2,309.6 C 175.7,309.4 178.9,314.8 178.2,316.8 C 177.6,318.8 180.1,319.9 180.6,320.1 C 181.1,320.3 183.6,320 190.9,322.5 L 191.7,319.9 C 191.7,319.9 193.1,319.6 193.6,320.7 C 194.1,321.8 194.4,319.2 194.4,319.2 L 193.3,318.6 L 193.2,308.9 C 193.2,308.9 187.9,304.8 187.7,302.8 C 187.5,300.8 190.8,297.3 191,297.1 C 191.2,296.9 191.3,295.9 191.3,295.9 L 188.4,294.4 L 189,294 z "
   style="fill:#260d0d"
   id="path2393" /><polygon
   points="203,319.3 201.4,322.4 203.9,325.1 205.1,325 205.8,324.3 204.8,321.2 203.9,319.3 203,319.3 "
   style="fill:#ffca08"
   id="polygon2395" /><polygon
   points="178.5,342.2 177.2,343.8 178.8,344 179,342.8 178.5,342.2 "
   style="fill:#ffca08"
   id="polygon2397" />
<path
   d="M 88.116058,275.3443 L 88.116058,159.84686 L 79.297699,159.84686 L 79.297699,144.51727 C 83.35652,144.23542 86.611064,143.25489 89.06134,141.57568 C 91.511572,139.89674 93.505741,137.58534 95.043854,134.64148 L 108.48929,134.64148 L 108.48929,275.3443 L 88.116058,275.3443 z M 132.72055,275.3443 C 132.99825,270.58478 133.31228,266.45439 133.66263,262.95309 C 134.01296,259.45183 134.43273,256.30196 134.92194,253.50348 C 135.41112,250.70504 136.04131,248.01019 136.8125,245.41891 C 137.58367,242.8277 138.52895,239.99186 139.64835,236.91138 C 145.39051,222.21416 152.95062,210.52472 162.3287,201.84302 C 163.17034,201.14241 164.04619,200.40755 164.95627,199.63843 C 165.86626,198.86946 166.98564,197.99468 168.31442,197.01407 C 169.64311,196.03362 171.25276,194.84374 173.14337,193.44443 C 175.03388,192.04528 177.3784,190.36514 180.17691,188.40399 C 184.79965,185.18265 187.91534,182.45255 189.52399,180.21368 C 191.1325,177.97501 191.93679,175.10606 191.93686,171.60681 C 191.93679,168.94517 191.41235,166.42443 190.36353,164.04456 C 189.31457,161.66491 187.91534,159.565 186.16583,157.74481 C 184.4162,155.92486 182.31629,154.48932 179.86609,153.43817 C 177.41578,152.38727 174.85978,151.86176 172.19809,151.86163 C 169.39958,151.86176 166.81047,152.38727 164.43076,153.43817 C 162.05096,154.48932 159.98522,155.92486 158.23355,157.74481 C 156.48181,159.565 155.08151,161.66491 154.03265,164.04456 C 152.98374,166.42443 152.45929,168.94517 152.45932,171.60681 L 132.72055,171.60681 C 132.85726,166.14672 133.9414,161.00161 135.97296,156.17148 C 138.0045,151.34159 140.76985,147.14069 144.26901,143.56879 C 147.76813,139.99714 151.89746,137.19655 156.65701,135.16699 C 161.4165,133.13772 166.59685,132.12301 172.19809,132.12286 C 177.65824,132.12301 182.73392,133.17296 187.42514,135.27274 C 192.11623,137.37279 196.24663,140.20756 199.81635,143.77707 C 203.38591,147.34684 206.18543,151.51248 208.21494,156.27402 C 210.24427,161.03579 211.25898,166.14672 211.25906,171.60681 C 211.25898,182.80502 207.2685,192.04421 199.28763,199.3244 C 198.58687,199.88417 197.85201,200.40861 197.08304,200.89774 C 196.31392,201.38701 195.57906,201.98195 194.87845,202.68256 L 190.0463,206.2522 L 185.00906,209.61676 L 179.54886,213.60297 C 177.31004,215.2821 175.10545,217.27734 172.93509,219.58868 C 170.76463,221.90014 168.66472,224.42089 166.63535,227.15094 C 164.60589,229.88109 162.82107,232.75111 161.28088,235.76102 C 159.74063,238.771 158.47918,241.7457 157.49655,244.68512 C 156.65912,246.50522 156.06525,248.15011 155.71494,249.61981 C 155.36456,251.08956 154.90955,253.0848 154.34988,255.60553 L 211.25906,255.60553 L 211.25906,275.3443 L 132.72055,275.3443 z M 314.81711,204.78461 C 314.81701,215.56409 314.22207,224.73385 313.03229,232.29391 C 311.84231,239.85407 309.77551,246.99441 306.83188,253.71497 C 303.33265,262.11464 298.95872,268.2392 293.71008,272.08868 C 288.4613,275.93817 281.84646,277.86291 273.86557,277.86292 C 265.46587,277.86291 258.64062,275.93817 253.3898,272.08868 C 248.13892,268.2392 243.76392,262.11464 240.2648,253.71497 C 237.32533,246.85342 235.26067,239.67783 234.0708,232.18817 C 232.88091,224.6986 232.28597,215.56409 232.28598,204.78461 C 232.28597,194.14626 232.88091,185.01175 234.0708,177.38104 C 235.26067,169.75053 237.32533,162.57494 240.2648,155.85425 C 243.90491,147.45472 248.3504,141.39958 253.60129,137.68881 C 258.8521,133.97832 265.60686,132.12301 273.86557,132.12286 C 281.98318,132.12301 288.63219,133.97832 293.81262,137.68881 C 298.9929,141.39958 303.33265,147.59571 306.83188,156.27722 C 308.23316,159.77648 309.45935,163.27562 310.51047,166.77466 C 311.5614,170.27391 312.40201,173.94822 313.03229,177.79761 C 313.66238,181.64719 314.1174,185.77759 314.39734,190.18881 C 314.67709,194.60021 314.81701,199.46547 314.81711,204.78461 L 314.81711,204.78461 z M 295.4949,204.78461 C 295.49483,200.86256 295.39015,197.29186 295.18088,194.07248 C 294.97145,190.85326 294.69161,187.87857 294.34134,185.14838 C 293.99092,182.41837 293.53591,179.79401 292.97629,177.2753 C 292.41652,174.75678 291.78634,172.2371 291.08572,169.71625 C 289.26559,163.41448 286.9905,158.86325 284.26047,156.06253 C 281.5303,153.26205 278.06534,151.86176 273.86557,151.86163 C 265.18388,151.86176 259.23449,157.6723 256.01736,169.29327 C 254.33398,174.61259 253.17828,179.96704 252.55026,185.35666 C 251.92218,190.74645 251.60815,197.36128 251.60818,205.20117 C 251.60815,208.98237 251.71283,212.4484 251.92221,215.59927 C 252.13153,218.75027 252.41137,221.69079 252.76175,224.42084 C 253.11206,227.15099 253.56707,229.84584 254.1268,232.5054 C 254.68646,235.16505 255.31665,237.89408 256.01736,240.6925 C 259.23449,252.31362 265.18388,258.12416 273.86557,258.12415 C 278.06534,258.12416 281.5303,256.72387 284.26047,253.92325 C 286.9905,251.12267 289.26559,246.71243 291.08572,240.6925 C 291.92305,237.89408 292.62267,235.2003 293.18457,232.61115 C 293.74632,230.02208 294.20134,227.32723 294.54962,224.52658 C 294.89775,221.72604 295.14235,218.75027 295.28342,215.59927 C 295.42433,212.4484 295.49483,208.84351 295.4949,204.78461 L 295.4949,204.78461 z "
   style="font-size:100px;font-style:normal;font-weight:normal;text-align:center;text-anchor:middle;fill:#000000;fill-opacity:1;stroke:none;stroke-width:1px;stroke-linecap:butt;stroke-linejoin:miter;stroke-opacity:1;font-family:Roadgeek 2005 Series D"
   id="text1938" />
</svg>