<?xml version="1.0" encoding="UTF-8" standalone="no"?>
<!-- Generator: Adobe Illustrator 11.0, SVG Export Plug-In . SVG Version: 6.0.0 Build 78)  -->
<svg
   xmlns:dc="http://purl.org/dc/elements/1.1/"
   xmlns:cc="http://web.resource.org/cc/"
   xmlns:rdf="http://www.w3.org/1999/02/22-rdf-syntax-ns#"
   xmlns:svg="http://www.w3.org/2000/svg"
   xmlns="http://www.w3.org/2000/svg"
   xmlns:sodipodi="http://sodipodi.sourceforge.net/DTD/sodipodi-0.dtd"
   xmlns:inkscape="http://www.inkscape.org/namespaces/inkscape"
   width="390.7"
   height="393.2"
   viewBox="0 0 390.7 393.2"
   style="overflow:visible;enable-background:new 0 0 390.7 393.2"
   xml:space="preserve"
   id="svg2374"
   sodipodi:version="0.32"
   inkscape:version="0.44.1"
   sodipodi:docname="WY-28.svg"
   sodipodi:docbase="D:\LH34IG2HGB\HOME\My Pictures\US Roads\WY"><metadata
   id="metadata2410"><rdf:RDF><cc:Work
       rdf:about=""><dc:format>image/svg+xml</dc:format><dc:type
         rdf:resource="http://purl.org/dc/dcmitype/StillImage" /></cc:Work></rdf:RDF></metadata><defs
   id="defs2408">
		
		
		
		
		
		 
		
		
		
		
		
		
	</defs><sodipodi:namedview
   inkscape:window-height="573"
   inkscape:window-width="853"
   inkscape:pageshadow="2"
   inkscape:pageopacity="0.0"
   guidetolerance="10.0"
   gridtolerance="10.0"
   objecttolerance="10.0"
   borderopacity="1.0"
   bordercolor="#666666"
   pagecolor="#ffffff"
   id="base"
   inkscape:zoom="0.95879956"
   inkscape:cx="195.35001"
   inkscape:cy="196.60001"
   inkscape:window-x="110"
   inkscape:window-y="145"
   inkscape:current-layer="svg2374" />
	<path
   id="path2377"
   d="M 386.6,369.7 C 386.6,380.5 377.8,389.2 366.9,389.2 L 23.7,389.2 C 12.8,389.2 4,380.5 4,369.7 L 4,23.5 C 4,12.7 12.8,4 23.7,4 L 367,4 C 377.9,4 386.7,12.7 386.7,23.5 L 386.6,369.7 L 386.6,369.7 z "
   style="fill:#ffca08;stroke:#260d0d;stroke-width:8" /><polygon
   id="polygon2379"
   points="66.8,102.3 58.5,102.3 52.1,67 45.7,102.3 37.1,102.3 26.5,34.7 35.9,34.7 41.7,70.7 48.2,34.7 55.9,34.7 62.3,70.7 68.2,34.7 77.7,34.7 66.8,102.3 "
   style="fill:#260d0d" /><polygon
   id="polygon2381"
   points="108.1,71.7 108.1,102.3 98.4,102.3 98.4,71.7 81.7,34.7 91.9,34.7 103.3,59.1 114.5,34.7 124.9,34.7 108.1,71.7 "
   style="fill:#260d0d" /><path
   id="path2383"
   d="M 172.7,68.4 C 172.7,73.6 172.4,78 171.8,81.6 C 171.2,85.2 170.2,88.7 168.8,91.9 C 167.1,95.9 165,98.9 162.5,100.7 C 160,102.5 156.8,103.5 153,103.5 C 149,103.5 145.7,102.6 143.1,100.7 C 140.6,98.8 138.5,95.9 136.8,91.9 C 135.4,88.6 134.4,85.1 133.8,81.5 C 133.2,77.9 132.9,73.5 132.9,68.3 C 132.9,63.2 133.2,58.8 133.8,55.1 C 134.4,51.4 135.4,48 136.8,44.8 C 138.6,40.8 140.7,37.8 143.2,36.1 C 145.7,34.3 149,33.4 153,33.4 C 156.9,33.4 160.1,34.3 162.6,36.1 C 165.1,37.9 167.2,40.9 168.9,45 C 169.6,46.7 170.2,48.4 170.7,50 C 171.2,51.7 171.6,53.5 171.9,55.3 C 172.2,57.1 172.4,59.1 172.6,61.3 C 172.6,63.5 172.7,65.8 172.7,68.4 z M 163.4,68.4 C 163.4,66.5 163.3,64.8 163.2,63.2 C 163.1,61.7 163,60.2 162.8,58.9 C 162.6,57.6 162.4,56.3 162.1,55.1 C 161.8,53.9 161.5,52.7 161.2,51.5 C 160.3,48.5 159.2,46.3 157.9,44.9 C 156.6,43.6 154.9,42.9 152.9,42.9 C 148.7,42.9 145.8,45.7 144.3,51.3 C 143.5,53.9 142.9,56.4 142.6,59 C 142.3,61.6 142.1,64.8 142.1,68.5 C 142.1,70.3 142.1,72 142.2,73.5 C 142.3,75 142.4,76.4 142.6,77.7 C 142.8,79 143,80.3 143.3,81.6 C 143.6,82.9 143.9,84.2 144.2,85.5 C 145.8,91.1 148.6,93.9 152.8,93.9 C 154.8,93.9 156.5,93.2 157.8,91.9 C 159.1,90.6 160.2,88.4 161.1,85.5 C 161.5,84.1 161.8,82.9 162.1,81.6 C 162.4,80.4 162.6,79.1 162.8,77.7 C 163,76.4 163.1,74.9 163.1,73.4 C 163.4,72.1 163.4,70.3 163.4,68.4 z "
   style="fill:#260d0d" /><polygon
   id="polygon2385"
   points="220.9,102.3 220.9,64.4 208.5,102.3 195.9,64.4 195.9,102.3 186.2,102.3 186.2,34.7 195.9,34.7 208.5,72.6 220.9,34.7 230.8,34.7 230.8,102.3 220.9,102.3 "
   style="fill:#260d0d" /><rect
   id="rect2387"
   height="67.599998"
   width="9.5"
   style="fill:#260d0d"
   y="34.700001"
   x="245.5" /><polygon
   id="polygon2389"
   points="300.5,102.3 279.6,57 279.6,102.3 269.9,102.3 269.9,34.7 279.6,34.7 298.2,75.3 298.2,34.7 307.9,34.7 307.9,102.3 300.5,102.3 "
   style="fill:#260d0d" /><path
   id="path2391"
   d="M 358.7,89.5 C 358.4,91.1 357.9,92.6 357.2,94.1 C 355.9,97.1 353.9,99.4 351.3,101.1 C 348.7,102.8 345.7,103.6 342.3,103.6 C 338.3,103.6 334.8,102.6 331.9,100.7 C 329,98.8 326.7,95.9 325,92 C 323.9,89.4 323.1,86 322.4,81.7 C 321.8,77.4 321.4,73.1 321.4,68.6 C 321.4,63.8 321.6,59.6 322.1,56 C 322.5,52.4 323.4,49 324.6,45.7 C 325.2,43.9 326.1,42.3 327.2,40.8 C 328.3,39.3 329.6,38 331.1,36.9 C 332.6,35.8 334.2,34.9 336,34.3 C 337.8,33.7 339.7,33.4 341.6,33.4 C 344,33.4 346.3,33.8 348.4,34.7 C 350.5,35.6 352.3,36.7 353.8,38.2 C 355.3,39.7 356.6,41.5 357.5,43.6 C 358.4,45.7 359,48 359.1,50.5 L 349.4,50.5 C 349.3,48.2 348.5,46.4 347,45 C 345.6,43.6 343.7,42.9 341.3,42.9 C 337.9,42.9 335.4,44.6 333.6,47.9 C 332.7,49.6 331.9,52.2 331.4,55.6 C 330.9,59.1 330.6,62.8 330.6,66.9 C 330.6,69.7 330.7,72.6 330.9,75.5 C 331.1,78.4 331.5,81.2 332,83.8 C 332.7,87.1 333.9,89.6 335.6,91.4 C 337.3,93.2 339.4,94 342,94 C 346.9,94 349.4,90.5 349.4,83.5 L 349.4,79.1 L 341.7,79.1 L 341.7,69.6 L 359.1,69.6 L 359.1,83.5 C 359.1,85.9 359,87.9 358.7,89.5 z "
   style="fill:#260d0d" /><path
   id="path2393"
   d="M 189,294 C 189,294 190.5,291.8 194.2,291.6 L 196.6,288.7 C 196.6,288.7 200.1,289.8 200.1,291.7 C 200.1,291.7 199.3,293.2 205.1,291 L 206.1,291.6 L 203.4,294.5 C 203.4,294.5 196.8,295 194.5,297.9 C 194.5,297.9 192.5,299 192,301.7 L 195.9,305.1 L 198.2,301.2 L 200.2,303.7 L 201.1,303.9 C 201.1,303.9 202.9,299.8 205.5,300.2 C 205.5,300.2 209.9,302.2 209.9,304.6 C 209.9,304.6 206.5,305.5 206.4,307 L 204.2,307.8 L 203.3,308 L 202.8,307.7 L 202.8,308.9 L 203.5,309.2 C 203.5,309.2 205.4,308.7 208.7,322.3 L 210.9,320.9 L 212.7,321.3 C 212.7,321.3 214.2,320.8 214.2,319.6 C 214.2,319.6 215.2,319.3 215.1,320.2 C 215,321.1 214.8,321.8 213.4,322.6 C 212,323.4 212.1,321.6 211.4,321.9 C 210.6,322.2 210.1,322.5 210.1,322.9 C 210.1,323.3 212.5,323.8 213.1,325 C 213.7,326.2 212.8,326 212.7,325.8 C 212.6,325.6 211.2,325.5 211.1,325.7 C 211,325.9 208.7,326.8 209.3,327.7 C 209.8,328.6 211,329.6 212.1,329.4 C 213.2,329.2 213.4,328.5 214.1,328.7 C 214.8,328.9 214.9,330 214.9,330 L 215.8,330.2 L 215.9,329.6 C 215.9,329.6 217.8,330.4 217,332.6 C 216.2,334.8 220.4,332.3 220.2,332 C 220,331.7 220.7,333.3 220.2,333.8 C 219.7,334.3 223.1,335.3 223.3,335.8 C 223.5,336.3 223.7,336.9 223.1,336.8 C 222.4,336.7 220.8,335.8 220.7,336.2 C 220.6,336.6 220.8,337 222.6,337.9 L 224.6,336.9 C 224.6,336.9 225.1,336.9 225.1,337.5 C 225.1,338.2 222.6,338.7 223.9,339.8 C 225.2,340.9 226.6,340.4 226.6,340.4 C 226.6,340.4 226.7,341.3 226.7,342.2 C 226.7,343.1 227.9,343.1 227.9,343.1 L 226.4,344.7 L 227.8,344.3 C 227.8,344.3 229.2,347.8 228.4,349.6 L 230.3,350.3 L 230.2,353.8 L 228.5,353.5 L 228.4,355.3 L 230.8,357.5 L 230.1,358.3 L 227.6,358 C 227.6,358 226.8,357.9 226.5,360 C 226.5,360 216.9,365.3 216.1,367 C 215.2,368.6 212.2,367.1 212.2,367.1 L 212.2,365.6 L 213.1,364.6 L 212.3,364 L 211.2,364.1 L 211,364.8 L 210.6,364.7 C 210.6,364.7 210.4,361.7 213.1,360.6 C 213.1,360.6 213.4,359 212.1,357.3 C 210.8,355.7 210.6,348.1 210.6,348.1 C 210.6,348.1 209.1,346.9 208.6,347.7 C 208.1,348.5 207.3,348.6 207.3,351.5 C 207.3,354.4 208.1,366.6 208.1,366.6 C 208.1,366.6 210.2,371.2 211,371 C 211.8,370.8 210.9,372.9 210.4,373.5 C 209.9,374.1 209,374.6 206.1,372.4 C 203.2,370.3 204.2,361.5 204.2,361.5 C 204.2,361.5 199.7,353.6 199.8,347.2 L 196.7,345.7 L 195.7,346.3 C 195.7,346.3 193.2,346.1 191.5,343 L 189.7,343.1 L 190,338.8 C 190,338.8 189.2,338.3 188.8,338.8 C 188.4,339.3 184.7,344.5 184.7,345 C 184.7,345.5 184.9,346.2 186.6,346.2 C 188.3,346.1 189.7,348.8 189.8,349.2 C 189.9,349.6 190.1,351.1 190.1,351.1 L 189,351.5 C 189,351.5 186.7,351.4 184.5,349.1 C 184.5,349.1 181.8,349.8 183.3,350.3 C 184.8,350.9 185.8,352.9 187.5,353.3 C 189.2,353.6 189,355.5 189.2,356 C 189.4,356.5 193,359 192.4,362.2 L 187.1,360.2 L 186.9,358.2 L 185.9,357.8 L 185.7,356.3 C 185.7,356.3 181,351.4 176.4,349.7 L 178,347.2 C 178,347.2 172.6,346 170.9,344.1 C 169.2,342.2 174.1,339.6 174.1,339.6 L 175,334.4 L 172.9,330.6 C 172.9,330.6 173.1,322.4 178,321.4 C 178,321.4 175.2,315.5 173.4,321.2 C 171.6,326.9 172.3,333.2 166.9,331.9 C 166.9,331.9 168.9,328.3 168.5,326.7 L 166.8,326.8 C 166.8,326.8 167.6,325.4 167.9,325.2 C 168.2,324.9 167.9,323.5 167.9,323.5 L 166,323.6 C 166,323.6 167.7,322.5 167.7,321.6 C 167.7,320.7 168.5,319.6 168.5,319.6 L 167.5,318.4 C 167.5,318.4 168.7,309.8 172.2,309.6 C 175.7,309.4 178.9,314.8 178.2,316.8 C 177.6,318.8 180.1,319.9 180.6,320.1 C 181.1,320.3 183.6,320 190.9,322.5 L 191.7,319.9 C 191.7,319.9 193.1,319.6 193.6,320.7 C 194.1,321.8 194.4,319.2 194.4,319.2 L 193.3,318.6 L 193.2,308.9 C 193.2,308.9 187.9,304.8 187.7,302.8 C 187.5,300.8 190.8,297.3 191,297.1 C 191.2,296.9 191.3,295.9 191.3,295.9 L 188.4,294.4 L 189,294 z "
   style="fill:#260d0d" /><polygon
   id="polygon2395"
   points="203,319.3 201.4,322.4 203.9,325.1 205.1,325 205.8,324.3 204.8,321.2 203.9,319.3 203,319.3 "
   style="fill:#ffca08" /><polygon
   id="polygon2397"
   points="178.5,342.2 177.2,343.8 178.8,344 179,342.8 178.5,342.2 "
   style="fill:#ffca08" />
<path
   style="font-size:100px;font-style:normal;font-weight:normal;text-align:center;text-anchor:middle;fill:black;fill-opacity:1;stroke:none;stroke-width:1px;stroke-linecap:butt;stroke-linejoin:miter;stroke-opacity:1;font-family:Roadgeek 2005 Series D"
   d="M 87.526459,275.3443 C 87.804155,267.08564 88.853043,259.52553 90.673126,252.66394 C 92.493176,245.8024 95.364267,239.01346 99.286407,232.29712 C 102.22583,226.97368 105.8649,222.03686 110.20361,217.48663 C 114.54226,212.93652 119.16185,208.84138 124.06241,205.20117 C 125.32273,204.50483 126.44318,203.77104 127.42377,202.99979 C 128.40424,202.22868 129.3837,201.49275 130.36215,200.79199 L 137.92441,196.80579 L 144.8522,192.81317 L 151.57492,189.03204 C 154.3733,187.21206 156.64732,184.93698 158.39697,182.20679 C 160.14646,179.47678 161.02124,176.64201 161.02133,173.70245 C 161.02124,171.04509 160.32163,168.56065 158.92249,166.24915 C 157.52317,163.93786 155.66892,161.94262 153.35974,160.26343 C 151.0504,158.58447 148.35555,157.25467 145.27518,156.27402 C 142.19466,155.29361 138.90487,154.80334 135.40579,154.80322 C 128.26646,154.80334 122.49116,156.48349 118.0799,159.84366 C 113.66854,163.20406 110.90319,168.1035 109.78384,174.54199 L 87.526459,169.71625 C 89.906203,157.95428 95.365335,148.7482 103.90387,142.09799 C 112.44234,135.44805 122.94297,132.12301 135.40579,132.12286 C 142.1263,132.12301 148.39079,133.24346 154.19928,135.48422 C 160.0076,137.72527 165.04697,140.73521 169.31738,144.51407 C 173.58761,148.29319 176.98314,152.73761 179.504,157.84735 C 182.02464,162.95733 183.28502,168.38335 183.28513,174.12543 C 183.28502,179.58573 182.05989,184.94018 179.60974,190.18881 C 177.15938,195.43761 173.62499,200.09352 169.00656,204.15656 C 167.88708,204.99403 166.87237,205.76307 165.96243,206.46368 C 165.05231,207.16444 164.10596,207.72413 163.12338,208.14276 L 156.19559,212.55194 L 148.63333,216.54456 L 141.70554,220.53717 C 138.34304,222.49401 135.36728,224.55761 132.77823,226.72797 C 130.18906,228.89842 127.8093,231.244 125.63895,233.76471 C 123.46849,236.2855 121.438,239.0861 119.54749,242.1665 C 117.65688,245.24698 115.87206,248.74612 114.19302,252.66394 L 183.28513,252.66394 L 183.28513,275.3443 L 87.526459,275.3443 z M 306.74216,230.40656 C 306.74205,236.84519 305.44642,242.93451 302.85529,248.67453 C 300.26393,254.4146 296.76372,259.45503 292.35464,263.79584 C 287.94537,268.13666 282.87076,271.56638 277.1308,274.08499 C 271.39067,276.60361 265.30135,277.86291 258.86282,277.86292 C 252.4199,277.86291 246.32844,276.60361 240.58844,274.08499 C 234.84835,271.56638 229.77374,268.13666 225.36459,263.79584 C 220.95539,259.45503 217.45625,254.4146 214.86716,248.67453 C 212.27803,242.93451 210.98348,236.84519 210.98349,230.40656 C 210.98348,223.68603 212.38271,217.63089 215.18118,212.24112 C 217.97962,206.85148 221.9701,202.05671 227.15262,197.85681 C 220.29102,190.57662 216.86024,182.03598 216.86026,172.23486 C 216.86024,166.77477 217.98069,161.62966 220.22162,156.79953 C 222.4625,151.96964 225.50769,147.69932 229.35721,143.98856 C 233.20666,140.27806 237.65108,137.37279 242.69049,135.27274 C 247.72981,133.17296 253.12058,132.12301 258.86282,132.12286 C 264.46395,132.12301 269.85366,133.17296 275.03195,135.27274 C 280.21009,137.37279 284.72501,140.27806 288.57672,143.98856 C 292.42825,147.69932 295.50869,151.96964 297.81805,156.79953 C 300.12722,161.62966 301.28185,166.77477 301.28195,172.23486 C 301.28185,177.13547 300.33657,181.72089 298.44611,185.99112 C 296.55544,190.26153 293.86059,194.21676 290.36154,197.85681 C 295.82165,202.05671 299.9168,206.92091 302.647,212.4494 C 305.377,217.97802 306.74205,223.96374 306.74216,230.40656 L 306.74216,230.40656 z M 278.60159,171.60681 C 278.60151,166.98412 276.67677,163.02782 272.82736,159.73792 C 268.9778,156.44824 264.32296,154.80334 258.86282,154.80322 C 253.40256,154.80334 248.74772,156.44824 244.89828,159.73792 C 241.04875,163.02782 239.12401,166.98412 239.12405,171.60681 C 239.12401,175.80674 241.04875,179.41163 244.89828,182.42148 C 248.74772,185.43152 253.40256,186.93649 258.86282,186.9364 C 264.32296,186.93649 268.9778,185.43152 272.82736,182.42148 C 276.67677,179.41163 278.60151,175.80674 278.60159,171.60681 L 278.60159,171.60681 z M 284.47836,230.82312 C 284.47828,227.88371 283.77866,225.11943 282.37952,222.53027 C 280.9802,219.94122 279.12596,217.70138 276.81677,215.81076 C 274.50743,213.92026 271.81258,212.41529 268.73221,211.29584 C 265.6517,210.17652 262.3619,209.61683 258.86282,209.61676 C 255.36362,209.61683 252.10908,210.17652 249.09918,211.29584 C 246.08918,212.41529 243.42851,213.92026 241.11716,215.81076 C 238.80571,217.70138 236.98565,219.94122 235.65695,222.53027 C 234.32818,225.11943 233.66381,227.88371 233.66385,230.82312 C 233.66381,234.18559 234.32818,237.33652 235.65695,240.27594 C 236.98565,243.21543 238.80571,245.80453 241.11716,248.04327 C 243.42851,250.28207 246.08918,252.03164 249.09918,253.29199 C 252.10908,254.55239 255.36362,255.18258 258.86282,255.18256 C 262.3619,255.18258 265.68694,254.55239 268.83795,253.29199 C 271.98882,252.03164 274.71892,250.28207 277.02826,248.04327 C 279.33744,245.80453 281.15644,243.21543 282.48526,240.27594 C 283.81391,237.33652 284.47828,234.18559 284.47836,230.82312 L 284.47836,230.82312 z "
   id="text1938" />
</svg>